<svg width="56" height="59" viewBox="0 0 56 59" fill="none" xmlns="http://www.w3.org/2000/svg">
<path d="M53.7183 6.31248L53.6078 6.19448L53.4973 6.07648C52.9446 5.60448 52.2814 5.30948 51.6735 5.30948H33.7121L33.2147 6.84348C32.3857 9.49848 30.1198 11.3275 27.5776 11.3275C25.0354 11.3275 22.7695 9.55748 21.9405 6.84348L21.4431 5.30948H3.53694C2.43162 5.30948 1.8237 5.84048 1.4921 6.31248C0.994711 6.96148 0.828914 7.66948 0.884179 8.49548L1.87339 19.7665C1.98392 21.2415 2.92902 21.7665 4.31066 21.7665L11.44 20.0005L12.49 52.3915C12.49 53.9255 13.6506 55.2235 15.1428 55.2235H40.1229C41.6151 55.2235 42.831 53.9845 42.831 52.3915L43.881 20.0005L51.6182 21.7665C52.9999 21.7665 53.5525 20.2955 53.7183 18.8205L54.3815 8.37748V8.25948C54.3815 7.55148 54.1604 6.84348 53.7183 6.31248ZM51.0506 18.8205L42.831 17.0505C41.8362 17.0505 41.1177 17.8175 41.1177 18.8205L40.1229 52.2735H15.3086L14.2585 18.9385C14.2585 17.8175 13.5401 17.0505 12.5453 17.0505L4.68352 19.2665L3.70274 8.25948H19.564C20.8904 11.8585 24.0958 14.2775 27.6328 14.2775C31.2251 14.2775 34.4305 11.8585 35.7017 8.25948H51.6182L51.0506 18.8205Z" fill="#262060"/>
</svg>
