<svg width="106" height="106" viewBox="0 0 106 106" fill="none" xmlns="http://www.w3.org/2000/svg">
<path d="M62.0939 39.9607C71.1872 39.9607 79.5006 43.5124 85.6184 49.3898V19.7382C85.6184 18.5285 84.706 17.5469 83.5816 17.5469H22.4234C21.2991 17.5469 20.3867 18.5285 20.3867 19.7382V49.3898C26.5006 43.5124 34.78 39.9607 43.9111 39.9607H62.0939Z" fill="#180A37"/>
<path d="M103.963 61.409H101.927V8.77329C101.927 3.94676 98.2582 0 93.7721 0H12.2316C7.74557 0 4.07721 3.94676 4.07721 8.77329V61.409H2.03671C0.897215 61.409 0 62.3743 0 63.6003V100.885C0 103.296 1.83607 105.271 4.07721 105.271H101.923C104.164 105.271 106 103.296 106 100.885V63.6003C106 62.3743 105.103 61.409 103.963 61.409ZM66.0456 61.409L54.59 76.8131C53.7723 77.9088 52.2239 77.9088 51.4062 76.8131L39.9506 61.409H12.2316C14.0677 56.8024 16.8805 52.7253 20.3861 49.3895V19.7379C20.3861 18.5282 21.2984 17.5466 22.4228 17.5466H83.5772C84.7016 17.5466 85.6139 18.5282 85.6139 19.7379V49.3895C85.8184 49.5646 86.0228 49.7398 86.2272 49.9597C89.4905 53.2059 92.0572 57.0671 93.7684 61.409H66.0456Z" fill="#140F40"/>
<path d="M85.6146 49.389C79.5007 43.5116 71.1834 39.96 62.0902 39.96H43.9074C34.7762 39.96 26.5007 43.5116 20.3829 49.389C16.8774 52.7207 14.0646 56.8019 12.2285 61.4085H39.9513H66.0424H93.7652C92.0541 57.0667 89.4836 53.2054 86.2241 49.9592C86.0234 49.7393 85.819 49.5642 85.6146 49.389Z" fill="#FBC34E"/>
<path d="M51.4088 76.8124C52.2265 77.908 53.7749 77.908 54.5926 76.8124L66.0482 61.4082H39.957L51.4088 76.8124Z" fill="#4F245E"/>
<path d="M22 55.1152C22 55.1152 22.7046 55.0167 22.8525 54.8523C23.0003 54.688 23.1153 53.9999 23.1153 53.9999C23.1153 53.9999 23.2632 54.7209 23.3782 54.8523C23.4933 54.9838 24.2307 55.1152 24.2307 55.1152C24.2307 55.1152 23.4933 55.2467 23.3782 55.3781C23.2632 55.5096 23.1153 56.2306 23.1153 56.2306C23.1153 56.2306 22.9675 55.5096 22.8525 55.3781C22.7375 55.2467 22 55.1152 22 55.1152Z" fill="white" fill-opacity="0.7"/>
<path d="M31.668 56.4736C31.668 56.4736 31.6662 56.7245 31.7159 56.7845C31.7657 56.8445 31.9998 56.9199 31.9998 56.9199C31.9998 56.9199 31.7407 56.9345 31.689 56.9678C31.6372 57.0012 31.5535 57.2517 31.5535 57.2517C31.5535 57.2517 31.5455 56.9877 31.5056 56.9409C31.4656 56.894 31.2217 56.8055 31.2217 56.8055C31.2217 56.8055 31.4808 56.7909 31.5325 56.7575C31.5843 56.7241 31.668 56.4736 31.668 56.4736Z" fill="white" fill-opacity="0.7"/>
<path d="M28.9336 61.6689C28.9336 61.6689 29.2197 61.6289 29.2797 61.5622C29.3398 61.4955 29.3865 61.2161 29.3865 61.2161C29.3865 61.2161 29.4465 61.5088 29.4932 61.5622C29.5399 61.6156 29.8394 61.6689 29.8394 61.6689C29.8394 61.6689 29.5399 61.7223 29.4932 61.7757C29.4465 61.8291 29.3865 62.1218 29.3865 62.1218C29.3865 62.1218 29.3264 61.8291 29.2797 61.7757C29.233 61.7223 28.9336 61.6689 28.9336 61.6689Z" fill="white" fill-opacity="0.7"/>
<path d="M24.0469 57.4531C24.0469 57.4531 24.333 57.4131 24.393 57.3464C24.4531 57.2797 24.4998 57.0002 24.4998 57.0002C24.4998 57.0002 24.5598 57.293 24.6065 57.3464C24.6532 57.3998 24.9526 57.4531 24.9526 57.4531C24.9526 57.4531 24.6532 57.5065 24.6065 57.5599C24.5598 57.6132 24.4998 57.906 24.4998 57.906C24.4998 57.906 24.4397 57.6132 24.393 57.5599C24.3463 57.5065 24.0469 57.4531 24.0469 57.4531Z" fill="white" fill-opacity="0.7"/>
<path d="M37.9648 44.1211C37.9648 44.1211 38.1398 44.8107 38.3193 44.9397C38.4988 45.0688 39.1954 45.1079 39.1954 45.1079C39.1954 45.1079 38.4948 45.3337 38.3767 45.4624C38.2586 45.5911 38.2085 46.3384 38.2085 46.3384C38.2085 46.3384 37.9973 45.6198 37.8541 45.5198C37.7109 45.4198 36.978 45.3516 36.978 45.3516C36.978 45.3516 37.6786 45.1259 37.7967 44.9972C37.9148 44.8685 37.9648 44.1211 37.9648 44.1211Z" fill="white" fill-opacity="0.7"/>
<path d="M37.6719 53.8799C37.6719 53.8799 37.4224 53.9055 37.3682 53.9615C37.3139 54.0175 37.2646 54.2585 37.2646 54.2585C37.2646 54.2585 37.2217 54.0025 37.1829 53.9547C37.1441 53.907 36.886 53.8511 36.886 53.8511C36.886 53.8511 37.1475 53.8143 37.1897 53.7695C37.2319 53.7247 37.2933 53.4726 37.2933 53.4726C37.2933 53.4726 37.3361 53.7285 37.3749 53.7763C37.4138 53.8241 37.6719 53.8799 37.6719 53.8799Z" fill="white" fill-opacity="0.7"/>
<path d="M32.209 51.7295C32.209 51.7295 32.28 52.0095 32.3529 52.0619C32.4258 52.1143 32.7086 52.1302 32.7086 52.1302C32.7086 52.1302 32.4242 52.2219 32.3762 52.2741C32.3283 52.3264 32.3079 52.6298 32.3079 52.6298C32.3079 52.6298 32.2222 52.338 32.164 52.2974C32.1059 52.2568 31.8083 52.2291 31.8083 52.2291C31.8083 52.2291 32.0927 52.1375 32.1407 52.0852C32.1886 52.033 32.209 51.7295 32.209 51.7295Z" fill="white" fill-opacity="0.7"/>
<path d="M35.8652 46.4111C35.8652 46.4111 35.9363 46.6911 36.0092 46.7435C36.082 46.7959 36.3649 46.8118 36.3649 46.8118C36.3649 46.8118 36.0804 46.9035 36.0325 46.9558C35.9845 47.008 35.9642 47.3115 35.9642 47.3115C35.9642 47.3115 35.8784 47.0197 35.8203 46.9791C35.7621 46.9385 35.4645 46.9108 35.4645 46.9108C35.4645 46.9108 35.749 46.8191 35.7969 46.7669C35.8449 46.7146 35.8652 46.4111 35.8652 46.4111Z" fill="white" fill-opacity="0.7"/>
<path d="M44.9668 53.1221C44.9668 53.1221 45.1418 53.8117 45.3212 53.9407C45.5007 54.0698 46.1973 54.1089 46.1973 54.1089C46.1973 54.1089 45.4968 54.3347 45.3787 54.4633C45.2606 54.592 45.2105 55.3394 45.2105 55.3394C45.2105 55.3394 44.9993 54.6208 44.8561 54.5208C44.7128 54.4208 43.98 54.3526 43.98 54.3526C43.98 54.3526 44.6805 54.1268 44.7986 53.9982C44.9167 53.8695 44.9668 53.1221 44.9668 53.1221Z" fill="white" fill-opacity="0.7"/>
<path d="M44.6719 62.8799C44.6719 62.8799 44.4224 62.9055 44.3682 62.9615C44.3139 63.0175 44.2646 63.2585 44.2646 63.2585C44.2646 63.2585 44.2217 63.0025 44.1829 62.9547C44.1441 62.907 43.886 62.8511 43.886 62.8511C43.886 62.8511 44.1475 62.8143 44.1897 62.7695C44.2319 62.7247 44.2933 62.4726 44.2933 62.4726C44.2933 62.4726 44.3361 62.7285 44.3749 62.7763C44.4138 62.8241 44.6719 62.8799 44.6719 62.8799Z" fill="white" fill-opacity="0.7"/>
<path d="M39.209 60.7295C39.209 60.7295 39.28 61.0095 39.3529 61.0619C39.4258 61.1143 39.7086 61.1302 39.7086 61.1302C39.7086 61.1302 39.4242 61.2219 39.3762 61.2741C39.3283 61.3264 39.3079 61.6298 39.3079 61.6298C39.3079 61.6298 39.2222 61.338 39.164 61.2974C39.1059 61.2568 38.8083 61.2291 38.8083 61.2291C38.8083 61.2291 39.0927 61.1375 39.1407 61.0852C39.1886 61.033 39.209 60.7295 39.209 60.7295Z" fill="white" fill-opacity="0.7"/>
<path d="M42.8672 55.4121C42.8672 55.4121 42.9382 55.6921 43.0111 55.7445C43.084 55.7969 43.3668 55.8128 43.3668 55.8128C43.3668 55.8128 43.0824 55.9045 43.0344 55.9567C42.9865 56.009 42.9661 56.3125 42.9661 56.3125C42.9661 56.3125 42.8804 56.0206 42.8222 55.9801C42.7641 55.9395 42.4665 55.9118 42.4665 55.9118C42.4665 55.9118 42.7509 55.8201 42.7989 55.7678C42.8468 55.7156 42.8672 55.4121 42.8672 55.4121Z" fill="white" fill-opacity="0.7"/>
<path d="M51.8223 47.5615C51.8223 47.5615 51.1969 47.9008 51.116 48.1065C51.0351 48.3122 51.1685 48.997 51.1685 48.997C51.1685 48.997 50.7773 48.3735 50.6235 48.2907C50.4697 48.2079 49.733 48.3432 49.733 48.3432C49.733 48.3432 50.3776 47.9617 50.4393 47.7983C50.5009 47.6349 50.3868 46.9077 50.3868 46.9077C50.3868 46.9077 50.7779 47.5312 50.9317 47.614C51.0855 47.6968 51.8223 47.5615 51.8223 47.5615Z" fill="white" fill-opacity="0.7"/>
<path d="M42.291 49.6777C42.291 49.6777 42.2048 49.4422 42.1372 49.4034C42.0696 49.3646 41.8239 49.3761 41.8239 49.3761C41.8239 49.3761 42.0614 49.2716 42.0982 49.2222C42.1349 49.1728 42.1255 48.9089 42.1255 48.9089C42.1255 48.9089 42.2255 49.1533 42.2794 49.1832C42.3332 49.2131 42.5927 49.2106 42.5927 49.2106C42.5927 49.2106 42.3552 49.315 42.3184 49.3644C42.2816 49.4138 42.291 49.6777 42.291 49.6777Z" fill="white" fill-opacity="0.7"/>
<path d="M43.0312 43.8535C43.0312 43.8535 42.7773 43.9913 42.7445 44.0748C42.7116 44.1583 42.7658 44.4364 42.7658 44.4364C42.7658 44.4364 42.607 44.1832 42.5445 44.1496C42.4821 44.116 42.1829 44.1709 42.1829 44.1709C42.1829 44.1709 42.4447 44.016 42.4697 43.9496C42.4947 43.8833 42.4484 43.5881 42.4484 43.5881C42.4484 43.5881 42.6072 43.8412 42.6697 43.8748C42.7321 43.9085 43.0312 43.8535 43.0312 43.8535Z" fill="white" fill-opacity="0.7"/>
<path d="M49.0859 46.0889C49.0859 46.0889 48.832 46.2266 48.7992 46.3101C48.7663 46.3937 48.8205 46.6717 48.8205 46.6717C48.8205 46.6717 48.6616 46.4186 48.5992 46.385C48.5368 46.3513 48.2376 46.4063 48.2376 46.4063C48.2376 46.4063 48.4993 46.2514 48.5244 46.185C48.5494 46.1186 48.5031 45.8234 48.5031 45.8234C48.5031 45.8234 48.6619 46.0766 48.7243 46.1102C48.7868 46.1438 49.0859 46.0889 49.0859 46.0889Z" fill="white" fill-opacity="0.7"/>
<path d="M50.9082 60.7871C50.9082 60.7871 51.2373 60.1564 51.1895 59.9405C51.1417 59.7247 50.6484 59.2313 50.6484 59.2313C50.6484 59.2313 51.3212 59.5298 51.495 59.5126C51.6688 59.4954 52.2042 58.9715 52.2042 58.9715C52.2042 58.9715 51.8828 59.6481 51.9229 59.8181C51.9631 59.9881 52.464 60.5273 52.464 60.5273C52.464 60.5273 51.7913 60.2288 51.6175 60.246C51.4436 60.2633 50.9082 60.7871 50.9082 60.7871Z" fill="white" fill-opacity="0.7"/>
<path d="M57.6309 53.707C57.6309 53.707 57.834 53.8542 57.9117 53.8486C57.9894 53.843 58.1868 53.6962 58.1868 53.6962C58.1868 53.6962 58.0482 53.9156 58.0453 53.9771C58.0424 54.0386 58.1976 54.2522 58.1976 54.2522C58.1976 54.2522 57.9782 54.1054 57.9168 54.1107C57.8555 54.116 57.6417 54.263 57.6417 54.263C57.6417 54.263 57.7803 54.0437 57.7832 53.9822C57.7861 53.9207 57.6309 53.707 57.6309 53.707Z" fill="white" fill-opacity="0.7"/>
<path d="M60.2695 58.9512C60.2695 58.9512 60.4032 58.6951 60.3838 58.6074C60.3643 58.5198 60.1641 58.3194 60.1641 58.3194C60.1641 58.3194 60.4372 58.4407 60.5078 58.4337C60.5784 58.4267 60.7958 58.214 60.7958 58.214C60.7958 58.214 60.6653 58.4887 60.6816 58.5577C60.6979 58.6267 60.9013 58.8457 60.9013 58.8457C60.9013 58.8457 60.6281 58.7245 60.5575 58.7315C60.4869 58.7385 60.2695 58.9512 60.2695 58.9512Z" fill="white" fill-opacity="0.7"/>
<path d="M54 60.4795C54 60.4795 54.1336 60.2234 54.1142 60.1357C54.0948 60.0481 53.8945 59.8478 53.8945 59.8478C53.8945 59.8478 54.1677 59.969 54.2383 59.962C54.3088 59.955 54.5262 59.7423 54.5262 59.7423C54.5262 59.7423 54.3957 60.017 54.412 60.086C54.4283 60.155 54.6317 60.374 54.6317 60.374C54.6317 60.374 54.3586 60.2528 54.288 60.2598C54.2174 60.2668 54 60.4795 54 60.4795Z" fill="white" fill-opacity="0.7"/>
<path d="M60.8867 51.0166C60.8867 51.0166 61.5693 51.2171 61.7718 51.1283C61.9742 51.0395 62.3625 50.4599 62.3625 50.4599C62.3625 50.4599 62.2002 51.1778 62.2509 51.3449C62.3015 51.5121 62.9193 51.9357 62.9193 51.9357C62.9193 51.9357 62.1932 51.7516 62.0342 51.824C61.8753 51.8964 61.4434 52.4924 61.4434 52.4924C61.4434 52.4924 61.6058 51.7745 61.5551 51.6074C61.5045 51.4402 60.8867 51.0166 60.8867 51.0166Z" fill="white" fill-opacity="0.7"/>
<path d="M69.1348 56.2373C69.1348 56.2373 69.0298 56.4651 69.0504 56.5403C69.071 56.6154 69.2532 56.7806 69.2532 56.7806C69.2532 56.7806 69.0112 56.6872 68.9503 56.6963C68.8894 56.7054 68.7099 56.8991 68.7099 56.8991C68.7099 56.8991 68.8114 56.6553 68.7943 56.5961C68.7772 56.537 68.5914 56.3558 68.5914 56.3558C68.5914 56.3558 68.8335 56.4492 68.8944 56.4401C68.9553 56.4311 69.1348 56.2373 69.1348 56.2373Z" fill="white" fill-opacity="0.7"/>
<path d="M64.5039 59.8447C64.5039 59.8447 64.7811 59.9261 64.8633 59.8901C64.9455 59.854 65.1032 59.6187 65.1032 59.6187C65.1032 59.6187 65.0372 59.9102 65.0578 59.978C65.0784 60.0459 65.3292 60.2179 65.3292 60.2179C65.3292 60.2179 65.0344 60.1432 64.9698 60.1726C64.9053 60.202 64.73 60.444 64.73 60.444C64.73 60.444 64.7959 60.1525 64.7753 60.0846C64.7548 60.0167 64.5039 59.8447 64.5039 59.8447Z" fill="white" fill-opacity="0.7"/>
<path d="M61.7871 53.9893C61.7871 53.9893 62.0643 54.0707 62.1465 54.0346C62.2287 53.9986 62.3864 53.7632 62.3864 53.7632C62.3864 53.7632 62.3205 54.0547 62.341 54.1226C62.3616 54.1904 62.6124 54.3625 62.6124 54.3625C62.6124 54.3625 62.3176 54.2877 62.253 54.3171C62.1885 54.3465 62.0132 54.5885 62.0132 54.5885C62.0132 54.5885 62.0791 54.297 62.0585 54.2291C62.038 54.1613 61.7871 53.9893 61.7871 53.9893Z" fill="white" fill-opacity="0.7"/>
<path d="M76.1758 49.4131C76.1758 49.4131 75.6941 49.9366 75.6842 50.1575C75.6742 50.3783 76.0224 50.9829 76.0224 50.9829C76.0224 50.9829 75.4503 50.5199 75.278 50.4913C75.1057 50.4628 74.4525 50.8295 74.4525 50.8295C74.4525 50.8295 74.9387 50.2597 74.9441 50.0852C74.9495 49.9106 74.6059 49.2597 74.6059 49.2597C74.6059 49.2597 75.178 49.7228 75.3503 49.7513C75.5226 49.7798 76.1758 49.4131 76.1758 49.4131Z" fill="white" fill-opacity="0.7"/>
<path d="M67.8438 54.502C67.8438 54.502 67.6858 54.3071 67.6093 54.2923C67.5328 54.2775 67.3041 54.3679 67.3041 54.3679C67.3041 54.3679 67.4949 54.1921 67.5137 54.1335C67.5325 54.0748 67.4381 53.8282 67.4381 53.8282C67.4381 53.8282 67.6119 54.027 67.6725 54.0379C67.7331 54.0487 67.9778 53.9623 67.9778 53.9623C67.9778 53.9623 67.7869 54.138 67.7681 54.1967C67.7493 54.2553 67.8438 54.502 67.8438 54.502Z" fill="white" fill-opacity="0.7"/>
<path d="M66.6582 48.752C66.6582 48.752 66.4626 48.9645 66.4586 49.0542C66.4546 49.1439 66.5959 49.3894 66.5959 49.3894C66.5959 49.3894 66.3636 49.2013 66.2937 49.1898C66.2237 49.1782 65.9585 49.3271 65.9585 49.3271C65.9585 49.3271 66.1559 49.0957 66.1581 49.0248C66.1603 48.954 66.0208 48.6897 66.0208 48.6897C66.0208 48.6897 66.253 48.8777 66.323 48.8893C66.393 48.9009 66.6582 48.752 66.6582 48.752Z" fill="white" fill-opacity="0.7"/>
<path d="M73.1094 48.9062C73.1094 48.9062 72.9138 49.1188 72.9098 49.2085C72.9057 49.2982 73.0471 49.5437 73.0471 49.5437C73.0471 49.5437 72.8148 49.3556 72.7448 49.3441C72.6749 49.3325 72.4096 49.4814 72.4096 49.4814C72.4096 49.4814 72.6071 49.25 72.6093 49.1791C72.6114 49.1083 72.4719 48.844 72.4719 48.844C72.4719 48.844 72.7042 49.032 72.7742 49.0436C72.8442 49.0552 73.1094 48.9062 73.1094 48.9062Z" fill="white" fill-opacity="0.7"/>
<path d="M60.1836 47.083C60.1836 47.083 59.8202 47.4779 59.8128 47.6445C59.8053 47.8111 60.0679 48.2672 60.0679 48.2672C60.0679 48.2672 59.6364 47.9178 59.5064 47.8963C59.3764 47.8748 58.8837 48.1514 58.8837 48.1514C58.8837 48.1514 59.2505 47.7216 59.2545 47.59C59.2586 47.4583 58.9994 46.9673 58.9994 46.9673C58.9994 46.9673 59.4309 47.3166 59.5609 47.3381C59.6909 47.3596 60.1836 47.083 60.1836 47.083Z" fill="white" fill-opacity="0.7"/>
<path d="M53.8984 50.9229C53.8984 50.9229 53.7793 50.7759 53.7216 50.7647C53.6639 50.7536 53.4913 50.8217 53.4913 50.8217C53.4913 50.8217 53.6353 50.6892 53.6495 50.6449C53.6637 50.6007 53.5924 50.4146 53.5924 50.4146C53.5924 50.4146 53.7235 50.5646 53.7693 50.5728C53.815 50.581 53.9995 50.5158 53.9995 50.5158C53.9995 50.5158 53.8556 50.6483 53.8414 50.6926C53.8272 50.7368 53.8984 50.9229 53.8984 50.9229Z" fill="white" fill-opacity="0.7"/>
<path d="M53.0039 46.585C53.0039 46.585 52.8564 46.7453 52.8533 46.813C52.8503 46.8806 52.9569 47.0658 52.9569 47.0658C52.9569 47.0658 52.7817 46.9239 52.7289 46.9152C52.6761 46.9065 52.4761 47.0188 52.4761 47.0188C52.4761 47.0188 52.625 46.8443 52.6267 46.7908C52.6283 46.7373 52.5231 46.538 52.5231 46.538C52.5231 46.538 52.6983 46.6798 52.7511 46.6885C52.8039 46.6973 53.0039 46.585 53.0039 46.585Z" fill="white" fill-opacity="0.7"/>
<path d="M57.8691 46.7021C57.8691 46.7021 57.7216 46.8625 57.7186 46.9301C57.7155 46.9978 57.8222 47.183 57.8222 47.183C57.8222 47.183 57.6469 47.0411 57.5942 47.0324C57.5414 47.0237 57.3413 47.136 57.3413 47.136C57.3413 47.136 57.4903 46.9615 57.4919 46.908C57.4936 46.8545 57.3883 46.6552 57.3883 46.6552C57.3883 46.6552 57.5635 46.797 57.6163 46.8057C57.6691 46.8145 57.8691 46.7021 57.8691 46.7021Z" fill="white" fill-opacity="0.7"/>
</svg>
