<svg width="343" height="114" viewBox="0 0 343 114" fill="none" xmlns="http://www.w3.org/2000/svg">
<rect x="0.25" y="40.5068" width="114" height="72.048" fill="#96C6F6"/>
<rect width="28.396" height="114.006" transform="matrix(0.550279 -0.834981 1 0 0.25 40.71)" fill="#D8EBFF"/>
<rect x="228.25" y="50" width="114" height="63" fill="#F3A176"/>
<rect width="25.7817" height="114.006" transform="matrix(-0.550489 -0.834843 1 0 228.25 50.5234)" fill="#FFD8C3"/>
<rect x="114.249" y="27.4053" width="114" height="85.605" fill="#AD70C3"/>
<path d="M128.112 0H215.75L228.25 27.406H114.25L128.112 0Z" fill="#EAC0FA"/>
<path d="M161.3 90V83.6H169.3V61.25H172.95L162.15 67.55V60.25L171.55 54.75H177.1V83.6H184.6V90H161.3Z" fill="white"/>
<path d="M46.9 92V86.25L58.1 74.6C59.5 73.1333 60.5167 71.8333 61.15 70.7C61.7833 69.5667 62.1 68.4 62.1 67.2C62.1 65.7 61.6167 64.5667 60.65 63.8C59.6833 63.0333 58.3 62.65 56.5 62.65C55 62.65 53.5167 62.9333 52.05 63.5C50.6167 64.0333 49.2 64.8667 47.8 66L45.35 60.3C46.8167 59.0333 48.6333 58.0333 50.8 57.3C52.9667 56.5667 55.2167 56.2 57.55 56.2C61.4833 56.2 64.5 57.0833 66.6 58.85C68.7 60.5833 69.75 63.0667 69.75 66.3C69.75 68.4667 69.25 70.5333 68.25 72.5C67.25 74.4667 65.6333 76.55 63.4 78.75L54.4 87.6V85.6H71.1V92H46.9Z" fill="white"/>
<path d="M283.5 92.55C281.033 92.55 278.65 92.2 276.35 91.5C274.083 90.8 272.25 89.8333 270.85 88.6L273.3 82.8C274.8 83.9 276.383 84.7333 278.05 85.3C279.717 85.8333 281.433 86.1 283.2 86.1C285.267 86.1 286.817 85.7167 287.85 84.95C288.883 84.1833 289.4 83.05 289.4 81.55C289.4 80.15 288.9 79.1 287.9 78.4C286.933 77.6667 285.483 77.3 283.55 77.3H277.65V71.15H282.85C284.517 71.15 285.85 70.7667 286.85 70C287.85 69.2 288.35 68.1167 288.35 66.75C288.35 65.4167 287.883 64.4 286.95 63.7C286.017 63 284.667 62.65 282.9 62.65C279.533 62.65 276.533 63.7667 273.9 66L271.4 60.3C272.9 59 274.717 58 276.85 57.3C279.017 56.5667 281.283 56.2 283.65 56.2C287.45 56.2 290.417 57.05 292.55 58.75C294.717 60.4167 295.8 62.75 295.8 65.75C295.8 67.8167 295.217 69.6 294.05 71.1C292.883 72.5667 291.283 73.55 289.25 74.05V73.4C291.65 73.8 293.517 74.7833 294.85 76.35C296.183 77.9167 296.85 79.8833 296.85 82.25C296.85 85.45 295.65 87.9667 293.25 89.8C290.883 91.6333 287.633 92.55 283.5 92.55Z" fill="white"/>
</svg>
