<svg width="62" height="53" viewBox="0 0 62 53" fill="none" xmlns="http://www.w3.org/2000/svg">
<path d="M33.7788 0.4049C33.4812 0.526665 29.1788 3.47607 24.2 6.96664L15.1354 13.2984H10.6436C6.93656 13.2984 6.01657 13.339 5.40775 13.5149C3.4054 14.0966 1.7007 15.7878 1.07835 17.7766C0.834818 18.5478 0.821289 19.116 0.821289 26.2866C0.821289 33.4572 0.834818 34.0254 1.07835 34.7966C1.7007 36.7854 3.4054 38.4765 5.40775 39.0583C6.01657 39.2342 6.93656 39.2748 10.6436 39.2748H15.1354L24.2136 45.6201C29.1924 49.1106 33.5488 52.0736 33.8871 52.1953C34.7394 52.52 36.6471 52.4253 37.4318 52.033C38.1623 51.6406 39.0282 50.7612 39.4071 49.99L39.7182 49.3542V26.2866V3.21901L39.4071 2.58313C39.0282 1.81195 38.1623 0.932545 37.4318 0.540192C36.6741 0.147842 34.55 0.0666656 33.7788 0.4049ZM35.4294 37.1236L35.3888 47.9471L26.7706 41.913L18.1389 35.8789V26.2866V16.6943L26.7706 10.6602L35.3888 4.62606L35.4294 15.4496C35.4429 21.416 35.4429 31.1572 35.4294 37.1236ZM13.8095 26.3001V34.9589L10.3324 34.9183C7.09892 34.8777 6.80127 34.8507 6.36833 34.5936C5.71892 34.2148 5.31304 33.5789 5.21833 32.7401C5.17775 32.3477 5.15069 29.1683 5.17775 25.6778C5.21833 19.6031 5.23186 19.2919 5.48892 18.859C5.82716 18.2907 6.32774 17.8984 6.92303 17.7631C7.18009 17.709 8.83068 17.6548 10.603 17.6413L13.8095 17.6278V26.3001Z" fill="#262060"/>
<path d="M49.5545 4.86932C49.311 4.99109 48.9863 5.26167 48.8239 5.49167C48.5127 5.92461 48.3504 6.96637 48.4992 7.56166C48.5533 7.76461 49.1892 8.54931 49.9063 9.29342C51.5568 11.0117 52.1386 11.7152 53.0857 13.1628C54.6957 15.6387 55.9268 18.6287 56.5898 21.6863C56.8603 22.931 56.8874 23.4857 56.8874 26.2863C56.8874 29.0869 56.8603 29.6416 56.5898 30.8863C55.9268 33.9439 54.6957 36.9339 53.0857 39.4098C52.1386 40.871 51.5433 41.588 49.9874 43.198C48.6616 44.5645 48.4451 44.9163 48.4451 45.7957C48.4451 47.338 50.1092 48.3798 51.5974 47.7439C52.1386 47.5139 54.6145 44.9839 55.6427 43.6039C58.7545 39.4639 60.6621 34.7286 61.298 29.6687C61.4739 28.194 61.4739 24.3787 61.298 22.904C60.6621 17.844 58.8086 13.244 55.7239 9.07695C54.7768 7.79166 52.2062 5.11285 51.6651 4.82873C51.178 4.57167 50.1092 4.59873 49.5545 4.86932Z" fill="#262060"/>
<path d="M45.5622 13.6226C44.5069 14.0149 44.0334 14.8131 44.1416 16.0037C44.2092 16.6802 44.2634 16.7749 45.4675 18.209C46.4145 19.3319 47.3751 21.1313 47.8486 22.7008C48.2004 23.8372 48.2275 24.0808 48.2275 26.286C48.2275 28.4913 48.2004 28.7349 47.8486 29.8713C47.3751 31.4407 46.4145 33.2401 45.4675 34.3631C44.2634 35.7972 44.2092 35.8919 44.1416 36.5684C44.0198 37.7995 44.6151 38.706 45.7381 39.0036C46.6039 39.2336 47.2939 39.0036 48.1192 38.1784C50.2704 36.0542 51.9886 32.6178 52.5704 29.3166C52.8275 27.8013 52.8275 24.7708 52.5704 23.2555C52.1239 20.7255 51.0551 18.1819 49.5669 16.112C48.7416 14.962 47.3616 13.5684 47.0504 13.5684C46.9422 13.5684 46.6851 13.5414 46.4687 13.5008C46.2522 13.4602 45.8463 13.5143 45.5622 13.6226Z" fill="#262060"/>
</svg>
