<svg width="34" height="33" viewBox="0 0 34 33" fill="none" xmlns="http://www.w3.org/2000/svg">
<path d="M15.5734 1.89057C16.0224 0.508606 17.9776 0.50861 18.4266 1.89058L21.2658 10.6287C21.4666 11.2467 22.0425 11.6652 22.6924 11.6652H31.8801C33.3332 11.6652 33.9374 13.5246 32.7618 14.3787L25.3287 19.7791C24.803 20.1611 24.583 20.8381 24.7838 21.4562L27.623 30.1943C28.072 31.5762 26.4903 32.7254 25.3148 31.8713L17.8817 26.4709C17.3559 26.0889 16.6441 26.0889 16.1183 26.4709L8.68525 31.8713C7.50968 32.7254 5.92796 31.5762 6.37699 30.1943L9.21617 21.4562C9.41698 20.8381 9.19699 20.1611 8.67126 19.7791L1.23819 14.3787C0.0626154 13.5246 0.666782 11.6652 2.11987 11.6652H11.3076C11.9575 11.6652 12.5334 11.2467 12.7342 10.6287L15.5734 1.89057Z" fill="#FFC736"/>
</svg>
