<svg width="88" height="133" viewBox="0 0 88 133" fill="none" xmlns="http://www.w3.org/2000/svg">
<path d="M64.2744 134.539C62.3474 134.554 60.4345 134.582 58.5075 134.582C44.7795 134.582 31.0515 134.582 17.3094 134.582C16.8874 134.582 16.4655 134.554 16.0435 134.539C16.0154 130.869 16.0294 127.199 15.9591 123.543C15.8888 119.323 15.7622 115.088 15.6074 110.867C15.5793 109.893 15.3824 108.933 15.2699 107.974C15.1433 107.988 15.0026 107.988 14.876 108.002C14.7495 110.952 14.876 113.902 14.5807 116.909C14.229 116.104 13.8914 115.286 13.5398 114.481C13.3007 114.834 13.2444 115.159 13.3429 115.427C13.6945 116.401 14.0321 117.375 14.4681 118.306C14.9042 119.224 15.1573 120.127 15.1151 121.158C15.0589 122.23 15.1011 123.317 15.1011 124.404C15.1011 125.138 15.1011 125.872 15.1011 126.62C14.7213 126.649 14.5244 126.719 14.3556 126.677C10.6986 126.056 7.11183 125.209 3.76422 123.543C2.97655 123.148 2.28732 122.569 1.56997 122.033C1.02142 121.609 0.908892 121.073 1.21833 120.41C1.99194 118.716 2.35764 116.895 3.14531 115.187C4.39715 112.519 5.32549 109.696 6.42261 106.943C8.23707 102.37 11.2331 98.7701 15.4809 96.3422C17.7454 95.0436 20.1928 94.0414 22.5558 92.9262C23.0341 92.7004 23.5545 92.5592 24.089 92.3757C24.2015 92.9262 24.3281 93.3356 24.3562 93.7591C24.6235 96.9916 26.4098 99.2783 29.0542 100.873C32.0079 102.652 35.2852 103.795 38.7172 104.064C44.1465 104.487 49.2242 103.188 53.7533 100.069C56.2429 98.3467 58.2543 96.2434 59.1545 93.2509C59.2389 92.9545 59.3374 92.658 59.4499 92.291C60.111 92.5028 60.7017 92.6439 61.2503 92.8839C63.2335 93.7308 65.2309 94.5354 67.1438 95.5094C71.4338 97.7115 74.6126 101.043 76.3567 105.56C78.3119 110.585 80.0419 115.695 81.8845 120.777C82.1518 121.525 81.9267 122.089 81.3219 122.485C80.6186 122.936 79.8872 123.36 79.1136 123.699C75.4425 125.322 71.5744 126.169 67.6079 126.691C66.6515 126.818 65.695 126.846 64.6542 126.917C64.7386 123.332 64.7526 119.887 64.9496 116.443C65.1465 113.013 65.8216 109.625 66.6656 106.251C66.2295 106.703 65.9341 107.211 65.7513 107.748C64.6823 110.825 64.0775 113.987 64.0493 117.262C64.0212 119.139 63.8243 121.017 63.8524 122.894C63.9509 126.748 64.1337 130.643 64.2744 134.539Z" fill="#E0543E"/>
<path d="M64.2749 134.537C64.1342 130.641 63.9513 126.745 63.881 122.85C63.8388 120.972 64.0498 119.095 64.078 117.217C64.1202 113.943 64.7109 110.781 65.7799 107.703C65.9627 107.167 66.2722 106.659 66.6941 106.207C65.8643 109.581 65.1751 112.954 64.9781 116.399C64.7812 119.843 64.7812 123.287 64.6828 126.873C65.7236 126.802 66.6941 126.774 67.6365 126.647C71.589 126.124 75.4711 125.277 79.1422 123.654C79.9017 123.315 80.6472 122.892 81.3505 122.44C81.9553 122.045 82.1944 121.494 81.9131 120.732C80.0705 115.665 78.3264 110.555 76.3854 105.515C74.6412 100.998 71.4483 97.6812 67.1724 95.465C65.2595 94.4769 63.2481 93.6864 61.2789 92.8395C60.7303 92.5995 60.1396 92.4584 59.4785 92.2466C59.366 92.5995 59.2675 92.8959 59.1831 93.2065C58.2829 96.199 56.2715 98.3023 53.7819 100.024C49.2528 103.158 44.1751 104.443 38.7458 104.019C35.3138 103.751 32.0506 102.608 29.0828 100.829C26.4384 99.2339 24.6661 96.9472 24.3848 93.7147C24.3567 93.3053 24.2301 92.8959 24.1176 92.3313C23.5831 92.5148 23.0627 92.656 22.5845 92.8818C20.2074 93.997 17.774 94.9992 15.5095 96.2978C11.2616 98.7399 8.26565 102.325 6.45119 106.899C5.36814 109.651 4.42577 112.474 3.17393 115.142C2.37219 116.85 2.02053 118.671 1.24692 120.365C0.937475 121.029 1.05 121.565 1.59856 121.988C2.30184 122.525 3.00513 123.104 3.7928 123.499C7.12635 125.165 10.7271 126.011 14.3842 126.633C14.553 126.661 14.7499 126.604 15.1297 126.576C15.1297 125.828 15.1297 125.094 15.1297 124.36C15.1297 123.273 15.0875 122.2 15.1437 121.113C15.1859 120.097 14.9328 119.179 14.4967 118.262C14.0607 117.33 13.7091 116.356 13.3715 115.382C13.273 115.114 13.3293 114.804 13.5684 114.437C13.92 115.241 14.2576 116.06 14.6092 116.864C14.9046 113.858 14.778 110.908 14.9046 107.957C15.0312 107.943 15.1719 107.943 15.2985 107.929C15.411 108.889 15.6079 109.863 15.636 110.823C15.7767 115.044 15.9033 119.278 15.9877 123.499C16.058 127.169 16.0439 130.839 16.0721 134.495C15.7486 134.495 15.425 134.495 15.1015 134.495C15.0875 134.312 15.0734 134.128 15.0594 133.944C15.0594 133.493 15.0594 133.041 15.0594 132.589C15.0453 130.98 15.0312 129.371 15.0172 127.762C14.7921 127.677 14.5811 127.607 14.3561 127.522C11.0788 126.985 7.8437 126.266 4.7774 124.91C4.29917 124.727 3.83499 124.558 3.35676 124.374L3.34271 124.346C3.24425 124.261 3.14579 124.176 3.0614 124.092C1.93615 123.584 0.951541 122.892 0.262326 121.833C-0.0611822 121.325 -0.0752409 120.887 0.163874 120.28C0.993744 118.22 1.65482 116.088 2.51282 114.027C3.98971 110.442 5.4244 106.814 7.15447 103.356C8.72981 100.194 11.2757 97.7659 14.2576 95.8885C18.3085 93.3335 22.7673 91.6114 27.2401 89.9316C27.6199 90.1151 27.9856 90.2987 28.3654 90.4822C28.2388 90.581 27.9716 90.7221 27.9856 90.7645C28.6608 92.6136 29.3219 94.4628 30.7284 95.9308C32.7679 98.0482 35.356 98.8104 38.1832 99.0222C38.4786 99.0645 38.7599 99.121 39.0552 99.1633C39.435 99.1774 39.8288 99.1916 40.2086 99.2057C40.3915 99.2057 40.5743 99.2057 40.7572 99.2057C41.0526 99.1916 41.3339 99.1774 41.6293 99.1633C41.9246 99.121 42.22 99.0786 42.5154 99.0363C48.0572 98.5987 52.5582 96.4249 55.3151 91.3291C55.4698 91.3432 55.6245 91.3573 55.7793 91.3714C55.5964 91.8514 55.4698 92.3595 55.2307 92.8113C54.0914 94.9427 52.3754 96.566 50.3077 97.6953C45.3426 100.406 40.0961 100.843 34.6949 99.3186C31.5583 98.4293 29.3922 96.4531 28.2669 93.3476C27.9856 92.5713 27.6621 91.8231 27.3527 91.0044C26.7901 91.1879 26.34 91.315 25.918 91.4844C25.496 91.6538 25.1022 91.8796 24.6802 92.0913C25.06 95.0557 26.0024 97.6388 28.4217 99.361C32.2475 102.071 36.6219 103.257 41.2495 103.158C44.3299 103.088 47.3961 102.537 50.2374 101.252C53.8382 99.6291 56.7498 97.2295 58.4376 93.5312C58.6346 93.0936 58.719 92.5995 58.8737 92.049C57.7766 91.7526 57.003 90.9056 55.8777 91.2726L55.8496 91.2162C55.9762 90.8068 56.1028 90.3833 56.2294 89.974C56.9186 90.2422 57.6078 90.5245 58.297 90.7927C58.4095 90.8068 58.5361 90.8068 58.6486 90.8209C58.9721 90.9197 59.2956 91.0186 59.6332 91.1174C60.2662 91.7385 61.0538 91.7102 61.8556 91.6961C62.1369 91.8796 62.4323 92.0772 62.7136 92.2607C64.8656 93.2488 67.0598 94.124 69.0853 95.4085C71.8421 97.173 74.2474 99.248 75.8227 102.184C76.6245 103.666 77.3981 105.148 78.1857 106.631C78.2842 107.012 78.3686 107.407 78.467 107.788C78.5514 107.986 78.6218 108.169 78.7062 108.367C80.0424 112.206 81.3786 116.046 82.7008 119.899C83.3759 121.847 83.1228 122.525 81.3786 123.626C80.7879 123.993 80.183 124.332 79.5923 124.685C79.2125 124.769 78.8187 124.868 78.4389 124.953C77.9185 125.165 77.4121 125.39 76.8777 125.574C73.0659 126.915 69.0993 127.494 65.1047 127.889L65.0344 127.917V127.988C65.0344 128.242 65.0485 128.496 65.0485 128.736C65.0063 128.792 65.0063 128.835 65.0626 128.891C65.1329 130.783 65.2032 132.66 65.2735 134.551C64.9078 134.537 64.5843 134.537 64.2749 134.537Z" fill="#691D0F"/>
<path d="M65.0484 127.887C69.0431 127.492 73.0096 126.913 76.8213 125.572C77.3418 125.389 77.8622 125.163 78.3826 124.951C78.4952 125.121 78.678 125.29 78.6921 125.473C79.0859 128.494 79.4657 131.515 79.8314 134.536C74.9647 134.536 70.098 134.522 65.2313 134.522C65.161 132.63 65.0906 130.753 65.0203 128.861L65.0906 128.777L65.0062 128.706C65.0062 128.452 64.9922 128.198 64.9922 127.958L65.0625 127.944L65.0484 127.887Z" fill="#F8BC94"/>
<path d="M15.03 133.985C15.0441 134.169 15.0581 134.352 15.0722 134.536C11.0494 134.536 7.02667 134.536 3.00391 134.522C3.41181 131.487 3.80567 128.466 4.22764 125.431C4.25577 125.248 4.56521 125.106 4.74806 124.951C7.81436 126.306 11.0354 127.04 14.3267 127.563C14.5518 127.647 14.7628 127.718 14.9878 127.803C15.0019 129.412 15.0159 131.021 15.03 132.63C15.0441 133.082 15.03 133.534 15.03 133.985Z" fill="#F8BC94"/>
<path d="M4.76191 124.967C4.57906 125.122 4.26963 125.263 4.24149 125.447C3.80546 128.467 3.41163 131.502 3.01779 134.537C2.69429 134.537 2.35671 134.537 2.0332 134.537C2.18792 133.069 2.30044 131.587 2.4833 130.119C2.65208 128.806 2.90528 127.493 3.1022 126.195C3.1866 125.616 3.27098 125.023 3.34131 124.444C3.80547 124.6 4.28368 124.783 4.76191 124.967Z" fill="#703C40"/>
<path d="M79.8316 134.555C79.4518 131.534 79.0861 128.513 78.6922 125.493C78.6641 125.309 78.4813 125.14 78.3828 124.97C78.7626 124.886 79.1564 124.787 79.5362 124.702C79.8175 127.412 80.1129 130.137 80.4082 132.847C80.4786 133.426 80.5911 134.004 80.6755 134.583C80.3801 134.569 80.1129 134.555 79.8316 134.555Z" fill="#4E3429"/>
<path d="M6.26848 45.1703C5.80432 43.18 5.26982 41.2321 5.00258 39.1853C4.63687 36.3057 4.67906 33.4261 4.70719 30.5323C4.73532 27.7515 5.38233 25.0837 6.2544 22.4864C9.18004 13.8475 15.0735 7.89069 23.1472 3.93829C26.4948 2.30086 30.0534 1.38334 33.6682 0.578746C34.7794 0.324663 35.9609 0.324662 37.1003 0.211736C37.7473 0.141157 38.3802 0.0705787 39.0272 0C40.7432 0 42.4593 0.0141166 44.1753 0.0141166C44.9489 0.0846953 45.7365 0.15527 46.5242 0.239965C50.7017 0.7199 54.8088 1.48215 58.48 3.68421C59.7881 4.47469 61.0399 5.43456 62.137 6.50735C62.9528 7.29784 63.5014 8.37063 64.275 9.47166C64.8798 9.57047 65.7237 9.7822 66.5677 9.85278C68.2837 9.99394 69.6621 10.8691 70.9421 11.8854C73.9099 14.2428 75.8932 17.2918 77.3279 20.8066C78.9876 24.886 79.5502 29.1208 79.4799 33.4543C79.4377 36.3057 79.1986 39.1429 78.4812 41.9237C78.1015 43.3635 77.8483 44.8316 77.5248 46.2855C76.8777 46.1867 76.2307 46.0879 75.5837 45.9891C75.4008 45.9891 75.218 46.0032 75.0211 46.0032C74.5428 46.1585 73.8677 45.7067 73.6005 46.469C73.1363 46.7513 72.6581 47.0054 72.208 47.3159C71.2796 47.937 70.717 48.8404 70.2388 49.8285C69.9012 50.5202 69.4511 51.099 68.4806 50.9437C68.4102 50.7743 68.3118 50.6049 68.2977 50.4496C68.1008 47.8523 67.9461 45.2409 67.721 42.6436C67.6226 41.4861 67.2288 40.5122 66.3286 39.6087C61.2931 34.4989 58.0017 28.4432 57.0031 21.2442C56.9468 20.8772 56.7921 20.5384 56.6796 20.1432C55.709 21.47 54.8932 22.7263 53.9368 23.8697C50.2234 28.302 45.4552 31.1958 40.0681 33.1014C38.8866 33.5249 37.6488 33.8072 36.4251 34.1036C35.75 34.273 35.1029 34.2024 34.8638 33.2002C38.0286 30.9135 40.7573 28.175 42.403 24.1238C42.0091 24.4202 41.8544 24.519 41.7278 24.632C34.8075 31.0687 26.4807 34.88 17.535 37.4773C16.6067 37.7455 15.6502 38.1125 14.736 37.2797C14.0608 39.8911 13.4982 42.3895 13.4279 44.9727C13.4138 45.6785 13.3153 46.3702 13.245 47.076C13.2309 48.0641 13.2309 49.0522 13.2169 50.0403C13.4701 52.6517 13.7232 55.2631 13.9764 57.8745C13.7092 57.8745 13.4419 57.8745 13.1747 57.8886C13.034 57.2675 12.8934 56.6606 12.7527 56.0395C12.6964 55.9124 12.6261 55.7854 12.5698 55.6583C12.5839 55.0796 12.598 54.5009 12.612 53.9221C12.5698 53.6398 12.5276 53.3575 12.4995 53.0752C11.8806 51.2966 11.2617 49.5039 10.6429 47.7253C10.6288 47.443 10.6147 47.1607 10.6007 46.8783C10.896 47.1465 11.1914 47.4006 11.4728 47.6688C11.7119 47.9088 11.9228 48.1629 12.2042 48.4734C12.3589 46.6102 12.4855 44.9304 12.6261 43.2647C12.8934 40.1734 13.4841 37.1526 14.7078 34.2871C15.7206 31.9157 16.9583 29.6289 18.5337 27.5821C20.5451 24.9848 22.7252 22.5287 25.1726 20.3408C26.5651 19.0986 28.0561 17.9834 29.533 16.8401C29.7861 16.6424 30.1519 16.586 30.4613 16.4731C30.5176 16.5578 30.5879 16.6566 30.6441 16.7413C30.2081 17.193 29.8143 17.7435 29.3079 18.0964C27.1559 19.6209 25.3696 21.5406 23.4988 23.3898C20.3059 26.5517 17.7038 30.123 15.8331 34.2165C15.4533 35.0353 15.2001 35.9104 14.8485 36.8985C15.5799 36.7997 16.1003 36.7856 16.5785 36.6444C21.1217 35.374 25.5665 33.7507 29.7721 31.591C32.7118 30.0806 35.5812 28.415 38.1833 26.3117C41.2777 23.8132 44.0065 21.0748 45.5115 17.2918C45.6803 16.8542 45.7928 16.2754 46.5805 16.2049C46.5805 16.5295 46.6649 16.826 46.5664 17.0518C45.9475 18.5057 45.2864 19.9596 44.6253 21.3853C44.4144 21.8512 43.9924 22.2464 43.8799 22.7263C43.1485 25.9871 41.4606 28.6549 39.0976 30.9558C38.7037 31.351 38.3943 31.8451 38.0426 32.2827C39.1116 32.2403 40.054 32.0004 40.9402 31.6616C43.697 30.6029 46.271 29.1772 48.6481 27.3986C51.6441 25.1542 54.204 22.5146 55.8356 19.0986C56.3138 18.0823 56.6374 16.9953 57.0734 15.9649C57.1719 15.7249 57.425 15.5555 57.6079 15.3438C57.7064 15.3861 57.8048 15.4144 57.9033 15.4567C57.9033 16.7554 57.7907 18.0681 57.9314 19.3527C58.1564 21.3853 58.3674 23.4604 58.9441 25.4083C59.985 28.8808 61.5462 32.1415 63.8108 35.007C64.8517 36.3339 65.9066 37.6467 67.0037 38.903C67.496 39.4535 68.1711 39.8346 68.6916 40.371C68.9166 40.5969 69.1276 41.0627 69.0432 41.345C68.5368 43.0953 69.2542 44.7751 69.2823 46.4972C69.2964 47.1607 69.4933 47.8241 69.634 48.6287C70.7592 47.6688 71.364 46.4972 72.6299 45.9044C73.9521 45.2833 75.3165 45.6926 76.6386 45.3397C76.8637 44.7045 77.159 44.0976 77.2716 43.4623C77.9327 39.6934 78.5516 35.9104 78.4812 32.0427C78.425 29.0219 77.9186 26.1141 77.1309 23.2204C76.0619 19.2962 73.938 16.0496 71.0124 13.3394C68.8603 11.3491 66.3285 10.1351 63.1356 10.6856C63.0091 10.3892 62.7418 10.0504 62.7418 9.71162C62.7418 8.8788 62.2636 8.30005 61.7854 7.73542C60.5617 6.29562 59.1129 5.13813 57.411 4.27707C53.4163 2.2444 49.1123 1.4398 44.7238 1.19984C41.334 1.01633 37.916 1.10103 34.5262 1.69389C30.7426 2.35733 27.0433 3.28897 23.5832 4.99697C19.4339 7.02963 15.7346 9.65516 12.7527 13.2829C11.1492 15.245 9.72859 17.2918 8.63147 19.5926C6.5779 23.8979 5.8043 28.4714 5.62145 33.1861C5.59332 34.0189 5.79024 34.8517 5.87464 35.6846C6.07156 37.5337 6.18409 39.4111 6.47946 41.2462C6.69045 42.5589 6.73263 43.9564 7.44998 45.001C8.0548 45.1845 8.53304 45.3397 9.01127 45.4809C8.08294 45.3397 7.16868 45.255 6.26848 45.1703Z" fill="#31221A"/>
<path d="M59.577 91.1355C59.2535 91.0367 58.93 90.9379 58.5924 90.8391C58.5924 90.7826 58.5783 90.7403 58.5221 90.712C58.4658 88.3265 58.944 85.9974 59.7317 83.7812C60.435 81.7768 61.4055 79.857 62.2072 77.8667C62.6855 76.6951 63.009 75.4812 62.8824 74.1966C62.8965 74.1119 62.9105 74.0131 62.9246 73.9284C63.1215 73.1803 63.3184 72.418 63.5153 71.6699L63.5294 71.6558C63.6138 71.557 63.6982 71.4582 63.7826 71.3594C65.2595 69.609 66.1315 67.5481 66.8208 65.4025C67.0036 64.8379 67.2286 64.3015 67.4396 63.751C68.0022 63.9345 68.5367 64.2168 69.1134 64.2874C70.2527 64.4568 71.4061 64.5132 72.5595 64.612C72.4329 65.0779 72.7142 65.2472 73.0659 65.4731C74.3036 66.3059 75.5695 67.0964 76.7229 68.0422C79.311 70.1878 81.4208 72.7709 82.6586 75.9329C83.9386 79.1795 84.3746 82.4967 83.8401 86.0256C83.4041 88.9617 82.4617 91.6154 81.1395 94.2268C80.6331 95.2432 80.4081 96.4148 80.1268 97.5299C80.0143 97.9816 80.169 98.391 80.5347 98.7862C82.4476 100.748 84.7684 100.946 86.9346 99.2803C87.0752 99.1674 87.2159 99.0544 87.4128 98.9133C88.0879 99.3932 88.0035 100.057 87.8769 100.678C87.2159 104.136 85.317 106.522 81.8991 107.566C81.674 107.637 81.449 107.707 81.238 107.778C80.2956 107.792 79.3532 107.792 78.4249 107.806C78.3264 107.425 78.242 107.03 78.1436 106.649C80.8863 107.213 83.2072 106.465 85.0638 104.362C85.8796 103.43 86.5829 102.442 86.5126 100.974C86.1047 101.073 85.8796 101.115 85.6686 101.2C83.6995 101.976 80.7879 101.2 79.6626 99.3932C78.9875 98.3063 78.5655 97.0218 78.1857 95.7796C77.9185 94.9044 77.8904 93.9445 77.82 93.0129C77.7216 91.7142 77.3981 90.3309 77.6794 89.117C78.1576 87.0137 77.7356 84.981 77.4824 82.9766C77.173 80.5346 76.4838 78.1208 75.232 75.9329C75.0632 75.6364 74.9788 75.2835 74.7959 74.8036C75.7524 75.0436 76.0759 75.6647 76.3713 76.2857C77.8763 79.2924 78.6499 82.4967 78.7062 85.8562C78.7484 88.1994 78.7484 90.5568 78.7062 92.9C78.6921 94.001 78.9312 94.9891 79.4095 95.9772C80.0705 94.4386 80.7597 92.9564 81.3646 91.446C81.7584 90.4579 82.0678 89.4275 82.3773 88.397C83.0243 86.2515 82.968 84.0494 82.9399 81.8473C82.9258 79.8006 82.3632 77.8808 81.5755 76.0175C80.3659 73.1944 78.3264 70.9923 76.1181 68.9597C74.9366 67.8728 73.53 67.0117 72.1657 66.0095C71.7859 66.6165 71.5186 67.0541 71.2373 67.4775C70.7028 68.2962 70.2246 69.1714 69.5917 69.9196C68.3398 71.4017 66.7786 72.5451 65.0626 73.392C64.1483 73.8437 63.656 74.3519 63.7967 75.4247C63.8529 75.8764 63.7826 76.3704 63.6278 76.808C62.9527 78.6995 62.2916 80.6052 61.518 82.4684C60.3365 85.2351 59.4223 88.0724 59.577 91.1355Z" fill="#31221A"/>
<path d="M63.5155 71.6645C63.3186 72.4126 63.1216 73.1749 62.9247 73.923C62.7559 74.0077 62.5871 74.1065 62.4184 74.1912C59.1551 77.212 55.4559 79.5411 51.2221 80.9103C51.2221 82.2513 51.1518 83.4229 51.2362 84.5945C51.4613 87.587 53.2757 89.4644 56.1873 90.0008C56.0607 90.4102 55.9341 90.8337 55.8075 91.243L55.8497 91.2007L55.8919 91.2712C55.8497 91.3277 55.8075 91.3701 55.7512 91.3983C55.5965 91.3842 55.4418 91.3701 55.2871 91.3559C55.3856 90.5937 54.6963 90.6219 54.2884 90.4243C51.9817 89.3374 50.6455 87.5729 50.3923 85.0321C50.3219 84.2416 50.3923 83.4511 50.3923 82.6465C51.0393 82.096 51.0393 81.7714 50.3782 81.3055C50.2516 81.362 50.125 81.4185 49.9984 81.489C48.409 81.7855 46.8196 82.096 45.2161 82.3924C43.5423 82.3924 41.8544 82.3924 40.1806 82.3924C37.8598 82.0819 35.539 81.7714 33.1478 81.4467C33.0634 82.9853 32.979 84.5098 32.8946 86.0484C32.2195 88.3916 30.7286 89.902 28.3655 90.509C27.9858 90.3255 27.6201 90.142 27.2403 89.9585C27.7185 89.8032 28.2108 89.6903 28.675 89.5068C30.7567 88.6457 32.0226 87.1777 32.1351 84.8486C32.1914 83.5923 32.2477 82.336 32.318 80.9668C31.7272 80.8397 31.2208 80.7974 30.7567 80.628C26.5933 79.0894 22.5846 77.3108 19.4761 73.9512C17.4506 71.7633 15.9597 69.2648 15.0313 66.4417C14.8626 65.9335 14.75 65.3971 14.6094 64.8748C14.7922 64.8607 14.9751 64.8466 15.158 64.8184C15.4252 65.2842 15.7628 65.7218 15.9316 66.2299C17.6898 71.3681 21.0233 75.1511 25.8337 77.5366C30.602 79.9081 35.7078 81.2067 41.0386 81.5596C42.1639 81.9266 43.2751 81.9407 44.4003 81.5596C50.8564 80.755 56.5671 78.313 61.3353 73.8242C62.0667 73.1325 62.7841 72.3844 63.5155 71.6645Z" fill="#703C40"/>
<path d="M72.5593 64.6274C71.4059 64.5286 70.2526 64.4581 69.1132 64.3028C68.5366 64.2181 68.0021 63.9499 67.4395 63.7664C68.2975 60.9574 69.0992 58.1342 70.0557 55.3675C70.3932 54.3653 71.0121 53.4478 71.6169 52.5726C72.4749 51.3304 73.7408 50.6105 75.2037 50.3141C75.9773 50.1588 76.779 50.0318 77.4823 50.5823C77.4119 51.2881 76.9197 51.1187 76.4555 51.161C74.5426 51.3022 72.8828 51.8951 71.9686 53.9277C73.1079 54.1112 74.0081 54.5206 74.3878 55.6216C74.416 55.8051 74.4441 55.9886 74.4722 56.1721C74.4301 56.2286 74.416 56.2992 74.4441 56.3697C74.1066 56.9767 73.9237 57.7672 72.7563 57.866C72.9672 57.3014 73.1501 56.9061 73.2767 56.4968C73.5299 55.6781 73.0938 55.0005 72.2499 54.8311C71.4622 54.6617 71.1246 55.1699 70.9277 55.7769C70.126 58.2189 69.3664 60.675 68.5928 63.1312C68.5647 63.2441 68.6491 63.3853 68.7054 63.6252C69.0429 63.6817 69.3946 63.7805 69.7603 63.7946C73.558 63.9499 76.2727 62.1431 78.1434 58.9529C78.5372 58.2895 78.6779 57.4849 78.931 56.7509C78.9451 56.6521 78.9733 56.5532 78.9873 56.4544C79.1139 56.1721 79.2264 55.9039 79.353 55.6216C79.8312 53.8995 79.8031 52.2056 79.2123 50.5117C79.142 50.4129 79.0576 50.3141 78.9873 50.2294H79.0295C78.9873 49.9612 78.9732 49.6648 78.8748 49.4107C77.9887 47.2369 76.357 46.3335 73.6283 46.4887C73.8956 45.7265 74.5707 46.1641 75.049 46.0229C75.2318 46.0229 75.4147 46.0088 75.6116 46.0088C76.2586 46.1076 76.9056 46.2064 77.5526 46.3052C79.775 47.9144 80.5064 50.2153 80.6189 52.8267C80.6189 53.0949 80.6189 53.3631 80.6189 53.6454C80.4783 58.5718 77.6651 63.0747 72.911 64.4581C72.7703 64.4298 72.6718 64.5427 72.5593 64.6274Z" fill="#703C40"/>
<path d="M6.26781 45.1699C7.168 45.2546 8.08224 45.3534 8.98244 45.4381C9.51693 45.9039 10.0514 46.3556 10.5859 46.8215C10.6 47.1038 10.6141 47.3861 10.6281 47.6684C10.4453 47.5131 10.2765 47.372 10.0936 47.2167C8.61675 45.8757 7.09765 45.8334 5.6067 47.1179C4.6643 47.9366 4.01728 48.9247 3.8485 50.1951C3.07489 52.3831 3.32809 54.5428 4.11576 56.6601C4.81904 59.3562 6.45065 61.3042 8.82774 62.6593C10.0233 63.3369 11.2892 63.7745 12.6817 63.7462C13.9898 63.7321 14.1164 63.5204 13.8773 62.2358C13.61 60.7678 13.4131 59.2857 13.174 57.8176C13.4412 57.8176 13.7085 57.8176 13.9757 57.8035C14.3977 59.8503 14.8197 61.8971 15.2135 63.958C15.2557 64.1556 15.1573 64.3814 15.1291 64.5932C13.9054 64.5932 12.6817 64.6073 11.458 64.6073C8.20884 64.0568 5.78955 62.25 4.17201 59.4409C2.47007 56.4766 1.96371 53.2724 2.83578 49.9269C3.29994 48.1483 4.24234 46.6521 5.85988 45.6781C6.04274 45.5934 6.12715 45.3393 6.26781 45.1699Z" fill="#703C40"/>
<path d="M11.459 64.6206C12.6827 64.6206 13.9064 64.6064 15.1301 64.6064C15.1301 64.677 15.1442 64.7617 15.1442 64.8323C14.9613 64.8464 14.7785 64.8605 14.5956 64.8888C13.5548 64.8041 12.4998 64.7053 11.459 64.6206Z" fill="#B2AFA6"/>
<path d="M46.5091 0.225853C45.7214 0.155274 44.9478 0.0846944 44.1602 0C44.9478 0.0846944 45.7355 0.155274 46.5091 0.225853Z" fill="#DD5D3E"/>
<path d="M39.0266 0C38.3796 0.0705787 37.7466 0.141157 37.0996 0.211736C37.7326 0.127042 38.3796 0.0564629 39.0266 0Z" fill="#E6A872"/>
<path d="M59.5777 91.1308C59.4229 88.0536 60.3372 85.2304 61.4906 82.4355C62.2642 80.5863 62.9253 78.6807 63.6004 76.7751C63.7551 76.3516 63.8255 75.8435 63.7692 75.3918C63.6426 74.3331 64.1208 73.8249 65.0351 73.3591C66.7511 72.5121 68.3124 71.3547 69.5642 69.8866C70.1972 69.1385 70.6754 68.2633 71.2099 67.4446C71.4912 67.0211 71.7584 66.5835 72.1382 65.9766C73.5026 66.9788 74.8951 67.8398 76.0907 68.9268C78.299 70.9594 80.3385 73.1615 81.5481 75.9846C82.3499 77.8338 82.8984 79.7676 82.9125 81.8144C82.9406 84.0165 82.9828 86.2185 82.3499 88.3641C82.0404 89.3946 81.731 90.425 81.3371 91.4131C80.7323 92.9235 80.0431 94.4198 79.382 95.9443C78.9038 94.9562 78.6647 93.9681 78.6787 92.867C78.7209 90.5238 78.7209 88.1665 78.6787 85.8233C78.6225 82.4637 77.8489 79.2595 76.3439 76.2528C76.0344 75.6317 75.725 75.0247 74.7685 74.7707C74.9514 75.2506 75.0357 75.6035 75.2045 75.8999C76.4564 78.0879 77.1456 80.5158 77.455 82.9437C77.7082 84.9481 78.1302 86.9808 77.652 89.084C77.3706 90.3121 77.6942 91.6813 77.7926 92.98C77.8629 93.9116 77.8911 94.8715 78.1583 95.7466C78.5381 96.9888 78.96 98.2734 79.6352 99.3603C80.7604 101.167 83.672 101.929 85.6412 101.167C85.8522 101.082 86.0772 101.054 86.4851 100.941C86.5695 102.409 85.8663 103.397 85.0364 104.329C83.1797 106.432 80.8589 107.18 78.1161 106.616C77.3284 105.134 76.5548 103.637 75.7531 102.169C74.1778 99.2473 71.7725 97.1582 69.0157 95.3937C67.0043 94.1092 64.796 93.234 62.6439 92.2459C63.8395 88.8441 65.0351 85.4422 66.3432 81.7297C65.9212 82.1532 65.6399 82.3085 65.5133 82.5625C64.7679 84.1153 63.9943 85.6539 63.3332 87.2349C62.7424 88.6888 62.2923 90.185 61.786 91.6672C60.9983 91.7237 60.2106 91.766 59.5777 91.1308Z" fill="#452E26"/>
<path d="M49.969 81.494C50.0956 81.4376 50.2222 81.3811 50.3488 81.3105C50.3488 81.7623 50.3629 82.1998 50.3629 82.6515C50.3629 83.442 50.2926 84.2466 50.3629 85.0371C50.6161 87.5779 51.9523 89.3565 54.2591 90.4293C54.667 90.6128 55.3561 90.5846 55.2577 91.3609C52.5008 96.4567 47.9998 98.6306 42.458 99.0681C42.1626 99.1105 41.8673 99.1528 41.5719 99.1952C41.2765 99.2093 40.9952 99.2234 40.6998 99.2375C40.5169 99.2375 40.3341 99.2375 40.1513 99.2375C39.7715 99.2234 39.3777 99.2093 38.9979 99.1952C38.7025 99.1528 38.4212 99.0964 38.1258 99.054C35.2986 98.8423 32.7106 98.08 30.6711 95.9627C29.2645 94.4946 28.6034 92.6455 27.9283 90.7963C27.9142 90.754 28.1814 90.6128 28.308 90.514C30.6851 89.907 32.1761 88.3966 32.8371 86.0534C36.1566 87.2956 39.5605 87.5215 43.0206 86.9004C44.8773 86.5616 46.6495 85.9264 48.1546 84.7971C49.2376 84.0067 50.1238 82.9903 49.969 81.494Z" fill="#F8BC94"/>
<path d="M55.8342 91.3004C56.9595 90.9193 57.7331 91.7804 58.8302 92.0768C58.6755 92.6273 58.5911 93.1214 58.3941 93.5589C56.7063 97.2431 53.7947 99.6428 50.1939 101.28C47.3386 102.565 44.2723 103.129 41.206 103.186C36.5784 103.285 32.204 102.099 28.3782 99.3887C25.973 97.6807 25.0306 95.0976 24.6367 92.1191C25.0587 91.9074 25.4525 91.6815 25.8745 91.5122C26.2965 91.3428 26.7466 91.2157 27.3092 91.0322C27.6327 91.8368 27.9562 92.5991 28.2234 93.3754C29.3487 96.4809 31.5289 98.4571 34.6514 99.3464C40.0526 100.871 45.3131 100.433 50.2642 97.7231C52.3459 96.5938 54.0479 94.9564 55.1872 92.839C55.4263 92.3873 55.5529 91.8792 55.7358 91.3992C55.792 91.371 55.8342 91.3287 55.8764 91.2722L55.8342 91.3004Z" fill="#E0543E"/>
<path d="M61.7988 91.709C62.3052 90.2268 62.7553 88.7164 63.346 87.2766C63.9931 85.6815 64.7667 84.1429 65.5262 82.6043C65.6528 82.3643 65.9341 82.195 66.3561 81.7715C65.048 85.4839 63.8524 88.8858 62.6568 92.2877C62.3755 92.0901 62.0801 91.8925 61.7988 91.709Z" fill="#31221A"/>
<path d="M15.0293 133.989C15.0293 133.537 15.0293 133.085 15.0293 132.634C15.0433 133.085 15.0293 133.537 15.0293 133.989Z" fill="#E6A872"/>
<path d="M14.9892 127.82C14.7642 127.735 14.5532 127.665 14.3281 127.58C14.5532 127.665 14.7783 127.735 14.9892 127.82Z" fill="#E6A872"/>
<path d="M38.1543 99.0684C38.4497 99.1107 38.731 99.1672 39.0264 99.2095C38.731 99.1531 38.4356 99.1107 38.1543 99.0684Z" fill="#E6A872"/>
<path d="M55.8349 91.3027L55.8768 91.2743L55.8349 91.2031C55.8349 91.2031 55.8069 91.2458 55.793 91.2458L55.8349 91.3027Z" fill="#F8BC94"/>
<path d="M65.0487 127.887L65.0628 127.959L64.9922 127.973V127.901L65.0487 127.887Z" fill="#DD5D3E"/>
<path d="M65.0063 128.727L65.0901 128.797L65.0203 128.882C64.9644 128.839 64.9504 128.783 65.0063 128.727Z" fill="#DD5D3E"/>
<path d="M58.2402 90.8203C58.3387 90.7918 58.4231 90.7492 58.5215 90.7207C58.5778 90.7492 58.6059 90.7918 58.5919 90.8487C58.4793 90.8345 58.3668 90.8203 58.2402 90.8203Z" fill="#8655A7"/>
<path d="M15.1438 64.8357C15.1297 64.7652 15.1297 64.6805 15.1297 64.6099C15.1579 64.3982 15.2563 64.1723 15.2141 63.9747C14.8062 61.9279 14.3842 59.867 13.9763 57.8202C13.7231 55.2088 13.47 52.5974 13.2168 49.986C13.2309 48.9979 13.2309 48.0098 13.2449 47.0217C13.3012 46.3159 13.3996 45.6242 13.4278 44.9184C13.4981 42.3353 14.0607 39.8368 14.7359 37.2254C15.6502 38.0582 16.6207 37.6912 17.5349 37.423C26.4806 34.8257 34.8075 31.0144 41.7278 24.5777C41.8543 24.4647 42.0091 24.3659 42.4029 24.0695C40.7572 28.1066 38.0285 30.8592 34.8637 33.1459C35.1028 34.1623 35.7499 34.2187 36.425 34.0493C37.6487 33.7529 38.8865 33.4565 40.068 33.0471C45.4551 31.1415 50.2234 28.2619 53.9367 23.8154C54.8932 22.672 55.709 21.4157 56.6795 20.0889C56.792 20.47 56.9608 20.8229 57.003 21.1899C58.0157 28.3889 61.293 34.4305 66.3285 39.5545C67.2287 40.4579 67.6225 41.4319 67.721 42.5893C67.946 45.1866 68.1008 47.7981 68.2977 50.3954C68.3117 50.5647 68.4242 50.72 68.4805 50.8894C69.451 51.0447 69.9011 50.48 70.2387 49.7743C70.7169 48.7862 71.2796 47.8827 72.2079 47.2617C72.658 46.9652 73.1362 46.697 73.6004 46.4147C76.3291 46.2594 77.9607 47.1628 78.8469 49.3367C78.9453 49.5908 78.9453 49.8872 79.0016 50.1554C78.4811 50.2824 77.9748 50.3953 77.4544 50.5224C76.7511 49.9719 75.9494 50.0989 75.1757 50.2542C73.7129 50.5506 72.447 51.2705 71.589 52.5127C70.9842 53.3879 70.3653 54.3195 70.0277 55.3076C69.0853 58.0884 68.2695 60.9116 67.4115 63.7065C67.2006 64.257 66.9755 64.7934 66.7926 65.358C66.1034 67.5177 65.2173 69.5645 63.7545 71.3149C63.6701 71.4137 63.5857 71.5125 63.5013 71.6113L63.4872 71.6254C62.7558 72.3453 62.0385 73.0793 61.293 73.7851C56.5107 78.2739 50.8001 80.716 44.358 81.5205C43.2328 81.5205 42.1216 81.5205 40.9963 81.5205C35.6655 81.1677 30.5737 79.8831 25.7914 77.4976C20.981 75.112 17.6475 71.329 15.8893 66.1909C15.7486 65.7533 15.411 65.3016 15.1438 64.8357ZM28.3795 38.891C28.9703 38.9757 29.561 39.0745 30.1658 39.131C30.8832 39.2016 31.3192 38.8487 31.4177 38.1429C31.5443 37.2113 31.1786 36.1808 30.1236 36.0255C29.6173 35.955 29.125 35.842 28.6327 35.7432C27.8028 35.7432 26.987 35.7573 26.1571 35.7573C23.6253 36.0255 21.3186 36.8584 19.5322 38.764C19.0962 39.2298 18.7586 39.8227 18.5195 40.4155C18.407 40.6837 18.6461 41.0931 18.7165 41.446C19.04 41.3472 19.4478 41.3472 19.6729 41.1354C21.1779 39.7239 22.9221 38.9475 24.9756 38.891C26.0868 38.891 27.2402 38.891 28.3795 38.891ZM31.7131 46.937C31.8818 46.3018 31.6146 45.8077 31.1082 45.4972C30.3065 45.0314 29.5047 44.5373 28.6467 44.2127C25.2288 42.8999 21.4733 44.1985 19.687 47.3887C19.04 48.518 18.5336 49.7884 19.5604 51.0306C20.1933 51.0023 20.123 51.4823 20.2215 51.8916C20.7419 54.3478 21.9375 56.2816 24.5255 56.8745C26.0587 57.2274 27.6622 57.0862 29.2094 56.8039C31.0942 56.451 32.1632 55.2229 32.4585 53.402C32.7398 51.5952 32.7398 49.7601 32.0366 48.0098C31.8959 47.6569 31.8115 47.2899 31.7131 46.937ZM49.9983 46.8382C49.1966 48.6309 49.0559 50.5224 49.1263 52.4562C49.1685 53.4867 49.4638 54.4042 50.0124 55.237C50.7157 56.3098 51.8972 56.7333 53.0224 57.0862C53.6835 57.2979 54.4852 57.0015 55.2307 57.0015C58.2689 57.0156 59.9146 55.477 60.8288 52.9785C61.1101 52.2022 61.1523 51.327 61.3071 50.5083C62.0807 50.4518 62.4042 49.9154 62.3198 49.2661C62.2213 48.4897 62.0666 47.671 61.6869 47.0076C60.0974 44.3256 57.5656 43.4928 54.6259 43.648C53.0927 43.7327 51.7143 44.2974 50.5328 45.2855C50.0124 45.6807 49.6186 46.1324 49.9983 46.8382ZM61.94 41.5871C63.5013 40.9237 63.656 40.4579 62.6714 39.0463C61.6728 37.6065 60.2803 36.6749 58.6205 36.1667C57.7766 35.9126 56.9045 35.6868 56.0325 35.6585C54.4149 35.6021 52.7692 35.6444 51.1517 35.7573C50.139 35.8279 49.5904 36.5902 49.3654 37.5077C49.281 37.8606 49.3795 38.3546 49.5904 38.6369C49.7311 38.8346 50.2656 38.8769 50.561 38.7922C53.3037 37.8888 55.934 38.3687 58.4658 39.4839C59.6473 40.0062 60.6882 40.8108 61.94 41.5871ZM32.9368 67.6589C32.6554 68.4353 32.979 68.8305 33.4713 69.1693C34.9481 70.228 36.6501 70.8349 38.3942 71.0326C40.5181 71.2725 42.6983 71.1314 44.7659 70.4256C45.7787 70.0727 46.7492 69.6069 47.6916 69.1128C48.1979 68.8587 48.5918 68.4353 48.212 67.7436C46.9461 68.2941 45.7505 68.9717 44.4705 69.3387C43.1906 69.7057 41.8262 69.9456 40.49 69.9598C39.1537 69.9739 37.7753 69.8045 36.4954 69.4092C35.2717 69.0422 34.1605 68.28 32.9368 67.6589ZM40.0821 62.3231C39.632 62.0973 39.2803 61.9138 38.9146 61.7585C37.5362 61.1515 37.1846 60.0082 37.9863 58.6954C38.1832 58.3849 38.4786 58.1167 38.6333 57.792C38.7177 57.5944 38.6052 57.2979 38.5771 57.058C38.3661 57.1003 38.0426 57.0862 37.9582 57.2132C37.5221 57.8626 37.0439 58.526 36.7907 59.2459C36.1156 61.1798 37.7331 63.0289 39.7867 62.7466C39.8289 62.7325 39.8852 62.6055 40.0821 62.3231Z" fill="#F8BC94"/>
<path d="M10.5867 46.8229C10.0522 46.3571 9.51769 45.9054 8.9832 45.4396C8.50497 45.2984 8.04082 45.1432 7.42194 44.9597C6.70459 43.9151 6.66237 42.5176 6.45139 41.2049C6.15601 39.3698 6.04351 37.4924 5.8466 35.6433C5.7622 34.8104 5.55121 33.9635 5.59341 33.1448C5.77626 28.4301 6.54986 23.8566 8.60343 19.5513C9.70055 17.2505 11.1212 15.2037 12.7247 13.2416C15.6925 9.61385 19.4058 7.00245 23.5552 4.95566C27.0153 3.26178 30.7146 2.31602 34.4982 1.65258C37.888 1.05972 41.2919 0.975024 44.6958 1.15853C49.0842 1.3985 53.3883 2.2031 57.3829 4.23576C59.0708 5.09682 60.5336 6.25431 61.7573 7.69412C62.2356 8.25875 62.7138 8.83749 62.7138 9.67032C62.7138 10.0091 62.981 10.3338 63.1076 10.6443C66.2864 10.1079 68.8323 11.3077 70.9843 13.2981C73.91 16.0083 76.048 19.2549 77.1029 23.1791C77.8905 26.0728 78.3969 28.9806 78.4532 32.0014C78.5235 35.8691 77.9187 39.638 77.2435 43.421C77.131 44.0562 76.8356 44.6632 76.6106 45.2984C75.2884 45.6513 73.9241 45.242 72.6019 45.8631C71.336 46.4559 70.7312 47.6275 69.6059 48.5874C69.4653 47.7687 69.2683 47.1194 69.2543 46.4559C69.2402 44.7338 68.5088 43.054 69.0152 41.3037C69.0996 41.0355 68.8886 40.5697 68.6635 40.3297C68.1431 39.7933 67.4679 39.4122 66.9757 38.8617C65.8645 37.6054 64.8096 36.2926 63.7828 34.9657C61.5182 32.1002 59.9569 28.8395 58.9161 25.367C58.3394 23.419 58.1284 21.344 57.9033 19.3114C57.7627 18.0268 57.8752 16.7141 57.8752 15.4154C57.7768 15.3731 57.6783 15.3448 57.5798 15.3025C57.397 15.5001 57.1438 15.6836 57.0454 15.9236C56.6093 16.954 56.2999 18.0409 55.8076 19.0573C54.176 22.4874 51.616 25.1129 48.62 27.3573C46.243 29.1359 43.669 30.5616 40.9121 31.6203C40.0119 31.9591 39.0836 32.199 38.0146 32.2414C38.3662 31.7897 38.6616 31.3097 39.0695 30.9145C41.4325 28.6136 43.1345 25.9458 43.8518 22.685C43.9643 22.2051 44.3863 21.8098 44.5973 21.344C45.2725 19.9042 45.9194 18.4644 46.5383 17.0105C46.6368 16.7846 46.5524 16.4882 46.5524 16.1636C45.7647 16.2341 45.6522 16.827 45.4834 17.2505C43.9784 21.0335 41.2497 23.7719 38.1553 26.2704C35.5531 28.3737 32.6837 30.0393 29.744 31.5497C25.5384 33.7094 21.1077 35.3186 16.5505 36.6031C16.0723 36.7443 15.5518 36.7443 14.8204 36.8572C15.1721 35.8832 15.4393 35.0081 15.805 34.1752C17.6617 30.0817 20.2779 26.4963 23.4708 23.3485C25.3274 21.4993 27.1278 19.5796 29.2799 18.0551C29.7862 17.6881 30.166 17.1517 30.6161 16.7C30.5598 16.6153 30.4895 16.5164 30.4332 16.4318C30.1238 16.5447 29.7581 16.6011 29.5049 16.7988C28.028 17.9421 26.523 19.0573 25.1446 20.2995C22.6972 22.4874 20.517 24.9435 18.5056 27.5408C16.9303 29.5876 15.6925 31.8603 14.6798 34.2458C13.4561 37.1113 12.8653 40.1321 12.5981 43.2234C12.4574 44.8891 12.3308 46.5689 12.1761 48.4321C11.8948 48.1216 11.6838 47.8534 11.4447 47.6275C11.1774 47.3452 10.8821 47.0911 10.5867 46.8229ZM9.43332 32.7072C10.221 32.4955 10.0522 32.0014 10.0663 31.6203C10.0944 30.4487 9.9256 29.2488 10.1225 28.1055C10.657 25.0282 11.8667 22.1627 13.878 19.7913C15.6784 17.6598 17.7883 15.7965 19.7434 13.8062C20.081 13.4675 20.5873 13.1851 20.3342 12.437C19.9966 12.564 19.659 12.6205 19.4339 12.7899C16.9584 14.7943 14.6798 16.9823 12.795 19.5796C10.9805 22.078 9.77088 24.8306 9.23638 27.8655C9.05353 28.9101 8.96915 29.997 8.96915 31.0557C8.98322 31.6203 9.2786 32.1708 9.43332 32.7072ZM67.271 25.3388C67.1585 25.4235 67.046 25.5082 66.9334 25.607C67.1022 26.6515 67.4961 27.6255 67.904 28.5995C69.2402 31.832 70.5342 35.0928 70.5342 38.6782C70.5342 39.6663 70.5342 40.6544 70.5342 41.6848C71.3782 41.6989 71.5892 40.9931 71.6173 40.3862C71.6736 39.3134 71.6314 38.2406 71.4766 37.1819C71.0969 34.4999 70.2248 31.9449 69.2824 29.4182C68.8605 28.2749 68.3822 27.1597 67.8899 26.0587C67.7915 25.7764 67.482 25.5646 67.271 25.3388ZM49.8719 9.54328C50.3079 9.83971 50.5048 10.0656 50.7299 10.0938C51.6441 10.2349 52.5725 10.3338 53.5008 10.4185C54.823 10.5455 56.0889 10.8137 57.1016 11.7453C57.4814 12.0841 57.8611 12.2535 58.3253 11.9147C57.2423 9.9244 53.3883 8.78103 49.8719 9.54328Z" fill="#452E26"/>
<path d="M13.1735 57.8331C13.3985 59.3012 13.5954 60.7833 13.8767 62.2514C14.1159 63.5359 13.9893 63.7476 12.6812 63.7617C11.2887 63.7759 10.0087 63.3524 8.82721 62.6748C6.45012 61.3197 4.80445 59.3717 4.11523 56.6756C5.12796 57.9602 6.46417 58.0872 7.96919 57.8614C8.51775 57.7767 8.91158 57.6073 9.26322 57.2403C9.69925 57.3391 10.0087 57.2403 10.0509 56.7321C10.079 56.3086 9.98059 55.871 10.0931 55.4899C10.1916 55.137 10.4307 54.7136 10.7261 54.53C11.148 54.2618 11.6263 54.4736 11.9498 54.8688C12.1607 55.1088 12.3577 55.3629 12.5686 55.617C12.6249 55.744 12.6952 55.871 12.7515 55.9981C12.8922 56.6051 13.0328 57.212 13.1735 57.8331Z" fill="#F8BC94"/>
<path d="M3.84961 50.2123C4.00433 48.9419 4.66541 47.9397 5.60781 47.1351C7.11283 45.8506 8.61787 45.8929 10.0948 47.2339C10.2635 47.3892 10.4464 47.5303 10.6293 47.6856C11.2481 49.4642 11.867 51.2569 12.4859 53.0355C12.3593 53.1343 12.2187 53.2331 12.0921 53.3319C11.0653 51.5816 9.57433 50.4946 7.56295 50.1559C6.8878 49.8735 6.21263 49.7889 5.53748 50.17C5.46715 50.2123 5.4109 50.2406 5.34058 50.2547C4.83421 50.2264 4.34191 50.2123 3.84961 50.2123Z" fill="#F8BC94"/>
<path d="M7.5611 50.1381C9.57248 50.4769 11.0634 51.5638 12.0902 53.3142C12.259 53.4977 12.4418 53.6812 12.6106 53.8647C12.5966 54.4434 12.5825 55.0222 12.5684 55.6009C12.3715 55.3468 12.1605 55.1069 11.9496 54.8528C11.612 54.4576 11.1478 54.2599 10.7259 54.514C10.4305 54.6975 10.1914 55.121 10.0929 55.4739C9.98038 55.8691 10.0788 56.3067 10.0507 56.7161C10.0226 57.2101 9.69905 57.323 9.26301 57.2242C9.24895 56.4479 9.13642 55.6433 9.26301 54.881C9.40367 53.9635 10.2898 53.7094 11.1197 53.4836C10.2195 52.2414 9.22084 51.3662 7.81428 51.1121C7.26573 51.0133 6.70308 51.0557 6.14046 51.0415C5.5919 51.0274 5.2262 50.858 5.33873 50.2087C5.40905 50.1946 5.47937 50.1664 5.53563 50.124C6.21078 50.1523 6.88595 50.1381 7.5611 50.1381Z" fill="#703C40"/>
<path d="M12.5986 53.8704C12.4298 53.6869 12.2469 53.5034 12.0781 53.3199C12.2047 53.2211 12.3454 53.1222 12.472 53.0234C12.5282 53.3058 12.5704 53.5881 12.5986 53.8704Z" fill="#5D5D59"/>
<path d="M12.7532 55.9837C12.6969 55.8566 12.6266 55.7296 12.5703 55.6025C12.6266 55.7296 12.6828 55.8566 12.7532 55.9837Z" fill="#703C40"/>
<path d="M62.8825 74.2067C62.7278 74.2067 62.5731 74.2067 62.4043 74.2067C62.5731 74.122 62.7419 74.0232 62.9107 73.9385C62.9107 74.0232 62.8966 74.1079 62.8825 74.2067Z" fill="#E6DED1"/>
<path d="M49.969 81.4935C50.1237 82.9898 49.2376 84.0061 48.1827 84.7966C46.6777 85.9259 44.9054 86.5611 43.0487 86.8998C39.5886 87.5209 36.1847 87.2951 32.8652 86.0529C32.9496 84.5143 33.034 82.9898 33.1184 81.4512C35.5096 81.7758 37.8304 82.0864 40.1512 82.3969C41.825 82.7357 43.5129 82.7498 45.1867 82.3969C46.7902 82.1005 48.3796 81.7899 49.969 81.4935Z" fill="#E6A872"/>
<path d="M45.2015 82.3984C43.5277 82.7513 41.8398 82.7372 40.166 82.3984C41.8398 82.3984 43.5277 82.3984 45.2015 82.3984Z" fill="#5D5D59"/>
<path d="M41.0234 81.5762C42.1487 81.5762 43.2599 81.5762 44.3851 81.5762C43.2599 81.9432 42.1346 81.9291 41.0234 81.5762Z" fill="#B73F23"/>
<path d="M50.3773 82.6515C50.3773 82.1998 50.3633 81.7623 50.3633 81.3105C51.0244 81.7764 51.0243 82.101 50.3773 82.6515Z" fill="#B73F23"/>
<path d="M78.9297 56.7164C78.6766 57.4504 78.5359 58.255 78.1421 58.9185C76.2714 62.0945 73.5567 63.9013 69.759 63.7602C69.4073 63.746 69.0416 63.6472 68.7041 63.5908C68.6478 63.3508 68.5634 63.2096 68.5915 63.0967C69.3511 60.6406 70.1247 58.1844 70.9264 55.7424C71.1233 55.1354 71.4609 54.6273 72.2486 54.7967C73.0925 54.9661 73.5145 55.6436 73.2754 56.4623C73.1488 56.8717 72.9659 57.281 72.755 57.8315C73.9224 57.7186 74.1053 56.9423 74.4428 56.3353C74.4428 56.8293 74.5694 57.1822 75.132 57.3516C76.2151 57.6763 77.2419 58.0292 78.1702 57.0128C78.339 56.8293 78.6766 56.8152 78.9297 56.7164Z" fill="#F8BC94"/>
<path d="M78.9312 56.7182C78.678 56.817 78.3405 56.8311 78.1717 57.0146C77.2434 58.031 76.2166 57.6781 75.1335 57.3534C74.5568 57.184 74.4443 56.8311 74.4443 56.3371C74.4162 56.2665 74.4302 56.21 74.4724 56.1395C74.7959 55.8995 74.7397 55.7301 74.388 55.5889C74.0083 54.4879 73.1081 54.0786 71.9688 53.8951C72.883 51.8624 74.5287 51.2554 76.4557 51.1284C76.9199 51.1001 77.4262 51.2554 77.4825 50.5496C78.0029 50.4226 78.5092 50.3097 79.0297 50.1826H78.9875C79.0578 50.2814 79.1422 50.3802 79.2125 50.4649C79.8033 52.1588 79.8314 53.8527 79.3532 55.5748C79.2266 55.8571 79.1141 56.1253 78.9875 56.4077C78.9734 56.5206 78.9453 56.6194 78.9312 56.7182Z" fill="#E6A872"/>
<path d="M78.9863 56.4227C79.1129 56.1404 79.2254 55.8722 79.352 55.5898C79.2254 55.858 79.1129 56.1404 78.9863 56.4227Z" fill="#F8BC94"/>
<path d="M74.3867 55.5898C74.7384 55.731 74.7806 55.9004 74.4711 56.1404C74.443 55.9569 74.4148 55.7733 74.3867 55.5898Z" fill="#F8BC94"/>
<path d="M5.33956 50.226C5.2411 50.8612 5.59273 51.0447 6.14129 51.0589C6.70391 51.073 7.26656 51.0306 7.81512 51.1294C9.22168 51.3835 10.2203 52.2587 11.1205 53.5009C10.2907 53.7408 9.4045 53.9808 9.26384 54.8983C9.13725 55.6606 9.24978 56.4511 9.26384 57.2415C8.91221 57.6086 8.51838 57.7779 7.96982 57.8626C6.4648 58.0885 5.12858 57.9615 4.11586 56.6769C3.32819 54.5454 3.08905 52.3999 3.84859 50.2119C4.34089 50.2119 4.8332 50.226 5.33956 50.226Z" fill="#E6A872"/>
<path d="M61.2924 50.4937C61.1377 51.3265 61.0955 52.1876 60.8142 52.9639C59.8999 55.4624 58.2543 57.001 55.2161 56.9869C54.4706 56.9869 53.6689 57.2692 53.0078 57.0716C51.8825 56.7187 50.687 56.2953 49.9978 55.2225C49.4633 54.3896 49.1538 53.4862 49.1116 52.4417C49.0413 50.4937 49.1819 48.6163 49.9837 46.8236C50.265 46.6966 50.5885 46.6119 50.7995 46.4142C51.7559 45.4967 52.9093 45.0027 54.1893 44.7909C54.766 44.7768 55.3286 44.7768 55.9053 44.7627C57.7901 45.1156 59.1263 46.3437 60.336 47.6988C60.7017 48.1081 60.772 48.7857 60.9548 49.3362C61.1096 49.7173 61.194 50.1126 61.2924 50.4937ZM55.1036 56.4646C56.1163 56.2106 56.8899 55.6177 57.34 54.7002C58.0433 53.2604 58.409 51.7076 58.3387 50.1126C58.2965 49.0398 58.0995 47.967 57.2415 47.1483C55.4271 45.4261 52.3749 45.6379 50.9261 48.094C49.8993 49.8161 49.9415 51.6794 50.4478 53.5427C50.8557 55.039 51.7981 56.0835 53.3594 56.4788C53.9361 56.8458 54.5269 56.8316 55.1036 56.4646Z" fill="#FFFAF4"/>
<path d="M31.7117 46.9368C31.8101 47.2897 31.8945 47.6567 32.0211 47.9955C32.7244 49.7458 32.7244 51.5808 32.4431 53.3877C32.1618 55.2227 31.0787 56.4508 29.1939 56.7896C27.6327 57.0719 26.0432 57.213 24.5101 56.8601C21.922 56.2673 20.7264 54.3334 20.206 51.8773C20.1216 51.4679 20.1919 50.988 19.5449 51.0162C20.1075 50.7762 20.1357 50.2681 20.2482 49.7458C20.8812 46.7533 23.9615 44.5089 26.9716 44.8618C28.2937 45.017 29.4612 45.5393 30.5302 46.358C30.8677 46.6262 31.3178 46.7533 31.7117 46.9368ZM31.6273 51.5103C31.4866 50.748 31.3741 49.9152 31.1772 49.1247C30.7411 47.3602 29.1517 46.0757 27.3513 45.991C25.5369 45.9063 23.9896 46.9227 23.3708 48.7295C22.7237 50.5786 22.8081 52.456 23.5958 54.2205C24.3132 55.8156 25.79 56.7049 27.3091 56.7049C29.2502 56.7049 30.6989 55.5191 31.2475 53.6559C31.4444 52.9783 31.5007 52.2725 31.6273 51.5103Z" fill="#FFFAF4"/>
<path d="M61.9388 41.5834C60.6869 40.8211 59.6461 40.0024 58.4646 39.4801C55.9327 38.3509 53.3025 37.871 50.5597 38.7885C50.2643 38.8873 49.7439 38.8308 49.5892 38.6332C49.3782 38.3509 49.2797 37.8568 49.3641 37.5039C49.5892 36.5864 50.1377 35.8242 51.1504 35.7536C52.768 35.6407 54.3996 35.5983 56.0312 35.6548C56.9033 35.683 57.7754 35.9089 58.6193 36.163C60.279 36.657 61.6715 37.5886 62.6702 39.0426C63.6548 40.44 63.5 40.92 61.9388 41.5834Z" fill="#31221A"/>
<path d="M28.6182 35.7461C29.1105 35.8449 29.6028 35.9578 30.1092 36.0284C31.1782 36.1837 31.5298 37.2141 31.4032 38.1458C31.3047 38.8516 30.8687 39.2044 30.1513 39.1339C29.5606 39.0774 28.9698 38.9786 28.365 38.8939C27.2257 38.4987 26.0723 38.4987 24.933 38.8939C22.8795 38.9645 21.1213 39.7267 19.6303 41.1383C19.4053 41.35 18.9974 41.35 18.6738 41.4488C18.6035 41.096 18.3644 40.6866 18.4769 40.4184C18.716 39.8255 19.0536 39.2327 19.4897 38.7669C21.276 36.8612 23.5827 36.0425 26.1145 35.7602C26.9725 35.7461 27.7883 35.7461 28.6182 35.7461Z" fill="#31221A"/>
<path d="M54.2032 44.8082C52.9232 45.0199 51.7698 45.514 50.8134 46.4315C50.6024 46.6291 50.2648 46.7138 49.9976 46.8409C49.6178 46.1351 50.0117 45.6975 50.504 45.2881C51.6995 44.3 53.0779 43.7354 54.597 43.6507C57.5367 43.4954 60.0826 44.3283 61.6579 47.0103C62.0377 47.6596 62.1924 48.4924 62.2909 49.2688C62.3753 49.9181 62.0518 50.4545 61.2782 50.511C61.1797 50.1298 61.0813 49.7346 60.9547 49.3535C60.7718 48.7888 60.7015 48.1254 60.3358 47.716C59.1261 46.3609 57.7899 45.1329 55.9051 44.78C55.3425 44.3988 54.7799 44.4271 54.2032 44.8082Z" fill="#4E3429"/>
<path d="M31.713 46.9372C31.3192 46.7537 30.8832 46.6267 30.5456 46.3726C29.4907 45.5539 28.3092 45.0316 26.987 44.8763C23.9769 44.5234 20.8966 46.7679 20.2637 49.7604C20.1511 50.2686 20.1371 50.7908 19.5604 51.0308C18.5336 49.7745 19.0399 48.5182 19.687 47.3889C21.4733 44.2129 25.2288 42.9001 28.6467 44.2129C29.5047 44.5376 30.3065 45.0316 31.1082 45.4974C31.6146 45.7939 31.8818 46.2879 31.713 46.9372Z" fill="#4E3429"/>
<path d="M32.9366 67.6543C34.1463 68.2754 35.2574 69.0376 36.4812 69.4046C37.7471 69.7999 39.1396 69.9693 40.4758 69.9552C41.812 69.941 43.1764 69.7152 44.4564 69.3341C45.7363 68.9671 46.9319 68.2895 48.1978 67.739C48.5776 68.4307 48.1837 68.84 47.6774 69.1082C46.7209 69.5882 45.7504 70.0681 44.7517 70.421C42.6841 71.1409 40.5039 71.282 38.38 71.028C36.6359 70.8303 34.9339 70.2375 33.4571 69.1647C32.9929 68.8259 32.6553 68.4307 32.9366 67.6543Z" fill="#4E3429"/>
<path d="M40.0802 62.3208C39.8833 62.6031 39.8411 62.7302 39.7708 62.7443C37.7172 63.0266 36.0996 61.1775 36.7748 59.2436C37.028 58.5096 37.5203 57.8603 37.9422 57.2109C38.0266 57.0839 38.3501 57.098 38.5611 57.0557C38.5892 57.3097 38.7018 57.5921 38.6174 57.7897C38.4767 58.1285 38.1673 58.3825 37.9704 58.6931C37.1686 59.9917 37.5203 61.1351 38.8987 61.7562C39.2785 61.9115 39.6301 62.095 40.0802 62.3208Z" fill="#703C40"/>
<path d="M24.9473 38.8933C26.0866 38.5121 27.24 38.5121 28.3793 38.8933C27.24 38.8933 26.0866 38.8933 24.9473 38.8933Z" fill="#5D5D59"/>
<path d="M28.6181 35.7461C27.7883 35.7461 26.9584 35.7601 26.1426 35.7601C26.9724 35.7461 27.7883 35.7461 28.6181 35.7461Z" fill="#DD5D3E"/>
<path d="M9.43255 32.7073C9.27783 32.1567 8.98242 31.6203 8.98242 31.0698C8.98242 29.997 9.06684 28.9242 9.24969 27.8797C9.78418 24.8448 10.9938 22.0922 12.8083 19.5937C14.679 16.9964 16.9717 14.8085 19.4472 12.8041C19.6723 12.6206 20.0099 12.5782 20.3474 12.4512C20.6006 13.1993 20.0943 13.4675 19.7567 13.8204C17.7875 15.8107 15.6777 17.674 13.8913 19.8055C11.88 22.1769 10.6703 25.0424 10.1358 28.1196C9.93891 29.263 10.1077 30.4629 10.0795 31.6345C10.0514 32.0015 10.2202 32.4955 9.43255 32.7073Z" fill="#31221A"/>
<path d="M67.2708 25.3389C67.4818 25.5788 67.7912 25.7765 67.9037 26.0588C68.396 27.1598 68.8742 28.2891 69.2962 29.4183C70.2245 31.945 71.1107 34.5 71.4905 37.182C71.6452 38.2406 71.6733 39.3276 71.6311 40.3862C71.603 40.9932 71.4061 41.699 70.5481 41.6849C70.5481 40.6544 70.5481 39.6663 70.5481 38.6782C70.5481 35.0928 69.254 31.8321 67.9178 28.5996C67.5099 27.6115 67.102 26.6516 66.9473 25.6071C67.0457 25.5083 67.1583 25.4236 67.2708 25.3389Z" fill="#31221A"/>
<path d="M49.8711 9.54556C53.3875 8.78331 57.2414 9.92668 58.3245 11.917C57.8603 12.2558 57.4806 12.0864 57.1008 11.7476C56.074 10.816 54.8222 10.5478 53.5 10.4207C52.5717 10.336 51.6433 10.2372 50.7291 10.0961C50.504 10.0678 50.3071 9.84199 49.8711 9.54556Z" fill="#31221A"/>
<path d="M7.56062 50.1428C6.88547 50.1428 6.2103 50.1428 5.53516 50.1569C6.2103 49.7758 6.88547 49.8605 7.56062 50.1428Z" fill="#DD5D3E"/>
<path d="M53.3588 56.4775C51.7976 56.0822 50.8692 55.0377 50.4473 53.5414C49.9409 51.6781 49.8987 49.8148 50.9255 48.0927C52.3743 45.6507 55.4406 45.439 57.241 47.147C58.099 47.9516 58.2818 49.0244 58.3381 50.1113C58.4084 51.7063 58.0427 53.2591 57.3394 54.6989C56.8893 55.6305 56.1017 56.2093 55.103 56.4633C54.5263 56.4775 53.9355 56.4775 53.3588 56.4775ZM56.9456 49.3914C56.7205 49.3914 56.5658 49.349 56.4392 49.3914C55.8907 49.5749 55.7641 50.0125 55.9469 50.5065C56.0032 50.6618 56.2986 50.8453 56.4814 50.8312C57.0581 50.8029 57.0581 50.3371 57.0441 49.9136C57.0441 49.7725 57.0018 49.6454 56.9456 49.3914Z" fill="#31221A"/>
<path d="M53.3594 56.4799C53.9361 56.4799 54.5268 56.4799 55.1035 56.4658C54.5268 56.8328 53.9361 56.8469 53.3594 56.4799Z" fill="#63C2E3"/>
<path d="M54.2031 44.8074C54.7657 44.4403 55.3425 44.4121 55.9192 44.7791C55.3565 44.7791 54.7798 44.7932 54.2031 44.8074Z" fill="#5D5D59"/>
<path d="M31.6276 51.51C31.501 52.2722 31.4307 52.978 31.2478 53.6414C30.7133 55.5188 29.2505 56.6904 27.3095 56.6904C25.7904 56.6904 24.2995 55.8011 23.5962 54.2061C22.8085 52.4275 22.71 50.5642 23.3711 48.715C24.0041 46.9082 25.5513 45.8919 27.3517 45.9766C29.1521 46.0613 30.7415 47.3458 31.1775 49.1103C31.3885 49.9149 31.4869 50.7336 31.6276 51.51ZM29.9679 50.9877C30.2633 50.5501 30.5305 50.3242 30.5586 50.0701C30.6008 49.5902 30.3195 49.2232 29.8132 49.2938C29.5881 49.322 29.1943 49.7314 29.2365 49.8584C29.3349 50.1972 29.6163 50.4936 29.9679 50.9877Z" fill="#31221A"/>
<path d="M56.9461 49.3919C57.0024 49.646 57.0446 49.773 57.0446 49.9141C57.0587 50.3517 57.0587 50.8034 56.482 50.8317C56.2991 50.8458 56.0178 50.6623 55.9475 50.507C55.7646 50.013 55.8912 49.5895 56.4398 49.3919C56.5664 49.3495 56.7211 49.3919 56.9461 49.3919Z" fill="#E6DED1"/>
<path d="M29.9693 50.9899C29.6317 50.4958 29.3364 50.1994 29.2238 49.8465C29.1816 49.7195 29.5755 49.3101 29.8005 49.2819C30.2928 49.2113 30.5882 49.5924 30.546 50.0583C30.5319 50.3265 30.2506 50.5664 29.9693 50.9899Z" fill="#E6DED1"/>
</svg>
