<svg width="14" height="16" viewBox="0 0 14 16" fill="none" xmlns="http://www.w3.org/2000/svg">
<path d="M7.00002 8.88867C6.17039 8.88867 5.51855 9.54051 5.51855 10.3701C5.51855 10.8442 5.75559 11.259 6.11115 11.5553V12.7405C6.11115 13.2146 6.52598 13.6294 7.00005 13.6294C7.47413 13.6294 7.88896 13.2146 7.88896 12.7405V11.5553C8.24451 11.259 8.48155 10.8442 8.48155 10.3701C8.48149 9.54051 7.82965 8.88867 7.00002 8.88867ZM7.2963 11.1998V12.7405C7.2963 12.9183 7.17778 13.0368 7.00002 13.0368C6.82226 13.0368 6.70374 12.9183 6.70374 12.7405V11.1998C6.34818 11.0813 6.11115 10.7257 6.11115 10.3702C6.11115 9.89609 6.52598 9.48126 7.00005 9.48126C7.47413 9.48126 7.88896 9.89609 7.88896 10.3702C7.88889 10.785 7.65186 11.0813 7.2963 11.1998Z" fill="#262060"/>
<path d="M11.4445 6.51852V4.44443C11.4445 2.01481 9.42968 0 7.00007 0C4.57042 0 2.55561 2.01481 2.55561 4.44446V6.51855C1.54819 6.51855 0.777832 7.2889 0.777832 8.29633V14.2222C0.777832 15.2296 1.54819 16 2.55561 16H11.4445C12.4519 16 13.2223 15.2296 13.2223 14.2222V8.2963C13.2223 7.34815 12.4519 6.51852 11.4445 6.51852ZM3.1482 4.44446C3.1482 2.31113 4.86671 0.592624 7.00004 0.592624C9.13337 0.592624 10.8519 2.31113 10.8519 4.44446V6.51855H10.2593V4.44446C10.2593 2.66668 8.77782 1.18519 7.00001 1.18519C5.2222 1.18519 3.74079 2.66665 3.74079 4.44446V6.51855H3.1482V4.44446ZM9.66672 4.44446V6.51855H4.33339V4.44446C4.33339 2.96299 5.51857 1.77781 7.00004 1.77781C8.4815 1.77781 9.66672 2.96296 9.66672 4.44446ZM12.6297 14.2222C12.6297 14.8741 12.0963 15.4074 11.4445 15.4074H2.55561C1.90374 15.4074 1.37042 14.8741 1.37042 14.2222V8.2963C1.37042 7.64443 1.90374 7.11111 2.55561 7.11111H11.4445C12.0963 7.11111 12.6297 7.64443 12.6297 8.2963V14.2222Z" fill="#262060"/>
</svg>
