<svg width="21" height="21" viewBox="0 0 21 21" fill="none" xmlns="http://www.w3.org/2000/svg">
<path fill-rule="evenodd" clip-rule="evenodd" d="M1.5532 1.42287C1.70576 1.27031 1.94022 1.21216 2.205 1.26119C2.46978 1.31022 2.74319 1.46243 2.96509 1.68433L19.6986 18.4179C19.9205 18.6398 20.0727 18.9132 20.1218 19.178C20.1708 19.4427 20.1126 19.6772 19.9601 19.8298C19.8075 19.9823 19.5731 20.0405 19.3083 19.9914C19.0435 19.9424 18.7701 19.7902 18.5482 19.5683L1.81466 2.83476C1.59276 2.61286 1.44056 2.33945 1.39152 2.07467C1.34249 1.80989 1.40065 1.57543 1.5532 1.42287Z" fill="#1A1A1A"/>
<path fill-rule="evenodd" clip-rule="evenodd" d="M19.7739 1.5742C19.9265 1.72676 19.9846 1.96121 19.9356 2.22599C19.8866 2.49078 19.7343 2.76419 19.5124 2.98609L2.77891 19.7196C2.55701 19.9415 2.2836 20.0937 2.01881 20.1428C1.75403 20.1918 1.51958 20.1336 1.36702 19.9811C1.21446 19.8285 1.1563 19.5941 1.20534 19.3293C1.25437 19.0645 1.40658 18.7911 1.62848 18.5692L18.362 1.83566C18.5839 1.61376 18.8573 1.46155 19.1221 1.41252C19.3869 1.36348 19.6213 1.42164 19.7739 1.5742Z" fill="#1A1A1A"/>
</svg>
