<svg width="16" height="16" viewBox="0 0 16 16" fill="none" xmlns="http://www.w3.org/2000/svg">
<path d="M10.4002 9.80664C9.65355 9.80664 9.06689 10.3744 9.06689 11.0969C9.06689 11.5099 9.28023 11.8712 9.60023 12.1292V13.1615C9.60023 13.5744 9.97358 13.9357 10.4002 13.9357C10.8269 13.9357 11.2003 13.5744 11.2003 13.1615V12.1292C11.5203 11.8712 11.7336 11.5099 11.7336 11.0969C11.7335 10.3744 11.1469 9.80664 10.4002 9.80664ZM10.6669 11.8196V13.1615C10.6669 13.3163 10.5602 13.4195 10.4002 13.4195C10.2402 13.4195 10.1336 13.3163 10.1336 13.1615V11.8196C9.81356 11.7163 9.60023 11.4066 9.60023 11.097C9.60023 10.6841 9.97358 10.3228 10.4002 10.3228C10.8269 10.3228 11.2003 10.6841 11.2003 11.097C11.2002 11.4583 10.9869 11.7163 10.6669 11.8196Z" fill="#262060"/>
<path d="M14.4 7.74194H8.00003V3.87098C8.00003 1.75484 6.1867 0 4.00001 0C1.81333 0 0 1.75484 0 3.87098V4.38711V5.9355C0 6.3484 0.373347 6.7097 0.800014 6.7097C1.22668 6.7097 1.60003 6.3484 1.60003 5.9355V4.38711V3.87098C1.60003 2.58067 2.66669 1.54841 4.00001 1.54841C5.33333 1.54841 6.4 2.58067 6.4 3.87098V7.74196C5.49332 7.74196 4.8 8.41292 4.8 9.29035V14.4516C4.8 15.329 5.49332 16 6.4 16H14.4C15.3067 16 16 15.329 16 14.4516V9.29032C16 8.41289 15.3067 7.74194 14.4 7.74194ZM4.00001 1.03226C2.40001 1.03226 1.06667 2.32257 1.06667 3.87098V5.9355C1.06667 6.09032 0.96 6.19355 0.800014 6.19355C0.640028 6.19355 0.533361 6.09032 0.533361 5.9355V3.87098C0.533361 2.01289 2.08001 0.516129 4.00001 0.516129C5.92001 0.516129 7.46667 2.01289 7.46667 3.87095V7.74194H6.93333V3.87098C6.93336 2.32257 5.60001 1.03226 4.00001 1.03226ZM15.4667 14.4516C15.4667 15.0193 14.9867 15.4839 14.4 15.4839H6.4C5.81332 15.4839 5.33333 15.0193 5.33333 14.4516V9.29032C5.33333 8.72259 5.81332 8.25806 6.4 8.25806H14.4C14.9867 8.25806 15.4667 8.72259 15.4667 9.29032L15.4667 14.4516Z" fill="#262060"/>
</svg>
