<svg width="41" height="41" viewBox="0 0 41 41" fill="none" xmlns="http://www.w3.org/2000/svg">
<path fill-rule="evenodd" clip-rule="evenodd" d="M20.3125 0C21.1754 0 21.875 0.699555 21.875 1.5625V18.75H39.0625C39.9254 18.75 40.625 19.4496 40.625 20.3125C40.625 21.1754 39.9254 21.875 39.0625 21.875H21.875V39.0625C21.875 39.9254 21.1754 40.625 20.3125 40.625C19.4496 40.625 18.75 39.9254 18.75 39.0625V21.875H1.5625C0.699555 21.875 0 21.1754 0 20.3125C0 19.4496 0.699555 18.75 1.5625 18.75H18.75V1.5625C18.75 0.699555 19.4496 0 20.3125 0Z" fill="white"/>
</svg>
