<svg width="25" height="21" viewBox="0 0 25 21" fill="none" xmlns="http://www.w3.org/2000/svg">
<path d="M23.6247 9.29149H4.79194L11.1877 2.89578C11.6595 2.42393 11.6592 1.65905 11.1877 1.1869C10.7158 0.715044 9.95092 0.715044 9.47877 1.1869L1.02043 9.64523C0.548578 10.1171 0.548578 10.8823 1.02013 11.3538L9.47846 19.8121C9.71439 20.0481 10.0237 20.1662 10.3331 20.1662C10.6421 20.1662 10.9514 20.0481 11.1877 19.8118C11.6595 19.3403 11.6592 18.5751 11.1877 18.1036L4.79164 11.7082H23.6247C24.292 11.7082 24.8334 11.1668 24.8331 10.4998C24.8331 9.83252 24.292 9.29149 23.6247 9.29149Z" fill="white"/>
</svg>
