<svg width="32" height="32" viewBox="0 0 32 32" fill="none" xmlns="http://www.w3.org/2000/svg">
<path d="M15.7 3C13.6313 3 11.6474 3.88499 10.1846 5.46031C8.72178 7.03561 7.9 9.17218 7.9 11.4C7.9 21.2 4 24 4 24H15.7" stroke="white" stroke-width="2" stroke-linecap="round" stroke-linejoin="round"/>
<path d="M18.3067 28C18.0723 28.4041 17.7359 28.7396 17.331 28.9727C16.9262 29.2059 16.4672 29.3287 16 29.3287C15.5328 29.3287 15.0739 29.2059 14.6691 28.9727C14.2643 28.7396 13.9278 28.4041 13.6934 28" stroke="white" stroke-width="2" stroke-linecap="round" stroke-linejoin="round"/>
<path d="M16.0002 3C18.0689 3 20.0528 3.88499 21.5156 5.46031C22.9784 7.03561 23.8002 9.17218 23.8002 11.4C23.8002 21.2 27.7002 24 27.7002 24H16.0002" stroke="white" stroke-width="2" stroke-linecap="round" stroke-linejoin="round"/>
</svg>
