<svg width="44" height="34" viewBox="0 0 44 34" fill="none" xmlns="http://www.w3.org/2000/svg">
<path d="M2.68808 28.8267L18.9693 33.1861C19.2818 33.272 19.6021 33.3111 19.9146 33.3111C20.5396 33.3111 21.1646 33.147 21.7193 32.8267C22.5553 32.3423 23.1568 31.5611 23.4068 30.6236L24.11 27.9986C24.8131 28.9204 25.7506 29.4673 26.9459 29.4673C27.5709 29.4673 28.1959 29.3032 28.7584 28.9751L41.9381 21.3657C43.6646 20.3657 44.2662 18.147 43.2662 16.4126L34.8365 1.81887C34.3521 0.975122 33.5709 0.381372 32.6334 0.123559C31.7037 -0.126441 30.7193 0.00637197 29.8834 0.490747L16.7037 8.10012C16.2896 8.3345 15.9615 8.67043 15.6725 9.03762L8.50058 7.11575C6.5709 6.60012 4.57871 7.74856 4.06308 9.67825L0.125585 24.3736C-0.124415 25.3111 0.000584824 26.2876 0.48496 27.1236C0.969335 27.9595 1.75058 28.5611 2.68808 28.8111V28.8267ZM17.485 9.4595L30.6646 1.85012C31.1412 1.57668 31.6959 1.49856 32.2271 1.63918C32.7584 1.77981 33.2037 2.12356 33.4771 2.60012L41.9068 17.1939C42.4771 18.1782 42.1334 19.4439 41.149 20.0142L27.9693 27.6236C26.985 28.1939 25.7271 27.8657 25.1568 26.8657L24.649 25.9829L25.5865 22.4751C25.9146 22.9517 26.3834 23.3267 26.9771 23.4829C27.1881 23.5376 27.399 23.5689 27.6178 23.5689C28.735 23.5689 29.7193 22.8189 30.0084 21.7407C30.0631 21.5298 30.0943 21.3189 30.0943 21.1001C30.0943 19.9829 29.3443 18.9986 28.2584 18.7095C28.0475 18.6548 27.8365 18.6236 27.6178 18.6236C27.235 18.6236 26.8756 18.7407 26.5475 18.9048L27.3443 15.9204C27.86 13.9907 26.7115 11.9986 24.7818 11.4829L17.4303 9.51418C17.4303 9.51418 17.4615 9.47512 17.485 9.4595ZM26.7037 21.1001C26.7037 20.4986 27.274 20.0689 27.8521 20.2251C28.3209 20.3501 28.6256 20.8345 28.4928 21.3423C28.36 21.8111 27.86 22.1157 27.3756 21.9829C26.9771 21.8736 26.7037 21.5142 26.7037 21.1079V21.1001ZM1.6334 24.7954L5.5709 10.1001C5.8209 9.17825 6.65684 8.56887 7.56309 8.56887C7.74277 8.56887 7.92246 8.59231 8.09433 8.63918L24.3678 12.9986C25.4693 13.2954 26.1178 14.4282 25.8287 15.522L21.8912 30.2251C21.7506 30.7564 21.4068 31.2017 20.9303 31.4751C20.4537 31.7486 19.899 31.8189 19.3678 31.6782L3.08652 27.3189C2.55527 27.1782 2.10996 26.8345 1.82871 26.3579C1.55527 25.8814 1.48496 25.3267 1.62558 24.7954H1.6334Z" fill="white"/>
<path d="M30.3828 10.7646C30.5938 10.8193 30.8125 10.8506 31.0234 10.8506C32.1172 10.8506 33.1172 10.124 33.4141 9.02246C33.5859 8.38965 33.4922 7.71777 33.1641 7.14746C32.8359 6.57715 32.2969 6.16309 31.6641 5.99121C31.4531 5.93652 31.2422 5.90527 31.0234 5.90527C29.6719 5.90527 28.5547 7.00684 28.5547 8.38184C28.5547 9.49902 29.3047 10.4834 30.3906 10.7725L30.3828 10.7646ZM31.0234 7.46777C31.1016 7.46777 31.1797 7.47559 31.2578 7.49902C31.4922 7.56152 31.6875 7.70996 31.8047 7.9209C31.9297 8.13184 31.9609 8.37402 31.8984 8.6084C31.7734 9.08496 31.2578 9.38184 30.7813 9.24902C30.3828 9.13965 30.1094 8.78027 30.1094 8.37402C30.1094 7.86621 30.5234 7.45996 31.0156 7.45996L31.0234 7.46777Z" fill="white"/>
<path d="M11.5951 21.397C12.2748 22.5767 13.7904 22.9829 14.9701 22.3032C16.1498 21.6236 16.556 20.1001 15.8763 18.9282C15.1966 17.7564 13.681 17.3423 12.5013 18.022C11.3373 18.6939 10.9076 20.2017 11.5951 21.397ZM13.2826 19.3736C13.7123 19.1236 14.2748 19.272 14.5248 19.7095C14.7748 20.1392 14.6263 20.7017 14.1888 20.9517C13.7669 21.2017 13.1888 21.0454 12.9466 20.6236C12.6966 20.1861 12.8451 19.6314 13.2826 19.3814V19.3736Z" fill="white"/>
<path d="M20.6732 19.0068C21.8451 18.3271 22.2669 16.8115 21.5794 15.6318C21.1419 14.8662 20.3216 14.3975 19.4388 14.3975C19.0091 14.3975 18.5794 14.5146 18.2044 14.7256C17.0404 15.3975 16.6107 16.8975 17.2982 18.1006C17.9779 19.2803 19.4935 19.6865 20.6732 19.0068ZM18.9779 16.0771C19.1185 15.999 19.2748 15.9521 19.431 15.9521C19.7513 15.9521 20.056 16.124 20.2201 16.4053C20.4701 16.835 20.3216 17.3975 19.8841 17.6475C19.4544 17.8975 18.8919 17.749 18.6419 17.3193C18.3919 16.8818 18.5482 16.3271 18.9701 16.0771H18.9779Z" fill="white"/>
<path d="M9.26685 25.5921C10.4465 24.9125 10.8528 23.3968 10.1731 22.2171C9.50123 21.0531 7.99341 20.6234 6.7981 21.3109C5.61841 21.9906 5.21216 23.5062 5.89185 24.6859C6.57154 25.8656 8.08716 26.2718 9.26685 25.5921ZM7.57935 22.6625C8.01685 22.4125 8.57154 22.5687 8.82154 22.9984C9.07154 23.4281 8.9231 23.9906 8.4856 24.2406C8.06373 24.4828 7.49341 24.35 7.24341 23.9046C6.99341 23.475 7.14185 22.9125 7.57935 22.6625Z" fill="white"/>
<path d="M15.7903 23.7171C14.6106 24.3968 14.2044 25.9125 14.884 27.0921C15.5637 28.2718 17.0794 28.6781 18.259 27.9984C19.4309 27.3187 19.8528 25.8031 19.1653 24.6234C18.4934 23.4593 16.9856 23.0296 15.7903 23.7171ZM17.4778 26.6468C17.0559 26.889 16.4778 26.7328 16.2356 26.3109C15.9856 25.8812 16.1419 25.3109 16.5715 25.0687C17.0169 24.8109 17.5637 24.975 17.8137 25.4046C18.0637 25.8343 17.9153 26.3968 17.4778 26.6468Z" fill="white"/>
<path d="M11.6809 16.5919C12.845 15.92 13.2747 14.4122 12.5872 13.2169C11.9153 12.045 10.3997 11.6231 9.21216 12.3106C8.03248 12.9903 7.62623 14.5137 8.30591 15.6856C8.9856 16.8653 10.509 17.2716 11.6809 16.5919ZM9.99342 13.6622C10.4309 13.4044 10.9856 13.5684 11.2356 13.9903C11.4856 14.4278 11.3372 14.9825 10.8997 15.2325C10.47 15.4747 9.90748 15.3341 9.65748 14.8966C9.40748 14.4669 9.55592 13.9044 9.99342 13.6544V13.6622Z" fill="white"/>
</svg>
