<svg width="31" height="32" viewBox="0 0 31 32" fill="none" xmlns="http://www.w3.org/2000/svg">
<path d="M24.4808 31.5767H6.01927C4.48918 31.5767 3.02175 30.9689 1.93981 29.8869C0.857872 28.805 0.250044 27.3376 0.250044 25.8075C0.248843 25.6698 0.27229 25.533 0.319275 25.4036C1.42812 22.4786 3.39812 19.9587 5.9691 18.1767C8.54009 16.3947 11.5911 15.4345 14.7193 15.4229H15.7808C18.9089 15.4345 21.96 16.3947 24.531 18.1767C27.102 19.9587 29.072 22.4786 30.1808 25.4036C30.2278 25.533 30.2512 25.6698 30.25 25.8075C30.25 27.3376 29.6422 28.805 28.5603 29.8869C27.4783 30.9689 26.0109 31.5767 24.4808 31.5767ZM2.55774 26.0036C2.60789 26.8873 2.99461 27.7181 3.63842 28.3254C4.28223 28.9328 5.13421 29.2704 6.01927 29.269H24.4808C25.3659 29.2704 26.2179 28.9328 26.8617 28.3254C27.5055 27.7181 27.8922 26.8873 27.9423 26.0036C26.9713 23.5691 25.2945 21.4806 23.1273 20.0064C20.9602 18.5322 18.4018 17.7396 15.7808 17.7305H14.7193C12.0983 17.7396 9.53986 18.5322 7.37274 20.0064C5.20562 21.4806 3.52881 23.5691 2.55774 26.0036Z" fill="white"/>
<path d="M15.2502 14.269C13.881 14.269 12.5425 13.863 11.404 13.1023C10.2655 12.3415 9.37813 11.2603 8.85414 9.99527C8.33015 8.73025 8.19305 7.33825 8.46018 5.9953C8.7273 4.65236 9.38666 3.41879 10.3549 2.45058C11.3231 1.48237 12.5567 0.823008 13.8996 0.55588C15.2425 0.288751 16.6345 0.425851 17.8996 0.949842C19.1646 1.47383 20.2458 2.36118 21.0065 3.49968C21.7673 4.63817 22.1733 5.97667 22.1733 7.34593C22.1733 9.18204 21.4439 10.943 20.1456 12.2413C18.8472 13.5396 17.0863 14.269 15.2502 14.269ZM15.2502 2.73055C14.3374 2.73055 13.4451 3.00123 12.6861 3.50838C11.9271 4.01552 11.3355 4.73635 10.9862 5.5797C10.6368 6.42305 10.5454 7.35105 10.7235 8.24635C10.9016 9.14164 11.3412 9.96402 11.9867 10.6095C12.6321 11.255 13.4545 11.6945 14.3498 11.8726C15.2451 12.0507 16.1731 11.9593 17.0165 11.61C17.8598 11.2607 18.5806 10.6691 19.0878 9.9101C19.5949 9.1511 19.8656 8.25877 19.8656 7.34593C19.8656 6.12185 19.3793 4.94791 18.5138 4.08236C17.6482 3.21681 16.4743 2.73055 15.2502 2.73055Z" fill="white"/>
<path d="M24.4808 31.5767H6.01927C4.48918 31.5767 3.02175 30.9689 1.93981 29.8869C0.857872 28.805 0.250044 27.3376 0.250044 25.8075C0.248843 25.6698 0.27229 25.533 0.319275 25.4036C1.42812 22.4786 3.39812 19.9587 5.9691 18.1767C8.54009 16.3947 11.5911 15.4345 14.7193 15.4229H15.7808C18.9089 15.4345 21.96 16.3947 24.531 18.1767C27.102 19.9587 29.072 22.4786 30.1808 25.4036C30.2278 25.533 30.2512 25.6698 30.25 25.8075C30.25 27.3376 29.6422 28.805 28.5603 29.8869C27.4783 30.9689 26.0109 31.5767 24.4808 31.5767ZM2.55774 26.0036C2.60789 26.8873 2.99461 27.7181 3.63842 28.3254C4.28223 28.9328 5.13421 29.2704 6.01927 29.269H24.4808C25.3659 29.2704 26.2179 28.9328 26.8617 28.3254C27.5055 27.7181 27.8922 26.8873 27.9423 26.0036C26.9713 23.5691 25.2945 21.4806 23.1273 20.0064C20.9602 18.5322 18.4018 17.7396 15.7808 17.7305H14.7193C12.0983 17.7396 9.53986 18.5322 7.37274 20.0064C5.20562 21.4806 3.52881 23.5691 2.55774 26.0036Z" fill="white"/>
</svg>
