<svg width="33" height="33" viewBox="0 0 33 33" fill="none" xmlns="http://www.w3.org/2000/svg">
<path d="M24.4281 15.167C25.204 22.3343 28.25 24.5003 28.25 24.5003H4.25C4.25 24.5003 8.25 21.6559 8.25 11.7003C8.25 9.43714 9.09285 7.26666 10.5931 5.66635C12.0934 4.06603 14.1283 3.16699 16.25 3.16699C16.6997 3.16699 17.1456 3.20739 17.5833 3.28631" stroke="white" stroke-width="2" stroke-linecap="round" stroke-linejoin="round"/>
<path d="M25.5835 11.167C27.7927 11.167 29.5835 9.37613 29.5835 7.16699C29.5835 4.95786 27.7927 3.16699 25.5835 3.16699C23.3743 3.16699 21.5835 4.95786 21.5835 7.16699C21.5835 9.37613 23.3743 11.167 25.5835 11.167Z" stroke="#FDAC43" stroke-width="2" stroke-linecap="round" stroke-linejoin="round"/>
<path d="M18.5567 28.5C18.3223 28.9041 17.9859 29.2396 17.581 29.4727C17.1762 29.7059 16.7172 29.8287 16.25 29.8287C15.7828 29.8287 15.3239 29.7059 14.9191 29.4727C14.5143 29.2396 14.1778 28.9041 13.9434 28.5" stroke="white" stroke-width="2" stroke-linecap="round" stroke-linejoin="round"/>
</svg>
