<svg width="33" height="32" viewBox="0 0 33 32" fill="none" xmlns="http://www.w3.org/2000/svg">
<path d="M1.35537 19.056H3.96189V30.7474C3.96189 31.4363 4.46457 32 5.07896 32H12.7123C13.3267 32 13.8294 31.4363 13.8294 30.7474V22.1876H18.4838V30.7474C18.4838 31.4363 18.9865 32 19.6009 32H26.8618C27.4762 32 27.9789 31.4363 27.9789 30.7474V19.056H31.144C31.5908 19.056 32.0004 18.7428 32.1679 18.2836C32.3355 17.8243 32.2424 17.2814 31.9259 16.9265L17.3667 0.37075C16.9385 -0.109455 16.2311 -0.130308 15.8028 0.349897L0.592084 16.9056C0.256962 17.2606 0.163851 17.8033 0.331412 18.2836C0.498973 18.7637 0.908543 19.056 1.35537 19.056ZM16.5475 3.02215L28.4629 16.5507H26.8618C26.2474 16.5507 25.7447 17.1144 25.7447 17.8033V29.4947H20.7179V20.935C20.7179 20.246 20.2152 19.6823 19.6008 19.6823H12.7123C12.0979 19.6823 11.5952 20.246 11.5952 20.935V29.4947H6.19603V17.8033C6.19603 17.1144 5.69335 16.5507 5.07896 16.5507H4.11086L16.5475 3.02215Z" fill="white"/>
</svg>
