<svg width="25" height="23" viewBox="0 0 25 23" fill="none" xmlns="http://www.w3.org/2000/svg">
<path d="M6.75068 0.00617981C6.70408 0.0099144 6.55309 0.0267162 6.41515 0.0435181C3.64711 0.364624 1.37489 2.46115 0.821281 5.20362C0.573369 6.43577 0.696393 8.01703 1.14003 9.35373C1.60975 10.7595 2.39823 11.9879 3.74404 13.4086C4.38153 14.0807 4.92582 14.5848 6.70408 16.153C7.13466 16.532 7.61371 16.9557 7.76656 17.0958C9.6753 18.8133 11.0006 20.2545 12.1395 21.8507L12.3818 22.1924H12.6279L12.8739 22.1905L13.1162 21.8321C14.1545 20.2975 15.3754 18.9197 17.1891 17.2376C17.5451 16.9053 17.9496 16.5413 19.1034 15.5145C20.8854 13.9239 21.7969 13.0072 22.5351 12.0607C23.7336 10.5205 24.3394 9.0681 24.5184 7.29455C24.5538 6.92863 24.55 6.05306 24.509 5.73569C24.3133 4.23284 23.687 2.94094 22.6488 1.90108C21.6105 0.861219 20.3188 0.232075 18.8201 0.0379181C18.4603 -0.00688744 17.6775 -0.00688744 17.3103 0.0379181C15.9439 0.211538 14.7398 0.760406 13.7314 1.66959C13.3753 1.99069 12.9746 2.44808 12.7341 2.80839C12.6782 2.8924 12.6279 2.96148 12.6223 2.96148C12.6167 2.96148 12.5664 2.8924 12.5104 2.80839C12.27 2.44808 11.8692 1.99069 11.5132 1.66959C10.5234 0.777208 9.33232 0.226475 8.01261 0.0509853C7.74046 0.0136471 6.96504 -0.0124893 6.75068 0.00617981Z" fill="#881717"/>
</svg>
