<svg width="110" height="51" viewBox="0 0 110 51" fill="none" xmlns="http://www.w3.org/2000/svg">
<path d="M1.31177 50.9113C1.05014 50.9373 0.780307 50.8807 0.542709 50.7256C-0.00911894 50.3693 -0.166276 49.6341 0.193565 49.0858C11.4565 31.9071 28.365 18.6663 47.8094 11.7878C67.2538 4.90925 88.7832 4.56898 108.421 10.8165C109.048 11.0165 109.396 11.685 109.194 12.307C108.992 12.9289 108.318 13.276 107.691 13.076C88.5487 6.98181 67.5656 7.32141 48.6137 14.0199C29.6624 20.7242 13.1771 33.6311 2.2013 50.376C1.9922 50.6888 1.66258 50.8765 1.3177 50.9107L1.31177 50.9113Z" fill="white"/>
<path d="M108.582 13.2795C108.285 13.309 107.976 13.2265 107.723 13.0312C106.831 12.3333 106.244 11.4441 105.679 10.5886C105.502 10.3202 105.324 10.0458 105.136 9.78443C104.641 9.09471 104.035 8.43393 103.455 7.79439L98.1701 1.98537C97.7255 1.49922 97.7652 0.750418 98.2557 0.30838C98.7461 -0.133659 99.5005 -0.0954226 99.9452 0.390726L105.23 6.19974C105.857 6.88825 106.511 7.60391 107.083 8.40513C107.292 8.69423 107.489 8.99042 107.681 9.28719C108.161 10.0141 108.615 10.7079 109.201 11.1681C109.722 11.5752 109.808 12.3175 109.397 12.835C109.189 13.1 108.885 13.2493 108.576 13.2801L108.582 13.2795Z" fill="white"/>
<path d="M96.9891 21.8208C96.7869 21.8409 96.5801 21.8138 96.3852 21.7259C95.7821 21.4581 95.5143 20.7577 95.7791 20.1593C96.3743 18.8369 97.4897 17.9156 98.483 17.1554C101.475 14.8738 104.719 12.9007 108.12 11.2875C108.717 11.0077 109.426 11.253 109.712 11.8443C109.999 12.4355 109.746 13.1459 109.149 13.4257C105.898 14.9704 102.801 16.8574 99.937 19.037C99.1389 19.6466 98.3282 20.3112 97.9585 21.1226C97.7767 21.528 97.3994 21.78 96.9832 21.8214L96.9891 21.8208Z" fill="white"/>
</svg>
