<svg width="42" height="115" viewBox="0 0 42 115" fill="none" xmlns="http://www.w3.org/2000/svg">
<path d="M42 1.21529C42 0.947725 41.915 0.680156 41.7327 0.455155C41.3136 -0.0678206 40.5482 -0.152973 40.0258 0.266623C23.6556 13.4018 11.8714 31.858 6.82973 52.2419C1.78805 72.6258 3.62249 94.463 11.9807 113.722C12.248 114.336 12.9648 114.622 13.5783 114.354C14.1918 114.087 14.4773 113.369 14.21 112.755C6.05829 93.9827 4.27851 72.6987 9.18656 52.8317C14.1007 32.9648 25.5872 14.9708 41.5444 2.17001C41.8421 1.92677 42 1.57407 42 1.22136V1.21529Z" fill="white"/>
<path d="M14.5077 113.637C14.5077 113.333 14.3922 113.029 14.1675 112.792C13.3657 111.958 12.3999 111.454 11.4705 110.967C11.1789 110.815 10.8813 110.663 10.5958 110.499C9.84258 110.067 9.10759 109.52 8.3969 108.997L1.9399 104.229C1.39929 103.828 0.639999 103.944 0.239095 104.485C-0.16181 105.026 -0.0463992 105.786 0.494215 106.187L6.95121 110.955C7.71657 111.521 8.51231 112.11 9.38701 112.609C9.70287 112.792 10.0248 112.962 10.3467 113.126C11.1364 113.54 11.8896 113.929 12.4181 114.476C12.8858 114.962 13.6512 114.975 14.1371 114.506C14.3862 114.269 14.5077 113.947 14.5077 113.631V113.637Z" fill="white"/>
<path d="M22.0398 101.037C22.0398 100.83 21.9912 100.623 21.8819 100.435C21.5478 99.8509 20.8067 99.6502 20.2236 99.9786C18.9358 100.714 18.1097 101.937 17.4355 103.019C15.4127 106.279 13.7301 109.763 12.4302 113.369C12.2055 114.002 12.5274 114.695 13.1592 114.926C13.7909 115.157 14.4894 114.829 14.7142 114.196C15.9594 110.748 17.5691 107.422 19.5007 104.302C20.0414 103.433 20.6366 102.545 21.4263 102.089C21.8211 101.864 22.0398 101.456 22.0398 101.031V101.037Z" fill="white"/>
</svg>
