<svg width="148" height="221" viewBox="0 0 148 221" fill="none" xmlns="http://www.w3.org/2000/svg">
<mask id="path-1-inside-1_376_3401" fill="white">
<path d="M148 64.2937C148 71.1842 143.066 76.9225 137.312 80.7145C127.71 87.0435 121.359 98.0189 121.359 110.5C121.359 122.981 127.71 133.956 137.312 140.285C143.066 144.077 148 149.815 148 156.705V205.336C148 213.62 141.284 220.336 133 220.336H15C6.71573 220.336 0 213.62 0 205.336V15C0 6.71573 6.71573 0 15 0H133C141.284 0 148 6.71573 148 15V64.2937Z"/>
</mask>
<path d="M137.312 140.285L136.762 141.12L137.312 140.285ZM121.359 110.5H122.359C122.359 109.054 122.447 107.629 122.617 106.23L121.624 106.109L120.632 105.989C120.452 107.467 120.359 108.973 120.359 110.5H121.359ZM123.746 97.5905L124.679 97.9498C125.714 95.262 127.072 92.7381 128.704 90.427L127.888 89.8501L127.071 89.2731C125.344 91.7177 123.908 94.3876 122.813 97.2311L123.746 97.5905ZM133.799 83.36L134.449 84.1197C135.532 83.1934 136.672 82.3346 137.863 81.5494L137.312 80.7145L136.762 79.8795C135.501 80.7108 134.294 81.62 133.149 82.6002L133.799 83.36ZM137.312 80.7145L137.863 81.5494C139.314 80.5928 140.719 79.5132 142.014 78.3211L141.337 77.5854L140.659 76.8497C139.451 77.9621 138.132 78.9763 136.762 79.8795L137.312 80.7145ZM147.117 69.2943L148.059 69.6308C148.661 67.9465 149 66.1617 149 64.2937H148H147C147 65.9158 146.706 67.4734 146.176 68.9579L147.117 69.2943ZM148 64.2937H149V58.132H148H147V64.2937H148ZM148 45.8086H149V33.4851H148H147V45.8086H148ZM148 21.1617H149V15H148H147V21.1617H148ZM148 15H149C149 12.8324 148.568 10.763 147.786 8.87513L146.862 9.25818L145.938 9.64124C146.622 11.2906 147 13.0999 147 15H148ZM138.742 1.13821L139.125 0.214483C137.237 -0.568403 135.168 -1 133 -1V0V1C134.9 1 136.709 1.37799 138.359 2.06193L138.742 1.13821ZM133 0V-1H128.083V0V1H133V0ZM118.25 0V-1H108.417V0V1H118.25V0ZM98.5833 0V-1H88.75V0V1H98.5833V0ZM78.9167 0V-1H69.0833V0V1H78.9167V0ZM59.25 0V-1H49.4167V0V1H59.25V0ZM39.5833 0V-1H29.75V0V1H39.5833V0ZM19.9167 0V-1H15V0V1H19.9167V0ZM15 0V-1C12.8324 -1 10.763 -0.568403 8.87513 0.214482L9.25818 1.13821L9.64124 2.06193C11.2906 1.37799 13.0999 1 15 1V0ZM1.13821 9.25818L0.214483 8.87513C-0.568403 10.763 -1 12.8324 -1 15H0H1C1 13.0999 1.37799 11.2906 2.06193 9.64123L1.13821 9.25818ZM0 15H-1V19.7584H0H1V15H0ZM0 29.2752H-1V38.792H0H1V29.2752H0ZM0 48.3088H-1V57.8256H0H1V48.3088H0ZM0 67.3424H-1V76.8592H0H1V67.3424H0ZM0 86.376H-1V95.8928H0H1V86.376H0ZM0 105.41H-1V114.926H0H1V105.41H0ZM0 124.443H-1V133.96H0H1V124.443H0ZM0 143.477H-1V152.994H0H1V143.477H0ZM0 162.51H-1V172.027H0H1V162.51H0ZM0 181.544H-1V191.061H0H1V181.544H0ZM0 200.578H-1V205.336H0H1V200.578H0ZM0 205.336H-1C-1 207.504 -0.568403 209.573 0.214483 211.461L1.13821 211.078L2.06193 210.695C1.37799 209.045 1 207.236 1 205.336H0ZM9.25818 219.198L8.87513 220.121C10.763 220.904 12.8324 221.336 15 221.336V220.336V219.336C13.0999 219.336 11.2906 218.958 9.64124 218.274L9.25818 219.198ZM15 220.336V221.336H19.9167V220.336V219.336H15V220.336ZM29.75 220.336V221.336H39.5833V220.336V219.336H29.75V220.336ZM49.4167 220.336V221.336H59.25V220.336V219.336H49.4167V220.336ZM69.0833 220.336V221.336H78.9167V220.336V219.336H69.0833V220.336ZM88.75 220.336V221.336H98.5833V220.336V219.336H88.75V220.336ZM108.417 220.336V221.336H118.25V220.336V219.336H108.417V220.336ZM128.083 220.336V221.336H133V220.336V219.336H128.083V220.336ZM133 220.336V221.336C135.168 221.336 137.237 220.904 139.125 220.121L138.742 219.198L138.359 218.274C136.709 218.958 134.9 219.336 133 219.336V220.336ZM146.862 211.078L147.786 211.461C148.568 209.573 149 207.504 149 205.336H148H147C147 207.236 146.622 209.045 145.938 210.695L146.862 211.078ZM148 205.336H149V199.257H148H147V205.336H148ZM148 187.099H149V174.942H148H147V187.099H148ZM148 162.784H149V156.705H148H147V162.784H148ZM148 156.705H149C149 154.837 148.661 153.052 148.059 151.368L147.117 151.705L146.176 152.041C146.706 153.526 147 155.083 147 156.705H148ZM141.337 143.414L142.014 142.678C140.719 141.486 139.314 140.406 137.863 139.45L137.312 140.285L136.762 141.12C138.132 142.023 139.451 143.037 140.659 144.149L141.337 143.414ZM137.312 140.285L137.863 139.45C136.672 138.665 135.532 137.806 134.45 136.88L133.799 137.639L133.149 138.399C134.294 139.379 135.501 140.288 136.762 141.12L137.312 140.285ZM127.888 131.149L128.704 130.572C127.072 128.262 125.714 125.738 124.679 123.05L123.746 123.409L122.813 123.769C123.908 126.612 125.344 129.282 127.071 131.726L127.888 131.149ZM121.624 114.891L122.617 114.77C122.447 113.371 122.359 111.946 122.359 110.5H121.359H120.359C120.359 112.027 120.452 113.533 120.632 115.011L121.624 114.891ZM137.312 140.285L136.212 141.955L137.312 140.285ZM121.359 110.5H123.359C123.359 109.094 123.445 107.71 123.61 106.351L121.624 106.109L119.639 105.868C119.454 107.387 119.359 108.932 119.359 110.5H121.359ZM123.746 97.5905L125.612 98.3092C126.617 95.6992 127.936 93.2482 129.521 91.004L127.888 89.8501L126.254 88.6962C124.48 91.2075 123.004 93.9504 121.879 96.8717L123.746 97.5905ZM133.799 83.36L135.1 84.8794C136.15 83.9801 137.257 83.1464 138.413 82.3844L137.312 80.7145L136.212 79.0446C134.915 79.899 133.676 80.8333 132.499 81.8405L133.799 83.36ZM137.312 80.7145L138.413 82.3844C139.905 81.4011 141.353 80.2888 142.691 79.0568L141.337 77.5854L139.982 76.114C138.817 77.1865 137.542 78.1681 136.212 79.0446L137.312 80.7145ZM147.117 69.2943L149.001 69.9673C149.638 68.1831 150 66.2847 150 64.2937H148H146C146 65.7928 145.729 67.2368 145.234 68.6214L147.117 69.2943ZM148 64.2937H150V58.132H148H146V64.2937H148ZM148 45.8086H150V33.4851H148H146V45.8086H148ZM148 21.1617H150V15H148H146V21.1617H148ZM148 15H150C150 12.6986 149.542 10.4993 148.709 8.49207L146.862 9.25818L145.014 10.0243C145.649 11.5543 146 13.2336 146 15H148ZM138.742 1.13821L139.508 -0.709243C137.501 -1.5416 135.301 -2 133 -2V0V2C134.766 2 136.446 2.35118 137.976 2.98566L138.742 1.13821ZM133 0V-2H128.083V0V2H133V0ZM118.25 0V-2H108.417V0V2H118.25V0ZM98.5833 0V-2H88.75V0V2H98.5833V0ZM78.9167 0V-2H69.0833V0V2H78.9167V0ZM59.25 0V-2H49.4167V0V2H59.25V0ZM39.5833 0V-2H29.75V0V2H39.5833V0ZM19.9167 0V-2H15V0V2H19.9167V0ZM15 0V-2C12.6986 -2 10.4993 -1.5416 8.49207 -0.709244L9.25818 1.13821L10.0243 2.98566C11.5543 2.35118 13.2336 2 15 2V0ZM1.13821 9.25818L-0.709243 8.49207C-1.5416 10.4993 -2 12.6986 -2 15H0H2C2 13.2336 2.35118 11.5543 2.98566 10.0243L1.13821 9.25818ZM0 15H-2V19.7584H0H2V15H0ZM0 29.2752H-2V38.792H0H2V29.2752H0ZM0 48.3088H-2V57.8256H0H2V48.3088H0ZM0 67.3424H-2V76.8592H0H2V67.3424H0ZM0 86.376H-2V95.8928H0H2V86.376H0ZM0 105.41H-2V114.926H0H2V105.41H0ZM0 124.443H-2V133.96H0H2V124.443H0ZM0 143.477H-2V152.994H0H2V143.477H0ZM0 162.51H-2V172.027H0H2V162.51H0ZM0 181.544H-2V191.061H0H2V181.544H0ZM0 200.578H-2V205.336H0H2V200.578H0ZM0 205.336H-2C-2 207.637 -1.5416 209.837 -0.709243 211.844L1.13821 211.078L2.98566 210.312C2.35118 208.782 2 207.102 2 205.336H0ZM9.25818 219.198L8.49208 221.045C10.4993 221.878 12.6986 222.336 15 222.336V220.336V218.336C13.2336 218.336 11.5543 217.985 10.0243 217.35L9.25818 219.198ZM15 220.336V222.336H19.9167V220.336V218.336H15V220.336ZM29.75 220.336V222.336H39.5833V220.336V218.336H29.75V220.336ZM49.4167 220.336V222.336H59.25V220.336V218.336H49.4167V220.336ZM69.0833 220.336V222.336H78.9167V220.336V218.336H69.0833V220.336ZM88.75 220.336V222.336H98.5833V220.336V218.336H88.75V220.336ZM108.417 220.336V222.336H118.25V220.336V218.336H108.417V220.336ZM128.083 220.336V222.336H133V220.336V218.336H128.083V220.336ZM133 220.336V222.336C135.301 222.336 137.501 221.878 139.508 221.045L138.742 219.198L137.976 217.35C136.446 217.985 134.766 218.336 133 218.336V220.336ZM146.862 211.078L148.709 211.844C149.542 209.837 150 207.637 150 205.336H148H146C146 207.102 145.649 208.782 145.014 210.312L146.862 211.078ZM148 205.336H150V199.257H148H146V205.336H148ZM148 187.099H150V174.942H148H146V187.099H148ZM148 162.784H150V156.705H148H146V162.784H148ZM148 156.705H150C150 154.714 149.638 152.816 149.001 151.032L147.117 151.705L145.234 152.378C145.729 153.762 146 155.206 146 156.705H148ZM141.337 143.414L142.691 141.942C141.353 140.71 139.905 139.598 138.413 138.615L137.312 140.285L136.212 141.955C137.542 142.831 138.817 143.813 139.982 144.885L141.337 143.414ZM137.312 140.285L138.413 138.615C137.257 137.853 136.15 137.019 135.1 136.12L133.799 137.639L132.499 139.159C133.676 140.166 134.916 141.1 136.212 141.955L137.312 140.285ZM127.888 131.149L129.521 129.995C127.936 127.751 126.617 125.3 125.612 122.69L123.746 123.409L121.879 124.128C123.004 127.049 124.48 129.792 126.254 132.303L127.888 131.149ZM121.624 114.891L123.61 114.649C123.445 113.29 123.359 111.906 123.359 110.5H121.359H119.359C119.359 112.068 119.454 113.613 119.639 115.132L121.624 114.891Z" fill="#262060" mask="url(#path-1-inside-1_376_3401)"/>
<path fill-rule="evenodd" clip-rule="evenodd" d="M72.4375 88.125C73.3004 88.125 74 88.8246 74 89.6875V106.875H91.1875C92.0504 106.875 92.75 107.575 92.75 108.437C92.75 109.3 92.0504 110 91.1875 110H74V127.188C74 128.05 73.3004 128.75 72.4375 128.75C71.5746 128.75 70.875 128.05 70.875 127.188V110H53.6875C52.8246 110 52.125 109.3 52.125 108.437C52.125 107.575 52.8246 106.875 53.6875 106.875H70.875V89.6875C70.875 88.8246 71.5746 88.125 72.4375 88.125Z" fill="#262060"/>
<path d="M139.088 114.392C139.258 114.563 139.522 114.586 139.717 114.459L139.795 114.395L144.167 110.062L139.831 105.688C139.637 105.492 139.32 105.49 139.124 105.685C138.928 105.879 138.927 106.196 139.121 106.392L142.255 109.553L132.655 109.508C132.379 109.507 132.154 109.73 132.153 110.006C132.152 110.282 132.375 110.507 132.651 110.508L142.251 110.553L139.091 113.685L139.027 113.763C138.898 113.956 138.919 114.22 139.088 114.392Z" fill="#2D2D2D"/>
</svg>
