<svg width="33" height="32" viewBox="0 0 33 32" fill="none" xmlns="http://www.w3.org/2000/svg">
<mask id="path-1-inside-1_3188_289643" fill="white">
<path d="M26.5581 12.8C32.3485 9.8 32.8889 4.73334 32.8889 4.46662C32.8889 2.53328 31.1132 0.999969 28.8743 0.999969C28.2567 0.999969 27.639 1.13328 27.0987 1.4V0H5.79024V1.4C5.24985 1.13339 4.63221 0.999969 4.01458 0.999969C1.77566 0.999969 0 2.53328 0 4.53333C0 4.73334 0.540385 9.8 6.33075 12.8C7.33439 15.3334 9.65056 17.3333 12.5071 18.2V21.6667H7.18002L4.86384 32H28.1023L25.709 21.7333H20.3819V18.2666C23.2383 17.3335 25.5545 15.3334 26.5581 12.8ZM27.0985 3.00002C27.5618 2.59999 28.1794 2.33337 28.8742 2.33337C30.2638 2.33337 31.3447 3.26674 31.3447 4.40002C31.3447 4.46673 30.9587 8.13339 27.0213 10.8667C27.0213 10.5334 27.0985 10.2666 27.0985 9.93331V3.00002ZM1.5439 4.46673C1.5439 3.26674 2.6248 2.33337 4.01445 2.33337C4.70934 2.33337 5.32698 2.53339 5.79011 3.00002V10C5.79011 10.3333 5.79011 10.6001 5.86736 10.9334C2.00716 8.2667 1.5439 4.60003 1.5439 4.46673ZM7.33426 9.93342V1.33329H25.5545V9.93342C25.5545 14.0668 21.6943 17.4002 16.9076 17.4002H15.9811C11.1945 17.4001 7.33426 14.0667 7.33426 9.93342ZM20.3818 23.0668H24.3963L26.172 30.6668H6.71663L8.49229 23.0668H12.5069H20.3818ZM17.2936 18.7335C17.7568 18.7335 18.2972 18.6667 18.7605 18.6002V21.6669H14.051V18.6669C14.5914 18.7336 15.0547 18.8002 15.5179 18.8002H15.9039H16.8305H17.2937L17.2936 18.7335Z"/>
</mask>
<path d="M26.5581 12.8C32.3485 9.8 32.8889 4.73334 32.8889 4.46662C32.8889 2.53328 31.1132 0.999969 28.8743 0.999969C28.2567 0.999969 27.639 1.13328 27.0987 1.4V0H5.79024V1.4C5.24985 1.13339 4.63221 0.999969 4.01458 0.999969C1.77566 0.999969 0 2.53328 0 4.53333C0 4.73334 0.540385 9.8 6.33075 12.8C7.33439 15.3334 9.65056 17.3333 12.5071 18.2V21.6667H7.18002L4.86384 32H28.1023L25.709 21.7333H20.3819V18.2666C23.2383 17.3335 25.5545 15.3334 26.5581 12.8ZM27.0985 3.00002C27.5618 2.59999 28.1794 2.33337 28.8742 2.33337C30.2638 2.33337 31.3447 3.26674 31.3447 4.40002C31.3447 4.46673 30.9587 8.13339 27.0213 10.8667C27.0213 10.5334 27.0985 10.2666 27.0985 9.93331V3.00002ZM1.5439 4.46673C1.5439 3.26674 2.6248 2.33337 4.01445 2.33337C4.70934 2.33337 5.32698 2.53339 5.79011 3.00002V10C5.79011 10.3333 5.79011 10.6001 5.86736 10.9334C2.00716 8.2667 1.5439 4.60003 1.5439 4.46673ZM7.33426 9.93342V1.33329H25.5545V9.93342C25.5545 14.0668 21.6943 17.4002 16.9076 17.4002H15.9811C11.1945 17.4001 7.33426 14.0667 7.33426 9.93342ZM20.3818 23.0668H24.3963L26.172 30.6668H6.71663L8.49229 23.0668H12.5069H20.3818ZM17.2936 18.7335C17.7568 18.7335 18.2972 18.6667 18.7605 18.6002V21.6669H14.051V18.6669C14.5914 18.7336 15.0547 18.8002 15.5179 18.8002H15.9039H16.8305H17.2937L17.2936 18.7335Z" fill="white"/>
<path d="M26.5581 12.8L25.6381 11.0242L24.9741 11.3682L24.6987 12.0634L26.5581 12.8ZM27.0987 1.4H25.0987V4.61753L27.9839 3.19343L27.0987 1.4ZM27.0987 0H29.0987V-2H27.0987V0ZM5.79024 0V-2H3.79024V0H5.79024ZM5.79024 1.4L4.90532 3.19358L7.79024 4.61694V1.4H5.79024ZM6.33075 12.8L8.19015 12.0634L7.91474 11.3682L7.2508 11.0242L6.33075 12.8ZM12.5071 18.2H14.5071V16.7168L13.0878 16.2862L12.5071 18.2ZM12.5071 21.6667V23.6667H14.5071V21.6667H12.5071ZM7.18002 21.6667V19.6667H5.57868L5.22844 21.2292L7.18002 21.6667ZM4.86384 32L2.91227 31.5626L2.36593 34H4.86384V32ZM28.1023 32V34H30.6221L30.0501 31.5459L28.1023 32ZM25.709 21.7333L27.6568 21.2792L27.2964 19.7333H25.709V21.7333ZM20.3819 21.7333H18.3819V23.7333H20.3819V21.7333ZM20.3819 18.2666L19.7608 16.3655L18.3819 16.816V18.2666H20.3819ZM27.0985 3.00002L25.7914 1.48628L25.0985 2.08458V3.00002H27.0985ZM27.0213 10.8667H25.0213V14.6897L28.1618 12.5096L27.0213 10.8667ZM5.79011 3.00002H7.79011V2.17599L7.20963 1.59113L5.79011 3.00002ZM5.86736 10.9334L4.7306 12.5789L8.98251 15.5162L7.81572 10.4818L5.86736 10.9334ZM7.33426 1.33329V-0.666708H5.33426V1.33329H7.33426ZM25.5545 1.33329H27.5545V-0.666708H25.5545V1.33329ZM15.9811 17.4002L15.981 19.4002H15.9811V17.4002ZM24.3963 23.0668L26.3439 22.6117L25.9829 21.0668H24.3963V23.0668ZM26.172 30.6668V32.6668H28.6931L28.1196 30.2118L26.172 30.6668ZM6.71663 30.6668L4.76908 30.2118L4.19549 32.6668H6.71663V30.6668ZM8.49229 23.0668V21.0668H6.9057L6.54474 22.6117L8.49229 23.0668ZM17.2936 18.7335V16.7335H15.2898L15.2936 18.7373L17.2936 18.7335ZM18.7605 18.6002H20.7605V16.2921L18.4759 16.6205L18.7605 18.6002ZM18.7605 21.6669V23.6669H20.7605V21.6669H18.7605ZM14.051 21.6669H12.051V23.6669H14.051V21.6669ZM14.051 18.6669L14.2961 16.6819L12.051 16.4048V18.6669H14.051ZM17.2937 18.8002V20.8002H19.2975L19.2937 18.7963L17.2937 18.8002ZM26.5581 12.8L27.4782 14.5758C34.1209 11.1342 34.8889 5.24071 34.8889 4.46662H32.8889H30.8889C30.8889 4.22597 30.5761 8.46582 25.6381 11.0242L26.5581 12.8ZM32.8889 4.46662H34.8889C34.8889 1.16331 31.9323 -1.00003 28.8743 -1.00003V0.999969V2.99997C30.2942 2.99997 30.8889 3.90324 30.8889 4.46662H32.8889ZM28.8743 0.999969V-1.00003C27.9776 -1.00003 27.0531 -0.807887 26.2134 -0.393433L27.0987 1.4L27.9839 3.19343C28.2249 3.07444 28.5358 2.99997 28.8743 2.99997V0.999969ZM27.0987 1.4H29.0987V0H27.0987H25.0987V1.4H27.0987ZM27.0987 0V-2H5.79024V0V2H27.0987V0ZM5.79024 0H3.79024V1.4H5.79024H7.79024V0H5.79024ZM5.79024 1.4L6.67515 -0.393579C5.83584 -0.807677 4.91155 -1.00003 4.01458 -1.00003V0.999969V2.99997C4.35288 2.99997 4.66387 3.07445 4.90532 3.19358L5.79024 1.4ZM4.01458 0.999969V-1.00003C0.93022 -1.00003 -2 1.18627 -2 4.53333H0H2C2 3.88028 2.6211 2.99997 4.01458 2.99997V0.999969ZM0 4.53333H-2C-2 4.98748 -1.77159 6.6161 -0.783829 8.53284C0.240196 10.52 2.10212 12.8616 5.41069 14.5758L6.33075 12.8L7.2508 11.0242C4.76901 9.73838 3.46556 8.04673 2.7718 6.7005C2.04178 5.28391 2 4.27919 2 4.53333H0ZM6.33075 12.8L4.47135 13.5367C5.72849 16.7099 8.56613 19.0944 11.9265 20.1139L12.5071 18.2L13.0878 16.2862C10.735 15.5723 8.94029 13.9569 8.19015 12.0634L6.33075 12.8ZM12.5071 18.2H10.5071V21.6667H12.5071H14.5071V18.2H12.5071ZM12.5071 21.6667V19.6667H7.18002V21.6667V23.6667H12.5071V21.6667ZM7.18002 21.6667L5.22844 21.2292L2.91227 31.5626L4.86384 32L6.81542 32.4374L9.13159 22.1041L7.18002 21.6667ZM4.86384 32V34H28.1023V32V30H4.86384V32ZM28.1023 32L30.0501 31.5459L27.6568 21.2792L25.709 21.7333L23.7612 22.1873L26.1545 32.454L28.1023 32ZM25.709 21.7333V19.7333H20.3819V21.7333V23.7333H25.709V21.7333ZM20.3819 21.7333H22.3819V18.2666H20.3819H18.3819V21.7333H20.3819ZM20.3819 18.2666L21.003 20.1677C24.3278 19.0816 27.1598 16.7114 28.4175 13.5367L26.5581 12.8L24.6987 12.0634C23.9492 13.9554 22.1489 15.5853 19.7608 16.3655L20.3819 18.2666ZM27.0985 3.00002L28.4057 4.51375C28.5401 4.39765 28.703 4.33337 28.8742 4.33337V2.33337V0.333371C27.6558 0.333371 26.5835 0.802319 25.7914 1.48628L27.0985 3.00002ZM28.8742 2.33337V4.33337C29.1253 4.33337 29.2784 4.41752 29.34 4.46956C29.3981 4.51868 29.3447 4.50128 29.3447 4.40002H31.3447H33.3447C33.3447 1.85916 31.0388 0.333371 28.8742 0.333371V2.33337ZM31.3447 4.40002H29.3447C29.3447 4.21991 29.3689 4.12545 29.3465 4.26331C29.3365 4.32463 29.3166 4.43131 29.2812 4.5749C29.2102 4.86257 29.079 5.2887 28.8459 5.79047C28.3834 6.78559 27.5159 8.0887 25.8808 9.22374L27.0213 10.8667L28.1618 12.5096C30.4641 10.9114 31.7584 9.0145 32.4732 7.4763C32.8287 6.7114 33.0402 6.03752 33.1646 5.53351C33.2269 5.28126 33.2679 5.06919 33.2944 4.90654C33.3085 4.82044 33.3447 4.59681 33.3447 4.40002H31.3447ZM27.0213 10.8667H29.0213C29.0213 10.8463 29.0227 10.8175 29.0435 10.6554C29.0613 10.5174 29.0985 10.2463 29.0985 9.93331H27.0985H25.0985C25.0985 9.95368 25.0971 9.98253 25.0763 10.1446C25.0585 10.2826 25.0213 10.5537 25.0213 10.8667H27.0213ZM27.0985 9.93331H29.0985V3.00002H27.0985H25.0985V9.93331H27.0985ZM1.5439 4.46673H3.5439C3.5439 4.47226 3.54156 4.48426 3.53742 4.49288C3.53447 4.49902 3.53862 4.48673 3.56519 4.46379C3.61979 4.41664 3.76395 4.33337 4.01445 4.33337V2.33337V0.333371C1.80577 0.333371 -0.456099 1.89678 -0.456099 4.46673H1.5439ZM4.01445 2.33337V4.33337C4.17247 4.33337 4.26429 4.3563 4.30822 4.37221C4.34497 4.38552 4.3587 4.39693 4.37058 4.4089L5.79011 3.00002L7.20963 1.59113C6.28053 0.655013 5.09853 0.333371 4.01445 0.333371V2.33337ZM5.79011 3.00002H3.79011V10H5.79011H7.79011V3.00002H5.79011ZM5.79011 10H3.79011C3.79011 10.3234 3.78391 10.8021 3.919 11.385L5.86736 10.9334L7.81572 10.4818C7.79631 10.3981 7.79011 10.3432 7.79011 10H5.79011ZM5.86736 10.9334L7.00412 9.28786C5.40941 8.18621 4.54014 6.89859 4.06645 5.8958C3.82797 5.39095 3.69007 4.95825 3.6138 4.66111C3.5757 4.51269 3.55388 4.40161 3.54276 4.33654C3.51982 4.20235 3.5439 4.28982 3.5439 4.46673H1.5439H-0.456099C-0.456099 4.67696 -0.417545 4.90817 -0.400067 5.01043C-0.370774 5.18182 -0.326241 5.39991 -0.260594 5.65564C-0.129375 6.16683 0.0898026 6.84246 0.449665 7.60428C1.17265 9.13482 2.46511 11.0139 4.7306 12.5789L5.86736 10.9334ZM7.33426 9.93342H9.33426V1.33329H7.33426H5.33426V9.93342H7.33426ZM7.33426 1.33329V3.33329H25.5545V1.33329V-0.666708H7.33426V1.33329ZM25.5545 1.33329H23.5545V9.93342H25.5545H27.5545V1.33329H25.5545ZM25.5545 9.93342H23.5545C23.5545 12.6969 20.8753 15.4002 16.9076 15.4002V17.4002V19.4002C22.5133 19.4002 27.5545 15.4368 27.5545 9.93342H25.5545ZM16.9076 17.4002V15.4002H15.9811V17.4002V19.4002H16.9076V17.4002ZM15.9811 17.4002L15.9811 15.4002C12.0135 15.4001 9.33426 12.6967 9.33426 9.93342H7.33426H5.33426C5.33426 15.4367 10.3754 19.4 15.981 19.4002L15.9811 17.4002ZM20.3818 23.0668V25.0668H24.3963V23.0668V21.0668H20.3818V23.0668ZM24.3963 23.0668L22.4488 23.5218L24.2245 31.1218L26.172 30.6668L28.1196 30.2118L26.3439 22.6117L24.3963 23.0668ZM26.172 30.6668V28.6668H6.71663V30.6668V32.6668H26.172V30.6668ZM6.71663 30.6668L8.66418 31.1218L10.4398 23.5218L8.49229 23.0668L6.54474 22.6117L4.76908 30.2118L6.71663 30.6668ZM8.49229 23.0668V25.0668H12.5069V23.0668V21.0668H8.49229V23.0668ZM12.5069 23.0668V25.0668H20.3818V23.0668V21.0668H12.5069V23.0668ZM17.2936 18.7335V20.7335C17.9121 20.7335 18.5759 20.6473 19.0451 20.5798L18.7605 18.6002L18.4759 16.6205C18.0186 16.6862 17.6015 16.7335 17.2936 16.7335V18.7335ZM18.7605 18.6002H16.7605V21.6669H18.7605H20.7605V18.6002H18.7605ZM18.7605 21.6669V19.6669H14.051V21.6669V23.6669H18.7605V21.6669ZM14.051 21.6669H16.051V18.6669H14.051H12.051V21.6669H14.051ZM14.051 18.6669L13.806 20.6518C14.2792 20.7102 14.8991 20.8002 15.5179 20.8002V18.8002V16.8002C15.2103 16.8002 14.9036 16.7569 14.2961 16.6819L14.051 18.6669ZM15.5179 18.8002V20.8002H15.9039V18.8002V16.8002H15.5179V18.8002ZM15.9039 18.8002V20.8002H16.8305V18.8002V16.8002H15.9039V18.8002ZM16.8305 18.8002V20.8002H17.2937V18.8002V16.8002H16.8305V18.8002ZM17.2937 18.8002L19.2937 18.7963L19.2936 18.7296L17.2936 18.7335L15.2936 18.7373L15.2937 18.804L17.2937 18.8002Z" fill="#262060" mask="url(#path-1-inside-1_3188_289643)"/>
</svg>
