<svg width="29" height="29" viewBox="0 0 29 29" fill="none" xmlns="http://www.w3.org/2000/svg">
<path d="M25.3742 13.2915H6.54145L12.9372 6.89578C13.409 6.42393 13.4087 5.65905 12.9372 5.1869C12.4653 4.71504 11.7004 4.71504 11.2283 5.1869L2.76994 13.6452C2.29809 14.1171 2.29809 14.8823 2.76964 15.3538L11.228 23.8121C11.4639 24.0481 11.7732 24.1662 12.0826 24.1662C12.3916 24.1662 12.7009 24.0481 12.9372 23.8118C13.409 23.3403 13.4087 22.5751 12.9372 22.1036L6.54115 15.7082H25.3742C26.0415 15.7082 26.5829 15.1668 26.5826 14.4998C26.5826 13.8325 26.0415 13.2915 25.3742 13.2915Z" fill="#262060"/>
</svg>
