<svg width="21" height="26" viewBox="0 0 21 26" fill="none" xmlns="http://www.w3.org/2000/svg">
<path d="M6.5752 8.26367H8.14517V20.8235H6.5752V8.26367Z" fill="#262060"/>
<path d="M9.71484 8.26367H11.2848V20.8235H9.71484V8.26367Z" fill="#262060"/>
<path d="M12.8545 8.26367H14.4245V20.8235H12.8545V8.26367Z" fill="#262060"/>
<path d="M0.294922 3.55469H20.7046V5.12466H0.294922V3.55469Z" fill="#262060"/>
<path d="M14.3722 4.3394H12.9069V2.76942C12.9069 2.29843 12.5405 1.93211 12.0695 1.93211H8.92958C8.45859 1.93211 8.09226 2.29843 8.09226 2.76942V4.3394H6.62695V2.76942C6.62695 1.51344 7.6736 0.466797 8.92958 0.466797H12.0695C13.3255 0.466797 14.3722 1.51344 14.3722 2.76942V4.3394Z" fill="#262060"/>
<path d="M15.21 25.5341H5.79017C4.53419 25.5341 3.43521 24.4874 3.33055 23.2315L1.86523 4.39177L3.43521 4.28711L4.90052 23.1268C4.95285 23.5978 5.37151 23.9641 5.79017 23.9641H15.21C15.681 23.9641 16.0997 23.5455 16.0997 23.1268L17.565 4.28711L19.135 4.39177L17.6696 23.2315C17.565 24.5398 16.466 25.5341 15.21 25.5341Z" fill="#262060"/>
</svg>
