<svg width="44" height="39" viewBox="0 0 44 39" fill="none" xmlns="http://www.w3.org/2000/svg">
<path d="M32.3965 1C37.8191 1.00003 42.2078 5.38974 42.208 10.7988C42.208 15.8155 39.7162 19.8144 35.7305 23.9814C33.7361 26.0665 31.4024 28.1585 28.8643 30.4277C26.554 32.4932 24.0841 34.6991 21.5986 37.1406C19.113 34.6991 16.6434 32.4933 14.334 30.4277C11.797 28.1586 9.46546 26.0664 7.47266 23.9814C3.48999 19.8146 1 15.816 1 10.7988C1.00022 5.3891 5.38996 1.00017 10.7988 1C13.3117 1 15.1052 1.62117 16.5859 2.80566C18.1025 4.01887 19.3744 5.88799 20.7041 8.54688L21.5986 10.335L22.4932 8.5459C23.8222 5.88736 25.0931 4.01878 26.6094 2.80566C28.09 1.62105 29.8834 1 32.3965 1Z" stroke="#262060" stroke-width="2"/>
</svg>
