<svg width="35" height="35" viewBox="0 0 35 35" fill="none" xmlns="http://www.w3.org/2000/svg">
<g clip-path="url(#clip0_3192_6795)">
<path d="M9.7274 5.431C9.7274 3.13793 11.6584 1.20683 13.9516 1.20683C16.2447 1.20683 18.1757 3.13787 18.1757 5.431V8.81031C18.8999 7.8448 19.3826 6.6379 19.3826 5.431C19.3825 2.41379 16.9687 0 13.9515 0C10.9343 0 8.52051 2.41379 8.52051 5.431C8.52051 6.75862 9.00327 7.96552 9.7274 8.81031V5.431Z" fill="white"/>
<path d="M28.4342 14.483C27.7101 14.483 27.1067 14.7244 26.6238 15.0864C26.6238 13.3968 25.2963 12.0692 23.6066 12.0692C22.8825 12.0692 22.1584 12.3106 21.5549 12.7934C21.0722 11.5865 19.9859 10.8623 18.779 10.8623C18.0549 10.8623 17.4515 11.1037 16.9687 11.4658V5.43127C16.9687 3.74162 15.6411 2.41406 13.9515 2.41406C12.2618 2.41406 10.9343 3.74168 10.9343 5.43127V16.1726C8.52046 14.0002 5.86529 12.3105 4.17563 14.0002C1.76184 16.414 6.8308 21.1209 10.6929 28.2416C13.4688 33.1898 17.3308 35.0002 21.1928 35.0002C26.8653 35.0002 31.4514 30.414 31.4514 24.7416V17.5002C31.4514 15.8106 30.1239 14.483 28.4342 14.483ZM30.2445 20.1555V24.7417C30.2445 29.4486 26.1411 33.7934 21.1928 33.7934C16.6066 33.7934 13.9514 31.259 11.779 27.759C7.19278 19.7934 3.81347 16.1727 5.02036 14.8451C6.34792 13.5176 9.60657 16.4141 12.141 19.0693V5.43127C12.141 4.46575 12.9858 3.6209 13.9514 3.6209C14.9169 3.6209 15.7618 4.46575 15.7618 5.43127V18.1037H16.9687V13.8795C16.9687 12.914 17.8135 12.0691 18.779 12.0691C19.7446 12.0691 20.5894 12.914 20.5894 13.8795V16.8967H21.7963V15.0863C21.7963 14.1208 22.6412 13.2759 23.6067 13.2759C24.5723 13.2759 25.4171 14.1208 25.4171 15.0863V18.1035H26.624V17.5001C26.624 16.5346 27.4688 15.6897 28.4343 15.6897C29.3999 15.6897 30.2447 16.5346 30.2447 17.5001V20.1555H30.2445Z" fill="white"/>
</g>
<defs>
<clipPath id="clip0_3192_6795">
<rect width="35" height="35" fill="white"/>
</clipPath>
</defs>
</svg>
