<svg width="23" height="20" viewBox="0 0 23 20" fill="none" xmlns="http://www.w3.org/2000/svg">
<path d="M12.507 0.0803089C12.394 0.126518 10.7613 1.24578 8.87193 2.57041L5.43201 4.97322H3.72744C2.32067 4.97322 1.97154 4.98863 1.7405 5.05537C0.980636 5.27614 0.333724 5.91792 0.0975502 6.67265C0.00513422 6.9653 0 7.18094 0 9.90208C0 12.6232 0.00513422 12.8389 0.0975502 13.1315C0.333724 13.8862 0.980636 14.528 1.7405 14.7488C1.97154 14.8155 2.32067 14.8309 3.72744 14.8309H5.43201L8.87707 17.2389C10.7665 18.5635 12.4197 19.6879 12.548 19.7341C12.8715 19.8573 13.5954 19.8214 13.8932 19.6725C14.1705 19.5236 14.499 19.1899 14.6428 18.8972L14.7609 18.6559V9.90208V1.14823L14.6428 0.906919C14.499 0.614269 14.1705 0.280544 13.8932 0.131651C13.6057 -0.0172405 12.7996 -0.0480461 12.507 0.0803089ZM13.1333 14.0146L13.1179 18.122L9.84744 15.8321L6.5718 13.5422V9.90208V6.26191L9.84744 3.97205L13.1179 1.68219L13.1333 5.78956C13.1385 8.05376 13.1385 11.7504 13.1333 14.0146ZM4.92885 9.90721V13.1931L3.60936 13.1777C2.38228 13.1623 2.26933 13.152 2.10503 13.0545C1.85859 12.9107 1.70456 12.6694 1.66862 12.3511C1.65322 12.2022 1.64295 10.9957 1.65322 9.67104C1.66862 7.36577 1.67376 7.24768 1.77131 7.08339C1.89966 6.86775 2.08963 6.71886 2.31553 6.66752C2.41308 6.64698 3.03946 6.62644 3.71204 6.62131L4.92885 6.61617V9.90721Z" fill="white"/>
<path d="M18.4934 1.77485C18.401 1.82106 18.2778 1.92374 18.2162 2.01102C18.0981 2.17532 18.0365 2.57065 18.093 2.79656C18.1135 2.87357 18.3548 3.17136 18.6269 3.45374C19.2533 4.10579 19.4741 4.37277 19.8335 4.92213C20.4444 5.86169 20.9117 6.99635 21.1632 8.15669C21.2659 8.62904 21.2762 8.83954 21.2762 9.90232C21.2762 10.9651 21.2659 11.1756 21.1632 11.648C20.9117 12.8083 20.4444 13.943 19.8335 14.8825C19.4741 15.437 19.2482 15.7091 18.6577 16.3201C18.1546 16.8387 18.0724 16.9721 18.0724 17.3059C18.0724 17.8912 18.7039 18.2865 19.2687 18.0452C19.4741 17.9579 20.4136 16.9978 20.8038 16.4741C21.9847 14.9031 22.7086 13.1061 22.9499 11.1859C23.0167 10.6262 23.0167 9.1784 22.9499 8.61877C22.7086 6.69857 22.0052 4.95293 20.8346 3.37159C20.4752 2.88384 19.4997 1.86727 19.2944 1.75945C19.1095 1.6619 18.7039 1.67216 18.4934 1.77485Z" fill="white"/>
<path d="M16.9791 5.09697C16.5786 5.24586 16.3989 5.54878 16.44 6.0006C16.4657 6.25731 16.4862 6.29325 16.9432 6.83747C17.3026 7.26361 17.6671 7.94647 17.8468 8.54204C17.9803 8.97331 17.9905 9.06573 17.9905 9.9026C17.9905 10.7395 17.9803 10.8319 17.8468 11.2632C17.6671 11.8587 17.3026 12.5416 16.9432 12.9677C16.4862 13.512 16.4657 13.5479 16.44 13.8046C16.3938 14.2718 16.6197 14.6158 17.0459 14.7288C17.3744 14.8161 17.6363 14.7288 17.9495 14.4156C18.7658 13.6095 19.4179 12.3054 19.6386 11.0527C19.7362 10.4776 19.7362 9.32757 19.6386 8.75254C19.4692 7.79244 19.0636 6.82721 18.4988 6.04167C18.1856 5.60526 17.662 5.07644 17.5439 5.07644C17.5028 5.07644 17.4052 5.06617 17.3231 5.05077C17.241 5.03536 17.0869 5.0559 16.9791 5.09697Z" fill="white"/>
</svg>
