<svg width="19" height="18" viewBox="0 0 19 18" fill="none" xmlns="http://www.w3.org/2000/svg">
<path d="M8.32342 1.89057C8.77244 0.508608 10.7276 0.50861 11.1766 1.89058L12.2197 5.10081C12.4205 5.71885 12.9964 6.13729 13.6462 6.13729H17.0217C18.4748 6.13729 19.0789 7.99671 17.9034 8.85081L15.1726 10.8348C14.6468 11.2168 14.4269 11.8939 14.6277 12.5119L15.6707 15.7221C16.1198 17.1041 14.538 18.2533 13.3625 17.3992L10.6317 15.4152C10.1059 15.0332 9.39405 15.0332 8.86832 15.4152L6.13753 17.3992C4.96196 18.2533 3.38024 17.1041 3.82927 15.7221L4.87234 12.5119C5.07315 11.8939 4.85316 11.2168 4.32743 10.8348L1.59664 8.85081C0.421068 7.99671 1.02523 6.13729 2.47832 6.13729H5.85376C6.5036 6.13729 7.07953 5.71885 7.28035 5.10081L8.32342 1.89057Z" fill="#FFC736"/>
</svg>
