<svg width="61" height="56" viewBox="0 0 61 56" fill="none" xmlns="http://www.w3.org/2000/svg">
<path d="M32.9575 0.226395C32.6599 0.35635 28.3576 3.50414 23.3787 7.22951L14.3141 13.9872H9.82232C6.11527 13.9872 5.19528 14.0305 4.58646 14.2182C2.58411 14.8391 0.879409 16.644 0.257058 18.7666C0.0135294 19.5897 0 20.1961 0 27.849C0 35.5019 0.0135294 36.1083 0.257058 36.9314C0.879409 39.054 2.58411 40.8589 4.58646 41.4798C5.19528 41.6675 6.11527 41.7108 9.82232 41.7108H14.3141L23.3923 48.4829C28.3711 52.2083 32.7275 55.3705 33.0658 55.5005C33.9181 55.847 35.8258 55.746 36.6105 55.3272C37.3411 54.9085 38.2069 53.9699 38.5858 53.1469L38.8969 52.4682V27.849V3.22979L38.5858 2.55114C38.2069 1.7281 37.3411 0.789532 36.6105 0.370789C35.8528 -0.0479546 33.7287 -0.13459 32.9575 0.226395ZM34.6081 39.415L34.5675 50.9665L25.9493 44.5265L17.3176 38.0865V27.849V17.6115L25.9493 11.1715L34.5675 4.73149L34.6081 16.283C34.6217 22.6508 34.6217 33.0472 34.6081 39.415ZM12.9882 27.8634V37.1047L9.51115 37.0613C6.27763 37.018 5.97998 36.9892 5.54704 36.7148C4.89763 36.3105 4.49175 35.6318 4.39705 34.7366C4.35646 34.3179 4.3294 30.9246 4.35646 27.1992C4.39705 20.7159 4.41057 20.3838 4.66763 19.9218C5.00587 19.3153 5.50645 18.8966 6.10175 18.7522C6.3588 18.6944 8.00939 18.6367 9.78173 18.6222L12.9882 18.6078V27.8634Z" fill="#262060"/>
<path d="M48.7332 4.99117C48.4897 5.12112 48.165 5.40991 48.0026 5.65538C47.6914 6.11745 47.5291 7.22928 47.6779 7.86462C47.732 8.08121 48.3679 8.91869 49.085 9.71286C50.7355 11.5467 51.3173 12.2975 52.2644 13.8425C53.8744 16.4849 55.1055 19.6761 55.7685 22.9394C56.0391 24.2678 56.0661 24.8598 56.0661 27.8488C56.0661 30.8377 56.0391 31.4297 55.7685 32.7582C55.1055 36.0215 53.8744 39.2126 52.2644 41.855C51.3173 43.4145 50.722 44.1798 49.1661 45.898C47.8403 47.3564 47.6238 47.7318 47.6238 48.6704C47.6238 50.3165 49.2879 51.4283 50.7761 50.7497C51.3173 50.5042 53.7932 47.804 54.8214 46.3312C57.9332 41.9128 59.8408 36.859 60.4767 31.4586C60.6526 29.8847 60.6526 25.8128 60.4767 24.2389C59.8408 18.8386 57.9873 13.9292 54.9026 9.48183C53.9555 8.11008 51.385 5.25108 50.8438 4.94785C50.3567 4.6735 49.2879 4.70238 48.7332 4.99117Z" fill="#262060"/>
<path d="M44.741 14.3335C43.6857 14.7522 43.2122 15.6041 43.3204 16.8748C43.3881 17.5968 43.4422 17.6978 44.6463 19.2284C45.5934 20.4269 46.554 22.3473 47.0275 24.0223C47.3792 25.2352 47.4063 25.4951 47.4063 27.8488C47.4063 30.2024 47.3792 30.4623 47.0275 31.6752C46.554 33.3502 45.5934 35.2706 44.6463 36.4691C43.4422 37.9997 43.3881 38.1007 43.3204 38.8227C43.1987 40.1367 43.794 41.1041 44.9169 41.4218C45.7828 41.6673 46.4728 41.4218 47.2981 40.541C49.4492 38.274 51.1675 34.6064 51.7492 31.0832C52.0063 29.466 52.0063 26.2315 51.7492 24.6143C51.3028 21.9142 50.2339 19.1995 48.7457 16.9903C47.9204 15.763 46.5404 14.2757 46.2292 14.2757C46.121 14.2757 45.864 14.2468 45.6475 14.2035C45.431 14.1602 45.0251 14.2179 44.741 14.3335Z" fill="#262060"/>
</svg>
