<svg width="18" height="20" viewBox="0 0 18 20" fill="none" xmlns="http://www.w3.org/2000/svg">
<path d="M17.3114 3.89279L14.1917 0.292786C14.0292 0.105315 13.8088 0 13.579 0C13.3492 0 13.1289 0.105315 12.9664 0.292786L2.04747 12.8928C1.9522 13.0024 1.88065 13.1363 1.83862 13.2838L0.278779 18.6838C0.235412 18.834 0.22359 18.994 0.244285 19.1506C0.26498 19.3071 0.317602 19.4558 0.397817 19.5843C0.478033 19.7128 0.583548 19.8175 0.705678 19.8897C0.827807 19.9619 0.963058 19.9997 1.1003 19.9998C1.19334 19.9996 1.28577 19.9824 1.37414 19.9488L6.05366 18.1488C6.18118 18.0998 6.29694 18.0169 6.39163 17.9068L17.3105 5.30679C17.4731 5.11939 17.5645 4.86516 17.5647 4.59999C17.5648 4.33483 17.4737 4.08045 17.3114 3.89279ZM5.31187 16.3258L2.47036 17.4188L3.41753 14.1398L13.579 2.41379L15.4734 4.59979L5.31187 16.3258Z" fill="white"/>
</svg>
