<svg width="36" height="46" viewBox="0 0 36 46" fill="none" xmlns="http://www.w3.org/2000/svg">
<path d="M11.3234 14.8906C11.7724 13.5086 13.7276 13.5086 14.1766 14.8906L15.2197 18.1008C15.4205 18.7188 15.9964 19.1373 16.6462 19.1373H20.0217C21.4748 19.1373 22.0789 20.9967 20.9034 21.8508L18.1726 23.8348C17.6468 24.2168 17.4269 24.8939 17.6277 25.5119L18.6707 28.7221C19.1198 30.1041 17.538 31.2533 16.3625 30.3992L13.6317 28.4152C13.1059 28.0332 12.3941 28.0332 11.8683 28.4152L9.13753 30.3992C7.96196 31.2533 6.38024 30.1041 6.82927 28.7221L7.87234 25.5119C8.07315 24.8939 7.85316 24.2168 7.32743 23.8348L4.59664 21.8508C3.42107 20.9967 4.02523 19.1373 5.47832 19.1373H8.85376C9.5036 19.1373 10.0795 18.7188 10.2803 18.1008L11.3234 14.8906Z" fill="#FFC736"/>
</svg>
