<svg width="187" height="43" viewBox="0 0 187 43" fill="none" xmlns="http://www.w3.org/2000/svg">
<path d="M157.869 17.998H172.338C173.718 17.9983 174.838 19.1175 174.838 20.498V27.6562C174.838 29.0368 173.718 30.156 172.338 30.1562H157.869C156.488 30.1562 155.369 29.037 155.369 27.6562V20.498L155.382 20.2422C155.51 18.9817 156.575 17.998 157.869 17.998Z" stroke="#311D5D"/>
<rect x="1.43945" y="1.16406" width="185" height="41" rx="9.5" stroke="#311D5D"/>
<rect x="55.9287" y="35.627" width="67.8789" height="3.32812" rx="1.66406" fill="#311D5D"/>
<path d="M136.245 17.4987L130.921 17.4983C129.264 17.4981 127.921 18.8413 127.921 20.4983V27.6563C127.921 29.3131 129.264 30.6563 130.921 30.6563H145.389C147.046 30.6563 148.389 29.3131 148.389 27.6562V20.498C148.389 18.8412 147.046 17.498 145.389 17.498H139.704" stroke="#311D5D"/>
<path d="M138.508 11.4734C138.313 11.2788 137.996 11.2798 137.801 11.4758L134.619 14.6685C134.424 14.8645 134.424 15.1811 134.619 15.3757C134.814 15.5703 135.131 15.5692 135.326 15.3733L138.154 12.5352L140.983 15.3541C141.178 15.5487 141.495 15.5476 141.69 15.3517C141.885 15.1557 141.885 14.8392 141.69 14.6446L138.508 11.4734ZM138.154 21.3359L138.654 21.3342V11.8264L138.154 11.8281L137.654 11.8298V21.3376L138.154 21.3359Z" fill="#311D5D"/>
<path d="M13.1795 22.2243L21.8047 30.4425C21.9487 30.5797 22.1399 30.6563 22.3387 30.6563C22.5375 30.6563 22.7287 30.5797 22.8726 30.4425L22.8819 30.4332C22.9519 30.3667 23.0077 30.2867 23.0458 30.1979C23.0839 30.1092 23.1035 30.0136 23.1035 29.9171C23.1035 29.8205 23.0839 29.725 23.0458 29.6362C23.0077 29.5475 22.9519 29.4674 22.8819 29.4009L14.7597 21.6625L22.8819 13.9272C22.9519 13.8607 23.0077 13.7806 23.0458 13.6919C23.0839 13.6032 23.1035 13.5076 23.1035 13.411C23.1035 13.3145 23.0839 13.2189 23.0458 13.1302C23.0077 13.0415 22.9519 12.9614 22.8819 12.8949L22.8726 12.8856C22.7287 12.7484 22.5375 12.6719 22.3387 12.6719C22.1399 12.6719 21.9487 12.7484 21.8047 12.8856L13.1795 21.1038C13.1036 21.1761 13.0433 21.263 13.002 21.3593C12.9607 21.4556 12.9395 21.5593 12.9395 21.6641C12.9395 21.7688 12.9607 21.8725 13.002 21.9688C13.0433 22.0651 13.1036 22.1521 13.1795 22.2243Z" fill="#311D5D"/>
<path d="M63.0275 21.1038L54.4023 12.8856C54.2584 12.7484 54.0672 12.6719 53.8683 12.6719C53.6695 12.6719 53.4783 12.7484 53.3344 12.8856L53.3251 12.8949C53.2551 12.9614 53.1993 13.0415 53.1613 13.1302C53.1232 13.2189 53.1035 13.3145 53.1035 13.411C53.1035 13.5076 53.1232 13.6032 53.1613 13.6919C53.1993 13.7806 53.2551 13.8607 53.3251 13.9272L61.4473 21.6656L53.3251 29.4009C53.2551 29.4674 53.1993 29.5475 53.1613 29.6362C53.1232 29.725 53.1035 29.8205 53.1035 29.9171C53.1035 30.0136 53.1232 30.1092 53.1613 30.1979C53.1993 30.2867 53.2551 30.3667 53.3251 30.4332L53.3344 30.4425C53.4783 30.5797 53.6695 30.6563 53.8683 30.6563C54.0672 30.6563 54.2584 30.5797 54.4023 30.4425L63.0275 22.2243C63.1034 22.1521 63.1638 22.0651 63.205 21.9688C63.2463 21.8725 63.2676 21.7688 63.2676 21.6641C63.2676 21.5593 63.2463 21.4556 63.205 21.3593C63.1638 21.263 63.1034 21.1761 63.0275 21.1038Z" fill="#311D5D"/>
<circle cx="138.155" cy="21.6641" r="18.5" stroke="#9E0000" stroke-width="3"/>
</svg>
