<svg width="288" height="145" viewBox="0 0 288 145" fill="none" xmlns="http://www.w3.org/2000/svg">
<path d="M8.26785 64.0536C3.5513 65.9429 8.26785 65.4217 5.18942 61.0727C5.83258 60.317 4.54643 56.0697 5.18959 55.5029C8.19103 52.6689 13.5568 55.5126 17.8446 57.213C22.5611 58.9134 6.98152 60.6528 8.26785 64.0536Z" fill="#D5D3D2"/>
<path d="M6.24436 65.8743C5.28669 64.7799 3.91859 64.5747 2.61889 64.0958C1.3876 63.6854 0.224701 63.2749 0.0878906 61.77C0.293106 61.5648 0.566727 61.2912 0.771943 61.086C3.98699 59.5127 4.80785 59.9231 6.92841 63.8222C7.40725 64.7114 7.74927 65.6007 6.24436 65.8743Z" fill="#C3C2C1"/>
<path d="M5.18964 69.3589C4.23197 68.2644 2.86387 68.0592 1.56417 67.5804C0.33288 67.17 0.19593 67.953 0.0591197 66.4481C0.264335 66.2428 -0.145965 61.865 0.0592507 61.6598C3.27429 60.0864 4.43718 61.8652 6.55774 65.7643C7.03658 66.6535 6.69455 69.0853 5.18964 69.3589Z" fill="#BCBCBC"/>
<path d="M56.8343 70.8942C56.6584 70.8942 57.3521 69.7813 57.1762 69.7813C57.1762 69.3329 57.1762 68.9485 57.1762 68.5C59.932 68.8844 63.0884 68.3946 65.7269 69.8681C65.6096 70.6369 64.6182 74.0886 63.6747 73.6304C61.5639 72.6053 54.8798 73.3751 56.8343 70.8942Z" fill="#BDBDBC"/>
<path d="M21.2264 91.1158C14.1807 91.0474 8.77667 87.6955 6.86133 82.2231C8.70827 80.855 10.692 81.4022 12.3337 82.2915C17.1221 84.7541 22.3893 84.8225 27.5197 85.575C29.1614 85.8486 30.7347 85.917 31.4872 87.6955C28.6826 90.7053 25.0571 91.2526 21.2264 91.1158Z" fill="#B4B4B4"/>
<path d="M4.87741 77.4353C3.85133 76.2041 4.33017 74.6991 4.19336 73.331C4.33017 73.2626 4.46699 73.1258 4.6722 73.0574C6.24552 72.8522 7.61361 73.5363 8.8449 74.2887C15.4802 78.2562 23.0732 79.0771 30.3925 80.582C32.6499 81.0608 35.1809 80.1032 36.7542 82.7026C36.9594 83.7286 36.6174 84.4811 35.7281 84.9599C35.0441 85.4388 34.36 85.8492 33.676 86.328C26.5618 85.2335 19.3793 84.7547 12.5388 82.2237C9.52897 81.1292 6.58754 80.24 4.87741 77.4353Z" fill="#B8B8B7"/>
<path d="M4.87717 77.4355C7.95541 77.9144 10.2812 80.035 13.2226 80.9926C18.695 82.7712 24.3042 83.4552 29.9135 84.3445C31.35 84.5497 32.9233 84.6181 33.6074 86.3282C32.9233 86.8071 32.2393 87.2175 31.5552 87.6963C23.1414 86.8755 14.8643 85.439 6.92933 82.2239C5.1508 81.1294 4.80877 79.3509 4.87717 77.4355Z" fill="#B4B4B4"/>
<path d="M35.5898 84.9603C35.7951 84.2762 36.0687 83.5922 36.2739 82.9081C35.9319 82.0188 35.9319 81.1296 36.0003 80.2403C36.0687 79.6246 36.4107 79.1458 36.8212 78.7354C37.9841 77.7093 39.3522 77.3673 40.9255 77.7777C43.6617 78.4618 46.4663 78.5986 49.2709 79.009C51.0494 79.2826 52.9648 79.7614 52.6911 82.2924C47.5608 86.8756 41.9515 87.9701 35.5898 84.9603Z" fill="#B4B4B4"/>
<path d="M50.6409 47.4053C54.6768 47.6105 57.0026 50.3467 59.0547 53.2881C60.628 55.5455 61.7225 58.2133 64.3219 59.7182C64.5271 60.197 64.8007 60.6075 65.0059 61.0863C65.2112 61.5651 65.006 62.1124 64.5271 62.1124C60.7649 61.8388 56.8657 63.0701 53.3087 61.0179C53.0351 60.7443 52.8983 60.4707 52.7614 60.1287C52.693 58.6922 52.2142 57.2556 52.351 55.7507C52.351 55.1351 52.351 54.5194 52.2826 53.9038C52.2142 53.0829 51.6669 52.3305 51.6669 51.4412C51.5985 50.894 51.3933 50.4151 51.1197 49.9363C50.7777 49.3206 50.2988 48.8418 50.2988 48.0893C50.2988 47.8157 50.4356 47.5421 50.6409 47.4053Z" fill="#D9D7D5"/>
<path d="M53.3753 60.4027C57.206 61.0183 61.1051 61.0183 65.0042 61.0867C65.2094 61.5655 65.483 61.976 65.6883 62.4548C66.3039 65.191 64.5938 64.4386 63.0205 64.4386C60.9683 64.507 58.3689 62.5916 57.0008 65.8067C56.9324 66.1487 56.7272 66.4907 56.522 66.7644C53.2385 68.8849 46.398 68.4061 43.525 65.9435C43.3198 65.3963 43.3198 64.849 43.525 64.3018C44.4143 63.0021 45.8508 62.2496 47.0137 61.3603C47.2873 61.1551 47.5609 61.0183 47.9029 60.8815C49.6814 60.1974 51.3916 58.4873 53.3753 60.4027Z" fill="#D5D3D2"/>
<path d="M52.6919 82.2237C52.4183 81.8816 52.1447 81.3344 51.8026 81.266C46.9459 80.1715 42.0891 78.6666 36.9587 79.4875C36.8219 79.3506 36.6851 79.2822 36.5483 79.1454C36.0695 78.5298 36.0695 77.8457 36.3431 77.0933C36.6851 76.2724 36.8903 75.3147 37.848 74.9043C42.8416 75.4515 47.9036 75.9988 52.9655 76.4776C54.402 76.6144 55.2229 77.3669 55.4281 78.8034C54.7441 80.1715 54.1284 81.5396 52.6919 82.2237Z" fill="#B9B8B8"/>
<path d="M57.479 70.6631C59.668 71.826 62.6094 70.9367 64.3196 73.3993C62.1306 75.7935 59.5996 77.6404 56.1109 77.5036C55.9741 77.3668 55.9057 77.2984 55.7689 77.1616C55.3585 76.4091 55.7005 75.6567 55.7689 74.9042C55.7005 73.9465 56.3846 73.1257 56.3846 72.168C56.5214 71.484 56.795 70.9367 57.479 70.6631Z" fill="#B6B6B6"/>
<path d="M66.3045 62.4551C66.3045 63.8232 66.3045 65.1913 66.3729 66.5594C62.8842 66.9014 59.3955 66.6962 56.1121 65.1913C55.5648 64.6441 54.8124 64.0284 55.2913 63.1392C55.7017 62.3867 56.5225 62.934 57.1382 63.0024C59.3955 63.276 61.7213 62.7971 63.9103 63.4812C64.868 63.7548 65.4152 63.3444 65.6888 62.3867C65.894 62.4551 66.0993 62.4551 66.3045 62.4551Z" fill="#D0CECC"/>
<path d="M55.4286 78.8036C52.1452 76.7514 48.3829 77.5039 44.8258 76.8883C42.4316 76.4778 39.969 76.341 37.6433 75.4517C37.096 73.2628 38.601 73.6732 39.7638 73.7416C44.1418 73.8784 48.3145 75.8622 52.6924 75.7937C54.1973 75.7937 55.3602 76.0674 56.0443 77.5039C55.9075 77.9143 55.6338 78.3932 55.4286 78.8036Z" fill="#BCBCBC"/>
<path d="M0.087778 66.5591C2.34515 64.6437 3.30282 67.4483 4.87614 67.9272C5.76541 68.8164 6.03901 69.9109 5.83379 71.1422C5.76538 72.2367 5.08136 72.9208 4.19209 73.3996C1.86631 71.6211 0.0193728 69.6373 0.087778 66.5591Z" fill="#B8B8B7"/>
<path d="M6.92795 63.8228C5.08101 62.4547 3.37088 60.7446 0.771484 61.0866C0.771484 60.8814 0.771484 60.6078 0.771484 60.4026C1.25032 59.7185 1.66075 59.0345 2.13959 58.3504C3.6445 57.94 5.01261 57.7348 6.2439 59.0345C7.33838 60.471 6.72274 62.1811 6.92795 63.8228Z" fill="#CAC9C7"/>
<path d="M53.3762 55.6136C53.1025 56.9817 54.6075 58.3498 53.3762 59.7179C52.7605 59.7179 52.1449 59.6495 51.5293 59.4443C45.3044 59.2391 39.2847 57.871 33.1282 57.0501C25.9457 56.0925 19.1736 53.2195 12.8803 49.6624C11.5806 48.9783 10.2125 47.8838 10.3493 45.9685C10.8282 45.2844 11.2386 44.6004 11.7174 43.9163C12.5383 43.3007 13.4959 43.2323 14.18 43.9847C16.6426 46.4473 19.8576 47.4734 22.7306 49.2519C26.7666 52.3986 31.4181 53.3562 36.4117 53.2194C36.7537 53.2194 37.0957 53.2194 37.4378 53.3563C42.2945 54.9296 47.4249 54.4507 52.4185 55.0664C52.7605 55.2032 53.1025 55.34 53.3762 55.6136Z" fill="#CDCBC9"/>
<path d="M20.6094 36.5293C22.388 36.0505 24.2349 35.5716 26.0134 35.0928C26.2186 35.0928 26.3555 35.0928 26.5607 35.0244C30.3914 37.6922 34.3589 39.8128 39.2157 39.8128C41.1994 39.8128 43.3199 39.5391 45.1669 40.5652C46.1929 41.7965 48.5872 42.2069 47.7663 44.6695C47.5611 44.9432 47.3558 45.2852 47.0138 45.3536C39.4892 46.7901 26.287 45.08 20.6778 37.5554C20.4726 37.2134 20.541 36.8714 20.6094 36.5293Z" fill="#DBD8D7"/>
<path d="M44.4831 64.439C44.2779 64.6442 44.0727 64.9178 43.799 65.1231C43.5938 65.3967 43.3202 65.6019 43.0466 65.8071C39.1475 66.628 35.7273 64.5758 32.0334 64.097C30.7337 63.8918 29.6392 64.0286 28.4763 64.5074C23.9616 63.0025 19.1732 62.25 15.0689 59.6506C15.4109 59.1034 17.5999 58.4878 15.2741 57.8721C12.9483 57.2565 11.3066 55.4095 9.04922 54.5886C6.79185 53.8362 7.27068 51.8524 8.22835 50.0739C9.66486 49.6635 10.4857 50.6895 11.4434 51.5104C13.3587 53.1521 15.4109 54.315 17.8735 54.9991C25.0561 58.5562 32.3754 61.3608 40.584 61.4292C42.4994 61.4976 44.6199 61.6344 44.4831 64.439Z" fill="#C1C0BF"/>
<path d="M6.24367 65.875C6.85932 65.3277 6.92772 64.5753 6.92772 63.8228C7.13294 63.8228 7.40656 63.8228 7.61178 63.8228C8.36423 63.8228 9.25348 63.686 9.93753 64.2333C15.3415 68.8848 21.9769 69.8425 28.6806 70.8686C30.8695 71.2106 32.9901 71.0054 34.9739 70.0477C35.7263 69.9793 36.4104 70.2529 37.026 70.6633C38.1205 71.6894 38.1205 72.7839 37.5049 74.0836C37.026 75.8621 35.3159 74.9729 34.2898 75.5885C33.9478 75.6569 33.6741 75.6569 33.3321 75.5885C31.3484 74.8361 29.3646 74.152 27.3125 75.3149C20.6772 74.4257 14.1103 73.2627 8.36422 69.432C7.26973 68.6796 6.17525 68.2008 6.31206 66.6274C6.17525 66.2854 6.24367 66.0802 6.24367 65.875Z" fill="#C9C7C6"/>
<path d="M10.3491 61.0868C11.4435 59.8555 12.8801 59.6503 14.4534 59.7187C18.9681 64.165 24.2353 65.7384 30.3918 64.2334C32.5807 64.5071 33.9488 65.6015 34.0172 67.9957C33.3332 69.9111 31.8283 70.4583 29.9814 70.2531C28.066 70.0479 26.219 70.5267 24.3037 70.3215C19.8574 69.0902 15.2058 68.4062 11.3751 65.3963C9.87023 64.165 9.11777 62.8653 10.3491 61.0868Z" fill="#D1CFCE"/>
<path d="M21.9092 50.1416C18.1469 48.6367 15.1371 45.9005 11.6484 43.9852C12.1957 42.9591 12.6061 41.8646 13.7006 41.3174C16.8472 43.5063 19.5151 46.311 23.551 47.4739C30.4599 49.3892 37.1636 51.9886 44.5514 52.057C47.4244 52.1254 50.6394 51.7149 53.3072 53.5619C53.3072 54.2459 53.3072 54.93 53.3072 55.614H52.9652H52.6232C47.356 55.4088 42.0888 54.9984 36.89 54.2459C36.6848 54.2459 36.4111 54.2459 36.2059 54.2459C31.3491 53.4251 26.424 52.6042 21.9092 50.1416Z" fill="#D0CECD"/>
<path d="M10.2797 46.0371C17.4623 52.1252 26.0129 54.451 35.1792 56.0927C40.9937 57.1188 47.0133 56.9135 52.691 59.0341C51.4597 60.9494 49.3391 60.6758 47.6974 60.539C37.0262 59.6498 26.5602 57.8028 16.6415 53.4249C15.6838 53.0145 14.7261 52.7409 13.6316 52.7409C11.2374 51.7148 9.04846 50.6203 9.5273 47.4052C9.86932 46.9264 10.0745 46.5159 10.2797 46.0371Z" fill="#C9C7C6"/>
<path d="M9.59662 47.4053C10.3491 49.389 11.7172 50.7571 13.7009 51.5096C23.5513 56.0243 33.8121 58.9658 44.6885 59.7182C46.125 59.7866 47.6983 59.6498 47.9035 61.7704C46.5354 62.7964 45.2357 62.8649 43.4572 62.5912C37.7112 61.5652 31.8283 61.2232 26.2191 59.2394C23.1409 58.1449 20.0626 56.982 17.1212 55.6139C13.2221 55.2719 10.8279 52.6041 8.22852 50.1415C8.43373 49.047 8.77576 48.1577 9.59662 47.4053Z" fill="#C5C4C2"/>
<path d="M53.3761 53.5621C42.5681 53.5621 31.9653 51.9204 21.8413 48.0213C18.3527 46.6532 15.2744 44.9431 13.7695 41.3176C13.9747 41.3176 14.1799 41.2492 14.3852 41.2492C15.1376 40.6335 15.8901 40.7019 16.5057 41.386C20.5416 46.448 26.6981 46.79 32.2389 48.4317C38.9426 50.4155 45.9199 49.5946 52.6921 50.7575C52.8973 51.7152 53.1025 52.6728 53.3761 53.5621Z" fill="#D1CFCE"/>
<path d="M50.6397 47.4052C50.6397 47.6105 50.6397 47.8841 50.6397 48.0893C50.366 48.6365 49.8872 49.047 49.34 49.047C39.6949 49.5258 30.1865 49.4574 21.5675 44.1218C19.5837 42.8905 18.1472 41.1804 17.0527 39.1966C17.6 38.3758 18.284 37.6233 19.1733 37.2129C22.0463 37.9653 23.4828 40.8383 26.0822 42.0696C32.5123 45.0795 39.2844 45.9003 46.2618 45.6267C48.2455 45.4899 49.6136 45.8319 50.6397 47.4052Z" fill="#D7D5D3"/>
<path d="M50.6402 47.4057C46.6043 46.0376 42.2948 46.9269 38.1905 46.2428C30.9396 45.08 23.8938 43.7118 19.1738 37.2133C19.6527 37.0081 20.0631 36.7345 20.5419 36.5293C23.6886 38.6499 26.2196 41.5913 30.1187 42.7542C36.0015 44.5327 41.8159 45.422 47.904 44.0539C48.1776 43.6434 48.3829 43.6434 48.6565 44.0539C49.8878 44.8063 50.3666 46.0376 50.6402 47.4057Z" fill="#D7D5D3"/>
<path d="M30.1175 65.1908C25.0555 67.9954 20.6092 65.4644 16.1629 63.4807C14.7948 62.865 14.1791 61.4285 14.3843 59.7868C14.5895 59.7868 14.8632 59.7868 15.0684 59.7184C20.0619 59.5816 24.4399 61.6337 28.7494 63.8227C29.8439 63.6175 30.3911 64.0279 30.1175 65.1908Z" fill="#D5D3D2"/>
<path d="M10.3495 61.0869C10.4179 64.4388 13.2909 65.1912 15.4799 66.2173C18.2161 67.517 21.1575 68.2695 24.0305 69.2955C26.9035 70.1164 29.845 70.1164 32.7864 69.6376C33.8125 69.5008 34.8385 69.0903 34.9069 70.6636C34.3597 71.6213 33.4705 72.0317 32.376 72.0317C23.3465 71.6213 14.4538 70.6636 7.61328 63.8231C8.29733 62.6602 9.1182 61.7026 10.3495 61.0869Z" fill="#CDCCCA"/>
<path d="M17.0536 39.1973C19.5845 39.8813 20.6106 42.4123 22.868 43.6436C29.0245 46.9955 35.5913 48.09 42.4319 48.1584C45.1681 48.1584 47.9043 48.1583 50.6405 48.0899C51.1193 48.5688 51.5298 48.9792 52.0086 49.458C51.735 50.5525 50.9141 50.8261 49.9564 50.8261C39.6272 50.7577 29.4349 49.7317 20.1318 44.7381C18.148 43.6436 16.4379 42.2071 15.8223 39.9497C16.2327 39.6761 16.6431 39.4025 17.0536 39.1973Z" fill="#D4D2D1"/>
<path d="M15.7529 39.8809C22.2514 46.4478 30.46 48.6368 39.2843 49.526C43.5254 49.9364 47.7665 50.8257 52.0076 49.4576C52.2128 49.9364 52.4865 50.3469 52.6917 50.8257C51.8024 51.0309 50.9816 51.4414 50.0923 51.4414C40.4472 51.6466 31.0756 49.9364 21.9093 46.7898C18.8311 45.7637 17.0526 42.8223 14.3848 41.249C14.8636 40.7701 15.3424 40.3597 15.7529 39.8809Z" fill="#D4D2D0"/>
<path d="M6.24494 59.0342C4.74002 59.7182 3.44032 58.9658 2.14062 58.3501C2.34584 58.0765 2.48264 57.7345 2.68786 57.5293C3.64553 56.5032 4.74001 54.8615 6.10812 55.4771C7.61303 56.0928 5.83451 57.8029 6.24494 59.0342Z" fill="#D0CECC"/>
<path d="M26.0137 35.161C26.4241 35.161 26.903 35.0925 27.3134 35.0925C28.6815 33.998 30.3916 34.6137 31.8965 34.4085C34.838 33.656 37.6426 33.7245 40.242 35.503C40.7208 36.8711 42.2257 37.0079 43.0466 37.8972C43.2518 38.1024 43.457 38.3076 43.7306 38.5128C44.2095 39.1968 44.6883 39.8809 45.1671 40.4966C40.1735 41.9331 35.3852 41.1122 30.5284 39.4021C28.3395 38.6496 27.4502 36.6659 26.0137 35.161Z" fill="#DBD9D8"/>
<path d="M48.6567 43.9857C48.383 43.9857 48.1094 43.9857 47.9042 43.9857C47.0149 42.8228 46.1256 41.6599 45.168 40.5654C47.0149 41.0443 48.1094 42.2072 48.6567 43.9857Z" fill="#DBD9D8"/>
<path d="M4.19336 73.3308C4.39857 72.6468 4.6722 71.9627 4.87741 71.2786C6.99797 69.9105 8.98173 71.2786 10.4866 72.1679C14.2489 74.2885 18.148 75.725 22.3891 76.4774C26.2882 77.5719 30.1189 78.94 34.2232 79.1452C35.5229 79.2137 36.2754 79.9661 36.9594 80.8554C36.7542 81.5394 36.4806 82.2235 36.2754 82.9075C32.3763 81.0606 27.9984 81.5394 23.894 80.6502C23.0732 80.445 22.1155 80.5818 21.2262 80.3081C15.3434 78.3928 9.32375 77.0247 4.19336 73.3308Z" fill="#BCBBBB"/>
<path d="M36.9593 80.8557C31.8973 79.8296 26.7669 79.4192 21.9102 77.4354C22.389 76.341 23.2783 75.9305 24.3728 76.2042C27.6562 76.9566 31.0081 77.2302 34.2915 77.6406C35.5228 77.7775 36.3437 78.3931 36.8909 79.4876C36.9593 79.9664 36.9593 80.4453 36.9593 80.8557Z" fill="#BEBDBC"/>
<path d="M47.9038 61.7705C45.5096 59.3764 42.2945 60.5393 39.4899 59.9236C32.7862 58.6239 26.2193 57.3242 19.9261 54.5196C17.8055 53.5619 15.2745 53.6303 13.7012 51.5098C19.5156 53.3567 25.2617 55.3405 31.0761 56.9138C37.643 58.6239 44.3467 59.2396 51.1188 59.5816C51.5977 59.5816 52.1449 59.2396 52.6237 59.0343C53.3078 58.8291 53.2394 59.3764 53.3078 59.7184C53.3078 59.9236 53.3078 60.1288 53.3078 60.4024C51.3924 60.1972 49.7507 61.2917 47.9038 61.7705Z" fill="#C8C7C5"/>
<path d="M43.1157 65.1914C43.3209 65.1914 43.5261 65.1914 43.7997 65.1914C47.8356 67.1068 51.8715 67.2436 56.1126 65.8755C57.1387 65.6702 57.3439 66.3543 57.6176 67.0384C57.686 67.5856 57.4808 68.0644 57.2072 68.6117C57.2072 70.1166 56.3863 71.0743 54.9498 71.0743C50.7771 71.0743 46.6043 70.6638 42.5684 69.3641C41.7476 69.0905 41.3371 68.4065 41.2003 67.5172C41.1319 66.0807 42.2264 65.7386 43.1157 65.1914Z" fill="#D0CECC"/>
<path d="M17.1211 55.6143C22.3883 57.1876 27.6555 58.8977 32.9911 60.1974C37.8479 61.3603 42.8414 62.1128 47.9034 61.7707C47.0826 63.0704 45.6461 63.6177 44.4832 64.5069C42.9783 62.2496 40.6525 62.66 38.3951 62.4548C30.8022 61.7023 23.5512 59.9238 17.1211 55.6143Z" fill="#C3C2C1"/>
<path d="M56.7954 67.2432C56.5902 66.7644 56.3165 66.354 56.1113 65.8751C56.1113 65.6699 56.1113 65.3963 56.1113 65.1911C59.6 64.9858 63.0887 65.1911 66.3721 66.5592C66.3721 67.2432 66.3721 67.9273 66.3721 68.6113C63.0887 68.6797 59.8052 68.8849 56.7954 67.2432Z" fill="#CAC8C7"/>
<path d="M41.7469 67.174C44.2095 69.2945 47.2877 69.4998 50.2976 69.4313C52.4865 69.3629 54.9491 71.2099 56.796 68.5421C57.0013 68.3369 57.2749 68.3369 57.4801 68.5421C57.4801 69.2261 57.4801 69.9102 57.4801 70.5942C57.4801 71.2783 57.4801 71.9623 57.4117 72.6464C54.2651 74.4249 42.1573 72.7148 39.6264 70.1838C39.4895 70.047 39.4211 69.7734 39.3527 69.5682C39.2843 67.9264 39.9 66.9688 41.7469 67.174Z" fill="#CAC8C7"/>
<path d="M57.4809 68.5429C57.2757 68.5429 57.0021 68.5429 56.7969 68.5429C56.7969 68.0641 56.7969 67.6536 56.7969 67.1748C60.0119 67.5852 63.2954 66.9696 66.3736 68.5429C66.2368 69.3638 65.8948 70.4582 65.0055 69.9794C62.5429 68.8849 59.8067 69.7742 57.4809 68.5429Z" fill="#C4C2C1"/>
<path d="M41.747 67.1745C40.8577 67.6533 40.1737 68.3373 39.6949 69.2266C40.1737 72.0996 42.4311 72.5785 44.6885 72.5785C47.7667 72.5101 50.7081 73.1257 53.7179 73.6046C55.086 73.8098 55.9753 74.357 56.7962 75.3831C56.5909 76.0671 56.3173 76.7512 56.1121 77.4352C50.9133 76.6144 45.7146 75.9987 40.5842 74.7674C39.6949 74.5622 38.3268 73.7414 37.6427 75.3831C37.6427 76.1355 37.5743 76.888 36.9587 77.4352C36.8218 77.3668 36.685 77.23 36.5482 77.1616C36.1378 76.6144 36.0694 75.9987 36.2746 75.3831C36.4798 75.1095 36.685 74.9042 36.8903 74.699C36.8219 73.5361 37.1639 72.3049 36.2062 71.2788C35.7274 69.7739 33.6752 69.5686 33.47 67.8585C32.5807 66.6272 31.6915 65.3959 30.0497 65.1223C29.5709 64.6435 29.1605 64.233 28.6816 63.7542C30.1181 61.6336 32.1703 62.6597 33.8804 62.9333C36.9587 63.4806 39.9685 64.3698 43.0467 65.1223C42.7047 65.8748 42.2259 66.5588 41.747 67.1745Z" fill="#BEBDBC"/>
<path d="M36.959 79.4883C32.0339 78.4622 27.0403 77.5729 21.9099 77.4361C15.5482 77.2309 10.7598 72.7161 4.80859 71.2796C4.80859 70.1167 4.80859 69.0223 4.80859 67.8594C5.01381 67.8594 5.28743 67.8594 5.49265 67.8594C11.9911 71.4849 18.8317 74.0159 26.151 75.1787C28.6136 75.5208 31.0762 75.7944 33.5388 75.726C34.9753 75.726 36.275 75.9312 36.8906 77.4361C36.9591 78.1202 36.959 78.8042 36.959 79.4883Z" fill="#C1C0BF"/>
<path d="M56.7979 75.383C53.1724 74.6989 49.5469 73.8781 45.7847 74.0833C43.5273 74.1517 41.5435 73.4677 39.6966 72.4416C37.9864 71.4839 37.7812 70.321 39.6966 69.2949C42.0224 70.8682 44.6218 71.4155 47.4264 71.4155C50.8467 71.4155 53.9933 73.0572 57.4819 72.7152C57.2083 73.6044 57.0031 74.4937 56.7979 75.383Z" fill="#C5C4C3"/>
<path d="M36.9585 77.436C36.0008 77.2308 34.9748 76.752 34.0171 76.8204C24.9876 77.2992 16.9842 73.8106 8.7756 70.8007C7.33909 70.2535 6.313 69.159 5.56055 67.8593C5.76576 67.3805 6.03938 66.97 6.2446 66.4912C12.4011 71.4848 19.7204 73.3317 27.4502 74.0158C29.5024 74.2894 31.6229 73.7422 33.6067 74.6998C33.8119 74.6998 34.0855 74.6998 34.2907 74.6998C35.3852 74.221 36.2061 74.8366 37.0269 75.3839C36.9585 76.0679 36.9585 76.752 36.9585 77.436Z" fill="#C4C3C2"/>
<path d="M40.3789 36.4609C40.5841 36.4609 40.8577 36.4609 41.063 36.4609C42.0206 36.5293 42.7047 37.0082 43.1151 37.8975C42.089 37.6923 41.1314 37.2818 40.3789 36.4609Z" fill="#BCBCBC"/>
<path d="M21.9102 50.1416C26.6301 51.6465 31.6921 52.1938 36.2752 54.2459C31.008 54.5879 26.1513 53.4251 21.9102 50.1416Z" fill="#CDCBCA"/>
<path d="M36.959 54.2457C42.2262 54.1773 47.4934 54.5193 52.6922 55.6138C48.7247 56.8451 44.7572 55.2717 40.7897 55.2717C39.5584 55.2717 38.0535 55.2033 36.959 54.2457Z" fill="#CDCBCA"/>
<path d="M27.3828 34.408C28.9562 34.5448 30.6663 33.9976 32.1712 35.0237C30.5295 35.0237 28.9562 35.0237 27.3145 35.0237C27.3829 34.8868 27.3828 34.6132 27.3828 34.408Z" fill="#CECCCB"/>
<path d="M33.5377 67.8594C34.769 68.7486 36.0003 69.6379 36.2739 71.2796C35.795 71.0744 35.3846 70.8008 34.9058 70.5956C32.5116 70.5956 30.1174 70.5956 27.6548 70.5272C26.2867 70.4588 25.0554 70.1167 23.9609 69.2275C27.176 68.6802 30.5962 70.0483 33.5377 67.8594Z" fill="#CECCCB"/>
<path d="M33.5393 74.6987C31.4871 74.2199 29.2298 75.8616 27.3828 74.0147C29.5718 72.9202 31.6239 73.399 33.5393 74.6987Z" fill="#C7C6C5"/>
<path d="M36.9589 75.3833C36.0696 75.1781 35.1119 74.9045 34.2227 74.6993C35.1119 72.9892 36.0696 73.7416 36.9589 74.6993C36.9589 74.9729 36.9589 75.1781 36.9589 75.3833Z" fill="#C7C6C5"/>
<path d="M242.578 24.1897C246.369 25.7081 242.578 25.2892 245.052 21.794C244.535 21.1867 245.569 17.7732 245.052 17.3177C242.64 15.0401 238.327 17.3255 234.881 18.6921C231.091 20.0586 243.612 21.4565 242.578 24.1897Z" fill="#D5D3D2"/>
<path d="M244.205 25.6535C244.974 24.7738 246.074 24.6089 247.118 24.2241C248.108 23.8942 249.042 23.5644 249.152 22.3549C248.987 22.19 248.768 21.9701 248.603 21.8051C246.019 20.5407 245.359 20.8706 243.655 24.0042C243.27 24.7189 242.995 25.4336 244.205 25.6535Z" fill="#C3C2C1"/>
<path d="M245.052 28.4541C245.822 27.5745 246.921 27.4096 247.966 27.0247C248.955 26.6949 249.065 27.3242 249.175 26.1147C249.01 25.9498 249.34 22.4314 249.175 22.2664C246.591 21.002 245.657 22.4315 243.952 25.5651C243.567 26.2798 243.842 28.2342 245.052 28.4541Z" fill="#BCBCBC"/>
<path d="M203.546 29.6878C203.687 29.6878 203.13 28.7935 203.271 28.7935C203.271 28.433 203.271 28.1241 203.271 27.7637C201.056 28.0726 198.519 27.6789 196.399 28.8632C196.493 29.4811 197.29 32.2551 198.048 31.8869C199.745 31.063 205.116 31.6817 203.546 29.6878Z" fill="#BDBDBC"/>
<path d="M232.164 45.9389C237.827 45.884 242.17 43.1901 243.709 38.7921C242.225 37.6926 240.63 38.1323 239.311 38.847C235.463 40.8262 231.229 40.8812 227.106 41.4859C225.787 41.7058 224.522 41.7608 223.918 43.1901C226.172 45.6091 229.085 46.0489 232.164 45.9389Z" fill="#B4B4B4"/>
<path d="M245.302 34.9446C246.126 33.955 245.742 32.7456 245.852 31.646C245.742 31.5911 245.632 31.4811 245.467 31.4261C244.202 31.2612 243.103 31.811 242.113 32.4157C236.781 35.6043 230.678 36.264 224.796 37.4735C222.982 37.8583 220.947 37.0887 219.683 39.1778C219.518 40.0024 219.793 40.6071 220.508 40.992C221.057 41.3768 221.607 41.7066 222.157 42.0915C227.874 41.2119 233.647 40.827 239.144 38.7929C241.563 37.9133 243.927 37.1986 245.302 34.9446Z" fill="#B8B8B7"/>
<path d="M245.302 34.9453C242.828 35.3301 240.959 37.0344 238.595 37.8041C234.197 39.2334 229.689 39.7832 225.181 40.4979C224.026 40.6628 222.762 40.7178 222.212 42.0922C222.762 42.477 223.312 42.8069 223.862 43.1917C230.624 42.532 237.276 41.3775 243.653 38.7936C245.082 37.914 245.357 36.4846 245.302 34.9453Z" fill="#B4B4B4"/>
<path d="M220.619 40.9925C220.454 40.4428 220.234 39.893 220.069 39.3433C220.344 38.6286 220.344 37.9139 220.289 37.1992C220.234 36.7044 219.959 36.3196 219.63 35.9897C218.695 35.1651 217.595 34.8902 216.331 35.2201C214.132 35.7698 211.878 35.8798 209.624 36.2096C208.195 36.4295 206.655 36.8143 206.875 38.8485C210.998 42.5318 215.506 43.4115 220.619 40.9925Z" fill="#B4B4B4"/>
<path d="M208.524 10.8105C205.28 10.9755 203.411 13.1745 201.762 15.5385C200.497 17.3527 199.618 19.4967 197.529 20.7062C197.364 21.091 197.144 21.4209 196.979 21.8057C196.814 22.1906 196.979 22.6304 197.364 22.6304C200.387 22.4105 203.521 23.4001 206.38 21.7508C206.6 21.5309 206.71 21.311 206.82 21.0361C206.875 19.8816 207.26 18.7271 207.15 17.5176C207.15 17.0228 207.15 16.528 207.205 16.0333C207.259 15.3736 207.699 14.7688 207.699 14.0541C207.754 13.6143 207.919 13.2295 208.139 12.8447C208.414 12.3499 208.799 11.965 208.799 11.3603C208.799 11.1404 208.689 10.9205 208.524 10.8105Z" fill="#D9D7D5"/>
<path d="M206.325 21.2554C203.246 21.7502 200.113 21.7502 196.979 21.8052C196.814 22.19 196.594 22.5199 196.429 22.9047C195.935 25.1038 197.309 24.499 198.573 24.499C200.223 24.554 202.312 23.0147 203.411 25.5985C203.466 25.8734 203.631 26.1483 203.796 26.3682C206.435 28.0725 211.933 27.6876 214.242 25.7085C214.406 25.2687 214.406 24.8289 214.242 24.3891C213.527 23.3445 212.372 22.7398 211.438 22.0251C211.218 21.8602 210.998 21.7502 210.723 21.6403C209.294 21.0905 207.919 19.7161 206.325 21.2554Z" fill="#D5D3D2"/>
<path d="M206.874 38.7926C207.094 38.5177 207.314 38.0779 207.589 38.0229C211.492 37.1433 215.396 35.9338 219.519 36.5936C219.629 36.4836 219.739 36.4286 219.849 36.3187C220.233 35.8239 220.233 35.2741 220.014 34.6694C219.739 34.0097 219.574 33.24 218.804 32.9102C214.791 33.35 210.723 33.7898 206.654 34.1746C205.5 34.2845 204.84 34.8893 204.675 36.0438C205.225 37.1433 205.72 38.2428 206.874 38.7926Z" fill="#B9B8B8"/>
<path d="M203.028 29.502C201.269 30.4365 198.905 29.7219 197.531 31.701C199.29 33.6251 201.324 35.1095 204.128 34.9995C204.238 34.8896 204.293 34.8346 204.403 34.7247C204.733 34.1199 204.458 33.5152 204.403 32.9105C204.458 32.1408 203.908 31.4811 203.908 30.7114C203.798 30.1617 203.578 29.7219 203.028 29.502Z" fill="#B6B6B6"/>
<path d="M195.934 22.9055C195.934 24.0051 195.934 25.1046 195.879 26.2041C198.683 26.479 201.487 26.3141 204.126 25.1046C204.566 24.6648 205.17 24.17 204.786 23.4553C204.456 22.8506 203.796 23.2904 203.301 23.3454C201.487 23.5653 199.618 23.1804 197.859 23.7302C197.089 23.9501 196.649 23.6202 196.429 22.8506C196.264 22.9056 196.099 22.9055 195.934 22.9055Z" fill="#D0CECC"/>
<path d="M204.676 36.0442C207.314 34.3949 210.338 34.9997 213.197 34.5049C215.121 34.175 217.1 34.0651 218.969 33.3504C219.409 31.5911 218.2 31.921 217.265 31.976C213.747 32.0859 210.393 33.6802 206.875 33.6252C205.665 33.6252 204.731 33.8452 204.181 34.9996C204.291 35.3295 204.511 35.7143 204.676 36.0442Z" fill="#BCBCBC"/>
<path d="M249.153 26.2036C247.339 24.6643 246.569 26.9183 245.305 27.3031C244.59 28.0178 244.37 28.8974 244.535 29.887C244.59 30.7666 245.14 31.3164 245.854 31.7012C247.723 30.2718 249.208 28.6775 249.153 26.2036Z" fill="#B8B8B7"/>
<path d="M243.656 24.0046C245.14 22.905 246.514 21.5306 248.604 21.8055C248.604 21.6406 248.604 21.4207 248.604 21.2558C248.219 20.706 247.889 20.1562 247.504 19.6065C246.295 19.2766 245.195 19.1117 244.205 20.1562C243.326 21.3107 243.821 22.6851 243.656 24.0046Z" fill="#CAC9C7"/>
<path d="M206.325 17.4068C206.545 18.5063 205.335 19.6058 206.325 20.7054C206.819 20.7054 207.314 20.6504 207.809 20.4855C212.812 20.3205 217.65 19.221 222.598 18.5613C228.37 17.7917 233.813 15.4827 238.87 12.6239C239.915 12.0742 241.014 11.1945 240.904 9.65521C240.52 9.10545 240.19 8.55569 239.805 8.00593C239.145 7.51115 238.376 7.45616 237.826 8.06089C235.847 10.04 233.263 10.8647 230.954 12.294C227.71 14.8229 223.972 15.5926 219.959 15.4826C219.684 15.4826 219.409 15.4827 219.134 15.5926C215.231 16.8571 211.108 16.4722 207.094 16.967C206.819 17.077 206.545 17.1869 206.325 17.4068Z" fill="#CDCBC9"/>
<path d="M232.66 2.06885C231.23 1.68402 229.746 1.29917 228.317 0.914338C228.152 0.914338 228.042 0.914351 227.877 0.859375C224.798 3.00344 221.61 4.70769 217.706 4.70769C216.112 4.70769 214.408 4.48777 212.924 5.31241C212.099 6.30198 210.175 6.63184 210.834 8.61097C210.999 8.83087 211.164 9.10575 211.439 9.16073C217.487 10.3152 228.097 8.94085 232.605 2.89349C232.77 2.61861 232.715 2.34373 232.66 2.06885Z" fill="#DBD8D7"/>
<path d="M213.473 24.4999C213.638 24.6649 213.803 24.8848 214.023 25.0497C214.188 25.2696 214.407 25.4345 214.627 25.5994C217.761 26.2592 220.51 24.6099 223.478 24.225C224.523 24.0601 225.403 24.1701 226.337 24.5549C229.966 23.3454 233.814 22.7407 237.112 20.6516C236.838 20.2118 235.078 19.717 236.948 19.2223C238.817 18.7275 240.136 17.2431 241.95 16.5834C243.765 15.9786 243.38 14.3844 242.61 12.955C241.456 12.6251 240.796 13.4498 240.026 14.1095C238.487 15.4289 236.838 16.3635 234.858 16.9133C229.086 19.772 223.204 22.026 216.606 22.081C215.067 22.1359 213.363 22.2459 213.473 24.4999Z" fill="#C1C0BF"/>
<path d="M244.205 25.6537C243.71 25.2139 243.655 24.6091 243.655 24.0044C243.49 24.0044 243.27 24.0044 243.105 24.0044C242.501 24.0044 241.786 23.8945 241.236 24.3343C236.893 28.0726 231.561 28.8423 226.173 29.6669C224.414 29.9418 222.709 29.7769 221.115 29.0072C220.51 28.9523 219.961 29.1721 219.466 29.502C218.586 30.3266 218.586 31.2062 219.081 32.2508C219.466 33.6802 220.84 32.9655 221.665 33.4603C221.94 33.5152 222.16 33.5152 222.435 33.4603C224.029 32.8555 225.623 32.3058 227.272 33.2404C232.605 32.5257 237.883 31.5911 242.501 28.5124C243.38 27.9077 244.26 27.5229 244.15 26.2584C244.26 25.9836 244.205 25.8186 244.205 25.6537Z" fill="#C9C7C6"/>
<path d="M240.905 21.8061C240.025 20.8166 238.871 20.6516 237.606 20.7066C233.978 24.2801 229.745 25.5445 224.797 24.3351C223.038 24.555 221.938 25.4346 221.883 27.3587C222.433 28.8981 223.642 29.3379 225.127 29.1729C226.666 29.008 228.15 29.3928 229.69 29.2279C233.263 28.2383 237.002 27.6886 240.08 25.2697C241.29 24.2801 241.894 23.2355 240.905 21.8061Z" fill="#D1CFCE"/>
<path d="M231.615 13.0089C234.639 11.7994 237.058 9.60036 239.861 8.06103C239.422 7.23639 239.092 6.3568 238.212 5.91699C235.683 7.67622 233.539 9.93024 230.296 10.8648C224.743 12.4042 219.355 14.4932 213.418 14.5482C211.109 14.6032 208.525 14.2733 206.381 15.7577C206.381 16.3074 206.381 16.8572 206.381 17.4069H206.656H206.931C211.164 17.242 215.397 16.9122 219.575 16.3074C219.74 16.3074 219.96 16.3074 220.125 16.3074C224.028 15.6477 227.987 14.988 231.615 13.0089Z" fill="#D0CECD"/>
<path d="M240.961 9.71094C235.189 14.6038 228.317 16.473 220.95 17.7924C216.277 18.617 211.439 18.4521 206.876 20.1564C207.866 21.6957 209.57 21.4758 210.889 21.3658C219.465 20.6512 227.877 19.1668 235.848 15.6484C236.618 15.3185 237.388 15.0986 238.267 15.0986C240.191 14.274 241.951 13.3943 241.566 10.8105C241.291 10.4256 241.126 10.0958 240.961 9.71094Z" fill="#C9C7C6"/>
<path d="M241.51 10.8105C240.905 12.4048 239.806 13.5044 238.211 14.1091C230.295 17.7375 222.048 20.1015 213.307 20.7062C212.153 20.7612 210.888 20.6512 210.723 22.3555C211.823 23.1801 212.867 23.2351 214.297 23.0152C218.915 22.1906 223.643 21.9157 228.151 20.3214C230.625 19.4418 233.099 18.5072 235.463 17.4077C238.596 17.1328 240.52 14.9887 242.609 13.0096C242.444 12.13 242.17 11.4153 241.51 10.8105Z" fill="#C5C4C2"/>
<path d="M206.325 15.7583C215.011 15.7583 223.533 14.4389 231.669 11.3052C234.473 10.2057 236.947 8.83132 238.156 5.9176C237.991 5.9176 237.826 5.8626 237.661 5.8626C237.057 5.36782 236.452 5.4228 235.957 5.97256C232.714 10.0408 227.766 10.3157 223.313 11.6351C217.925 13.2294 212.318 12.5697 206.875 13.5043C206.71 14.2739 206.545 15.0436 206.325 15.7583Z" fill="#D1CFCE"/>
<path d="M208.524 10.8105C208.524 10.9755 208.524 11.1954 208.524 11.3603C208.744 11.8001 209.129 12.13 209.569 12.13C217.321 12.5148 224.962 12.4598 231.889 8.1717C233.483 7.18213 234.638 5.80773 235.518 4.21342C235.078 3.55371 234.528 2.949 233.813 2.61914C231.504 3.22388 230.35 5.53285 228.261 6.52242C223.093 8.94136 217.65 9.60108 212.043 9.38118C210.449 9.27122 209.349 9.54609 208.524 10.8105Z" fill="#D7D5D3"/>
<path d="M208.524 10.8105C211.767 9.71097 215.231 10.4257 218.529 9.87593C224.357 8.94134 230.019 7.84181 233.812 2.6191C233.428 2.45417 233.098 2.23426 232.713 2.06934C230.184 3.77359 228.15 6.13754 225.016 7.07213C220.288 8.50151 215.615 9.21621 210.723 8.11669C210.503 7.78683 210.338 7.78683 210.118 8.11669C209.128 8.72143 208.743 9.71097 208.524 10.8105Z" fill="#D7D5D3"/>
<path d="M225.018 25.1045C229.086 27.3585 232.659 25.3244 236.233 23.7301C237.332 23.2353 237.827 22.0808 237.662 20.7614C237.497 20.7614 237.277 20.7614 237.113 20.7064C233.099 20.5964 229.581 22.2457 226.117 24.0049C225.238 23.84 224.798 24.1699 225.018 25.1045Z" fill="#D5D3D2"/>
<path d="M240.904 21.8057C240.85 24.4995 238.541 25.1042 236.781 25.9289C234.582 26.9734 232.218 27.5781 229.909 28.4028C227.6 29.0625 225.236 29.0625 222.872 28.6777C222.048 28.5677 221.223 28.2378 221.168 29.5023C221.608 30.272 222.323 30.6018 223.202 30.6018C230.459 30.272 237.606 29.5023 243.104 24.0047C242.554 23.0701 241.894 22.3004 240.904 21.8057Z" fill="#CDCCCA"/>
<path d="M235.516 4.21387C233.482 4.76363 232.658 6.79774 230.843 7.7873C225.896 10.4811 220.618 11.3608 215.12 11.4157C212.921 11.4157 210.722 11.4157 208.523 11.3607C208.138 11.7456 207.808 12.0754 207.424 12.4603C207.644 13.3399 208.303 13.5598 209.073 13.5598C217.374 13.5048 225.566 12.6802 233.042 8.66694C234.637 7.78732 236.011 6.63283 236.506 4.81862C236.176 4.59872 235.846 4.3788 235.516 4.21387Z" fill="#D4D2D1"/>
<path d="M236.563 4.7627C231.34 10.0404 224.743 11.7996 217.651 12.5143C214.242 12.8442 210.834 13.5588 207.425 12.4593C207.26 12.8442 207.041 13.174 206.876 13.5588C207.59 13.7238 208.25 14.0536 208.965 14.0536C216.716 14.2186 224.248 12.8442 231.615 10.3153C234.089 9.49065 235.518 7.12666 237.662 5.86221C237.277 5.47738 236.892 5.14753 236.563 4.7627Z" fill="#D4D2D0"/>
<path d="M244.203 20.1562C245.413 20.7059 246.457 20.1012 247.502 19.6064C247.337 19.3865 247.227 19.1116 247.062 18.9467C246.292 18.1221 245.413 16.8027 244.313 17.2974C243.104 17.7922 244.533 19.1666 244.203 20.1562Z" fill="#D0CECC"/>
<path d="M228.316 0.969144C227.987 0.969144 227.602 0.914148 227.272 0.914148C226.172 0.0345329 224.798 0.529316 223.588 0.364389C221.224 -0.240347 218.97 -0.185351 216.881 1.24402C216.497 2.34354 215.287 2.45349 214.627 3.16818C214.462 3.33311 214.298 3.49802 214.078 3.66295C213.693 4.2127 213.308 4.76248 212.923 5.25726C216.936 6.41176 220.785 5.75206 224.688 4.37766C226.447 3.77292 227.162 2.17861 228.316 0.969144Z" fill="#DBD9D8"/>
<path d="M210.118 8.06227C210.338 8.06227 210.558 8.06227 210.723 8.06227C211.438 7.12768 212.152 6.19309 212.922 5.31348C211.438 5.69831 210.558 6.6329 210.118 8.06227Z" fill="#DBD9D8"/>
<path d="M245.852 31.6462C245.687 31.0964 245.467 30.5467 245.302 29.9969C243.598 28.8974 242.003 29.9969 240.794 30.7116C237.77 32.4159 234.636 33.5704 231.228 34.1751C228.094 35.0547 225.016 36.1542 221.717 36.3192C220.673 36.3741 220.068 36.9789 219.518 37.6936C219.683 38.2433 219.903 38.7931 220.068 39.3428C223.201 37.8585 226.72 38.2433 230.018 37.5286C230.678 37.3637 231.448 37.4737 232.163 37.2538C236.891 35.7144 241.728 34.6149 245.852 31.6462Z" fill="#BCBBBB"/>
<path d="M219.519 37.694C223.587 36.8693 227.71 36.5395 231.613 34.9452C231.228 34.0656 230.514 33.7357 229.634 33.9556C226.995 34.5604 224.301 34.7802 221.663 35.1101C220.673 35.2201 220.013 35.7148 219.574 36.5945C219.519 36.9793 219.519 37.3641 219.519 37.694Z" fill="#BEBDBC"/>
<path d="M210.723 22.3548C212.647 20.4306 215.231 21.3653 217.485 20.8705C222.873 19.8259 228.15 18.7814 233.208 16.5274C234.912 15.7577 236.946 15.8127 238.211 14.1084C233.538 15.5927 228.92 17.1871 224.247 18.4515C218.969 19.8259 213.582 20.3207 208.139 20.5956C207.754 20.5956 207.314 20.3207 206.93 20.1558C206.38 19.9908 206.435 20.4306 206.38 20.7055C206.38 20.8704 206.38 21.0354 206.38 21.2553C207.919 21.0903 209.239 21.97 210.723 22.3548Z" fill="#C8C7C5"/>
<path d="M214.572 25.1045C214.407 25.1045 214.242 25.1045 214.022 25.1045C210.778 26.6438 207.535 26.7538 204.126 25.6543C203.301 25.4893 203.137 26.0391 202.917 26.5888C202.862 27.0287 203.027 27.4135 203.246 27.8533C203.246 29.0628 203.906 29.8324 205.061 29.8324C208.414 29.8324 211.768 29.5026 215.011 28.458C215.671 28.2381 216.001 27.6884 216.111 26.9737C216.166 25.8192 215.286 25.5443 214.572 25.1045Z" fill="#D0CECC"/>
<path d="M235.463 17.4072C231.23 18.6717 226.997 20.0461 222.708 21.0906C218.805 22.0252 214.792 22.6299 210.724 22.3551C211.383 23.3996 212.538 23.8394 213.473 24.5541C214.682 22.7399 216.551 23.0697 218.365 22.9048C224.468 22.3001 230.295 20.8707 235.463 17.4072Z" fill="#C3C2C1"/>
<path d="M203.577 26.7537C203.742 26.3689 203.962 26.0391 204.127 25.6542C204.127 25.4893 204.127 25.2694 204.127 25.1045C201.323 24.9395 198.519 25.1045 195.881 26.204C195.881 26.7537 195.881 27.3035 195.881 27.8533C198.519 27.9082 201.158 28.0732 203.577 26.7537Z" fill="#CAC8C7"/>
<path d="M215.671 26.6979C213.692 28.4021 211.218 28.5671 208.799 28.5121C207.04 28.4571 205.061 29.9415 203.577 27.7974C203.412 27.6325 203.192 27.6325 203.027 27.7974C203.027 28.3472 203.027 28.8969 203.027 29.4467C203.027 29.9964 203.027 30.5462 203.082 31.096C205.611 32.5253 215.342 31.1509 217.376 29.1168C217.486 29.0069 217.541 28.787 217.596 28.622C217.651 27.3026 217.156 26.533 215.671 26.6979Z" fill="#CAC8C7"/>
<path d="M203.026 27.7978C203.191 27.7978 203.411 27.7978 203.576 27.7978C203.576 27.4129 203.576 27.0831 203.576 26.6982C200.992 27.0281 198.353 26.5333 195.88 27.7978C195.989 28.4575 196.264 29.3371 196.979 28.9522C198.958 28.0726 201.157 28.7873 203.026 27.7978Z" fill="#C4C2C1"/>
<path d="M215.671 26.698C216.386 27.0828 216.936 27.6326 217.321 28.3473C216.936 30.6563 215.122 31.0411 213.307 31.0411C210.834 30.9861 208.47 31.4809 206.051 31.8657C204.951 32.0307 204.236 32.4705 203.577 33.2951C203.742 33.8449 203.962 34.3946 204.127 34.9444C208.305 34.2847 212.483 33.7899 216.606 32.8003C217.321 32.6354 218.42 31.9757 218.97 33.2951C218.97 33.8998 219.025 34.5046 219.52 34.9444C219.63 34.8894 219.74 34.7794 219.85 34.7245C220.179 34.2847 220.234 33.7899 220.07 33.2951C219.905 33.0752 219.74 32.9103 219.575 32.7453C219.63 31.8108 219.355 30.8212 220.125 29.9966C220.509 28.7871 222.159 28.6222 222.324 27.2478C223.038 26.2582 223.753 25.2686 225.072 25.0487C225.457 24.6639 225.787 24.334 226.172 23.9492C225.017 22.2449 223.368 23.0696 221.994 23.2895C219.52 23.7293 217.101 24.444 214.627 25.0487C214.902 25.6535 215.287 26.2032 215.671 26.698Z" fill="#BEBDBC"/>
<path d="M219.519 36.5949C223.477 35.7703 227.49 35.0556 231.613 34.9457C236.726 34.7807 240.575 31.1523 245.357 29.9978C245.357 29.0632 245.357 28.1836 245.357 27.249C245.192 27.249 244.973 27.249 244.808 27.249C239.585 30.1627 234.087 32.1969 228.205 33.1315C226.226 33.4063 224.247 33.6262 222.268 33.5713C221.113 33.5713 220.068 33.7362 219.574 34.9457C219.519 35.4954 219.519 36.0452 219.519 36.5949Z" fill="#C1C0BF"/>
<path d="M203.575 33.2952C206.488 32.7455 209.402 32.0857 212.426 32.2507C214.24 32.3056 215.834 31.7559 217.319 30.9313C218.693 30.1616 218.858 29.227 217.319 28.4023C215.449 29.6668 213.36 30.1066 211.106 30.1066C208.357 30.1066 205.829 31.426 203.025 31.1511C203.245 31.8658 203.41 32.5805 203.575 33.2952Z" fill="#C5C4C3"/>
<path d="M219.52 34.9456C220.29 34.7806 221.114 34.3958 221.884 34.4508C229.141 34.8356 235.573 32.0318 242.17 29.6129C243.325 29.1731 244.149 28.2935 244.754 27.2489C244.589 26.8641 244.369 26.5342 244.204 26.1494C239.256 30.1627 233.374 31.647 227.162 32.1968C225.512 32.4167 223.808 31.9769 222.214 32.7465C222.049 32.7465 221.829 32.7465 221.664 32.7465C220.784 32.3617 220.125 32.8565 219.465 33.2963C219.52 33.846 219.52 34.3958 219.52 34.9456Z" fill="#C4C3C2"/>
<path d="M216.771 2.01465C216.607 2.01465 216.387 2.01465 216.222 2.01465C215.452 2.06962 214.902 2.45448 214.572 3.16916C215.397 3.00424 216.167 2.67436 216.771 2.01465Z" fill="#BCBCBC"/>
<path d="M231.613 13.0088C227.82 14.2183 223.752 14.6581 220.068 16.3073C224.301 16.5822 228.205 15.6476 231.613 13.0088Z" fill="#CDCBCA"/>
<path d="M219.52 16.3075C215.286 16.2525 211.053 16.5274 206.875 17.407C210.064 18.3966 213.252 17.1321 216.441 17.1321C217.43 17.1321 218.64 17.0772 219.52 16.3075Z" fill="#CDCBCA"/>
<path d="M227.217 0.36477C225.952 0.474722 224.578 0.0349279 223.368 0.859567C224.688 0.859567 225.952 0.859567 227.271 0.859567C227.217 0.749615 227.217 0.529698 227.217 0.36477Z" fill="#CECCCB"/>
<path d="M222.268 27.249C221.279 27.9637 220.289 28.6784 220.069 29.9978C220.454 29.8329 220.784 29.613 221.169 29.4481C223.093 29.4481 225.017 29.4481 226.996 29.3931C228.096 29.3381 229.085 29.0632 229.965 28.3485C227.381 27.9087 224.632 29.0083 222.268 27.249Z" fill="#CECCCB"/>
<path d="M222.267 32.745C223.916 32.3602 225.73 33.6796 227.215 32.1952C225.456 31.3156 223.806 31.7005 222.267 32.745Z" fill="#C7C6C5"/>
<path d="M219.52 33.2959C220.234 33.131 221.004 32.9111 221.719 32.7462C221.004 31.3718 220.234 31.9765 219.52 32.7462C219.52 32.9661 219.52 33.131 219.52 33.2959Z" fill="#C7C6C5"/>
<path d="M160.127 101.371C157.239 102.127 160.026 102.169 158.551 99.4081C158.981 99.0148 158.543 96.4448 158.96 96.1616C160.917 94.7298 163.836 96.7809 166.21 98.0866C168.835 99.4236 159.626 99.2948 160.127 101.371Z" fill="#D5D3D2"/>
<path d="M158.813 102.284C158.335 101.576 157.553 101.356 156.83 100.981C156.143 100.652 155.495 100.327 155.526 99.4401C155.66 99.3355 155.84 99.1961 155.974 99.0916C157.964 98.4103 158.412 98.7097 159.362 101.138C159.576 101.691 159.71 102.235 158.813 102.284Z" fill="#C3C2C1"/>
<path d="M157.942 104.238C157.464 103.53 156.681 103.31 155.959 102.936C155.271 102.606 155.134 103.052 155.165 102.165C155.299 102.061 155.381 99.4788 155.516 99.3742C157.505 98.693 158.053 99.815 159.003 102.243C159.217 102.797 158.839 104.189 157.942 104.238Z" fill="#BCBCBC"/>
<path d="M187.933 108.92C187.83 108.908 188.316 108.31 188.214 108.297C188.247 108.036 188.275 107.811 188.308 107.55C189.886 107.976 191.762 107.922 193.192 108.975C193.067 109.414 192.236 111.353 191.719 111.017C190.564 110.265 186.612 110.223 187.933 108.92Z" fill="#BDBDBC"/>
<path d="M165.695 118.094C161.594 117.538 158.689 115.188 157.974 111.857C159.151 111.195 160.268 111.66 161.159 112.299C163.77 114.085 166.835 114.511 169.77 115.326C170.707 115.606 171.619 115.761 171.927 116.853C170.072 118.402 167.918 118.455 165.695 118.094Z" fill="#B4B4B4"/>
<path d="M157.169 108.922C156.661 108.129 157.05 107.287 157.071 106.48C157.156 106.45 157.246 106.38 157.37 106.355C158.302 106.351 159.05 106.85 159.712 107.379C163.289 110.178 167.654 111.214 171.81 112.628C173.091 113.073 174.636 112.7 175.363 114.331C175.407 114.944 175.153 115.357 174.599 115.571C174.165 115.8 173.736 115.989 173.303 116.218C169.236 115.058 165.085 114.252 161.283 112.275C159.609 111.417 157.96 110.683 157.169 108.922Z" fill="#B8B8B7"/>
<path d="M157.171 108.922C158.93 109.427 160.13 110.834 161.774 111.608C164.834 113.046 168.053 113.856 171.257 114.786C172.079 115.011 172.991 115.166 173.265 116.213C172.831 116.442 172.402 116.631 171.968 116.86C167.124 115.764 162.405 114.32 158.016 111.864C157.059 111.096 156.99 110.034 157.171 108.922Z" fill="#B4B4B4"/>
<path d="M174.519 115.56C174.689 115.176 174.899 114.797 175.069 114.414C174.934 113.87 175 113.352 175.105 112.839C175.19 112.485 175.424 112.231 175.694 112.022C176.447 111.509 177.269 111.41 178.156 111.764C179.701 112.364 181.326 112.649 182.93 113.094C183.947 113.384 185.028 113.804 184.683 115.259C181.357 117.554 178.007 117.781 174.519 115.56Z" fill="#B4B4B4"/>
<path d="M186.045 94.7751C188.382 95.1907 189.537 96.9562 190.518 98.8212C191.269 100.252 191.712 101.888 193.116 102.956C193.201 103.25 193.33 103.509 193.415 103.803C193.499 104.097 193.34 104.401 193.06 104.366C190.888 103.931 188.524 104.362 186.602 102.905C186.462 102.726 186.403 102.556 186.348 102.347C186.413 101.505 186.24 100.632 186.43 99.7649C186.475 99.4061 186.52 99.0472 186.525 98.6834C186.546 98.1999 186.282 97.7211 186.347 97.2028C186.347 96.8788 186.263 96.5847 186.139 96.2855C185.984 95.9015 185.74 95.5873 185.796 95.1487C185.816 94.9892 185.915 94.8398 186.045 94.7751Z" fill="#D9D7D5"/>
<path d="M186.687 102.55C188.874 103.19 191.147 103.476 193.415 103.802C193.499 104.096 193.629 104.355 193.713 104.649C193.871 106.289 192.93 105.725 192.013 105.61C190.812 105.499 189.437 104.192 188.404 105.966C188.339 106.16 188.194 106.344 188.054 106.489C185.985 107.484 182.033 106.703 180.539 105.057C180.459 104.723 180.499 104.404 180.659 104.1C181.273 103.408 182.165 103.075 182.908 102.642C183.083 102.542 183.252 102.482 183.462 102.428C184.549 102.159 185.671 101.288 186.687 102.55Z" fill="#D5D3D2"/>
<path d="M184.686 115.22C184.552 115.001 184.433 114.662 184.238 114.597C181.488 113.603 178.767 112.369 175.716 112.471C175.647 112.382 175.572 112.332 175.502 112.242C175.268 111.848 175.318 111.449 175.533 111.031C175.793 110.577 175.983 110.034 176.571 109.865C179.441 110.55 182.352 111.241 185.267 111.891C186.095 112.076 186.518 112.575 186.532 113.427C186.033 114.175 185.574 114.927 184.686 115.22Z" fill="#B9B8B8"/>
<path d="M188.325 108.832C189.516 109.671 191.296 109.368 192.112 110.929C190.66 112.164 189.05 113.055 187.026 112.719C186.957 112.629 186.922 112.585 186.852 112.495C186.668 112.026 186.923 111.613 187.018 111.179C187.048 110.616 187.507 110.188 187.577 109.629C187.707 109.241 187.907 108.942 188.325 108.832Z" fill="#B6B6B6"/>
<path d="M194.072 104.696C193.971 105.493 193.871 106.291 193.811 107.093C191.752 107.037 189.734 106.661 187.93 105.543C187.651 105.184 187.258 104.77 187.602 104.287C187.897 103.878 188.335 104.257 188.689 104.342C189.984 104.667 191.375 104.559 192.601 105.118C193.139 105.348 193.488 105.149 193.718 104.611C193.832 104.666 193.952 104.681 194.072 104.696Z" fill="#D0CECC"/>
<path d="M186.534 113.427C184.771 111.99 182.523 112.153 180.494 111.533C179.129 111.118 177.704 110.858 176.413 110.169C176.255 108.853 177.102 109.202 177.775 109.328C180.316 109.728 182.603 111.191 185.16 111.472C186.037 111.582 186.695 111.827 186.988 112.715C186.878 112.944 186.684 113.203 186.534 113.427Z" fill="#BCBCBC"/>
<path d="M155.175 102.231C156.631 101.281 156.984 102.986 157.866 103.38C158.319 103.964 158.398 104.622 158.188 105.324C158.068 105.957 157.619 106.306 157.066 106.52C155.841 105.312 154.91 104.021 155.175 102.231Z" fill="#B8B8B7"/>
<path d="M159.361 101.138C158.385 100.205 157.514 99.0827 155.974 99.0914C155.989 98.9718 156.009 98.8123 156.024 98.6927C156.353 98.3291 156.643 97.9604 156.972 97.5968C157.879 97.468 158.692 97.4487 159.314 98.2966C159.847 99.2142 159.362 100.166 159.361 101.138Z" fill="#CAC9C7"/>
<path d="M187.04 99.7596C186.78 100.537 187.557 101.445 186.739 102.152C186.38 102.107 186.026 102.022 185.682 101.857C182.069 101.281 178.66 100.042 175.132 99.1118C171.016 98.0268 167.279 95.8555 163.872 93.3206C163.164 92.8265 162.447 92.0882 162.668 90.9818C162.997 90.6182 163.286 90.2496 163.616 89.886C164.139 89.5874 164.702 89.6177 165.046 90.1065C166.301 91.7225 168.099 92.5564 169.644 93.8038C171.765 95.9339 174.406 96.8333 177.327 97.1198C177.526 97.1449 177.726 97.17 177.915 97.2748C180.631 98.5481 183.656 98.6453 186.522 99.3704C186.711 99.4752 186.9 99.58 187.04 99.7596Z" fill="#CDCBC9"/>
<path d="M169.34 86.2328C170.411 86.0841 171.523 85.9405 172.595 85.7918C172.715 85.8069 172.794 85.8169 172.919 85.7921C174.956 87.6281 177.113 89.1551 179.944 89.5113C181.1 89.6568 182.356 89.6529 183.358 90.3864C183.865 91.1794 185.231 91.5942 184.572 92.9694C184.432 93.1138 184.287 93.2981 184.083 93.3129C179.592 93.5983 172.022 91.6332 169.304 86.8359C169.21 86.6215 169.275 86.4271 169.34 86.2328Z" fill="#DBD8D7"/>
<path d="M181.207 104.252C181.073 104.356 180.933 104.501 180.758 104.6C180.619 104.745 180.444 104.844 180.27 104.944C177.937 105.136 176.094 103.689 173.976 103.139C173.233 102.924 172.585 102.924 171.872 103.118C169.351 101.909 166.615 101.119 164.413 99.3033C164.653 99.0094 165.974 98.8111 164.663 98.2817C163.353 97.7523 162.532 96.5553 161.276 95.9112C160.015 95.3071 160.44 94.1859 161.129 93.2195C161.996 93.0856 162.399 93.7439 162.897 94.2926C163.893 95.39 165.004 96.2184 166.389 96.7977C170.315 99.3979 174.376 101.569 179.155 102.211C180.267 102.392 181.493 102.627 181.207 104.252Z" fill="#C1C0BF"/>
<path d="M158.811 102.283C159.21 102.01 159.306 101.576 159.361 101.137C159.48 101.152 159.64 101.173 159.759 101.188C160.198 101.243 160.726 101.228 161.085 101.597C163.894 104.705 167.691 105.75 171.523 106.84C172.774 107.2 174.025 107.236 175.252 106.823C175.695 106.838 176.074 107.048 176.403 107.332C176.965 108.011 176.885 108.649 176.431 109.361C176.021 110.362 175.09 109.719 174.447 110.002C174.242 110.017 174.083 109.997 173.888 109.932C172.787 109.348 171.681 108.804 170.4 109.331C166.597 108.326 162.855 107.167 159.787 104.512C159.204 103.993 158.601 103.634 158.796 102.727C158.741 102.518 158.796 102.403 158.811 102.283Z" fill="#C9C7C6"/>
<path d="M161.559 99.7957C162.287 99.1583 163.14 99.1441 164.052 99.2993C166.357 102.222 169.312 103.526 173.011 103.1C174.267 103.42 174.984 104.158 174.848 105.559C174.309 106.625 173.391 106.834 172.33 106.579C171.229 106.318 170.117 106.462 169.016 106.202C166.514 105.158 163.853 104.418 161.841 102.383C161.054 101.555 160.711 100.742 161.559 99.7957Z" fill="#D1CFCE"/>
<path d="M169.099 94.2623C167.017 93.1091 165.463 91.2935 163.57 89.9212C163.964 89.3633 164.284 88.7554 164.962 88.5167C166.635 90.0234 167.985 91.8539 170.252 92.8277C174.138 94.4509 177.855 96.4577 182.156 97.0394C183.826 97.29 185.73 97.2866 187.15 98.5588C187.099 98.9575 187.049 99.3562 186.999 99.7549L186.8 99.7299L186.6 99.7048C183.545 99.1988 180.505 98.5733 177.53 97.7534C177.411 97.7383 177.251 97.7183 177.131 97.7032C174.361 96.8685 171.55 96.0288 169.099 94.2623Z" fill="#D0CECD"/>
<path d="M162.62 91.0161C166.36 95.0915 171.173 97.0743 176.396 98.7036C179.71 99.7281 183.233 100.05 186.387 101.702C185.529 102.729 184.313 102.414 183.366 102.213C177.211 100.912 171.246 99.0682 165.786 95.7889C165.258 95.4794 164.72 95.2497 164.082 95.1694C162.762 94.3958 161.566 93.5972 162.081 91.7584C162.315 91.5043 162.465 91.2802 162.62 91.0161Z" fill="#C9C7C6"/>
<path d="M162.122 91.7644C162.415 92.9759 163.112 93.8737 164.213 94.4578C169.623 97.8118 175.388 100.279 181.673 101.515C182.505 101.66 183.432 101.696 183.396 102.947C182.524 103.445 181.761 103.389 180.745 103.1C177.471 102.08 174.067 101.449 170.943 99.8815C169.229 99.0178 167.52 98.1141 165.906 97.101C163.658 96.6156 162.458 94.885 161.124 93.2589C161.323 92.636 161.588 92.1428 162.122 91.7644Z" fill="#C5C4C2"/>
<path d="M187.189 98.5643C180.889 97.7715 174.829 96.0369 169.214 93.0217C167.281 91.9684 165.612 90.7458 165.001 88.5222C165.121 88.5372 165.245 88.5124 165.365 88.5275C165.849 88.2238 166.282 88.3189 166.591 88.7627C168.572 92.0093 172.136 92.6602 175.245 94.0235C179.007 95.6715 183.134 95.7048 186.996 96.8793C187.045 97.4526 187.095 98.0258 187.189 98.5643Z" fill="#D1CFCE"/>
<path d="M186.044 94.7745C186.029 94.8941 186.009 95.0536 185.994 95.1732C185.795 95.4721 185.485 95.6762 185.167 95.6361C179.509 95.2078 173.972 94.4705 169.34 90.7283C168.274 89.8651 167.562 88.763 167.069 87.5264C167.449 87.0881 167.902 86.6997 168.451 86.5256C170.07 87.175 170.697 88.9549 172.122 89.8633C175.649 92.0893 179.536 93.0645 183.623 93.4167C184.789 93.4825 185.562 93.7822 186.044 94.7745Z" fill="#D7D5D3"/>
<path d="M186.045 94.7755C183.793 93.682 181.216 93.8843 178.874 93.1846C174.733 91.9749 170.726 90.6607 168.452 86.5267C168.746 86.4422 169.005 86.3128 169.299 86.2283C170.978 87.6951 172.238 89.5952 174.425 90.559C177.723 92.0272 181.047 92.972 184.696 92.6211C184.886 92.4019 185.006 92.417 185.135 92.6763C185.797 93.2052 185.986 93.958 186.045 94.7755Z" fill="#D7D5D3"/>
<path d="M172.78 103.636C169.623 104.9 167.217 103.099 164.771 101.616C164.019 101.157 163.765 100.275 164.005 99.3326C164.125 99.3477 164.284 99.3677 164.409 99.3429C167.33 99.6294 169.731 101.147 172.082 102.739C172.735 102.699 173.024 102.979 172.78 103.636Z" fill="#D5D3D2"/>
<path d="M161.556 99.7954C161.35 101.754 162.969 102.403 164.17 103.162C165.669 104.12 167.329 104.775 168.928 105.584C170.543 106.273 172.257 106.488 174.007 106.425C174.615 106.421 175.243 106.257 175.167 107.179C174.778 107.697 174.23 107.871 173.592 107.79C168.359 106.889 163.246 105.679 159.76 101.19C160.244 100.562 160.793 100.064 161.556 99.7954Z" fill="#CDCCCA"/>
<path d="M167.071 87.5278C168.496 88.1122 168.909 89.6627 170.134 90.546C173.477 92.9512 177.224 94.0709 181.206 94.6125C182.801 94.8131 184.396 95.0138 185.996 95.1746C186.24 95.4889 186.449 95.7582 186.693 96.0724C186.454 96.6903 185.955 96.7896 185.397 96.7193C179.381 95.9219 173.515 94.5762 168.459 90.9832C167.383 90.1998 166.492 89.237 166.298 87.8761C166.558 87.7467 166.817 87.6173 167.071 87.5278Z" fill="#D4D2D1"/>
<path d="M166.262 87.8298C169.568 92.1342 174.193 94.0122 179.271 95.1777C181.713 95.728 184.12 96.5574 186.692 96.0711C186.777 96.3652 186.906 96.6245 186.99 96.9187C186.457 96.9731 185.949 97.1521 185.43 97.0869C179.793 96.4991 174.456 94.8149 169.344 92.3085C167.625 91.4846 166.804 89.6397 165.364 88.5269C165.679 88.283 165.988 88.0788 166.262 87.8298Z" fill="#D4D2D0"/>
<path d="M159.317 98.2964C158.39 98.5848 157.687 98.0509 156.975 97.5967C157.114 97.4522 157.219 97.2629 157.354 97.1584C157.987 96.6305 158.746 95.7539 159.498 96.2131C160.33 96.6823 159.168 97.5486 159.317 98.2964Z" fill="#D0CECC"/>
<path d="M172.591 85.8318C172.83 85.8619 173.115 85.8571 173.354 85.8872C174.232 85.3496 175.183 85.8339 176.075 85.8247C177.845 85.6018 179.475 85.8474 180.86 87.0747C181.038 87.9073 181.905 88.0974 182.319 88.676C182.423 88.8106 182.528 88.9453 182.672 89.085C182.901 89.5188 183.13 89.9527 183.364 90.3466C180.348 90.8177 177.617 89.988 174.912 88.635C173.691 88.0359 173.318 86.8143 172.591 85.8318Z" fill="#DBD9D8"/>
<path d="M185.14 92.6372C184.981 92.6171 184.821 92.597 184.701 92.582C184.268 91.8389 183.835 91.0959 183.357 90.3877C184.399 90.8023 184.952 91.5604 185.14 92.6372Z" fill="#DBD9D8"/>
<path d="M157.071 106.479C157.24 106.096 157.45 105.717 157.62 105.333C158.956 104.691 160.012 105.634 160.824 106.263C162.862 107.775 165.029 108.898 167.446 109.648C169.638 110.572 171.771 111.65 174.148 112.071C174.901 112.206 175.284 112.7 175.617 113.268C175.448 113.652 175.238 114.031 175.068 114.414C172.931 113.052 170.344 113.01 168.017 112.19C167.554 112.011 166.985 112.02 166.487 111.795C163.199 110.248 159.79 109.009 157.071 106.479Z" fill="#BCBBBB"/>
<path d="M175.618 113.269C172.743 112.3 169.782 111.684 167.097 110.172C167.456 109.569 168.005 109.395 168.623 109.635C170.481 110.314 172.415 110.719 174.299 111.2C175.007 111.37 175.44 111.789 175.679 112.467C175.683 112.751 175.648 113.03 175.618 113.269Z" fill="#BEBDBC"/>
<path d="M183.396 102.945C182.176 101.374 180.217 101.816 178.628 101.252C174.815 100.003 171.083 98.7633 167.621 96.667C166.455 95.9533 164.974 95.8075 164.213 94.4561C167.467 95.9591 170.67 97.5368 173.944 98.8803C177.646 100.359 181.509 101.209 185.431 101.905C185.71 101.941 186.054 101.781 186.348 101.697C186.762 101.627 186.682 101.941 186.697 102.146C186.682 102.265 186.667 102.385 186.647 102.544C185.545 102.284 184.508 102.802 183.396 102.945Z" fill="#C8C7C5"/>
<path d="M180.356 104.59C180.476 104.605 180.596 104.62 180.755 104.64C182.967 106.053 185.31 106.428 187.882 105.942C188.495 105.898 188.565 106.311 188.674 106.73C188.674 107.054 188.519 107.318 188.319 107.617C188.209 108.494 187.66 108.992 186.823 108.887C184.391 108.581 181.989 108.036 179.731 106.982C179.273 106.762 179.084 106.333 179.069 105.805C179.135 104.963 179.798 104.844 180.356 104.59Z" fill="#D0CECC"/>
<path d="M165.904 97.1016C168.859 98.4049 171.804 99.7881 174.818 100.937C177.564 101.971 180.42 102.776 183.395 102.948C182.821 103.645 181.944 103.859 181.201 104.292C180.489 102.866 179.104 102.934 177.803 102.649C173.432 101.654 169.336 100.085 165.904 97.1016Z" fill="#C3C2C1"/>
<path d="M188.179 106.79C188.094 106.496 187.965 106.236 187.88 105.942C187.895 105.823 187.916 105.663 187.931 105.544C189.979 105.68 191.998 106.055 193.811 107.094C193.761 107.492 193.711 107.891 193.661 108.29C191.742 108.089 189.813 107.968 188.179 106.79Z" fill="#CAC8C7"/>
<path d="M179.412 105.644C180.692 107.061 182.471 107.406 184.231 107.587C185.511 107.708 186.811 108.965 188.084 107.545C188.218 107.441 188.378 107.461 188.482 107.596C188.432 107.994 188.382 108.393 188.332 108.792C188.282 109.19 188.231 109.589 188.141 109.983C186.177 110.789 179.245 108.904 177.955 107.243C177.886 107.153 177.866 106.989 177.841 106.864C177.921 105.902 178.351 105.389 179.412 105.644Z" fill="#CAC8C7"/>
<path d="M188.482 107.598C188.362 107.583 188.203 107.562 188.083 107.547C188.118 107.268 188.148 107.029 188.184 106.75C190.027 107.225 191.986 107.107 193.665 108.25C193.525 108.718 193.246 109.331 192.763 108.987C191.407 108.168 189.747 108.486 188.482 107.598Z" fill="#C4C2C1"/>
<path d="M179.411 105.644C178.858 105.858 178.409 106.207 178.065 106.69C178.133 108.399 179.414 108.844 180.729 109.01C182.529 109.196 184.198 109.77 185.917 110.27C186.7 110.49 187.178 110.874 187.581 111.533C187.411 111.916 187.202 112.295 187.032 112.679C184.062 111.819 181.077 111.079 178.176 109.985C177.673 109.8 176.936 109.221 176.417 110.128C176.362 110.566 176.267 111 175.868 111.274C175.793 111.224 175.723 111.134 175.648 111.084C175.449 110.735 175.455 110.371 175.619 110.027C175.759 109.883 175.894 109.778 176.028 109.674C176.074 108.991 176.363 108.298 175.881 107.63C175.712 106.718 174.531 106.448 174.537 105.436C174.108 104.653 173.68 103.87 172.744 103.59C172.5 103.276 172.29 103.006 172.047 102.692C173.039 101.562 174.16 102.31 175.137 102.595C176.891 103.14 178.58 103.879 180.319 104.543C180.065 104.957 179.735 105.32 179.411 105.644Z" fill="#BEBDBC"/>
<path d="M175.719 112.472C172.923 111.513 170.078 110.628 167.098 110.172C163.405 109.586 160.945 106.603 157.581 105.33C157.666 104.652 157.747 104.014 157.832 103.336C157.952 103.351 158.111 103.371 158.231 103.386C161.753 105.976 165.554 107.953 169.735 109.168C171.146 109.548 172.561 109.888 174.001 110.028C174.839 110.134 175.581 110.349 175.83 111.271C175.819 111.675 175.769 112.074 175.719 112.472Z" fill="#C1C0BF"/>
<path d="M187.584 111.536C185.521 110.871 183.468 110.127 181.26 109.97C179.939 109.844 178.833 109.3 177.832 108.567C176.905 107.883 176.871 107.19 178.063 106.733C179.303 107.82 180.778 108.33 182.413 108.536C184.406 108.786 186.12 109.974 188.179 110.031C187.954 110.529 187.769 111.032 187.584 111.536Z" fill="#C5C4C3"/>
<path d="M175.87 111.276C175.326 111.086 174.764 110.732 174.2 110.702C168.902 110.318 164.493 107.698 159.929 105.341C159.132 104.917 158.614 104.204 158.271 103.391C158.425 103.127 158.615 102.908 158.77 102.644C161.992 106.006 166.123 107.62 170.578 108.585C171.754 108.895 173.031 108.732 174.117 109.435C174.236 109.451 174.396 109.471 174.515 109.486C175.188 109.287 175.622 109.706 176.06 110.085C175.97 110.479 175.92 110.877 175.87 111.276Z" fill="#C4C3C2"/>
<path d="M180.867 87.6436C180.987 87.6586 181.146 87.6787 181.266 87.6937C181.819 87.8038 182.183 88.1331 182.357 88.6816C181.774 88.4867 181.246 88.1772 180.867 87.6436Z" fill="#BCBCBC"/>
<path d="M169.1 94.2627C171.74 95.4861 174.651 96.1763 177.172 97.7086C174.076 97.5217 171.331 96.4876 169.1 94.2627Z" fill="#CDCBCA"/>
<path d="M177.57 97.7578C180.645 98.1043 183.69 98.6899 186.64 99.7092C184.237 100.136 182.04 98.9278 179.727 98.6369C179.01 98.5465 178.137 98.3963 177.57 97.7578Z" fill="#CDCBCA"/>
<path d="M173.442 85.4929C174.349 85.6881 175.386 85.4945 176.188 86.203C175.231 86.0826 174.314 85.9672 173.357 85.8468C173.407 85.772 173.427 85.6125 173.442 85.4929Z" fill="#CECCCB"/>
<path d="M174.578 105.444C175.231 106.052 175.883 106.661 175.922 107.638C175.658 107.483 175.439 107.294 175.175 107.139C173.779 106.963 172.384 106.788 170.954 106.567C170.161 106.427 169.468 106.137 168.896 105.539C170.81 105.455 172.703 106.504 174.578 105.444Z" fill="#CECCCB"/>
<path d="M174.076 109.429C172.915 108.999 171.479 109.791 170.537 108.579C171.894 108.101 173.055 108.531 174.076 109.429Z" fill="#C7C6C5"/>
<path d="M176.019 110.08C175.515 109.896 174.977 109.666 174.474 109.481C175.118 108.549 175.621 109.058 176.069 109.682C176.049 109.841 176.034 109.961 176.019 110.08Z" fill="#C7C6C5"/>
<path d="M283.01 130.521C285.451 131.499 283.01 131.229 284.603 128.978C284.27 128.587 284.936 126.389 284.603 126.096C283.05 124.629 280.273 126.101 278.054 126.981C275.613 127.861 283.676 128.761 283.01 130.521Z" fill="#D5D3D2"/>
<path d="M284.056 131.463C284.552 130.897 285.26 130.791 285.932 130.543C286.57 130.331 287.171 130.118 287.242 129.339C287.136 129.233 286.994 129.091 286.888 128.985C285.224 128.171 284.799 128.383 283.702 130.401C283.454 130.862 283.277 131.322 284.056 131.463Z" fill="#C3C2C1"/>
<path d="M284.601 133.267C285.097 132.701 285.805 132.595 286.478 132.347C287.115 132.134 287.186 132.54 287.257 131.761C287.15 131.655 287.363 129.389 287.256 129.283C285.593 128.469 284.991 129.389 283.893 131.407C283.646 131.867 283.823 133.126 284.601 133.267Z" fill="#BCBCBC"/>
<path d="M257.876 134.061C257.967 134.061 257.607 133.485 257.699 133.485C257.699 133.253 257.699 133.054 257.699 132.822C256.272 133.021 254.639 132.768 253.273 133.53C253.334 133.928 253.847 135.714 254.335 135.477C255.428 134.947 258.887 135.345 257.876 134.061Z" fill="#BDBDBC"/>
<path d="M276.304 144.527C279.95 144.491 282.747 142.757 283.738 139.924C282.782 139.216 281.756 139.5 280.906 139.96C278.428 141.234 275.702 141.27 273.047 141.659C272.197 141.801 271.383 141.836 270.994 142.757C272.445 144.314 274.322 144.597 276.304 144.527Z" fill="#B4B4B4"/>
<path d="M284.763 137.447C285.294 136.81 285.046 136.031 285.117 135.323C285.046 135.287 284.976 135.217 284.869 135.181C284.055 135.075 283.347 135.429 282.71 135.818C279.276 137.872 275.346 138.297 271.558 139.075C270.39 139.323 269.08 138.828 268.266 140.173C268.16 140.704 268.337 141.093 268.797 141.341C269.151 141.589 269.505 141.801 269.859 142.049C273.541 141.483 277.258 141.235 280.798 139.925C282.356 139.359 283.878 138.898 284.763 137.447Z" fill="#B8B8B7"/>
<path d="M284.763 137.447C283.17 137.695 281.967 138.793 280.444 139.288C277.612 140.209 274.709 140.563 271.807 141.023C271.063 141.129 270.249 141.164 269.895 142.049C270.249 142.297 270.603 142.51 270.957 142.757C275.311 142.333 279.595 141.589 283.701 139.925C284.622 139.359 284.799 138.439 284.763 137.447Z" fill="#B4B4B4"/>
<path d="M268.869 141.341C268.763 140.987 268.621 140.633 268.515 140.279C268.692 139.819 268.692 139.358 268.657 138.898C268.621 138.58 268.444 138.332 268.232 138.119C267.63 137.588 266.922 137.411 266.108 137.624C264.692 137.978 263.24 138.049 261.789 138.261C260.868 138.403 259.877 138.65 260.019 139.96C262.674 142.332 265.577 142.899 268.869 141.341Z" fill="#B4B4B4"/>
<path d="M261.081 121.905C258.992 122.011 257.788 123.428 256.726 124.95C255.912 126.118 255.346 127.499 254.001 128.278C253.894 128.525 253.753 128.738 253.647 128.986C253.54 129.233 253.646 129.517 253.894 129.517C255.841 129.375 257.859 130.012 259.7 128.95C259.842 128.809 259.913 128.667 259.983 128.49C260.019 127.747 260.267 127.003 260.196 126.224C260.196 125.906 260.196 125.587 260.231 125.268C260.267 124.844 260.55 124.454 260.55 123.994C260.585 123.711 260.691 123.463 260.833 123.215C261.01 122.897 261.258 122.649 261.258 122.259C261.258 122.118 261.187 121.976 261.081 121.905Z" fill="#D9D7D5"/>
<path d="M259.664 128.632C257.682 128.95 255.664 128.95 253.646 128.986C253.54 129.234 253.398 129.446 253.292 129.694C252.973 131.11 253.859 130.72 254.673 130.72C255.735 130.756 257.08 129.765 257.788 131.428C257.823 131.606 257.93 131.783 258.036 131.924C259.735 133.022 263.275 132.774 264.762 131.499C264.868 131.216 264.868 130.933 264.762 130.65C264.302 129.977 263.559 129.588 262.957 129.127C262.815 129.021 262.673 128.95 262.496 128.88C261.576 128.526 260.691 127.641 259.664 128.632Z" fill="#D5D3D2"/>
<path d="M260.018 139.925C260.159 139.748 260.301 139.464 260.478 139.429C262.991 138.863 265.505 138.084 268.16 138.509C268.231 138.438 268.302 138.402 268.372 138.332C268.62 138.013 268.62 137.659 268.479 137.27C268.302 136.845 268.195 136.349 267.7 136.137C265.115 136.42 262.496 136.703 259.876 136.951C259.133 137.022 258.708 137.411 258.602 138.155C258.956 138.863 259.274 139.571 260.018 139.925Z" fill="#B9B8B8"/>
<path d="M257.541 133.942C256.409 134.544 254.886 134.084 254.001 135.358C255.134 136.597 256.444 137.553 258.25 137.483C258.32 137.412 258.356 137.376 258.427 137.306C258.639 136.916 258.462 136.527 258.427 136.137C258.462 135.642 258.108 135.217 258.108 134.721C258.037 134.367 257.896 134.084 257.541 133.942Z" fill="#B6B6B6"/>
<path d="M252.973 129.695C252.973 130.403 252.973 131.111 252.938 131.819C254.743 131.996 256.549 131.889 258.248 131.111C258.531 130.827 258.921 130.509 258.673 130.049C258.461 129.659 258.036 129.942 257.717 129.978C256.549 130.119 255.345 129.872 254.212 130.226C253.717 130.367 253.434 130.155 253.292 129.659C253.186 129.695 253.08 129.695 252.973 129.695Z" fill="#D0CECC"/>
<path d="M258.603 138.154C260.302 137.092 262.249 137.482 264.09 137.163C265.329 136.951 266.604 136.88 267.807 136.42C268.09 135.287 267.312 135.499 266.71 135.535C264.444 135.606 262.285 136.632 260.019 136.597C259.24 136.597 258.638 136.738 258.284 137.482C258.355 137.694 258.497 137.942 258.603 138.154Z" fill="#BCBCBC"/>
<path d="M287.243 131.818C286.075 130.827 285.579 132.278 284.765 132.526C284.305 132.986 284.163 133.553 284.269 134.19C284.305 134.756 284.659 135.11 285.119 135.358C286.323 134.438 287.279 133.411 287.243 131.818Z" fill="#B8B8B7"/>
<path d="M283.703 130.402C284.658 129.694 285.543 128.809 286.889 128.986C286.889 128.88 286.889 128.738 286.889 128.632C286.641 128.278 286.428 127.924 286.181 127.57C285.402 127.357 284.694 127.251 284.057 127.924C283.49 128.667 283.809 129.552 283.703 130.402Z" fill="#CAC9C7"/>
<path d="M259.665 126.153C259.807 126.861 259.028 127.569 259.665 128.277C259.984 128.277 260.302 128.242 260.621 128.135C263.842 128.029 266.958 127.321 270.144 126.896C273.861 126.401 277.366 124.914 280.623 123.073C281.295 122.719 282.003 122.153 281.933 121.161C281.685 120.807 281.472 120.453 281.225 120.099C280.8 119.781 280.304 119.745 279.95 120.135C278.676 121.409 277.012 121.94 275.525 122.861C273.436 124.489 271.029 124.985 268.445 124.914C268.268 124.914 268.091 124.914 267.914 124.985C265.4 125.799 262.745 125.551 260.161 125.87C259.984 125.941 259.807 126.011 259.665 126.153Z" fill="#CDCBC9"/>
<path d="M276.623 116.277C275.702 116.029 274.747 115.781 273.826 115.533C273.72 115.533 273.649 115.533 273.543 115.498C271.56 116.879 269.507 117.976 266.994 117.976C265.967 117.976 264.87 117.835 263.914 118.366C263.383 119.003 262.144 119.215 262.568 120.49C262.675 120.631 262.781 120.808 262.958 120.844C266.852 121.587 273.684 120.702 276.587 116.808C276.694 116.631 276.658 116.454 276.623 116.277Z" fill="#DBD8D7"/>
<path d="M264.267 130.721C264.373 130.827 264.48 130.969 264.621 131.075C264.728 131.217 264.869 131.323 265.011 131.429C267.029 131.854 268.799 130.792 270.71 130.544C271.383 130.438 271.949 130.509 272.551 130.756C274.888 129.977 277.366 129.588 279.49 128.243C279.313 127.96 278.18 127.641 279.384 127.322C280.587 127.004 281.437 126.048 282.605 125.623C283.773 125.234 283.526 124.207 283.03 123.287C282.287 123.074 281.862 123.605 281.366 124.03C280.375 124.88 279.313 125.482 278.038 125.836C274.321 127.676 270.533 129.128 266.285 129.163C265.294 129.199 264.196 129.269 264.267 130.721Z" fill="#C1C0BF"/>
<path d="M284.058 131.463C283.739 131.18 283.704 130.791 283.704 130.401C283.597 130.401 283.456 130.401 283.35 130.401C282.96 130.401 282.5 130.331 282.146 130.614C279.349 133.021 275.915 133.517 272.446 134.048C271.313 134.225 270.216 134.119 269.189 133.623C268.8 133.588 268.446 133.729 268.127 133.942C267.56 134.473 267.56 135.039 267.879 135.712C268.127 136.632 269.012 136.172 269.543 136.49C269.72 136.526 269.862 136.526 270.039 136.49C271.065 136.101 272.092 135.747 273.154 136.349C276.588 135.889 279.986 135.287 282.96 133.304C283.527 132.915 284.093 132.667 284.022 131.853C284.093 131.676 284.058 131.57 284.058 131.463Z" fill="#C9C7C6"/>
<path d="M281.931 128.987C281.364 128.349 280.621 128.243 279.807 128.278C277.47 130.58 274.744 131.394 271.558 130.615C270.425 130.757 269.717 131.323 269.682 132.562C270.036 133.553 270.815 133.837 271.771 133.73C272.762 133.624 273.718 133.872 274.709 133.766C277.01 133.128 279.417 132.774 281.4 131.217C282.179 130.58 282.568 129.907 281.931 128.987Z" fill="#D1CFCE"/>
<path d="M275.95 123.322C277.897 122.543 279.454 121.127 281.26 120.136C280.977 119.605 280.764 119.038 280.198 118.755C278.569 119.888 277.189 121.339 275.1 121.941C271.524 122.932 268.055 124.278 264.232 124.313C262.745 124.348 261.081 124.136 259.7 125.092C259.7 125.446 259.7 125.8 259.7 126.154H259.877H260.054C262.78 126.048 265.506 125.835 268.197 125.446C268.303 125.446 268.444 125.446 268.551 125.446C271.064 125.021 273.613 124.596 275.95 123.322Z" fill="#D0CECD"/>
<path d="M281.969 121.197C278.252 124.348 273.826 125.552 269.083 126.401C266.074 126.932 262.958 126.826 260.02 127.924C260.657 128.915 261.755 128.773 262.604 128.702C268.127 128.242 273.543 127.286 278.676 125.021C279.172 124.808 279.668 124.667 280.234 124.667C281.473 124.136 282.606 123.569 282.358 121.905C282.181 121.657 282.075 121.445 281.969 121.197Z" fill="#C9C7C6"/>
<path d="M282.321 121.905C281.932 122.932 281.224 123.64 280.197 124.029C275.099 126.366 269.789 127.888 264.16 128.278C263.417 128.313 262.603 128.242 262.496 129.34C263.205 129.871 263.877 129.906 264.798 129.764C267.771 129.233 270.816 129.056 273.719 128.03C275.312 127.463 276.905 126.861 278.427 126.153C280.445 125.976 281.684 124.596 283.029 123.321C282.923 122.755 282.746 122.295 282.321 121.905Z" fill="#C5C4C2"/>
<path d="M259.665 125.092C265.258 125.092 270.745 124.242 275.985 122.224C277.79 121.516 279.383 120.631 280.162 118.755C280.056 118.755 279.95 118.719 279.844 118.719C279.454 118.401 279.065 118.436 278.746 118.79C276.657 121.41 273.471 121.587 270.604 122.437C267.134 123.463 263.523 123.038 260.019 123.64C259.913 124.136 259.806 124.631 259.665 125.092Z" fill="#D1CFCE"/>
<path d="M261.081 121.906C261.081 122.012 261.081 122.153 261.081 122.26C261.222 122.543 261.47 122.755 261.753 122.755C266.745 123.003 271.666 122.968 276.126 120.206C277.153 119.569 277.896 118.684 278.463 117.657C278.18 117.233 277.826 116.843 277.365 116.631C275.879 117.02 275.135 118.507 273.79 119.144C270.462 120.702 266.957 121.127 263.346 120.985C262.32 120.914 261.612 121.091 261.081 121.906Z" fill="#D7D5D3"/>
<path d="M261.081 121.906C263.169 121.198 265.4 121.658 267.524 121.304C271.276 120.703 274.923 119.994 277.365 116.631C277.117 116.525 276.905 116.384 276.657 116.277C275.029 117.375 273.719 118.897 271.701 119.499C268.656 120.419 265.647 120.88 262.497 120.171C262.355 119.959 262.249 119.959 262.107 120.171C261.47 120.561 261.222 121.198 261.081 121.906Z" fill="#D7D5D3"/>
<path d="M271.701 131.11C274.321 132.561 276.622 131.251 278.923 130.225C279.631 129.906 279.95 129.163 279.843 128.313C279.737 128.313 279.595 128.313 279.489 128.278C276.905 128.207 274.639 129.269 272.409 130.402C271.843 130.296 271.559 130.508 271.701 131.11Z" fill="#D5D3D2"/>
<path d="M281.932 128.986C281.896 130.721 280.409 131.11 279.276 131.641C277.86 132.314 276.338 132.703 274.851 133.234C273.364 133.659 271.842 133.659 270.32 133.412C269.789 133.341 269.258 133.128 269.223 133.943C269.506 134.438 269.966 134.651 270.532 134.651C275.205 134.438 279.808 133.943 283.348 130.402C282.994 129.801 282.569 129.305 281.932 128.986Z" fill="#CDCCCA"/>
<path d="M278.462 117.658C277.153 118.012 276.622 119.322 275.453 119.959C272.267 121.694 268.869 122.26 265.328 122.296C263.912 122.296 262.496 122.296 261.08 122.26C260.832 122.508 260.62 122.721 260.372 122.968C260.514 123.535 260.939 123.676 261.434 123.676C266.78 123.641 272.055 123.11 276.869 120.526C277.896 119.959 278.781 119.216 279.1 118.048C278.887 117.906 278.675 117.764 278.462 117.658Z" fill="#D4D2D1"/>
<path d="M279.136 118.012C275.773 121.41 271.524 122.543 266.958 123.003C264.763 123.216 262.568 123.676 260.373 122.968C260.267 123.216 260.125 123.428 260.019 123.676C260.479 123.782 260.904 123.995 261.364 123.995C266.356 124.101 271.206 123.216 275.95 121.587C277.543 121.056 278.463 119.534 279.844 118.72C279.596 118.472 279.348 118.26 279.136 118.012Z" fill="#D4D2D0"/>
<path d="M284.056 127.924C284.834 128.278 285.507 127.889 286.18 127.57C286.073 127.428 286.003 127.251 285.896 127.145C285.401 126.614 284.834 125.765 284.126 126.083C283.348 126.402 284.268 127.287 284.056 127.924Z" fill="#D0CECC"/>
<path d="M273.826 115.568C273.614 115.568 273.366 115.533 273.154 115.533C272.446 114.967 271.56 115.285 270.782 115.179C269.259 114.79 267.808 114.825 266.463 115.745C266.215 116.453 265.436 116.524 265.011 116.984C264.905 117.091 264.799 117.197 264.657 117.303C264.409 117.657 264.162 118.011 263.914 118.33C266.498 119.073 268.976 118.648 271.49 117.763C272.623 117.374 273.083 116.347 273.826 115.568Z" fill="#DBD9D8"/>
<path d="M262.107 120.136C262.248 120.136 262.39 120.136 262.496 120.136C262.956 119.534 263.416 118.933 263.912 118.366C262.956 118.614 262.39 119.216 262.107 120.136Z" fill="#DBD9D8"/>
<path d="M285.117 135.323C285.011 134.969 284.869 134.615 284.763 134.261C283.666 133.553 282.639 134.261 281.86 134.721C279.913 135.818 277.895 136.562 275.7 136.951C273.683 137.518 271.7 138.226 269.576 138.332C268.903 138.367 268.514 138.757 268.16 139.217C268.266 139.571 268.408 139.925 268.514 140.279C270.532 139.323 272.798 139.571 274.922 139.111C275.346 139.005 275.842 139.075 276.302 138.934C279.347 137.943 282.462 137.235 285.117 135.323Z" fill="#BCBBBB"/>
<path d="M268.161 139.217C270.781 138.686 273.436 138.474 275.949 137.447C275.701 136.881 275.241 136.668 274.675 136.81C272.975 137.199 271.241 137.341 269.542 137.553C268.904 137.624 268.48 137.943 268.196 138.509C268.161 138.757 268.161 139.005 268.161 139.217Z" fill="#BEBDBC"/>
<path d="M262.497 129.34C263.736 128.1 265.399 128.702 266.851 128.384C270.32 127.711 273.719 127.038 276.976 125.587C278.073 125.091 279.383 125.127 280.197 124.029C277.188 124.985 274.214 126.012 271.205 126.826C267.807 127.711 264.337 128.03 260.833 128.207C260.585 128.207 260.302 128.03 260.054 127.923C259.7 127.817 259.735 128.1 259.7 128.277C259.7 128.384 259.7 128.49 259.7 128.631C260.691 128.525 261.541 129.092 262.497 129.34Z" fill="#C8C7C5"/>
<path d="M264.974 131.11C264.868 131.11 264.762 131.11 264.62 131.11C262.531 132.102 260.443 132.172 258.248 131.464C257.717 131.358 257.61 131.712 257.469 132.066C257.433 132.349 257.54 132.597 257.681 132.88C257.681 133.659 258.106 134.155 258.85 134.155C261.009 134.155 263.169 133.942 265.257 133.27C265.682 133.128 265.894 132.774 265.965 132.314C266.001 131.571 265.434 131.394 264.974 131.11Z" fill="#D0CECC"/>
<path d="M278.428 126.153C275.702 126.968 272.976 127.853 270.215 128.525C267.701 129.127 265.117 129.516 262.497 129.339C262.922 130.012 263.665 130.295 264.267 130.756C265.046 129.587 266.25 129.8 267.418 129.693C271.347 129.304 275.1 128.384 278.428 126.153Z" fill="#C3C2C1"/>
<path d="M257.894 132.172C258 131.925 258.142 131.712 258.248 131.464C258.248 131.358 258.248 131.217 258.248 131.11C256.443 131.004 254.637 131.11 252.938 131.818C252.938 132.172 252.938 132.526 252.938 132.88C254.637 132.916 256.336 133.022 257.894 132.172Z" fill="#CAC8C7"/>
<path d="M265.682 132.136C264.408 133.234 262.815 133.34 261.257 133.305C260.124 133.269 258.85 134.225 257.894 132.844C257.788 132.738 257.646 132.738 257.54 132.844C257.54 133.198 257.54 133.552 257.54 133.906C257.54 134.26 257.54 134.614 257.575 134.968C259.204 135.889 265.47 135.004 266.78 133.694C266.85 133.623 266.886 133.482 266.921 133.375C266.957 132.526 266.638 132.03 265.682 132.136Z" fill="#CAC8C7"/>
<path d="M257.541 132.845C257.647 132.845 257.788 132.845 257.895 132.845C257.895 132.597 257.895 132.385 257.895 132.137C256.231 132.349 254.531 132.031 252.938 132.845C253.009 133.27 253.186 133.836 253.646 133.588C254.921 133.022 256.337 133.482 257.541 132.845Z" fill="#C4C2C1"/>
<path d="M265.684 132.136C266.144 132.384 266.498 132.738 266.746 133.198C266.498 134.685 265.33 134.933 264.161 134.933C262.568 134.898 261.046 135.216 259.488 135.464C258.78 135.57 258.32 135.854 257.895 136.385C258.002 136.739 258.143 137.093 258.249 137.447C260.94 137.022 263.63 136.703 266.285 136.066C266.746 135.96 267.454 135.535 267.808 136.385C267.808 136.774 267.843 137.163 268.162 137.447C268.233 137.411 268.303 137.34 268.374 137.305C268.587 137.022 268.622 136.703 268.516 136.385C268.41 136.243 268.303 136.137 268.197 136.031C268.233 135.429 268.056 134.792 268.551 134.261C268.799 133.482 269.861 133.375 269.967 132.49C270.427 131.853 270.888 131.216 271.737 131.074C271.985 130.827 272.198 130.614 272.445 130.366C271.702 129.269 270.64 129.8 269.755 129.942C268.162 130.225 266.604 130.685 265.011 131.074C265.188 131.464 265.436 131.818 265.684 132.136Z" fill="#BEBDBC"/>
<path d="M268.16 138.509C270.709 137.978 273.293 137.518 275.948 137.447C279.241 137.341 281.719 135.005 284.799 134.261C284.799 133.659 284.799 133.093 284.799 132.491C284.693 132.491 284.551 132.491 284.445 132.491C281.082 134.367 277.542 135.677 273.754 136.279C272.479 136.456 271.205 136.598 269.93 136.562C269.187 136.562 268.514 136.669 268.196 137.447C268.16 137.801 268.16 138.155 268.16 138.509Z" fill="#C1C0BF"/>
<path d="M257.893 136.384C259.769 136.03 261.645 135.605 263.592 135.711C264.761 135.747 265.787 135.393 266.743 134.862C267.628 134.366 267.734 133.764 266.743 133.233C265.539 134.048 264.194 134.331 262.743 134.331C260.973 134.331 259.344 135.18 257.539 135.003C257.68 135.464 257.787 135.924 257.893 136.384Z" fill="#C5C4C3"/>
<path d="M268.161 137.447C268.657 137.341 269.188 137.093 269.683 137.129C274.356 137.377 278.498 135.571 282.746 134.013C283.49 133.73 284.021 133.164 284.41 132.491C284.304 132.243 284.162 132.031 284.056 131.783C280.87 134.368 277.082 135.323 273.082 135.677C272.02 135.819 270.922 135.536 269.896 136.031C269.789 136.031 269.648 136.031 269.542 136.031C268.975 135.784 268.55 136.102 268.126 136.385C268.161 136.739 268.161 137.093 268.161 137.447Z" fill="#C4C3C2"/>
<path d="M266.391 116.241C266.284 116.241 266.143 116.241 266.037 116.241C265.541 116.277 265.187 116.524 264.975 116.985C265.506 116.878 266.001 116.666 266.391 116.241Z" fill="#BCBCBC"/>
<path d="M275.949 123.321C273.507 124.1 270.887 124.383 268.515 125.445C271.241 125.622 273.754 125.021 275.949 123.321Z" fill="#CDCBCA"/>
<path d="M268.16 125.446C265.434 125.41 262.708 125.587 260.018 126.154C262.071 126.791 264.124 125.977 266.178 125.977C266.815 125.977 267.594 125.941 268.16 125.446Z" fill="#CDCBCA"/>
<path d="M273.117 115.18C272.303 115.25 271.418 114.967 270.639 115.498C271.488 115.498 272.303 115.498 273.152 115.498C273.117 115.427 273.117 115.286 273.117 115.18Z" fill="#CECCCB"/>
<path d="M269.931 132.491C269.293 132.951 268.656 133.412 268.514 134.261C268.762 134.155 268.975 134.013 269.222 133.907C270.462 133.907 271.701 133.907 272.975 133.872C273.683 133.836 274.32 133.659 274.887 133.199C273.223 132.916 271.453 133.624 269.931 132.491Z" fill="#CECCCB"/>
<path d="M269.931 136.031C270.993 135.783 272.161 136.633 273.117 135.677C271.984 135.11 270.922 135.358 269.931 136.031Z" fill="#C7C6C5"/>
<path d="M268.16 136.385C268.62 136.278 269.116 136.137 269.576 136.031C269.116 135.146 268.62 135.535 268.16 136.031C268.16 136.172 268.16 136.278 268.16 136.385Z" fill="#C7C6C5"/>
</svg>
