<svg width="258" height="288" viewBox="0 0 258 288" fill="none" xmlns="http://www.w3.org/2000/svg">
<path d="M53.6804 34.2274C54.8255 32.1797 57.7722 32.1797 58.9172 34.2274L60.0659 36.2814C60.5213 37.0959 61.3298 37.6521 62.2533 37.7861L64.2729 38.0792C66.7783 38.4429 67.7346 41.555 65.8657 43.2628L64.7751 44.2593C64.0199 44.9494 63.6684 45.9768 63.8427 46.9848L64.1264 48.6267C64.5386 51.0116 62.1022 52.8778 59.907 51.8586L57.5621 50.77C56.761 50.3981 55.8367 50.3981 55.0355 50.77L52.6907 51.8586C50.4954 52.8778 48.059 51.0116 48.4712 48.6267L48.755 46.9848C48.9292 45.9768 48.5777 44.9494 47.8225 44.2593L46.732 43.2628C44.8631 41.555 45.8194 38.4429 48.3248 38.0792L50.3443 37.7861C51.2678 37.6521 52.0763 37.0959 52.5318 36.2814L53.6804 34.2274Z" fill="#C1A66F"/>
<path d="M53.6798 34.2274C54.8249 32.1797 57.7716 32.1797 58.9167 34.2274L60.1696 36.468C60.5593 37.1649 61.2511 37.6407 62.0413 37.7554L68.484 38.6906C69.0948 38.7792 69.2168 39.6076 68.6576 39.8686L62.0002 42.6976C61.2275 43.026 60.3526 43.0155 59.588 42.6688L57.1136 41.5469C56.5816 41.3057 55.9908 41.225 55.4136 41.3148L50.3642 42.1003C49.9623 42.1628 49.552 42.1429 49.158 42.0419L44.3356 40.8054C44.1704 40.763 44.0172 40.683 43.888 40.5715C43.171 39.9526 43.5139 38.7774 44.4513 38.6414L50.3437 37.7861C51.2672 37.6521 52.0758 37.0959 52.5312 36.2814L53.6798 34.2274Z" fill="#E3CDAB"/>
<path d="M63.1164 45.8769C63.1455 46.6621 63.1746 47.4182 63.2037 48.2033C64.2215 48.785 64.2797 49.8028 64.3669 50.8206C64.3087 51.315 64.1924 51.7512 63.9888 52.2165C63.5235 52.7399 63.0874 52.4491 62.593 52.2165C61.517 51.693 60.3247 51.3731 59.3359 50.7625C57.2712 49.4538 55.41 49.9191 53.4325 50.9951C52.3566 51.5767 51.3678 52.6236 49.9138 52.2456C49.3613 50.966 49.8847 49.7155 50.1464 48.4941C50.2918 47.8253 50.4954 47.2146 50.4372 46.5167C49.9719 44.9172 48.4016 44.2775 47.4128 43.1433C47.0348 42.7071 46.2496 42.5035 46.6277 41.6602C47.5001 41.1367 48.5179 41.1949 49.4776 40.9332C49.623 40.875 49.7393 40.8459 49.8847 40.8168C50.3791 40.8168 50.8444 40.6714 51.3097 40.526C51.5714 40.497 51.8622 40.4969 52.153 40.4969C53.2872 40.4969 53.6652 39.5955 54.1305 38.8103C54.6539 37.9379 54.9738 36.9782 55.5845 36.1348C56.5151 34.8844 57.1839 34.9135 57.911 36.3384C58.4926 37.4435 59.0451 38.5485 59.8012 39.5373C60.0339 39.8281 60.2956 39.9735 60.6155 40.0898C61.8369 40.2934 63.0582 40.5842 64.3087 40.4969C64.4541 40.4969 64.5995 40.526 64.7449 40.5551C65.2684 40.8168 65.8791 40.6714 66.3735 41.0204C66.7515 41.5439 66.4316 41.9219 66.0827 42.2709C65.3557 42.9688 64.6868 43.7249 63.8434 44.3065C63.32 44.6264 62.5348 45.0045 63.1164 45.8769Z" fill="#C8AC77"/>
<path d="M64.0476 52.5661C63.844 52.6824 63.6404 52.7987 63.4368 52.886C62.9715 52.7697 62.4772 52.6533 62.0119 52.537C61.5466 52.0136 60.8196 52.0426 60.2961 51.6646C59.5982 51.3447 58.9294 50.9957 58.2314 50.6758C57.0682 50.1524 55.9631 50.0942 54.7999 50.734C53.2295 51.5774 51.601 52.3044 50.0016 53.0314C49.5363 53.235 48.9547 53.8166 48.6348 52.8278C48.6638 52.7697 48.6929 52.7115 48.7511 52.6533C49.1582 52.3335 49.5944 52.1008 50.1179 52.2753C52.0954 51.6064 53.8402 50.4723 55.7014 49.5708C56.3411 49.2509 56.8064 49.2218 57.4462 49.5126C59.54 50.4723 61.6629 51.3447 63.7858 52.2462C64.0185 52.1881 64.1348 52.2753 64.0476 52.5661Z" fill="#C1A66F"/>
<path d="M68.4385 40.352C67.2753 41.9224 65.4432 42.8239 64.28 44.4233C63.6693 44.7432 63.4075 45.3248 63.1167 45.8773C62.7387 46.0809 62.3606 46.1682 62.0989 45.761C61.7499 45.2376 62.3025 45.1213 62.5351 44.8886C63.8147 43.6672 65.3269 42.6785 66.3447 41.2244C66.3738 40.9336 66.5773 40.7591 66.7809 40.5847C67.0135 40.4683 67.2462 40.2938 67.4788 40.2066C67.8569 40.0321 68.1768 40.0321 68.4385 40.352Z" fill="#C2A671"/>
<path d="M44.2723 39.4794C46.5406 38.8396 48.8962 38.4907 51.2517 38.2871C51.3971 38.3453 51.5425 38.4034 51.6588 38.5198C52.2405 39.2177 51.8915 39.8866 51.2517 40.0029C49.0706 40.4391 46.8605 41.0207 44.5922 40.9044C44.4468 40.8171 44.3305 40.7299 44.2142 40.6426C44.1269 40.2646 44.0397 39.8575 44.2723 39.4794Z" fill="#E5CFAE"/>
<path d="M46.5986 41.806C48.1108 43.2891 49.9138 44.4814 51.2515 46.139C50.7862 46.3135 50.5536 47.2441 49.7975 46.6625C49.6811 46.5171 49.6521 46.3135 49.5357 46.139C48.6052 44.1615 46.5695 43.2891 45.1445 41.7769C45.0573 41.5152 45.1736 41.3698 45.3772 41.2535C45.5807 41.1662 45.7843 41.1371 46.017 41.1953C46.3078 41.3116 46.5113 41.4861 46.5986 41.806Z" fill="#C2A772"/>
<path d="M55.031 32.8205C55.3218 32.5297 55.6126 32.2098 55.9035 31.9189C56.3106 32.0934 56.456 32.4133 56.456 32.8495C55.729 34.3036 54.8856 35.6995 54.0423 37.0953C53.8097 37.4734 53.6352 38.0259 52.9663 37.7642C52.85 37.5606 52.8791 37.357 53.0245 37.1535C53.3734 35.554 54.6821 34.4199 55.031 32.8205Z" fill="#D9C29D"/>
<path d="M49.5361 46.1396C49.6233 46.2269 49.7105 46.3432 49.7978 46.4305C50.2921 47.0702 50.4376 47.71 50.0886 48.5533C49.7105 49.513 49.7978 50.589 49.507 51.6068C49.3616 52.1012 49.2453 52.5083 48.6636 52.5956C48.4019 52.1884 48.431 51.7813 48.6345 51.3742C48.9254 49.6293 49.2453 47.8845 49.5361 46.1396Z" fill="#CEB790"/>
<path d="M52.9675 37.124C52.9675 37.3276 52.9675 37.5311 52.9675 37.7347C53.2001 38.3454 53.2583 38.8979 52.5604 39.2469C52.066 39.1306 51.717 38.7235 51.2227 38.5781C51.2227 38.4617 51.2227 38.3745 51.2227 38.2582C51.8334 37.9092 52.3859 37.5312 52.9675 37.124Z" fill="#E2CAA6"/>
<path d="M45.4352 41.515C45.348 41.6022 45.2316 41.7186 45.1444 41.8058C44.7373 41.6313 44.4755 41.2824 44.272 40.9334C44.1847 40.8752 44.1557 40.788 44.1847 40.7298C44.2138 40.6717 44.2429 40.6426 44.272 40.6426C44.3592 40.6426 44.4755 40.6426 44.5628 40.6426C44.6791 40.7589 44.8536 40.788 44.999 40.8461C45.2026 40.9334 45.4352 40.9625 45.5515 41.1951C45.5806 41.3405 45.5224 41.4278 45.4352 41.515Z" fill="#C9AE7C"/>
<path d="M44.2718 40.6429C44.2718 40.7302 44.2718 40.8465 44.2718 40.9337C43.8938 40.4684 43.8938 39.9741 44.2718 39.5088C44.2718 39.8578 44.2718 40.2649 44.2718 40.6429Z" fill="#D4C0A2"/>
<path d="M48.633 51.374C48.633 51.7521 48.633 52.1592 48.633 52.5373C48.7202 52.5954 48.7784 52.6536 48.7493 52.7408C48.7202 52.8281 48.6912 52.8571 48.6621 52.8571L48.6039 52.8281C48.2549 52.3337 48.2549 51.8684 48.633 51.374Z" fill="#C6BAA9"/>
<path d="M45.4355 41.5157C45.4355 41.4284 45.4355 41.3412 45.4355 41.2249C45.9008 40.5851 46.6279 40.905 47.2095 40.7014C47.3258 40.6433 47.4712 40.6142 47.6166 40.5851C49.216 40.2652 50.99 40.5269 52.3568 39.3346C53.6363 37.7643 54.4506 35.9031 55.4975 34.1873C55.9337 33.4603 56.428 32.995 57.3295 33.1695C58.6382 34.1292 59.0744 35.6995 60.005 36.9209C60.1504 37.2699 60.354 37.6189 60.6157 37.9387C60.7611 38.3459 60.7901 38.7821 61.2554 38.9857C61.3427 39.0729 61.4299 39.1601 61.4881 39.2474C61.5753 39.3346 61.6335 39.4219 61.7498 39.5091C63.3202 40.0616 64.9778 39.8581 66.5772 40.2652C66.9553 40.3524 67.3624 40.2943 67.566 40.7014C67.3624 40.7887 67.1879 40.905 66.9844 40.9922C66.1992 41.2249 65.4431 41.2249 64.6579 40.9922C63.3202 40.8177 61.9534 40.7305 60.6157 40.556C59.5397 40.2652 59.5979 39.102 59.0162 38.4331C58.3765 37.7352 58.1147 36.7465 57.6204 35.9322C57.0969 35.0307 56.5735 35.0598 56.0209 35.9031C55.2067 37.1536 54.5087 38.4913 53.8399 39.7999C53.4327 40.5851 52.9384 40.905 52.1532 40.9922C51.8624 40.9922 51.5716 40.9922 51.2808 40.9922C50.8446 41.3412 50.263 40.9341 49.8267 41.283C48.5763 41.3412 47.3549 42.01 46.0463 41.5738C45.8136 41.5157 45.6391 41.5157 45.4355 41.5157Z" fill="#D3B989"/>
<path d="M52.123 40.9343C53.8388 40.1782 54.1005 38.317 55.002 36.9793C55.5837 36.1069 55.9908 34.682 56.8923 34.6238C57.8519 34.5366 58.2009 36.0197 58.579 36.8921C59.1024 38.0844 60.2075 38.9859 60.2366 40.3527C60.4401 40.4399 60.4401 40.5562 60.2366 40.6435C58.8988 39.6838 58.3754 38.1426 57.5611 36.8049C57.3285 36.3977 57.2412 35.787 56.7178 35.6998C56.0489 35.6125 55.9326 36.3396 55.7 36.7467C55.0602 37.7645 54.4786 38.8405 53.9551 39.9165C53.5771 40.7598 52.9664 41.0506 52.123 40.9343Z" fill="#CDB17F"/>
<path d="M48.6639 52.8565C48.6639 52.7693 48.6348 52.653 48.6348 52.5657C49.1291 50.5592 49.7108 48.5526 49.798 46.4588C50.3796 46.7787 50.7577 46.168 51.252 46.168C50.6995 48.1745 50.2342 50.1811 50.0888 52.2749C49.7108 52.682 49.2164 52.8274 48.6639 52.8565Z" fill="#CCB17E"/>
<path d="M60.2656 40.6424C60.2656 40.5551 60.2656 40.4388 60.2656 40.3516C61.7487 40.4388 63.2028 40.497 64.6277 40.9332C63.1446 41.0786 61.7197 40.7005 60.2656 40.6424Z" fill="#CEB380"/>
<path d="M46.0176 41.5154C47.268 41.4282 48.5476 41.3119 49.7981 41.2246C48.7802 41.6317 47.7043 41.7771 46.5992 41.8062C46.3956 41.719 46.1921 41.6027 46.0176 41.5154Z" fill="#CFB483"/>
<path d="M64.5996 40.9336C65.3848 40.9336 66.1409 40.9336 66.9261 40.9336C66.7225 41.0208 66.548 41.1372 66.3445 41.2244C65.7628 41.1662 65.1231 41.3698 64.5996 40.9336Z" fill="#CEB380"/>
<path d="M64.0465 52.5661C63.9302 52.4789 63.8429 52.3626 63.7266 52.2753C63.7266 51.781 63.7266 51.3157 63.7266 50.8213C64.0755 51.3447 64.3082 51.8973 64.0465 52.5661Z" fill="#CCB58A"/>
<path d="M49.7969 41.2244C50.2331 40.8464 50.7565 40.9627 51.2509 40.9336C50.8147 41.3116 50.2912 41.1953 49.7969 41.2244Z" fill="#CFB483"/>
<path d="M61.1381 39.4792C61.1381 39.392 61.1381 39.2757 61.1381 39.1884C60.9346 38.9558 60.8764 38.694 60.9055 38.3742C60.9345 38.1415 60.9927 37.9089 61.1672 37.7635L61.1381 37.7344C63.261 38.0252 65.413 38.316 67.5359 38.5777C67.943 38.6068 68.321 38.665 68.4374 39.1884C68.7863 40.2062 67.943 40.2644 67.3614 40.3807C66.8961 40.468 66.3436 40.3807 65.8201 40.3226C65.1803 39.9736 64.4824 40.119 63.7845 40.0899C63.5518 40.0899 63.3192 40.0899 63.0865 40.0027C62.5049 39.5374 61.6907 40.0608 61.1381 39.4792Z" fill="#E4CEAC"/>
<path d="M57.9392 33.3724C58.4045 34.5938 59.3932 35.5244 59.684 36.833C59.8294 36.9494 59.8294 37.0657 59.6549 37.182C58.8697 35.9025 58.1136 34.652 57.3284 33.3724C57.0958 33.1689 56.7759 33.0235 56.9504 32.6163C57.0086 32.5872 57.0377 32.5291 57.0958 32.5C57.4448 32.7036 57.7356 33.0235 57.9392 33.3724Z" fill="#DBD1C1"/>
<path d="M56.1951 32.7905C56.1079 32.4997 55.9915 32.2089 55.9043 31.889C56.9512 30.784 56.8349 32.0344 57.0966 32.4997H57.0675C56.8349 32.8487 56.6022 33.1104 56.1951 32.7905Z" fill="#E3CDAB"/>
<path d="M65.7621 40.0609C66.6636 39.8573 67.9722 40.7879 68.4085 39.1885C68.7574 39.5665 69.0191 39.9446 68.4375 40.3517C68.1176 40.4389 67.8268 40.5553 67.5069 40.6425C65.2677 40.4971 62.9994 40.4099 60.8184 39.7701C61.6035 39.5374 62.3596 39.5374 63.1448 39.7701C63.3484 39.7701 63.5229 39.7701 63.7264 39.7701C64.3662 40.1481 65.1223 39.6828 65.7621 40.0609Z" fill="#DAC095"/>
<path d="M44.8533 40.9339C44.7661 40.8466 44.6497 40.7594 44.5625 40.6431C46.5981 40.3523 48.6338 40.0324 50.6694 39.7416C51.3965 39.6253 51.7745 39.3344 51.2802 38.6074C51.7454 38.6365 52.2689 38.5493 52.4434 39.189C52.4143 39.2472 52.3852 39.3054 52.3561 39.3926C52.2107 39.8288 52.1817 40.2069 51.5128 40.265C50.1751 40.3813 48.8374 40.7012 47.5287 40.963C46.5982 41.1665 45.7257 41.1665 44.8533 40.9339Z" fill="#E0CBAA"/>
<path d="M56.195 32.7908C56.4858 32.7036 56.7767 32.5872 57.0675 32.5C57.1547 32.7908 57.2419 33.0816 57.3292 33.3724C56.3695 33.4887 55.7879 34.0122 55.4099 34.8846C54.8282 36.3096 53.665 37.4146 53.1997 38.9268C53.0834 39.2758 52.7635 39.4212 52.4146 39.4794C52.3273 39.4212 52.2982 39.3631 52.3273 39.2758C52.3564 39.2177 52.3855 39.1886 52.4146 39.1886C52.6181 38.6942 52.7926 38.2289 52.9962 37.7345C53.8104 36.3677 54.6538 35.03 55.468 33.6632C55.6425 33.3433 55.817 32.9944 56.195 32.7908Z" fill="#D9BF93"/>
<path d="M44.8535 40.9336C45.7259 40.9336 46.5984 40.9336 47.4708 40.9336C46.8601 41.3989 46.104 41.1662 45.4351 41.2244C45.2316 41.1372 45.0571 41.0208 44.8535 40.9336Z" fill="#DBC29A"/>
<path d="M52.4144 39.1885C52.4144 39.2757 52.4144 39.392 52.4144 39.4793C52.4435 39.8573 52.618 40.2935 52.0073 40.3517C50.4951 40.4971 49.012 41.0206 47.4707 40.9333C48.4594 40.4099 49.5936 40.3517 50.6696 40.1772C51.4257 40.0318 51.9782 39.7992 52.4144 39.1885Z" fill="#DBC29A"/>
<path d="M59.6562 37.182C59.6562 37.0657 59.6563 36.9493 59.6854 36.833C60.1797 37.1238 60.645 37.4437 61.1394 37.7345C61.1976 37.9381 61.3139 38.1126 61.1394 38.287C60.7323 38.5197 60.5287 38.2289 60.267 37.9962C59.918 37.8508 59.6853 37.5891 59.6562 37.182Z" fill="#E3D8C8"/>
<path d="M60.2363 38.0547C60.5271 38.1419 60.8179 38.2292 61.1087 38.3455C61.2542 38.6363 61.2542 38.9271 61.1087 39.2179C60.4399 39.1016 60.2363 38.6363 60.2363 38.0547Z" fill="#DEC69F"/>
<path d="M63.1448 39.7706C62.3596 39.7706 61.6035 39.7706 60.8184 39.7706C60.9056 39.6833 61.0219 39.567 61.1092 39.4798C61.8071 39.5379 62.5341 39.3053 63.1448 39.7706Z" fill="#DEC69F"/>
<path d="M65.7622 40.0606C65.0934 40.0025 64.3373 40.2351 63.7266 39.7698C64.4245 39.828 65.1515 39.5953 65.7622 40.0606Z" fill="#DEC6A0"/>
<path d="M247.399 91.634C249.241 91.1924 250.854 92.9404 250.266 94.7406L250.243 94.8105C250.024 95.4825 250.129 96.2183 250.529 96.8013L250.693 97.0395C251.712 98.5259 250.545 100.529 248.749 100.375C248.024 100.313 247.311 100.632 246.868 101.21C245.783 102.625 243.537 102.263 242.992 100.566L242.848 100.117C242.627 99.4284 242.114 98.8722 241.445 98.5966L241.009 98.4171C239.361 97.7379 239.181 95.4699 240.678 94.5019C241.289 94.1064 241.665 93.4217 241.661 92.6934C241.652 90.8911 243.742 89.889 245.142 91.0243L245.366 91.2063C245.915 91.6515 246.64 91.816 247.328 91.6511L247.399 91.634Z" fill="#C1A66F"/>
<path d="M247.398 91.6336C249.239 91.192 250.852 92.9401 250.264 94.7402L250.129 95.1529C249.981 95.6088 250.052 96.108 250.324 96.5036L252.535 99.7287C252.745 100.034 252.429 100.426 252.086 100.285L248.605 98.7149C247.839 98.3697 247.254 97.7197 246.99 96.9226L246.755 96.2121C246.571 95.6576 246.23 95.1686 245.773 94.8053L243.842 93.2717C243.523 93.0187 243.259 92.7036 243.067 92.3456L241.765 89.9297C241.716 89.8395 241.689 89.7393 241.686 89.6369C241.667 89.0682 242.325 88.7409 242.767 89.0993L245.391 91.2269C245.923 91.6589 246.627 91.8185 247.294 91.6585L247.398 91.6336Z" fill="#E3CDAB"/>
<path d="M247.177 100.287C246.842 100.619 246.52 100.94 246.186 101.273C246.344 101.959 245.918 102.399 245.504 102.852C245.262 103.028 245.022 103.154 244.734 103.254C244.313 103.262 244.264 102.951 244.165 102.638C243.958 101.95 243.614 101.293 243.48 100.608C243.217 99.1633 242.254 98.5312 240.973 98.0965C240.278 97.8584 239.413 97.8484 238.988 97.0525C239.327 96.2874 240.093 96.0091 240.738 95.6271C241.093 95.4188 241.446 95.2599 241.73 94.95C242.246 94.093 241.889 93.1392 241.987 92.2407C242.026 91.8961 241.796 91.4666 242.322 91.2899C242.908 91.4619 243.297 91.9349 243.804 92.2519C243.889 92.2924 243.949 92.3319 244.021 92.3842C244.222 92.6025 244.476 92.7487 244.73 92.8948C244.849 92.9985 244.968 93.1269 245.086 93.2553C245.548 93.756 246.1 93.5556 246.636 93.4412C247.235 93.3169 247.789 93.0672 248.41 92.9933C249.341 92.8947 249.6 93.2018 249.268 94.1032C249.017 94.8101 248.754 95.5042 248.625 96.2407C248.592 96.4619 248.634 96.6366 248.713 96.8252C249.121 97.4474 249.49 98.105 250.038 98.6215C250.097 98.6857 250.143 98.7617 250.19 98.8377C250.288 99.1754 250.6 99.3858 250.648 99.7462C250.571 100.126 250.274 100.139 249.977 100.127C249.373 100.091 248.767 100.103 248.167 99.9679C247.812 99.8671 247.325 99.6745 247.177 100.287Z" fill="#C8AC77"/>
<path d="M244.603 103.422C244.469 103.379 244.335 103.337 244.213 103.282C244.075 103.03 243.925 102.764 243.787 102.511C243.828 102.093 243.519 101.784 243.473 101.398C243.33 100.96 243.212 100.523 243.069 100.084C242.826 99.3575 242.401 98.8459 241.645 98.593C240.633 98.2433 239.649 97.8206 238.676 97.4106C238.397 97.2882 237.903 97.2683 238.209 96.7243C238.247 96.7135 238.284 96.7026 238.334 96.7046C238.641 96.754 238.921 96.8518 239.057 97.154C240.158 97.7545 241.37 98.0628 242.526 98.5172C242.928 98.6693 243.13 98.8629 243.262 99.2638C243.691 100.579 244.171 101.872 244.638 103.176C244.758 103.255 244.767 103.342 244.603 103.422Z" fill="#C1A66F"/>
<path d="M251.782 100.385C250.615 100.511 249.471 100.069 248.291 100.207C247.901 100.068 247.537 100.19 247.175 100.286C246.931 100.202 246.739 100.071 246.812 99.7895C246.901 99.4222 247.177 99.6188 247.375 99.6267C248.435 99.694 249.488 99.9588 250.544 99.8159C250.684 99.7102 250.844 99.729 251.004 99.7478C251.15 99.8031 251.322 99.8348 251.455 99.9019C251.686 99.9978 251.817 100.139 251.782 100.385Z" fill="#C2A671"/>
<path d="M242.324 89.3621C243.53 90.1029 244.643 91.0006 245.693 91.9575C245.726 92.0454 245.76 92.1333 245.756 92.232C245.685 92.7731 245.247 92.8915 244.935 92.6564C243.854 91.8713 242.697 91.1325 241.825 90.0838C241.804 89.9841 241.795 89.8972 241.786 89.8103C241.918 89.6178 242.062 89.4134 242.324 89.3621Z" fill="#E5CFAE"/>
<path d="M242.245 91.3358C242.206 92.6075 242.414 93.8892 242.228 95.1549C241.961 95.0206 241.455 95.2969 241.404 94.7262C241.421 94.6157 241.499 94.5199 241.529 94.3975C242.023 93.1812 241.579 91.9271 241.666 90.6821C241.746 90.537 241.857 90.5291 241.991 90.5716C242.113 90.6259 242.209 90.7039 242.278 90.8303C242.345 91.0061 242.351 91.167 242.245 91.3358Z" fill="#C2A772"/>
<path d="M249.648 91.3983C249.895 91.4082 250.155 91.4063 250.401 91.4162C250.49 91.667 250.408 91.8615 250.216 92.0392C249.278 92.3105 248.318 92.5068 247.358 92.7031C247.097 92.7544 246.782 92.9025 246.625 92.5006C246.667 92.3663 246.769 92.2962 246.918 92.2775C247.766 91.78 248.8 91.8957 249.648 91.3983Z" fill="#D9C29D"/>
<path d="M241.528 94.3983C241.525 94.4723 241.509 94.5582 241.506 94.6323C241.425 95.1111 241.202 95.4359 240.688 95.6254C240.11 95.8494 239.671 96.3262 239.103 96.6124C238.825 96.7496 238.598 96.8641 238.323 96.6429C238.396 96.3615 238.587 96.2085 238.85 96.1325C239.739 95.5502 240.639 94.9806 241.528 94.3983Z" fill="#CEB790"/>
<path d="M246.906 92.241C246.816 92.3239 246.726 92.4068 246.636 92.4897C246.462 92.8412 246.241 93.0919 245.803 92.926C245.653 92.6604 245.691 92.3405 245.553 92.063C245.605 92.0156 245.643 91.9801 245.695 91.9327C246.097 92.0601 246.489 92.1501 246.906 92.241Z" fill="#E2CAA6"/>
<path d="M241.9 90.7042C241.826 90.7012 241.727 90.6973 241.653 90.6943C241.565 90.4435 241.612 90.1858 241.683 89.9538C241.673 89.8916 241.7 89.8432 241.737 89.8323C241.775 89.8215 241.8 89.8225 241.811 89.8353C241.847 89.8738 241.894 89.9252 241.93 89.9637C241.926 90.0624 241.984 90.1513 242.018 90.2392C242.062 90.3646 242.144 90.4791 242.089 90.6253C242.036 90.6973 241.974 90.7072 241.9 90.7042Z" fill="#C9AE7C"/>
<path d="M241.81 89.8352C241.772 89.8707 241.72 89.9181 241.682 89.9537C241.733 89.5972 241.951 89.3959 242.311 89.3732C242.157 89.5154 241.977 89.6812 241.81 89.8352Z" fill="#D4C0A2"/>
<path d="M238.851 96.1317C238.685 96.2857 238.505 96.4515 238.338 96.6055C238.348 96.6677 238.346 96.7171 238.295 96.7398C238.245 96.7625 238.22 96.7615 238.209 96.7487L238.198 96.7112C238.274 96.3557 238.479 96.1662 238.851 96.1317Z" fill="#C6BAA9"/>
<path d="M241.899 90.7047C241.937 90.6692 241.976 90.6337 242.027 90.5863C242.499 90.5311 242.654 90.9823 242.981 91.1562C243.054 91.1838 243.126 91.2362 243.198 91.2885C243.991 91.8643 244.598 92.754 245.681 92.8717C246.896 92.7969 248.049 92.3982 249.233 92.1615C249.731 92.0579 250.138 92.0866 250.428 92.5556C250.538 93.5242 250.022 94.3565 249.862 95.2648C249.767 95.4712 249.696 95.7032 249.662 95.949C249.541 96.1791 249.36 96.3696 249.46 96.6579C249.457 96.732 249.454 96.806 249.439 96.8672C249.436 96.9413 249.421 97.0025 249.43 97.0894C249.826 98.0077 250.591 98.6565 251.063 99.5284C251.178 99.7309 251.37 99.8869 251.273 100.143C251.152 100.088 251.029 100.059 250.908 100.004C250.485 99.7525 250.177 99.4187 249.96 98.9773C249.492 98.3157 248.974 97.6768 248.506 97.0152C248.196 96.4217 248.733 95.9735 248.792 95.4443C248.839 94.8776 249.169 94.3593 249.327 93.8094C249.512 93.2111 249.286 92.9918 248.689 93.0915C247.805 93.2414 246.93 93.4782 246.08 93.716C245.567 93.8561 245.225 93.7681 244.866 93.4571C244.748 93.3287 244.63 93.2003 244.511 93.0719C244.179 93.0215 244.122 92.5989 243.79 92.5485C243.255 92.0202 242.463 91.7534 242.122 90.998C242.053 90.8716 241.982 90.7946 241.899 90.7047Z" fill="#D3B989"/>
<path d="M244.881 93.4197C245.913 93.8691 246.841 93.2265 247.799 93.0796C248.421 92.981 249.216 92.5803 249.609 92.9545C250.038 93.3427 249.526 94.1009 249.295 94.6231C248.982 95.3399 249.034 96.1949 248.442 96.7645C248.487 96.8899 248.435 96.9373 248.314 96.883C248.193 95.9015 248.66 95.0426 248.919 94.1383C249.004 93.8697 249.238 93.5824 249.063 93.3158C248.829 92.985 248.461 93.2298 248.186 93.2929C247.476 93.4251 246.764 93.6067 246.076 93.8139C245.55 93.9905 245.173 93.8394 244.881 93.4197Z" fill="#CDB17F"/>
<path d="M238.208 96.7491C238.246 96.7136 238.286 96.6533 238.324 96.6178C239.411 96.0187 240.534 95.4581 241.494 94.6437C241.59 95.0307 242.013 94.9489 242.215 95.1671C241.104 95.7406 240.028 96.3525 239.045 97.1412C238.711 97.1402 238.446 96.9812 238.208 96.7491Z" fill="#CCB17E"/>
<path d="M248.327 96.8958C248.365 96.8603 248.417 96.8129 248.455 96.7773C249.021 97.4676 249.587 98.1332 249.975 98.9399C249.307 98.3444 248.893 97.5614 248.327 96.8958Z" fill="#CEB380"/>
<path d="M242.137 90.9612C242.685 91.4777 243.258 91.9952 243.806 92.5117C243.211 92.2282 242.709 91.8124 242.246 91.3364C242.201 91.211 242.17 91.0738 242.137 90.9612Z" fill="#CFB483"/>
<path d="M249.963 98.9277C250.283 99.2744 250.591 99.6081 250.911 99.9548C250.789 99.9004 250.667 99.8708 250.545 99.8165C250.334 99.536 249.984 99.3365 249.963 98.9277Z" fill="#CEB380"/>
<path d="M244.602 103.422C244.593 103.335 244.609 103.249 244.6 103.163C244.819 102.961 245.024 102.772 245.242 102.57C245.153 102.938 245.004 103.265 244.602 103.422Z" fill="#CCB58A"/>
<path d="M243.805 92.511C244.15 92.5496 244.312 92.8281 244.526 93.0345C244.181 92.9959 244.019 92.7174 243.805 92.511Z" fill="#CFB483"/>
<path d="M249.195 96.8068C249.233 96.7713 249.284 96.7239 249.323 96.6883C249.343 96.5037 249.435 96.3714 249.588 96.2539C249.702 96.172 249.829 96.1029 249.964 96.1207L249.965 96.096C250.701 97.1517 251.449 98.2201 252.199 99.2639C252.352 99.4555 252.48 99.646 252.296 99.9106C251.989 100.479 251.62 100.131 251.332 99.9213C251.104 99.7514 250.917 99.472 250.729 99.2172C250.623 98.7926 250.274 98.5437 250.003 98.2238C249.908 98.1211 249.813 98.0184 249.757 97.8801C249.726 97.4339 249.163 97.2876 249.195 96.8068Z" fill="#E4CEAC"/>
<path d="M250.589 92.9077C250.239 93.6106 250.231 94.4262 249.772 95.0876C249.78 95.1992 249.728 95.2466 249.606 95.2169C249.851 94.3491 250.095 93.5059 250.34 92.6381C250.335 92.4525 250.269 92.252 250.52 92.1632C250.556 92.177 250.594 92.1662 250.63 92.18C250.683 92.417 250.66 92.6757 250.589 92.9077Z" fill="#DBD1C1"/>
<path d="M250.134 91.9C250.227 91.743 250.308 91.5732 250.413 91.4044C251.328 91.4164 250.728 91.8744 250.63 92.1795L250.618 92.1667C250.369 92.2061 250.159 92.21 250.134 91.9Z" fill="#E3CDAB"/>
<path d="M250.822 99.0856C251.279 99.4007 251.401 100.357 252.285 99.8985C252.26 100.207 252.2 100.476 251.783 100.385C251.615 100.28 251.445 100.199 251.276 100.093C250.428 99.0451 249.543 98.0082 248.937 96.7848C249.359 97.0366 249.667 97.3704 249.884 97.8118C249.967 97.9017 250.038 97.9787 250.121 98.0685C250.215 98.505 250.728 98.6492 250.822 99.0856Z" fill="#DAC095"/>
<path d="M241.92 90.2108C241.923 90.1368 241.914 90.0499 241.929 89.964C242.887 90.7442 243.857 91.5125 244.815 92.2927C245.163 92.5662 245.445 92.6147 245.565 92.1003C245.741 92.3175 245.993 92.5131 245.782 92.8507C245.744 92.8616 245.707 92.8724 245.656 92.8951C245.404 93.0086 245.226 93.1498 244.928 92.8782C244.331 92.3351 243.645 91.8748 242.997 91.4037C242.528 91.0759 242.172 90.6907 241.92 90.2108Z" fill="#E0CBAA"/>
<path d="M250.133 91.901C250.29 91.9938 250.46 92.0748 250.617 92.1677C250.524 92.3247 250.431 92.4816 250.338 92.6386C249.896 92.2623 249.428 92.2188 248.889 92.4073C248.023 92.731 247.061 92.6676 246.204 93.0782C246.003 93.169 245.808 93.087 245.641 92.9566C245.631 92.8944 245.645 92.8579 245.695 92.8352C245.732 92.8244 245.757 92.8253 245.769 92.8382C246.07 92.7267 246.347 92.6142 246.648 92.5026C247.583 92.3054 248.517 92.1327 249.452 91.9354C249.664 91.8822 249.889 91.817 250.133 91.901Z" fill="#D9BF93"/>
<path d="M241.918 90.21C242.273 90.5951 242.629 90.9802 242.984 91.3654C242.53 91.2853 242.325 90.8568 242.027 90.5852C241.982 90.4598 241.962 90.3354 241.918 90.21Z" fill="#DBC29A"/>
<path d="M245.77 92.8377C245.731 92.8732 245.68 92.9206 245.641 92.9562C245.486 93.123 245.365 93.3777 245.09 93.1318C244.41 92.5235 243.575 92.082 242.986 91.366C243.619 91.5893 244.107 92.0663 244.622 92.4702C244.995 92.7447 245.322 92.8939 245.77 92.8377Z" fill="#DBC29A"/>
<path d="M249.606 95.2173C249.657 95.17 249.708 95.1226 249.772 95.088C249.845 95.4247 249.893 95.7605 249.966 96.0972C249.9 96.2057 249.87 96.3282 249.722 96.3222C249.453 96.2373 249.499 96.0289 249.495 95.8186C249.417 95.6054 249.438 95.396 249.606 95.2173Z" fill="#E3D8C8"/>
<path d="M249.457 95.8291C249.537 95.993 249.617 96.1569 249.684 96.3327C249.615 96.5153 249.487 96.6338 249.299 96.6881C249.078 96.3454 249.2 96.066 249.457 95.8291Z" fill="#DEC69F"/>
<path d="M249.884 97.8119C249.564 97.4652 249.256 97.1315 248.936 96.7848C249.01 96.7878 249.109 96.7918 249.183 96.7948C249.442 97.1266 249.841 97.3527 249.884 97.8119Z" fill="#DEC69F"/>
<path d="M250.822 99.0858C250.575 98.7669 250.165 98.5279 250.121 98.0687C250.38 98.4005 250.779 98.6267 250.822 99.0858Z" fill="#DEC6A0"/>
<path d="M119.86 7.83351C121.748 7.97797 122.747 10.1365 121.635 11.6696L121.592 11.7291C121.177 12.3014 121.052 13.0342 121.254 13.7117L121.336 13.9886C121.851 15.7159 120.126 17.2644 118.464 16.5677C117.792 16.2862 117.016 16.3714 116.417 16.7854C114.95 17.7987 112.923 16.7657 112.925 14.9831L112.926 14.5118C112.927 13.7887 112.609 13.1019 112.057 12.6345L111.697 12.33C110.337 11.1781 110.861 8.96416 112.582 8.5018C113.286 8.31289 113.853 7.77631 114.073 7.08203C114.617 5.36391 116.914 5.05104 117.898 6.56092L118.056 6.80294C118.442 7.39514 119.081 7.77398 119.786 7.82791L119.86 7.83351Z" fill="#C1A66F"/>
<path d="M119.858 7.83336C121.746 7.97782 122.746 10.1363 121.634 11.6694L121.379 12.0208C121.098 12.4091 121.013 12.9063 121.15 13.366L122.265 17.1139C122.371 17.4692 121.95 17.7447 121.667 17.5058L118.835 14.9435C118.213 14.3803 117.855 13.5819 117.848 12.7424L117.842 11.9941C117.838 11.41 117.663 10.8399 117.339 10.3538L115.971 8.30188C115.746 7.96343 115.591 7.58266 115.517 7.1827L115.019 4.48405C115.001 4.38329 115.006 4.27959 115.034 4.18108C115.19 3.63402 115.918 3.52444 116.228 4.0011L118.073 6.8307C118.447 7.4053 119.068 7.77289 119.752 7.82521L119.858 7.83336Z" fill="#E3CDAB"/>
<path d="M116.994 16.0004C116.574 16.2144 116.169 16.421 115.748 16.635C115.688 17.3366 115.148 17.6251 114.615 17.9295C114.331 18.0225 114.064 18.0692 113.759 18.0756C113.356 17.9541 113.404 17.6429 113.406 17.3147C113.42 16.5961 113.294 15.8655 113.377 15.1724C113.57 13.7167 112.846 12.8196 111.761 12.0131C111.172 11.5733 110.352 11.2985 110.191 10.4105C110.749 9.78649 111.563 9.7563 112.295 9.59078C112.696 9.50127 113.08 9.45815 113.446 9.25034C114.201 8.59312 114.153 7.57568 114.522 6.75053C114.664 6.43439 114.577 5.95502 115.132 5.9483C115.638 6.29179 115.863 6.86128 116.248 7.31836C116.316 7.38295 116.361 7.43902 116.414 7.51094C116.539 7.78042 116.735 7.99737 116.932 8.21432C117.014 8.34965 117.087 8.50817 117.161 8.66669C117.447 9.28493 118.034 9.26353 118.579 9.31905C119.187 9.38425 119.79 9.31648 120.404 9.43658C121.321 9.62832 121.474 10.0002 120.88 10.7561C120.425 11.352 119.962 11.932 119.614 12.5936C119.514 12.7938 119.5 12.9732 119.518 13.1769C119.715 13.8941 119.865 14.6332 120.228 15.2929C120.264 15.3721 120.285 15.4587 120.306 15.5453C120.296 15.8967 120.529 16.1929 120.463 16.5505C120.273 16.8886 119.987 16.8096 119.708 16.7075C119.144 16.4873 118.564 16.3134 118.034 16.0005C117.727 15.7959 117.323 15.4632 116.994 16.0004Z" fill="#C8AC77"/>
<path d="M113.584 18.1955C113.469 18.1139 113.354 18.0323 113.255 17.9433C113.201 17.6603 113.14 17.3615 113.086 17.0785C113.254 16.6928 113.055 16.3038 113.129 15.9231C113.127 15.4619 113.148 15.0093 113.147 14.5481C113.138 13.782 112.891 13.1649 112.249 12.6922C111.393 12.049 110.586 11.3447 109.786 10.6563C109.558 10.4541 109.094 10.2838 109.552 9.85991C109.591 9.86108 109.63 9.86226 109.676 9.87929C109.954 10.0205 110.19 10.1996 110.227 10.529C111.091 11.4381 112.149 12.1031 113.111 12.8901C113.446 13.1582 113.58 13.4045 113.582 13.8266C113.588 15.2101 113.648 16.5874 113.692 17.9721C113.782 18.0843 113.764 18.1697 113.584 18.1955Z" fill="#C1A66F"/>
<path d="M121.348 17.5071C120.199 17.2693 119.245 16.4981 118.08 16.2675C117.751 16.0154 117.368 16.0195 116.994 16.0003C116.787 15.8456 116.644 15.6616 116.8 15.4162C116.998 15.0939 117.2 15.3657 117.386 15.4338C118.375 15.8231 119.295 16.398 120.345 16.5859C120.51 16.5284 120.657 16.5953 120.803 16.6622C120.925 16.7597 121.079 16.8425 121.186 16.9473C121.376 17.1094 121.457 17.2837 121.348 17.5071Z" fill="#C2A671"/>
<path d="M115.726 4.11367C116.647 5.1887 117.431 6.38467 118.137 7.61733C118.142 7.71127 118.147 7.80521 118.113 7.89796C117.879 8.39111 117.426 8.36966 117.201 8.05026C116.413 6.97142 115.539 5.91342 115.03 4.6476C115.04 4.54633 115.059 4.4609 115.077 4.37547C115.261 4.23253 115.461 4.08224 115.726 4.11367Z" fill="#E5CFAE"/>
<path d="M115.044 5.96933C114.618 7.16787 114.423 8.45155 113.857 9.599C113.644 9.38939 113.078 9.49738 113.204 8.93847C113.254 8.83838 113.358 8.77117 113.424 8.66373C114.267 7.6575 114.229 6.32771 114.693 5.16939C114.814 5.05579 114.923 5.08251 115.037 5.16413C115.136 5.25308 115.204 5.3567 115.231 5.4982C115.241 5.68607 115.197 5.84106 115.044 5.96933Z" fill="#C2A772"/>
<path d="M122.071 8.29932C122.303 8.38447 122.551 8.46227 122.783 8.54741C122.79 8.81337 122.653 8.97334 122.415 9.08341C121.439 9.05399 120.465 8.94651 119.491 8.83901C119.227 8.80758 118.881 8.85189 118.855 8.42125C118.937 8.30647 119.055 8.27096 119.203 8.29886C120.163 8.08551 121.111 8.51267 122.071 8.29932Z" fill="#D9C29D"/>
<path d="M113.424 8.66357C113.399 8.73314 113.357 8.81004 113.332 8.87961C113.108 9.31052 112.796 9.55122 112.248 9.57379C111.629 9.60985 111.065 9.92891 110.437 10.0272C110.13 10.0727 109.879 10.112 109.685 9.81699C109.841 9.57159 110.07 9.48471 110.343 9.49294C111.368 9.2112 112.4 8.94531 113.424 8.66357Z" fill="#CEB790"/>
<path d="M119.204 8.25972C119.093 8.31109 118.982 8.36245 118.871 8.41381C118.597 8.69472 118.31 8.86584 117.944 8.57344C117.883 8.27461 118.017 7.98166 117.971 7.67548C118.034 7.64613 118.082 7.62412 118.145 7.59477C118.49 7.83961 118.835 8.04541 119.204 8.25972Z" fill="#E2CAA6"/>
<path d="M114.911 5.26221C114.842 5.23667 114.749 5.20261 114.679 5.17707C114.672 4.91111 114.796 4.68039 114.935 4.48137C114.944 4.41914 114.985 4.38128 115.024 4.38245C115.063 4.38363 115.086 4.39214 115.093 4.40799C115.115 4.45555 115.144 4.51896 115.167 4.56651C115.132 4.65927 115.161 4.76172 115.166 4.85566C115.169 4.98864 115.212 5.1228 115.115 5.24491C115.043 5.29745 114.981 5.28775 114.911 5.26221Z" fill="#C9AE7C"/>
<path d="M115.092 4.40753C115.044 4.42954 114.981 4.45889 114.933 4.4809C115.092 4.15742 115.361 4.03268 115.71 4.12136C115.52 4.20941 115.298 4.31213 115.092 4.40753Z" fill="#D4C0A2"/>
<path d="M110.344 9.49351C110.138 9.5889 109.916 9.69163 109.71 9.78702C109.7 9.84925 109.683 9.89564 109.628 9.9018C109.573 9.90796 109.55 9.89945 109.543 9.88359L109.544 9.84455C109.725 9.52958 109.979 9.41218 110.344 9.49351Z" fill="#C6BAA9"/>
<path d="M114.911 5.26169C114.958 5.23967 115.006 5.21766 115.069 5.18831C115.536 5.28051 115.545 5.75754 115.802 6.02321C115.863 6.07195 115.916 6.14387 115.968 6.21579C116.546 7.00694 116.851 8.03995 117.846 8.48416C119.025 8.78541 120.245 8.75966 121.445 8.89741C121.951 8.95175 122.329 9.10382 122.462 9.63926C122.269 10.5948 121.523 11.2288 121.092 12.0442C120.938 12.2115 120.799 12.4106 120.691 12.6339C120.506 12.8159 120.275 12.9419 120.282 13.2468C120.256 13.3164 120.231 13.386 120.198 13.4397C120.172 13.5093 120.139 13.563 120.121 13.6484C120.216 14.6439 120.745 15.4961 120.927 16.4707C120.975 16.6987 121.109 16.906 120.939 17.1197C120.84 17.0307 120.732 16.965 120.634 16.876C120.309 16.5067 120.118 16.0946 120.047 15.6079C119.804 14.8346 119.507 14.0676 119.264 13.2943C119.151 12.6344 119.8 12.3726 120.018 11.8868C120.237 11.362 120.71 10.9698 121.029 10.4949C121.388 9.98206 121.24 9.70407 120.641 9.61567C119.754 9.48734 118.849 9.44443 117.967 9.41003C117.436 9.38622 117.137 9.19745 116.891 8.79145C116.818 8.63293 116.745 8.47441 116.671 8.31589C116.371 8.16616 116.446 7.74639 116.146 7.59666C115.798 6.9297 115.126 6.43268 115.033 5.60926C115.006 5.46777 114.962 5.37265 114.911 5.26169Z" fill="#D3B989"/>
<path d="M116.916 8.76119C117.761 9.50569 118.841 9.17874 119.798 9.33262C120.42 9.42953 121.3 9.2919 121.559 9.76864C121.849 10.2697 121.128 10.8342 120.748 11.2604C120.23 11.8466 120.018 12.6764 119.28 13.0372C119.284 13.1702 119.22 13.1995 119.121 13.1106C119.307 12.1392 120.015 11.465 120.539 10.6836C120.702 10.454 121.013 10.2524 120.928 9.94503C120.807 9.55841 120.381 9.67845 120.101 9.65436C119.385 9.56244 118.651 9.51689 117.933 9.50305C117.378 9.50977 117.065 9.25026 116.916 8.76119Z" fill="#CDB17F"/>
<path d="M109.541 9.88323C109.589 9.86122 109.645 9.81601 109.692 9.794C110.911 9.55718 112.151 9.36791 113.315 8.88715C113.287 9.28491 113.715 9.33689 113.84 9.60638C112.607 9.81149 111.396 10.0642 110.218 10.5132C109.9 10.4099 109.696 10.1771 109.541 9.88323Z" fill="#CCB17E"/>
<path d="M119.129 13.1261C119.176 13.1041 119.24 13.0747 119.287 13.0527C119.614 13.8832 119.949 14.6905 120.071 15.5773C119.617 14.8055 119.464 13.9334 119.129 13.1261Z" fill="#CEB380"/>
<path d="M115.056 5.57924C115.419 6.23887 115.806 6.90701 116.169 7.56663C115.69 7.11454 115.339 6.5647 115.045 5.96966C115.041 5.83668 115.053 5.69636 115.056 5.57924Z" fill="#CFB483"/>
<path d="M120.062 15.5615C120.261 15.9895 120.451 16.4017 120.65 16.8297C120.551 16.7407 120.443 16.675 120.344 16.586C120.229 16.2543 119.957 15.9569 120.062 15.5615Z" fill="#CEB380"/>
<path d="M113.583 18.1957C113.601 18.1103 113.642 18.0334 113.661 17.9479C113.93 17.8232 114.184 17.7058 114.453 17.5811C114.256 17.9034 114.013 18.1696 113.583 18.1957Z" fill="#CCB58A"/>
<path d="M116.17 7.56654C116.486 7.70893 116.554 8.02362 116.695 8.28577C116.379 8.14338 116.31 7.82869 116.17 7.56654Z" fill="#CFB483"/>
<path d="M119.982 13.3082C120.03 13.2862 120.093 13.2569 120.141 13.2348C120.216 13.0652 120.344 12.9674 120.526 12.9026C120.66 12.8597 120.802 12.8327 120.925 12.8911L120.934 12.868C121.311 14.0985 121.695 15.345 122.088 16.5682C122.175 16.7975 122.239 17.0182 121.983 17.2137C121.516 17.6608 121.271 17.2157 121.061 16.928C120.896 16.6964 120.804 16.3732 120.704 16.0732C120.733 15.6364 120.477 15.2926 120.317 14.9049C120.259 14.778 120.2 14.6512 120.189 14.5024C120.296 14.0679 119.805 13.7562 119.982 13.3082Z" fill="#E4CEAC"/>
<path d="M122.503 10.0237C121.955 10.5855 121.697 11.3593 121.057 11.848C121.03 11.9566 120.967 11.986 120.86 11.9202C121.359 11.1693 121.85 10.4416 122.349 9.69077C122.402 9.51259 122.4 9.30154 122.666 9.29392C122.697 9.31829 122.736 9.31947 122.766 9.34383C122.743 9.58542 122.642 9.82466 122.503 10.0237Z" fill="#DBD1C1"/>
<path d="M122.381 8.92568C122.518 8.80475 122.647 8.66797 122.799 8.53969C123.666 8.83153 122.955 9.08365 122.767 9.34373L122.76 9.32788C122.511 9.28912 122.309 9.22833 122.381 8.92568Z" fill="#E3CDAB"/>
<path d="M120.83 15.9755C121.169 16.4156 120.992 17.3638 121.974 17.198C121.856 17.4836 121.716 17.7216 121.347 17.5073C121.219 17.355 121.082 17.2258 120.954 17.0734C120.468 15.8161 119.943 14.5576 119.742 13.2073C120.066 13.5766 120.257 13.9888 120.329 14.4755C120.38 14.5864 120.424 14.6815 120.475 14.7925C120.431 15.2367 120.875 15.5314 120.83 15.9755Z" fill="#DAC095"/>
<path d="M115.081 4.79828C115.106 4.72871 115.124 4.64329 115.166 4.56638C115.838 5.60265 116.526 6.63158 117.198 7.66785C117.445 8.03481 117.699 8.16751 117.97 7.71458C118.072 7.97555 118.252 8.23888 117.947 8.49542C117.908 8.49424 117.869 8.49306 117.814 8.49922C117.539 8.53003 117.326 8.60957 117.126 8.25965C116.725 7.5598 116.213 6.91132 115.74 6.26402C115.394 5.80811 115.174 5.33254 115.081 4.79828Z" fill="#E0CBAA"/>
<path d="M122.381 8.92593C122.502 9.06244 122.638 9.19162 122.759 9.32813C122.623 9.44906 122.486 9.56998 122.35 9.69092C122.044 9.19715 121.612 9.01219 121.041 9.02625C120.118 9.06875 119.222 8.71351 118.28 8.84144C118.061 8.86609 117.901 8.7284 117.781 8.55285C117.79 8.49062 117.815 8.46009 117.87 8.45393C117.909 8.45511 117.932 8.46362 117.939 8.47947C118.26 8.46569 118.558 8.4434 118.879 8.42962C119.829 8.52861 120.771 8.65078 121.722 8.74976C121.94 8.76416 122.174 8.77122 122.381 8.92593Z" fill="#D9BF93"/>
<path d="M115.08 4.79785C115.3 5.27342 115.52 5.74898 115.74 6.22454C115.333 6.00905 115.269 5.53819 115.068 5.18827C115.065 5.05529 115.084 4.93083 115.08 4.79785Z" fill="#DBC29A"/>
<path d="M117.939 8.47904C117.891 8.50105 117.828 8.5304 117.78 8.55242C117.582 8.66366 117.388 8.86885 117.202 8.55063C116.741 7.76301 116.082 7.08662 115.74 6.22445C116.275 6.63134 116.593 7.2349 116.96 7.7774C117.23 8.15287 117.496 8.39535 117.939 8.47904Z" fill="#DBC29A"/>
<path d="M120.861 11.9201C120.924 11.8907 120.987 11.8614 121.058 11.8479C121.024 12.1908 120.967 12.5251 120.934 12.868C120.837 12.951 120.772 13.0585 120.632 13.0074C120.403 12.8442 120.51 12.6598 120.571 12.4585C120.562 12.2315 120.646 12.0387 120.861 11.9201Z" fill="#E3D8C8"/>
<path d="M120.531 12.458C120.557 12.6385 120.583 12.8191 120.593 13.0069C120.471 13.1596 120.313 13.233 120.117 13.2271C120.012 12.8331 120.214 12.6048 120.531 12.458Z" fill="#DEC69F"/>
<path d="M120.33 14.4754C120.132 14.0474 119.941 13.6353 119.743 13.2073C119.813 13.2328 119.906 13.2669 119.975 13.2924C120.12 13.6875 120.43 14.0251 120.33 14.4754Z" fill="#DEC69F"/>
<path d="M120.831 15.9761C120.694 15.5968 120.377 15.2434 120.476 14.7931C120.62 15.1882 120.931 15.5258 120.831 15.9761Z" fill="#DEC6A0"/>
<path d="M13.956 118.593C15.7975 118.151 17.4105 119.899 16.8226 121.7L16.7997 121.769C16.5803 122.441 16.686 123.177 17.0858 123.76L17.2492 123.999C18.2684 125.485 17.1018 127.488 15.3061 127.334C14.5804 127.272 13.8679 127.591 13.4245 128.169C12.3395 129.584 10.0934 129.222 9.5486 127.525L9.40457 127.076C9.18355 126.387 8.67033 125.831 8.0017 125.556L7.56597 125.376C5.91791 124.697 5.73769 122.429 7.23445 121.461C7.846 121.065 8.22118 120.381 8.21765 119.652C8.20891 117.85 10.2989 116.848 11.6987 117.983L11.9231 118.165C12.4721 118.611 13.1971 118.775 13.8845 118.61L13.956 118.593Z" fill="#C1A66F"/>
<path d="M13.9543 118.593C15.7958 118.151 17.4088 119.899 16.8208 121.699L16.6861 122.112C16.5372 122.568 16.6089 123.067 16.8801 123.463L19.0918 126.688C19.3014 126.993 18.9854 127.385 18.6424 127.244L15.1612 125.674C14.3959 125.329 13.8103 124.679 13.5465 123.882L13.3114 123.171C13.128 122.617 12.7866 122.128 12.3292 121.764L10.3983 120.231C10.0798 119.978 9.81609 119.663 9.62316 119.305L8.32142 116.889C8.27281 116.799 8.24575 116.698 8.24235 116.596C8.22346 116.027 8.88197 115.7 9.32388 116.058L11.9472 118.186C12.4799 118.618 13.1834 118.777 13.8504 118.618L13.9543 118.593Z" fill="#E3CDAB"/>
<path d="M13.7338 127.246C13.399 127.578 13.0771 127.899 12.7423 128.232C12.9002 128.918 12.4745 129.358 12.0607 129.811C11.8188 129.987 11.5788 130.113 11.2905 130.213C10.8699 130.221 10.8206 129.91 10.7219 129.597C10.5147 128.909 10.1702 128.252 10.0371 127.567C9.77371 126.122 8.81018 125.49 7.52966 125.055C6.83461 124.817 5.9697 124.807 5.54429 124.011C5.88408 123.246 6.64934 122.968 7.29513 122.586C7.64963 122.378 8.00215 122.219 8.28656 121.909C8.8031 121.052 8.44585 120.098 8.54377 119.2C8.58234 118.855 8.35237 118.426 8.87867 118.249C9.46512 118.421 9.85405 118.894 10.3605 119.211C10.4454 119.251 10.5056 119.291 10.5777 119.343C10.7791 119.561 11.0328 119.708 11.2865 119.854C11.406 119.958 11.5244 120.086 11.6429 120.214C12.1049 120.715 12.6568 120.515 13.193 120.4C13.7914 120.276 14.3453 120.026 14.9664 119.952C15.8975 119.854 16.1571 120.161 15.8242 121.062C15.5732 121.769 15.3105 122.463 15.182 123.2C15.1484 123.421 15.1908 123.596 15.2698 123.784C15.6774 124.406 16.0466 125.064 16.5944 125.58C16.6537 125.645 16.7001 125.721 16.7465 125.797C16.8441 126.134 17.1571 126.345 17.2044 126.705C17.1273 127.085 16.8302 127.098 16.5339 127.086C15.9297 127.05 15.3234 127.062 14.7232 126.927C14.3687 126.826 13.882 126.633 13.7338 127.246Z" fill="#C8AC77"/>
<path d="M11.1599 130.381C11.0257 130.338 10.8914 130.296 10.7699 130.241C10.6318 129.989 10.4817 129.723 10.3436 129.47C10.3851 129.052 10.0761 128.743 10.0298 128.357C9.88669 127.919 9.7683 127.482 9.62521 127.043C9.38246 126.316 8.95799 125.805 8.20172 125.552C7.18975 125.202 6.20543 124.78 5.23297 124.37C4.95357 124.247 4.4599 124.227 4.76608 123.683C4.8036 123.672 4.84112 123.662 4.89049 123.664C5.19754 123.713 5.47794 123.811 5.61414 124.113C6.71493 124.713 7.92634 125.022 9.08245 125.476C9.48427 125.628 9.68665 125.822 9.81888 126.223C10.2481 127.538 10.7277 128.831 11.1945 130.135C11.315 130.214 11.3238 130.301 11.1599 130.381Z" fill="#C1A66F"/>
<path d="M18.3387 127.344C17.1716 127.47 16.0274 127.028 14.8475 127.166C14.4575 127.027 14.0941 127.149 13.7317 127.245C13.4879 127.161 13.2954 127.03 13.3685 126.748C13.4574 126.381 13.7338 126.578 13.9313 126.586C14.9917 126.653 16.0442 126.918 17.1007 126.775C17.2409 126.669 17.4008 126.688 17.5608 126.707C17.7069 126.762 17.8787 126.794 18.012 126.861C18.243 126.957 18.3733 127.098 18.3387 127.344Z" fill="#C2A671"/>
<path d="M8.88017 116.321C10.0866 117.062 11.2001 117.96 12.2495 118.916C12.2831 119.004 12.3166 119.092 12.3127 119.191C12.2415 119.732 11.804 119.85 11.4921 119.615C10.4111 118.83 9.25405 118.092 8.38142 117.043C8.36071 116.943 8.35183 116.856 8.34296 116.769C8.47432 116.577 8.61851 116.372 8.88017 116.321Z" fill="#E5CFAE"/>
<path d="M8.80175 118.295C8.76301 119.567 8.9711 120.848 8.78426 122.114C8.5177 121.98 8.01212 122.256 7.96089 121.685C7.97769 121.575 8.05571 121.479 8.08536 121.356C8.57926 120.14 8.13518 118.886 8.22229 117.641C8.3023 117.496 8.41387 117.488 8.54814 117.531C8.66957 117.585 8.76533 117.663 8.83443 117.789C8.90153 117.965 8.90743 118.126 8.80175 118.295Z" fill="#C2A772"/>
<path d="M16.2047 118.357C16.4516 118.367 16.7113 118.365 16.9581 118.375C17.0469 118.626 16.9649 118.82 16.7723 118.998C15.8343 119.27 14.8746 119.466 13.9148 119.662C13.6532 119.713 13.3382 119.861 13.1813 119.46C13.2237 119.325 13.3255 119.255 13.4746 119.236C14.3228 118.739 15.3565 118.855 16.2047 118.357Z" fill="#D9C29D"/>
<path d="M8.08472 121.357C8.08174 121.431 8.06593 121.517 8.06295 121.591C7.9819 122.07 7.7587 122.395 7.24425 122.584C6.66661 122.808 6.22715 123.285 5.65937 123.571C5.3819 123.709 5.15479 123.823 4.87936 123.602C4.95247 123.321 5.14405 123.168 5.4067 123.092C6.29542 122.509 7.19599 121.94 8.08472 121.357Z" fill="#CEB790"/>
<path d="M13.4627 119.2C13.3728 119.283 13.283 119.366 13.1931 119.449C13.0183 119.8 12.7981 120.051 12.3597 119.885C12.2097 119.619 12.2473 119.299 12.1101 119.022C12.1614 118.975 12.1999 118.939 12.2513 118.892C12.6541 119.019 13.0461 119.109 13.4627 119.2Z" fill="#E2CAA6"/>
<path d="M8.4568 117.663C8.38275 117.66 8.28402 117.656 8.20997 117.653C8.12115 117.402 8.16859 117.145 8.23973 116.913C8.22986 116.851 8.25653 116.802 8.29405 116.791C8.33157 116.78 8.35626 116.781 8.3681 116.794C8.40364 116.833 8.45102 116.884 8.48656 116.923C8.48259 117.021 8.54083 117.11 8.57438 117.198C8.61879 117.324 8.70072 117.438 8.6454 117.584C8.59306 117.656 8.53086 117.666 8.4568 117.663Z" fill="#C9AE7C"/>
<path d="M8.36678 116.794C8.32827 116.83 8.27692 116.877 8.2384 116.913C8.28981 116.556 8.50805 116.355 8.86745 116.332C8.7134 116.474 8.53367 116.64 8.36678 116.794Z" fill="#D4C0A2"/>
<path d="M5.40804 123.091C5.24115 123.245 5.06142 123.411 4.89453 123.565C4.90439 123.627 4.90241 123.676 4.85205 123.699C4.80169 123.721 4.77701 123.721 4.76516 123.708L4.7543 123.67C4.8304 123.315 5.0358 123.125 5.40804 123.091Z" fill="#C6BAA9"/>
<path d="M8.45561 117.664C8.49412 117.628 8.53264 117.593 8.58399 117.545C9.05595 117.49 9.21089 117.941 9.53767 118.115C9.61073 118.143 9.68278 118.195 9.75485 118.248C10.5476 118.823 11.1547 119.713 12.2378 119.831C13.4522 119.756 14.6055 119.357 15.7894 119.12C16.288 119.017 16.6948 119.046 16.985 119.515C17.0944 120.483 16.5789 121.315 16.4188 122.224C16.3239 122.43 16.2528 122.662 16.2182 122.908C16.0977 123.138 15.917 123.329 16.0166 123.617C16.0137 123.691 16.0107 123.765 15.9959 123.826C15.9929 123.9 15.9781 123.961 15.9869 124.048C16.3827 124.967 17.1478 125.616 17.6196 126.487C17.7351 126.69 17.9266 126.846 17.8298 127.102C17.7083 127.047 17.5859 127.018 17.4645 126.963C17.0419 126.711 16.7339 126.378 16.5168 125.936C16.0489 125.275 15.5307 124.636 15.0628 123.974C14.7529 123.381 15.2901 122.933 15.3484 122.403C15.3959 121.837 15.7258 121.318 15.8839 120.768C16.0686 120.17 15.8426 119.951 15.2452 120.05C14.3615 120.2 13.4866 120.437 12.6365 120.675C12.124 120.815 11.7814 120.727 11.4231 120.416C11.3046 120.288 11.1862 120.159 11.0677 120.031C10.736 119.98 10.6788 119.558 10.347 119.507C9.81199 118.979 9.0192 118.712 8.6787 117.957C8.60961 117.831 8.53853 117.754 8.45561 117.664Z" fill="#D3B989"/>
<path d="M11.4372 120.379C12.4699 120.828 13.3981 120.186 14.3559 120.039C14.9779 119.94 15.7728 119.539 16.1657 119.914C16.5951 120.302 16.0826 121.06 15.8514 121.582C15.5383 122.299 15.5905 123.154 14.9989 123.724C15.0433 123.849 14.992 123.896 14.8706 123.842C14.7493 122.861 15.2165 122.002 15.4753 121.097C15.5603 120.829 15.7943 120.541 15.6196 120.275C15.3857 119.944 15.0174 120.189 14.7429 120.252C14.0329 120.384 13.321 120.566 12.6328 120.773C12.1065 120.949 11.7294 120.798 11.4372 120.379Z" fill="#CDB17F"/>
<path d="M4.76424 123.708C4.80275 123.673 4.84226 123.612 4.88077 123.577C5.96795 122.978 7.09068 122.417 8.05053 121.603C8.14624 121.99 8.56983 121.908 8.77121 122.126C7.66033 122.7 6.58499 123.312 5.60144 124.1C5.26771 124.099 5.00215 123.94 4.76424 123.708Z" fill="#CCB17E"/>
<path d="M14.8833 123.855C14.9219 123.819 14.9732 123.772 15.0117 123.736C15.5773 124.427 16.144 125.092 16.5318 125.899C15.8635 125.303 15.45 124.52 14.8833 123.855Z" fill="#CEB380"/>
<path d="M8.69389 117.92C9.24177 118.437 9.81434 118.954 10.3622 119.471C9.76789 119.187 9.26541 118.771 8.80243 118.295C8.75802 118.17 8.72645 118.033 8.69389 117.92Z" fill="#CFB483"/>
<path d="M16.5195 125.887C16.8394 126.233 17.1474 126.567 17.4672 126.914C17.3458 126.859 17.2233 126.83 17.1019 126.775C16.8907 126.495 16.5402 126.295 16.5195 125.887Z" fill="#CEB380"/>
<path d="M11.1589 130.381C11.15 130.294 11.1658 130.208 11.1569 130.122C11.3752 129.92 11.5806 129.731 11.7988 129.529C11.7099 129.897 11.5608 130.224 11.1589 130.381Z" fill="#CCB58A"/>
<path d="M10.3619 119.47C10.7064 119.509 10.8683 119.787 11.0825 119.993C10.7379 119.955 10.5761 119.676 10.3619 119.47Z" fill="#CFB483"/>
<path d="M15.7512 123.766C15.7897 123.73 15.8411 123.683 15.8796 123.647C15.8994 123.463 15.9912 123.33 16.1443 123.213C16.2588 123.131 16.3852 123.062 16.5205 123.08L16.5215 123.055C17.2578 124.111 18.006 125.179 18.7552 126.223C18.9083 126.414 19.0366 126.605 18.8529 126.87C18.5457 127.438 18.1765 127.09 17.8882 126.88C17.6602 126.71 17.4736 126.431 17.2861 126.176C17.1795 125.752 16.831 125.503 16.5596 125.183C16.4648 125.08 16.37 124.977 16.3138 124.839C16.2823 124.393 15.7195 124.247 15.7512 123.766Z" fill="#E4CEAC"/>
<path d="M17.1454 119.867C16.7958 120.57 16.7877 121.385 16.3285 122.047C16.3364 122.158 16.285 122.206 16.1626 122.176C16.4076 121.308 16.6516 120.465 16.8967 119.597C16.8917 119.411 16.8256 119.211 17.0764 119.122C17.113 119.136 17.1505 119.125 17.187 119.139C17.2393 119.376 17.2166 119.635 17.1454 119.867Z" fill="#DBD1C1"/>
<path d="M16.6906 118.859C16.7835 118.702 16.8645 118.532 16.9701 118.363C17.8844 118.375 17.285 118.833 17.1862 119.138L17.1744 119.126C16.9256 119.165 16.7153 119.169 16.6906 118.859Z" fill="#E3CDAB"/>
<path d="M17.3787 126.045C17.8357 126.36 17.958 127.316 18.8418 126.858C18.817 127.166 18.7568 127.435 18.3401 127.344C18.1713 127.238 18.0015 127.157 17.8327 127.052C16.9847 126.004 16.0993 124.967 15.4932 123.744C15.9158 123.996 16.2238 124.329 16.4409 124.771C16.5238 124.861 16.5949 124.938 16.6778 125.028C16.7715 125.464 17.2849 125.608 17.3787 126.045Z" fill="#DAC095"/>
<path d="M8.4762 117.17C8.47918 117.096 8.47031 117.009 8.48612 116.923C9.44371 117.703 10.4141 118.471 11.3717 119.252C11.7192 119.525 12.0016 119.574 12.1212 119.059C12.2979 119.277 12.5496 119.472 12.3382 119.81C12.3007 119.821 12.2632 119.831 12.2128 119.854C11.961 119.968 11.7823 120.109 11.4842 119.837C10.8879 119.294 10.2018 118.834 9.55318 118.363C9.08425 118.035 8.72888 117.65 8.4762 117.17Z" fill="#E0CBAA"/>
<path d="M16.6898 118.86C16.8468 118.953 17.0166 119.034 17.1736 119.127C17.0808 119.284 16.9879 119.441 16.8951 119.598C16.4528 119.221 15.9848 119.178 15.4457 119.366C14.5797 119.69 13.618 119.627 12.7609 120.037C12.5595 120.128 12.365 120.046 12.1972 119.916C12.1873 119.853 12.2012 119.817 12.2515 119.794C12.289 119.783 12.3137 119.784 12.3256 119.797C12.6267 119.686 12.9032 119.573 13.2044 119.462C14.1394 119.264 15.0735 119.092 16.0086 118.894C16.2209 118.841 16.446 118.776 16.6898 118.86Z" fill="#D9BF93"/>
<path d="M8.47461 117.169C8.82999 117.554 9.18536 117.939 9.54074 118.324C9.08657 118.244 8.88128 117.816 8.58315 117.544C8.53874 117.419 8.51902 117.294 8.47461 117.169Z" fill="#DBC29A"/>
<path d="M12.3263 119.797C12.2878 119.832 12.2364 119.88 12.1979 119.915C12.0429 120.082 11.9214 120.337 11.6469 120.091C10.9668 119.482 10.1316 119.041 9.54223 118.325C10.1761 118.548 10.6637 119.025 11.1791 119.429C11.5512 119.704 11.879 119.853 12.3263 119.797Z" fill="#DBC29A"/>
<path d="M16.1624 122.176C16.2137 122.129 16.2651 122.082 16.3283 122.047C16.4013 122.384 16.4496 122.719 16.5226 123.056C16.4564 123.165 16.4268 123.287 16.2787 123.281C16.0101 123.196 16.0556 122.988 16.0517 122.778C15.9737 122.564 15.9945 122.355 16.1624 122.176Z" fill="#E3D8C8"/>
<path d="M16.0137 122.788C16.0936 122.952 16.1736 123.116 16.2407 123.292C16.1715 123.474 16.0431 123.593 15.8555 123.647C15.6344 123.304 15.7569 123.025 16.0137 122.788Z" fill="#DEC69F"/>
<path d="M16.4407 124.771C16.1209 124.424 15.8129 124.09 15.493 123.744C15.5671 123.747 15.6658 123.751 15.7399 123.754C15.9985 124.086 16.3974 124.312 16.4407 124.771Z" fill="#DEC69F"/>
<path d="M17.3789 126.045C17.1321 125.726 16.7214 125.487 16.6781 125.028C16.9367 125.36 17.3355 125.586 17.3789 126.045Z" fill="#DEC6A0"/>
<path d="M64.4792 261.675C65.6243 259.627 68.571 259.627 69.7161 261.675L70.8647 263.729C71.3201 264.543 72.1287 265.099 73.0522 265.233L75.0717 265.527C77.5771 265.89 78.5334 269.002 76.6645 270.71L75.574 271.707C74.8188 272.397 74.4673 273.424 74.6415 274.432L74.9253 276.074C75.3374 278.459 72.9011 280.325 70.7058 279.306L68.3609 278.217C67.5598 277.845 66.6355 277.845 65.8344 278.217L63.4895 279.306C61.2943 280.325 58.8579 278.459 59.2701 276.074L59.5538 274.432C59.728 273.424 59.3766 272.397 58.6214 271.707L57.5308 270.71C55.6619 269.002 56.6182 265.89 59.1236 265.527L61.1431 265.233C62.0666 265.099 62.8752 264.543 63.3306 263.729L64.4792 261.675Z" fill="#C1A66F"/>
<path d="M64.4787 261.675C65.6237 259.627 68.5704 259.627 69.7155 261.675L70.9684 263.915C71.3581 264.612 72.0499 265.088 72.8401 265.203L79.2829 266.138C79.8936 266.226 80.0156 267.055 79.4564 267.316L72.799 270.145C72.0263 270.473 71.1514 270.463 70.3868 270.116L67.9125 268.994C67.3805 268.753 66.7896 268.672 66.2125 268.762L61.1631 269.548C60.7612 269.61 60.3508 269.59 59.9568 269.489L55.1344 268.253C54.9692 268.21 54.816 268.13 54.6869 268.019C53.9698 267.4 54.3127 266.225 55.2502 266.089L61.1426 265.233C62.0661 265.099 62.8746 264.543 63.33 263.729L64.4787 261.675Z" fill="#E3CDAB"/>
<path d="M73.9152 273.324C73.9443 274.109 73.9734 274.865 74.0025 275.651C75.0203 276.232 75.0785 277.25 75.1657 278.268C75.1076 278.762 74.9912 279.198 74.7877 279.664C74.3224 280.187 73.8862 279.896 73.3918 279.664C72.3158 279.14 71.1235 278.82 70.1348 278.21C68.07 276.901 66.2089 277.366 64.2314 278.442C63.1554 279.024 62.1667 280.071 60.7126 279.693C60.1601 278.413 60.6835 277.163 60.9453 275.941C61.0907 275.273 61.2942 274.662 61.2361 273.964C60.7708 272.364 59.2004 271.725 58.2117 270.591C57.8336 270.154 57.0485 269.951 57.4265 269.107C58.2989 268.584 59.3167 268.642 60.2764 268.38C60.4218 268.322 60.5381 268.293 60.6835 268.264C61.1779 268.264 61.6432 268.119 62.1085 267.973C62.3702 267.944 62.661 267.944 62.9518 267.944C64.086 267.944 64.464 267.043 64.9293 266.258C65.4528 265.385 65.7727 264.425 66.3834 263.582C67.3139 262.332 67.9828 262.361 68.7098 263.786C69.2914 264.891 69.8439 265.996 70.6 266.985C70.8327 267.275 71.0944 267.421 71.4143 267.537C72.6357 267.741 73.8571 268.031 75.1075 267.944C75.253 267.944 75.3984 267.973 75.5438 268.002C76.0672 268.264 76.6779 268.119 77.1723 268.468C77.5504 268.991 77.2305 269.369 76.8815 269.718C76.1545 270.416 75.4856 271.172 74.6423 271.754C74.1188 272.074 73.3336 272.452 73.9152 273.324Z" fill="#C8AC77"/>
<path d="M74.8464 280.013C74.6428 280.13 74.4392 280.246 74.2357 280.333C73.7704 280.217 73.276 280.101 72.8107 279.984C72.3454 279.461 71.6184 279.49 71.095 279.112C70.397 278.792 69.7282 278.443 69.0302 278.123C67.867 277.6 66.7619 277.542 65.5987 278.181C64.0283 279.025 62.3998 279.752 60.8004 280.479C60.3351 280.682 59.7535 281.264 59.4336 280.275C59.4627 280.217 59.4918 280.159 59.5499 280.101C59.9571 279.781 60.3933 279.548 60.9167 279.723C62.8942 279.054 64.639 277.92 66.5002 277.018C67.14 276.698 67.6053 276.669 68.245 276.96C70.3389 277.92 72.4618 278.792 74.5847 279.693C74.8173 279.635 74.9336 279.723 74.8464 280.013Z" fill="#C1A66F"/>
<path d="M79.2373 267.799C78.0741 269.37 76.242 270.271 75.0788 271.871C74.4681 272.19 74.2064 272.772 73.9156 273.325C73.5375 273.528 73.1595 273.615 72.8977 273.208C72.5488 272.685 73.1013 272.569 73.3339 272.336C74.6135 271.114 76.1257 270.126 77.1435 268.672C77.1726 268.381 77.3762 268.206 77.5797 268.032C77.8124 267.916 78.045 267.741 78.2777 267.654C78.6557 267.479 78.9756 267.479 79.2373 267.799Z" fill="#C2A671"/>
<path d="M55.0712 266.927C57.3395 266.287 59.695 265.938 62.0505 265.734C62.1959 265.793 62.3413 265.851 62.4577 265.967C63.0393 266.665 62.6903 267.334 62.0505 267.45C59.8695 267.886 57.6594 268.468 55.3911 268.352C55.2457 268.264 55.1293 268.177 55.013 268.09C54.9258 267.712 54.8385 267.305 55.0712 266.927Z" fill="#E5CFAE"/>
<path d="M57.3974 269.253C58.9096 270.736 60.7126 271.929 62.0503 273.586C61.585 273.761 61.3524 274.691 60.5963 274.11C60.48 273.964 60.4509 273.761 60.3346 273.586C59.404 271.609 57.3683 270.736 55.9434 269.224C55.8561 268.962 55.9724 268.817 56.176 268.701C56.3796 268.613 56.5831 268.584 56.8158 268.643C57.1066 268.759 57.3102 268.933 57.3974 269.253Z" fill="#C2A772"/>
<path d="M65.8299 260.268C66.1207 259.977 66.4115 259.657 66.7023 259.366C67.1094 259.541 67.2548 259.861 67.2548 260.297C66.5278 261.751 65.6845 263.147 64.8411 264.543C64.6085 264.921 64.434 265.473 63.7651 265.211C63.6488 265.008 63.6779 264.804 63.8233 264.601C64.1723 263.001 65.4809 261.867 65.8299 260.268Z" fill="#D9C29D"/>
<path d="M60.3349 273.587C60.4221 273.674 60.5094 273.79 60.5966 273.878C61.091 274.517 61.2364 275.157 60.8874 276.001C60.5094 276.96 60.5966 278.036 60.3058 279.054C60.1604 279.548 60.0441 279.956 59.4625 280.043C59.2007 279.636 59.2298 279.229 59.4334 278.821C59.7242 277.077 60.0441 275.332 60.3349 273.587Z" fill="#CEB790"/>
<path d="M63.7663 264.571C63.7663 264.775 63.7663 264.978 63.7663 265.182C63.999 265.793 64.0571 266.345 63.3592 266.694C62.8648 266.578 62.5159 266.171 62.0215 266.025C62.0215 265.909 62.0215 265.822 62.0215 265.705C62.6322 265.356 63.1847 264.978 63.7663 264.571Z" fill="#E2CAA6"/>
<path d="M56.234 268.962C56.1468 269.05 56.0305 269.166 55.9432 269.253C55.5361 269.079 55.2744 268.73 55.0708 268.381C54.9836 268.322 54.9545 268.235 54.9836 268.177C55.0126 268.119 55.0417 268.09 55.0708 268.09C55.158 268.09 55.2744 268.09 55.3616 268.09C55.4779 268.206 55.6524 268.235 55.7978 268.293C56.0014 268.381 56.234 268.41 56.3504 268.642C56.3794 268.788 56.3213 268.875 56.234 268.962Z" fill="#C9AE7C"/>
<path d="M55.0706 268.09C55.0706 268.177 55.0706 268.294 55.0706 268.381C54.6926 267.916 54.6926 267.421 55.0706 266.956C55.0706 267.305 55.0706 267.712 55.0706 268.09Z" fill="#D4C0A2"/>
<path d="M59.4318 278.821C59.4318 279.199 59.4318 279.606 59.4318 279.985C59.5191 280.043 59.5772 280.101 59.5481 280.188C59.5191 280.275 59.49 280.304 59.4609 280.304L59.4027 280.275C59.0538 279.781 59.0538 279.316 59.4318 278.821Z" fill="#C6BAA9"/>
<path d="M56.2344 268.963C56.2344 268.876 56.2344 268.788 56.2344 268.672C56.6997 268.032 57.4267 268.352 58.0083 268.149C58.1246 268.091 58.27 268.061 58.4154 268.032C60.0149 267.712 61.7888 267.974 63.1556 266.782C64.4351 265.212 65.2494 263.35 66.2963 261.635C66.7325 260.908 67.2269 260.442 68.1284 260.617C69.437 261.576 69.8732 263.147 70.8038 264.368C70.9492 264.717 71.1528 265.066 71.4145 265.386C71.5599 265.793 71.589 266.229 72.0543 266.433C72.1415 266.52 72.2288 266.607 72.2869 266.695C72.3742 266.782 72.4323 266.869 72.5487 266.956C74.119 267.509 75.7766 267.305 77.3761 267.712C77.7541 267.8 78.1612 267.742 78.3648 268.149C78.1612 268.236 77.9868 268.352 77.7832 268.439C76.998 268.672 76.2419 268.672 75.4567 268.439C74.119 268.265 72.7522 268.178 71.4145 268.003C70.3385 267.712 70.3967 266.549 69.8151 265.88C69.1753 265.182 68.9136 264.194 68.4192 263.379C67.8957 262.478 67.3723 262.507 66.8198 263.35C66.0055 264.601 65.3076 265.939 64.6387 267.247C64.2316 268.032 63.7372 268.352 62.952 268.439C62.6612 268.439 62.3704 268.439 62.0796 268.439C61.6434 268.788 61.0618 268.381 60.6256 268.73C59.3751 268.788 58.1537 269.457 56.8451 269.021C56.6124 268.963 56.4379 268.963 56.2344 268.963Z" fill="#D3B989"/>
<path d="M62.9219 268.382C64.6376 267.625 64.8994 265.764 65.8009 264.427C66.3825 263.554 66.7896 262.129 67.6911 262.071C68.6508 261.984 68.9997 263.467 69.3778 264.339C69.9012 265.532 71.0063 266.433 71.0354 267.8C71.2389 267.887 71.2389 268.004 71.0354 268.091C69.6977 267.131 69.1742 265.59 68.36 264.252C68.1273 263.845 68.0401 263.234 67.5166 263.147C66.8478 263.06 66.7314 263.787 66.4988 264.194C65.859 265.212 65.2774 266.288 64.754 267.364C64.3759 268.207 63.7652 268.498 62.9219 268.382Z" fill="#CDB17F"/>
<path d="M59.4627 280.304C59.4627 280.217 59.4336 280.1 59.4336 280.013C59.928 278.006 60.5096 276 60.5968 273.906C61.1784 274.226 61.5565 273.615 62.0509 273.615C61.4983 275.622 61.033 277.628 60.8876 279.722C60.5096 280.129 60.0152 280.275 59.4627 280.304Z" fill="#CCB17E"/>
<path d="M71.0645 268.09C71.0645 268.002 71.0645 267.886 71.0645 267.799C72.5476 267.886 74.0016 267.944 75.4266 268.38C73.9434 268.526 72.5185 268.148 71.0645 268.09Z" fill="#CEB380"/>
<path d="M56.8164 268.963C58.0669 268.875 59.3464 268.759 60.5969 268.672C59.5791 269.079 58.5031 269.224 57.398 269.253C57.1945 269.166 56.9909 269.05 56.8164 268.963Z" fill="#CFB483"/>
<path d="M75.3984 268.381C76.1836 268.381 76.9397 268.381 77.7249 268.381C77.5213 268.468 77.3468 268.584 77.1433 268.672C76.5617 268.614 75.9219 268.817 75.3984 268.381Z" fill="#CEB380"/>
<path d="M74.8453 280.013C74.729 279.926 74.6417 279.81 74.5254 279.723C74.5254 279.228 74.5254 278.763 74.5254 278.269C74.8744 278.792 75.107 279.345 74.8453 280.013Z" fill="#CCB58A"/>
<path d="M60.5957 268.672C61.0319 268.294 61.5554 268.41 62.0497 268.381C61.6135 268.759 61.0901 268.643 60.5957 268.672Z" fill="#CFB483"/>
<path d="M71.9369 266.926C71.9369 266.839 71.9369 266.723 71.9369 266.636C71.7334 266.403 71.6752 266.141 71.7043 265.821C71.7334 265.589 71.7915 265.356 71.966 265.211L71.9369 265.182C74.0598 265.472 76.2118 265.763 78.3347 266.025C78.7418 266.054 79.1199 266.112 79.2362 266.636C79.5852 267.654 78.7418 267.712 78.1602 267.828C77.6949 267.915 77.1424 267.828 76.6189 267.77C75.9792 267.421 75.2812 267.566 74.5833 267.537C74.3506 267.537 74.118 267.537 73.8853 267.45C73.3037 266.985 72.4895 267.508 71.9369 266.926Z" fill="#E4CEAC"/>
<path d="M68.738 260.82C69.2033 262.041 70.192 262.972 70.4828 264.28C70.6282 264.397 70.6282 264.513 70.4537 264.629C69.6685 263.35 68.9124 262.099 68.1273 260.82C67.8946 260.616 67.5748 260.471 67.7492 260.064C67.8074 260.035 67.8365 259.976 67.8946 259.947C68.2436 260.151 68.5344 260.471 68.738 260.82Z" fill="#DBD1C1"/>
<path d="M66.9939 260.238C66.9067 259.947 66.7904 259.656 66.7031 259.336C67.75 258.231 67.6337 259.482 67.8954 259.947H67.8664C67.6337 260.296 67.4011 260.558 66.9939 260.238Z" fill="#E3CDAB"/>
<path d="M76.5609 267.508C77.4624 267.305 78.7711 268.235 79.2073 266.636C79.5562 267.014 79.818 267.392 79.2364 267.799C78.9165 267.886 78.6256 268.003 78.3057 268.09C76.0665 267.944 73.7982 267.857 71.6172 267.217C72.4024 266.985 73.1585 266.985 73.9436 267.217C74.1472 267.217 74.3217 267.217 74.5253 267.217C75.165 267.595 75.9211 267.13 76.5609 267.508Z" fill="#DAC095"/>
<path d="M55.6521 268.381C55.5649 268.294 55.4486 268.207 55.3613 268.09C57.397 267.8 59.4326 267.48 61.4683 267.189C62.1953 267.073 62.5734 266.782 62.079 266.055C62.5443 266.084 63.0677 265.997 63.2422 266.636C63.2131 266.694 63.184 266.753 63.155 266.84C63.0095 267.276 62.9805 267.654 62.3116 267.712C60.9739 267.829 59.6362 268.149 58.3276 268.41C57.397 268.614 56.5246 268.614 55.6521 268.381Z" fill="#E0CBAA"/>
<path d="M66.9939 260.238C67.2847 260.151 67.5755 260.035 67.8663 259.947C67.9536 260.238 68.0408 260.529 68.128 260.82C67.1683 260.936 66.5867 261.459 66.2087 262.332C65.6271 263.757 64.4639 264.862 63.9986 266.374C63.8822 266.723 63.5623 266.868 63.2134 266.927C63.1261 266.868 63.0971 266.81 63.1261 266.723C63.1552 266.665 63.1843 266.636 63.2134 266.636C63.4169 266.141 63.5914 265.676 63.795 265.182C64.6093 263.815 65.4526 262.477 66.2669 261.11C66.4413 260.791 66.6158 260.442 66.9939 260.238Z" fill="#D9BF93"/>
<path d="M55.6523 268.381C56.5248 268.381 57.3972 268.381 58.2696 268.381C57.6589 268.846 56.9028 268.614 56.234 268.672C56.0304 268.584 55.8559 268.468 55.6523 268.381Z" fill="#DBC29A"/>
<path d="M63.2133 266.636C63.2133 266.723 63.2133 266.839 63.2133 266.927C63.2423 267.305 63.4168 267.741 62.8061 267.799C61.2939 267.944 59.8108 268.468 58.2695 268.381C59.2583 267.857 60.3924 267.799 61.4684 267.624C62.2245 267.479 62.777 267.246 63.2133 266.636Z" fill="#DBC29A"/>
<path d="M70.4551 264.629C70.4551 264.513 70.4551 264.397 70.4842 264.28C70.9786 264.571 71.4439 264.891 71.9382 265.182C71.9964 265.385 72.1127 265.56 71.9382 265.734C71.5311 265.967 71.3275 265.676 71.0658 265.444C70.7168 265.298 70.4842 265.036 70.4551 264.629Z" fill="#E3D8C8"/>
<path d="M71.0352 265.502C71.326 265.589 71.6168 265.676 71.9076 265.793C72.053 266.084 72.053 266.374 71.9076 266.665C71.2387 266.549 71.0352 266.084 71.0352 265.502Z" fill="#DEC69F"/>
<path d="M73.9436 267.218C73.1585 267.218 72.4024 267.218 71.6172 267.218C71.7044 267.131 71.8208 267.014 71.908 266.927C72.6059 266.985 73.3329 266.753 73.9436 267.218Z" fill="#DEC69F"/>
<path d="M76.561 267.508C75.8922 267.45 75.1361 267.682 74.5254 267.217C75.2233 267.275 75.9503 267.043 76.561 267.508Z" fill="#DEC6A0"/>
<path d="M145.716 275.964C146.567 274.442 148.757 274.442 149.608 275.964L149.641 276.023C149.959 276.591 150.523 276.979 151.167 277.072L151.43 277.11C153.073 277.349 153.699 279.389 152.474 280.508C151.979 280.961 151.75 281.642 151.864 282.303C152.144 283.92 150.497 285.214 149.008 284.523L148.614 284.34C148.011 284.06 147.314 284.06 146.71 284.34L146.316 284.523C144.827 285.214 143.18 283.92 143.46 282.303C143.574 281.642 143.345 280.961 142.85 280.508C141.625 279.389 142.252 277.349 143.894 277.11L144.157 277.072C144.801 276.979 145.365 276.591 145.683 276.023L145.716 275.964Z" fill="#C1A66F"/>
<path d="M145.715 275.964C146.566 274.442 148.756 274.442 149.607 275.964L149.802 276.312C150.018 276.698 150.4 276.961 150.837 277.024L154.401 277.542C154.738 277.591 154.806 278.049 154.497 278.193L151.356 279.528C150.584 279.856 149.709 279.846 148.944 279.499L148.476 279.287C147.944 279.045 147.354 278.965 146.776 279.055L144.651 279.385C144.249 279.448 143.839 279.428 143.445 279.327L141.045 278.711C140.953 278.688 140.869 278.644 140.797 278.582C140.401 278.24 140.59 277.59 141.109 277.514L144.186 277.068C144.811 276.977 145.359 276.601 145.667 276.049L145.715 275.964Z" fill="#E3CDAB"/>
<path d="M151.433 281.517C151.449 281.951 151.465 282.369 151.481 282.803C152.044 283.125 152.076 283.688 152.124 284.251C152.092 284.524 152.028 284.766 151.915 285.023C151.658 285.312 151.417 285.152 151.143 285.023C150.548 284.733 149.889 284.557 149.342 284.219C148.2 283.495 147.171 283.752 146.077 284.347C145.482 284.669 144.935 285.248 144.131 285.039C143.825 284.331 144.115 283.64 144.259 282.964C144.34 282.594 144.452 282.257 144.42 281.871C144.163 280.986 143.294 280.632 142.748 280.005C142.538 279.764 142.104 279.651 142.313 279.184C142.796 278.895 143.359 278.927 143.89 278.782C143.97 278.75 144.034 278.734 144.115 278.718C144.388 278.718 144.645 278.638 144.903 278.557C145.048 278.541 145.208 278.541 145.369 278.541C145.997 278.541 146.206 278.043 146.463 277.608C146.752 277.126 146.929 276.595 147.267 276.129C147.782 275.437 148.152 275.453 148.554 276.241C148.876 276.852 149.181 277.464 149.599 278.01C149.728 278.171 149.873 278.252 150.05 278.316C150.725 278.429 151.401 278.589 152.092 278.541C152.173 278.541 152.253 278.557 152.334 278.573C152.623 278.718 152.961 278.638 153.234 278.831C153.443 279.12 153.266 279.329 153.073 279.522C152.671 279.908 152.301 280.326 151.835 280.648C151.545 280.825 151.111 281.034 151.433 281.517Z" fill="#C8AC77"/>
<path d="M151.948 285.216C151.836 285.28 151.723 285.345 151.611 285.393C151.353 285.329 151.08 285.264 150.822 285.2C150.565 284.91 150.163 284.927 149.873 284.717C149.487 284.541 149.118 284.348 148.732 284.171C148.088 283.881 147.477 283.849 146.834 284.203C145.965 284.669 145.064 285.071 144.18 285.473C143.922 285.586 143.601 285.908 143.424 285.361C143.44 285.329 143.456 285.296 143.488 285.264C143.713 285.087 143.955 284.959 144.244 285.055C145.338 284.685 146.303 284.058 147.332 283.559C147.686 283.382 147.943 283.366 148.297 283.527C149.455 284.058 150.629 284.541 151.804 285.039C151.932 285.007 151.997 285.055 151.948 285.216Z" fill="#C1A66F"/>
<path d="M154.378 278.46C153.734 279.329 152.721 279.828 152.077 280.712C151.74 280.889 151.595 281.211 151.434 281.517C151.225 281.629 151.016 281.678 150.871 281.452C150.678 281.163 150.983 281.099 151.112 280.97C151.82 280.294 152.656 279.747 153.219 278.943C153.235 278.782 153.348 278.686 153.461 278.589C153.589 278.525 153.718 278.428 153.847 278.38C154.056 278.283 154.233 278.283 154.378 278.46Z" fill="#C2A671"/>
<path d="M141.01 277.978C142.265 277.624 143.568 277.431 144.871 277.318C144.951 277.351 145.032 277.383 145.096 277.447C145.418 277.833 145.225 278.203 144.871 278.267C143.664 278.509 142.442 278.83 141.187 278.766C141.107 278.718 141.042 278.67 140.978 278.621C140.93 278.412 140.882 278.187 141.01 277.978Z" fill="#E5CFAE"/>
<path d="M142.297 279.265C143.134 280.085 144.131 280.745 144.871 281.661C144.613 281.758 144.485 282.273 144.066 281.951C144.002 281.871 143.986 281.758 143.922 281.661C143.407 280.568 142.281 280.085 141.493 279.249C141.445 279.104 141.509 279.023 141.621 278.959C141.734 278.911 141.847 278.895 141.975 278.927C142.136 278.991 142.249 279.088 142.297 279.265Z" fill="#C2A772"/>
<path d="M146.961 274.296C147.122 274.135 147.283 273.958 147.444 273.797C147.669 273.893 147.749 274.07 147.749 274.312C147.347 275.116 146.881 275.888 146.414 276.66C146.285 276.869 146.189 277.175 145.819 277.03C145.755 276.918 145.771 276.805 145.851 276.692C146.044 275.808 146.768 275.18 146.961 274.296Z" fill="#D9C29D"/>
<path d="M143.921 281.662C143.969 281.71 144.018 281.775 144.066 281.823C144.339 282.177 144.42 282.531 144.227 282.997C144.018 283.528 144.066 284.123 143.905 284.686C143.825 284.96 143.76 285.185 143.439 285.233C143.294 285.008 143.31 284.783 143.422 284.558C143.583 283.592 143.76 282.627 143.921 281.662Z" fill="#CEB790"/>
<path d="M145.821 276.676C145.821 276.788 145.821 276.901 145.821 277.014C145.949 277.351 145.981 277.657 145.595 277.85C145.322 277.786 145.129 277.56 144.855 277.48C144.855 277.416 144.855 277.367 144.855 277.303C145.193 277.11 145.499 276.901 145.821 276.676Z" fill="#E2CAA6"/>
<path d="M141.653 279.104C141.605 279.152 141.54 279.216 141.492 279.265C141.267 279.168 141.122 278.975 141.009 278.782C140.961 278.75 140.945 278.702 140.961 278.669C140.977 278.637 140.993 278.621 141.009 278.621C141.058 278.621 141.122 278.621 141.17 278.621C141.235 278.685 141.331 278.702 141.412 278.734C141.524 278.782 141.653 278.798 141.717 278.927C141.733 279.007 141.701 279.055 141.653 279.104Z" fill="#C9AE7C"/>
<path d="M141.01 278.621C141.01 278.67 141.01 278.734 141.01 278.782C140.801 278.525 140.801 278.252 141.01 277.994C141.01 278.187 141.01 278.412 141.01 278.621Z" fill="#D4C0A2"/>
<path d="M143.423 284.557C143.423 284.766 143.423 284.991 143.423 285.2C143.471 285.232 143.503 285.264 143.487 285.313C143.471 285.361 143.455 285.377 143.439 285.377L143.406 285.361C143.213 285.087 143.213 284.83 143.423 284.557Z" fill="#C6BAA9"/>
<path d="M141.654 279.104C141.654 279.056 141.654 279.008 141.654 278.943C141.912 278.589 142.314 278.766 142.635 278.654C142.7 278.622 142.78 278.606 142.861 278.589C143.745 278.413 144.726 278.557 145.482 277.898C146.19 277.029 146.64 276 147.219 275.051C147.461 274.649 147.734 274.392 148.233 274.488C148.956 275.019 149.198 275.887 149.712 276.563C149.793 276.756 149.905 276.949 150.05 277.126C150.131 277.351 150.147 277.592 150.404 277.705C150.452 277.753 150.5 277.801 150.533 277.85C150.581 277.898 150.613 277.946 150.677 277.994C151.546 278.3 152.463 278.187 153.347 278.413C153.556 278.461 153.782 278.429 153.894 278.654C153.782 278.702 153.685 278.766 153.572 278.815C153.138 278.943 152.72 278.943 152.286 278.815C151.546 278.718 150.79 278.67 150.05 278.573C149.455 278.413 149.487 277.769 149.165 277.399C148.812 277.013 148.667 276.466 148.393 276.016C148.104 275.517 147.814 275.534 147.509 276C147.058 276.692 146.672 277.431 146.303 278.155C146.077 278.589 145.804 278.766 145.37 278.815C145.209 278.815 145.048 278.815 144.887 278.815C144.646 279.008 144.324 278.782 144.083 278.975C143.391 279.008 142.716 279.378 141.992 279.136C141.863 279.104 141.767 279.104 141.654 279.104Z" fill="#D3B989"/>
<path d="M145.354 278.784C146.303 278.365 146.447 277.336 146.946 276.596C147.268 276.113 147.493 275.325 147.992 275.293C148.522 275.245 148.715 276.065 148.925 276.548C149.214 277.207 149.825 277.706 149.841 278.462C149.954 278.51 149.954 278.575 149.841 278.623C149.101 278.092 148.812 277.239 148.362 276.499C148.233 276.274 148.185 275.936 147.895 275.888C147.525 275.84 147.461 276.242 147.332 276.467C146.978 277.03 146.656 277.625 146.367 278.221C146.158 278.687 145.82 278.848 145.354 278.784Z" fill="#CDB17F"/>
<path d="M143.44 285.377C143.44 285.329 143.424 285.265 143.424 285.217C143.697 284.107 144.019 282.997 144.067 281.839C144.389 282.016 144.598 281.678 144.872 281.678C144.566 282.788 144.309 283.898 144.228 285.056C144.019 285.281 143.746 285.361 143.44 285.377Z" fill="#CCB17E"/>
<path d="M149.855 278.622C149.855 278.574 149.855 278.509 149.855 278.461C150.676 278.509 151.48 278.541 152.268 278.783C151.448 278.863 150.66 278.654 149.855 278.622Z" fill="#CEB380"/>
<path d="M141.977 279.104C142.668 279.056 143.376 278.992 144.068 278.943C143.505 279.169 142.91 279.249 142.298 279.265C142.186 279.217 142.073 279.152 141.977 279.104Z" fill="#CFB483"/>
<path d="M152.254 278.782C152.688 278.782 153.106 278.782 153.541 278.782C153.428 278.83 153.332 278.895 153.219 278.943C152.897 278.911 152.543 279.024 152.254 278.782Z" fill="#CEB380"/>
<path d="M151.946 285.216C151.882 285.168 151.834 285.104 151.77 285.055C151.77 284.782 151.77 284.524 151.77 284.251C151.963 284.541 152.091 284.846 151.946 285.216Z" fill="#CCB58A"/>
<path d="M144.066 278.943C144.308 278.734 144.597 278.798 144.871 278.782C144.629 278.991 144.34 278.927 144.066 278.943Z" fill="#CFB483"/>
<path d="M150.338 277.978C150.338 277.93 150.338 277.865 150.338 277.817C150.225 277.688 150.193 277.544 150.209 277.367C150.225 277.238 150.257 277.109 150.354 277.029L150.338 277.013C151.512 277.174 152.702 277.334 153.877 277.479C154.102 277.495 154.311 277.527 154.375 277.817C154.568 278.38 154.102 278.412 153.78 278.477C153.523 278.525 153.217 278.477 152.927 278.444C152.574 278.251 152.188 278.332 151.801 278.316C151.673 278.316 151.544 278.316 151.415 278.267C151.094 278.01 150.643 278.3 150.338 277.978Z" fill="#E4CEAC"/>
<path d="M148.569 274.601C148.826 275.276 149.373 275.791 149.534 276.515C149.614 276.579 149.614 276.644 149.518 276.708C149.083 276 148.665 275.309 148.231 274.601C148.102 274.488 147.925 274.408 148.022 274.183C148.054 274.166 148.07 274.134 148.102 274.118C148.295 274.231 148.456 274.408 148.569 274.601Z" fill="#DBD1C1"/>
<path d="M147.604 274.279C147.556 274.118 147.492 273.958 147.443 273.781C148.022 273.169 147.958 273.861 148.103 274.118H148.087C147.958 274.311 147.829 274.456 147.604 274.279Z" fill="#E3CDAB"/>
<path d="M152.897 278.3C153.395 278.187 154.119 278.702 154.361 277.817C154.554 278.026 154.698 278.236 154.377 278.461C154.2 278.509 154.039 278.573 153.862 278.622C152.623 278.541 151.369 278.493 150.162 278.139C150.596 278.01 151.015 278.01 151.449 278.139C151.562 278.139 151.658 278.139 151.771 278.139C152.125 278.348 152.543 278.091 152.897 278.3Z" fill="#DAC095"/>
<path d="M141.333 278.783C141.284 278.735 141.22 278.686 141.172 278.622C142.298 278.461 143.424 278.284 144.55 278.123C144.952 278.059 145.161 277.898 144.888 277.496C145.145 277.512 145.435 277.464 145.531 277.818C145.515 277.85 145.499 277.882 145.483 277.93C145.402 278.172 145.386 278.381 145.016 278.413C144.276 278.477 143.536 278.654 142.813 278.799C142.298 278.912 141.815 278.912 141.333 278.783Z" fill="#E0CBAA"/>
<path d="M147.604 274.279C147.765 274.231 147.926 274.166 148.087 274.118C148.135 274.279 148.184 274.44 148.232 274.601C147.701 274.665 147.379 274.955 147.17 275.437C146.848 276.225 146.205 276.837 145.948 277.673C145.883 277.866 145.706 277.947 145.513 277.979C145.465 277.947 145.449 277.914 145.465 277.866C145.481 277.834 145.497 277.818 145.513 277.818C145.626 277.544 145.722 277.287 145.835 277.014C146.285 276.258 146.752 275.518 147.202 274.762C147.299 274.585 147.395 274.392 147.604 274.279Z" fill="#D9BF93"/>
<path d="M141.332 278.782C141.815 278.782 142.297 278.782 142.78 278.782C142.442 279.04 142.024 278.911 141.654 278.943C141.541 278.895 141.445 278.83 141.332 278.782Z" fill="#DBC29A"/>
<path d="M145.514 277.817C145.514 277.866 145.514 277.93 145.514 277.978C145.53 278.187 145.626 278.429 145.289 278.461C144.452 278.541 143.632 278.831 142.779 278.783C143.326 278.493 143.954 278.461 144.549 278.364C144.967 278.284 145.273 278.155 145.514 277.817Z" fill="#DBC29A"/>
<path d="M149.52 276.708C149.52 276.643 149.52 276.579 149.536 276.515C149.809 276.676 150.066 276.852 150.34 277.013C150.372 277.126 150.436 277.222 150.34 277.319C150.115 277.448 150.002 277.287 149.857 277.158C149.664 277.078 149.536 276.933 149.52 276.708Z" fill="#E3D8C8"/>
<path d="M149.84 277.19C150.001 277.239 150.162 277.287 150.322 277.351C150.403 277.512 150.403 277.673 150.322 277.834C149.952 277.77 149.84 277.512 149.84 277.19Z" fill="#DEC69F"/>
<path d="M151.449 278.139C151.015 278.139 150.596 278.139 150.162 278.139C150.21 278.091 150.275 278.026 150.323 277.978C150.709 278.01 151.111 277.882 151.449 278.139Z" fill="#DEC69F"/>
<path d="M152.896 278.3C152.526 278.268 152.107 278.397 151.77 278.139C152.156 278.171 152.558 278.043 152.896 278.3Z" fill="#DEC6A0"/>
<path d="M85.554 47.0011C86.094 46.0354 87.4836 46.0354 88.0235 47.0011L88.0445 47.0386C88.2461 47.399 88.6039 47.6451 89.0126 47.7045L89.1796 47.7287C90.2216 47.8799 90.6193 49.1743 89.8421 49.8846C89.528 50.1716 89.3826 50.6039 89.4551 51.0232C89.6325 52.0493 88.5873 52.8705 87.6428 52.4319L87.3931 52.316C87.0098 52.1381 86.5677 52.1381 86.1845 52.316L85.9348 52.4319C84.9902 52.8705 83.9451 52.0493 84.1224 51.0232C84.1949 50.6039 84.0496 50.1716 83.7355 49.8846C82.9582 49.1743 83.3559 47.8799 84.398 47.7287L84.565 47.7045C84.9737 47.6451 85.3315 47.399 85.5331 47.0386L85.554 47.0011Z" fill="#C1A66F"/>
<path d="M85.5546 47.0011C86.0946 46.0354 87.4841 46.0354 88.0241 47.0011L88.1479 47.2224C88.2846 47.467 88.5274 47.6339 88.8047 47.6742L91.0656 48.0024C91.2799 48.0335 91.3227 48.3242 91.1265 48.4157L89.3127 49.1865C88.7086 49.4432 88.0246 49.4351 87.4268 49.164C87.0109 48.9754 86.549 48.9124 86.0978 48.9826L85.1024 49.1374C84.7005 49.1999 84.2901 49.1801 83.8961 49.079L82.5914 48.7445C82.5334 48.7296 82.4797 48.7015 82.4344 48.6624C82.1827 48.4452 82.3031 48.0328 82.632 47.9851L84.5848 47.7017C84.9814 47.6441 85.3286 47.4053 85.5241 47.0555L85.5546 47.0011Z" fill="#E3CDAB"/>
<path d="M89.1808 50.5238C89.191 50.7993 89.2012 51.0646 89.2114 51.3402C89.5686 51.5443 89.589 51.9015 89.6196 52.2586C89.5992 52.4321 89.5584 52.5852 89.487 52.7485C89.3237 52.9322 89.1706 52.8301 88.9971 52.7485C88.6195 52.5648 88.2011 52.4525 87.8542 52.2382C87.1296 51.779 86.4765 51.9423 85.7825 52.3199C85.405 52.524 85.058 52.8913 84.5477 52.7587C84.3539 52.3097 84.5375 51.8708 84.6294 51.4422C84.6804 51.2075 84.7518 50.9932 84.7314 50.7483C84.5682 50.187 84.0171 49.9625 83.6701 49.5645C83.5374 49.4114 83.2619 49.34 83.3946 49.0441C83.7007 48.8604 84.0579 48.8808 84.3947 48.7889C84.4457 48.7685 84.4865 48.7583 84.5375 48.7481C84.711 48.7481 84.8743 48.6971 85.0376 48.6461C85.1294 48.6359 85.2315 48.6359 85.3335 48.6359C85.7315 48.6359 85.8642 48.3195 86.0275 48.044C86.2112 47.7378 86.3234 47.4011 86.5377 47.1051C86.8643 46.6663 87.099 46.6765 87.3541 47.1765C87.5582 47.5643 87.7521 47.9521 88.0174 48.2991C88.0991 48.4011 88.1909 48.4522 88.3032 48.493C88.7318 48.5644 89.1604 48.6665 89.5992 48.6359C89.6502 48.6359 89.7013 48.6461 89.7523 48.6563C89.936 48.7481 90.1503 48.6971 90.3238 48.8196C90.4564 49.0032 90.3442 49.1359 90.2217 49.2584C89.9666 49.5033 89.7319 49.7686 89.4359 49.9727C89.2522 50.085 88.9767 50.2176 89.1808 50.5238Z" fill="#C8AC77"/>
<path d="M89.5083 52.8716C89.4368 52.9124 89.3654 52.9532 89.2939 52.9838C89.1307 52.943 88.9572 52.9022 88.7939 52.8614C88.6306 52.6777 88.3755 52.6879 88.1918 52.5552C87.9469 52.443 87.7122 52.3205 87.4673 52.2083C87.0591 52.0246 86.6713 52.0042 86.2631 52.2287C85.712 52.5246 85.1405 52.7797 84.5792 53.0349C84.416 53.1063 84.2119 53.3104 84.0996 52.9634C84.1098 52.943 84.12 52.9226 84.1404 52.9022C84.2833 52.79 84.4364 52.7083 84.6201 52.7695C85.314 52.5348 85.9263 52.1368 86.5794 51.8205C86.8039 51.7082 86.9672 51.698 87.1917 51.8001C87.9265 52.1368 88.6715 52.443 89.4164 52.7593C89.4981 52.7389 89.5389 52.7695 89.5083 52.8716Z" fill="#C1A66F"/>
<path d="M91.0494 48.5852C90.6412 49.1362 89.9982 49.4526 89.59 50.0139C89.3757 50.1261 89.2839 50.3302 89.1818 50.5241C89.0492 50.5955 88.9165 50.6262 88.8247 50.4833C88.7022 50.2996 88.8961 50.2588 88.9777 50.1771C89.4268 49.7485 89.9574 49.4016 90.3146 48.8913C90.3248 48.7893 90.3962 48.728 90.4677 48.6668C90.5493 48.626 90.6309 48.5648 90.7126 48.5341C90.8453 48.4729 90.9575 48.4729 91.0494 48.5852Z" fill="#C2A671"/>
<path d="M82.568 48.2788C83.364 48.0542 84.1906 47.9318 85.0172 47.8604C85.0682 47.8808 85.1193 47.9012 85.1601 47.942C85.3642 48.1869 85.2417 48.4216 85.0172 48.4624C84.2518 48.6155 83.4763 48.8196 82.6803 48.7788C82.6292 48.7482 82.5884 48.7176 82.5476 48.687C82.517 48.5543 82.4864 48.4114 82.568 48.2788Z" fill="#E5CFAE"/>
<path d="M83.3838 49.095C83.9145 49.6155 84.5472 50.0339 85.0166 50.6156C84.8533 50.6768 84.7717 51.0034 84.5064 50.7993C84.4655 50.7482 84.4553 50.6768 84.4145 50.6156C84.088 49.9216 83.3736 49.6155 82.8736 49.0848C82.843 48.993 82.8838 48.942 82.9552 48.9011C83.0266 48.8705 83.0981 48.8603 83.1797 48.8807C83.2818 48.9216 83.3532 48.9828 83.3838 49.095Z" fill="#C2A772"/>
<path d="M86.3435 45.9423C86.4455 45.8403 86.5476 45.728 86.6496 45.626C86.7925 45.6872 86.8435 45.7995 86.8435 45.9525C86.5884 46.4628 86.2925 46.9526 85.9965 47.4425C85.9149 47.5751 85.8537 47.769 85.6189 47.6772C85.5781 47.6057 85.5883 47.5343 85.6393 47.4629C85.7618 46.9016 86.221 46.5036 86.3435 45.9423Z" fill="#D9C29D"/>
<path d="M84.4155 50.6162C84.4461 50.6468 84.4767 50.6876 84.5073 50.7183C84.6808 50.9428 84.7318 51.1673 84.6093 51.4632C84.4767 51.8 84.5073 52.1776 84.4052 52.5347C84.3542 52.7082 84.3134 52.8511 84.1093 52.8817C84.0175 52.7389 84.0277 52.596 84.0991 52.4531C84.2011 51.8408 84.3134 51.2285 84.4155 50.6162Z" fill="#CEB790"/>
<path d="M85.6201 47.4521C85.6201 47.5236 85.6201 47.595 85.6201 47.6665C85.7018 47.8808 85.7222 48.0747 85.4772 48.1971C85.3038 48.1563 85.1813 48.0134 85.0078 47.9624C85.0078 47.9216 85.0078 47.891 85.0078 47.8501C85.2221 47.7277 85.416 47.595 85.6201 47.4521Z" fill="#E2CAA6"/>
<path d="M82.9778 48.9936C82.9472 49.0243 82.9064 49.0651 82.8757 49.0957C82.7329 49.0345 82.641 48.912 82.5696 48.7895C82.539 48.7691 82.5288 48.7385 82.539 48.7181C82.5492 48.6977 82.5594 48.6875 82.5696 48.6875C82.6002 48.6875 82.641 48.6875 82.6716 48.6875C82.7125 48.7283 82.7737 48.7385 82.8247 48.7589C82.8962 48.7896 82.9778 48.7998 83.0186 48.8814C83.0288 48.9324 83.0084 48.963 82.9778 48.9936Z" fill="#C9AE7C"/>
<path d="M82.5682 48.688C82.5682 48.7186 82.5682 48.7595 82.5682 48.7901C82.4356 48.6268 82.4356 48.4533 82.5682 48.29C82.5682 48.4125 82.5682 48.5554 82.5682 48.688Z" fill="#D4C0A2"/>
<path d="M84.0989 52.4531C84.0989 52.5858 84.0989 52.7287 84.0989 52.8613C84.1295 52.8817 84.1499 52.9021 84.1397 52.9328C84.1295 52.9634 84.1193 52.9736 84.1091 52.9736L84.0887 52.9634C83.9662 52.7899 83.9662 52.6266 84.0989 52.4531Z" fill="#C6BAA9"/>
<path d="M82.9766 48.9935C82.9766 48.9629 82.9766 48.9322 82.9766 48.8914C83.1398 48.6669 83.395 48.7792 83.5991 48.7077C83.6399 48.6873 83.6909 48.6771 83.7419 48.6669C84.3032 48.5547 84.9257 48.6465 85.4054 48.2281C85.8544 47.677 86.1401 47.0239 86.5075 46.4218C86.6606 46.1667 86.834 46.0034 87.1504 46.0646C87.6096 46.4014 87.7627 46.9525 88.0893 47.3811C88.1403 47.5035 88.2117 47.626 88.3036 47.7383C88.3546 47.8811 88.3648 48.0342 88.5281 48.1056C88.5587 48.1363 88.5893 48.1669 88.6097 48.1975C88.6403 48.2281 88.6607 48.2587 88.7016 48.2893C89.2526 48.4832 89.8343 48.4118 90.3956 48.5547C90.5283 48.5853 90.6711 48.5649 90.7426 48.7077C90.6711 48.7383 90.6099 48.7792 90.5385 48.8098C90.2629 48.8914 89.9976 48.8914 89.7221 48.8098C89.2526 48.7486 88.773 48.7179 88.3036 48.6567C87.926 48.5547 87.9464 48.1465 87.7423 47.9117C87.5178 47.6668 87.4259 47.3199 87.2525 47.0341C87.0688 46.7178 86.8851 46.728 86.6912 47.0239C86.4054 47.4627 86.1605 47.9322 85.9258 48.3914C85.7829 48.6669 85.6095 48.7792 85.3339 48.8098C85.2319 48.8098 85.1298 48.8098 85.0278 48.8098C84.8747 48.9322 84.6706 48.7894 84.5175 48.9118C84.0787 48.9322 83.6501 49.167 83.1909 49.0139C83.1092 48.9935 83.048 48.9935 82.9766 48.9935Z" fill="#D3B989"/>
<path d="M85.3242 48.79C85.9263 48.5247 86.0182 47.8715 86.3345 47.4021C86.5386 47.096 86.6815 46.5959 86.9978 46.5755C87.3346 46.5449 87.4571 47.0653 87.5897 47.3715C87.7734 47.7899 88.1612 48.1063 88.1714 48.5859C88.2428 48.6165 88.2428 48.6573 88.1714 48.6879C87.702 48.3512 87.5183 47.8103 87.2326 47.3409C87.1509 47.198 87.1203 46.9837 86.9366 46.9531C86.7019 46.9225 86.6611 47.1776 86.5794 47.3205C86.3549 47.6776 86.1508 48.0552 85.9671 48.4328C85.8345 48.7288 85.6202 48.8308 85.3242 48.79Z" fill="#CDB17F"/>
<path d="M84.1098 52.9731C84.1098 52.9425 84.0996 52.9017 84.0996 52.8711C84.2731 52.1669 84.4772 51.4628 84.5078 50.728C84.7119 50.8403 84.8446 50.626 85.0181 50.626C84.8242 51.3301 84.6609 52.0343 84.6099 52.769C84.4772 52.9119 84.3037 52.9629 84.1098 52.9731Z" fill="#CCB17E"/>
<path d="M88.1816 48.687C88.1816 48.6564 88.1816 48.6156 88.1816 48.585C88.7021 48.6156 89.2123 48.636 89.7124 48.7891C89.1919 48.8401 88.6919 48.7074 88.1816 48.687Z" fill="#CEB380"/>
<path d="M83.1797 48.9937C83.6185 48.963 84.0675 48.9222 84.5063 48.8916C84.1492 49.0345 83.7716 49.0855 83.3838 49.0957C83.3124 49.0651 83.2409 49.0243 83.1797 48.9937Z" fill="#CFB483"/>
<path d="M89.7031 48.79C89.9787 48.79 90.244 48.79 90.5195 48.79C90.4481 48.8207 90.3869 48.8615 90.3154 48.8921C90.1113 48.8717 89.8868 48.9431 89.7031 48.79Z" fill="#CEB380"/>
<path d="M89.5068 52.8721C89.466 52.8415 89.4354 52.8006 89.3945 52.77C89.3945 52.5965 89.3945 52.4333 89.3945 52.2598C89.517 52.4435 89.5986 52.6374 89.5068 52.8721Z" fill="#CCB58A"/>
<path d="M84.5059 48.8921C84.6589 48.7594 84.8426 48.8002 85.0161 48.79C84.863 48.9227 84.6793 48.8819 84.5059 48.8921Z" fill="#CFB483"/>
<path d="M88.4865 48.2793C88.4865 48.2487 88.4865 48.2079 88.4865 48.1772C88.415 48.0956 88.3946 48.0038 88.4048 47.8915C88.415 47.8099 88.4354 47.7282 88.4967 47.6772L88.4865 47.667C89.2314 47.769 89.9866 47.8711 90.7316 47.9629C90.8744 47.9731 91.0071 47.9936 91.0479 48.1772C91.1704 48.5344 90.8744 48.5548 90.6703 48.5957C90.507 48.6263 90.3131 48.5956 90.1295 48.5752C89.9049 48.4528 89.66 48.5038 89.4151 48.4936C89.3335 48.4936 89.2518 48.4936 89.1702 48.463C88.9661 48.2997 88.6803 48.4834 88.4865 48.2793Z" fill="#E4CEAC"/>
<path d="M87.3645 46.1362C87.5278 46.5648 87.8748 46.8914 87.9768 47.3506C88.0279 47.3914 88.0278 47.4323 87.9666 47.4731C87.6911 47.0241 87.4257 46.5852 87.1502 46.1362C87.0686 46.0648 86.9563 46.0138 87.0176 45.8709C87.038 45.8607 87.0482 45.8403 87.0686 45.8301C87.191 45.9015 87.2931 46.0138 87.3645 46.1362Z" fill="#DBD1C1"/>
<path d="M86.7524 45.932C86.7218 45.83 86.681 45.7279 86.6504 45.6157C87.0178 45.2279 86.977 45.6667 87.0688 45.83H87.0586C86.977 45.9524 86.8953 46.0443 86.7524 45.932Z" fill="#E3CDAB"/>
<path d="M90.1098 48.4829C90.4262 48.4115 90.8854 48.738 91.0385 48.1768C91.161 48.3094 91.2528 48.4421 91.0487 48.585C90.9365 48.6156 90.8344 48.6564 90.7221 48.687C89.9364 48.636 89.1404 48.6054 88.375 48.3809C88.6505 48.2992 88.9159 48.2992 89.1914 48.3809C89.2628 48.3809 89.3241 48.3809 89.3955 48.3809C89.62 48.5135 89.8853 48.3502 90.1098 48.4829Z" fill="#DAC095"/>
<path d="M82.772 48.7891C82.7414 48.7584 82.7005 48.7278 82.6699 48.687C83.3843 48.585 84.0986 48.4727 84.813 48.3707C85.0681 48.3298 85.2008 48.2278 85.0273 47.9727C85.1906 47.9829 85.3742 47.9522 85.4355 48.1768C85.4253 48.1972 85.4151 48.2176 85.4049 48.2482C85.3538 48.4013 85.3436 48.5339 85.1089 48.5543C84.6395 48.5952 84.1701 48.7074 83.7108 48.7993C83.3843 48.8707 83.0781 48.8707 82.772 48.7891Z" fill="#E0CBAA"/>
<path d="M86.7537 45.9321C86.8557 45.9015 86.9578 45.8607 87.0598 45.8301C87.0904 45.9321 87.121 46.0342 87.1517 46.1362C86.8149 46.177 86.6108 46.3607 86.4781 46.6669C86.274 47.1669 85.8658 47.5547 85.7026 48.0854C85.6617 48.2078 85.5495 48.2589 85.427 48.2793C85.3964 48.2589 85.3862 48.2385 85.3964 48.2078C85.4066 48.1874 85.4168 48.1772 85.427 48.1772C85.4985 48.0037 85.5597 47.8405 85.6311 47.667C85.9169 47.1873 86.2128 46.7179 86.4985 46.2383C86.5598 46.126 86.621 46.0036 86.7537 45.9321Z" fill="#D9BF93"/>
<path d="M82.7715 48.79C83.0776 48.79 83.3838 48.79 83.6899 48.79C83.4756 48.9533 83.2103 48.8717 82.9756 48.8921C82.9041 48.8615 82.8429 48.8207 82.7715 48.79Z" fill="#DBC29A"/>
<path d="M85.4263 48.1768C85.4263 48.2074 85.4263 48.2482 85.4263 48.2788C85.4365 48.4115 85.4977 48.5645 85.2834 48.585C84.7527 48.636 84.2323 48.8197 83.6914 48.7891C84.0384 48.6054 84.4364 48.585 84.814 48.5237C85.0793 48.4727 85.2732 48.3911 85.4263 48.1768Z" fill="#DBC29A"/>
<path d="M87.9668 47.473C87.9668 47.4322 87.9668 47.3914 87.977 47.3506C88.1505 47.4526 88.3138 47.5649 88.4873 47.6669C88.5077 47.7384 88.5485 47.7996 88.4873 47.8608C88.3444 47.9425 88.273 47.8404 88.1811 47.7588C88.0587 47.7078 87.977 47.6159 87.9668 47.473Z" fill="#E3D8C8"/>
<path d="M88.1699 47.7793C88.272 47.8099 88.374 47.8405 88.4761 47.8813C88.5271 47.9834 88.5271 48.0854 88.4761 48.1875C88.2414 48.1467 88.1699 47.9834 88.1699 47.7793Z" fill="#DEC69F"/>
<path d="M89.1914 48.3813C88.9159 48.3813 88.6505 48.3813 88.375 48.3813C88.4056 48.3506 88.4464 48.3098 88.477 48.2792C88.722 48.2996 88.9771 48.218 89.1914 48.3813Z" fill="#DEC69F"/>
<path d="M90.1089 48.4838C89.8742 48.4634 89.6088 48.545 89.3945 48.3817C89.6395 48.4022 89.8946 48.3205 90.1089 48.4838Z" fill="#DEC6A0"/>
</svg>
