<svg width="57" height="57" viewBox="0 0 57 57" fill="none" xmlns="http://www.w3.org/2000/svg">
<rect width="57" height="57" rx="28.5" fill="#F6F6FE"/>
<path d="M25.1153 3.98926L25.675 4.0193C25.9467 4.18245 26.6987 4.32488 27.0218 4.39066C27.9713 4.58385 30.7409 5.55136 31.4226 6.33034C31.8125 6.60951 32.9153 7.68838 33.0475 7.73862L32.9218 6.71155C32.7417 6.08174 32.49 5.21678 32.2628 4.63772C33.9859 5.74248 35.0911 6.59915 36.0693 9.34267C36.74 7.90798 36.871 7.56925 36.9369 5.70311C37.548 7.11553 38.2279 8.39174 37.8121 10.2361C38.4364 10.2014 39.0528 10.1517 39.6704 10.3397C40.3173 10.3615 41.1905 10.7535 41.7639 11.2787L41.8823 11.4331C41.3938 11.5859 40.2103 11.4932 39.617 11.5377C39.6535 11.5797 39.6902 11.6221 39.7268 11.6641C40.3305 12.1955 40.9046 12.5151 41.5151 13.1003C42.4933 14.0383 43.4019 15.1068 44.4025 15.9728C44.815 16.3297 45.2876 16.323 45.6227 16.6689C45.1959 17.0061 43.6881 16.9543 43.2208 16.7275L43.174 16.9528C43.5591 17.9451 43.973 18.9437 44.3498 19.9351C44.8703 21.0434 45.0786 21.5189 45.8001 22.286C45.9764 22.6739 46.0047 22.8863 46.2741 22.9868C45.5403 23.124 44.8397 23.269 44.1307 22.8552L44.1647 23.0997C44.5496 25.781 44.9508 25.2372 44.5585 28.205C44.0641 27.1551 43.8801 26.7418 43.2331 25.9328C43.047 28.0631 42.4322 28.3537 43.0601 30.0401L43.0635 30.2079C42.7452 30.183 42.4271 30.1509 42.1094 30.1115C42.1807 31.7011 42.1193 32.363 41.3136 33.3419C40.2124 34.6554 38.9983 35.9031 37.6031 35.7866C37.4272 36.75 37.3535 37.097 37.0896 37.9935L36.5401 37.2607C36.1638 37.7589 34.4339 39.3894 34.4171 39.4666C33.957 41.5912 33.9985 39.9524 33.2892 40.416C33.1251 40.8811 33.139 40.6542 33.1662 41.0944C33.4073 41.3037 33.2796 41.2457 33.5694 41.2286C33.8453 41.2483 34.3309 41.2488 34.5786 41.3565C33.9942 41.357 33.4354 41.226 32.9632 41.7797C32.6956 42.4344 32.8195 43.6458 32.9869 44.3481C32.7181 43.8504 32.725 43.7396 32.6475 43.0585C30.069 44.8614 27.7977 47.1844 25.1359 45.0411C25.0365 44.9614 24.737 44.7283 24.6385 44.6786C24.4817 44.8878 24.0865 45.3804 23.9743 45.6316C23.4642 45.5777 22.8602 44.3041 23.5147 43.4433L23.555 43.6018C23.3921 44.2461 23.3359 44.2451 23.5436 44.8464C23.9335 45.2369 24.3085 45.079 24.5723 44.4693C24.6423 43.7857 24.6299 42.1697 24.4367 41.5508L24.3354 41.6637L24.2402 41.6963C23.9572 41.6787 23.7705 41.7709 23.6197 41.5166C23.6786 40.7241 23.6752 40.5744 23.175 40.345C21.2399 39.4583 19.9507 38.8067 18.6438 36.0808C17.4275 36.5226 15.5342 34.9393 14.6099 33.5652C14.1471 32.8768 14.219 31.1676 14.2292 30.1799C13.7569 29.3051 13.7684 29.1694 13.6922 27.9522C13.5729 28.0387 13.4526 28.1216 13.3313 28.1993C12.9183 28.4671 11.7106 29.0783 11.3207 28.7742L11.4418 28.5976C11.6466 28.1967 11.7865 27.8191 12.0148 27.4322C12.3056 25.7629 12.218 25.1828 12.1434 23.4363C11.6226 23.9299 11.0445 25.016 10.7343 25.2186C10.1638 23.1794 11.7174 20.3872 12.4583 19.0587C10.9364 18.9717 10.309 19.0965 8.86328 18.0684C9.23568 17.9612 9.66422 18.0063 10.0312 17.8467C11.7799 17.0859 13.1538 14.8318 14.7002 13.2303L15.3643 12.6026L15.327 12.0976C14.1368 12.0702 13.1054 11.055 12.1065 10.087C13.3406 10.392 13.8876 10.2941 15.1161 10.1408C15.2821 9.92899 20.0219 8.68541 20.4994 8.60513C20.6935 8.58493 20.7469 8.57094 20.9372 8.49999C20.8181 8.16281 19.9533 7.23466 19.5379 6.44325L19.4699 6.31221C19.2862 5.83208 19.1575 5.47419 18.9987 4.96868C19.6312 5.67463 19.9341 5.9279 20.6697 6.30496C20.7746 6.35831 21.3085 6.59916 21.3529 6.64422C22.7606 6.84052 24.0573 6.77007 25.4626 6.71672C25.7558 6.70533 26.2489 6.78871 26.4899 6.71309C26.0425 6.17029 25.4984 5.38769 25.0599 4.79206L25.0963 4.66879C25.0133 4.48596 25.0281 4.49477 24.9748 4.27464L25.1153 3.98926Z" fill="#40322C"/>
<path d="M35.0393 22.2293L35.1724 22.0527C35.6375 22.4013 35.7884 23.1047 35.8064 23.9613C36.1201 24.718 36.3169 25.0806 36.6834 25.757L36.8254 23.9624C37.7027 25.598 37.5831 26.4589 38.0603 27.3647L38.2101 28.4322L38.2835 29.0972C38.2179 30.0347 38.1242 31.1296 38.0785 32.0578C38.4807 31.515 39.4773 30.1259 39.6262 29.307C41.5496 26.9504 42.6812 31.0815 41.1908 33.1004L41.3132 33.3417C40.2119 34.6552 38.9978 35.903 37.6026 35.7864C37.4268 36.7498 37.353 37.0968 37.0892 37.9934L36.5396 37.2605C36.1633 37.7587 34.4334 39.3892 34.4166 39.4664C33.9566 41.591 33.9981 39.9522 33.2887 40.4158C33.1246 40.8809 33.1386 40.654 33.1657 41.0943C33.4068 41.3035 33.2791 41.2455 33.5689 41.2284C33.8448 41.2481 34.3305 41.2486 34.5782 41.3563C33.9937 41.3569 33.4349 41.2258 32.9627 41.7795C32.6952 42.4342 32.8191 43.6456 32.9865 44.348C32.7176 43.8502 32.7245 43.7394 32.6471 43.0583C30.0685 44.8612 27.7973 47.1842 25.1354 45.041C25.0361 44.9612 24.7366 44.7281 24.638 44.6784C24.4813 44.8877 24.0861 45.3802 23.9739 45.6314C23.4638 45.5776 22.8598 44.3039 23.5143 43.4431L23.5546 43.6016C23.3916 44.2459 23.3354 44.2449 23.5431 44.8462C23.933 45.2367 24.3081 45.0788 24.5719 44.4692C24.6418 43.7855 24.6295 42.1695 24.4363 41.5506L24.3349 41.6635L24.2397 41.6961C23.9567 41.6785 23.7701 41.7707 23.6193 41.5164C23.6782 40.7239 23.6747 40.5743 23.1746 40.3448C21.2394 39.4581 19.9502 38.8065 18.6434 36.0806C17.4271 36.5224 15.5338 34.9391 14.6094 33.565C14.1467 32.8766 14.2185 31.1674 14.2288 30.1797C13.7565 29.3049 13.7679 29.1692 13.6918 27.9521C13.5725 28.0386 13.4522 28.1214 13.3309 28.1991C12.9178 28.4669 11.7102 29.0781 11.3203 28.774L11.4414 28.5974C12.2309 28.5984 12.8916 27.8236 13.6265 27.6682C13.7942 27.3088 13.749 27.2508 13.7995 26.7183L13.8889 26.7328C13.8627 27.1394 13.839 27.2073 13.7609 27.5849C13.8141 27.8811 13.7855 27.7765 13.9016 28.0199C13.9634 28.8367 13.9223 29.898 14.5225 29.9669C14.6789 29.6437 14.5885 29.7022 14.7737 29.6431C15.473 29.5126 16.1798 29.5779 16.5355 30.7733C16.7273 31.1301 17.047 31.5927 17.0857 32.0132L17.1508 32.1546L17.3513 31.9956L17.4705 31.6331C17.3634 30.8722 17.5363 28.8491 17.6308 28.0344C18.0963 26.7375 18.489 25.1376 19.0007 23.6941L19.1492 23.6827C19.2578 24.5637 19.2953 25.5121 19.7205 26.0155C20.0856 25.8425 20.1602 24.9698 20.3229 24.3658C20.3971 24.1861 20.6355 23.5838 20.7066 23.4475C21.5381 23.431 22.5752 23.4848 23.3942 23.7428C23.4412 24.3482 23.4914 25.1842 23.5665 25.7627L23.6194 25.8731L23.5468 26.1424C23.8135 26.2211 23.7447 26.2408 23.9994 26.1843C23.8611 25.943 23.8663 25.9621 23.7901 25.6509C24.0667 24.7113 24.23 24.2307 24.5697 23.3548L24.913 23.3978C24.8294 24.6088 24.7857 25.3328 24.7875 26.5433C25.3812 25.8834 26.0266 25.1298 26.6454 24.5653C27.3301 24.0841 27.5134 23.4776 28.148 24.0582C28.0553 24.5627 27.6082 25.7622 27.4247 26.2843C28.4374 25.337 29.1094 24.689 30.017 23.4781C30.1965 23.4237 30.3129 23.3414 30.4712 23.4242L30.8662 22.9555C32.4837 22.1926 33.1002 22.1708 34.7576 22.2454C34.9382 22.2905 34.8735 22.3096 35.0393 22.2293Z" fill="#F9E1CC"/>
<path d="M11.4414 28.5969C12.2309 28.5979 12.8916 27.8231 13.6265 27.6677C13.7942 27.3082 13.749 27.2502 13.7995 26.7178L13.8889 26.7323C13.8627 27.1389 13.839 27.2067 13.7609 27.5843C13.8141 27.8806 13.7855 27.7759 13.9016 28.0194C13.9634 28.8362 13.9223 29.8974 14.5225 29.9663C14.6789 29.6431 14.5885 29.7016 14.7737 29.6426C15.473 29.5121 16.1798 29.5773 16.5355 30.7727C16.7273 31.1296 17.047 31.5921 17.0857 32.0127L17.1508 32.1541L17.3513 31.9951L17.4705 31.6325C18.678 35.5797 19.6243 38.6154 22.3082 39.658C23.8846 40.2702 26.7376 42.2772 28.2929 41.9965C30.3233 41.6298 33.46 39.7963 35.316 38.3087C36.6894 37.2076 37.5006 34.5558 38.3903 32.5493C38.5436 32.1391 38.7234 31.5864 38.9321 31.2808L39.1286 31.4155C39.336 31.8925 39.2857 31.6346 39.3021 32.2069C38.9661 33.4391 38.2973 33.0439 37.9004 34.2274C37.6818 34.6692 37.6167 34.7624 37.5996 35.24C38.2937 36.3328 40.5591 33.9058 41.1908 33.0998L41.3132 33.3412C40.2119 34.6547 38.9978 35.9024 37.6026 35.7859C37.4267 36.7492 37.353 37.0963 37.0892 37.9928L36.5396 37.2599C36.1633 37.7582 34.4334 39.3887 34.4166 39.4658C33.9566 41.5904 33.9981 39.9517 33.2887 40.4152C33.1246 40.8803 33.1386 40.6535 33.1657 41.0937C33.4068 41.303 33.2791 41.245 33.5689 41.2279C33.8448 41.2475 34.3305 41.2481 34.5782 41.3558C33.9937 41.3563 33.4349 41.2253 32.9627 41.7789C32.6952 42.4336 32.8191 43.6451 32.9865 44.3474C32.7176 43.8497 32.7245 43.7388 32.6471 43.0577C30.0685 44.8607 27.7973 47.1836 25.1354 45.0404C25.0361 44.9606 24.7366 44.7276 24.638 44.6779C24.4813 44.8871 24.0861 45.3797 23.9739 45.6309C23.4638 45.577 22.8598 44.3034 23.5143 43.4426L23.5546 43.6011C23.3916 44.2454 23.3354 44.2443 23.5431 44.8457C23.933 45.2362 24.3081 45.0782 24.5718 44.4686C24.6418 43.7849 24.6295 42.169 24.4363 41.55L24.3349 41.6629L24.2397 41.6956C23.9567 41.678 23.7701 41.7701 23.6193 41.5158C23.6782 40.7234 23.6747 40.5737 23.1746 40.3443C21.2394 39.4575 19.9502 38.806 18.6434 36.0801C17.4271 36.5219 15.5338 34.9385 14.6094 33.5644C14.1467 32.8761 14.2185 31.1669 14.2288 30.1792C13.7565 29.3044 13.7679 29.1687 13.6918 27.9515C13.5725 28.038 13.4522 28.1209 13.3309 28.1986C12.9178 28.4663 11.7102 29.0775 11.3203 28.7735L11.4414 28.5969Z" fill="#251F1B"/>
<path d="M25.4424 41.4496C28.2996 43.0977 29.6993 41.9101 32.5272 40.4707C32.6127 41.4771 32.6321 42.0364 32.6477 43.0568C30.0692 44.8597 27.7979 47.1827 25.136 45.0394C25.0367 44.9597 24.7372 44.7266 24.6387 44.6769C24.8419 43.6395 24.7635 43.151 24.6452 42.1084L25.4424 41.4496Z" fill="#CF9376"/>
<path d="M14.7747 29.6396C15.474 29.509 16.1809 29.5743 16.5365 30.7697C16.7284 31.1266 17.048 31.5891 17.0867 32.0097L17.1518 32.1511L17.3523 31.992C17.5705 32.6731 17.7179 33.0626 17.8449 33.8167L17.7759 34.0306C17.8264 34.2575 18.0213 34.3616 18.1674 34.733C18.2957 35.0966 18.3777 35.2929 18.4562 35.7036C18.347 35.9527 18.4171 35.8502 18.2049 35.9346L17.9764 35.9672C17.5534 35.8802 17.3032 35.6658 16.9128 35.4363C15.2985 34.4875 13.7986 32.9969 14.7747 29.6396Z" fill="#F9E1CC"/>
<path d="M14.7266 32.2939L14.8354 31.8102C15.133 30.4827 15.3466 30.6013 16.1071 30.5889C16.1902 30.6262 16.4675 30.7624 16.5356 30.7738C16.7274 31.1306 17.047 31.5932 17.0857 32.0137L17.1509 32.1551L17.3513 31.9961C17.5696 32.6772 17.7169 33.0667 17.8439 33.8208L17.7749 34.0347C17.8254 34.2616 18.0203 34.3657 18.1665 34.737C17.4048 34.7526 16.1286 34.4719 15.7553 33.1247C15.5684 32.4503 15.8756 31.9521 15.9509 31.3321L15.7574 31.2C15.2877 31.5155 15.3908 32.21 14.9743 32.5415L14.7266 32.2939Z" fill="#CF9376"/>
<path d="M17.3509 31.9922C17.5691 32.6733 17.7165 33.0628 17.8435 33.8169L17.7745 34.0308L17.5695 33.9692C17.5517 33.9386 17.5339 33.908 17.5161 33.878L17.4298 33.7226C17.0837 33.1058 17.0292 33.0084 17.1504 32.1512L17.3509 31.9922Z" fill="#F9E1CC"/>
<path d="M17.5703 33.973C17.0413 33.625 16.7254 32.9744 17.0862 32.0137L17.1513 32.1551C17.0301 33.0123 17.0845 33.1096 17.4307 33.7265L17.5169 33.8819C17.5347 33.9119 17.5526 33.9425 17.5703 33.973Z" fill="#5B483D"/>
<path d="M14.7275 32.293C14.5814 30.6879 15.3221 30.0824 16.1081 30.5879C15.3476 30.6003 15.134 30.4817 14.8364 31.8092L14.7275 32.293Z" fill="#442F25"/>
<path d="M38.3906 32.5468C38.5439 32.1365 38.7237 31.5839 38.9324 31.2783L39.1289 31.413C39.1506 32.2287 39.0765 32.8679 38.5343 33.0849L38.4035 32.9932L38.3906 32.5468Z" fill="#F3DEC6"/>
<path d="M40.4381 29.6387L40.7222 29.6123C41.2845 30.037 41.3137 30.0702 41.4696 31.0921C41.1107 30.5322 41.0886 30.4037 40.6335 30.1665L40.4508 30.2323C40.2456 30.8497 40.3778 31.1817 40.5561 31.7504C40.5714 33.4953 38.6916 34.1785 37.9004 34.2266C38.2973 33.0431 38.9662 33.4383 39.3021 32.2062C39.2857 31.6338 39.3361 31.8918 39.1287 31.4147L38.9321 31.2801C39.1555 30.8403 39.2482 30.7031 39.5108 30.3245L39.6475 30.1945L39.8201 29.9433C40.0362 29.9324 40.2244 29.7708 40.4381 29.6387Z" fill="#CF9376"/>
<path d="M35.0388 22.2293L35.1718 22.0527C35.637 22.4013 35.7878 23.1047 35.8059 23.9613L35.2408 22.8146C33.477 22.6779 32.204 23.0197 30.4707 23.4242L30.8656 22.9555C32.4832 22.1926 33.0997 22.1708 34.7571 22.2454C34.9377 22.2905 34.8729 22.3096 35.0388 22.2293Z" fill="#201A10"/>
<path d="M39.8203 29.943C40.5485 29.2163 41.7019 29.1945 41.5601 31.1249L41.4699 31.2694L41.4698 31.0918C41.3138 30.0699 41.2847 30.0367 40.7224 29.612L40.4383 29.6384C40.2246 29.7705 40.0364 29.9321 39.8203 29.943Z" fill="#5B483D"/>
<path d="M23.5475 26.1388C23.0569 25.7902 22.4091 25.6577 21.8418 25.379L21.8811 25.3262C22.5082 25.3697 22.9492 25.5453 23.5672 25.7592L23.62 25.8695L23.5475 26.1388Z" fill="#B7A89C"/>
<path d="M33.5796 25.7444C34.7132 25.6683 37.6216 25.9117 37.3607 28.8945C37.1285 29.4513 36.9114 29.8967 36.5224 30.1319C35.7655 31.1181 35.1394 31.5174 34.182 31.2926L34.1025 31.2724C33.5114 31.6609 32.744 31.6847 32.2331 30.973L32.1844 30.972C31.5509 31.2988 30.4618 29.5192 31.4723 28.0772C31.6875 27.7991 31.783 27.5324 31.9506 27.1646C31.6976 27.363 31.6847 27.392 31.4005 27.4717L31.3665 27.2806C31.9432 26.3121 32.8071 25.9159 33.5796 25.7444Z" fill="#18191B"/>
<path d="M33.5783 25.7444C34.712 25.6683 37.6203 25.9117 37.3595 28.8945C37.1273 29.4513 36.9102 29.8967 36.5212 30.1319L36.5317 30.0423C36.3983 28.8831 36.3717 27.9591 35.6564 27.2459C35.348 26.9383 34.985 26.8865 34.6439 27.0895C33.7831 26.5193 33.4703 26.5685 32.6308 26.9414L32.6075 26.7694C32.4175 26.8725 32.1149 27.0165 31.9494 27.1646C31.6964 27.363 31.6835 27.392 31.3993 27.4717L31.3652 27.2806C31.942 26.3121 32.8058 25.9159 33.5783 25.7444Z" fill="#272019"/>
<path d="M32.6074 26.7674C33.7687 26.2148 34.932 26.3551 36.0265 27.2299C36.3829 27.7484 36.5049 27.9727 36.6995 28.718L36.814 28.4569C37.0655 28.5854 37.1375 28.6734 37.3594 28.8925C37.1273 29.4493 36.9102 29.8947 36.5211 30.1299L36.5317 30.0403C36.3983 28.8811 36.3717 27.9571 35.6563 27.2439C35.348 26.9363 34.9849 26.8845 34.6439 27.0875C33.7831 26.5172 33.4703 26.5664 32.6307 26.9394L32.6074 26.7674Z" fill="#D1C9BF"/>
<path d="M36.6998 28.7191L36.8143 28.458C37.0658 28.5865 37.1378 28.6745 37.3598 28.8936C37.1276 29.4504 36.9105 29.8958 36.5215 30.131L36.532 30.0414C36.7234 29.4644 36.7058 29.4074 36.6998 28.7191Z" fill="#362A21"/>
<path d="M33.5801 25.7444C34.7137 25.6683 37.6221 25.9117 37.3612 28.8945C37.1393 28.6754 37.0673 28.5874 36.8158 28.4589L36.7012 28.72C36.5066 27.9747 36.3847 27.7504 36.0283 27.2319L36.2892 27.0419C36.0957 25.8936 34.1759 25.6854 33.6252 25.877L33.5801 25.7444Z" fill="#251F1B"/>
<path d="M34.6456 27.0881C34.9866 26.885 35.3497 26.9368 35.658 27.2445C36.3733 27.9577 36.3999 28.8817 36.5334 30.0408L36.5228 30.1304C35.7659 31.1166 35.1398 31.5159 34.1824 31.2911L34.1029 31.2709L34.3322 30.956L34.2889 30.4604C34.0381 30.0232 34.0725 30.1465 33.6816 29.9471C33.9997 29.6399 34.0097 29.627 34.2285 29.1344C34.5556 28.7869 34.9388 28.9314 35.1922 29.4012C35.2572 28.2679 35.101 27.8893 34.6456 27.0881Z" fill="#FFFCF9"/>
<path d="M34.2285 29.1365C34.5556 28.789 34.9388 28.9335 35.1922 29.4033C34.9266 30.2454 34.8088 30.4676 34.3322 30.9581L34.2889 30.4625C34.0381 30.0253 34.0725 30.1486 33.6816 29.9492C33.9997 29.642 34.0097 29.6291 34.2285 29.1365Z" fill="#251F1B"/>
<path d="M33.6806 29.9492C34.0715 30.1486 34.0371 30.0254 34.2879 30.4625L34.3312 30.9582L34.1019 31.2731C33.5107 31.6615 32.7434 31.6854 32.2324 30.9737C32.3391 30.1289 32.8659 30.014 33.2758 30.0839L33.6806 29.9492Z" fill="#AD7356"/>
<path d="M32.81 27.8809C33.2798 28.0792 33.2767 28.0896 33.7459 27.9622C34.0716 28.275 34.1396 28.4781 34.2276 29.1332C34.0087 29.6258 33.9987 29.6388 33.6807 29.9459L33.2759 30.0806C33.3797 29.5067 33.4018 29.7532 33.2875 29.3016L32.8878 29.3358L32.7003 29.6781L32.4453 29.4311C32.4867 28.5594 32.4921 28.5837 32.81 27.8809Z" fill="#272019"/>
<path d="M31.7227 29.9327C31.7306 29.3174 31.7368 28.2872 32.2231 28.3089C32.4565 28.7388 32.3846 28.7165 32.4456 29.4339L32.7006 29.681L32.8881 29.3386L33.2878 29.3044C33.4021 29.7561 33.38 29.5095 33.2762 30.0834C32.8663 30.0135 32.3395 30.1285 32.2328 30.9732L32.1841 30.9722C31.927 30.5361 31.909 30.476 31.7227 29.9327Z" fill="#362A21"/>
<path d="M32.8887 29.3398L33.2884 29.3057C33.2363 29.5895 33.2663 29.4864 33.1424 29.7096L32.9924 29.6661L32.8887 29.3398Z" fill="#5E5D59"/>
<path d="M31.4723 28.0738L31.8145 28.0215C31.5624 28.9004 31.5226 29.0227 31.7229 29.9291C31.9092 30.4724 31.9272 30.5325 32.1844 30.9686C31.5509 31.2954 30.4618 29.5157 31.4723 28.0738Z" fill="#FFFCF9"/>
<path d="M32.8105 27.8831C32.8661 27.3103 32.7886 27.5299 33.0249 27.1756C33.4805 27.0099 33.6668 27.1658 33.7465 27.9644C33.2773 28.0919 33.2803 28.0815 32.8105 27.8831Z" fill="#FFFCF9"/>
<path d="M32.6071 26.7676L32.6304 26.9395C32.2126 27.3472 32.1511 27.4336 31.8129 28.0231L31.4707 28.0754C31.686 27.7972 31.7815 27.5305 31.949 27.1628C32.1146 27.0146 32.4171 26.8706 32.6071 26.7676Z" fill="#F8F2EA"/>
<path d="M18.3161 29.4326C18.2136 26.7035 20.3024 26.184 21.4945 26.254C22.0484 26.2364 23.8848 26.6538 23.9098 27.8285L23.8715 27.958C24.1226 28.6743 24.5664 29.6848 24.1987 30.514C23.9539 30.6145 23.901 30.5958 23.7263 30.9361L23.6678 30.8631L23.2646 31.3997C22.8673 31.9378 22.3262 32.1093 21.8352 31.9285L21.7675 31.7679C21.6993 31.7949 21.6307 31.8203 21.562 31.8436C20.7206 32.1233 20.0851 31.5701 19.4076 30.7688C19.3098 30.6601 19.3411 30.7165 19.1611 30.7761C18.7652 30.2861 18.5837 30.138 18.3161 29.4326Z" fill="#272019"/>
<path d="M18.3161 29.4326C18.2136 26.7035 20.3024 26.184 21.4945 26.254C22.0484 26.2364 23.8848 26.6538 23.9098 27.8285L23.8715 27.958C24.1226 28.6743 24.5664 29.6848 24.1987 30.514C23.9539 30.6145 23.901 30.5958 23.7263 30.9361L23.6678 30.8631L23.2646 31.3997C23.4693 30.9159 23.4845 30.8973 23.3846 30.3664C23.1573 30.1002 23.1737 30.1168 22.9017 30.038C23.0445 29.315 23.1332 29.0954 22.8753 28.4065C22.8642 27.7052 22.7372 27.757 22.4044 27.511L22.4147 27.2039C21.5292 27.0609 21.7028 27.3033 20.961 27.6151C20.615 27.4815 20.2526 27.5701 19.9417 27.8648C19.4355 28.3558 19.274 29.4704 19.3702 30.4021L19.3915 30.6192L19.4076 30.7688C19.3098 30.6601 19.3411 30.7165 19.1611 30.7761C18.7652 30.2861 18.5837 30.138 18.3161 29.4326Z" fill="#D1C9BF"/>
<path d="M18.3161 29.4326C18.2136 26.7035 20.3024 26.184 21.4945 26.254C22.0484 26.2364 23.8848 26.6538 23.9098 27.8285L23.8715 27.958C22.6951 26.5854 20.9749 26.6963 19.7133 27.6244C19.3832 28.1149 19.2009 28.3796 19.0208 29.0783C18.6552 28.7541 18.6263 28.9669 18.3161 29.4326Z" fill="#251F1B"/>
<path d="M18.3161 29.4326C18.2136 26.7035 20.3024 26.184 21.4945 26.254L21.034 26.3348C20.536 26.414 19.9726 26.6217 19.5257 27.0184L19.4015 27.2997C19.5197 27.5939 19.4606 27.4623 19.7133 27.6244C19.3832 28.1149 19.2009 28.3796 19.0208 29.0783C18.6552 28.7541 18.6263 28.9669 18.3161 29.4326Z" fill="#201A10"/>
<path d="M22.4146 27.2031C23.6036 27.72 24.2035 28.7637 23.6677 30.8624L23.2645 31.399C23.4692 30.9152 23.4844 30.8965 23.3845 30.3657C23.1572 30.0994 23.1736 30.116 22.9016 30.0373C23.0444 29.3142 23.1331 29.0946 22.8752 28.4058C22.8641 27.7045 22.7371 27.7563 22.4043 27.5103L22.4146 27.2031Z" fill="#201A10"/>
<path d="M18.3145 29.4329C18.6246 28.9672 18.6535 28.7544 19.0192 29.0786C18.9777 29.7617 18.9852 30.1336 19.1594 30.7764C18.7635 30.2864 18.582 30.1383 18.3145 29.4329Z" fill="#362A21"/>
<path d="M19.4076 30.7711L19.3915 30.6214L19.3702 30.4044C19.2739 29.4726 19.4355 28.358 19.9416 27.867C20.2525 27.5723 20.6149 27.4837 20.961 27.6174C20.4843 28.487 20.3743 28.9257 20.492 30.1112C20.9567 31.0627 21.0873 31.215 21.7675 31.7702C21.6992 31.7971 21.6307 31.8225 21.5619 31.8458C20.7206 32.1255 20.085 31.5723 19.4076 30.7711Z" fill="#FFFCF9"/>
<path d="M20.4922 30.1087C20.6427 29.672 20.6263 29.6731 20.9119 29.4623C21.2669 29.3986 21.6942 30.2775 22.356 30.4816L22.4791 30.3474L22.9019 30.0377C23.1739 30.1164 23.1575 30.0999 23.3848 30.3661C23.4847 30.897 23.4695 30.9156 23.2648 31.3994C22.8675 31.9375 22.3264 32.109 21.8354 31.9282L21.7677 31.7676C21.0876 31.2124 20.9569 31.0601 20.4922 30.1087Z" fill="#664529"/>
<path d="M22.4043 27.5107C22.7372 27.7568 22.8641 27.705 22.8753 28.4063C22.5259 28.515 22.289 28.6455 22.041 28.1411C22.1398 27.705 22.1277 27.8267 22.4043 27.5107Z" fill="#FFFCF9"/>
<path d="M22.3563 30.4847C22.2653 30.1516 22.2094 30.0584 22.2496 29.7062L22.3838 29.5674L22.5324 29.7238C22.558 30.119 22.565 29.9688 22.4794 30.3505L22.3563 30.4847Z" fill="#251F1B"/>
<path d="M32.5043 25.069C32.6654 25.0644 32.8277 25.0846 32.9888 25.0955C32.6254 25.4658 31.9548 25.6445 31.5339 25.905C31.3621 26.0298 31.2102 26.108 31.027 26.1666L30.9688 26.0366C31.4715 25.4917 31.931 25.2819 32.5043 25.069Z" fill="#9A897F"/>
<path d="M28.8824 36.8478C29.8328 36.8426 30.1987 36.6142 31.1317 36.2832L31.1684 36.4091C30.409 36.9643 29.2469 37.1248 28.4238 37.0933L28.8824 36.8478Z" fill="#5E5D59"/>
<path d="M26.2136 37.156C25.8727 37.1223 25.2822 37.0861 25.0229 36.7095L24.9102 36.6956C25.1427 36.5956 25.5612 36.8142 25.8298 36.9027C25.8612 36.9084 26.005 36.9281 26.0281 36.9478C26.1893 36.9597 26.9632 36.967 27.0254 37.0809C26.7644 37.1938 26.4474 37.3772 26.2136 37.156Z" fill="#5B483D"/>
<path d="M26.2129 37.1563C26.4626 37.1288 26.7796 37.0781 27.0248 37.0812C26.7638 37.1941 26.4467 37.3775 26.2129 37.1563Z" fill="#D1C9BF"/>
<path d="M27.0952 33.0262L27.1791 32.9443L27.2749 33.008L27.1976 33.2851C27.1083 33.3214 27.1697 33.3059 27.0117 33.2639L27.0952 33.0262Z" fill="#5B483D"/>
<path d="M28.4236 37.0941C28.3096 37.1252 28.3742 37.1247 28.2305 37.0594C28.4728 36.8429 28.6111 36.8709 28.8821 36.8486L28.4236 37.0941Z" fill="#F3DEC6"/>
<path d="M39.627 29.3062C39.6391 28.6847 40.0005 28.0585 40.1987 27.4623C40.9046 25.3372 41.2838 22.6569 41.0764 20.2137C40.9952 19.2592 40.8382 18.4693 40.7521 17.508L40.7392 17.3594C41.1192 18.8464 41.242 19.4648 41.396 21.0616C41.7487 21.707 42.3789 23.2354 42.8063 23.5182L42.9155 23.3701C42.9711 22.8112 42.8207 22.241 42.7166 21.6754C43.2701 22.1622 43.7264 22.4398 44.3013 22.8133L44.131 22.8542L44.165 23.0987C44.5499 25.78 44.9512 25.2362 44.5589 28.204C44.0644 27.1541 43.8805 26.7408 43.2335 25.9318C43.0473 28.0621 42.4326 28.3526 43.0605 30.0391L43.0638 30.2069C42.7455 30.182 42.4275 30.1499 42.1097 30.1105C42.1811 31.7001 42.1196 32.362 41.3139 33.3409L41.1916 33.0996C42.682 31.0806 41.5503 26.9496 39.627 29.3062Z" fill="#201A10"/>
<path d="M16.4734 12.0825C16.956 11.8987 18.4507 11.2238 18.8463 11.6775L18.8726 11.9266C18.1662 12.992 16.7024 14.4329 15.7788 14.5174C14.2972 14.6525 13.7406 15.3797 12.4277 16.2048C13.2263 15.2026 13.9302 14.3931 14.7372 13.4364L14.6998 13.2267L15.3639 12.5989L15.8072 12.2731C16.2047 11.8987 16.1356 11.9277 16.4734 12.0825Z" fill="#5B483D"/>
<path d="M15.8067 12.2751C16.2041 11.9006 16.1351 11.9297 16.4728 12.0845C15.815 12.5299 15.3701 12.8884 14.7367 13.4384L14.6992 13.2286L15.3633 12.6009L15.8067 12.2751Z" fill="#251F1B"/>
<path d="M15.1157 10.1392C15.2816 9.92738 20.0215 8.6838 20.499 8.60352C20.9682 8.82209 21.9636 8.80604 22.593 8.96401C20.8166 9.36127 19.9566 9.59123 18.2627 10.5841C17.1031 11.2642 14.3343 10.9783 13.1055 10.5038C13.6193 10.4723 14.6988 10.4919 15.1157 10.1392Z" fill="#5B483D"/>
<path d="M32.0483 19.953C32.38 19.6309 32.5068 19.3802 32.8248 19.5003C33.0122 19.8468 33.1579 20.097 33.3611 20.4161C33.6821 20.4316 33.7394 20.4202 34.0577 20.3218C34.3744 20.9045 34.7432 21.7104 35.0403 22.2263C34.8745 22.3065 34.9392 22.2874 34.7586 22.2423C33.1013 22.1677 32.4848 22.1895 30.8672 22.9524C30.9726 22.0424 31.323 22.2345 31.3471 21.4126L32.0483 19.953Z" fill="#F9E1CC"/>
<path d="M34.0579 20.3252C34.3746 20.9079 34.7435 21.7138 35.0405 22.2297C34.8747 22.3099 34.9394 22.2908 34.7588 22.2457C34.4622 22.0691 33.6776 20.8514 33.3613 20.4195C33.6823 20.435 33.7396 20.4236 34.0579 20.3252Z" fill="#D8AC8F"/>
<path d="M24.9989 14.5982C24.2969 14.9131 22.9234 15.5807 22.2207 15.3793L22.2847 15.2259C22.6747 14.9053 26.2102 13.0729 26.4193 13.09L26.3682 13.2811C25.1163 14.3978 24.8443 16.5747 23.904 18.7391C23.7717 18.7277 23.8386 18.7567 23.7065 18.6319C23.1414 19.256 22.7494 19.8434 22.2401 20.5835C22.2528 19.3109 23.8118 17.4034 24.2935 16.3219C24.5749 15.69 24.7459 15.2809 24.9989 14.5982Z" fill="#201A10"/>
<path d="M25.1152 3.98926L25.6749 4.0193C25.9466 4.18245 26.6985 4.32488 27.0216 4.39066C27.9711 4.58385 30.7407 5.55136 31.4224 6.33034C31.4923 6.57844 31.6967 6.82239 31.829 7.00729L31.7006 7.27351C30.9055 7.38797 29.9736 6.54476 29.1831 6.15735C27.7454 5.45347 26.6084 4.67086 25.0961 4.66879C25.0131 4.48596 25.028 4.49477 24.9746 4.27464L25.1152 3.98926Z" fill="#5B483D"/>
<path d="M23.7055 18.6309C23.6843 19.1436 23.6934 19.3119 23.5763 19.7952C23.5533 20.1199 23.4811 20.9637 23.487 21.247C23.4539 21.8996 23.4031 22.6677 23.3977 23.313C22.7941 23.1364 22.1155 22.9018 21.5117 22.8785C21.2676 22.9039 21.1614 22.8604 20.9199 22.8106C21.2765 22.2766 21.8755 21.189 22.2391 20.5825C22.7485 19.8423 23.1405 19.255 23.7055 18.6309Z" fill="#F9E1CC"/>
<path d="M23.7055 18.6309C23.6843 19.1436 23.6934 19.3119 23.5763 19.7952C23.4732 19.8351 21.6335 22.3911 21.4861 22.6858L21.5117 22.8785C21.2676 22.9039 21.1614 22.8604 20.9199 22.8106C21.2765 22.2766 21.8755 21.189 22.2391 20.5825C22.7485 19.8423 23.1405 19.255 23.7055 18.6309Z" fill="#CF9376"/>
<path d="M26.5882 6.79064C26.8285 6.77976 26.7211 6.72487 26.9199 6.97038C26.9421 7.27389 26.9575 7.16408 26.8978 7.42564C27.1801 7.75349 27.1967 7.76955 27.5205 7.93011L27.262 8.20877C25.1211 7.48313 23.5865 8.01454 21.6538 7.28166L21.8039 6.86264C21.624 6.75595 21.5382 6.72332 21.3535 6.64355C22.7613 6.83985 24.0579 6.76941 25.4632 6.71606C25.7564 6.70467 26.2495 6.78805 26.4905 6.71243L26.5882 6.79064Z" fill="url(#paint0_linear_4631_51484)"/>
<path d="M26.5877 6.7892C26.828 6.77832 26.7206 6.72343 26.9194 6.96894C26.9416 7.27245 26.957 7.16263 26.8973 7.42419C26.7088 7.29782 26.5789 7.24655 26.4414 6.9912L26.5877 6.7892Z" fill="#201A10"/>
<path d="M36.6445 19.5488C37.3649 21.4947 38.1366 25.8133 38.4234 28.1534L38.2111 28.4299L38.0613 27.3625C37.5841 26.4566 37.7037 25.5958 36.8264 23.9601L36.8344 23.3495L36.8462 23.12C36.9736 22.7575 36.698 20.1869 36.6445 19.5488Z" fill="#201A10"/>
<path d="M36.846 23.1201C37.5263 23.6655 37.9361 26.1563 38.0611 27.3626C37.5839 26.4567 37.7035 25.5959 36.8262 23.9602L36.8341 23.3496L36.846 23.1201Z" fill="#CF9376"/>
<path d="M12.4586 19.0567L12.5045 18.8982L12.3485 18.7993L12.4103 18.6807C12.6097 18.8511 12.548 18.7149 12.6222 19.0634C12.3823 20.1071 10.7574 22.0462 10.7857 24.3226L10.8997 24.7002C11.0203 24.6074 11.439 23.6897 11.7679 23.513C12.3777 23.1852 11.9226 22.689 12.1627 21.8903L12.2505 21.8743L12.3084 22.558L12.3906 22.2767C12.5236 22.7853 12.5277 27.0345 12.0151 27.4302C12.3059 25.7609 12.2183 25.1808 12.1437 23.4343C11.6228 23.9279 11.0448 25.014 10.7346 25.2165C10.1641 23.1774 11.7177 20.3852 12.4586 19.0567Z" fill="#18191B"/>
<path d="M41.5879 15.8721C42.1544 16.1549 42.7241 16.4175 43.2968 16.6599L43.2211 16.7256L43.1743 16.9509C43.5594 17.9433 43.9733 18.9419 44.3501 19.9332L44.2307 19.9938C43.3111 19.5122 42.2074 17.1446 41.5879 15.8721Z" fill="#201A10"/>
<path d="M23.4878 21.2471C23.5875 21.8013 23.685 25.4522 23.6201 25.8733L23.5672 25.763C23.4921 25.1844 23.4419 24.3485 23.3949 23.743C22.5759 23.4851 21.5388 23.4312 20.7073 23.4478C20.6362 23.584 20.3977 24.1864 20.3236 24.3661C20.3413 24.0377 20.3423 24.0372 20.31 23.713C20.0046 23.4312 19.807 23.5799 19.4622 23.5048L19.4531 23.296C19.6286 23.2044 20.8148 22.7517 20.9207 22.8107C21.1622 22.8604 21.2683 22.904 21.5124 22.8786C22.1162 22.9019 22.7949 23.1365 23.3984 23.3131C23.4038 22.6678 23.4546 21.8997 23.4878 21.2471Z" fill="#201A10"/>
<path d="M19.3654 21.7705C19.3335 21.28 19.321 21.2883 19.1845 20.8775L19.2404 20.7734C19.5993 21.281 19.4321 22.4666 19.4536 23.2937L19.4627 23.5025C19.8075 23.5776 20.0051 23.4289 20.3105 23.7107C20.3427 24.0349 20.3418 24.0354 20.324 24.3638C20.1614 24.9677 20.0868 25.8405 19.7217 26.0134C19.2964 25.51 19.259 24.5617 19.1504 23.6806C19.3248 22.6303 19.4438 23.2337 19.3654 21.7705Z" fill="url(#paint1_linear_4631_51484)"/>
<path d="M29.2549 19.3701L29.3394 20.1693C29.1986 20.8644 28.6044 23.927 28.3 24.1885L28.2106 24.0243C28.3868 23.0651 28.4516 23.0356 28.1386 22.2385L28.1094 22.0888C28.5882 20.9861 28.8445 20.6272 29.2549 19.3701Z" fill="#18191B"/>
<path d="M32.7148 18.0488C33.3961 18.5269 33.5457 19.1142 34.0371 19.9854L34.0563 20.3221C33.7379 20.4205 33.6807 20.4319 33.3597 20.4163C33.1565 20.0973 33.0108 19.8471 32.8234 19.5006C32.5054 19.3805 32.3786 19.6311 32.0469 19.9533C32.2877 19.2546 32.4983 18.8366 32.7148 18.0488Z" fill="#CF9376"/>
<path d="M19.4693 6.30838C19.2856 5.82825 19.1569 5.47035 18.998 4.96484C19.6306 5.6708 19.9335 5.92407 20.6691 6.30113C20.774 6.35448 21.3079 6.59532 21.3522 6.64038C21.5369 6.72015 21.6227 6.75278 21.8026 6.85947L21.6525 7.27849C20.8813 7.35463 19.8261 6.17993 19.4693 6.30838Z" fill="#362A21"/>
<path d="M18.1823 24.6402C18.4677 23.8513 18.4588 23.8829 19.0007 23.6934C18.489 25.1369 18.0963 26.7368 17.6309 28.0337C17.6964 26.1531 17.8174 26.3095 18.1823 24.6402Z" fill="#CF9376"/>
<path d="M32.716 18.0538C32.6891 17.8642 33.1483 15.7033 33.2213 14.7959L33.2439 14.5312C33.3706 14.8482 33.3126 15.1818 33.2664 15.62C33.2251 16.0006 33.1774 16.3793 33.1234 16.7553L33.5705 18.0724C33.5017 18.148 33.433 18.2231 33.3642 18.2987C33.6128 18.9814 33.9768 19.1658 34.0383 19.9903C33.547 19.1192 33.3973 18.5318 32.716 18.0538Z" fill="#251F1B"/>
<path d="M18.1827 24.6389C18.1626 24.3343 18.1428 24.4488 18.1984 24.2473L18.2559 24.0422C18.4113 23.4782 18.7445 22.4713 19.0176 22.0688L19.0947 22.2051L19.1814 22.2475L19.3646 21.7705C19.443 23.2337 19.324 22.6303 19.1496 23.6807L19.001 23.6921C18.4591 23.8816 18.468 23.85 18.1827 24.6389Z" fill="#201A10"/>
<path d="M19.0936 22.207L19.1803 22.2495C19.1983 23.0057 19.2363 23.014 18.8886 23.4744L18.7815 23.4035C18.7745 22.9295 18.9293 22.6742 19.0936 22.207Z" fill="#CF9376"/>
<path d="M28.137 22.2354C28.45 23.0325 28.3852 23.062 28.209 24.0212L28.1472 24.0559C27.5126 23.4753 27.3292 24.0818 26.6445 24.563C27.1596 23.8037 27.7805 23.279 28.137 22.2354Z" fill="#CF9376"/>
<path d="M36.1973 17.6504C36.3329 18.2921 36.4821 18.925 36.6446 19.5481C36.698 20.1862 36.9737 22.7567 36.8462 23.1193L36.8344 23.3488C36.7927 23.2923 36.6591 23.0691 36.6546 22.9852C36.5557 21.1667 36.4146 19.4388 36.1973 17.6504Z" fill="#18191B"/>
<path d="M39.6168 11.5375C39.0864 11.782 38.2305 11.1713 37.8555 11.5473C39.1905 10.6321 40.4792 11.654 41.7637 11.2785L41.8822 11.4329C41.3936 11.5857 40.2101 11.4929 39.6168 11.5375Z" fill="#251F1B"/>
<path d="M32.9219 6.70996C33.2872 7.19113 33.9251 8.74908 34.1703 9.48455C33.7506 9.01789 33.3602 8.6398 33.0122 8.02552C33.0098 7.84528 32.9935 7.92349 33.0568 7.78934L33.0475 7.73703L32.9219 6.70996Z" fill="#201A10"/>
<path d="M31.3467 21.418C31.3226 22.2399 30.9722 22.0478 30.8668 22.9578L30.4719 23.4265C30.3135 23.3437 30.1971 23.426 30.0176 23.4804C30.5186 22.8288 30.8726 22.0918 31.3467 21.418Z" fill="#F5CDAA"/>
<path d="M39.6697 10.3382C39.1386 10.5516 38.3102 10.1693 37.7515 10.6365C37.5859 10.7753 37.6101 10.7582 37.4316 10.766C37.4834 10.3138 37.4473 10.5267 37.6633 10.1201L37.8114 10.2346C38.4357 10.1999 39.0521 10.1502 39.6697 10.3382Z" fill="#272019"/>
<path d="M24.8494 22.6686L24.7891 22.5288C24.816 22.0191 25.1607 21.1438 25.3943 20.8066L25.4116 20.933C25.2878 21.5364 25.2294 22.1144 24.9224 22.4925L24.8494 22.6686Z" fill="#251F1B"/>
<path d="M38.4233 28.1543C38.4267 28.4666 38.475 29.5486 38.3948 29.7045C38.3589 29.5564 38.3042 29.1622 38.2844 29.0959L38.2109 28.4309L38.4233 28.1543Z" fill="#251F1B"/>
<path d="M29.2539 19.367C29.3486 18.7573 29.4161 18.4538 29.5576 17.8701L29.3384 20.1661L29.2539 19.367Z" fill="#251F1B"/>
<path d="M24.9217 22.4893C24.925 22.799 24.9379 23.0895 24.9136 23.3941L24.5703 23.3511L24.8487 22.6654L24.9217 22.4893Z" fill="#F3DEC6"/>
<path d="M15.3262 12.0967L15.8068 12.2759L15.3635 12.6017L15.3262 12.0967Z" fill="#F8F2EA"/>
<path d="M27.5202 7.92676L27.7047 8.13549L27.6394 8.26446C27.4254 8.26808 27.4602 8.29657 27.2617 8.20542L27.5202 7.92676Z" fill="#5B483D"/>
<path d="M32.3401 10.1792C32.9636 10.144 33.5803 10.7557 34.1502 11.1457L34.1552 11.3155C32.6097 10.3884 29.7783 13.4293 28.3098 14.5138C28.1029 14.7448 27.7794 15.1659 27.5293 15.083C28.3954 13.5991 31.6546 11.4098 32.9012 10.5231L32.8266 10.3418C32.6999 10.361 32.6098 10.3232 32.49 10.26L32.3401 10.1792Z" fill="#251F1B"/>
<path d="M19.0678 13.2627C19.2221 13.2488 19.4141 13.2016 19.5654 13.2436C19.762 13.2985 19.7853 13.3777 19.8737 13.647C19.8655 13.6983 19.8605 13.7512 19.8491 13.8004C19.6616 14.6058 18.9404 15.1139 18.5058 15.3878C18.3074 15.4251 18.0638 15.5111 17.8682 15.4365C17.7208 15.3801 17.7099 15.3464 17.6309 15.1206C17.8062 14.2893 18.6469 13.6745 19.0678 13.2627Z" fill="#5B483D"/>
<path d="M35.1055 10.8047C35.4098 10.8264 35.7112 10.815 35.9114 11.2848C36.0917 11.708 36.0394 12.287 36.0082 12.7713C35.8889 12.7925 35.824 12.7635 35.7092 12.7149C35.3927 12.2446 35.2672 11.4557 35.1055 10.8047Z" fill="#201A10"/>
<path d="M37.5352 12.9648C37.5613 12.9664 37.5877 12.9643 37.6137 12.97C38.4036 13.1363 39.2912 14.6052 39.8083 15.5747C39.5959 15.5219 37.855 13.3916 37.5352 12.9648Z" fill="#362A21"/>
<path d="M37.668 15.4902C37.8348 15.4928 38.0046 15.4783 38.1606 15.5969C38.4941 15.8502 38.6556 16.3288 38.7792 16.8902C38.7596 16.8964 38.7402 16.9068 38.7202 16.9078C38.3131 16.9286 37.9223 15.973 37.668 15.4902Z" fill="#5B483D"/>
<path d="M35.7324 15.6729C35.9281 15.7329 36.0804 15.8049 36.2419 16.0147C36.4812 16.326 36.5405 16.7015 36.587 17.1889C36.4163 17.122 36.2549 17.0402 36.1033 16.8859C35.839 16.6171 35.7956 16.1462 35.7324 15.6729Z" fill="#5B483D"/>
<path d="M29.2538 16.1055C29.3962 16.1868 29.5031 16.2805 29.6335 16.4048C29.6965 16.8052 29.634 16.9015 29.5396 17.2729C29.332 17.2196 29.2074 17.1994 29.0335 16.9792C29.0277 16.5628 29.1195 16.4421 29.2538 16.1055Z" fill="#5B483D"/>
<path d="M20.3601 14.0078L20.5225 14.1295L20.5439 14.3823C20.4155 14.7925 20.208 15.0375 20.0016 15.3239C19.8666 15.2219 19.9323 15.3006 19.8203 15.053C19.8839 14.6231 20.1697 14.2942 20.3601 14.0078Z" fill="#5B483D"/>
<path d="M31.3762 16.3161C31.4872 16.1234 31.6665 16.1167 31.7822 16.3005C31.8979 16.4844 31.9088 16.7936 31.8067 16.9998C31.7371 17.1412 31.6284 17.2049 31.5234 17.1665C31.4184 17.1282 31.334 16.9941 31.3032 16.8169C31.2726 16.6393 31.3006 16.4471 31.3762 16.3161Z" fill="#5B483D"/>
<path d="M38.7988 15.6523C38.8625 15.6917 38.9628 15.7492 39.0184 15.8082C39.2217 16.0247 39.2246 16.2537 39.2834 16.6162C39.2544 16.5934 39.2249 16.5727 39.1965 16.5479C38.9196 16.3065 38.8853 16.1423 38.7988 15.6523Z" fill="#5B483D"/>
<path d="M19.8123 18.5889C19.8194 19.0115 19.6908 19.359 19.5913 19.7392L19.4863 19.3632C19.5153 18.9618 19.6452 18.8603 19.8123 18.5889Z" fill="#251F1B"/>
<path d="M47.8957 56.8896C47.9382 55.8946 46.2439 51.8314 46.2718 50.8711C46.9052 52.4746 47.6864 55.0783 48.1363 56.9056L47.8957 56.8896Z" fill="#272019"/>
<path d="M45.8008 22.2861L46.6759 22.6927L46.6692 22.8372L46.2747 22.9869C46.0054 22.8864 45.977 22.6741 45.8008 22.2861Z" fill="#272019"/>
<path d="M46.6746 22.6885L46.8256 22.7362C46.7213 22.8552 46.7753 22.8321 46.668 22.8316L46.6746 22.6885Z" fill="#897E74"/>
<path d="M33.5697 41.2278C34.9711 41.0906 37.4102 40.9191 38.6503 42.1104C38.8848 42.3124 38.9292 42.3471 39.1484 42.6268C39.6715 44.0159 39.5907 43.934 40.5149 44.5369C40.8659 44.8368 41.3412 45.2289 41.6018 45.7411C41.9556 46.5652 41.6643 46.8288 41.8688 46.9718C42.9612 47.7352 43.8478 47.6238 44.9127 48.7214C45.4296 49.2331 45.9888 49.9458 46.2728 50.8724C46.2449 51.8326 47.9392 55.8959 47.8967 56.8908C47.276 57.0162 46.0813 56.9514 45.4162 56.9488L44.0633 56.9437H42.3909L42.2147 56.998C42.0635 56.9618 41.747 56.9571 41.5811 56.9473L40.8054 56.9494L32.1924 56.9457L32.0961 56.9799C31.8559 56.9499 31.5244 56.9576 31.2759 56.9499L31.1453 56.9364C28.7695 57.0493 26.1057 56.9431 23.7067 56.9416L22.9362 56.9312L22.7603 56.9613C20.4049 56.8468 17.766 56.9499 15.3881 56.9504H14.6285L14.2605 56.9328L14.0947 56.9773C13.5091 56.8976 12.5124 56.9499 11.8966 56.9488L9.54883 56.9514C9.80308 56.0787 10.4496 53.7837 10.7562 53.1622C10.9955 52.3599 11.1822 51.9243 11.4859 51.1909C11.4966 51.1562 11.5073 51.1215 11.5179 51.0868C12.0639 49.5102 12.9471 48.3666 13.9772 47.9025C14.3911 47.6233 14.6057 47.6482 15.078 47.2675C15.2949 46.6983 15.3685 46.5191 15.6824 46.1099C15.8985 45.8338 16.246 45.5138 16.4878 45.2719C17.3615 44.5416 17.3762 44.3287 18.1073 43.1877C18.1218 43.1546 18.3575 42.8324 18.3936 42.7821L18.5502 42.6589C19.4857 41.5624 22.5416 41.1859 23.6201 41.5158C23.7708 41.7701 23.9575 41.6779 24.2405 41.6955L24.3357 41.6629L24.437 41.55C24.6302 42.1689 24.6426 43.7849 24.5726 44.4686C24.3088 45.0782 23.9338 45.2361 23.5439 44.8456C23.3362 44.2443 23.3924 44.2453 23.5553 43.601L23.515 43.4425C22.8606 44.3033 23.4645 45.577 23.9746 45.6308C24.0868 45.3796 24.482 44.887 24.6388 44.6778C24.7374 44.7275 25.0368 44.9606 25.1362 45.0404C27.798 47.1836 30.0693 44.8606 32.6479 43.0577C32.7253 43.7388 32.7184 43.8496 32.9872 44.3474C32.8199 43.645 32.6959 42.4336 32.9635 41.7789C33.4357 41.2252 33.9945 41.3563 34.5789 41.3557C34.3312 41.248 33.8456 41.2475 33.5697 41.2278Z" fill="#2E3445"/>
<path d="M13.9772 47.9022C14.3878 47.9965 14.9613 47.663 15.3856 47.4775C16.5793 48.3415 20.4621 50.2397 20.9791 50.9783C21.3935 51.6708 22.2649 52.8579 22.83 53.0599L23.039 52.8206C23.1049 53.0858 23.0919 53.0014 23.1189 53.2935C23.0634 54.4904 22.9813 55.7475 22.9362 56.931L22.7603 56.961C20.4049 56.8466 17.766 56.9496 15.3881 56.9501H14.6285L14.2605 56.9325L14.0947 56.9771C13.5091 56.8973 12.5124 56.9496 11.8966 56.9486L9.54883 56.9512C9.80308 56.0785 10.4496 53.7835 10.7562 53.1619C10.9955 52.3596 11.1822 51.924 11.4859 51.1906C11.4966 51.1559 11.5073 51.1212 11.5179 51.0865C12.0639 49.5099 12.9471 48.3663 13.9772 47.9022Z" fill="#2E3445"/>
<path d="M10.7562 53.162C10.961 53.0962 11.0314 52.901 11.1661 52.6523L11.2681 52.6565C11.3357 52.974 11.3245 52.9911 11.3284 53.3355L11.4601 53.3371C11.5683 54.0238 11.8032 56.1231 11.8966 56.9487L9.54883 56.9512C9.80308 56.0785 10.4496 53.7835 10.7562 53.162Z" fill="#0D1823"/>
<path d="M14.6287 56.9487C14.4208 55.5818 14.4237 52.598 15.0201 51.5439L15.1626 51.5496C15.589 52.4861 15.313 55.5083 15.3882 56.9487H14.6287Z" fill="#0D1823"/>
<path d="M14.0942 56.9739C13.7209 55.735 12.2228 51.7862 12.304 50.8125C12.3421 50.8798 14.1765 56.5922 14.26 56.9294L14.0942 56.9739Z" fill="#18191B"/>
<path d="M22.8301 53.0586L23.0391 52.8193C23.1049 53.0845 23.092 53.0001 23.119 53.2922C23.0635 54.4892 22.9814 55.7462 22.9362 56.9297L22.7604 56.9597C22.7456 55.9684 22.993 53.6082 22.8301 53.0586Z" fill="#18191B"/>
<path d="M11.4855 51.1904C11.4095 52.2957 11.3558 52.1875 11.4597 53.3368L11.328 53.3352C11.3241 52.9908 11.3353 52.9737 11.2677 52.6562L11.1658 52.6521C11.031 52.9007 10.9606 53.0959 10.7559 53.1617C10.9951 52.3594 11.1818 51.9238 11.4855 51.1904Z" fill="#18191B"/>
<path d="M32.6478 43.0576C32.7253 43.7387 32.7184 43.8495 32.9872 44.3473L33.1739 44.6202L33.198 44.887C32.9416 45.3909 32.4985 45.782 32.1543 46.1476C30.7907 47.1934 28.956 48.8135 27.6941 50.157C27.5302 49.9861 27.1195 49.5313 26.9662 49.4143C26.4385 49.3578 25.3876 48.3525 24.8849 47.9252L25.114 47.7372L25.1079 47.4953C24.8106 47.1281 24.6193 46.9748 24.5045 46.4144C24.3749 46.0834 24.1661 45.87 23.9746 45.6307C24.0868 45.3795 24.482 44.887 24.6388 44.6777C24.7373 44.7274 25.0368 44.9605 25.1361 45.0403C27.798 47.1835 30.0693 44.8606 32.6478 43.0576Z" fill="#F9E1CC"/>
<path d="M24.5039 46.4141L26.9656 49.414C26.4379 49.3575 25.387 48.3522 24.8843 47.9249L25.1135 47.7369L25.1073 47.495C24.8101 47.1278 24.6187 46.9745 24.5039 46.4141Z" fill="#18191B"/>
<path d="M27.1992 49.0486C27.3666 48.9808 27.3703 49.0512 27.515 49.1859L27.3775 49.2506L27.1992 49.0486Z" fill="#F5CDAA"/>
<path d="M24.3343 41.659L24.4356 41.5461C24.6289 42.165 24.6412 43.781 24.5712 44.4646C24.3074 45.0743 23.9324 45.2322 23.5425 44.8417C23.3348 44.2404 23.391 44.2414 23.5539 43.5971L23.5136 43.4386C22.8592 44.2994 23.4631 45.573 23.9733 45.6269C24.1648 45.8662 24.3736 46.0796 24.5031 46.4105C24.6179 46.971 24.8093 47.1243 25.1065 47.4915L25.1127 47.7334L24.8835 47.9214C23.7887 47.1238 22.5699 46.1065 21.5259 45.1395C20.1791 43.8918 20.0568 43.3485 21.1717 41.7895C20.7398 41.8573 20.4609 41.9045 20.0391 42.0547C19.5557 42.2261 19.0093 42.6601 18.5488 42.655C19.4843 41.5585 22.5402 41.1819 23.6187 41.5119C23.7695 41.7662 23.9561 41.674 24.2391 41.6916L24.3343 41.659Z" fill="#0D1823"/>
<path d="M24.3345 41.6621L24.3732 42.0252C23.729 42.4369 22.0946 41.8035 21.4654 42.9223C21.4521 42.9461 21.3682 43.6148 21.2429 43.8991C20.6498 41.7579 23.4147 41.9532 24.1226 41.8796L24.2393 41.6947L24.3345 41.6621Z" fill="#18191B"/>
<path d="M33.5696 41.2278C34.9711 41.0906 37.4101 40.9191 38.6502 42.1104C37.8681 42.1642 37.4034 41.2936 36.4669 41.6214L36.3948 41.7939C36.6372 42.3025 36.8183 42.4056 36.8968 42.9106C36.7395 43.2353 36.4078 43.3379 36.1521 43.4492C35.445 43.7579 34.2086 45.0269 33.5602 45.3206C33.1901 45.6376 32.5682 46.2088 32.1543 46.1477C32.4985 45.7821 32.9416 45.391 33.1979 44.8871L33.1739 44.6203L32.9871 44.3474C32.8198 43.645 32.6959 42.4336 32.9634 41.7789C33.4356 41.2252 33.9944 41.3563 34.5789 41.3557C34.3311 41.248 33.8455 41.2475 33.5696 41.2278Z" fill="#0D1823"/>
<path d="M33.9204 43.5693C33.7149 43.1845 33.5788 43.0457 33.512 42.5889C33.7593 42.6774 33.9852 43.157 34.1833 43.4782C33.9655 44.0044 33.7402 44.5213 33.5075 45.0284L33.5602 45.3184C33.1901 45.6354 32.5682 46.2067 32.1543 46.1456C32.4985 45.7799 32.9416 45.3888 33.1979 44.8849L33.1739 44.6182C33.6316 44.425 33.6498 44.3007 33.9204 43.5693Z" fill="#18191B"/>
<path d="M22.3652 48.9893C22.9665 49.1187 24.31 49.3347 24.7886 49.7817C25.8254 50.7503 25.8656 51.4034 27.0615 52.013C26.4726 51.9224 24.5248 51.464 24.1401 51.9363C24.0362 52.9546 25.4268 53.9045 25.7513 54.8073L25.7218 55.0134C25.0095 55.1341 24.4196 53.9838 24.0292 54.5701C23.9144 54.2702 23.9371 54.3815 23.9093 54.0438L23.706 56.9402L22.9355 56.9298C22.9806 55.7463 23.0627 54.4893 23.1182 53.2923L23.1456 52.8557C23.2033 52.0596 23.1777 51.2066 23.2841 50.4499C23.349 49.9879 23.4965 49.9744 23.7222 49.803L23.8269 49.762L23.6833 49.7118L23.7392 49.7864C23.1305 49.6947 22.9018 49.4456 22.3652 48.9893Z" fill="#0D1823"/>
<path d="M23.7222 49.8037C23.8541 49.9089 24.0594 50.0041 24.0723 50.1865C24.16 51.4326 23.929 52.7306 23.9093 54.0446L23.706 56.9409L22.9355 56.9306C22.9807 55.7471 23.0628 54.49 23.1183 53.2931L23.1456 52.8564C23.2033 52.0604 23.1778 51.2073 23.2841 50.4506C23.349 49.9886 23.4966 49.9751 23.7222 49.8037Z" fill="#B1ACA4"/>
<path d="M33.5896 47.9947C33.8336 47.9274 33.8642 47.8378 34.0293 48.003L33.8879 48.2786C33.5121 48.6494 32.5348 49.7951 32.212 50.0049L32.0179 50.0784C31.7563 49.9536 31.6966 49.8925 31.4271 49.9924C31.2243 50.3897 31.2449 50.4757 31.2706 51.033C31.2267 51.3427 31.1193 51.6198 31.1039 51.8456C29.7979 52.6003 29.1373 52.6153 27.8184 52.5764C30.023 50.961 31.0967 48.4189 33.5896 47.9947Z" fill="#1E2333"/>
<path d="M41.6015 45.7412C41.9553 46.5653 41.6639 46.8289 41.8685 46.9718C42.9609 47.7353 43.8475 47.6239 44.9124 48.7214C44.0337 48.7214 42.7556 47.3505 41.6435 47.3126C41.1501 47.2961 36.0605 49.9106 35.5561 50.3706C34.4933 51.3396 33.6232 52.8572 32.4809 53.589C32.446 53.6113 32.4109 53.6325 32.3759 53.6538C32.655 52.9654 33.3693 51.7524 33.7412 51.0527C33.3093 51.177 32.7578 51.4551 32.3556 51.3935C32.4617 51.2324 32.7196 51.2158 32.8965 51.1604L32.8425 50.9848L32.3717 50.9196L32.3535 50.8005C32.9126 50.3628 34.1273 50.3079 34.7209 50.0531C35.6617 49.6491 41.4457 47.6773 41.6827 46.283C41.6057 46.0499 41.62 46.0095 41.6015 45.7412Z" fill="#0D1823"/>
<path d="M15.6818 46.1113C15.7938 47.0908 15.4405 46.7582 15.5759 47.258C16.4726 48.0567 22.3473 51.5512 23.0965 50.5615C23.0675 49.8229 22.2968 49.2236 21.9406 48.8958L21.9716 48.7849L22.3653 48.9921C22.9019 49.4484 23.1305 49.6975 23.7392 49.7892L23.6834 49.7146L23.8269 49.7649L23.7222 49.8058C23.4966 49.9772 23.349 49.9907 23.2841 50.4527C23.1778 51.2094 23.2033 52.0625 23.1456 52.8585L23.1182 53.2951C23.0913 53.003 23.1042 53.0875 23.0384 52.8223L22.8294 53.0616C22.2642 52.8596 21.3929 51.6724 20.9784 50.98C20.4614 50.2414 16.5787 48.3431 15.385 47.4792C14.9606 47.6646 14.3872 47.9982 13.9766 47.9039C14.3904 47.6247 14.6051 47.6496 15.0774 47.2689C15.2943 46.6997 15.3679 46.5205 15.6818 46.1113Z" fill="#18191B"/>
<path d="M20.9785 50.9791C21.4467 50.9258 22.4264 51.3603 22.9354 51.5431C23.0868 51.9704 23.0974 52.3599 23.1457 52.8577L23.1183 53.2943C23.0913 53.0022 23.1043 53.0866 23.0385 52.8214L22.8295 53.0607C22.2643 52.8587 21.393 51.6716 20.9785 50.9791Z" fill="#252932"/>
<path d="M31.2702 51.0309C31.2446 50.4736 31.2239 50.3876 31.4267 49.9904C31.6962 49.8904 31.7559 49.9515 32.0175 50.0763C32.1586 52.55 31.993 54.8124 32.0954 56.9774C31.8551 56.9473 31.5237 56.9551 31.2752 56.9473L31.1446 56.9339C31.0556 55.1952 31.1523 53.5818 31.1035 51.8436C31.119 51.6177 31.2263 51.3406 31.2702 51.0309Z" fill="#B1ACA4"/>
<path d="M31.2702 51.0332C31.3444 51.619 31.3417 56.4265 31.2752 56.9496L31.1446 56.9362C31.0556 55.1974 31.1523 53.5841 31.1035 51.8458C31.119 51.62 31.2263 51.3429 31.2702 51.0332Z" fill="#252932"/>
<path d="M44.0625 56.9443C44.1843 56.1726 45.1801 53.8046 45.5045 53.0479C46.1877 53.3975 45.6491 56.1555 45.4154 56.9495L44.0625 56.9443Z" fill="#0D1823"/>
<path d="M40.8053 56.9519C40.7882 55.67 40.7003 53.7143 41.0184 52.608L41.1644 52.4619C41.7034 53.1047 41.6184 55.8834 41.581 56.9499L40.8053 56.9519Z" fill="#0D1823"/>
<path d="M39.1477 42.626C39.6708 44.0151 39.59 43.9333 40.5142 44.5361C39.9604 44.8971 39.3661 45.4006 38.8648 44.4372C38.7451 43.7157 38.9393 43.2781 39.1477 42.626Z" fill="#0D1823"/>
<path d="M42.2148 56.9986C42.4067 56.0037 44.7376 50.9677 45.1851 50.4141L45.2798 50.4576C45.2191 50.643 44.4975 52.1316 44.3613 52.4138C43.6295 53.9304 43.0453 55.3329 42.391 56.9442L42.2148 56.9986Z" fill="#252932"/>
<path d="M32.0176 50.0804L32.2117 50.0068C32.2895 51.8621 32.1942 55.1158 32.3257 56.5536L32.1917 56.9472L32.0955 56.9814C31.993 54.8164 32.1586 52.5541 32.0176 50.0804Z" fill="#18191B"/>
<path d="M18.1078 43.1865C17.9983 44.1613 17.7286 43.9028 17.6695 44.4757C17.4462 45.1816 17.2879 45.5841 16.8567 45.8042C16.5197 45.5545 16.7148 45.5996 16.4883 45.2707C17.362 44.5404 17.3767 44.3275 18.1078 43.1865Z" fill="#18191B"/>
<path d="M18.3945 42.7793L18.3784 42.93C18.2873 43.8297 18.353 43.9012 18.5375 44.7858L18.4521 44.8837C18.1447 44.7485 17.9651 44.6661 17.6699 44.474C17.729 43.9012 17.9987 44.1596 18.1082 43.1848C18.1227 43.1517 18.3584 42.8295 18.3945 42.7793Z" fill="#0D1823"/>
<path d="M25.0608 4.79132C24.8123 4.54944 24.563 4.38629 24.4219 4.0025C24.6703 3.80983 24.7955 3.92999 25.1163 3.98851L24.9757 4.2739C25.0291 4.49402 25.0142 4.48521 25.0972 4.66804L25.0608 4.79132Z" fill="#40322C"/>
<defs>
<linearGradient id="paint0_linear_4631_51484" x1="24.5784" y1="6.75023" x2="24.5551" y2="7.85302" gradientUnits="userSpaceOnUse">
<stop stop-color="#5E4F47"/>
<stop offset="1" stop-color="#81695E"/>
</linearGradient>
<linearGradient id="paint1_linear_4631_51484" x1="19.2815" y1="24.0031" x2="20.2202" y2="23.8729" gradientUnits="userSpaceOnUse">
<stop stop-color="#221B16"/>
<stop offset="1" stop-color="#4E3E38"/>
</linearGradient>
</defs>
</svg>
