<svg width="57" height="57" viewBox="0 0 57 57" fill="none" xmlns="http://www.w3.org/2000/svg">
<g clip-path="url(#clip0_4631_51301)">
<rect width="57" height="57" rx="28.5" fill="#F6F6FE"/>
<path d="M28.0376 3.2619C29.7357 2.96883 30.822 2.91772 32.4326 3.79803L32.2374 4.00411C30.8623 3.60065 28.8216 3.44895 27.7363 5.25579L27.751 5.49177C28.1583 5.80007 30.2174 5.67338 30.9058 5.73917C35.5743 6.18558 42.3699 9.13318 44.2845 17.5171C45.3681 22.2623 43.8919 25.5905 44.8309 30.0285C45.5307 33.3366 46.8982 35.5719 47.934 38.5668C48.0379 38.9159 48.2537 39.5809 48.3157 39.9289C48.7812 42.0745 48.7475 43.3561 47.6823 44.8508C48.5376 46.6642 50.302 50.9048 48.3929 52.6077C48.0993 53.1651 47.9085 53.2972 47.4958 53.5685L47.4599 53.3527C48.8203 51.2065 47.7497 48.3003 46.7683 46.3874C47.1326 49.8597 46.8569 52.816 44.7869 54.4244C44.478 54.6691 44.1991 54.9061 43.8669 54.6479C43.8696 55.5244 44.0126 57.1094 43.7646 57.8347C43.6771 58.0903 43.3014 58.0201 43.1317 58.0082H39.7823L38.5393 57.994L37.6682 58.0087L36.6004 58.0076L36.1887 57.9897L35.9141 58.0658L35.3405 57.9859C33.6924 58.0848 31.7937 58.0065 30.125 58.0027L30.0043 57.994L25.9001 58.0179L25.4505 58.0049L23.2842 58.0016L23.0841 58.0381C22.1413 57.9168 20.5226 58.0049 19.5297 58.0054C18.6157 57.9897 17.7016 57.9989 16.7876 58.0337L16.2983 58.0049L13.4355 58.0027C13.2218 57.4383 13.9634 54.4353 14.057 53.4043C13.4485 52.8829 12.9537 52.3049 12.5274 51.3865C12.1044 50.1789 12.1909 49.8254 12.2447 48.3845C11.235 50.883 10.9294 52.5604 12.6726 54.1476L12.8118 54.1357C11.6868 54.1286 10.8147 52.9481 10.2622 51.3327C10.2296 48.7434 10.5172 47.9028 11.3954 45.8594C10.7195 44.6268 10.6662 44.0874 10.8815 42.4763L10.9707 42.0842C11.1001 41.3306 11.3611 40.4677 11.6042 39.8033C13.2789 34.6383 14.1608 35.1407 14.5529 28.238C13.5018 25.653 13.4899 24.0778 13.6769 21.0791C12.8183 24.2094 12.1898 26.6318 13.9162 29.1612C13.6209 28.9323 13.2142 28.6224 12.9706 28.2766C10.5966 24.9016 13.3153 17.6209 14.7535 14.7478C17.3618 9.53827 21.8667 6.44712 25.7778 6.01322C25.693 5.30962 25.675 5.08505 25.9056 4.48151C26.3672 3.98127 26.4596 3.91221 26.9887 3.63436C27.3253 3.42231 27.6809 3.35869 28.0376 3.2619Z" fill="#F48D9D"/>
<path d="M18.5367 29.7549L18.7536 30.1404L19.0048 30.5417L18.9842 30.7325L19.0146 31.2175C19.3686 33.0026 19.8009 34.1439 20.8693 34.9166C22.351 35.9894 25.3611 37.9735 26.7966 38.3911C27.8596 38.7005 31.147 36.967 32.2427 36.333L32.414 36.5326C32.5912 37.0834 32.1921 39.1104 32.6804 40.0152L33.2453 40.8189L33.3019 40.8635L33.8619 40.1425L33.9701 40.1354L34.1164 39.7787C34.4366 39.5188 34.5927 39.6101 34.9624 39.6683L35.0919 39.7162C35.1408 39.9266 35.1914 40.0745 35.2017 40.2849C34.6525 41.6464 34.2545 42.3359 33.5438 43.4609C33.1616 44.1574 32.7119 44.6973 32.2247 45.1541L32.5124 45.3694C32.8516 45.1155 33.1447 44.8605 33.4732 44.575L33.3867 45.1699C33.1784 45.5385 33.1143 45.6473 32.875 45.9469C32.4765 46.6858 31.9539 47.08 31.4363 47.5378C33.0034 47.08 33.6047 46.8359 34.9989 45.5706C35.9205 44.5777 36.4512 43.742 37.2597 42.4762C37.6463 42.0145 37.7801 41.3534 38.1232 41.1533C37.7143 42.8595 37.4848 43.4304 36.7894 44.8338C37.7796 43.7279 38.1749 42.7497 38.8322 41.0804L38.9426 41.2974C39.0823 40.8895 39.0655 40.8694 39.2917 40.6209C39.4331 40.9798 39.5516 41.2848 39.6788 41.6584C39.9485 42.0608 40.5521 42.1744 40.9234 42.4251L41.2176 42.6594C41.6482 42.7676 42.1273 43.164 42.5046 43.5316C44.6051 47.1779 43.7041 50.2707 43.871 54.4912L43.8662 54.6494C43.8689 55.5259 44.0119 57.1109 43.7639 57.8362C43.6764 58.0918 43.3007 58.0216 43.131 58.0097H39.7816L38.5386 57.9955L37.6675 58.0102L36.5996 58.0091L36.188 57.9912L35.9134 58.0673L35.3398 57.9874C33.6917 58.0863 31.793 58.008 30.1243 58.0042L30.0036 57.9955L25.8994 58.0195L25.4498 58.0064L23.2835 58.0032L23.0834 58.0396C23.5853 56.8738 23.6755 56.6694 23.8691 55.3247L23.8707 55.0963C23.75 54.7358 23.6032 54.4254 23.6244 54.0366C23.6869 53.675 23.7049 53.8349 23.613 53.5363L23.3825 53.4249C23.7266 53.2938 24.1464 53.0541 23.9936 52.3282C23.657 51.9399 23.346 51.7589 22.9719 51.4973L22.9632 51.344C23.7647 51.512 24.2155 52.5527 24.7445 52.4179C24.8196 51.9775 24.6738 51.518 24.5743 51.0634L24.4096 50.5556C23.0394 49.6421 21.3211 48.5465 20.2418 46.862C20.0863 46.5923 19.9428 46.2883 19.7981 45.9985L19.8019 45.8767C20.2489 45.8321 20.2098 45.9681 20.4512 45.5603C20.1652 45.1851 19.8982 44.8936 19.6883 44.3961C19.7236 44.0813 19.6742 42.8448 19.6758 42.3767L19.6823 42.1815L19.5736 41.9901L19.4121 41.9243C19.1196 41.8781 19.225 41.9928 19.0527 41.6796L18.964 41.778L18.9363 42.4887C18.8221 42.145 18.7177 41.7922 18.6106 41.442C18.6574 41.3757 18.7041 41.3093 18.7514 41.2435L18.7145 40.7264L18.6014 40.274C18.5307 39.6167 18.4497 38.9625 18.3583 38.3128C18.3388 36.0818 18.3551 32.4513 18.1512 30.3851L18.1484 30.2818C18.3605 30.1192 18.3708 30.0501 18.5367 29.7549Z" fill="#452120"/>
<path d="M33.6128 51.6357C33.6482 51.6292 33.6841 51.6221 33.72 51.615C34.9385 50.3546 35.8835 47.6903 37.1585 46.4859C38.3722 45.3397 39.6951 43.9206 41.0773 43.7036C41.565 43.6275 42.2332 44.2528 42.6856 44.5372C43.0206 44.7569 43.3523 46.1831 43.4469 46.7959C44.051 50.7021 43.5116 54.2712 43.1315 58.0094H39.7821L38.5391 57.9952L37.668 58.0099L36.6001 58.0088L36.1885 57.9909L35.9139 58.067L35.3403 57.9871C33.6922 58.086 31.7935 58.0078 30.1247 58.0039C30.1057 56.4679 29.7681 56.3842 29.4043 55.1771C29.593 53.9145 31.2954 54.4365 31.7114 53.4159C32.4498 52.7944 32.9043 52.3817 33.6128 51.6357Z" fill="#303C55"/>
<path d="M38.5391 57.9955C39.179 56.6373 40.9348 52.83 41.5595 51.7295C41.7362 52.0731 41.7754 52.8936 41.8173 53.4113C41.4247 55.3899 40.627 56.5285 39.7821 58.0097L38.5391 57.9955Z" fill="#2E3445"/>
<path d="M35.3401 57.9847C35.2835 57.5236 35.0845 56.6977 35.059 56.2746C34.9921 55.1795 35.4793 51.0564 35.8066 50.293L35.9453 50.2941C35.9926 50.4246 36.0393 50.555 36.0866 50.6855C36.0323 52.2423 35.7789 53.4787 35.774 55.0849V55.3399C35.6071 55.8233 35.7876 57.5551 35.9137 58.0646L35.3401 57.9847Z" fill="#2E3445"/>
<path d="M36.5996 58.0097C36.9438 57.3817 38.8387 53.3417 38.9176 53.2949C39.0839 54.3411 38.0481 57.1288 37.6675 58.0108L36.5996 58.0097Z" fill="#2E3445"/>
<path d="M35.7744 55.3403L35.9049 55.5823C36.5878 53.1007 36.7096 52.2769 37.7433 50.1602L37.7862 50.1661C37.5589 50.9002 37.4872 51.2313 37.1778 51.8718C36.4258 53.4275 36.0006 56.0483 36.1887 57.9889L35.9141 58.065C35.788 57.5555 35.6075 55.8237 35.7744 55.3403Z" fill="#252932"/>
<path d="M39.1798 46.7904L39.2037 46.7822L39.251 46.873L39.0645 47.3107C38.4131 48.8136 39.1705 50.6618 38.2788 52.2343C38.2418 51.3866 38.1162 50.4949 38.1396 49.6483C38.17 48.5303 38.7285 47.507 39.1798 46.7904Z" fill="#2E3445"/>
<path d="M40.4685 44.6748C40.6855 44.976 40.8481 45.2251 40.9351 45.7057C41.115 46.7019 40.8921 47.5582 40.6121 48.4081L40.5506 48.4348C40.4305 47.5708 40.0776 46.3256 40.1303 45.4545C40.1581 44.9967 40.275 44.9385 40.4685 44.6748Z" fill="#2E3445"/>
<path d="M32.4136 36.5342C32.5909 37.085 32.1918 39.112 32.6801 40.0168L33.245 40.8205L33.0183 41.0021C32.5164 41.6649 31.8808 42.4702 31.4066 43.171L31.2799 43.27L30.8776 43.817C30.721 44.0367 29.901 45.1628 29.8216 45.3482C28.9522 46.6107 28.5373 45.4607 27.2758 45.3096L27.1856 45.3003C26.5331 44.8865 25.0416 45.1475 24.3489 45.3503L24.2266 45.309C24.2456 44.6087 24.3179 43.9513 24.3832 43.2591C24.4734 42.4316 24.4984 42.1945 24.6871 41.3941C25.0666 41.1516 25.5 40.9347 25.8899 40.7221L26.1335 40.6911C26.0823 40.1576 25.929 38.881 25.9779 38.4171C26.2259 38.4231 26.2003 38.5172 26.4445 38.8701C27.3193 38.6602 27.6793 38.664 28.5585 38.3176C29.6694 37.8799 31.3615 36.8044 32.4136 36.5342Z" fill="#ECA08C"/>
<path d="M25.575 43.8362C26.7288 43.2909 28.2981 43.1788 29.5813 42.2191C30.3474 41.646 31.7889 40.2133 32.5316 40.2943C32.8274 40.5162 32.8231 40.5694 33.0183 40.9985C32.5164 41.6613 31.8808 42.4665 31.4066 43.1674L31.2799 43.2664L30.8776 43.8134C30.721 44.0331 29.901 45.1591 29.8216 45.3446C28.9522 46.6071 28.5373 45.4571 27.2758 45.3059L27.1856 45.2967C26.5331 44.8829 25.0416 45.1439 24.3489 45.3467L24.2266 45.3054C24.2456 44.6051 24.3179 43.9477 24.3832 43.2555C25.0906 43.4643 24.9992 43.5383 25.575 43.8362Z" fill="#FDD4CE"/>
<path d="M30.8783 43.8146C30.2057 43.4215 28.5864 44.4257 27.916 44.665L27.9709 44.5024C28.6316 43.7798 30.4259 43.4731 31.2807 43.2676L30.8783 43.8146Z" fill="#D8AC8F"/>
<path d="M24.3832 43.2549C25.0906 43.4637 24.9992 43.5376 25.575 43.8356L25.8192 44.1597C25.6077 44.2516 25.3314 43.5278 24.6469 43.8802C24.3489 44.3663 24.369 44.593 24.3489 45.3461L24.2266 45.3048C24.2456 44.6044 24.3179 43.9471 24.3832 43.2549Z" fill="#BD856C"/>
<path d="M25.8906 40.7185L26.1342 40.6875C26.0951 41.0806 26.0956 41.0344 26.0124 41.4134L25.9347 41.3335L25.8906 40.7185Z" fill="#AD7356"/>
<path d="M33.8621 40.1409L33.9703 40.1338L34.1166 39.7771C34.4368 39.5172 34.5929 39.6086 34.9626 39.6667L35.092 39.7146C35.141 39.925 35.1916 40.0729 35.2019 40.2833C34.6527 41.6449 34.2547 42.3343 33.544 43.4593C33.1618 44.1558 32.7121 44.6958 32.2249 45.1525L32.5125 45.3678C32.8518 45.1139 33.1449 44.8589 33.4733 44.5734L33.3869 45.1683C33.1786 45.5369 33.1145 45.6457 32.8752 45.9453C32.4767 46.6842 31.9541 47.0784 31.4365 47.5363C33.0036 47.0784 33.6049 46.8343 34.9991 45.569C35.6097 45.5516 35.9952 44.897 36.397 44.9203C36.1377 45.8311 35.5629 45.7387 35.129 46.3058L34.7022 46.5059C34.3004 46.6891 33.1188 47.6678 32.5555 47.9903C30.896 48.9386 29.3241 49.6759 27.6233 50.3593C27.3998 50.2577 27.3394 50.1815 27.1366 49.9961C27.0551 49.0054 29.7003 46.3841 29.8221 45.345C29.9015 45.1596 30.7215 44.0335 30.8781 43.8138L31.2804 43.2668L31.4071 43.1679C31.8813 42.467 32.5169 41.6617 33.0188 40.9989L33.2455 40.8173L33.3021 40.8619L33.8621 40.1409Z" fill="#303C55"/>
<path d="M33.8612 40.1409L33.9694 40.1338L34.1157 39.7771C34.4359 39.5172 34.592 39.6086 34.9617 39.6667L35.0912 39.7146C35.1401 39.925 35.1907 40.0729 35.201 40.2833C34.6518 41.6449 34.2538 42.3343 33.5431 43.4593C33.5524 43.3984 33.6889 42.9439 33.709 42.871C33.2185 42.5344 31.9446 43.0243 31.4062 43.1679C31.8804 42.467 32.516 41.6617 33.0179 40.9989L33.2446 40.8173L33.3012 40.8619L33.8612 40.1409Z" fill="#2E3445"/>
<path d="M32.5137 45.3686C32.853 45.1147 33.1461 44.8597 33.4745 44.5742L33.388 45.1691C33.1798 45.5377 33.1156 45.6465 32.8764 45.9461C32.4838 45.5404 32.25 45.6856 31.7617 45.7639L32.5137 45.3686Z" fill="#40322C"/>
<path d="M32.2249 45.1543L32.5125 45.3696L31.7605 45.7649L31.1836 45.7095L32.2249 45.1543Z" fill="#C47483"/>
<path d="M18.5176 32.2474C18.8128 32.1572 19.0542 32.7558 19.1831 33.1451C19.5616 33.9341 19.8046 34.3267 20.3244 34.8737C20.2766 36.2782 20.1907 36.8899 19.99 38.2345C19.8758 39.0023 19.3 40.7977 19.3321 41.1908C19.8573 40.6514 20.4065 36.2602 20.4729 35.0237C21.2504 35.6099 21.9181 36.0465 22.7114 36.5457C22.6456 38.3019 22.4787 39.0262 22.0704 40.6525C22.0263 40.8271 22.041 40.7841 22.0301 41.0163C21.6147 41.1664 19.6752 41.7335 19.4126 41.9238C19.12 41.8776 19.2255 41.9923 19.0532 41.6791L18.9645 41.7775L18.9368 42.4882C18.8226 42.1445 18.7182 41.7917 18.6111 41.4415C18.6579 41.3752 18.7046 41.3088 18.7519 41.243L18.7149 40.7259C18.7427 39.9147 18.554 38.1426 18.5263 37.1579C18.4773 35.4283 18.4926 33.9689 18.5176 32.2474Z" fill="#C4545E"/>
<path d="M18.5176 32.2474C18.8128 32.1572 19.0542 32.7558 19.1831 33.1451C18.9058 33.2669 18.9384 33.3991 18.622 33.5589C18.6078 33.0282 18.5959 32.758 18.5176 32.2474Z" fill="#9E515E"/>
<path d="M19.6758 42.374L19.7889 43.1994L19.9113 43.2114C20.8873 43.3147 22.8773 43.9623 23.9686 43.9666C24.0056 44.0335 24.0426 44.1009 24.079 44.1684C24.0013 46.5907 24.1377 48.136 24.4096 50.5529C23.0394 49.6395 21.3212 48.5438 20.2418 46.8593C20.0863 46.5896 19.9428 46.2857 19.7982 45.9959L19.802 45.8741C20.2489 45.8295 20.2098 45.9654 20.4512 45.5576C20.1652 45.1824 19.8982 44.891 19.6883 44.3935C19.7237 44.0786 19.6742 42.8422 19.6758 42.374Z" fill="#303C55"/>
<path d="M20.4519 45.5596C20.69 45.7129 21.0663 45.9255 21.2631 46.1555L21.5203 46.2545C21.156 46.8205 20.7134 46.9222 20.2425 46.8613C20.087 46.5916 19.9435 46.2876 19.7988 45.9978L19.8026 45.876C20.2496 45.8314 20.2104 45.9674 20.4519 45.5596Z" fill="#2E3445"/>
<path d="M20.4519 45.5596C20.69 45.7129 21.0663 45.9255 21.2631 46.1555C20.7667 46.2246 20.2942 46.0957 19.7988 45.9978L19.8026 45.876C20.2496 45.8314 20.2104 45.9674 20.4519 45.5596Z" fill="#DF878F"/>
<path d="M40.7144 42.5283C40.9308 42.711 41.2146 42.8589 41.2772 43.1678C40.6426 43.6256 39.808 43.8627 39.2224 44.3379C36.9098 46.2165 34.7414 48.4366 32.2625 49.6524C32.0298 49.7666 31.6002 50.1064 31.4306 49.9966L31.3354 49.7758C30.8357 50.102 30.472 50.5577 29.9212 50.8209C28.7462 51.3809 27.5869 51.7512 26.4315 52.4314C26.1607 51.9932 26.2558 52.1296 25.8203 52.0214L26.0938 51.4864C26.6376 50.661 26.9208 50.6447 27.6239 50.3592C29.3247 49.6758 30.8966 48.9384 32.5561 47.9902C33.1194 47.6677 34.301 46.689 34.7028 46.5058L35.1296 46.3057C35.3194 46.2703 35.5489 46.2138 35.7354 46.2073C35.9344 46.1273 36.6744 45.3791 36.8555 45.154C37.0583 45.0311 37.9217 44.2574 38.1392 44.0589C39.1245 43.1591 39.6291 42.941 40.7144 42.5283Z" fill="#303C55"/>
<path d="M35.1296 46.3045C35.3193 46.2691 35.5488 46.2126 35.7353 46.2061C33.7936 47.9085 32.3968 48.7948 30.2805 49.6936C29.783 49.9051 27.2796 50.9572 26.9909 51.1981L26.302 51.5157L26.0938 51.4852C26.6375 50.6598 26.9208 50.6435 27.6238 50.358C29.3246 49.6746 30.8966 48.9373 32.5561 47.989C33.1194 47.6665 34.3009 46.6878 34.7027 46.5046L35.1296 46.3045Z" fill="#F8F2EA"/>
<path d="M26.3008 51.5168L26.9897 51.1992C26.782 51.7647 26.9185 51.6195 26.6254 51.8011C26.4498 51.6761 26.4547 51.6989 26.3008 51.5168Z" fill="#2F395A"/>
<path d="M24.3489 45.3488C25.0416 45.146 26.5331 44.885 27.1856 45.2988C27.5591 45.8061 28.6999 45.5674 28.9332 46.3825C28.7983 46.9344 28.5504 47.1144 28.2834 47.4906C27.2432 48.9544 26.1585 50.8156 25.2319 52.4925C24.5664 50.4486 24.2005 47.906 24.3908 45.5631L24.2266 45.3075L24.3489 45.3488Z" fill="#303C55"/>
<path d="M34.0777 48.8642C34.4948 48.8484 34.5524 48.7152 34.8194 49.0436L34.8999 49.5259C34.4578 50.2931 34.0821 50.9184 33.6128 51.6329C32.9044 52.3789 32.4498 52.7916 31.7114 53.4131C30.3461 54.1624 27.8204 54.3875 26.6035 53.4033L26.6633 53.2331C26.8357 53.2217 27.7481 52.8041 28.0335 52.7035L28.0863 52.4811C28.6425 51.9695 28.7127 51.6182 29.3711 51.3148C30.3363 50.8706 31.3117 50.3828 32.2714 49.9125C32.8946 49.5803 33.4698 49.2818 34.0777 48.8642Z" fill="#C4545E"/>
<path d="M28.0332 52.7041L28.0859 52.4817C28.6422 51.97 28.7123 51.6188 29.3708 51.3154C30.3359 50.8711 31.3114 50.3834 32.2711 49.9131C30.6796 52.0657 30.0178 52.2109 28.0332 52.7041Z" fill="#752213"/>
<path d="M25.8705 54.0671L25.8298 53.88C26.1913 53.482 27.0244 53.7566 27.4512 53.9225C28.8508 54.4673 29.625 55.6956 30.0046 57.9945L25.9004 58.0184C25.6552 57.4296 25.6057 57.2501 25.4355 56.5835C25.4421 55.7674 25.4627 55.632 25.6014 54.8474C25.6835 54.4618 25.7313 54.4037 25.8705 54.0671Z" fill="#C4545E"/>
<path d="M25.8707 54.0674C26.4607 54.5355 27.465 55.2576 27.7211 56.3886L27.6629 56.6278C27.0561 56.9693 25.9061 55.7426 25.6016 54.8476C25.6837 54.4621 25.7315 54.404 25.8707 54.0674Z" fill="#752213"/>
<path d="M22.6724 40.7441C23.2422 40.7675 23.9763 40.1878 24.5434 39.8398L24.6527 40.0927C24.5755 40.5282 24.5156 40.7724 24.4879 41.2264C24.4874 41.2606 24.1002 44.0669 24.079 44.1718C24.0426 44.1044 24.0056 44.037 23.9686 43.9701C22.8774 43.9657 20.8873 43.3181 19.9113 43.2148L19.7889 43.2029L19.6758 42.3775L19.6823 42.1823L19.5736 41.9909L19.4121 41.9251C19.6747 41.7348 21.6143 41.1677 22.0297 41.0176L22.1101 40.9975C22.3429 40.8371 22.5016 40.6266 22.6724 40.7441Z" fill="#2E3445"/>
<path d="M22.8902 36.6465C23.7357 37.1255 24.5779 37.6279 25.4414 38.0015C25.5643 38.4403 25.6241 38.7344 25.7187 39.1961L25.5578 39.3586C24.5111 39.3239 23.7373 40.1612 22.6716 40.743C22.5009 40.6256 22.3421 40.836 22.1094 40.9964C22.596 38.953 22.6607 39.0248 22.8902 36.6465Z" fill="#9E515E"/>
<path d="M23.6334 57.3554C23.7688 56.7649 23.8993 55.7573 24.1385 55.4278C24.4881 55.1837 24.9731 55.1734 25.3413 55.2772C25.3157 56.0868 25.2537 55.9433 25.4342 56.5816C25.6044 57.2483 25.6539 57.4277 25.8991 58.0166L25.4495 58.0035L23.2832 58.0002L23.6334 57.3554Z" fill="#2E3445"/>
<path d="M23.6334 57.3557C24.0249 57.1061 24.6001 56.4939 24.8584 56.5406C25.1885 56.9033 25.1346 57.372 25.4495 58.0038L23.2832 58.0006L23.6334 57.3557Z" fill="#303C55"/>
<path d="M36.8555 45.1541C37.7619 43.4157 39.3344 41.7872 40.7144 42.5284C39.6291 42.941 39.1245 43.1591 38.1392 44.059C37.9217 44.2574 37.0583 45.0312 36.8555 45.1541Z" fill="#B1ACA4"/>
<path d="M24.5437 39.8407C24.9418 39.5982 25.3196 39.3535 25.716 39.6977L25.797 39.9544C25.4284 40.7868 25.0723 40.0778 24.4883 41.2272C24.516 40.7732 24.5758 40.5291 24.653 40.0936L24.5437 39.8407Z" fill="#252932"/>
<path d="M34.0781 48.8669C34.6219 48.5118 35.1602 48.1328 35.693 47.7305L35.773 47.818C35.4706 48.6162 35.239 48.8691 34.9003 49.5286L34.8198 49.0463C34.5528 48.7179 34.4952 48.8511 34.0781 48.8669Z" fill="#B03922"/>
<path d="M26.4321 52.4354C26.1471 52.6496 25.8677 52.8801 25.5566 52.711C25.5594 52.3397 25.611 52.3864 25.8209 52.0254C26.2564 52.1336 26.1613 51.9971 26.4321 52.4354Z" fill="#2E3445"/>
<path d="M38.9434 41.2975C39.0831 40.8897 39.0663 40.8696 39.2924 40.6211C39.4338 40.98 39.5523 41.285 39.6796 41.6586C39.3533 41.6564 39.2087 41.6308 38.9434 41.2975Z" fill="#9E515E"/>
<path d="M18.5367 29.7549L18.7536 30.1404L19.0048 30.5417L18.9842 30.7325C18.7237 30.6428 18.4138 30.496 18.1512 30.3851L18.1484 30.2818C18.3605 30.1192 18.3708 30.0501 18.5367 29.7549Z" fill="#F48D9D"/>
<path d="M24.2235 52.7995C24.7906 52.7832 25.299 52.8887 25.8541 53.0714C25.6671 53.6597 25.4898 54.2573 25.3235 54.8641C24.9374 54.7537 24.3398 54.7591 24.0299 54.3236C23.8575 54.0811 23.8662 53.9876 23.8516 53.632C23.9494 53.2144 24.0169 53.0746 24.2235 52.7995Z" fill="#C4545E"/>
<path d="M18.4844 30.7227L18.647 30.8292C18.8454 31.1495 18.8802 31.7123 18.9417 32.1576L18.592 31.8977C18.4577 31.5035 18.4904 31.175 18.4844 30.7227Z" fill="#ECA08C"/>
<path d="M31.3286 18.1367L32.08 19.396L32.4829 19.4243L32.7434 19.9903C33.161 21.1583 33.5041 21.8162 34.0804 22.7672L34.2664 23.0744L34.2321 23.2761C34.3931 23.3463 34.4072 23.3686 34.5709 23.3827L34.6867 23.3724L34.8253 23.4985C35.2582 23.6633 35.8552 24.0934 36.2043 24.1396L36.3565 24.1657L36.2527 24.3794C36.5185 24.9971 36.8018 25.3429 37.1205 25.8654L37.0878 26.0465L37.1139 26.8626L37.1156 26.9844C37.1308 29.1828 35.735 30.9178 34.6405 31.573C35.4523 31.3256 36.0189 31.1223 36.7768 30.5198L36.6055 32.1592C35.1989 34.4907 34.0358 35.1177 32.2426 36.3335C31.147 36.9675 27.8595 38.7009 26.7965 38.3915C25.361 37.9739 22.3509 35.9898 20.8692 34.917C19.8008 34.1444 19.3685 33.0031 19.0145 31.218L18.9841 30.733L19.0048 30.5421L18.7536 30.1408L18.8656 30.0897C18.6073 28.7048 18.1853 27.6777 17.8379 26.3439L18.1777 26.3531L18.1157 26.0356C18.5687 24.8144 18.2783 24.766 19.2375 24.0624C19.8089 23.6437 19.3794 23.5181 20.1814 23.5703L20.4837 23.3892C20.6218 22.2653 20.8078 21.1604 21.041 20.0844C21.6218 20.0806 22.0089 20.0387 22.576 20.247L22.7158 20.297C23.415 22.8281 23.831 23.6616 25.1533 25.3037C24.4753 23.48 24.4552 23.1527 24.1893 20.9897C24.7684 22.4225 24.9451 22.9194 25.7547 23.9596L25.8863 23.8237C26.1652 24.0847 26.4344 24.2511 26.5611 24.7355C26.8155 25.0542 27.1113 25.2091 27.4218 25.3059L27.5153 25.1477C27.8013 25.0754 28.0319 25.3728 28.3212 25.4881C28.4674 25.5653 28.45 25.5408 28.6083 25.5457C28.6289 25.0944 28.2929 24.1385 28.1499 23.6589L28.5071 22.6971C28.8154 22.3697 28.7986 22.0065 29.1281 21.8244C29.0639 23.1772 29.022 23.7949 28.6322 25.0063C29.5837 23.5774 30.2237 21.6917 30.9017 19.8691L30.9664 19.5689L31.3286 18.1367Z" fill="#F9E1CC"/>
<path d="M34.081 22.7666L34.2669 23.0738L34.2327 23.2755C34.3936 23.3457 34.4078 23.368 34.5714 23.3821L34.6873 23.3718L34.8259 23.4979C35.2587 23.6627 35.8558 24.0928 36.2048 24.139L36.3571 24.1651L36.2532 24.3788C36.5191 24.9965 36.8024 25.3423 37.121 25.8648L37.0884 26.0459L37.1145 26.862L37.1161 26.9838C36.6975 27.5189 36.4609 27.8549 35.9748 28.2159C35.5437 28.7716 34.5981 29.4595 34.0794 29.3442L33.9179 29.3464C33.6493 29.6329 33.5731 29.5851 33.2599 29.5655C33.0577 29.3393 33.0115 29.4176 32.7303 29.3975C32.3726 29.4312 32.5341 29.4948 32.2247 29.2268C30.743 28.9261 30.5717 27.434 30.898 25.3026L30.6777 24.9715C30.7756 24.786 30.8996 24.611 31.01 24.4424C31.8528 23.2995 32.1709 23.275 33.205 23.1336C33.5041 22.7971 33.7129 23.2962 34.081 22.7666Z" fill="#2C1D15"/>
<path d="M30.8973 25.3049C31.2333 24.9455 31.7085 24.4474 32.1054 24.6796C31.3056 26.0156 31.1941 27.4032 31.9896 28.8517L32.218 29.1323L32.224 29.229C30.7423 28.9284 30.571 27.4363 30.8973 25.3049Z" fill="#F8F2EA"/>
<path d="M35.3551 25.4756C35.7727 25.9399 35.9136 26.2482 36.242 26.8676C36.1664 27.5108 36.1686 27.6723 35.9756 28.2155C35.5444 28.7712 34.5988 29.459 34.0801 29.3437L34.1372 29.1991L34.452 28.9414C35.2942 28.1339 35.4976 27.0421 35.3551 25.4756Z" fill="#F8F2EA"/>
<path d="M31.9901 28.8492C31.8384 27.9331 31.8547 26.5242 32.6007 26.5482L32.6284 26.7847C32.6659 27.112 32.6735 27.3175 32.754 27.6182L32.9454 27.9037V28.088C32.604 28.3925 32.573 28.2914 32.4381 28.7633C32.5403 29.1456 32.542 29.1189 32.7301 29.3973C32.3723 29.4311 32.5338 29.4947 32.2244 29.2266L32.2184 29.1298L31.9901 28.8492Z" fill="#752213"/>
<path d="M32.7536 27.6172L32.945 27.9026V28.087C32.6035 28.3915 32.5725 28.2903 32.4377 28.7623C32.5399 29.1446 32.5415 29.1179 32.7296 29.3963C32.3719 29.43 32.5334 29.4936 32.224 29.2256L32.218 29.1288C32.2202 28.7427 32.0522 28.8286 32.1228 28.0609C32.3077 27.7297 32.4882 27.7194 32.7536 27.6172Z" fill="#C4545E"/>
<path d="M32.9448 28.085C33.3668 28.2122 33.5598 28.2595 33.8213 28.8837L33.917 29.3432C33.6484 29.6297 33.5723 29.5819 33.2591 29.5623C33.0568 29.3361 33.0106 29.4144 32.7295 29.3943C32.5413 29.1159 32.5397 29.1425 32.4375 28.7603C32.5723 28.2883 32.6033 28.3895 32.9448 28.085Z" fill="#ECA08C"/>
<path d="M33.2598 29.5643C33.3941 29.3773 33.6703 29.0668 33.822 28.8857L33.9177 29.3452C33.6491 29.6317 33.573 29.5839 33.2598 29.5643Z" fill="#C4545E"/>
<path d="M33.7348 27.7168C34.0241 27.75 34.0475 27.719 34.3063 27.9653C34.4368 28.5563 34.3297 28.6841 34.1361 29.199L34.079 29.3437L33.9175 29.3458L33.8218 28.8864C33.5603 28.2622 33.3673 28.2149 32.9453 28.0876V27.9033C33.2917 28.1077 33.439 27.9974 33.7348 27.7168Z" fill="#C4545E"/>
<path d="M33.888 26.4814C34.6667 27.0997 34.8417 27.5086 34.4524 28.9419L34.1376 29.1996C34.3312 28.6847 34.4383 28.5569 34.3078 27.9658C34.049 27.7195 34.0256 27.7505 33.7363 27.7174C33.7902 27.3068 33.8407 26.8947 33.888 26.4814Z" fill="#752213"/>
<path d="M32.6289 26.7848C32.9252 27.1334 33.0829 27.2873 33.4374 27.2476C33.7131 27.0524 33.7311 26.9186 33.8871 26.4814C33.8398 26.8947 33.7892 27.3068 33.7354 27.7174C33.4396 27.9979 33.2923 28.1083 32.9459 27.9039L32.7545 27.6184C32.674 27.3177 32.6664 27.1122 32.6289 26.7848Z" fill="#362116"/>
<path d="M32.7499 24.0732C32.533 24.3087 32.3492 24.5403 32.1061 24.6779C31.7092 24.4457 31.234 24.9438 30.898 25.3032L30.6777 24.972C30.7756 24.7866 30.8996 24.6115 31.01 24.443L31.3041 24.6534C31.7788 24.3179 32.2437 24.2027 32.7499 24.0732Z" fill="#D1C9BF"/>
<path d="M31.01 24.4404L31.3041 24.6509C31.128 24.7422 30.8479 24.9031 30.6777 24.9695C30.7756 24.7841 30.8996 24.609 31.01 24.4404Z" fill="#5B483D"/>
<path d="M35.3532 25.4756C35.1558 25.1505 35.2069 25.3386 35.1602 24.9248C35.7664 25.0216 36.134 25.897 36.24 26.8676C35.9116 26.2483 35.7708 25.94 35.3532 25.4756Z" fill="#D1C9BF"/>
<path d="M34.081 22.7666L34.267 23.0738L34.2327 23.2755C33.9147 23.2059 33.5302 23.1749 33.2051 23.1336C33.5041 22.7971 33.7129 23.2962 34.081 22.7666Z" fill="#F8F2EA"/>
<path d="M33.3363 26.1571C32.885 25.6662 32.6925 26.3023 32.1602 25.8445L32.1629 25.5748C32.6299 24.4721 33.2378 24.2448 33.9436 24.7799C34.2758 25.1279 34.2595 24.9914 34.4047 25.4987C34.2715 26.0745 34.0801 26.0207 33.7452 26.05L33.4418 26.1746L33.3363 26.1571Z" fill="#2E3445"/>
<path d="M33.9448 24.7822C34.277 25.1302 34.2607 24.9937 34.4059 25.501C34.2727 26.0769 34.0813 26.023 33.7463 26.0524C33.4429 25.7332 33.5413 25.9437 33.3945 25.4701C33.5805 24.9845 33.5952 25.0884 33.9448 24.7822Z" fill="#FFFCF9"/>
<path d="M20.4852 23.3857C21.0441 23.3536 21.3633 23.3357 21.9223 23.4238C22.3839 23.6255 22.7971 23.7962 23.2066 24.2519C23.3789 24.7685 23.6198 24.8538 23.7585 25.3242L23.566 25.2459C23.7362 26.6068 24.0825 26.864 23.6916 28.3419L23.4306 28.9438C23.2484 29.0999 23.1451 29.195 22.9516 29.3185C22.6721 29.3946 22.4899 29.3467 22.2811 29.4022C22.0663 29.5506 22.1718 29.524 21.9565 29.4451L21.5232 29.2978C20.8587 29.5441 19.893 28.5077 19.3395 27.9091C18.9159 27.6611 18.4994 26.8912 18.1792 26.3496L18.1172 26.0321C18.5701 24.8109 18.2798 24.7625 19.2389 24.0589C19.8104 23.6402 19.3808 23.5146 20.1828 23.5668L20.4852 23.3857Z" fill="#2C1D15"/>
<path d="M21.3697 26.6671C21.5203 26.6279 21.821 26.4686 21.9803 26.3936L22.0624 27.4756L22.2799 27.2527C22.4387 27.2554 22.4795 27.2826 22.629 27.3549L22.7883 27.4332C23.0216 27.1504 22.958 27.1646 23.0787 26.5985C23.487 27.0526 23.543 27.1396 23.6447 27.9438C23.6616 28.0764 23.6768 28.2096 23.6909 28.3429L23.4299 28.9448C23.2478 29.1008 23.1445 29.196 22.9509 29.3194C22.6714 29.3955 22.4893 29.3477 22.2805 29.4031C22.0657 29.5516 22.1712 29.5249 21.9559 29.4461L21.5225 29.2987L21.5143 29.1726C20.9472 28.7507 20.7961 28.4059 20.4258 27.5447C20.6547 27.2771 21.1147 26.7481 21.3697 26.6671Z" fill="#B03922"/>
<path d="M21.3697 26.6671C21.5203 26.6279 21.821 26.4686 21.9803 26.3936L22.0624 27.4756L22.2381 27.8133C21.821 27.8415 21.5067 27.9312 21.5616 28.854C21.7144 29.2123 21.7878 29.2036 22.0341 29.3575L21.9559 29.4461L21.5225 29.2987L21.5143 29.1726C20.9472 28.7507 20.7961 28.4059 20.4258 27.5447C20.6547 27.2771 21.1147 26.7481 21.3697 26.6671Z" fill="#752213"/>
<path d="M20.4258 27.5465C20.6547 27.279 21.1147 26.75 21.3697 26.6689C21.1908 27.167 21.0696 27.3791 21.0685 27.9369C21.1756 28.5253 21.2833 28.6813 21.5143 29.1745C20.9472 28.7525 20.7961 28.4078 20.4258 27.5465Z" fill="#4E3426"/>
<path d="M22.279 29.4056C22.068 29.0674 22.0218 29.0402 22.062 28.6003C22.3768 28.0403 22.7488 28.1501 23.0761 28.5764C23.1245 29.0603 23.1392 28.8129 22.9494 29.3219C22.6699 29.398 22.4878 29.3501 22.279 29.4056Z" fill="#ECA08C"/>
<path d="M22.0625 27.4757L22.28 27.2528C22.4388 27.2555 22.4796 27.2827 22.6291 27.355L22.7884 27.4333C23.0217 27.1505 22.958 27.1647 23.0787 26.5986C23.0923 27.2158 23.125 27.3457 22.9434 27.8356C22.6829 28.0749 22.5051 28.0537 22.2381 27.8133L22.0625 27.4757Z" fill="#362116"/>
<path d="M19.3386 25.5901C19.9617 25.024 20.2814 24.4732 20.9752 24.5466C20.568 25.1779 20.4636 25.2927 20.3086 26.1914C20.3287 26.8173 20.326 26.9549 20.4261 27.5454C20.7963 28.4066 20.9475 28.7514 21.5146 29.1733L21.5228 29.2995C20.8583 29.5458 19.8926 28.5094 19.3391 27.9107C19.0928 27.0239 19.0569 26.4465 19.3386 25.5901Z" fill="#F8F2EA"/>
<path d="M21.5119 24.127C21.7555 24.3684 21.7729 24.3379 22.0469 24.364C22.2296 24.5032 22.4134 24.6402 22.5977 24.7745C22.3047 25.0883 22.2329 25.0203 22.1595 25.6413L21.9627 25.9305C21.8811 26.0061 21.7109 26.179 21.6217 26.2301C21.7348 26.2747 21.8827 26.315 21.9806 26.3949C21.8213 26.4699 21.5206 26.6292 21.37 26.6684C21.115 26.7494 20.655 27.2785 20.426 27.546C20.326 26.9555 20.3287 26.8179 20.3086 26.1921C20.4636 25.2933 20.568 25.1785 20.9752 24.5473L21.4086 24.3428L21.5119 24.127Z" fill="#2E3445"/>
<path d="M20.3086 26.1903L20.4228 26.5019L20.5424 26.0941C20.7175 25.8897 20.6468 25.9408 20.8551 25.8848C21.1895 26.3904 21.5086 25.894 21.9627 25.9288C21.8811 26.0044 21.7109 26.1773 21.6217 26.2284C21.7348 26.273 21.8827 26.3132 21.9806 26.3932C21.8213 26.4682 21.5206 26.6275 21.37 26.6667C21.115 26.7477 20.655 27.2767 20.426 27.5443C20.326 26.9538 20.3287 26.8162 20.3086 26.1903Z" fill="#362116"/>
<path d="M21.5119 24.127C21.7555 24.3684 21.7729 24.3379 22.0469 24.364C21.3477 24.8099 21.2199 24.7778 20.8551 25.8865C20.6468 25.9425 20.7175 25.8914 20.5424 26.0958L20.4228 26.5036L20.3086 26.1921C20.4636 25.2933 20.568 25.1785 20.9752 24.5473L21.4086 24.3428L21.5119 24.127Z" fill="#2C1D15"/>
<path d="M22.5984 24.7744C22.9431 25.1414 22.9366 25.0028 23.0639 25.5253C22.9176 26.0696 22.7496 26.1115 22.4244 26.2501C22.3494 25.9337 22.3064 25.8728 22.1602 25.6411C22.2336 25.0202 22.3053 25.0882 22.5984 24.7744Z" fill="#FFFCF9"/>
<path d="M19.3379 25.5911C19.9208 24.4471 20.4346 24.303 21.2622 24.1475L21.4079 24.3432L20.9745 24.5477C20.2807 24.4742 19.961 25.0251 19.3379 25.5911Z" fill="#D1C9BF"/>
<path d="M21.9219 23.4252L21.8501 23.2327C21.4591 23.1365 21.6277 23.2752 21.3379 22.7613C21.8697 22.5862 23.4074 22.6901 23.4666 23.9385L23.2062 24.2533C22.7967 23.7977 22.3835 23.627 21.9219 23.4252Z" fill="#FDD4CE"/>
<path d="M23.6907 28.346C24.0816 26.8682 23.7353 26.611 23.5651 25.25L23.7576 25.3283C24.0952 25.9395 24.2344 26.2391 24.2377 27.1302C24.2377 27.6381 24.1224 28.1253 23.9158 28.4874C23.7499 28.7756 23.6483 28.8278 23.4297 28.948L23.6907 28.346Z" fill="#F8F2EA"/>
<path d="M31.3289 18.1367L32.0804 19.396C31.7384 19.4063 31.3137 19.5048 30.9668 19.5689L31.3289 18.1367Z" fill="#F9E1CC"/>
<path d="M32.4835 19.4218L32.744 19.9879C31.924 19.8285 31.7935 19.7731 30.9023 19.8666L30.967 19.5665C31.314 19.5023 31.7386 19.4039 32.0806 19.3936L32.4835 19.4218Z" fill="#9A897F"/>
<path d="M18.8659 30.0879C19.0796 30.3152 19.3906 30.6001 19.5385 30.9198L19.4901 30.7969L19.5532 30.9247C19.3227 30.9535 19.1519 30.8665 19.0149 31.2161L18.9845 30.7311L19.0051 30.5403L18.7539 30.139L18.8659 30.0879Z" fill="#9A897F"/>
<path d="M25.8874 23.8223C26.1664 24.0833 26.4355 24.2496 26.5622 24.7341C26.1685 24.4922 26.1055 24.3845 25.7559 23.9582L25.8874 23.8223Z" fill="#DF878F"/>
<path d="M21.2034 30.4805L21.3617 30.574C21.3497 30.9807 21.0218 31.5065 20.868 31.8452L20.7092 31.705C20.7086 31.6604 20.7054 31.6153 20.7081 31.5707C20.7342 31.1003 21.0066 30.7605 21.2034 30.4805Z" fill="#FDD4CE"/>
<path d="M29.3372 33.374L29.4242 33.4936L29.329 33.6883C28.8103 34.0635 28.2399 34.2005 27.6799 34.1592L27.6543 34.1527C27.793 34.1097 27.9311 34.0619 28.0697 34.0211C28.5324 33.8857 28.9065 33.6791 29.3372 33.374Z" fill="#B7A89C"/>
<path d="M31.5563 22.6628C31.6993 22.6579 31.8395 22.6807 31.9815 22.697C31.8879 22.8982 31.447 23.0467 31.286 23.1299C31.1414 23.2511 30.9957 23.3446 30.8439 23.4371L30.7988 23.3289C31.0495 22.9455 31.2349 22.8161 31.5563 22.6628Z" fill="#D8AC8F"/>
<path d="M34.0171 30.79L34.0981 31.1174C34.0078 31.5382 33.7392 31.7356 33.5288 31.9634L33.5195 31.6535C33.631 31.2636 33.8229 31.0499 34.0171 30.79Z" fill="#FDD4CE"/>
<path d="M25.3672 33.6386C25.6304 33.4961 26.2611 33.9485 26.5335 34.1492L26.4258 34.1372C26.1018 34.0986 25.5977 34.0915 25.3672 33.6386Z" fill="#B7A89C"/>
<path d="M16.437 42.875C16.6376 43.3176 16.8818 43.894 17.1096 44.2757C17.444 44.7803 17.599 45.0358 17.9937 45.4224L17.9986 44.982C17.7001 44.3545 17.6386 44.2218 17.4418 43.4911C17.7175 43.8646 17.9556 44.1664 18.2009 44.6035C18.6875 45.225 18.8572 45.3517 19.4009 45.7884L19.8033 45.8737L19.7995 45.9955C19.9441 46.2853 20.0876 46.5893 20.2431 46.859C21.3225 48.5435 23.0407 49.6391 24.4109 50.5526L24.5756 51.0604C24.6751 51.515 24.8209 51.9745 24.7458 52.4149C24.2168 52.5497 23.766 51.509 22.9646 51.341L22.9732 51.4943C23.3473 51.7559 23.6584 51.9369 23.9949 52.3252C24.1477 53.0511 23.728 53.2908 23.3838 53.4219L23.6143 53.5334C23.7062 53.8319 23.6883 53.672 23.6257 54.0336C23.6045 54.4224 23.7513 54.7328 23.872 55.0933L23.8704 55.3217C23.6768 56.6664 23.5866 56.8708 23.0847 58.0366C22.1419 57.9153 20.5232 58.0034 19.5303 58.004C18.6163 57.9882 17.7023 57.9974 16.7882 58.0322L16.2989 58.0034L16.2918 56.9198C16.4979 53.2441 17.0008 52.6585 16.6876 48.6974C16.6909 47.4549 16.649 46.5387 16.9242 45.3805C16.3522 45.5219 16.2902 45.4898 15.7383 45.1217L15.9612 44.8553C15.946 44.7623 15.822 44.473 15.7845 44.3773C16.2423 43.7999 16.1064 43.5313 16.437 42.875Z" fill="#C4545E"/>
<path d="M16.9103 48.5885C16.8565 47.3716 16.7825 46.6593 17.0185 45.4898C18.6215 44.6845 18.4121 52.2348 20.0885 52.6644L20.1456 52.6008C20.6953 53.0559 20.9769 53.2924 21.5914 53.5088L21.7686 53.8965C20.5218 54.611 19.7671 55.6756 19.5295 58.005C18.6155 57.9892 17.7015 57.9984 16.7874 58.0332L16.2981 58.0044L16.291 56.9208C16.4971 53.2451 17.0001 52.6595 16.6869 48.6984L16.8815 48.6935L16.9103 48.5885Z" fill="#303C55"/>
<path d="M16.6869 48.6992L16.8815 48.6943C16.9631 49.5583 17.0006 50.4321 17.2752 51.1613C16.7102 54.054 16.776 54.9859 16.7874 58.0341L16.2981 58.0053L16.291 56.9216C16.4971 53.246 17.0001 52.6604 16.6869 48.6992Z" fill="#251F1B"/>
<path d="M16.9097 48.5883C17.15 47.9314 17.1995 47.1207 17.7122 46.8994C18.0689 47.5302 17.4273 50.3641 17.2745 51.1601C16.9999 50.431 16.9624 49.5572 16.8809 48.6932L16.9097 48.5883Z" fill="#2E3445"/>
<path d="M19.4008 45.7891L19.8031 45.8744L19.7993 45.9962C19.944 46.286 20.0875 46.59 20.243 46.8597C21.3223 48.5442 23.0406 49.6398 24.4108 50.5533L24.5755 51.0611C24.675 51.5157 24.8208 51.9752 24.7457 52.4156C24.2167 52.5504 23.7659 51.5097 22.9644 51.3417C22.4772 50.4706 18.7651 48.76 18.8918 47.0342C19.1795 46.8499 19.1936 46.7863 19.3714 46.3888L19.2719 45.9696L19.4008 45.7891Z" fill="#303C55"/>
<path d="M19.4003 45.7891L19.8027 45.8744L19.7989 45.9962C19.9435 46.286 20.0871 46.59 20.2426 46.8597C21.3219 48.5442 23.0401 49.6398 24.4104 50.5533L24.5751 51.0611C24.2412 51.4178 20.6243 48.4061 20.2317 47.8074C19.9055 47.3094 19.6597 46.9766 19.371 46.3888L19.2715 45.9696L19.4003 45.7891Z" fill="#F8F2EA"/>
<path d="M16.437 42.875C16.6376 43.3176 16.8818 43.894 17.1096 44.2757C17.444 44.7803 17.599 45.0358 17.9937 45.4224L17.9986 44.982C17.7001 44.3545 17.6386 44.2218 17.4418 43.4911C17.7175 43.8646 17.9556 44.1664 18.2009 44.6035C18.6875 45.225 18.8572 45.3517 19.4009 45.7884L19.272 45.9689L19.3715 46.3881C19.1937 46.7856 19.1796 46.8492 18.892 47.0335C18.7653 48.7593 22.4774 50.4699 22.9646 51.341C22.3229 51.2034 21.0479 50.0991 20.4123 49.5874C20.0909 49.2666 18.7756 47.7105 18.6647 47.7088C18.4015 49.2313 19.4428 51.7341 20.1464 52.5998L20.0893 52.6634C18.4129 52.2338 18.6223 44.6835 17.0193 45.4888C16.7833 46.6583 16.8573 47.3706 16.9111 48.5875L16.8823 48.6925L16.6876 48.6974C16.6909 47.4549 16.649 46.5387 16.9242 45.3805C16.3522 45.5219 16.2902 45.4898 15.7383 45.1217L15.9612 44.8553C15.946 44.7623 15.822 44.473 15.7845 44.3773C16.2423 43.7999 16.1064 43.5313 16.437 42.875Z" fill="#40322C"/>
<path d="M16.437 42.875C16.6376 43.3176 16.8818 43.894 17.1096 44.2757C16.9209 44.4176 16.8508 44.4741 16.6762 44.6579C16.9405 45.0712 16.8731 44.8276 16.9242 45.3805C16.3522 45.5219 16.2902 45.4898 15.7383 45.1217L15.9612 44.8553C15.946 44.7623 15.822 44.473 15.7845 44.3773C16.2423 43.7999 16.1064 43.5313 16.437 42.875Z" fill="#252932"/>
<path d="M17.9933 45.4245L17.9982 44.9841C17.6997 44.3566 17.6382 44.2239 17.4414 43.4932C17.7171 43.8667 17.9552 44.1685 18.2005 44.6056C18.3168 45.4822 18.7127 45.8535 19.1428 46.4272C18.7698 46.1395 18.3141 45.8361 17.9933 45.4245Z" fill="#C06578"/>
<path d="M23.87 55.3223C23.0103 54.9297 22.5503 56.5631 21.7798 56.2439L21.7363 56.0167C22.0348 54.7405 22.8972 54.2212 23.6253 54.0342C23.6041 54.423 23.7509 54.7334 23.8716 55.0939L23.87 55.3223Z" fill="#752213"/>
<path d="M20.4121 49.5879C21.0477 50.0995 22.3228 51.2039 22.9644 51.3414L22.9731 51.4948C22.9622 51.8819 22.9889 51.9401 23.0922 52.2837L23.0519 52.4849C22.2989 52.722 20.7672 50.7662 20.4121 49.5879Z" fill="#752213"/>
<path d="M21.5918 53.51C22.1388 53.4464 22.6341 53.3997 23.1822 53.3828C23.0327 53.5579 22.0909 53.7558 21.7691 53.8977L21.5918 53.51Z" fill="#5D291C"/>
<path d="M15.1553 38.8594C15.4256 40.3666 15.5343 40.7799 15.9552 42.1528L16.1901 42.7226L15.6985 44.1592L15.7252 44.3315L15.7839 44.3805C15.8214 44.4762 15.9454 44.7655 15.9606 44.8584L15.7377 45.1249C16.2896 45.493 16.3515 45.5251 16.9236 45.3837C16.6484 46.5418 16.6903 47.458 16.687 48.7005C17.0002 52.6616 16.4973 53.2472 16.2912 56.9229L16.2983 58.0066L13.4355 58.0044C13.2218 57.44 13.9634 54.4369 14.057 53.406C13.4485 52.8845 12.9537 52.3066 12.5274 51.3882C12.1044 50.1805 12.1909 49.8271 12.2447 48.3862C11.235 50.8847 10.9294 52.5621 12.6726 54.1493L12.8118 54.1373C11.6868 54.1303 10.8147 52.9498 10.2622 51.3344C10.2296 48.7451 10.5172 47.9045 11.3954 45.8611C10.7195 44.6284 10.6662 44.089 10.8815 42.4779L10.9299 43.4322C10.9174 44.4827 11.1502 44.7209 11.4525 45.4919L11.4987 45.4642C11.6248 45.344 11.6836 45.2178 11.7934 45.0438L11.9456 45.1162L12.3714 44.2598C13.088 42.7553 13.5339 41.6732 14.1287 40.0594L14.3017 41.571C14.4892 42.5209 14.6991 43.2658 15.1385 43.9531L15.2108 43.8726L15.1977 43.7976L15.3696 43.5654L15.4093 43.6339L15.4745 43.5747C15.1423 41.9739 15.1325 40.5482 15.1553 38.8594Z" fill="#C06578"/>
<path d="M15.7376 45.125C16.2895 45.4931 16.3515 45.5252 16.9235 45.3838C16.6484 46.542 16.6903 47.4582 16.687 48.7006C17.0002 52.6618 16.4972 53.2474 16.2912 56.923C14.9954 55.0846 14.9025 52.696 14.9128 50.0496C15.0498 48.3553 15.2923 46.6589 15.7376 45.125Z" fill="#303C55"/>
<path d="M14.1287 40.0576L14.3017 41.5692C13.7432 43.3478 12.3089 46.2323 12.0636 47.316C12.2877 47.3877 12.2115 47.3339 12.3948 47.5661C12.5035 47.3948 12.5639 47.3105 12.6933 47.1768C12.6808 47.7711 12.4312 48.4366 12.373 49.0451C12.3051 49.7476 12.5155 50.7823 12.5274 51.3864C12.1044 50.1788 12.1909 49.8253 12.2447 48.3844C11.235 50.8829 10.9294 52.5603 12.6726 54.1475L12.8118 54.1355C11.6868 54.1285 10.8147 52.948 10.2622 51.3326C10.2296 48.7433 10.5172 47.9027 11.3954 45.8593C10.7195 44.6266 10.6662 44.0873 10.8815 42.4762L10.9299 43.4304C10.9174 44.4809 11.1502 44.7191 11.4525 45.4901L11.4987 45.4624C11.6248 45.3422 11.6836 45.2161 11.7934 45.0421L11.9456 45.1144L12.3714 44.258C13.088 42.7535 13.5339 41.6714 14.1287 40.0576Z" fill="#F48D9D"/>
<path d="M10.8815 42.4785L10.9299 43.4328C10.9174 44.4833 11.1502 44.7214 11.4525 45.4925L11.4987 45.4647C11.6248 45.3446 11.6836 45.2184 11.7934 45.0444L11.9456 45.1167C10.9229 47.3684 10.4009 48.3335 10.4389 51.286C10.9087 52.6421 11.13 52.8911 11.8592 53.8323C10.838 51.1598 11.0903 49.9424 12.0636 47.3183C12.2877 47.3901 12.2115 47.3363 12.3948 47.5684C12.5035 47.3972 12.5639 47.3129 12.6933 47.1791C12.6808 47.7734 12.4312 48.439 12.373 49.0474C12.3051 49.7499 12.5155 50.7847 12.5274 51.3887C12.1044 50.1811 12.1909 49.8277 12.2447 48.3868C11.235 50.8853 10.9294 52.5627 12.6726 54.1499L12.8118 54.1379C11.6868 54.1308 10.8147 52.9504 10.2622 51.3349C10.2296 48.7456 10.5172 47.905 11.3954 45.8617C10.7195 44.629 10.6662 44.0896 10.8815 42.4785Z" fill="#7D444B"/>
<path d="M13.4355 58.0018C13.7819 56.699 14.6263 51.6487 14.9129 50.0469C14.9025 52.6932 14.9955 55.0819 16.2913 56.9203L16.2983 58.0039L13.4355 58.0018Z" fill="#2E3445"/>
<path d="M14.5545 50.5221C14.971 48.4592 14.8878 47.2624 15.58 44.7792C15.4778 44.5307 15.493 44.6237 15.4522 44.3447C15.6414 44.5823 15.7399 44.6916 15.9601 44.8591L15.7372 45.1255C15.2918 46.6594 15.0493 48.3559 14.9123 50.0502C14.6257 51.652 13.7813 56.7023 13.435 58.0051C13.2213 57.4407 13.9629 54.4376 14.0565 53.4067L14.1032 53.0005C14.362 52.5231 14.5056 51.173 14.5545 50.5221Z" fill="#40322C"/>
<path d="M14.2147 51.0916C14.4583 50.7012 14.1647 50.7757 14.554 50.5186C14.5051 51.1694 14.3615 52.5195 14.1027 52.9969C13.6857 52.5657 13.6101 52.4211 13.3926 51.6648L13.4567 51.6517C13.7003 51.3227 13.9118 51.0373 14.2147 51.0916Z" fill="#9E515E"/>
<path d="M13.457 51.6537C13.7006 51.3247 13.9121 51.0392 14.215 51.0936C14.1307 51.4699 14.0437 51.8456 13.9551 52.2191C13.7267 52.1659 13.6691 51.9652 13.457 51.6537Z" fill="#C47483"/>
<path d="M15.955 42.1533L16.1899 42.7232L15.9458 42.9678L15.793 42.8412C15.7935 42.4176 15.7919 42.6041 15.955 42.1533Z" fill="#C4545E"/>
<path d="M15.2752 29.6524L15.317 29.4132C15.5601 29.5828 15.6215 29.709 15.8445 29.6568C15.8135 29.2734 15.7651 29.0429 15.8776 28.7199C16.1968 28.6068 16.1712 28.7052 16.5361 28.9336C17.0396 29.4719 17.5632 30.0488 18.1483 30.281L18.151 30.3843C18.3549 32.4505 18.3386 36.081 18.3582 38.312C18.4495 38.9617 18.5305 39.6159 18.6012 40.2732L18.7143 40.7256L18.7513 41.2427C18.704 41.3085 18.6572 41.3749 18.6104 41.4412C18.7176 41.7914 18.822 42.1442 18.9361 42.4879L18.9639 41.7772L19.0525 41.6788C19.2249 41.992 19.1194 41.8773 19.4119 41.9235L19.5734 41.9893L19.6822 42.1807L19.6756 42.3759C19.674 42.844 19.7235 44.0805 19.6881 44.3953C19.898 44.8928 20.165 45.1843 20.451 45.5595C20.2096 45.9673 20.2487 45.8313 19.8018 45.8759L19.3994 45.7906C18.8557 45.3539 18.686 45.2272 18.1994 44.6057C17.9542 44.1686 17.716 43.8668 17.4403 43.4933C17.6372 44.224 17.6986 44.3567 17.9971 44.9842L17.9922 45.4246C17.5975 45.038 17.4425 44.7825 17.1081 44.2779C16.8803 43.8962 16.6361 43.3198 16.4355 42.8772C16.1049 43.5335 16.2408 43.8021 15.783 44.3796L15.7243 44.3306L15.6976 44.1583L16.1892 42.7217L15.9543 42.1519C15.5334 40.7789 15.4247 40.3657 15.1544 38.8584C15.1316 40.5473 15.1414 41.973 15.4736 43.5737L15.4084 43.633L15.3687 43.5645L15.1969 43.7967C14.1012 41.1628 14.2877 38.7198 14.6134 35.7292C14.8336 33.7049 15.062 31.6795 15.2752 29.6524Z" fill="#F48D9D"/>
<path d="M15.2754 29.6524L15.3173 29.4132C15.5603 29.5828 15.6218 29.709 15.8447 29.6568C15.8137 29.2734 15.7653 29.0429 15.8779 28.7199C16.197 28.6068 16.1715 28.7052 16.5363 28.9336C17.0398 29.4719 17.5634 30.0488 18.1485 30.281L18.1512 30.3843C18.3551 32.4505 18.3388 36.081 18.3584 38.312C18.08 37.0755 17.7951 34.632 17.4335 33.6929C16.9697 34.2851 17.5923 34.0866 17.0045 34.4493C16.8359 33.3705 16.7631 32.8316 16.6782 31.7295C16.048 31.0313 15.7604 30.5909 15.2754 29.6524Z" fill="#C4545E"/>
<path d="M15.3699 43.5616C14.6408 41.1637 15.184 38.6347 15.2922 36.1455C15.3525 36.7801 15.3482 37.5054 15.3906 38.1796C15.5053 39.9887 15.9218 41.329 16.4367 42.8743C16.1061 43.5306 16.2421 43.7992 15.7842 44.3766L15.7255 44.3277L15.6989 44.1553L16.1904 42.7188L15.9555 42.1489C15.5347 40.776 15.4259 40.3627 15.1557 38.8555C15.1328 40.5444 15.1426 41.97 15.4749 43.5708L15.4096 43.6301L15.3699 43.5616Z" fill="#6B383D"/>
<path d="M17.0039 34.4477C17.5917 34.0851 16.9691 34.2835 17.4329 33.6914C17.5596 36.1127 17.596 37.5139 18.2523 39.84L18.2072 39.9884C17.7668 38.9858 17.3089 35.626 17.0039 34.4477Z" fill="#C06578"/>
<path d="M18.9375 42.4858L18.9652 41.7752L19.0539 41.6768C19.2262 41.99 19.1207 41.8752 19.4133 41.9214L19.5748 41.9872L19.6835 42.1786L19.677 42.3738C19.6754 42.842 19.7248 44.0784 19.6895 44.3933C19.4698 44.0431 19.4785 44.0589 19.3295 43.6097C19.205 43.284 19.0566 42.8295 18.9375 42.4858Z" fill="#B1ACA4"/>
<path d="M18.9375 42.4858L18.9652 41.7752L19.0539 41.6768C19.2262 41.99 19.1207 41.8752 19.4133 41.9214L19.5748 41.9872C19.1365 42.3276 19.2811 42.8333 19.3295 43.6097C19.205 43.284 19.0566 42.8295 18.9375 42.4858Z" fill="#40322C"/>
<path d="M18.6104 41.4393C18.4304 41.0391 18.3842 40.9602 18.2656 40.4796L18.3499 40.249L18.6011 40.2713L18.7142 40.7237L18.7512 41.2408C18.7039 41.3066 18.6571 41.3729 18.6104 41.4393Z" fill="#DF878F"/>
<path d="M25.7771 6.01569L25.8848 5.74219L26.2871 6.5094L26.1414 6.49418C25.2219 5.84605 20.7916 7.99761 19.8726 8.94208C19.7362 9.47114 19.2838 9.90178 18.9907 10.1949L18.7591 9.87134C17.1969 11.2617 16.2149 12.6868 15.0019 14.8639C13.5713 17.8909 11.3093 23.3658 12.6328 27.3775L12.7388 27.502C12.7731 26.9393 12.698 25.9953 12.716 25.0155C12.7502 23.1353 14.295 17.5848 15.0149 16.543C13.686 21.1305 12.9411 26.0687 15.7875 29.6063C15.4173 28.4297 14.8518 25.4478 14.966 24.1521L14.9839 24.3489C15.1726 26.3113 15.6755 27.6521 16.5363 28.9353C16.1714 28.707 16.197 28.6085 15.8778 28.7216C15.7653 29.0446 15.8137 29.2752 15.8446 29.6585C15.6217 29.7107 15.5603 29.5846 15.3172 29.4149L15.2753 29.6542C15.0622 31.6812 14.8338 33.7066 14.6136 35.731C14.2879 38.7215 14.1014 41.1645 15.197 43.7984L15.2101 43.8734L15.1378 43.9539C14.6984 43.2666 14.4886 42.5217 14.301 41.5718L14.1281 40.0602C13.5332 41.674 13.0873 42.7561 12.3707 44.2606L11.9449 45.117L11.7927 45.0447C11.6829 45.2187 11.6241 45.3448 11.498 45.465L11.4518 45.4927C11.1495 44.7217 10.9167 44.4835 10.9292 43.433L10.8809 42.4788L10.97 42.0867C11.0994 41.3331 11.3604 40.4702 11.6035 39.8057C13.2782 34.6408 14.1601 35.1432 14.5522 28.2404C13.5011 25.6555 13.4892 24.0803 13.6762 21.0816C12.8176 24.2119 12.1891 26.6342 13.9155 29.1637C13.6202 28.9348 13.2135 28.6249 12.9699 28.279C10.5959 24.9041 13.3146 17.6234 14.7528 14.7503C17.3611 9.54074 21.866 6.44959 25.7771 6.01569Z" fill="#7D444B"/>
<path d="M11.6035 39.8025L11.8025 39.6943L11.871 39.7803C11.8085 41.5914 11.3414 42.723 12.3707 44.2574L11.9449 45.1138L11.7927 45.0415C11.6829 45.2155 11.6241 45.3416 11.498 45.4618L11.4518 45.4895C11.1495 44.7185 10.9167 44.4803 10.9292 43.4298L10.8809 42.4756L10.97 42.0835C11.0994 41.3299 11.3604 40.467 11.6035 39.8025Z" fill="#C06578"/>
<path d="M10.97 42.0859C11.0815 42.6672 10.9929 42.7352 10.9292 43.4322L10.8809 42.478L10.97 42.0859Z" fill="#9E515E"/>
<path d="M11.498 45.4623L11.6383 45.0915L11.7928 45.042C11.6829 45.216 11.6242 45.3421 11.498 45.4623Z" fill="#C47483"/>
<path d="M19.8733 8.94043C19.7369 9.46949 19.2845 9.90013 18.9914 10.1932L18.7598 9.86968C19.1208 9.49287 19.4873 9.23514 19.8733 8.94043Z" fill="#FDB9BE"/>
<path d="M28.0383 3.2619C29.7364 2.96883 30.8228 2.91772 32.4333 3.79803L32.2382 4.00411C30.863 3.60065 28.8224 3.44895 27.7371 5.25579L27.7518 5.49177C28.159 5.80007 30.2182 5.67338 30.9065 5.73917C35.5751 6.18558 42.3707 9.13318 44.2852 17.5171C45.3689 22.2623 43.8926 25.5905 44.8317 30.0285C45.5314 33.3366 46.899 35.5719 47.9348 38.5668L47.7341 38.9094C47.788 40.9043 47.9429 42.2936 46.7674 43.2854C46.6255 42.8362 46.116 41.6194 45.9452 41.236C44.3537 37.662 44.2569 33.6199 43.6953 29.4646C43.5832 28.6349 43.4212 28.5441 43.4392 27.5229L43.5305 27.6415C43.481 28.357 43.7105 28.8736 43.8301 29.4782C44.3564 32.1306 45.1628 33.3018 46.0567 35.4572C46.3607 35.7405 47.3138 37.7218 47.5928 38.2813C47.198 36.5229 45.9153 34.2523 45.3373 32.5014C44.5353 30.0709 44.0432 27.1837 43.5104 24.5286C43.369 24.0882 43.3413 23.8397 43.2635 23.3628L43.3309 22.824L43.3973 22.8794L43.5289 22.7495C43.9698 21.1329 43.9019 19.1749 43.8627 17.4236C42.9204 13.1161 40.5296 10.442 38.1611 8.76453C35.922 7.21542 33.5518 6.30793 31.1431 6.07684C29.5369 5.92459 30.0235 6.23071 28.6875 7.19421L28.6533 7.07623C29.0817 6.27258 29.3596 6.65537 29.7761 6.11435L29.7152 5.99799C29.2644 5.97896 27.6816 5.72232 27.4826 6.40634L27.6419 7.08819L27.5218 7.24479C26.8111 4.58808 28.4488 4.35591 29.3253 3.26843C28.9534 3.14881 28.762 3.25266 28.3869 3.36467L28.0383 3.2619Z" fill="#6B383D"/>
<path d="M43.8609 17.4229C44.4019 18.9018 44.5101 22.8298 44.2676 24.4316C44.0996 24.8982 44.0751 25.0379 43.7967 25.3196C43.7119 24.9041 43.7174 24.7622 43.5086 24.5279C43.3672 24.0874 43.3395 23.839 43.2617 23.3621L43.3291 22.8233L43.3955 22.8787L43.5271 22.7488C43.968 21.1322 43.9001 19.1742 43.8609 17.4229Z" fill="#C4545E"/>
<path d="M43.7969 25.3196C44.0753 25.0379 44.0997 24.8982 44.2678 24.4316C44.2536 25.3321 44.2232 26.3826 44.2427 27.27C44.0965 26.6436 43.9247 25.9508 43.7969 25.3196Z" fill="#C4545E"/>
<path d="M18.5378 29.7535C16.782 26.8635 16.7211 20.9145 17.6286 17.2807C18.6655 13.1314 20.8383 10.3062 23.221 8.64724C23.9615 8.13177 25.6482 7.27158 26.3915 7.81532C26.2838 8.01324 24.9452 8.21062 24.5836 8.34601C23.9876 8.5771 23.4047 8.89899 22.8414 9.30788C20.2587 11.187 17.8363 14.5642 17.4274 19.6008C17.2872 21.3337 17.3551 22.7986 17.7537 24.4086L17.801 24.594C18.1593 23.1313 18.5416 22.1618 18.939 20.7818L18.851 20.5904C19.38 20.1642 20.6529 16.2563 21.1249 15.0911L21.2858 14.7235C21.3065 15.183 21.351 14.985 21.232 15.2694C20.6121 16.7473 20.2815 18.0816 20.1293 19.8781C20.4234 19.8433 20.6752 19.8678 20.9302 19.6302C21.7192 17.3655 22.5799 15.1792 23.2987 12.8427C23.6081 11.8357 24.7755 9.16107 25.459 9.12845C25.0871 9.80105 24.6711 10.2371 24.3008 10.8717C23.2215 12.7215 22.6995 15.1384 22.7311 17.7445C22.7686 20.8433 23.5195 22.6458 24.751 24.6739C24.0996 22.5571 24.0996 21.8519 23.9648 19.4546C23.9311 18.8614 23.9398 18.2029 23.8033 17.6749L23.917 17.4248C23.8381 18.428 23.9898 18.1126 24.1056 18.8684C24.3492 20.4572 24.4449 21.4425 25.1219 22.7039C25.3497 23.1292 25.6069 23.5049 25.8875 23.8219L25.7559 23.9578C24.9463 22.9176 24.7695 22.4207 24.1905 20.9879C24.4563 23.1509 24.4765 23.4782 25.1545 25.3019C23.8321 23.6598 23.4162 22.8263 22.7169 20.2952L22.5772 20.2452C22.0101 20.0369 21.6229 20.0788 21.0422 20.0826C20.8089 21.1586 20.623 22.2635 20.4849 23.3874L20.1826 23.5685C19.3806 23.5163 19.8101 23.6419 19.2386 24.0606C18.2795 24.7642 18.5698 24.8126 18.1169 26.0338L18.1789 26.3513L17.839 26.3421C18.1865 27.6759 18.6084 28.703 18.8667 30.0879L18.7547 30.139L18.5378 29.7535Z" fill="#9E515E"/>
<path d="M19.8876 20.4199C19.9714 21.5688 19.9779 22.4606 20.1818 23.5665C19.3798 23.5143 19.8093 23.6399 19.2379 24.0586C18.2787 24.7622 18.5691 24.8106 18.1161 26.0318L18.1781 26.3494L17.8383 26.3401L17.7578 26.1275C17.9329 24.4028 18.7039 21.751 19.3972 20.4683C19.526 20.4792 19.7506 20.4373 19.8876 20.4199Z" fill="#F9E1CC"/>
<path d="M17.7578 26.1309L18.1161 26.0352L18.1781 26.3527L17.8383 26.3435L17.7578 26.1309Z" fill="#969997"/>
<path d="M19.3965 20.4736C19.4291 19.9934 19.683 19.4377 19.8924 19.1387L19.9658 19.2654C19.9489 19.8966 20.0136 19.6411 19.8103 20.0897L19.8869 20.4252C19.7499 20.4426 19.5254 20.4844 19.3965 20.4736Z" fill="#ECA08C"/>
<path d="M22.5483 15.8535C22.5602 17.3102 22.589 18.4004 22.6499 19.8511L22.5618 19.9239C21.9991 19.7402 21.7582 19.7282 21.1895 19.6972C21.2917 18.601 22.1334 16.7246 22.5483 15.8535Z" fill="#ECA08C"/>
<path d="M22.2797 17.4561C22.3433 18.0814 22.4569 19.3831 22.5618 19.9257C21.9991 19.7419 21.7582 19.73 21.1895 19.699C21.5483 18.9671 21.936 18.2015 22.2797 17.4561Z" fill="#F9E1CC"/>
<path d="M20.1827 20.1127C20.367 20.104 20.5209 20.0975 20.7025 20.1671C20.9314 20.8413 20.5122 22.4176 20.4018 23.1766L20.3578 23.2974C20.1816 23.1103 20.1713 22.821 20.1283 22.4779C20.0381 21.7537 19.9478 20.7722 20.1827 20.1127Z" fill="#F48D9D"/>
<path d="M42.8421 41.4778C42.9329 41.2108 42.904 41.2114 42.9073 40.8987L43.1117 40.7666C43.5761 42.3413 44.0296 43.892 44.4765 45.483C44.6788 46.2029 44.8169 47.1267 44.9605 47.6405C44.9882 48.1299 45.0203 48.6231 45.0349 49.1135L45.1268 49.0678C45.545 48.3294 45.5417 47.6601 45.6499 46.6275C45.806 43.2167 45.3112 43.8588 45.0735 41.2228C44.9936 41.1516 47.7101 48.2174 47.9157 48.8531C48.4246 50.4288 48.3295 51.245 48.0081 52.7761C48.199 52.8843 48.1147 52.8327 48.3931 52.6087C48.0994 53.166 47.9086 53.2981 47.4959 53.5695L47.46 53.3536C48.8204 51.2075 47.7498 48.3012 46.7684 46.3883C47.1327 49.8606 46.857 52.8169 44.787 54.4253C44.4782 54.67 44.1992 54.907 43.867 54.6488L43.8719 54.4905C43.705 50.2701 44.6059 47.1773 42.5055 43.531L42.6017 43.4614L42.7485 43.5163L42.8323 43.3423C42.5946 42.9948 42.4821 42.7741 42.4375 42.2325C42.5174 42.313 43.1199 43.5603 43.2303 43.7843C43.0672 42.947 42.9443 42.3445 42.8421 41.4778Z" fill="#C06578"/>
<path d="M45.6501 46.627C45.8062 43.2161 45.3114 43.8583 45.0737 41.2222C44.9938 41.151 47.7103 48.2169 47.9159 48.8525C48.4248 50.4282 48.3297 51.2444 48.0083 52.7756C48.1992 52.8838 48.1149 52.8321 48.3933 52.6081C48.0996 53.1654 47.9088 53.2975 47.4961 53.5689L47.4602 53.353C48.8206 51.2069 47.75 48.3006 46.7686 46.3877C47.1329 49.86 46.8572 52.8163 44.7872 54.4247C44.4784 54.6694 44.1994 54.9065 43.8672 54.6482L43.8721 54.49C44.2027 54.2502 44.6007 54.0022 44.859 53.5933C44.8802 53.4732 45.7572 51.4135 45.8132 51.3194C45.7192 52.1813 45.5446 52.9496 45.3744 53.7749C46.3624 52.1361 46.7881 50.5506 46.7468 48.1429C46.7131 46.1887 46.3793 45.3878 45.7387 43.8985L45.6713 43.9844C45.8132 44.831 45.7969 45.9451 45.7072 46.808L45.6501 46.627Z" fill="#9E515E"/>
<path d="M44.859 53.5947L45.3038 53.0488C45.1787 53.4719 44.828 54.1803 44.7872 54.4261C44.4784 54.6708 44.1994 54.9079 43.8672 54.6496L43.8721 54.4914C44.2027 54.2516 44.6007 54.0036 44.859 53.5947Z" fill="#F8F2EA"/>
<path d="M45.0338 49.1156C45.0801 49.5973 45.0208 50.4526 44.8811 50.8849L44.8288 50.7734C44.9202 49.7387 44.9159 49.3369 44.9033 48.2853L44.824 48.3538C44.8185 48.7268 44.8403 48.7007 44.775 49.0362L44.6973 48.7915C44.7446 48.189 44.7625 48.1662 44.9594 47.6426C44.9871 48.1319 45.0192 48.6251 45.0338 49.1156Z" fill="#9E515E"/>
<path d="M37.4387 25.3665C37.4855 24.6971 37.4768 24.7238 37.6981 24.373C37.6366 26.7818 36.9298 29.134 35.982 30.8664C36.4708 30.5379 36.6051 30.3862 37.0309 29.9137L37.4159 29.3994C37.5616 29.6011 37.6926 29.7936 37.8334 30.0051C38.1292 29.8392 37.9824 29.7963 38.1983 29.3966C38.1184 29.7794 38.0341 30.2128 37.9455 30.5842C37.5719 32.9396 36.1952 38.5543 35.2012 40.2839C35.1909 40.0735 35.1403 39.9256 35.0914 39.7152L34.962 39.6673C34.5922 39.6091 34.4362 39.5178 34.1159 39.7777L33.9696 40.1344L33.8614 40.1414L33.3014 40.8624L33.2449 40.8179L32.6799 40.0142C32.1916 39.1094 32.5907 37.0824 32.4135 36.5316L32.2422 36.332C34.0354 35.1162 35.1985 34.4893 36.6051 32.1577L36.7764 30.5184C36.0185 31.1208 35.4519 31.3242 34.6401 31.5716C35.7346 30.9164 37.1304 29.1813 37.1152 26.983L37.1135 26.8612L37.0874 26.045L37.1201 25.864L37.3506 25.7123L37.4387 25.3665Z" fill="#7D444B"/>
<path d="M34.8962 34.877C34.8717 35.934 34.8788 36.8018 34.9783 37.8539C35.018 38.2731 35.2115 39.4569 35.093 39.7178L34.9636 39.67C33.9631 38.3683 34.0768 38.1301 33.7598 35.7774C34.1404 35.4626 34.5047 35.1521 34.8962 34.877Z" fill="#9E515E"/>
<path d="M37.0327 29.9126L37.4177 29.3982C37.5634 29.5999 37.6945 29.7924 37.8353 30.0039C38.1311 29.8381 37.9843 29.7952 38.2001 29.3955C38.1202 29.7783 38.0359 30.2117 37.9473 30.583C37.7456 30.7462 37.0164 32.2942 36.75 32.7672C36.8403 31.7379 36.8642 30.9299 37.0327 29.9126Z" fill="#C4545E"/>
<path d="M32.6816 40.0118C32.8714 39.0575 33.6756 39.3653 33.9355 39.9231C33.8882 40.1281 33.9263 40.077 33.8632 40.139L33.3031 40.86L33.2466 40.8154L32.6816 40.0118Z" fill="#251F1B"/>
<path d="M37.0879 26.0479L37.2777 26.1528C37.325 26.6177 37.3445 26.398 37.1928 26.8281L37.114 26.864L37.0879 26.0479Z" fill="#F8F2EA"/>
<path d="M36.4171 33.0439C36.4198 33.1184 36.4236 33.1929 36.4258 33.2669C36.4535 34.2826 35.9566 37.7995 35.5694 38.5058C35.5254 38.2693 35.4775 38.0349 35.427 37.8022L35.2812 38.3541L35.2981 38.6515L35.2421 38.6232C35.0366 37.3308 35.0632 35.9997 35.0915 34.673C35.5575 34.1668 36.0017 33.6714 36.4171 33.0439Z" fill="#9E515E"/>
<path d="M33.2897 35.8828C33.4484 35.8986 33.4854 35.8681 33.6213 36.0274C33.8095 36.8218 34.0933 37.8653 33.9856 38.7336L33.7388 38.6504C33.449 38.5455 33.1396 38.5178 32.8449 38.4775C32.7013 38.2497 32.6551 38.2013 32.6654 37.8321C32.6861 37.0899 32.9667 36.3303 33.2897 35.8828Z" fill="#9E515E"/>
<path d="M41.7934 28.7646C41.8418 29.1154 41.9043 30.3823 41.8864 30.7406C41.9495 31.9292 42.1441 33.6398 42.1729 34.6865C42.3018 35.594 42.4209 36.9414 42.5079 37.8875C42.6917 38.8396 42.8727 39.8574 43.1109 40.766L42.9064 40.8982C42.9032 41.2108 42.932 41.2103 42.8412 41.4772C42.9434 42.344 43.0663 42.9464 43.2294 43.7838C43.119 43.5598 42.5166 42.3124 42.4366 42.2319C42.4812 42.7735 42.5938 42.9943 42.8314 43.3417L42.7477 43.5157L42.6008 43.4608L42.5046 43.5304C42.1273 43.1628 41.6482 42.7664 41.2176 42.6582C39.3308 37.6281 40.1671 36.5847 40.7315 31.2348C41.1322 30.6112 41.6613 29.6803 41.7934 28.7646Z" fill="#C4545E"/>
<path d="M42.4371 42.2325C41.7634 40.0652 41.267 37.5841 41.1484 35.127C41.3806 36.2851 41.7074 37.3449 42.0249 38.4405C42.2745 39.3306 42.6513 40.5796 42.8416 41.4778C42.9439 42.3445 43.0667 42.947 43.2299 43.7843C43.1195 43.5603 42.517 42.313 42.4371 42.2325Z" fill="#F48D9D"/>
<path d="M42.0255 38.4382C42.2186 37.4323 42.1071 36.9565 42.0098 35.9082C42.1876 36.4857 42.3626 37.2714 42.5089 37.8858C42.6927 38.8379 42.8738 39.8557 43.1119 40.7643L42.9075 40.8965C42.9042 41.2091 42.933 41.2086 42.8422 41.4755C42.6519 40.5773 42.2751 39.3283 42.0255 38.4382Z" fill="#9E515E"/>
<path d="M42.1739 34.6852L42.051 34.3671L41.9232 34.3535L41.7981 34.8151C41.0342 33.359 41.7329 32.0698 41.8873 30.7393C41.9504 31.9279 42.145 33.6385 42.1739 34.6852Z" fill="#9E515E"/>
<path d="M30.7624 19.6526C31.1256 18.1671 31.4584 16.7513 31.4861 15.1222L31.5133 13.7324C31.6422 14.0293 31.6128 14.4023 31.6351 14.8531C31.7123 16.4473 32.2555 18.0801 32.7139 19.4324C33.15 19.5455 33.5175 19.582 33.9547 19.6293C33.6861 18.2705 33.5045 16.6969 33.2783 15.2875C33.8269 17.0079 33.6333 17.8279 34.5175 20.0137L34.6534 20.2361C35.4228 21.9222 36.028 22.9298 36.979 24.3223L36.9779 24.5669L37.4406 25.3635L37.3525 25.7093L37.122 25.861C36.8033 25.3385 36.52 24.9927 36.2542 24.375L36.358 24.1613L36.2058 24.1352C35.8567 24.089 35.2597 23.6589 34.8268 23.4942L34.6882 23.368L34.5724 23.3783C34.4087 23.3642 34.3946 23.3419 34.2336 23.2718L34.2679 23.07L34.0819 22.7628C33.5056 21.8118 33.1625 21.1539 32.7449 19.986L32.4844 19.4199L32.0815 19.3916L31.3301 18.1323L30.9679 19.5646L30.9032 19.8647C30.2252 21.6873 29.5852 23.573 28.6337 25.0019C29.0235 23.7905 29.0654 23.1728 29.1296 21.82C28.8 22.0021 28.8169 22.3654 28.5086 22.6927L28.1514 23.6546C28.2944 24.1341 28.6304 25.09 28.6097 25.5413C28.4515 25.5364 28.4689 25.5609 28.3227 25.4837L28.3743 25.3597C28.0731 23.977 27.3298 21.0131 27.7126 19.5586C27.8991 20.1203 27.7767 21.9472 28.2155 22.6378L28.3493 22.5002C29.0812 20.3747 29.6526 17.538 29.868 15.0934L29.8875 14.8629C29.8076 16.9008 29.1089 20.9957 29.5194 22.4371L29.6554 22.5132C29.8908 22.2359 30.6161 20.4122 30.5928 19.9566L30.3187 19.9028C30.4699 19.7663 30.596 19.7299 30.7624 19.6526Z" fill="#7D444B"/>
<path d="M34.3666 20.8429L34.291 20.1904C34.5047 20.4063 35.0484 21.596 35.2692 21.9902C35.7754 22.8944 36.3523 23.9139 36.9765 24.5702L37.4393 25.3668L37.3512 25.7126L37.1206 25.8643C36.802 25.3418 36.5187 24.996 36.2528 24.3783L36.3567 24.1646L36.2044 24.1385C35.8553 24.0923 35.2583 23.6622 34.8255 23.4974C34.751 22.6427 34.5335 21.6792 34.3666 20.8429Z" fill="#FDD4CE"/>
<path d="M34.3672 20.8418C34.4961 21.0283 36.0985 23.9009 36.205 24.1374C35.8559 24.0912 35.2589 23.6611 34.8261 23.4963C34.7516 22.6416 34.5341 21.6781 34.3672 20.8418Z" fill="#F9E1CC"/>
<path d="M34.5724 23.3835C34.1336 22.5141 33.1771 21.0678 33.0586 20.0939C33.2565 19.5828 33.6605 19.7427 33.8851 20.0613C34.3174 20.6773 34.549 22.4592 34.6882 23.3732L34.5724 23.3835Z" fill="#F48D9D"/>
<path d="M31.3301 18.1346L31.6514 16.9014C31.9113 17.9149 32.1337 18.4826 32.4844 19.4221L32.0815 19.3939L31.3301 18.1346Z" fill="#ECA08C"/>
<path d="M28.5078 22.6951C28.666 22.166 28.8743 21.2803 29.1168 20.9834C29.1989 21.4162 29.1984 21.3836 29.1288 21.8224C28.7993 22.0045 28.8161 22.3678 28.5078 22.6951Z" fill="#FDD4CE"/>
<path d="M37.5234 10.6768C38.5223 11.2227 40.2024 14.9157 40.6994 16.6138C41.7151 20.0818 41.6787 22.1214 41.6047 25.9047C41.5901 26.6605 41.7624 27.9018 41.7934 28.7642C41.6613 29.6799 41.1322 30.6107 40.7315 31.2344C40.1671 36.5842 39.3308 37.6277 41.2176 42.6578L40.9234 42.4234C40.5521 42.1728 39.9485 42.0591 39.6788 41.6568C39.5516 41.2832 39.433 40.9782 39.2917 40.6193C39.0655 40.8678 39.0823 40.8879 38.9426 41.2957L38.8322 41.0788C39.7174 37.9523 40.0583 35.0754 40.4803 31.714C40.7924 29.2291 41.2567 26.692 41.3894 24.1544C41.4628 22.8684 41.4269 21.5705 41.2828 20.302C40.8805 16.8585 39.3314 12.7419 37.5843 10.9062L37.5234 10.6768Z" fill="#6B383D"/>
<path d="M39.8427 37.7734C40.0074 38.9533 40.1238 39.6733 40.4337 40.7711C40.5218 41.0848 40.891 42.2267 40.9231 42.4251C40.5517 42.1745 39.9482 42.0608 39.6785 41.6584C39.5512 41.2849 39.4327 40.9799 39.2913 40.621C39.225 40.1615 39.7116 38.4373 39.8427 37.7734Z" fill="#C4545E"/>
<path d="M41.3792 26.9863C41.445 27.4148 41.5141 27.8808 41.5326 28.3239C41.5695 29.2195 41.2835 29.7871 40.9741 30.4423L40.9247 30.4624C40.811 29.8725 41.2558 27.6491 41.3792 26.9863Z" fill="#FDD4CE"/>
<path d="M15.0025 14.8598C16.2155 12.6827 17.1975 11.2575 18.7597 9.86719L18.9913 10.1907C18.6047 10.6806 18.0577 11.3483 17.924 12.1596C18.1366 12.9741 18.5427 12.5342 18.5639 13.3248C18.2872 14.11 17.0926 15.7135 16.8088 15.1708C15.8703 13.3765 15.42 16.1022 15.0188 15.9092C15.0084 15.546 14.9997 15.2263 15.0025 14.8598Z" fill="#FDB9BE"/>
<path d="M37.1997 19.3789C37.0344 16.2752 35.7398 13.1362 34.3331 11.2805C32.7694 9.21751 31.1963 8.14471 29.2302 8.01041L29.166 7.87937C29.9387 6.79244 32.0108 8.33285 32.7792 9.12181C35.4935 11.9096 37.1253 15.2748 37.6608 20.7121C37.5108 20.2641 37.3569 19.8193 37.1997 19.3789Z" fill="#9E515E"/>
<path d="M47.933 38.5674C48.0369 38.9165 48.2527 39.5815 48.3147 39.9294C48.0875 41.8168 49.021 42.9738 47.4409 44.7404C47.2218 44.318 46.9733 43.7405 46.7656 43.2859C47.9412 42.2942 47.7862 40.9049 47.7324 38.9099L47.933 38.5674Z" fill="#C06578"/>
<path d="M21.1251 15.0938C20.5161 15.2162 19.4482 16.9942 19.0605 15.6876C19.0981 14.7301 19.5717 13.4866 20.1709 13.4942C20.2225 13.7427 20.2747 13.9911 20.328 14.2385C20.7559 14.7855 20.7151 14.368 21.2861 14.7263L21.1251 15.0938Z" fill="#FDB9BE"/>
<path d="M37.2 19.376C37.3572 19.8164 37.5111 20.2612 37.6611 20.7092C37.7258 21.4911 37.8813 23.696 37.6986 24.3724C37.4773 24.7231 37.486 24.6965 37.4393 25.3658L36.9766 24.5692L36.9777 24.3245C37.3735 22.5916 37.2963 21.2225 37.2 19.376Z" fill="#C4545E"/>
<path d="M47.4414 44.7426C49.0215 42.976 48.0879 41.819 48.3152 39.9316C48.7806 42.0772 48.7469 43.3588 47.6817 44.8536C48.537 46.6669 50.3015 50.9075 48.3924 52.6105C48.4609 52.3626 48.878 51.3936 48.9878 51.1234C48.9976 50.882 49.0063 50.64 49.0134 50.3981C49.0726 48.1731 48.2733 46.3227 47.4414 44.7426Z" fill="#7D444B"/>
<path d="M37.2598 42.4725C37.4191 41.6922 38.599 37.9834 38.8834 37.6484C38.866 37.9257 38.2222 40.7646 38.1232 41.1496C37.7801 41.3497 37.6464 42.0108 37.2598 42.4725Z" fill="#C06578"/>
<path d="M37.416 29.4017C38.2697 28.1277 38.4779 27.4954 39.1152 25.918C39.1087 26.2295 38.3317 28.9112 38.1984 29.399C37.9826 29.7986 38.1294 29.8416 37.8336 30.0074C37.6928 29.7959 37.5617 29.6034 37.416 29.4017Z" fill="#9E515E"/>
<path d="M33.4732 44.5754C33.8886 44.0436 35.2284 42.1307 35.5774 41.8018C34.8842 43.2514 34.3285 44.1643 33.3867 45.1702L33.4732 44.5754Z" fill="#C47483"/>
<path d="M43.2625 23.362C43.0895 22.8286 42.5594 20.031 42.4414 19.3981L42.4746 19.3389C42.6225 19.7043 43.2652 22.4121 43.3299 22.8231L43.2625 23.362Z" fill="#C06578"/>
<path d="M34.5176 20.0195C35.0657 20.1098 36.058 20.4502 36.4783 21.0657C36.2097 21.1124 35.1369 20.3675 34.6535 20.2419L34.5176 20.0195Z" fill="#DF878F"/>
<path d="M26.6387 23.3174C26.9508 23.8318 27.2705 24.3315 27.5984 24.8154C27.557 25.0851 27.5913 24.9796 27.5152 25.1492L27.4216 25.3075C27.0791 24.5375 26.9176 24.1585 26.6387 23.3174Z" fill="#7D444B"/>
<path d="M36.2672 9.32031C36.7555 9.59381 37.1888 9.99727 37.5232 10.6791C37.0795 10.3589 36.6217 9.87547 36.1992 9.46168L36.2672 9.32031Z" fill="#DF878F"/>
<path d="M26.9883 3.63515C27.3249 3.4231 27.6805 3.35948 28.0372 3.2627L28.3857 3.36546C28.0812 3.5275 27.376 3.77707 27.0573 3.76511L26.9883 3.63515Z" fill="#DF878F"/>
<path d="M26.2881 6.50586L27.4403 7.38563C27.0276 7.23121 26.6154 7.03111 26.1973 7.04851L26.2881 6.50586Z" fill="#C47483"/>
<path d="M26.2885 6.50936L26.1977 7.05201C25.9155 6.94924 25.4821 6.90031 25.1836 6.85028C25.5044 6.75894 25.7621 6.72794 26.0873 6.68608L26.1427 6.49414L26.2885 6.50936Z" fill="#DF878F"/>
<path d="M17.8516 21.4722C18.1691 20.7762 18.3366 20.748 18.851 20.5908C18.4888 21.0535 18.2751 21.1802 17.8516 21.4722Z" fill="#DF878F"/>
<path d="M25.7768 6.01316C25.692 5.30956 25.6741 5.08499 25.9046 4.48145L25.8845 5.73966L25.7768 6.01316Z" fill="#C47483"/>
<path d="M24.7469 14.8008C25.0329 15.0601 25.3553 15.4043 25.6636 15.5631C26.1351 15.8056 26.8805 15.6713 27.2786 16.1161L27.3133 16.4222C27.2171 16.8518 27.0823 17.0589 26.8903 17.358C26.7381 17.4107 26.6016 17.4629 26.4515 17.3558C26.0524 17.072 25.7871 17.2949 25.3733 17.3319C25.14 17.3525 25.0068 17.2536 24.829 16.9915C24.5887 16.3059 24.6469 15.543 24.7469 14.8008Z" fill="#FDB9BE"/>
<path d="M38.2906 12.8936C38.4722 13.1013 38.6234 13.3981 38.7397 13.7157C38.8963 14.1447 38.9496 14.7325 38.855 15.2169C38.7865 15.5693 38.6283 15.8852 38.4336 16.0467C38.1134 16.312 37.8246 16.1777 37.5066 15.9934C37.3195 15.4274 37.0362 14.9076 36.8008 14.3954C37.0243 14.4405 37.251 14.4166 37.4696 14.3263C37.9035 14.1409 38.0938 13.5243 38.2906 12.8936Z" fill="#FDB9BE"/>
<path d="M34.9741 14.5635C35.1067 14.6391 35.1209 14.6233 35.2274 14.7663C35.3862 14.9794 35.5004 15.3089 35.5075 15.6624C35.5134 15.994 35.4226 16.2947 35.2802 16.5095C35.0295 16.8858 34.743 16.7781 34.4472 16.6911C34.2232 16.4318 33.9252 16.1202 33.8496 15.6531C34.2743 15.0333 34.4597 15.664 34.9741 14.5635Z" fill="#FDB9BE"/>
<path d="M23.7201 14.2832C23.7788 14.3615 23.8278 14.48 23.8767 14.5768C23.9702 15.325 23.9012 15.8976 23.7832 16.624C23.6853 16.3364 23.5901 16.0493 23.5407 15.7236C23.452 15.1407 23.5532 14.7715 23.7201 14.2832Z" fill="#FDB9BE"/>
<path d="M28.0113 15.5771C28.2005 15.6255 28.3098 15.6478 28.4594 15.8615C28.5159 16.3253 28.405 16.6635 28.3207 17.1089C28.1962 17.1214 28.1712 17.061 28.0646 16.9599C27.9347 16.5091 27.9879 16.0611 28.0113 15.5771Z" fill="#FDB9BE"/>
<path d="M30.3937 15.0762C30.4763 15.2339 30.51 15.4046 30.5448 15.6063C30.6346 16.1229 30.528 16.4926 30.3926 16.9358C30.2485 16.7183 30.2094 16.6731 30.1724 16.3327C30.1191 15.8434 30.2485 15.4677 30.3937 15.0762Z" fill="#FDB9BE"/>
<path d="M30.2578 9.7793C30.3443 9.8576 30.3502 9.85977 30.4492 9.97233C30.9272 10.5155 31.2202 11.6454 31.3458 12.5747C30.9397 12.0026 30.5944 10.5688 30.2578 9.7793Z" fill="#C47483"/>
<path d="M32.0117 15.2773L32.2259 15.3611C32.413 15.6977 32.4146 15.9467 32.4755 16.3947C32.4353 16.3626 32.3929 16.3387 32.3548 16.299C32.1471 16.0788 32.0846 15.6498 32.0117 15.2773Z" fill="#FDB9BE"/>
<path d="M39.3155 24.29C39.3938 24.3982 39.4155 24.4809 39.4623 24.6315L39.3475 25.023L39.2578 25.0186L39.3155 24.29Z" fill="#DF878F"/>
<path d="M46.7008 53.7678L46.5801 53.6836C46.9618 53.6047 47.0906 53.5482 47.4593 53.3535L47.4952 53.5694L47.008 53.8951C46.8128 53.938 46.9112 53.9375 46.7008 53.7678Z" fill="#B1ACA4"/>
<path d="M46.7012 53.7666C46.7813 53.7982 46.9372 53.85 47.0092 53.8942C46.8135 53.9372 46.9122 53.9367 46.7012 53.7666Z" fill="#F8F2EA"/>
<path d="M32.9189 4.08496L33.1989 4.28179L33.231 4.44437C33.0059 4.53246 32.9597 4.44927 32.7422 4.29756L32.9189 4.08496Z" fill="#F8F2EA"/>
<path d="M32.4315 3.79688L32.9182 4.07962L32.7415 4.29222C32.6197 4.19598 32.3734 4.07745 32.2363 4.00295L32.4315 3.79688Z" fill="#9A897F"/>
</g>
<defs>
<clipPath id="clip0_4631_51301">
<rect width="57" height="57" rx="28.5" fill="white"/>
</clipPath>
</defs>
</svg>
