<svg width="57" height="57" viewBox="0 0 57 57" fill="none" xmlns="http://www.w3.org/2000/svg">
<g clip-path="url(#clip0_4631_52267)">
<rect width="57" height="57" rx="28.5" fill="#F6F6FE"/>
<path d="M16.4668 56.8322C16.4835 56.6652 16.5002 56.4928 16.5169 56.3258C16.5225 56.2758 16.528 56.2313 16.5336 56.1812C16.8341 53.772 17.4405 51.4351 18.264 49.1483C18.8371 47.5569 19.5716 46.0547 20.4284 44.608C20.6065 44.3076 20.8179 44.0294 21.0126 43.74C21.0349 43.6955 21.0516 43.651 21.0738 43.6065C21.1072 43.0612 21.135 42.5159 21.1684 41.9317C20.3839 41.6925 19.5437 41.4643 18.7314 41.1806C15.0925 39.912 11.9155 37.959 9.47842 34.921C9.07225 34.4203 8.72171 33.8695 8.39344 33.3131C8.01508 32.6676 8.11524 32.4006 8.78849 31.9832C8.62713 31.8553 8.46577 31.7496 8.32667 31.616C7.9205 31.2154 7.49207 30.8315 7.14153 30.3864C6.73536 29.8689 6.8689 29.5073 7.50319 29.3236C8.34336 29.0788 8.84413 28.4501 9.3282 27.7991C9.98475 26.9089 10.3631 25.8851 10.7081 24.8502C10.8694 24.3605 10.9807 23.8598 11.0976 23.3535C11.1365 23.1921 11.1309 23.0029 11.092 22.836C10.8639 21.8067 10.6524 20.7773 10.3742 19.7591C10.1628 18.969 10.1294 18.1622 10.0849 17.361C9.97362 15.3079 10.0014 13.2548 10.2741 11.2072C10.3687 10.5006 10.3854 9.77724 10.5412 9.08731C10.7637 8.12473 11.0864 7.17884 11.3813 6.23296C11.4425 6.04378 11.5538 5.86017 11.6762 5.70438C12.0768 5.20362 12.5553 5.03113 13.1451 5.20362C13.9908 5.454 14.7309 5.90468 15.4653 6.37206C17.7521 7.81871 19.694 9.67153 21.5523 11.6134C21.6692 11.7302 21.7527 11.8804 21.8528 12.0084C23.4385 11.4854 24.9798 11.1404 26.5655 11.0125C26.9328 10.9846 27.3 10.9568 27.6616 10.929C28.2959 10.929 28.9302 10.929 29.5645 10.929C29.8205 10.9513 30.082 10.9735 30.3379 10.9958C31.8291 11.1905 33.3369 11.324 34.7669 11.8359C35.0562 11.9361 35.2065 11.8526 35.3901 11.669C36.8256 10.2168 38.3279 8.84249 40.0249 7.6963C41.0932 6.97298 42.2171 6.31642 43.3355 5.671C43.8474 5.3761 44.4205 5.237 45.0381 5.237C45.6 5.237 45.9673 5.50407 46.162 5.96589C46.418 6.57793 46.6405 7.21223 46.7685 7.85766C46.9577 8.82579 47.0523 9.81619 47.1914 10.7955C47.1969 10.8455 47.2025 10.8956 47.2136 10.9457C47.3694 13.2214 47.3805 15.4971 47.0411 17.756C46.8853 18.8243 46.7796 19.9038 46.3846 20.9275C46.1787 21.4728 46.0785 22.0626 45.945 22.6301C45.9061 22.7859 45.8782 22.9695 45.9172 23.1198C46.3345 24.5942 46.6628 26.0965 47.464 27.4319C48.0093 28.3333 48.638 29.1345 49.7508 29.4015C50.1458 29.4961 50.1625 29.7076 49.9789 30.097C49.634 30.8259 49.1499 31.4102 48.4154 31.7663C48.3209 31.8108 48.2429 31.8998 48.1317 31.9832C48.2986 32.0611 48.4154 32.1057 48.5211 32.1724C48.7938 32.3393 48.9051 32.573 48.7994 32.8791C48.7103 33.1406 48.5879 33.3909 48.4433 33.6246C47.7144 34.7986 46.7907 35.8113 45.7781 36.7349C43.5469 38.7547 40.9986 40.2458 38.1387 41.1917C37.4042 41.4365 36.6698 41.6758 35.902 41.9262C35.9409 42.4826 35.9799 43.0501 36.0299 43.6121C36.0355 43.6955 36.0967 43.7845 36.1523 43.8513C37.2151 45.2701 37.9606 46.8559 38.6061 48.4917C39.3016 50.2499 39.8079 52.0638 40.1696 53.9111C40.3309 54.7345 40.4478 55.5747 40.5869 56.4037C40.5813 56.4204 40.5702 56.4371 40.5757 56.4482C40.5813 56.4761 40.598 56.5094 40.6091 56.5373C40.6202 56.6319 40.6369 56.7209 40.6481 56.8155C40.4033 56.8266 40.1584 56.8377 39.9136 56.8433C39.7022 55.341 39.4017 53.8554 39.0289 52.3865C38.3891 49.866 37.4488 47.4623 36.1468 45.2089C35.991 44.9418 35.8018 44.697 35.6627 44.4912C34.8114 44.9085 34.0158 45.2979 33.2257 45.6874C32.1351 45.9934 31.0223 46.1771 29.8984 46.2995C28.9358 46.2995 27.9677 46.2995 27.0051 46.305C26.8215 46.2883 26.6379 46.2883 26.4598 46.2494C25.5251 46.0491 24.5959 45.8432 23.6611 45.6374C22.9378 45.2757 22.22 44.914 21.4411 44.5246C21.3632 44.6303 21.2241 44.7749 21.1295 44.9474C20.6343 45.8766 20.1001 46.7891 19.6717 47.7461C18.7815 49.7213 18.1305 51.7856 17.6965 53.9055C17.4962 54.8736 17.2347 55.8362 17.2013 56.8377C16.9676 56.8433 16.7172 56.8377 16.4668 56.8322ZM40.0527 13.9558C40.4978 13.7333 40.9263 13.4773 41.3825 13.2881C42.3395 12.8875 42.6622 13.5218 42.551 14.3119C42.512 14.5623 42.3952 14.8016 42.295 15.0408C42.2227 15.2077 42.1225 15.3635 42.0224 15.5527C42.1893 15.5972 42.3395 15.6139 42.4619 15.6807C42.7012 15.8142 42.946 15.9533 43.1463 16.1369C43.2353 16.2204 43.2632 16.4541 43.2075 16.5709C43.1296 16.749 42.9571 16.6377 42.818 16.5876C42.6122 16.5041 42.4286 16.3038 42.117 16.4485C42.2338 16.5876 42.3173 16.7044 42.423 16.8046C42.9404 17.2887 43.38 17.8339 43.725 18.4571C43.9587 18.8744 44.1923 19.2973 44.426 19.7146C44.7209 20.5603 45.1605 21.3949 45.4665 21.6842C45.9283 20.3211 46.1787 18.9189 46.3568 17.5112C46.6294 15.3802 46.7017 13.2381 46.5125 11.0904C46.379 9.59363 46.1731 8.11916 45.7391 6.67808C45.5277 5.98258 45.1716 5.73776 44.5095 6.0104C43.725 6.32755 42.9571 6.7059 42.2282 7.1399C40.7315 8.03014 39.3517 9.09287 38.0385 10.2335C37.2763 10.8956 36.5585 11.6078 35.8352 12.2922C36.0856 12.6093 36.5251 12.6817 36.603 13.1991C36.3359 13.1101 36.1356 13.0489 35.9353 12.9766C34.0603 12.3144 32.1351 11.9027 30.1488 11.8137C30.043 11.7859 29.9429 11.7302 29.8372 11.7302C29.036 11.7247 28.2292 11.7191 27.428 11.7246C27.3222 11.7246 27.2221 11.7803 27.1164 11.8081C24.8518 11.8971 22.6818 12.4702 20.5508 13.2102C20.5286 13.1713 20.5063 13.1379 20.4785 13.099C20.6955 12.8708 20.9181 12.6427 21.174 12.3756C21.0015 12.1698 20.829 11.9583 20.6454 11.758C20.3004 11.3964 19.9443 11.0403 19.5882 10.6897C18.0971 9.21528 16.4946 7.86878 14.7086 6.76154C14.1911 6.44439 13.6292 6.19401 13.0672 5.96589C12.6165 5.78784 12.4051 5.85461 12.2104 6.29973C11.9433 6.90621 11.704 7.53494 11.5649 8.1748C11.1977 9.85514 10.9362 11.5522 10.8527 13.277C10.8472 13.3104 10.8416 13.3382 10.8305 13.3716C10.8249 13.4884 10.8194 13.5997 10.8138 13.7166C10.7971 13.7444 10.7915 13.7722 10.8027 13.8C10.6858 16.5542 10.875 19.2695 11.6873 22.0348C12.0546 21.228 12.3662 20.5214 12.6833 19.8203C12.7167 19.7814 12.7668 19.7424 12.789 19.6979C13.3565 18.5628 14.0465 17.5224 14.9868 16.6599C15.0424 16.6099 15.0647 16.5264 15.1704 16.3372C14.8254 16.4819 14.614 16.5932 14.3915 16.6544C14.269 16.6878 14.1244 16.6321 13.9908 16.6099C14.0187 16.4763 14.0075 16.2983 14.091 16.2259C14.2746 16.0535 14.4972 15.9199 14.7197 15.7975C14.87 15.7141 15.0536 15.6862 15.2539 15.625C15.1593 15.4414 15.0758 15.3023 15.0091 15.1521C14.9089 14.9128 14.7865 14.6791 14.7309 14.4288C14.5862 13.75 15.0424 13.3104 15.7157 13.4439C16.1553 13.533 16.567 13.6776 16.9175 13.9781C17.0065 14.056 17.129 14.0949 17.3404 14.2062C17.2291 13.9002 17.1679 13.6888 17.0789 13.4996C16.7951 12.9154 16.5225 12.3311 16.2053 11.7636C15.3985 10.3336 14.3191 9.13738 13.0394 8.1136C13.2008 7.95781 13.3732 7.8966 13.5735 8.04127C13.8406 8.23601 14.1355 8.40293 14.3859 8.61993C15.1704 9.3043 15.8325 10.1055 16.4168 10.9624C17.0455 11.8804 17.5908 12.843 17.9135 13.9169C17.9747 14.1116 18.0248 14.3064 18.0748 14.5067C18.136 14.7459 18.0748 14.9573 17.8801 15.102C17.6798 15.2467 17.4906 15.141 17.3181 15.0185C17.2291 14.9573 17.1456 14.8795 17.0511 14.8182C16.5614 14.5011 16.0551 14.2173 15.4208 14.0282C15.393 14.9462 16.1052 15.3691 16.4947 15.9978C16.2832 16.2092 16.094 16.4151 15.8937 16.5987C14.2635 18.101 13.2286 19.9983 12.3828 21.9958C11.9989 22.9083 11.8376 23.9099 11.5427 24.8613C11.3424 25.5123 11.1198 26.1633 10.8416 26.7865C10.2129 28.1719 9.41165 29.4182 7.85929 29.9969C8.15975 30.6423 8.67164 31.004 9.26699 31.2655C9.56745 31.3935 9.91242 31.4157 10.2184 31.5437C10.4688 31.6494 10.8972 31.6383 10.8583 32.0278C10.8249 32.3449 10.4633 32.3449 10.1906 32.395C9.78444 32.4729 9.36158 32.5118 8.9721 32.7344C9.01104 32.829 9.02217 32.9013 9.06112 32.957C10.0404 34.4926 11.2422 35.8447 12.661 36.9797C13.9964 38.048 15.4431 38.9494 17.0232 39.6393C19.7663 40.8356 22.6206 41.6146 25.5974 41.9651C25.8478 41.9929 26.0982 42.0207 26.3485 42.0486C26.5433 42.0597 26.7325 42.0708 26.9272 42.0819C27.4057 42.1042 27.8842 42.132 28.3627 42.1543C28.6965 42.1543 29.036 42.1543 29.3698 42.1543C29.8094 42.1265 30.2489 42.0986 30.6885 42.0708C31.0668 42.0319 31.4507 42.0041 31.8291 41.9428C32.7193 41.7926 33.6151 41.6591 34.4887 41.4476C36.0021 41.086 37.4821 40.6242 38.9232 40.0233C40.0472 39.5559 41.1488 39.0551 42.167 38.393C42.9683 37.87 43.775 37.3525 44.5206 36.7572C45.5277 35.9504 46.4235 35.0156 47.208 33.9807C47.5085 33.5857 47.7811 33.1628 48.1094 32.6899C47.7811 32.6064 47.553 32.5452 47.3249 32.484C47.0411 32.4117 46.7462 32.3616 46.468 32.2559C46.3623 32.2169 46.2343 32.0445 46.2399 31.9387C46.2455 31.8275 46.379 31.6772 46.4903 31.6216C46.6516 31.5437 46.8464 31.5326 47.0244 31.4936C47.9536 31.3044 48.6324 30.7759 49.1888 29.9802C47.6476 29.4071 46.8074 28.2164 46.2789 26.7865C45.817 25.5401 45.4665 24.2604 45.0381 23.0029C44.6875 21.9736 44.3593 20.9331 43.9197 19.9427C43.4968 18.9801 42.8904 18.1121 42.1281 17.361C41.772 17.0105 41.4493 16.6266 41.0988 16.2705C40.8873 16.059 40.8984 15.8921 41.0709 15.6473C41.3491 15.2578 41.5939 14.8405 41.8221 14.4232C41.9111 14.2618 41.9055 14.0504 41.9667 13.7611C41.6718 13.8668 41.466 13.9002 41.3046 14.0003C40.8317 14.2841 40.3699 14.5846 39.9081 14.8906C39.7133 15.0186 39.552 15.2467 39.2738 15.0853C39.0345 14.9518 38.99 14.7849 39.118 14.3509C39.2237 14.0003 39.3517 13.6498 39.5074 13.316C40.0861 12.0585 40.8651 10.9346 41.8109 9.9386C42.3952 9.32099 43.0573 8.78128 43.7027 8.23045C43.9197 8.04683 44.1868 7.87991 44.4761 8.14698C44.3314 8.28609 44.2035 8.44188 44.0477 8.56429C42.7457 9.5825 41.6885 10.8233 40.815 12.2198C40.4867 12.7429 40.0861 13.2436 39.9971 13.8891C39.9915 13.9336 39.9915 13.9781 39.9859 14.017C40.0026 13.9948 40.0305 13.9725 40.0527 13.9558ZM21.9641 42.1487C21.8973 42.5493 21.8472 42.822 21.8027 43.0946C21.7471 43.4674 21.8472 43.7623 22.1755 44.0127C22.8766 44.5524 23.6444 44.9085 24.5068 45.1255C25.5139 45.3814 26.5321 45.5539 27.5615 45.6151C29.0638 45.7097 30.5549 45.5928 32.0294 45.2868C33.1088 45.0643 34.1215 44.6637 34.995 43.9737C35.1453 43.8569 35.3233 43.6566 35.3233 43.4952C35.3122 43.0668 35.212 42.6383 35.1397 42.132C32.9252 42.6717 30.7608 42.9722 28.5519 42.9722C26.3263 42.9666 24.1452 42.6217 21.9641 42.1487Z" fill="#703C40"/>
<path d="M33.2379 45.6982C34.0279 45.3087 34.818 44.9248 35.6749 44.502C35.814 44.7078 36.0032 44.9526 36.159 45.2197C37.4609 47.4731 38.3957 49.8712 39.0411 52.3973C39.4139 53.8718 39.7088 55.3518 39.9258 56.8541C39.9202 56.8875 39.9202 56.9208 39.9202 56.9542C39.4974 56.932 39.0745 56.8875 38.6572 56.8875C38.2177 56.8875 37.7781 56.9654 37.3385 56.9542C36.771 56.9375 36.2035 56.8652 35.636 56.8151C35.7083 55.6912 35.8196 54.5728 35.5747 53.4433C35.1797 54.545 35.0962 55.7023 34.9349 56.8429C34.9238 56.8763 34.9238 56.9153 34.9238 56.9487C34.4842 56.9542 34.0446 56.9542 33.6051 56.9598C32.5145 56.9598 31.4296 56.9709 30.339 56.9542C29.7492 56.9487 29.1594 56.8875 28.5696 56.8763C28.2191 56.8708 27.8686 56.9153 27.518 56.932C27.2398 56.9431 26.9616 56.982 26.689 56.9542C25.86 56.8708 25.0365 56.893 24.2019 56.9487C23.4841 56.9932 22.7552 56.9598 22.0319 56.9598C22.0319 56.932 22.0319 56.8986 22.0264 56.8708C21.9763 55.6689 21.8094 54.4894 21.5033 53.3209C21.2752 53.5435 21.2418 53.805 21.253 54.0776C21.2863 54.9957 21.3309 55.9138 21.3754 56.8318C21.3642 56.8652 21.3587 56.9042 21.3587 56.9375C20.78 56.9153 20.2014 56.8708 19.6283 56.8708C18.8827 56.8763 18.1427 56.9208 17.3971 56.9487C17.3415 56.9487 17.2858 56.9431 17.2302 56.9431C17.2302 56.9097 17.2302 56.8763 17.2246 56.8374C17.2524 55.8359 17.5195 54.8733 17.7198 53.9051C18.1538 51.7797 18.8104 49.721 19.695 47.7458C20.1235 46.7888 20.6576 45.8707 21.1528 44.9471C21.2474 44.7746 21.3865 44.6299 21.4644 44.5242C22.2434 44.9137 22.9667 45.2754 23.6844 45.637C23.5008 46.0098 23.2838 46.3715 23.1447 46.7609C22.8498 47.5789 22.5995 48.419 22.3268 49.2481C22.2434 49.3593 22.0987 49.4595 22.082 49.5819C21.993 50.1327 21.9652 50.6836 22.1821 51.2177C22.4437 51.8576 22.8109 51.9911 23.4507 51.674C23.4897 51.7797 23.5565 51.8798 23.562 51.98C23.6177 52.5308 23.8625 53.0149 24.1796 53.4433C24.5302 53.9107 24.8918 54.4003 25.5373 54.5061C25.7264 54.6452 25.9323 54.7676 26.1048 54.9234C26.4831 55.2683 26.8337 55.6411 27.3456 55.8025C27.4791 55.847 27.6015 55.9471 27.7072 56.0417C27.9966 56.2921 28.3137 56.3422 28.6809 56.2476C29.3653 56.064 29.9662 55.7524 30.4725 55.2461C30.7118 55.0068 30.8843 54.6674 31.2793 54.6173C31.5798 54.6674 31.7578 54.4616 31.9414 54.2891C32.4366 53.8273 32.7427 53.2486 32.993 52.631C33.1321 52.5531 33.3158 52.503 33.3992 52.3862C33.9111 51.6684 34.2839 50.9006 34.2449 49.9881C34.2283 49.6042 34.1949 49.2202 34.1337 48.8363C34.0113 48.0963 33.8777 47.3619 33.5216 46.6775C33.3603 46.3937 33.3269 46.0321 33.2379 45.6982Z" fill="#FF8F98"/>
<path d="M34.9219 56.8449C35.0888 55.7043 35.1667 54.547 35.5617 53.4453C35.8066 54.5748 35.6897 55.6987 35.6229 56.8171C35.6062 56.8338 35.5896 56.8505 35.5784 56.8727C35.3614 56.8616 35.1389 56.8561 34.9219 56.8449Z" fill="#703C40"/>
<path d="M39.9141 56.9541C39.9141 56.9208 39.9141 56.8874 39.9196 56.854C40.1644 56.8429 40.4093 56.8317 40.6541 56.8262C40.4538 57.1266 40.1644 56.9319 39.9141 56.9541Z" fill="#B2AFA6"/>
<path d="M17.2124 56.848C17.2179 56.8814 17.2179 56.9148 17.2179 56.9538C16.962 56.9426 16.6782 57.1262 16.4668 56.8369C16.7172 56.8369 16.9676 56.8425 17.2124 56.848Z" fill="#B2AFA6"/>
<path d="M30.3554 11.0033C30.0995 10.981 29.838 10.9588 29.582 10.9365C29.838 10.9588 30.0939 10.981 30.3554 11.0033Z" fill="#E6A872"/>
<path d="M22.0192 56.8759C22.0248 56.9037 22.0248 56.9371 22.0248 56.9649C21.8022 56.9593 21.5741 56.9482 21.3516 56.9426C21.3516 56.9037 21.3571 56.8703 21.3683 56.8369C21.5797 56.848 21.7967 56.8592 22.0192 56.8759Z" fill="#B2AFA6"/>
<path d="M34.9232 56.8438C35.1402 56.8549 35.3628 56.8604 35.5798 56.8716C35.3572 56.8994 35.1347 56.9272 34.9121 56.955C34.9121 56.9161 34.9121 56.8771 34.9232 56.8438Z" fill="#B2AFA6"/>
<path d="M21.0788 43.6064C21.0565 43.651 21.0398 43.6955 21.0176 43.74C21.0343 43.701 21.0565 43.6565 21.0788 43.6064Z" fill="#B2AFA6"/>
<path d="M47.2195 10.9481C47.214 10.898 47.2084 10.8479 47.1973 10.7979C47.2028 10.8479 47.2084 10.898 47.2195 10.9481Z" fill="#B2AFA6"/>
<path d="M16.5343 56.1865C16.5287 56.2366 16.5231 56.2811 16.5176 56.3312C16.5231 56.2811 16.5287 56.231 16.5343 56.1865Z" fill="#B2AFA6"/>
<path d="M40.6146 56.5466C40.6035 56.5188 40.5868 56.491 40.5812 56.4576C40.5756 56.4465 40.5923 56.4242 40.5923 56.4131C40.609 56.4409 40.6257 56.4687 40.6369 56.5021C40.6369 56.5132 40.6202 56.5299 40.6146 56.5466Z" fill="#B2AFA6"/>
<path d="M10.8032 13.7157C10.8088 13.5989 10.8144 13.4876 10.8199 13.3708C10.8533 13.343 10.8589 13.3151 10.8422 13.2762C10.9256 11.5513 11.1871 9.85431 11.5544 8.17398C11.6935 7.52855 11.9327 6.89982 12.1998 6.29891C12.3945 5.85378 12.606 5.78145 13.0566 5.96506C13.6186 6.18762 14.1861 6.438 14.698 6.76072C16.4841 7.86796 18.0865 9.21445 19.5777 10.6889C19.9338 11.0395 20.2899 11.3955 20.6348 11.7572C20.824 11.952 20.9909 12.1689 21.1634 12.3748C20.9075 12.6419 20.6905 12.87 20.4679 13.0981C20.4902 13.1371 20.5124 13.1705 20.5403 13.2094C22.6713 12.4694 24.8412 11.8963 27.1058 11.8073C28.1129 11.8073 29.1255 11.8129 30.1326 11.8129C32.1245 11.9019 34.0497 12.3136 35.9192 12.9757C36.1195 13.0481 36.3254 13.1093 36.5869 13.1983C36.509 12.6808 36.0694 12.6085 35.8191 12.2914C36.5479 11.607 37.2657 10.8948 38.0224 10.2327C39.3355 9.08648 40.7154 8.02932 42.2121 7.13907C42.941 6.70508 43.7088 6.33229 44.4934 6.00958C45.1555 5.73694 45.5116 5.98176 45.723 6.67726C46.157 8.11834 46.3629 9.59281 46.4964 11.0895C46.6912 13.2372 46.6133 15.3794 46.3406 17.5104C46.1626 18.9181 45.9122 20.3202 45.4504 21.6834C45.1444 21.3997 44.7048 20.5651 44.4099 19.7138C44.46 19.6637 44.5323 19.6192 44.549 19.558C44.9941 17.733 45.2 15.8857 45.2445 14.0106C45.2723 12.7198 45.1777 11.4345 44.9941 10.1603C44.894 9.47596 44.7994 8.77489 44.4488 8.15172C44.1595 7.87909 43.8869 8.05157 43.6755 8.23518C43.03 8.78602 42.3679 9.32573 41.7837 9.94334C40.8378 10.9393 40.0588 12.0688 39.4802 13.3207C39.3244 13.6545 39.202 14.0051 39.0907 14.3556C38.9572 14.7896 39.0072 14.9565 39.2465 15.0901C39.5247 15.2514 39.686 15.0289 39.8808 14.8953C40.3426 14.5893 40.8044 14.2888 41.2774 14.0051C41.4443 13.9049 41.6446 13.8715 41.9395 13.7658C41.8783 14.0607 41.8783 14.2666 41.7948 14.4279C41.5667 14.8508 41.3219 15.2681 41.0437 15.652C40.8712 15.8968 40.8545 16.0582 41.0715 16.2752C41.4276 16.6257 41.7447 17.0152 42.1008 17.3657C42.8575 18.1169 43.464 18.9849 43.8924 19.9474C44.332 20.9378 44.6603 21.9783 45.0108 23.0077C45.4337 24.2651 45.7898 25.5504 46.2516 26.7912C46.7802 28.2211 47.6203 29.4118 49.1616 29.9849C48.6107 30.7806 47.9264 31.3147 46.9972 31.4984C46.8191 31.5373 46.6244 31.5484 46.463 31.6263C46.3517 31.682 46.2182 31.8322 46.2126 31.9435C46.2071 32.0492 46.3351 32.2161 46.4408 32.2606C46.7134 32.3663 47.0083 32.4164 47.2976 32.4888C47.5257 32.55 47.7539 32.6112 48.0822 32.6946C47.7539 33.1676 47.4812 33.5904 47.1808 33.9855C46.3963 35.0204 45.5005 35.9551 44.4934 36.7619C43.7478 37.3573 42.941 37.8747 42.1398 38.3977C41.1216 39.0599 40.0199 39.5606 38.896 40.028C37.4549 40.6289 35.9748 41.0907 34.4614 41.4524C33.5879 41.6638 32.6921 41.7918 31.8018 41.9476C31.4235 42.0144 31.0396 42.0366 30.6612 42.0756C30.2217 42.1034 29.7821 42.1312 29.3425 42.159C29.0087 42.159 28.6693 42.159 28.3354 42.159C27.8569 42.1368 27.3784 42.1089 26.8999 42.0867C26.7052 42.0756 26.516 42.0644 26.3213 42.0533C26.0709 42.0255 25.8205 41.9977 25.5701 41.9698C22.5989 41.6193 19.7446 40.8459 16.996 39.6441C15.4158 38.9541 13.9691 38.0528 12.6338 36.9845C11.215 35.8494 10.0187 34.4974 9.03386 32.9617C8.99491 32.9005 8.97822 32.8282 8.94484 32.7391C9.33432 32.5166 9.75718 32.4776 10.1634 32.3997C10.436 32.3497 10.7977 32.3497 10.831 32.0325C10.8756 31.643 10.4416 31.6541 10.1912 31.5484C9.89072 31.4205 9.54019 31.3982 9.23973 31.2702C8.64438 31.0143 8.13249 30.6471 7.83203 30.0016C9.37883 29.423 10.1856 28.1766 10.8143 26.7912C11.0981 26.168 11.3151 25.517 11.5154 24.866C11.8103 23.9146 11.9717 22.9131 12.3556 22.0006C13.2013 20.0031 14.2362 18.1058 15.8665 16.6035C16.0668 16.4143 16.256 16.214 16.4674 16.0026C16.0779 15.3738 15.3657 14.951 15.3935 14.0329C16.0278 14.2221 16.5342 14.5058 17.0238 14.823C17.1184 14.8842 17.1963 14.9621 17.2909 15.0233C17.4634 15.1401 17.6525 15.2514 17.8528 15.1067C18.0476 14.9621 18.1088 14.7507 18.0476 14.5114C17.9975 14.3167 17.9474 14.1164 17.8862 13.9216C17.5579 12.8478 17.0182 11.8852 16.3895 10.9671C15.7997 10.1103 15.1432 9.30904 14.3586 8.62466C14.1082 8.40767 13.8189 8.24075 13.5463 8.04601C13.3404 7.90134 13.1679 7.96255 13.0121 8.11834C12.8897 8.58015 12.7451 9.0364 12.6616 9.50935C12.5503 10.1214 12.5559 10.7612 12.3945 11.3622C12.0941 12.4694 12.2332 13.5989 12.1163 14.7117C11.9828 15.9803 12.1887 17.2489 12.3445 18.5119C12.3945 18.9459 12.3166 19.4467 12.6616 19.825C12.3445 20.5261 12.0273 21.2272 11.6656 22.0395C10.8533 19.2742 10.6641 16.559 10.781 13.8048L10.8143 13.7658L10.8032 13.7157ZM19.9894 19.2519C20.3622 19.2241 20.7406 19.1963 21.1134 19.1685C21.347 18.8346 21.3415 18.7512 21.0633 18.5954C20.9409 18.5286 20.7962 18.5008 20.6627 18.4563C20.4067 18.3394 20.1508 18.3283 19.9004 18.4619C18.7041 18.6677 17.4689 19.4912 17.2575 20.3147C17.5357 20.1811 17.7694 20.0977 17.9752 19.9697C18.5984 19.5858 19.2605 19.341 19.9894 19.2519ZM16.6788 33.3734C17.0294 33.4013 17.3799 33.4346 17.7304 33.4513C18.0698 33.468 18.4204 33.6349 18.8377 33.3901C18.6541 33.3011 18.5428 33.2343 18.4259 33.1954C16.8624 32.7336 15.2767 32.5778 13.6687 32.8727C13.4072 32.9227 13.0511 32.9673 12.9064 33.3122C12.9732 33.3456 13.001 33.379 13.0344 33.379C13.2403 33.3846 13.4406 33.379 13.6464 33.379C14.6591 33.379 15.6717 33.379 16.6788 33.3734ZM36.4867 19.2464C37.2768 19.3298 37.989 19.6247 38.6344 20.0754C38.8292 20.209 38.9905 20.2646 39.2687 20.2479C39.1853 20.0921 39.1463 19.9697 39.0684 19.8807C38.4063 19.1407 37.5995 18.6399 36.6091 18.4952C36.2364 18.4396 35.8357 18.4619 35.463 18.5453C35.0846 18.6288 35.0679 18.8458 35.3572 19.1685C35.7356 19.1963 36.1139 19.2186 36.4867 19.2464ZM38.4675 33.4958C38.8069 33.468 39.1408 33.4346 39.4802 33.4068C39.942 33.4012 40.4038 33.379 40.8656 33.3901C41.3386 33.4068 41.8171 33.4958 42.29 33.4791C42.7351 33.468 43.1691 33.724 43.6365 33.5515C43.5809 33.2566 43.3583 33.2343 43.1747 33.1731C41.945 32.7503 40.6709 32.7669 39.3967 32.8838C38.8681 32.9283 38.3507 33.0841 37.8332 33.2121C37.6774 33.251 37.4493 33.2844 37.4883 33.5849C37.8165 33.5515 38.1392 33.5237 38.4675 33.4958ZM37.6886 31.7209C38.4508 31.6764 39.1408 31.4427 39.7139 30.9141C40.4928 30.2631 40.9713 29.4397 41.1438 28.4437C41.1939 28.1544 41.2273 27.8595 41.2495 27.5646C41.2662 27.3365 41.3274 27.1751 41.5778 27.1195C41.7002 27.0917 41.8282 27.036 41.9284 26.9637C42.1843 26.7745 42.4514 26.5853 42.4514 26.1958C42.3568 26.1903 42.2956 26.168 42.2511 26.1847C42.0953 26.2348 41.9395 26.2849 41.7893 26.3516C41.3219 26.5575 41.2774 26.5241 41.1216 26.0178C40.6987 24.6769 39.9587 23.6086 38.6178 23.0132C38.206 22.8296 37.7943 22.7517 37.3659 22.6683C36.1473 22.4401 35.0457 22.7517 34.122 23.5029C32.5752 24.7659 31.9576 26.4907 32.0355 28.4437C32.0633 29.1114 32.2748 29.7791 32.7867 30.291C32.9258 30.3855 33.0649 30.4746 33.204 30.5692C33.9718 31.3481 34.9066 31.7821 35.9915 31.8211C36.5591 31.8433 37.1266 31.7543 37.6886 31.7209ZM23.1442 30.7138C23.2666 30.6025 23.389 30.4913 23.5114 30.38C24.0233 29.857 24.2125 29.2004 24.2626 28.4882C24.2737 28.4771 24.2904 28.4715 24.296 28.4604C24.296 28.4326 24.2904 28.4103 24.2848 28.3825C24.3405 26.819 23.9788 25.3724 22.9606 24.1538C21.3081 22.1786 18.3925 22.0451 16.5453 23.8256C15.8887 24.4599 15.4826 25.2388 15.2377 26.1068C15.1265 26.513 15.043 26.5464 14.6535 26.385C14.52 26.3294 14.392 26.2404 14.2529 26.2014C14.1472 26.1736 14.0248 26.1958 13.83 26.1958C14.0415 26.602 14.264 26.9247 14.6146 27.036C15.0486 27.1751 15.0875 27.4533 15.1209 27.8317C15.2044 28.8276 15.4993 29.7457 16.2281 30.4801C16.8569 31.2591 17.6748 31.6541 18.6652 31.7098C18.7375 31.7154 18.8154 31.7098 18.8877 31.7265C19.5999 31.8767 20.3121 31.8711 21.0299 31.7265C21.82 31.5763 22.5266 31.2424 23.1442 30.7138ZM28.0072 41.6193C29.3704 41.7695 30.689 41.4468 32.0188 41.2576C32.4361 41.1964 32.8367 41.0629 33.2429 40.9461C33.5044 40.8682 33.7604 40.7458 34.0219 40.6734C34.5449 40.5343 34.9678 40.206 35.4296 39.9501C35.68 39.811 35.9359 39.6274 36.1028 39.3993C36.5479 38.7983 36.9374 38.1696 37.0376 37.3795C37.1322 36.6562 36.943 36.1221 36.3476 35.7159C36.2141 35.6213 36.0861 35.51 35.9693 35.3932C35.3739 34.7978 34.8342 34.1468 34.2778 33.5125C33.5879 32.728 32.8868 31.9546 32.1468 31.209C31.0563 30.1129 29.7265 29.6956 28.252 29.6122C27.2505 29.5509 26.3213 29.8681 25.4477 30.3299C24.691 30.7305 24.0623 31.298 23.4947 31.9323C23.0274 32.4554 22.5878 33.0006 22.126 33.5292C21.4305 34.3416 20.7294 35.1484 20.0339 35.9607C19.9672 36.0386 19.8893 36.1499 19.8893 36.25C19.8893 36.8843 19.7279 37.4908 19.9282 38.1585C20.123 38.8206 20.4512 39.3603 20.9186 39.7554C21.564 40.3006 22.3653 40.6345 23.1609 40.9238C23.7062 41.1185 24.296 41.1742 24.8579 41.33C25.648 41.5525 26.4492 41.6527 27.2672 41.6137C27.5231 41.6137 27.7679 41.6193 28.0072 41.6193ZM37.1155 34.6865C37.5161 34.8034 37.8722 34.8701 38.206 35.0037C39.3689 35.4655 40.5262 35.9496 41.6835 36.4225C41.8894 36.506 42.0786 36.684 42.3679 36.5171C42.29 36.417 42.2455 36.3391 42.1843 36.2778C42.0953 36.1888 42.0007 36.0942 41.895 36.0219C40.7377 35.2819 39.4691 34.8145 38.1337 34.5252C37.8277 34.464 37.4771 34.3861 37.1155 34.6865ZM19.0658 34.6865C18.7486 34.4306 18.2757 34.4584 17.2018 34.7477C15.8554 35.1094 14.4198 35.9718 14.1639 36.6506C15.0041 36.2612 15.7719 35.8772 16.562 35.5601C17.3632 35.2429 18.1922 34.9926 19.0658 34.6865Z" fill="#FF808A"/>
<path d="M22.3145 49.2546C22.5871 48.4256 22.8375 47.591 23.1324 46.7675C23.2715 46.378 23.4885 46.0163 23.6721 45.6436C24.6068 45.8494 25.536 46.0553 26.4708 46.2556C26.6488 46.2945 26.8324 46.2945 27.0161 46.3112C27.4612 46.4503 29.4809 46.4448 29.9093 46.3057C31.0333 46.1833 32.1461 45.9997 33.2366 45.6936C33.3256 46.0275 33.3646 46.3891 33.5204 46.6896C33.8765 47.374 34.01 48.1084 34.1324 48.8484C34.1936 49.2268 34.227 49.6107 34.2437 50.0002C34.2882 50.9127 33.9099 51.6805 33.398 52.3983C33.3145 52.5151 33.1309 52.5652 32.9918 52.6431C32.9974 52.1868 33.27 51.7306 32.9751 51.1575C32.8638 51.4134 32.7748 51.5859 32.7136 51.764C32.3965 52.7043 32.0292 53.6224 31.3615 54.3846C31.3115 54.4458 31.3059 54.546 31.2781 54.6294C30.883 54.6795 30.7106 55.0189 30.4713 55.2582C29.965 55.7645 29.3641 56.0817 28.6797 56.2597C28.3125 56.3599 27.9953 56.3042 27.706 56.0538C27.5947 55.9592 27.4779 55.8591 27.3443 55.8146C26.838 55.6477 26.4819 55.2749 26.1035 54.9355C25.9311 54.7797 25.7252 54.6573 25.536 54.5182C25.447 54.3624 25.3747 54.201 25.2689 54.0564C25.1076 53.8338 24.9128 53.6335 24.7515 53.4109C24.1005 52.504 23.9058 51.458 23.8779 50.373C23.8724 50.1782 23.8612 49.9891 23.8501 49.6775C23.2715 50.2617 23.4217 51.0852 22.8097 51.5748C22.7206 51.3522 22.6093 51.1798 22.5815 50.9906C22.5148 50.59 22.4869 50.1838 22.4369 49.7832C22.4035 49.5996 22.3534 49.4271 22.3145 49.2546Z" fill="#FFB4AC"/>
<path d="M21.9642 42.1502C24.1509 42.6231 26.3264 42.9625 28.5465 42.9681C30.7498 42.9737 32.9142 42.6732 35.1343 42.1279C35.2122 42.6343 35.3123 43.0627 35.3179 43.4911C35.3235 43.6469 35.1398 43.8528 34.9896 43.9696C34.1161 44.6596 33.109 45.0602 32.024 45.2827C30.5495 45.5888 29.0584 45.7056 27.5561 45.611C26.5267 45.5442 25.5085 45.3773 24.5014 45.1214C23.6446 44.9044 22.8767 44.5483 22.1701 44.0086C21.8474 43.7582 21.7417 43.4689 21.7973 43.0905C21.8418 42.8234 21.8919 42.5508 21.9642 42.1502Z" fill="#DD5D3E"/>
<path d="M44.4651 8.14941C44.8156 8.77258 44.9102 9.47921 45.0103 10.158C45.194 11.4322 45.2885 12.7175 45.2607 14.0083C45.2162 15.8834 45.0103 17.7362 44.5652 19.5557C44.5485 19.6169 44.4762 19.6614 44.4261 19.7114C44.1924 19.2886 43.9587 18.8713 43.7251 18.4484C43.3801 17.8308 42.9405 17.2855 42.4231 16.7959C42.3229 16.7013 42.2395 16.5789 42.1171 16.4398C42.4286 16.3007 42.6123 16.501 42.8181 16.5789C42.9572 16.6345 43.1297 16.7403 43.2076 16.5622C43.2577 16.4454 43.2299 16.2117 43.1464 16.1282C42.9517 15.939 42.7068 15.8055 42.462 15.672C42.3396 15.6052 42.1894 15.5885 42.0225 15.544C42.1226 15.3548 42.2228 15.199 42.2951 15.0321C42.3953 14.7929 42.5177 14.5536 42.551 14.3032C42.6623 13.5187 42.3452 12.8788 41.3826 13.2794C40.9263 13.4686 40.4924 13.7246 40.0528 13.9471C40.0305 13.9249 40.0083 13.9026 39.9805 13.8804C40.0695 13.2349 40.4701 12.7342 40.7984 12.2111C41.6719 10.8146 42.7291 9.5738 44.0311 8.55559C44.1924 8.44431 44.3204 8.28851 44.4651 8.14941Z" fill="#E6A872"/>
<path d="M12.6723 19.82C12.3329 19.4416 12.4108 18.9409 12.3551 18.5069C12.1993 17.2494 11.9935 15.9752 12.127 14.7066C12.2439 13.5938 12.1048 12.4588 12.4052 11.3571C12.5666 10.7618 12.561 10.1219 12.6723 9.50429C12.7557 9.03691 12.906 8.57509 13.0228 8.11328C14.3025 9.13706 15.3875 10.3333 16.1887 11.7633C16.5059 12.3252 16.7785 12.915 17.0623 13.4993C17.1569 13.6884 17.2125 13.8999 17.3238 14.2059C17.1124 14.0946 16.99 14.0557 16.9009 13.9778C16.5504 13.6773 16.1387 13.5326 15.6991 13.4436C15.0203 13.3101 14.5696 13.7496 14.7143 14.4284C14.7699 14.6788 14.8868 14.9125 14.9925 15.1518C15.0537 15.302 15.1427 15.4411 15.2373 15.6247C15.037 15.6859 14.8534 15.7193 14.7031 15.7972C14.4806 15.914 14.258 16.0531 14.0744 16.2256C13.991 16.3035 14.0076 16.4816 13.9743 16.6095C14.1078 16.6262 14.2525 16.6819 14.3749 16.6541C14.5974 16.5928 14.8089 16.4816 15.1538 16.3369C15.0481 16.5261 15.0259 16.6095 14.9702 16.6596C14.0243 17.522 13.34 18.5681 12.7724 19.6976C12.7557 19.7421 12.7112 19.781 12.6723 19.82Z" fill="#E6A872"/>
<path d="M30.1382 11.8105C29.1311 11.8105 28.1184 11.8049 27.1113 11.8049C27.217 11.7771 27.3172 11.727 27.4229 11.7214C28.2241 11.7159 29.0309 11.7159 29.8321 11.727C29.9323 11.727 30.0324 11.7826 30.1382 11.8105Z" fill="#B2AFA6"/>
<path d="M29.9031 46.3115C29.4746 46.4506 27.4549 46.4506 27.0098 46.3171C27.9779 46.3115 28.9405 46.3115 29.9031 46.3115Z" fill="#E6DED1"/>
<path d="M26.9102 42.085C27.3887 42.1072 27.8672 42.135 28.3457 42.1573C27.8672 42.135 27.3887 42.1128 26.9102 42.085Z" fill="#DD5D3E"/>
<path d="M29.3535 42.1538C29.7931 42.126 30.2326 42.0981 30.6722 42.0703C30.2326 42.1037 29.7931 42.126 29.3535 42.1538Z" fill="#DD5D3E"/>
<path d="M25.5859 41.9678C25.8363 41.9956 26.0867 42.0234 26.3371 42.0512C26.0811 42.0234 25.8308 41.9956 25.5859 41.9678Z" fill="#DD5D3E"/>
<path d="M10.8407 13.2783C10.8575 13.3175 10.8519 13.3454 10.8184 13.3734C10.824 13.3398 10.8295 13.3063 10.8407 13.2783Z" fill="#8655A7"/>
<path d="M10.8037 13.7158L10.826 13.7606L10.7925 13.7997C10.7813 13.7661 10.7813 13.7382 10.8037 13.7158Z" fill="#8655A7"/>
<path d="M40.0522 13.9564C40.0244 13.9787 39.9966 13.9954 39.9688 14.0176C39.9743 13.9731 39.9743 13.9286 39.9799 13.8896C40.0077 13.9119 40.03 13.9342 40.0522 13.9564Z" fill="#E6A872"/>
<path d="M22.315 49.2549C22.354 49.4274 22.4041 49.5998 22.4263 49.7779C22.482 50.1785 22.5042 50.5847 22.571 50.9853C22.6044 51.1745 22.7101 51.347 22.7991 51.5695C23.4112 51.0799 23.2609 50.262 23.8396 49.6722C23.8507 49.9838 23.8674 50.1729 23.8674 50.3677C23.8952 51.4582 24.0844 52.4987 24.741 53.4056C24.9023 53.6282 25.0971 53.8285 25.2584 54.0511C25.3641 54.1957 25.4365 54.3571 25.5255 54.5129C24.8801 54.4072 24.5184 53.9231 24.1679 53.4501C23.8507 53.0217 23.6059 52.5377 23.5503 51.9868C23.5391 51.8811 23.4779 51.7809 23.439 51.6808C22.7991 51.9979 22.4319 51.8644 22.1704 51.2245C21.9534 50.6904 21.9812 50.1396 22.0702 49.5887C22.0869 49.4663 22.2316 49.3662 22.315 49.2549Z" fill="#703C40"/>
<path d="M22.0191 56.878C21.8021 56.8668 21.5851 56.8501 21.3626 56.839C21.3236 55.921 21.2791 55.0029 21.2401 54.0848C21.229 53.8122 21.2624 53.5507 21.4905 53.3281C21.8021 54.491 21.969 55.6761 22.0191 56.878Z" fill="#703C40"/>
<path d="M31.2734 54.6243C31.3013 54.5408 31.3013 54.4407 31.3569 54.3795C32.0246 53.6172 32.3918 52.7047 32.709 51.7588C32.7702 51.5808 32.8592 51.4083 32.9705 51.1523C33.2654 51.7254 32.9927 52.1817 32.9872 52.6379C32.7368 53.2555 32.4308 53.8342 31.9356 54.296C31.7519 54.4741 31.5739 54.6744 31.2734 54.6243Z" fill="#703C40"/>
<path d="M28.0059 41.6214C27.7667 41.6214 27.5218 41.6103 27.2826 41.6214C26.4647 41.6604 25.6635 41.5602 24.8734 41.3377C24.3114 41.1819 23.7216 41.1262 23.1763 40.9315C22.3807 40.6477 21.5739 40.3083 20.934 39.7631C20.4667 39.368 20.1384 38.8283 19.9437 38.1662C19.7489 37.4929 19.9047 36.892 19.9047 36.2577C19.9047 36.1631 19.977 36.0519 20.0494 35.9684C20.7449 35.1561 21.4459 34.3493 22.1414 33.5369C22.5977 33.0028 23.0428 32.4631 23.5102 31.9401C24.0722 31.3058 24.7009 30.7382 25.4632 30.3376C26.3367 29.8758 27.2659 29.5587 28.2674 29.6199C29.7419 29.7089 31.0661 30.1262 32.1622 31.2167C32.9023 31.9567 33.6033 32.7357 34.2933 33.5202C34.8497 34.1545 35.3894 34.8055 35.9847 35.4009C36.1016 35.5177 36.224 35.629 36.3631 35.7236C36.9584 36.1298 37.1476 36.6639 37.053 37.3872C36.9473 38.1773 36.5634 38.8005 36.1183 39.407C35.9513 39.6351 35.6954 39.8187 35.445 39.9578C34.9832 40.2082 34.5603 40.542 34.0373 40.6811C33.7702 40.7535 33.5199 40.8759 33.2583 40.9538C32.8522 41.0706 32.446 41.2041 32.0343 41.2653C30.6878 41.4545 29.3635 41.7717 28.0059 41.6214ZM30.4708 35.9628C31.144 35.8404 31.667 35.4843 32.0676 34.9502C32.2067 34.7666 32.2902 34.5329 32.3458 34.3048C32.3681 34.2157 32.2624 34.021 32.1845 34.0043C32.0732 33.982 31.923 34.0488 31.8228 34.1267C31.7282 34.199 31.6559 34.3215 31.6058 34.4383C31.3443 35.0503 30.7935 35.2785 30.2204 35.3842C29.2077 35.5678 28.5289 34.9057 28.3509 33.8263C28.3119 33.5981 28.4177 33.4702 28.6291 33.3589C29.3969 32.9471 29.8587 32.2572 30.2427 31.5228C29.9144 31.0109 29.447 30.8606 28.9407 30.8384C28.4733 30.8217 28.0115 30.7883 27.5385 30.8161C27.1045 30.8384 26.7095 30.933 26.3311 31.1221C25.9083 31.3391 25.8359 31.5339 26.1086 31.9734C26.5314 32.6411 27.1268 33.153 27.8 33.5926C27.8 33.7539 27.8 33.9208 27.8 34.0878C27.8 34.4606 27.6331 34.7833 27.366 35.0003C26.5314 35.6791 25.4298 35.5288 24.7454 34.672C24.6174 34.5162 24.5117 34.3381 24.3893 34.1824C24.2725 34.0321 24.1167 33.8875 23.9219 34.0099C23.7105 34.1378 23.755 34.3326 23.8607 34.5385C24.278 35.3174 24.9123 35.7904 25.7747 35.974C26.1141 36.1353 26.4591 36.1409 26.7985 35.974C27.3438 35.8794 27.7555 35.5511 28.1506 35.1449C28.5122 35.5734 28.9128 35.8961 29.447 35.974C29.7864 36.1242 30.1314 36.1298 30.4708 35.9628Z" fill="#FFB4AC"/>
<path d="M32.7869 30.2907C32.2751 29.7788 32.0636 29.1112 32.0358 28.4435C31.9579 26.4849 32.5755 24.7601 34.1223 23.5026C35.0459 22.7515 36.1532 22.4399 37.3661 22.668C37.7946 22.7459 38.2119 22.8294 38.618 23.013C39.959 23.6083 40.699 24.6766 41.1218 26.0176C41.2832 26.5239 41.3277 26.5573 41.7895 26.3514C41.9398 26.2846 42.0955 26.2346 42.2513 26.1845C42.2959 26.1678 42.3571 26.19 42.4516 26.1956C42.4516 26.5851 42.1846 26.7743 41.9286 26.9634C41.8285 27.0358 41.7005 27.0914 41.5781 27.1192C41.3277 27.1749 41.2665 27.3362 41.2498 27.5644C41.2276 27.8592 41.1942 28.1541 41.1441 28.4435C40.9716 29.4394 40.4931 30.2629 39.7141 30.9139C39.6641 30.7581 39.6084 30.6023 39.5584 30.441C39.6084 30.3853 39.6529 30.3297 39.703 30.274C39.7364 30.1961 39.7754 30.1238 39.8087 30.0459C40.4097 29.2614 40.5821 28.3544 40.5543 27.3919C40.5321 27.2416 40.5042 27.0859 40.482 26.9356C40.2316 25.5057 39.486 24.4541 38.1395 23.8587C37.3828 23.5249 36.6094 23.5416 35.8193 23.7196C35.658 23.7586 35.5022 23.8031 35.3408 23.842C35.3464 23.8643 35.352 23.8865 35.3631 23.9088C35.7359 23.9088 36.1087 23.9088 36.4815 23.9088C37.5497 24.0924 38.3009 24.7156 38.7683 25.6615C39.2579 26.6463 39.3358 27.709 39.0131 28.7439C38.5513 30.2184 37.7167 30.9807 36.3201 31.1643C34.6398 31.3813 33.3155 30.3241 32.9038 29.0499C32.8704 28.794 32.8315 28.5381 32.7981 28.2877C32.7981 27.9093 32.7981 27.531 32.7981 27.1526C32.5811 27.5032 32.5143 27.8704 32.6367 28.2654C32.6645 28.5269 32.6979 28.7884 32.7257 29.0499C32.7424 29.1223 32.7591 29.2002 32.7703 29.2725C32.7647 29.2836 32.748 29.3059 32.7536 29.3115C32.7647 29.3337 32.7869 29.356 32.8036 29.3782C32.8481 29.5952 32.8871 29.8178 32.9316 30.0348C32.876 30.1294 32.8315 30.2073 32.7869 30.2907ZM34.8512 25.0494C34.317 25.0439 33.9164 25.4222 33.9109 25.9285C33.9109 26.3792 34.2336 26.7131 34.6731 26.7131C35.1183 26.7131 35.5578 26.2735 35.569 25.8228C35.5801 25.3499 35.3074 25.055 34.8512 25.0494Z" fill="#4E3429"/>
<path d="M16.2223 30.4942C15.4934 29.7654 15.1985 28.8417 15.1151 27.8458C15.0817 27.4674 15.0483 27.1892 14.6087 27.0501C14.2582 26.9388 14.0357 26.6161 13.8242 26.2099C14.0245 26.2099 14.1414 26.1877 14.2471 26.2155C14.3862 26.2545 14.5142 26.3435 14.6477 26.3991C15.0372 26.5605 15.1206 26.5271 15.2319 26.1209C15.4767 25.2474 15.8829 24.4684 16.5395 23.8397C18.3867 22.0536 21.3023 22.1927 22.9548 24.168C23.973 25.3865 24.3346 26.8331 24.279 28.3966C24.2734 28.43 24.2623 28.4634 24.2568 28.4968C24.2011 29.2034 24.0175 29.8599 23.5056 30.3885C23.45 30.3496 23.3888 30.3162 23.3331 30.2772C23.3498 30.2049 23.3609 30.1326 23.3776 30.0603C23.3999 29.9879 23.4221 29.9156 23.4444 29.8377C23.4834 29.6596 23.5279 29.4816 23.5668 29.3035C23.6113 29.0365 23.6558 28.7694 23.6948 28.5023C23.8116 28.3131 23.8228 28.124 23.6892 27.9404L23.6614 27.9459C23.6614 27.6844 23.6614 27.4285 23.6614 27.167C23.6225 26.9722 23.5779 26.783 23.539 26.5883C23.4945 26.5994 23.45 26.6106 23.4055 26.6217C23.45 26.8053 23.4945 26.9833 23.5446 27.167C23.5557 27.4285 23.5668 27.69 23.5779 27.9515C23.5279 28.3131 23.4778 28.6804 23.4222 29.042C22.977 30.1604 22.2815 31.0061 21.0018 31.1842C20.7013 31.1842 20.4009 31.1842 20.0949 31.1897C18.37 30.995 17.0124 29.4927 17.2294 27.1948C17.3574 25.8038 18.3533 24.1012 20.4343 23.9176C20.5956 23.9176 20.757 23.9176 20.9183 23.9176C20.9183 23.8953 20.9183 23.8731 20.9183 23.8508C20.8238 23.8174 20.7292 23.7785 20.6346 23.7451C19.4606 23.4279 18.3645 23.6004 17.4074 24.3516C15.6659 25.7259 15.3432 28.4968 16.6897 30.2661C16.545 30.3384 16.3837 30.4163 16.2223 30.4942ZM19.9391 25.0526C19.3938 25.0526 19.021 25.4032 19.0154 25.9262C19.0099 26.3824 19.3159 26.7163 19.7499 26.7163C20.2451 26.7163 20.6902 26.2545 20.6791 25.7426C20.6735 25.2974 20.412 25.0582 19.9391 25.0526Z" fill="#4E3429"/>
<path d="M16.701 30.266C15.3545 28.4966 15.6772 25.7257 17.4188 24.3514C18.3758 23.6003 19.4719 23.4278 20.6459 23.7449C20.5791 23.8006 20.5123 23.8618 20.44 23.9174C18.3591 24.101 17.3687 25.8036 17.2351 27.1946C17.0181 29.487 18.3758 30.9893 20.1006 31.1896C20.4011 31.3454 20.7071 31.3342 21.0075 31.184C22.2873 31.006 22.9772 30.1602 23.4279 29.0419C23.478 29.1309 23.528 29.2144 23.5726 29.3034C23.5336 29.4814 23.4891 29.6595 23.4502 29.8375C23.4279 29.9099 23.4056 29.9822 23.3834 30.0601C23.3667 30.1324 23.3556 30.2047 23.3389 30.2771C23.2721 30.4273 23.2109 30.572 23.1441 30.7222C22.5265 31.2508 21.8199 31.5846 21.0242 31.746C20.3065 31.8906 19.5943 31.8962 18.8821 31.746C18.8098 31.7293 18.7374 31.7349 18.6595 31.7293C17.9362 31.3342 17.2574 30.878 16.701 30.266Z" fill="#FFFAF4"/>
<path d="M39.7013 30.2798C39.6512 30.3355 39.6067 30.3911 39.5566 30.4467C39.0837 30.7806 38.6163 31.1144 38.1434 31.4427C37.9987 31.5428 37.8429 31.6319 37.6871 31.7209C37.1196 31.7598 36.5521 31.8433 35.9901 31.821C34.9051 31.7765 33.9704 31.3481 33.2025 30.5691C33.1079 30.3967 33.0133 30.2242 32.9188 30.0517C32.8742 29.8347 32.8353 29.6121 32.7908 29.3951C32.7797 29.3617 32.7685 29.3228 32.7574 29.2894C32.7407 29.2171 32.724 29.1392 32.7129 29.0669C32.7741 29.0669 32.8297 29.0669 32.8909 29.0669C33.3027 30.341 34.6269 31.3982 36.3072 31.1812C37.7094 30.9976 38.544 30.2353 39.0002 28.7608C39.3229 27.7259 39.245 26.6632 38.7554 25.6784C38.2825 24.7325 37.5369 24.1093 36.4686 23.9257C36.2516 23.8645 36.029 23.7977 35.812 23.7365C36.5966 23.5585 37.3755 23.5418 38.1322 23.8756C39.4787 24.471 40.2299 25.5226 40.4747 26.9525C40.497 27.1028 40.5248 27.2585 40.547 27.4088C40.5748 28.3714 40.4024 29.2783 39.8014 30.0628C39.7681 30.124 39.7347 30.2019 39.7013 30.2798Z" fill="#FFFAF4"/>
<path d="M38.467 33.4981C38.1443 33.5259 37.816 33.5537 37.4877 33.5815C37.4544 33.2811 37.6769 33.2477 37.8327 33.2088C38.3502 33.0808 38.8732 32.9306 39.3962 32.8805C40.6648 32.7692 41.939 32.7469 43.1742 33.1698C43.3578 33.231 43.5803 33.2533 43.636 33.5482C43.1742 33.7262 42.7346 33.4647 42.2895 33.4758C41.8165 33.487 41.338 33.3979 40.8651 33.3868C40.4033 33.3701 39.9415 33.3924 39.4797 33.4035C39.1403 33.4369 38.8008 33.4647 38.467 33.4981Z" fill="#703C40"/>
<path d="M35.3559 19.1717C35.0666 18.8434 35.0832 18.6264 35.4616 18.5485C35.8288 18.4706 36.235 18.4483 36.6078 18.4984C37.5982 18.6375 38.405 19.1438 39.0671 19.8839C39.145 19.9729 39.1839 20.0897 39.2674 20.2511C38.9892 20.2733 38.8278 20.2177 38.6331 20.0786C37.9932 19.6335 37.2755 19.333 36.4854 19.2496C36.1126 19.2273 35.7342 19.1995 35.3559 19.1717Z" fill="#703C40"/>
<path d="M13.6463 33.3821C13.4404 33.3821 13.2401 33.3877 13.0342 33.3821C13.0008 33.3821 12.973 33.3488 12.9062 33.3154C13.0509 32.9704 13.407 32.9259 13.6685 32.8758C15.2765 32.5809 16.8623 32.7367 18.4258 33.1985C18.5426 33.2319 18.6483 33.3042 18.8375 33.3933C18.4202 33.6381 18.0697 33.4712 17.7303 33.4545C17.3797 33.4378 17.0292 33.4044 16.6787 33.3766C16.5729 33.3488 16.4728 33.2987 16.3671 33.2931C15.5825 33.2876 14.7924 33.282 14.0079 33.2876C13.8911 33.2987 13.7687 33.3488 13.6463 33.3821Z" fill="#703C40"/>
<path d="M20.663 18.458C20.7965 18.5025 20.9412 18.5303 21.0636 18.5971C21.3418 18.7529 21.3474 18.8419 21.1137 19.1702C20.7409 19.198 20.3625 19.2258 19.9897 19.2537C19.2609 19.3427 18.5987 19.5875 17.9756 19.977C17.7697 20.105 17.536 20.1884 17.2578 20.322C17.4692 19.4985 18.7045 18.6694 19.9007 18.4691C20.1567 18.4636 20.4126 18.458 20.663 18.458Z" fill="#703C40"/>
<path d="M37.1152 34.6879C37.4713 34.3875 37.8274 34.4654 38.1279 34.5321C39.4632 34.8159 40.7318 35.2888 41.8892 36.0289C41.9949 36.0956 42.0895 36.1902 42.1785 36.2848C42.2397 36.346 42.2842 36.4239 42.3621 36.524C42.0783 36.691 41.8836 36.5129 41.6777 36.4295C40.5204 35.9565 39.3631 35.4725 38.2002 35.0106C37.8775 34.8715 37.5158 34.7992 37.1152 34.6879Z" fill="#703C40"/>
<path d="M19.066 34.6887C18.1924 34.9891 17.3634 35.2395 16.5622 35.5622C15.7721 35.8794 15.0042 36.2689 14.1641 36.6528C14.4144 35.974 15.85 35.106 17.202 34.7499C18.2759 34.4661 18.7488 34.4383 19.066 34.6887Z" fill="#703C40"/>
<path d="M16.7012 30.2656C17.2576 30.8777 17.9364 31.3339 18.6597 31.729C17.6693 31.6733 16.8514 31.2727 16.2227 30.4993C16.384 30.4159 16.5454 30.338 16.7012 30.2656Z" fill="#703C40"/>
<path d="M37.6875 31.7214C37.8377 31.6268 37.9935 31.5434 38.1438 31.4432C38.6167 31.1149 39.0896 30.7811 39.557 30.4473C39.6071 30.6031 39.6627 30.7589 39.7128 30.9202C39.1453 31.4432 38.4553 31.6769 37.6875 31.7214Z" fill="#703C40"/>
<path d="M13.6465 33.3798C13.7689 33.352 13.8913 33.2963 14.0081 33.2908C14.7927 33.2852 15.5828 33.2852 16.3673 33.2963C16.473 33.2963 16.5732 33.3464 16.6789 33.3798C15.6718 33.3798 14.6591 33.3798 13.6465 33.3798Z" fill="#B2AFA6"/>
<path d="M32.9206 30.0527C33.0152 30.2252 33.1098 30.3977 33.2044 30.5702C33.0653 30.4756 32.9262 30.3866 32.7871 30.292C32.8316 30.2085 32.8761 30.1306 32.9206 30.0527Z" fill="#5D5D59"/>
<path d="M38.4668 33.4972C38.8062 33.4694 39.14 33.436 39.4795 33.4082C39.14 33.436 38.8006 33.4638 38.4668 33.4972Z" fill="#B2AFA6"/>
<path d="M23.1426 30.7147C23.2093 30.5644 23.2706 30.4198 23.3373 30.2695C23.393 30.3085 23.4542 30.3419 23.5098 30.3808C23.3874 30.4921 23.265 30.6034 23.1426 30.7147Z" fill="#703C40"/>
<path d="M20.6627 18.4584C20.4067 18.4584 20.1563 18.464 19.9004 18.464C20.1563 18.3305 20.4067 18.336 20.6627 18.4584Z" fill="#E6A872"/>
<path d="M24.2617 28.4893C24.2673 28.4558 24.2785 28.4222 24.2841 28.3887C24.2897 28.4166 24.2953 28.439 24.2953 28.4669C24.2953 28.4725 24.2729 28.4837 24.2617 28.4893Z" fill="#8655A7"/>
<path d="M25.7761 35.9674C24.9192 35.7837 24.2793 35.3108 23.862 34.5318C23.7508 34.326 23.7118 34.1312 23.9233 34.0033C24.118 33.8864 24.2738 34.0255 24.3906 34.1757C24.513 34.3371 24.6243 34.5096 24.7467 34.6654C25.4311 35.5222 26.5272 35.6725 27.3674 34.9937C27.6344 34.7767 27.8069 34.4539 27.8014 34.0812C27.8014 33.9142 27.8014 33.7529 27.8014 33.586C27.1281 33.1464 26.5328 32.6345 26.1099 31.9668C25.8317 31.5273 25.904 31.3325 26.3325 31.1155C26.7108 30.9264 27.1059 30.8318 27.5399 30.8095C28.0128 30.7817 28.4746 30.8151 28.942 30.8318C29.4483 30.854 29.9157 31.0043 30.244 31.5161C29.8601 32.2506 29.3982 32.9405 28.6304 33.3523C28.419 33.4691 28.3133 33.5915 28.3522 33.8196C28.5247 34.8991 29.2035 35.5612 30.2217 35.3776C30.7948 35.2719 31.3457 35.0437 31.6072 34.4317C31.6572 34.3148 31.724 34.1924 31.8242 34.1201C31.9243 34.0422 32.0801 33.9754 32.1858 33.9977C32.2637 34.0144 32.3639 34.2091 32.3472 34.2982C32.2915 34.5207 32.2081 34.7544 32.069 34.9436C31.6684 35.4777 31.1453 35.8394 30.4721 35.9562C30.1327 35.9562 29.7933 35.9562 29.4483 35.9562C28.9086 35.8783 28.5136 35.5556 28.1519 35.1272C27.7569 35.5389 27.3507 35.8672 26.7998 35.9562C26.4604 35.9618 26.1155 35.9618 25.7761 35.9674ZM26.7442 31.6219C27.0168 32.156 27.3896 32.5065 27.8459 32.7458C27.985 32.8181 28.2298 32.8404 28.3578 32.768C28.8252 32.5121 29.1701 32.1171 29.5207 31.6219C28.5525 31.3047 27.6734 31.3047 26.7442 31.6219Z" fill="#703C40"/>
<path d="M25.7754 35.9678C26.1148 35.9678 26.4598 35.9678 26.7992 35.9678C26.4598 36.1291 26.1204 36.1291 25.7754 35.9678Z" fill="#B2AFA6"/>
<path d="M29.4473 35.96C29.7867 35.96 30.1261 35.96 30.471 35.96C30.1316 36.1269 29.7867 36.1213 29.4473 35.96Z" fill="#B2AFA6"/>
<path d="M34.8505 25.0518C35.3068 25.0573 35.585 25.3522 35.5683 25.8252C35.5572 26.2758 35.1176 26.7154 34.6725 26.7154C34.2329 26.7154 33.9047 26.3816 33.9102 25.9309C33.9102 25.4301 34.3164 25.0518 34.8505 25.0518Z" fill="#FFFAF4"/>
<path d="M32.6238 28.272C32.4958 27.8769 32.5682 27.5097 32.7852 27.1592C32.7852 27.5375 32.7852 27.9159 32.7852 28.2942C32.7295 28.2887 32.6795 28.2775 32.6238 28.272Z" fill="#5D5D59"/>
<path d="M35.8122 23.7256C36.0292 23.7868 36.2518 23.8536 36.4687 23.9148C36.096 23.9148 35.7232 23.9148 35.3504 23.9148C35.3448 23.8925 35.3393 23.8703 35.3281 23.848C35.495 23.809 35.6508 23.7645 35.8122 23.7256Z" fill="#B2AFA6"/>
<path d="M32.625 28.2715C32.6806 28.277 32.7307 28.2882 32.7864 28.2937C32.8197 28.5497 32.8587 28.8056 32.8921 29.056C32.8309 29.056 32.7752 29.056 32.714 29.056C32.6862 28.7945 32.6528 28.533 32.625 28.2715Z" fill="#E6DED1"/>
<path d="M40.5489 27.3986C40.5266 27.2484 40.4988 27.0926 40.4766 26.9424C40.4988 27.0926 40.5266 27.2428 40.5489 27.3986Z" fill="#B2AFA6"/>
<path d="M39.7031 30.2809C39.7365 30.203 39.7755 30.1306 39.8088 30.0527C39.7699 30.1251 39.7365 30.203 39.7031 30.2809Z" fill="#703C40"/>
<path d="M32.7643 29.2852C32.7754 29.3185 32.7865 29.3575 32.7977 29.3909C32.781 29.3686 32.7587 29.3464 32.7476 29.3241C32.742 29.3185 32.7531 29.2963 32.7643 29.2852Z" fill="#E6DED1"/>
<path d="M19.9393 25.0518C20.4123 25.0518 20.6738 25.2966 20.6793 25.7417C20.6905 26.2536 20.2454 26.7154 19.7502 26.7154C19.3162 26.7154 19.0101 26.3816 19.0157 25.9253C19.0213 25.4079 19.3941 25.0518 19.9393 25.0518Z" fill="#FFFAF4"/>
<path d="M23.5783 29.3007C23.5282 29.2117 23.4781 29.1282 23.4336 29.0392C23.4837 28.6775 23.5337 28.3103 23.5894 27.9486C23.6172 27.9486 23.6506 27.9431 23.6784 27.9431L23.7062 27.9375C23.7062 28.1267 23.7118 28.3103 23.7118 28.4995C23.6617 28.7665 23.6228 29.0336 23.5783 29.3007Z" fill="#E6DED1"/>
<path d="M23.5493 27.1617C23.5047 26.9781 23.4602 26.8 23.4102 26.6164C23.4547 26.6053 23.4992 26.5941 23.5437 26.583C23.5826 26.7777 23.6272 26.9669 23.6661 27.1617C23.6327 27.1672 23.5882 27.1672 23.5493 27.1617Z" fill="#5D5D59"/>
<path d="M21.0124 31.1826C20.7119 31.3328 20.4115 31.3384 20.1055 31.1882C20.4059 31.1882 20.7119 31.1826 21.0124 31.1826Z" fill="#B2AFA6"/>
<path d="M23.5488 27.1592C23.5878 27.1592 23.6267 27.1592 23.6657 27.1647C23.6657 27.4263 23.6657 27.6822 23.6657 27.9437C23.6379 27.9437 23.6045 27.9493 23.5766 27.9493C23.5711 27.6878 23.56 27.4263 23.5488 27.1592Z" fill="#B2AFA6"/>
<path d="M20.4453 23.9157C20.5121 23.86 20.5788 23.7988 20.6512 23.7432C20.7458 23.7765 20.8404 23.8155 20.9349 23.8489C20.9349 23.8711 20.9349 23.8934 20.9349 23.9157C20.768 23.9157 20.6067 23.9157 20.4453 23.9157Z" fill="#B2AFA6"/>
<path d="M23.7067 28.4995C23.7067 28.3103 23.7012 28.1267 23.7012 27.9375C23.8347 28.1211 23.8236 28.3103 23.7067 28.4995Z" fill="#5D5D59"/>
<path d="M26.7441 31.6229C27.6733 31.3058 28.5469 31.3058 29.5206 31.6285C29.1701 32.1181 28.8251 32.5132 28.3577 32.7747C28.2242 32.847 27.9849 32.8247 27.8458 32.7524C27.3896 32.5076 27.0223 32.1571 26.7441 31.6229Z" fill="#E6A872"/>
</g>
<defs>
<clipPath id="clip0_4631_52267">
<rect width="57" height="57" rx="28.5" fill="white"/>
</clipPath>
</defs>
</svg>
