<svg width="57" height="57" viewBox="0 0 57 57" fill="none" xmlns="http://www.w3.org/2000/svg">
<g clip-path="url(#clip0_4631_52514)">
<rect width="57" height="57" rx="28.5" fill="#F6F6FE"/>
<path d="M39.2749 6.75903C39.2511 7.32473 39.2273 7.88449 39.1975 8.50379C39.7632 8.65266 40.3825 8.43233 41.0078 8.38469C41.1329 8.37874 41.2579 8.37874 41.383 8.37279C41.4544 8.37874 41.5318 8.38469 41.6033 8.38469C41.6509 8.38469 41.6926 8.38469 41.7402 8.38469C42.2524 8.46806 42.7645 8.48593 43.2528 8.74198C43.9971 9.12905 44.2651 9.53398 44.0984 10.32C43.9257 11.118 43.6756 11.8802 43.2587 12.5888C43.0205 12.9937 42.7942 13.4106 42.5322 13.887C42.9908 14.012 43.4076 14.1252 43.8244 14.2442C44.7177 14.5003 45.4918 14.9469 46.1409 15.6139C46.6172 16.1022 46.784 16.6619 46.4326 17.2812C46.1945 17.71 45.9563 18.1625 45.6287 18.5139C45.0392 19.1451 44.3782 19.7108 43.7172 20.3301C43.8125 20.4015 43.9614 20.5147 44.1162 20.6159C44.8725 21.1102 45.4799 21.7533 45.992 22.4917C46.123 22.6822 46.1885 22.9204 46.2838 23.1348C46.3076 23.1884 46.3255 23.242 46.3493 23.2956C46.3433 23.4087 46.3433 23.5219 46.3374 23.635C46.3195 23.6886 46.3016 23.7363 46.2838 23.7898C46.1111 24.3436 45.73 24.7367 45.2893 25.082C44.5688 25.6418 43.7887 26.0884 42.9253 26.3921C42.8419 26.4219 42.7704 26.4993 42.6692 26.5707C43.0324 26.9995 43.4076 27.3985 43.7292 27.8332C44.0745 28.2977 44.408 28.78 44.6819 29.2921C44.8784 29.6554 45.0273 30.0662 44.8308 30.495C44.7355 30.7034 44.6343 30.9237 44.4854 31.0905C43.6756 31.9896 42.6335 32.5315 41.508 32.9365C41.4187 32.9662 41.3413 33.0317 41.2579 33.0794C41.24 33.0794 41.2043 33.0794 41.2043 33.0853C41.2043 33.1151 41.2043 33.1449 41.2043 33.1747C41.1924 33.2878 41.1805 33.4009 41.1686 33.5141C41.0971 33.6927 41.2162 33.7463 41.3532 33.7821C42.0737 34.1155 42.8002 34.4311 43.5029 34.7944C43.7947 34.9432 44.0507 35.1814 44.2889 35.4137C44.6581 35.771 44.7772 36.1938 44.6283 36.7059C44.4021 37.4979 43.9793 38.1827 43.5624 38.8734C43.4612 39.0402 43.2766 39.1712 43.4969 39.3677C43.9018 39.3975 44.3068 39.4213 44.7117 39.4511C45.4382 39.5761 46.1706 39.6178 46.8852 39.8322C47.5879 40.0465 47.9988 40.4455 47.9928 41.1184C47.9809 42.2141 47.6891 43.2502 47.2127 44.2566C47.2961 44.3817 47.3914 44.5305 47.4867 44.6853C48.4811 44.7092 49.4398 44.9712 50.3688 45.2987C51.3752 45.6441 51.5895 46.186 51.4228 47.234C51.268 48.1868 50.8869 49.0324 50.4998 49.8899C50.47 49.9613 50.4403 50.0328 50.4164 50.1102C50.4045 50.1459 50.4224 50.1876 50.4224 50.2353C51.4228 50.6045 52.3696 51.0868 53.1973 51.7656C53.4891 52.0098 53.7511 52.2837 53.8166 52.6827C53.8047 52.6946 53.7869 52.7125 53.7928 52.7244C53.8047 52.7541 53.8226 52.778 53.8405 52.8018C53.6678 53.9213 53.1914 54.9217 52.5602 55.8447C53.1199 56.3806 53.6678 56.9106 54.2156 57.4406L54.2216 57.4346C53.9119 57.4346 53.6082 57.4406 53.2986 57.4406C53.0127 57.1726 52.8103 56.7856 52.3398 56.7022C52.3279 56.9761 52.316 57.2084 52.3041 57.4466C52.054 57.4466 51.8039 57.4406 51.5538 57.4406C51.4645 56.8928 51.4049 56.3449 51.2799 55.803C50.5951 52.7482 49.4279 49.8899 47.9214 47.1447C46.653 44.8402 45.0809 42.7619 43.491 40.6897C42.7228 39.6892 41.7879 38.8198 41.1864 37.6944C40.9542 37.2597 40.716 36.819 40.5552 36.3545C40.1741 35.2231 40.1979 34.0381 40.3706 32.8888C40.5433 31.7634 40.847 30.6558 41.109 29.5422C41.2698 28.8574 41.4842 28.1786 41.6211 27.4878C42.0618 25.2726 42.4489 23.0514 42.6275 20.8005C42.6394 20.6397 42.6513 20.479 42.6692 20.3182C42.7645 18.7878 42.6454 17.2753 42.2226 15.7985C41.4127 12.9699 39.8942 10.5761 37.7565 8.56929C37.2622 8.10482 36.7382 7.67012 36.0593 7.36046C36.3392 7.75348 36.6012 8.06909 36.8096 8.42638C37.0061 8.75985 37.1372 9.135 37.292 9.48634C37.1491 9.48634 37.0002 9.48038 36.8573 9.48038C36.2916 8.55738 35.6365 7.70584 34.8088 6.99722C34.124 6.41365 33.3499 6.06827 32.4507 6.01467C32.0517 5.87771 31.6468 5.84198 31.2419 6.00872C30.1581 6.08613 29.1398 6.38387 28.324 7.12227C27.8178 7.58079 27.4129 8.1465 26.9603 8.66457C26.9306 8.71221 26.9008 8.75389 26.8651 8.80153C26.8234 8.87895 26.7757 8.95636 26.7341 9.03973C26.6924 8.91467 26.6447 8.79558 26.6031 8.67053C27.0258 7.41406 27.925 6.55656 29.0564 5.81221C28.9195 5.75266 28.854 5.70502 28.7885 5.69906C28.1573 5.64547 27.532 5.55615 26.9008 5.56806C25.2989 5.59783 24.0901 6.47915 22.9289 7.4617C22.9051 7.37237 22.8813 7.28901 22.8575 7.19968C23.0838 6.59825 23.6673 6.29455 24.1139 5.78243C23.7924 5.69311 23.5363 5.6157 23.2803 5.54424C23.2267 5.53233 23.179 5.51447 23.1254 5.50256C22.9289 5.50851 22.7265 5.48469 22.5359 5.51447C20.4636 5.81221 19.1774 7.97977 19.1595 9.71262C19.3143 9.58162 19.4453 9.47443 19.5823 9.36724C19.5942 9.48634 19.6419 9.60544 19.618 9.71262C19.5942 9.83767 19.5049 9.94486 19.4453 10.064L19.4394 10.0759C19.3263 10.2307 19.2072 10.3915 19.094 10.5463C18.8022 10.975 18.5104 11.4038 18.2306 11.8147C18.8975 12.041 19.5347 12.2613 20.1778 12.4816C20.2076 12.6245 20.2373 12.7675 20.2612 12.9104C20.1599 12.8925 20.0587 12.8746 19.9575 12.8568C19.8741 12.8508 19.7848 12.8449 19.7014 12.8389C18.0519 12.7377 16.4203 12.7615 14.8184 13.2796C13.3178 13.7679 11.8827 14.3812 10.6739 15.4174C10.2154 15.8104 9.86402 16.3284 9.471 16.7989C9.34 16.9537 9.26259 17.1323 9.39359 17.3408C9.92953 18.1863 9.99503 19.1272 9.92953 20.0919C9.84616 20.1455 9.76279 20.205 9.67942 20.2586C9.43528 19.5679 9.18517 18.8712 8.9172 18.1149C8.82193 18.234 8.77429 18.2697 8.75642 18.3174C8.18476 20.0383 8.01207 21.8128 8.17881 23.5993C8.3515 25.4751 9.04821 26.1777 10.8763 26.541C11.3706 26.6422 11.8589 26.7613 12.3591 26.8447C13.4905 27.0293 14.6219 27.2198 15.7593 27.3627C16.7419 27.4759 17.7304 27.5354 18.7189 27.6367C20.5529 27.8213 22.3632 27.6903 24.1497 27.2734C25.9123 26.8625 27.5916 26.2135 29.1636 25.3024C30.301 24.6473 31.2478 23.7898 31.8016 22.5631C31.8731 22.3309 31.7361 22.3428 31.5813 22.3785C31.3907 22.3666 31.2061 22.3488 31.0156 22.3369C31.0215 22.2654 31.0215 22.194 31.0275 22.1284C31.1942 22.0629 31.3491 21.9796 31.5217 21.9438C32.2304 21.789 32.9271 21.789 33.5881 22.1284C33.856 22.2654 34.1121 22.4381 33.9394 22.8133C33.6714 22.7477 33.4094 22.6882 33.1415 22.6167C32.9033 22.5572 32.671 22.4917 32.5519 22.8073C31.7361 24.4985 30.4022 25.6656 28.7647 26.5231C28.4729 26.5529 28.3657 26.7018 28.4729 26.9816C28.318 27.2496 28.1751 27.5235 28.0024 27.7796C27.6213 28.3334 27.1866 28.4465 26.5852 28.1428C26.341 28.0237 26.1088 27.8749 25.8706 27.7439C25.4657 27.7558 25.0488 27.726 24.7987 28.1488C24.6558 28.381 24.5248 28.6192 24.3581 28.8395C23.977 29.3397 23.3636 29.5303 22.792 29.2921C22.4942 29.1671 22.2382 28.9348 21.9642 28.7562C21.5831 28.4227 21.3807 28.4227 21.1127 28.7681C20.9579 28.9705 20.815 29.1909 20.6423 29.3755C19.7371 30.3282 18.6057 30.3521 17.8018 29.3397C17.641 29.1373 17.4922 28.9348 17.3373 28.7324C17.3135 28.4525 17.1766 28.3155 16.8788 28.2977C16.4084 28.2738 15.926 28.256 15.4616 28.1547C14.4254 27.9285 13.3476 27.9404 12.3353 27.595C11.972 27.4699 11.579 27.4342 11.1443 27.3508C11.4301 28.1369 11.8529 28.7383 12.4067 29.2623C13.6811 30.495 15.2353 31.2096 16.9265 31.6383C17.7065 31.8348 18.5045 32.0552 19.3024 32.0968C21.6367 32.2159 23.971 32.0492 26.2934 31.7753C27.9667 31.5788 29.6222 31.2929 31.2181 30.757C32.6115 30.2925 33.8858 29.6077 35.0887 28.7443C36.1367 27.988 37.0717 27.1781 37.7684 26.1182C38.1376 25.5584 38.4174 24.9451 38.739 24.3496C38.8105 24.3496 38.8879 24.3496 38.9593 24.3496C38.7926 24.8855 38.6675 25.4453 38.4472 25.9634C38.2388 26.4397 37.9291 26.8744 37.6612 27.333C37.5242 27.458 37.3813 27.5831 37.2503 27.7141C36.893 28.0714 36.5655 28.4703 36.1725 28.7919C35.2137 29.5839 34.1359 30.1913 33.0224 30.7391C30.2295 32.1087 27.2283 32.5613 24.1675 32.74C24.108 32.8888 24.0425 33.0139 24.0067 33.1449C23.4708 35.0743 22.7681 36.9441 21.9523 38.7722H21.9583C21.9226 38.8139 21.8868 38.8615 21.8571 38.9032C21.8392 38.9747 21.8213 39.0521 21.7975 39.1235C21.5772 39.6833 21.3509 40.2371 21.1246 40.7968C21.0829 40.91 21.0353 41.0172 20.9936 41.1303C20.5946 42.0474 20.1659 42.9585 19.8086 43.8874C19.5287 44.6199 19.3382 45.388 19.1059 46.1383C19.0881 46.186 19.0642 46.2396 19.0464 46.2872C19.0464 46.3944 19.0404 46.4956 19.0404 46.6028C19.0166 46.71 18.9868 46.8231 18.963 46.9303C18.5998 47.0613 18.7486 47.4067 18.701 47.6449C18.4152 48.949 18.1591 50.265 18.1353 51.6049C18.0817 52.1765 18.0281 52.7422 17.9805 53.3139C17.9805 53.427 17.9745 53.5342 17.9745 53.6474C17.9864 54.3679 18.0043 55.0944 18.0162 55.8149C18.0638 56.3628 18.1115 56.9106 18.1532 57.4585L18.1412 57.4823C17.909 57.4823 17.6827 57.4882 17.4505 57.4882C17.4148 57.4763 17.3731 57.4704 17.3373 57.4585C17.2718 57.0476 17.1766 56.6427 17.1408 56.2318C17.1111 55.8983 17.1408 55.5529 17.1468 55.2135C17.1349 55.1599 17.123 55.1123 17.1111 55.0587C17.1111 54.5525 17.117 54.0463 17.117 53.5402C17.1349 53.4925 17.1587 53.439 17.1766 53.3913C17.1646 53.2782 17.1468 53.165 17.1349 53.0519C17.1646 52.6767 17.1944 52.3075 17.2182 51.9264C16.3846 51.3905 15.7176 50.7295 15.271 49.8006C14.9256 50.2353 14.616 50.6045 14.3242 50.9975C13.7644 51.7597 12.6509 51.7359 12.2519 50.7295C12.1685 50.5151 12.0852 50.3067 11.9839 50.0387C11.6505 50.396 11.2872 50.67 10.787 50.5568C10.6024 50.5151 10.4059 50.4615 10.263 50.3484C9.88189 50.0507 9.72706 49.6219 9.68538 49.1574C9.60201 48.2106 9.81043 47.3174 10.2928 46.5016C10.5548 46.0609 10.8466 45.6322 11.1681 45.2332C12.0792 44.1196 13.2702 43.4884 14.6815 43.2621C15.003 43.2621 15.3306 43.2681 15.6521 43.2681C16.7419 43.4527 17.7184 43.8934 18.6117 44.6496C18.8082 44.1137 18.969 43.6135 19.1655 43.1252C19.5585 42.1367 19.9575 41.1541 20.3743 40.1775C20.7197 39.3736 21.1127 38.5876 21.464 37.7897C21.6486 37.3669 21.8273 36.9381 21.9702 36.5034C22.3275 35.4315 22.6729 34.3537 23.0123 33.2759C23.0718 33.0853 23.0302 32.9186 22.7801 32.9067C22.4228 32.734 22.0714 32.7935 21.7141 32.9126C21.47 32.9126 21.2318 32.9126 20.9877 32.9126C20.5172 32.7876 20.0408 32.734 19.5644 32.9067C19.2191 32.8769 18.8618 32.8888 18.5283 32.8055C17.3731 32.5018 16.1881 32.3231 15.0685 31.8586C13.7228 31.2989 12.5556 30.5248 11.5612 29.4708C11.0609 28.9408 10.6917 28.3393 10.4952 27.6367C10.4119 27.333 10.2392 27.1781 9.94739 27.1067C8.87552 26.8566 8.1669 26.142 7.72624 25.1892C7.52973 24.7545 7.44636 24.2365 7.44041 23.7541C7.42254 22.7239 7.43445 21.6937 7.54164 20.6695C7.6786 19.3178 8.02994 18.0137 8.65519 16.7929C9.32213 15.4888 10.2809 14.4646 11.5671 13.7381C12.9963 12.9282 14.5147 12.3685 16.1345 12.0826C16.3965 12.0469 16.6644 12.0112 16.9265 11.9814C17.8614 11.5467 18.2901 10.7726 18.3437 9.78408C18.3794 9.15287 18.439 8.53356 18.6414 7.93213C19.2905 6.00276 20.6363 4.93089 22.655 4.68674C22.8575 4.68674 23.0659 4.68674 23.2683 4.68674C23.715 4.79989 24.1556 4.93685 24.6022 5.02021C24.7987 5.05594 25.0191 5.0083 25.2215 4.96067C25.7992 4.84157 26.3708 4.70461 26.9425 4.5736C27.1449 4.58551 27.3653 4.70461 27.5201 4.46046C28.1156 3.7042 28.8183 3.07298 29.6936 2.65019C30.6285 2.19762 31.492 2.38818 32.0815 3.23972C32.415 3.72802 32.6829 4.26395 32.945 4.79393C33.2963 5.4966 33.8144 5.63356 34.523 5.2465C35.1602 4.90112 35.8271 4.61529 36.4821 4.31159C36.6191 4.24609 36.7858 4.24609 36.9406 4.21036C37.2622 4.21036 37.5897 4.21631 37.9113 4.21631C38.3817 4.40091 38.8105 4.65697 38.9534 5.17504C39.0844 5.64547 39.1499 6.12781 39.2392 6.6042C39.263 6.66375 39.269 6.71139 39.2749 6.75903ZM18.0221 28.6609C18.0936 28.7562 18.1591 28.8515 18.2306 28.9467L18.2187 28.9586C18.3378 29.0837 18.439 29.2326 18.57 29.3397C19.1417 29.7745 19.5883 29.7209 20.0944 29.1611C20.1837 29.0658 20.285 28.9825 20.3862 28.8991C20.4398 28.7979 20.4874 28.6907 20.5768 28.512C19.8205 28.512 19.1655 28.512 18.5104 28.512C18.3497 28.4823 18.1889 28.4167 18.0341 28.4346C17.8971 28.4525 17.8971 28.5716 18.0221 28.6609ZM16.98 44.5543C16.9324 44.5305 16.8848 44.5127 16.8371 44.4888C16.0451 43.9767 15.1876 43.8695 14.2885 44.1018C12.2757 44.6258 11.0193 45.9061 10.5191 47.9248C10.4952 48.0498 10.4774 48.1808 10.4536 48.3059C10.4476 48.3773 10.4416 48.4428 10.4357 48.5143C10.4357 48.5619 10.4357 48.6096 10.4357 48.6572C10.525 49.0562 10.5488 49.479 10.9418 49.7708C11.5433 49.4373 11.9601 48.9788 12.1983 48.3297C12.3293 47.9665 12.5199 47.6032 12.7462 47.2876C12.9844 46.9601 13.3119 46.7219 13.8121 46.6802C12.6271 47.5318 12.1864 50.1519 13.3178 50.7474C13.5382 50.5568 13.8061 50.3603 14.0265 50.1221C14.7172 49.3599 15.3782 48.5739 16.2059 47.9486C16.325 47.8593 16.4084 47.7104 16.5096 47.5913C16.5989 47.5556 16.6823 47.5258 16.8848 47.4484C16.7835 47.7104 16.7538 47.8831 16.6585 48.0201C16.4918 48.2642 16.3131 48.5084 16.1047 48.7168C15.8724 48.949 15.801 49.1872 15.9915 49.4552C16.2714 49.8601 16.5692 50.2591 16.8788 50.6402C16.9622 50.7474 17.1289 50.7891 17.2718 50.8784C17.5696 49.4075 17.8554 47.9903 18.1472 46.579C18.3616 45.5488 18.5343 45.5131 17.379 44.7509C17.2659 44.6734 17.1289 44.6318 17.0039 44.5782C17.0098 44.5782 16.98 44.5543 16.98 44.5543ZM42.1452 12.9163C42.1988 12.8568 42.2583 12.8091 42.3 12.7436C42.7823 12.0529 43.0265 11.2609 43.2587 10.4629C43.4731 9.73049 43.3302 9.41488 42.5918 9.26006C42.0142 9.14096 41.4187 9.04568 40.8351 9.08141C40.454 9.10523 40.0074 8.99804 39.6918 9.26601C40.5195 10.4868 41.3174 11.6777 42.1452 12.9163ZM43.747 19.2284C44.6105 18.6806 45.3131 18.0137 45.6823 17.0192C45.8491 16.5726 45.724 16.251 45.4025 15.9592C44.7593 15.3816 43.9971 15.0124 43.1813 14.7504C43.086 14.7206 42.961 14.7564 42.8717 14.7623C43.1634 16.257 43.4493 17.7159 43.747 19.2284ZM42.8359 25.5227C42.9491 25.5227 43.0324 25.5465 43.0979 25.5167C43.878 25.2011 44.5867 24.7664 45.1643 24.165C45.6168 23.6886 45.6823 23.5159 45.3191 22.843C44.9916 22.2416 44.4854 21.795 43.9852 21.3484C43.878 21.2531 43.7172 21.2114 43.5207 21.1221C43.2885 22.6227 43.0682 24.0578 42.8359 25.5227ZM41.2341 34.4371C41.0138 35.8127 41.9665 37.873 42.8955 38.4685C43.3897 38.0219 43.6637 37.4324 43.9376 36.8428C44.1817 36.3129 44.0507 35.8901 43.5565 35.5804C43.2051 35.3601 42.8478 35.1517 42.4786 34.9671C42.0797 34.7765 41.6628 34.6217 41.2341 34.4371ZM41.3651 32.1802C42.3417 31.9182 43.1099 31.4358 43.7708 30.8106C44.0984 30.5009 44.2294 30.0722 43.9912 29.6137C43.6041 28.8812 43.1754 28.1845 42.4906 27.595C42.4191 27.8094 42.3417 27.9642 42.306 28.1309C41.9903 29.4469 41.6926 30.763 41.3651 32.1802ZM38.4651 8.02145C38.7509 7.19373 38.6378 6.42556 38.4413 5.66334C38.34 5.26436 38.084 4.96067 37.6076 4.95471C36.625 4.93685 35.7914 5.30605 34.916 5.90153C36.2082 6.52679 37.4111 7.11036 38.4651 8.02145ZM47.8916 45.394C48.7193 46.7576 49.2374 48.0975 50.0353 49.3837C50.4343 48.5322 50.7201 47.764 50.8571 46.9422C50.9166 46.5849 50.7737 46.2515 50.4462 46.1145C49.9162 45.9001 49.3743 45.7274 48.8265 45.5607C48.5704 45.4833 48.2965 45.4595 47.8916 45.394ZM46.7423 43.5897C47.0877 42.8096 47.2068 42.0831 47.3259 41.3506C47.3914 40.9457 47.1413 40.7552 46.8138 40.5884C45.9563 40.1537 45.0273 40.0704 43.9554 39.987C45.0094 41.1482 45.7002 42.4523 46.7423 43.5897ZM50.8511 51.1761C51.2561 52.5576 51.5955 53.9332 52.1076 55.3683C52.5899 54.5763 52.983 53.9034 53.2033 53.1353C53.2926 52.8197 53.2212 52.5755 53.0068 52.3849C52.3994 51.8192 51.6491 51.4798 50.8511 51.1761ZM32.2899 5.01426C32.0696 4.59742 31.9088 4.24609 31.7004 3.91857C31.2002 3.12062 30.8905 3.01939 30.033 3.40645C29.384 3.69824 28.8183 4.10913 28.3836 4.7582C28.8718 4.8773 29.3066 4.98449 29.7413 5.08572C29.9735 5.13931 30.2057 5.20481 30.438 5.1929C31.0096 5.16313 31.5753 5.08572 32.2899 5.01426ZM27.9846 26.8804C27.4308 27.0948 26.9306 27.2913 26.4244 27.4878C26.609 27.7855 26.8651 27.9701 27.1747 27.8927C27.6511 27.7796 27.8714 27.4044 27.9846 26.8804ZM22.4823 28.4465C23.1135 29.1611 23.8281 29.048 24.1973 28.1369C23.6137 28.2441 23.054 28.3453 22.4823 28.4465Z" fill="#061926"/>
<path d="M18.1474 57.4593C18.0998 56.9114 18.0521 56.3636 18.0104 55.8157C17.9985 55.0952 17.9807 54.3687 17.9688 53.6482C17.9688 53.535 17.9747 53.4279 17.9747 53.3147C18.3022 53.1956 18.0283 52.8383 18.2069 52.6895C18.7488 53.0944 19.2609 53.5172 19.8147 53.8864C21.1963 54.8094 22.7564 55.1964 24.3821 55.3155C25.2039 55.3751 26.0375 55.3334 26.8653 55.3155C27.026 55.3096 27.1809 55.2203 27.3417 55.1667C27.4429 55.2858 27.5382 55.4108 27.6454 55.524C28.1575 56.0599 28.616 56.0242 29.0686 55.4346C29.2948 55.1369 29.533 54.8511 29.7653 54.5593C29.7891 54.5771 29.8129 54.601 29.8367 54.6188C29.8248 54.8153 29.8189 55.0118 29.807 55.2143C29.7712 55.917 30.0511 56.4827 30.5751 56.9412C30.9622 57.2747 31.1825 57.2985 31.6232 57.0246C31.8256 56.8995 32.0043 56.7447 32.1948 56.6018C32.2782 56.8876 32.3616 57.1734 32.4509 57.4593C32.3139 57.4652 32.171 57.4712 32.0341 57.4712C28.5207 57.4712 25.0133 57.4712 21.5 57.4712C20.4698 57.4712 19.4396 57.489 18.4094 57.501C18.326 57.4831 18.2367 57.4712 18.1474 57.4593Z" fill="#63C2E3"/>
<path d="M19.5879 32.9125C20.0643 32.7398 20.5347 32.7934 21.0111 32.9185C20.5347 32.9185 20.0583 32.9125 19.5879 32.9125Z" fill="#5D5D59"/>
<path d="M21.7324 32.9184C22.0838 32.7993 22.441 32.7398 22.7983 32.9125C22.447 32.9125 22.0897 32.9184 21.7324 32.9184Z" fill="#5D5D59"/>
<path d="M15.664 43.2628C15.3424 43.2628 15.0149 43.2568 14.6934 43.2568C15.0209 43.1139 15.3424 43.1139 15.664 43.2628Z" fill="#B2AFA6"/>
<path d="M37.9296 4.22793C37.6081 4.22793 37.2805 4.22197 36.959 4.22197C37.2865 4.05524 37.6081 4.05524 37.9296 4.22793Z" fill="#B2AFA6"/>
<path d="M16.9443 11.9883C16.6823 12.024 16.4144 12.0597 16.1523 12.0895C16.4144 12.0597 16.6764 12.024 16.9443 11.9883Z" fill="#8655A7"/>
<path d="M27.5386 4.47266C27.3897 4.7168 27.1634 4.59771 26.9609 4.5858C27.1515 4.55007 27.342 4.50839 27.5386 4.47266Z" fill="#B2AFA6"/>
<path d="M23.2872 4.69872C23.0847 4.69872 22.8763 4.69872 22.6738 4.69872C22.8763 4.5558 23.0847 4.56175 23.2872 4.69872Z" fill="#FBB9BE"/>
<path d="M41.3584 33.7895C41.2214 33.7537 41.1023 33.7061 41.1738 33.5215C41.2393 33.6168 41.2988 33.7061 41.3584 33.7895Z" fill="#B2AFA6"/>
<path d="M17.1354 53.0459C17.1473 53.159 17.1652 53.2722 17.1771 53.3853C17.1473 53.3913 17.1235 53.4032 17.0938 53.4151C17.1057 53.296 17.1176 53.1709 17.1354 53.0459Z" fill="#B2AFA6"/>
<path d="M41.383 8.37339C41.2579 8.37934 41.1329 8.37934 41.0078 8.3853C41.1329 8.25429 41.2579 8.24834 41.383 8.37339Z" fill="#FBB9BE"/>
<path d="M17.0938 53.4136C17.1235 53.4017 17.1473 53.3957 17.1771 53.3838C17.1593 53.4314 17.1354 53.485 17.1176 53.5327C17.1057 53.4969 17.0997 53.4552 17.0938 53.4136Z" fill="#5D5D59"/>
<path d="M46.3428 23.3004C46.319 23.2468 46.3012 23.1932 46.2773 23.1396C46.3012 23.1932 46.325 23.2468 46.3428 23.3004Z" fill="#5D5D59"/>
<path d="M46.2832 23.7945C46.3011 23.7409 46.3189 23.6932 46.3368 23.6396C46.3189 23.6932 46.3011 23.7468 46.2832 23.7945Z" fill="#5D5D59"/>
<path d="M53.8479 52.8098C53.8299 52.7857 53.8118 52.7616 53.7998 52.7316C53.7938 52.7255 53.8178 52.7075 53.8238 52.6895C53.8419 52.7135 53.8599 52.7376 53.872 52.7676C53.878 52.7737 53.8539 52.7977 53.8479 52.8098Z" fill="#8655A7"/>
<path d="M41.2156 33.1822C41.2156 33.1521 41.2095 33.122 41.2156 33.092C41.2156 33.0859 41.2517 33.0859 41.2697 33.0859C41.2456 33.116 41.2276 33.1521 41.2156 33.1822Z" fill="#B2AFA6"/>
<path d="M17.1113 55.0518C17.1232 55.1054 17.1351 55.153 17.1471 55.2066C17.1292 55.153 17.1173 55.1054 17.1113 55.0518Z" fill="#B2AFA6"/>
<path d="M51.5601 57.439C50.1905 57.4509 48.8269 57.4747 47.4573 57.4747C43.8665 57.4806 40.2817 57.4747 36.6909 57.4747C36.4944 57.4747 36.2979 57.4568 36.1014 57.4449C36.2979 57.3139 36.4944 57.1769 36.6909 57.0578C37.7688 56.4088 38.6858 55.5751 39.4123 54.5449C39.5969 54.2829 39.6803 53.9494 39.8113 53.6457C40.0911 53.0622 40.4365 52.5084 40.633 51.901C41.038 50.6624 41.1213 49.3702 41.032 48.072C41.0439 48.0601 41.0677 48.0422 41.0677 48.0303C41.0618 48.0005 41.0439 47.9708 41.0261 47.941C40.9844 47.2562 40.9427 46.5773 40.5735 45.964C40.5318 45.8866 40.5556 45.7734 40.5437 45.6782C40.5258 45.6305 40.5139 45.5888 40.4961 45.5412C40.4663 45.434 40.4365 45.3209 40.4067 45.2137C40.3412 44.9219 40.2579 44.6361 39.8887 44.3443C39.978 44.7135 40.0375 44.9517 40.0911 45.1899C40.1388 45.5531 40.1924 45.9104 40.24 46.2736C40.2519 46.357 40.2698 46.4404 40.2817 46.5238C40.3055 47.0359 40.3293 47.548 40.3532 48.0661C40.3532 48.3876 40.3532 48.7092 40.3472 49.0307C40.3174 50.0431 40.1626 51.0375 39.8172 51.9962C39.4242 53.0919 38.6858 53.8482 37.5663 54.1936C36.7981 54.4318 36.0121 54.4675 35.2201 54.3127C34.8985 54.2472 34.5531 54.2472 34.2911 53.9792C34.3685 53.872 34.44 53.7767 34.5055 53.6815C34.5889 53.4194 34.7318 53.1693 34.5948 52.7466C34.3983 53.0741 34.2554 53.3123 34.1125 53.5445C33.4634 54.1995 32.8084 54.8546 32.1593 55.5155C31.8318 55.8431 31.546 56.2242 31.0696 56.385C30.7956 56.0991 30.6646 55.7895 30.6349 55.4203C30.5515 54.4615 30.7599 53.5921 31.3673 52.8299C31.4507 52.7585 31.54 52.681 31.6234 52.6096C31.6353 52.55 31.6531 52.4905 31.6651 52.4369C31.6353 52.4786 31.5996 52.5203 31.5698 52.5679C31.4626 52.6096 31.3494 52.6513 31.2423 52.693C31.1708 52.7227 31.0696 52.7287 31.0279 52.7763C30.5634 53.3599 29.9024 53.6874 29.3308 54.14C29.0152 54.3901 28.7353 54.6878 28.3839 55.0153C28.2887 54.7593 28.2112 54.5866 28.1517 54.402C27.7408 53.0741 28.5566 51.4424 29.5868 50.6921C30.9743 49.6798 32.5583 49.3285 34.2435 49.5667C34.9581 49.6679 35.6607 49.9061 36.3634 50.0788C36.4527 50.1205 36.5421 50.1562 36.6314 50.1979C36.6552 50.1681 36.679 50.1324 36.7028 50.1026C36.5837 49.9895 36.4706 49.8763 36.3515 49.7691C35.7382 49.1975 34.964 49.0426 34.1839 48.8997C33.9696 48.858 33.7433 48.8759 33.6182 48.6437C33.1299 47.7385 32.8322 46.7679 32.862 45.7496C32.8858 45.0053 33.1002 44.2728 33.2312 43.5285C33.2848 43.2962 33.3384 43.064 33.386 42.8258C33.4039 42.7782 33.4158 42.7305 33.4336 42.6769C33.4217 42.7305 33.4098 42.7782 33.3979 42.8318C33.2371 43.07 33.0823 43.3022 32.9215 43.5404C32.5702 44.1299 32.3618 44.7611 32.3082 45.44C32.2963 45.4519 32.2724 45.4638 32.2724 45.4757C32.2724 45.5055 32.2903 45.5412 32.2963 45.571C32.2903 45.958 32.2903 46.3451 32.2844 46.7381C32.2963 46.8215 32.3022 46.9108 32.3141 46.9942C32.4868 47.548 32.6595 48.0958 32.8262 48.6496C32.8143 48.6913 32.8084 48.733 32.7965 48.7747C32.7548 48.7806 32.7191 48.7866 32.6774 48.7925C32.5166 48.8223 32.3558 48.858 32.195 48.8878C31.8437 48.9652 31.4924 49.0367 31.141 49.1141C31.1232 48.9295 31.1053 48.7509 31.0874 48.6079C30.1287 48.8223 29.2533 49.0546 28.3661 49.1975C27.4312 49.3463 26.4903 49.4357 25.5435 49.4833C24.954 49.5131 24.3644 49.394 23.7749 49.394C22.441 49.3821 21.256 48.9414 20.1782 48.1911C19.6958 47.8517 19.2314 47.4825 18.9455 46.9406C18.9693 46.8334 18.9991 46.7203 19.0229 46.6131C19.1539 46.7262 19.3028 46.8274 19.4219 46.9585C19.94 47.5123 20.5474 47.9529 21.2203 48.2864C22.3636 48.8521 23.6082 48.9533 24.8468 49.0188C26.2521 49.0962 27.6515 48.9652 29.0271 48.6556C29.694 48.5067 30.3848 48.4293 31.016 48.0601C30.9743 47.0835 30.9386 46.1129 30.879 45.1482C30.8195 44.1895 31.1232 43.2426 30.9505 42.278C30.1287 42.4387 29.3605 42.5876 28.5864 42.7424C26.788 43.1116 25.0016 43.0283 23.2449 42.5578C22.3636 42.3196 21.5478 41.9028 20.9761 41.1346C21.0178 41.0215 21.0655 40.9143 21.1071 40.8012C21.2262 40.8667 21.3691 40.9083 21.4585 40.9977C22.0301 41.5515 22.7388 41.8671 23.4772 42.0874C25.3351 42.6412 27.2227 42.5638 29.1104 42.2839C29.6166 42.2065 30.1108 42.0636 30.617 42.01C30.9624 41.9743 31.0815 41.8433 31.1172 41.5038C31.2839 40.033 31.6115 38.5919 32.0164 37.1628C32.0878 36.9067 32.2724 36.6268 32.0938 36.2993C31.9747 36.3469 31.8854 36.3827 31.7961 36.4184C30.0811 37.0437 28.3601 37.6391 26.4903 37.4784C25.8353 37.4248 25.2577 37.5975 24.6681 37.8773C23.7987 38.2882 22.9174 38.7051 21.9349 38.7825C22.7507 36.9543 23.4533 35.0845 23.9893 33.1552C24.025 33.0241 24.0905 32.8991 24.1501 32.7502C27.2108 32.5716 30.218 32.119 33.0049 30.7494C33.0287 30.8923 33.0942 31.0412 33.0763 31.1781C33.0049 31.7736 32.9156 32.3632 32.8322 32.9586C32.8739 32.9527 32.8977 32.9586 32.9096 32.9467C34.5412 31.3806 36.1848 29.8562 37.4115 27.9685C37.5365 27.7779 37.5842 27.5457 37.6675 27.3313C37.9355 26.8788 38.2451 26.4441 38.4536 25.9617C38.6739 25.4496 38.7989 24.8898 38.9657 24.3539C39.1086 24.0204 39.1801 23.3297 39.049 22.895C38.9478 23.3833 38.8466 23.8716 38.7453 24.3599C38.4238 24.9494 38.138 25.5627 37.7747 26.1285C37.072 27.1765 36.1371 27.9864 35.101 28.7307C33.8981 29.6001 32.6238 30.2849 31.2303 30.7434C29.6345 31.2734 27.979 31.5652 26.3057 31.7617C23.9833 32.0356 21.655 32.2024 19.3147 32.0833C18.5168 32.0416 17.7248 31.8213 16.9388 31.6248C15.2476 31.196 13.6934 30.4814 12.419 29.2488C12.4607 29.2131 12.5024 29.1476 12.55 29.1416C13.6874 28.9451 14.8248 28.7426 15.9919 28.7605C16.4445 28.7664 16.8971 28.7367 17.3496 28.7248C17.5045 28.9272 17.6533 29.1356 17.8141 29.3321C18.618 30.3445 19.7494 30.3266 20.6546 29.3679C20.8273 29.1833 20.9702 28.9629 21.125 28.7605C21.4108 28.7545 21.6907 28.7545 21.9765 28.7486C22.2505 28.9332 22.5065 29.1595 22.8043 29.2845C23.3759 29.5227 23.9893 29.3321 24.3704 28.8319C24.5371 28.6176 24.6622 28.3734 24.811 28.1412C25.1743 28.0161 25.6149 28.1055 25.8829 27.7363C26.1211 27.8732 26.3533 28.0161 26.5975 28.1352C27.1989 28.433 27.6336 28.3258 28.0147 27.772C28.1874 27.5159 28.3303 27.242 28.4852 26.974C28.5804 26.8192 28.6817 26.6703 28.777 26.5155C30.4086 25.658 31.7484 24.4909 32.5642 22.7997C32.9037 22.8831 33.249 22.9486 33.5766 23.0617C33.8267 23.1451 34.0172 23.157 34.1959 22.889C34.0887 22.8533 34.0172 22.8295 33.9458 22.8116C34.1244 22.4365 33.8624 22.2638 33.5944 22.1268C32.9334 21.7874 32.2367 21.7874 31.5281 21.9422C31.3554 21.9779 31.2006 22.0673 31.0338 22.1268C30.8314 22.1089 30.6468 22.1149 30.5753 22.4781C30.7659 22.4186 30.8909 22.3769 31.016 22.3412C31.2065 22.3531 31.3911 22.371 31.5817 22.3829C31.6531 22.4424 31.7306 22.5079 31.802 22.5675C31.2423 23.7882 30.3014 24.6457 29.164 25.3067C27.5919 26.2118 25.9127 26.8668 24.1501 27.2777C22.3636 27.6946 20.5533 27.8315 18.7192 27.641C17.7307 27.5338 16.7422 27.4742 15.7597 27.3492C14.6223 27.2063 13.4909 27.0157 12.3595 26.8311C11.8652 26.7478 11.371 26.6287 10.8767 26.5274C9.0486 26.1582 8.35188 25.4615 8.17919 23.5857C8.01841 21.7993 8.18515 20.0188 8.75681 18.3038C8.77468 18.2562 8.82231 18.2204 8.91759 18.1013C9.18556 18.8576 9.42971 19.5543 9.67981 20.2451C9.72149 20.3344 9.75722 20.4237 9.79891 20.513C9.83464 20.5071 9.86441 20.5011 9.90014 20.4952C9.91205 20.3523 9.918 20.2153 9.92991 20.0724C10.0014 19.1077 9.92991 18.1668 9.39398 17.3213C9.26297 17.1128 9.34038 16.9342 9.47139 16.7794C9.86441 16.3089 10.2157 15.7909 10.6743 15.3978C11.8831 14.3677 13.3123 13.7484 14.8188 13.2601C16.4207 12.742 18.0523 12.7182 19.7018 12.8194C19.7852 12.8254 19.8745 12.8313 19.9579 12.8373C20.0591 12.8551 20.1603 12.873 20.2615 12.8909C20.5176 12.9504 20.7677 13.01 21.0238 13.0695C21.0416 13.0278 21.0535 12.9861 21.0714 12.9385C20.7737 12.7718 20.5593 12.4859 20.1782 12.4562C19.541 12.2358 18.8979 12.0215 18.2309 11.7892C18.5108 11.3783 18.8026 10.9496 19.0944 10.5208C19.3981 10.503 19.4755 10.3184 19.4398 10.0504L19.4457 10.0385C19.5648 9.9849 19.7137 9.96108 19.803 9.87771C20.1901 9.51447 20.5414 9.10954 21.0357 8.86539C21.1667 8.79989 21.2441 8.63315 21.3453 8.5081C21.3096 8.47237 21.2798 8.43664 21.2441 8.40091C20.6427 8.61529 20.0591 8.87134 19.5887 9.33582C19.4576 9.44301 19.3207 9.55615 19.1659 9.6812C19.1897 7.94835 20.4759 5.77483 22.5422 5.48305C22.7388 5.45327 22.9353 5.47113 23.1318 5.47113C23.1854 5.48304 23.233 5.50091 23.2866 5.51282C23.5427 5.58428 23.7987 5.66169 24.1203 5.75101C23.6677 6.26313 23.0901 6.56682 22.8638 7.16826C22.7566 7.32904 22.6435 7.49578 22.5363 7.65656C22.572 7.68633 22.6078 7.71015 22.6494 7.73993C22.7447 7.63869 22.84 7.53746 22.9353 7.43027C24.0905 6.44773 25.3053 5.56046 26.9071 5.53664C27.5384 5.52473 28.1636 5.62001 28.7948 5.66764C28.8603 5.6736 28.9258 5.72124 29.0628 5.78079C27.9314 6.52514 27.0322 7.38264 26.6094 8.63911C26.4248 8.93089 26.3355 9.2465 26.5201 9.62165C26.5915 9.41919 26.6689 9.21672 26.7404 9.00831C26.7821 8.93089 26.8297 8.85348 26.8714 8.77011C26.9012 8.72247 26.931 8.68079 26.9667 8.63315C27.4193 8.11508 27.8242 7.54937 28.3303 7.09085C29.1462 6.35245 30.1644 6.06066 31.2482 5.9773C31.6531 5.9773 32.0521 5.98325 32.457 5.98325C33.3562 6.03684 34.1304 6.38222 34.8152 6.9658C35.6488 7.67442 36.3039 8.52596 36.8636 9.44896C37.0423 9.73479 37.0304 10.1338 37.4234 10.366C37.4472 10.0147 37.5603 9.71693 37.3043 9.44896C37.1435 9.09167 37.0125 8.72247 36.8219 8.389C36.6135 8.03171 36.3515 7.71611 36.0716 7.32309C36.7505 7.62678 37.2745 8.06744 37.7688 8.53192C39.9006 10.5387 41.425 12.9325 42.2349 15.7611C42.6577 17.2379 42.7768 18.7504 42.6815 20.2808C42.6696 20.4416 42.6577 20.6024 42.6398 20.7631C42.4612 23.0141 42.0741 25.2352 41.6334 27.4504C41.4965 28.1412 41.2762 28.8141 41.1213 29.5048C40.8593 30.6184 40.5556 31.726 40.3829 32.8515C40.2102 34.0067 40.1864 35.1857 40.5675 36.3172C40.7224 36.7816 40.9605 37.2223 41.1987 37.657C41.8002 38.7825 42.7351 39.6519 43.5033 40.6523C45.0932 42.7246 46.6653 44.8028 47.9337 47.1073C49.4402 49.8525 50.6074 52.7108 51.2922 55.7657C51.4113 56.3373 51.4708 56.8911 51.5601 57.439ZM14.6164 21.1264C14.6342 21.1919 14.6581 21.2574 14.6759 21.3169C14.6938 21.2455 14.7116 21.174 14.7295 21.1085C14.7533 21.0728 14.7712 21.043 14.795 21.0073C14.8962 20.9656 15.0332 20.9477 15.1047 20.8703C15.6585 20.2748 16.3314 19.9176 17.1412 19.8044C17.3675 19.7746 17.5342 19.6317 17.57 19.3876C18.0285 18.9886 18.1238 18.4289 17.8141 17.9167C17.5283 17.4403 17.0162 17.2379 16.4862 17.4701C16.1706 17.6071 15.8609 17.8215 15.6227 18.0656C15.0332 18.679 14.6819 19.4352 14.5211 20.2629C14.4854 20.5369 14.5866 20.8346 14.6164 21.1264ZM29.1223 10.0028C29.0866 10.0325 29.0449 10.0564 29.0092 10.0861C28.9794 10.1099 28.9556 10.1338 28.9318 10.1635C28.5924 10.3481 28.3244 10.5863 28.2827 11.0389C28.5626 10.8483 28.8425 10.6578 29.1283 10.4672C29.6702 10.2767 30.2002 10.0147 30.9088 10.1159C30.6765 10.2469 30.5277 10.3362 30.3788 10.4196C28.3065 11.5451 27.3895 14.4927 27.9909 16.3804C28.646 18.4348 30.7837 19.4471 32.9275 18.6194C34.2614 18.1013 35.0057 16.9818 35.3868 15.6658C35.8513 14.0699 35.5357 12.5395 34.5889 11.1997C33.2967 9.3656 31.0755 8.74034 29.1223 10.0028ZM45.5279 45.4161C45.5875 44.3979 44.9741 43.6237 43.932 43.463C43.3008 43.3617 42.6339 43.9096 42.5684 44.5348C42.4612 45.5948 43.3603 46.6667 44.2714 46.893C44.5632 46.9644 44.7716 46.9168 44.986 46.756C45.4386 46.4106 45.5696 45.9342 45.5279 45.4161ZM26.6689 36.9424C26.6749 36.9782 26.6809 37.0198 26.6868 37.0556C26.931 37.0317 27.1811 36.9901 27.4252 36.996C28.6876 37.0496 29.8905 36.7161 31.0755 36.3469C32.3856 35.9361 32.3796 35.9241 32.5642 34.5486C32.6119 34.1853 32.6595 33.828 32.7071 33.4648C32.6536 33.4231 32.6059 33.3874 32.5523 33.3457C31.9747 33.828 31.403 34.3223 30.7659 34.7153C30.093 35.1262 29.4141 35.5252 28.7174 35.9003C28.0386 36.2636 27.3478 36.597 26.6689 36.9424ZM40.0375 39.6697C40.0733 40.2652 40.5258 40.8964 41.0677 41.087C41.4429 41.218 41.8002 41.1406 42.0443 40.8726C42.3242 40.563 42.3778 40.2354 42.2051 39.8365C41.9967 39.372 41.6334 39.0802 41.2285 38.8361C40.7819 38.5681 40.4187 38.6812 40.1805 39.104C40.0852 39.2708 40.0852 39.4792 40.0375 39.6697ZM44.6704 51.4424C44.5037 51.5556 44.2952 51.639 44.1762 51.7938C43.7891 52.294 43.8129 53.2348 44.194 53.7529C44.5513 54.2353 45.2004 54.2353 45.4684 53.7291C45.6232 53.4314 45.7244 53.1038 45.6053 52.7585C45.5041 52.4607 45.3909 52.163 45.2718 51.8712C45.1766 51.6211 44.992 51.496 44.6704 51.4424ZM48.5053 52.5858C48.9519 52.2523 49.1901 51.8771 49.1425 51.3174C49.1127 50.9601 48.9341 50.6981 48.7554 50.4182C48.4994 50.0252 48.285 50.0014 47.9694 50.3408C47.4037 50.9601 47.6419 52.0677 48.5053 52.5858ZM46.4985 49.3404C46.57 48.8223 46.302 48.465 45.9328 48.1732C45.5934 47.9053 45.2004 48.0422 45.0515 48.4412C44.8371 49.0129 45.0039 49.6441 45.4743 50.0431C45.8256 50.3408 46.3259 50.1919 46.4509 49.7453C46.4866 49.6203 46.4866 49.4773 46.4985 49.3404ZM18.3143 16.6126C18.4572 16.8389 18.6001 17.0592 18.7431 17.2855C18.88 17.5059 19.011 17.7262 19.142 17.9525C19.1837 17.3153 18.9217 16.8568 18.3143 16.6126Z" fill="#1F8BC9"/>
<path d="M20.9942 41.1172C21.5659 41.8854 22.3876 42.3022 23.263 42.5404C25.0197 43.0108 26.8061 43.0942 28.6045 42.725C29.3727 42.5702 30.1468 42.4213 30.9685 42.2605C31.1412 43.2192 30.8375 44.172 30.8971 45.1307C30.9566 46.0954 30.9864 47.0601 31.034 48.0427C30.4028 48.4119 29.7121 48.4833 29.0451 48.6381C27.6696 48.9478 26.2761 49.0788 24.8648 49.0014C23.6203 48.9299 22.3757 48.8347 21.2383 48.2689C20.5655 47.9355 19.9581 47.4948 19.44 46.941C19.3209 46.816 19.178 46.7088 19.041 46.5956C19.041 46.4884 19.047 46.3872 19.047 46.28C19.0648 46.2324 19.0887 46.1788 19.1065 46.1312C19.3388 45.3808 19.5293 44.6127 19.8092 43.8802C20.1665 42.9453 20.5952 42.0402 20.9942 41.1172Z" fill="#63C2E3"/>
<path d="M18.9566 46.9238C19.2424 47.4657 19.7069 47.8349 20.1892 48.1743C21.2671 48.9247 22.4521 49.3653 23.786 49.3772C24.3755 49.3832 24.971 49.5023 25.5545 49.4665C26.4954 49.4189 27.4422 49.3296 28.3771 49.1807C29.2644 49.0378 30.1398 48.8056 31.0985 48.5912C31.1104 48.7281 31.1283 48.9127 31.1521 49.0973C30.8246 49.2283 30.4851 49.3355 30.1695 49.4963C28.5855 50.2883 27.4958 51.4852 27.1981 53.2895C27.1802 53.3729 27.1623 53.4563 27.1504 53.5396C27.1623 53.8136 27.1802 54.0934 27.1921 54.3674C27.1862 54.3793 27.1683 54.3912 27.1683 54.4031C27.1743 54.4269 27.1921 54.4507 27.204 54.4746C27.2219 54.5937 27.2338 54.7187 27.2517 54.8378C25.894 54.8318 24.5363 54.8497 23.1845 54.6056C21.5172 54.3078 20.0285 53.6349 18.7124 52.575C18.4028 52.3249 18.111 52.0509 18.1408 51.5984C18.1646 50.2526 18.4206 48.9425 18.7065 47.6384C18.7482 47.4002 18.5993 47.0548 18.9566 46.9238Z" fill="#63C2E3"/>
<path d="M21.9586 38.7664C22.9471 38.689 23.8224 38.2721 24.6918 37.8612C25.2814 37.5814 25.859 37.4087 26.514 37.4623C28.3838 37.623 30.1048 37.0276 31.8198 36.4023C31.9091 36.3666 31.9984 36.3308 32.1175 36.2832C32.2962 36.6107 32.1175 36.8906 32.0401 37.1467C31.6352 38.5699 31.3077 40.0109 31.1409 41.4877C31.0992 41.8331 30.9861 41.9582 30.6407 41.9939C30.1346 42.0475 29.6403 42.1964 29.1342 42.2678C27.2465 42.5477 25.3528 42.6251 23.5009 42.0713C22.7625 41.851 22.0539 41.5294 21.4822 40.9816C21.3869 40.8922 21.25 40.8506 21.1309 40.7851C21.3571 40.2253 21.5834 39.6715 21.8038 39.1117C21.8335 39.0403 21.8454 38.9688 21.8633 38.8914C21.899 38.8497 21.9288 38.8081 21.9586 38.7664Z" fill="#63C2E3"/>
<path d="M10.5248 47.9309C11.025 45.9122 12.2814 44.6319 14.2942 44.1079C15.1934 43.8756 16.0509 43.9828 16.8429 44.4949C16.8905 44.5188 16.9381 44.5366 16.9858 44.5605L17.0155 44.5783C16.8964 44.8939 17.1525 45.0071 17.3371 45.1262C17.5932 45.2869 17.6051 45.5192 17.5336 45.7455C17.4086 46.1444 17.2359 46.5255 17.0691 46.9483C16.8905 46.8054 16.694 46.6506 16.426 46.4362C16.4617 46.9007 16.4856 47.2461 16.5153 47.5915C16.4141 47.7106 16.3367 47.8594 16.2116 47.9488C15.3839 48.574 14.717 49.36 14.0322 50.1223C13.8118 50.3664 13.5439 50.557 13.3235 50.7475C12.1921 50.152 12.6387 47.526 13.8178 46.6804C13.3176 46.7221 12.9841 46.9603 12.7519 47.2878C12.5256 47.6034 12.341 47.9607 12.204 48.3299C11.9718 48.9789 11.549 49.4375 10.9476 49.7709C10.5545 49.4851 10.5307 49.0564 10.4414 48.6574C10.4533 48.6455 10.4771 48.6276 10.4771 48.6157C10.4712 48.58 10.4533 48.5502 10.4474 48.5145C10.4533 48.443 10.4593 48.3775 10.4652 48.306C10.4831 48.1869 10.501 48.0559 10.5248 47.9309Z" fill="#1F8BC9"/>
<path d="M42.1447 12.9158C41.317 11.6772 40.519 10.4862 39.6973 9.26545C40.0129 8.99748 40.4654 9.10467 40.8406 9.08085C41.4182 9.04512 42.0196 9.1404 42.5973 9.25949C43.3357 9.41432 43.4786 9.72992 43.2642 10.4624C43.032 11.2603 42.7878 12.0523 42.3055 12.7431C42.2638 12.8086 42.1983 12.8562 42.1447 12.9158Z" fill="#024777"/>
<path d="M43.7464 19.2287C43.4546 17.7221 43.1687 16.2632 42.877 14.7626C42.9663 14.7566 43.0913 14.7149 43.1866 14.7506C44.0024 15.0186 44.7646 15.3819 45.4078 15.9595C45.7293 16.2453 45.8544 16.5728 45.6876 17.0194C45.3125 18.0079 44.6039 18.6808 43.7464 19.2287Z" fill="#024777"/>
<path d="M42.8359 25.5245C43.0622 24.0656 43.2885 22.6245 43.5207 21.1299C43.7173 21.2252 43.878 21.2609 43.9852 21.3562C44.4854 21.8028 44.9916 22.2494 45.3191 22.8508C45.6883 23.5178 45.6228 23.6964 45.1643 24.1728C44.5867 24.7742 43.878 25.2089 43.098 25.5245C43.0384 25.5484 42.955 25.5245 42.8359 25.5245Z" fill="#024777"/>
<path d="M41.2338 34.4355C41.6626 34.6142 42.0794 34.775 42.4784 34.9655C42.8476 35.1501 43.2049 35.3585 43.5562 35.5789C44.0504 35.8885 44.1814 36.3113 43.9373 36.8413C43.6634 37.4308 43.3895 38.0204 42.8952 38.467C41.9662 37.8774 41.0194 35.8171 41.2338 34.4355Z" fill="#024777"/>
<path d="M16.5098 47.5913C16.486 47.2459 16.4562 46.9005 16.4205 46.436C16.6885 46.6504 16.885 46.8052 17.0636 46.9481C17.2304 46.5194 17.4031 46.1383 17.5281 45.7453C17.5996 45.519 17.5877 45.2927 17.3316 45.126C17.147 45.0069 16.891 44.8937 17.01 44.5781C17.1351 44.6377 17.2721 44.6794 17.3852 44.7508C18.5345 45.519 18.3618 45.5488 18.1534 46.5789C17.8616 47.9902 17.5758 49.4015 17.278 50.8783C17.1291 50.795 16.9684 50.7473 16.885 50.6401C16.5753 50.259 16.2836 49.8601 15.9977 49.4551C15.8131 49.1872 15.8846 48.949 16.1109 48.7167C16.3193 48.5083 16.4979 48.2642 16.6647 48.02C16.754 47.8831 16.7897 47.7104 16.891 47.4484C16.6825 47.5258 16.5992 47.5615 16.5098 47.5913Z" fill="#024777"/>
<path d="M41.3652 32.179C41.6928 30.7617 41.9964 29.4457 42.3001 28.1297C42.3418 27.9629 42.4133 27.8081 42.4847 27.5938C43.1695 28.1833 43.5983 28.88 43.9854 29.6124C44.2236 30.065 44.0925 30.4938 43.765 30.8094C43.104 31.4406 42.3418 31.917 41.3652 32.179Z" fill="#024777"/>
<path d="M38.4651 8.02146C37.4111 7.10442 36.2082 6.5268 34.916 5.90154C35.7914 5.30606 36.6251 4.93686 37.6076 4.95472C38.084 4.96663 38.34 5.26437 38.4413 5.66335C38.6318 6.42557 38.7509 7.19374 38.4651 8.02146Z" fill="#024777"/>
<path d="M47.8926 45.3936C48.2916 45.465 48.5655 45.4829 48.8275 45.5603C49.3753 45.727 49.9172 45.8938 50.4472 46.1141C50.7807 46.2511 50.9236 46.5845 50.8581 46.9418C50.7211 47.7636 50.4353 48.5318 50.0363 49.3833C49.2384 48.0911 48.7203 46.7513 47.8926 45.3936Z" fill="#024777"/>
<path d="M46.7419 43.589C45.6998 42.4516 45.0091 41.1416 43.9551 39.9863C45.0269 40.0697 45.9559 40.1531 46.8134 40.5878C47.1409 40.7545 47.391 40.9451 47.3255 41.35C47.2064 42.0824 47.0873 42.8149 46.7419 43.589Z" fill="#024777"/>
<path d="M37.667 27.3271C37.5836 27.5415 37.536 27.7797 37.4109 27.9643C36.1842 29.858 34.5407 31.3764 32.9329 32.9306C32.921 32.9426 32.8972 32.9366 32.8555 32.9426C32.9388 32.3471 33.0341 31.7516 33.0996 31.1621C33.1175 31.0251 33.052 30.8762 33.0282 30.7333C34.1417 30.1855 35.2195 29.5781 36.1783 28.7861C36.5653 28.4645 36.8928 28.0655 37.2561 27.7083C37.3871 27.5773 37.53 27.4582 37.667 27.3271Z" fill="#024777"/>
<path d="M17.3493 28.7254C16.8967 28.7373 16.4441 28.7671 15.9916 28.7611C14.8304 28.7492 13.693 28.9457 12.5497 29.1422C12.502 29.1482 12.4604 29.2137 12.4187 29.2494C11.8649 28.7254 11.4421 28.1239 11.1562 27.3379C11.591 27.4272 11.984 27.457 12.3472 27.582C13.3655 27.9274 14.4374 27.9155 15.4735 28.1418C15.932 28.243 16.4144 28.2609 16.8908 28.2847C17.1885 28.3026 17.3255 28.4455 17.3493 28.7254Z" fill="#024777"/>
<path d="M18.1295 51.6045C18.0998 52.0571 18.3975 52.3369 18.7012 52.5811C20.0172 53.641 21.5059 54.3139 23.1733 54.6117C24.525 54.8558 25.8827 54.838 27.2404 54.8439C27.2702 54.9511 27.3059 55.0583 27.3357 55.1595C27.1749 55.2131 27.0201 55.3084 26.8593 55.3084C26.0316 55.3263 25.1979 55.3679 24.3761 55.3084C22.7505 55.1893 21.1903 54.8022 19.8088 53.8792C19.2609 53.51 18.7429 53.0872 18.201 52.6823C18.0223 52.8312 18.3022 53.1944 17.9688 53.3076C18.0283 52.7419 18.0759 52.1702 18.1295 51.6045Z" fill="#1F8BC9"/>
<path d="M50.8516 51.1768C51.6495 51.4805 52.3939 51.8199 53.0132 52.3856C53.2216 52.5761 53.299 52.8203 53.2097 53.1359C52.9893 53.9041 52.5963 54.577 52.114 55.369C51.5959 53.9279 51.2624 52.5583 50.8516 51.1768Z" fill="#024777"/>
<path d="M32.291 5.01288C31.5765 5.08434 31.0108 5.16175 30.445 5.19152C30.2128 5.20343 29.9806 5.13198 29.7483 5.08434C29.3136 4.98906 28.8789 4.87592 28.3906 4.75682C28.8253 4.10179 29.397 3.69686 30.0401 3.40507C30.8976 3.01801 31.2013 3.11924 31.7075 3.91719C31.9099 4.24471 32.0707 4.602 32.291 5.01288Z" fill="#024777"/>
<path d="M20.3922 28.8916C20.2969 28.9809 20.1897 29.0583 20.1004 29.1536C19.5942 29.7074 19.1476 29.767 18.5759 29.3323C18.439 29.231 18.3378 29.0822 18.2246 28.9511C18.9451 28.9333 19.6657 28.9154 20.3922 28.8916Z" fill="#FFFAF4"/>
<path d="M19.5824 9.35483C20.0588 8.89631 20.6364 8.64025 21.2378 8.41992C21.2735 8.45565 21.3033 8.49138 21.339 8.52711C21.2378 8.6462 21.1604 8.81889 21.0294 8.8844C20.5351 9.12855 20.1838 9.52752 19.7967 9.89672C19.7074 9.98009 19.5585 10.0039 19.4395 10.0575C19.499 9.9384 19.5883 9.83122 19.6121 9.70617C19.6419 9.59898 19.6002 9.47393 19.5824 9.35483Z" fill="#024777"/>
<path d="M27.984 26.8818C27.8709 27.4059 27.6505 27.781 27.1741 27.9001C26.8645 27.9716 26.6144 27.787 26.4238 27.4952C26.93 27.2927 27.4302 27.0962 27.984 26.8818Z" fill="#E6DED1"/>
<path d="M20.3932 28.894C19.6727 28.9119 18.9462 28.9357 18.2257 28.9535L18.2376 28.9416C18.2137 28.8106 18.184 28.6796 18.1602 28.5486C18.2793 28.5308 18.3983 28.5188 18.5174 28.501C19.1725 28.501 19.8335 28.501 20.5838 28.501C20.4944 28.6856 20.4409 28.7928 20.3932 28.894Z" fill="#E6DED1"/>
<path d="M22.4824 28.4473C23.0541 28.3461 23.6138 28.2449 24.1974 28.1377C23.8282 29.0488 23.1196 29.1619 22.4824 28.4473Z" fill="#E6DED1"/>
<path d="M53.305 57.4484C52.9715 57.4484 52.644 57.4484 52.3105 57.4543C52.3225 57.2161 52.3344 56.9839 52.3463 56.71C52.8167 56.7874 53.0192 57.1744 53.305 57.4484Z" fill="#024777"/>
<path d="M33.9401 22.8147C34.0116 22.8386 34.083 22.8624 34.1902 22.8922C34.0116 23.1601 33.821 23.1542 33.5709 23.0649C33.2434 22.9517 32.898 22.8862 32.5586 22.8028C32.6777 22.4932 32.9099 22.5527 33.1481 22.6123C33.4101 22.6897 33.6721 22.7492 33.9401 22.8147Z" fill="#024777"/>
<path d="M38.7383 24.3487C38.8395 23.8604 38.9407 23.3721 39.042 22.8838C39.173 23.3244 39.0956 24.0093 38.9586 24.3427C38.8872 24.3487 38.8157 24.3487 38.7383 24.3487Z" fill="#024777"/>
<path d="M37.2981 9.47949C37.5541 9.7415 37.4469 10.0452 37.4172 10.3965C37.0242 10.1643 37.042 9.75937 36.8574 9.47949C37.0063 9.47949 37.1552 9.47949 37.2981 9.47949Z" fill="#024777"/>
<path d="M20.1719 12.4746C20.553 12.4984 20.7733 12.7902 21.0651 12.957C21.0472 12.9986 21.0353 13.0403 21.0175 13.088C20.7614 13.0284 20.5113 12.9689 20.2552 12.9093C20.2314 12.7604 20.2016 12.6175 20.1719 12.4746Z" fill="#024777"/>
<path d="M25.8824 27.749C25.6144 28.1123 25.1738 28.0289 24.8105 28.154C25.0547 27.7252 25.4775 27.755 25.8824 27.749Z" fill="#024777"/>
<path d="M17.9688 53.6465C17.9807 54.367 17.9985 55.0935 18.0104 55.814C17.9985 55.0876 17.9807 54.367 17.9688 53.6465Z" fill="#1F8BC9"/>
<path d="M26.7399 9.02838C26.6684 9.23084 26.591 9.43331 26.5196 9.64173C26.335 9.26657 26.4243 8.95692 26.6089 8.65918C26.6506 8.77828 26.6982 8.90333 26.7399 9.02838Z" fill="#024777"/>
<path d="M21.9765 28.7568C21.6907 28.7627 21.4108 28.7627 21.125 28.7687C21.393 28.4233 21.5954 28.4173 21.9765 28.7568Z" fill="#024777"/>
<path d="M31.0227 22.336C30.8976 22.3777 30.7666 22.4134 30.582 22.473C30.6535 22.1097 30.8381 22.1038 31.0406 22.1216C31.0286 22.1931 31.0227 22.2645 31.0227 22.336Z" fill="#024777"/>
<path d="M32.451 6.00802C32.0461 6.00802 31.6471 6.00207 31.2422 6.00207C31.6471 5.83533 32.052 5.87106 32.451 6.00802Z" fill="#024777"/>
<path d="M22.9341 7.45049C22.8389 7.55172 22.7436 7.65295 22.6483 7.76014C22.6126 7.73037 22.5768 7.70655 22.5352 7.67677C22.6423 7.51599 22.7555 7.34926 22.8627 7.18848C22.8865 7.2778 22.9103 7.36712 22.9341 7.45049Z" fill="#024777"/>
<path d="M19.4391 10.0713C19.4749 10.3393 19.3974 10.5239 19.0938 10.5417C19.2069 10.3869 19.326 10.2261 19.4391 10.0713Z" fill="#024777"/>
<path d="M28.77 26.5225C28.6747 26.6773 28.5735 26.8262 28.4782 26.981C28.371 26.7011 28.4782 26.5522 28.77 26.5225Z" fill="#024777"/>
<path d="M9.92393 20.0742C9.91202 20.2171 9.90607 20.3541 9.89416 20.497C9.85843 20.503 9.82865 20.5089 9.79292 20.5149C9.75124 20.4256 9.71551 20.3362 9.67383 20.2469C9.7572 20.1874 9.84056 20.1338 9.92393 20.0742Z" fill="#024777"/>
<path d="M18.5097 28.5062C18.3906 28.5241 18.2715 28.536 18.1524 28.5539C18.1107 28.5896 18.063 28.6253 18.0214 28.6611C17.8963 28.5717 17.8963 28.4467 18.0392 28.4288C18.1881 28.411 18.3548 28.4765 18.5097 28.5062Z" fill="#5D5D59"/>
<path d="M42.6328 20.8007C42.6447 20.6399 42.6566 20.4791 42.6745 20.3184C42.6626 20.4791 42.6507 20.6399 42.6328 20.8007Z" fill="#024777"/>
<path d="M18.0215 28.6609C18.0632 28.6252 18.1108 28.5894 18.1525 28.5537C18.1763 28.6847 18.2061 28.8157 18.2299 28.9467C18.1584 28.8515 18.0929 28.7562 18.0215 28.6609Z" fill="#FFFAF4"/>
<path d="M31.8024 22.5621C31.7309 22.5025 31.6535 22.437 31.582 22.3775C31.7369 22.3417 31.8738 22.3239 31.8024 22.5621Z" fill="#024777"/>
<path d="M21.9645 38.7666C21.9288 38.8083 21.8931 38.8559 21.8633 38.8976C21.899 38.85 21.9288 38.8083 21.9645 38.7666Z" fill="#1F8BC9"/>
<path d="M10.4415 48.5205C10.4534 48.5503 10.4713 48.586 10.4713 48.6217C10.4713 48.6337 10.4475 48.6515 10.4355 48.6634C10.4415 48.6158 10.4415 48.5681 10.4415 48.5205Z" fill="#024777"/>
<path d="M23.2857 5.53094C23.2321 5.51903 23.1845 5.50117 23.1309 5.48926C23.1845 5.50712 23.2321 5.51903 23.2857 5.53094Z" fill="#024777"/>
<path d="M16.9808 44.5538C16.9332 44.53 16.8855 44.5121 16.8379 44.4883C16.8915 44.5121 16.9391 44.5359 16.9808 44.5538Z" fill="#024777"/>
<path d="M19.1064 46.1338C19.0886 46.1814 19.0647 46.235 19.0469 46.2827C19.0647 46.235 19.0826 46.1814 19.1064 46.1338Z" fill="#1F8BC9"/>
<path d="M27.341 55.1613C27.3113 55.0541 27.2755 54.947 27.2458 54.8457C27.2279 54.7266 27.216 54.6016 27.1981 54.4825C27.216 54.4467 27.216 54.411 27.1862 54.3753C27.1743 54.1014 27.1564 53.8215 27.1445 53.5476C27.1624 53.4642 27.1803 53.3808 27.1922 53.2975C27.4899 51.4931 28.5796 50.3022 30.1636 49.5042C30.4792 49.3494 30.8187 49.2363 31.1462 49.1053C31.4975 49.0278 31.8488 48.9564 32.2002 48.879C32.361 48.8492 32.5217 48.8135 32.6825 48.7837C32.7242 48.7777 32.7599 48.7718 32.8016 48.7658C32.8135 48.7242 32.8195 48.6825 32.8314 48.6408C32.6587 48.087 32.486 47.5391 32.3193 46.9853C32.3074 46.902 32.3014 46.8126 32.2895 46.7293C32.2955 46.3422 32.2955 45.9552 32.3014 45.5621C32.3074 45.5205 32.3074 45.4728 32.3133 45.4311C32.3669 44.7523 32.5753 44.1151 32.9267 43.5315C33.0279 43.5256 33.1351 43.5196 33.2363 43.5137C33.1053 44.2521 32.8909 44.9905 32.8671 45.7348C32.8374 46.7531 33.1351 47.7237 33.6234 48.6289C33.7484 48.8611 33.9747 48.8432 34.1891 48.8849C34.9692 49.0278 35.7493 49.1827 36.3567 49.7543C36.3626 49.8615 36.3686 49.9628 36.3745 50.0699C35.6659 49.8973 34.9692 49.6591 34.2546 49.5578C32.5634 49.3196 30.9854 49.671 29.5979 50.6833C28.5677 51.4336 27.7579 53.0652 28.1628 54.3932C28.2164 54.5778 28.2998 54.7504 28.395 55.0065C28.7464 54.679 29.0263 54.3812 29.3419 54.1311C29.9076 53.6786 30.5745 53.3511 31.039 52.7675C31.0807 52.7139 31.1819 52.7079 31.2534 52.6841C31.295 52.7318 31.3427 52.7794 31.3844 52.827C30.777 53.5892 30.5745 54.4646 30.6519 55.4174C30.6817 55.7866 30.8187 56.1022 31.0866 56.3821C31.563 56.2213 31.8488 55.8402 32.1764 55.5127C32.8254 54.8517 33.4745 54.1966 34.1296 53.5416C34.2606 53.5833 34.3916 53.6309 34.5226 53.6726C34.4571 53.7679 34.3856 53.8632 34.3082 53.9704C34.5762 54.2383 34.9215 54.2443 35.2371 54.3038C36.0291 54.4587 36.8152 54.4229 37.5834 54.1847C38.7029 53.8394 39.4413 53.0831 39.8343 51.9874C40.1797 51.0287 40.3345 50.0342 40.3643 49.0219C40.3643 48.7003 40.3702 48.3788 40.3702 48.0572C40.3464 47.5451 40.3226 47.033 40.2988 46.5149C40.2868 46.4315 40.269 46.3482 40.2571 46.2648C40.2094 45.9016 40.1558 45.5443 40.1082 45.181C40.2154 45.187 40.3166 45.1989 40.4238 45.2048C40.4536 45.312 40.4834 45.4252 40.5131 45.5324C40.5012 45.5502 40.4834 45.574 40.4893 45.586C40.5072 45.6157 40.537 45.6455 40.5608 45.6753C40.5667 45.7706 40.5429 45.8897 40.5905 45.9611C40.9538 46.5745 40.9955 47.2533 41.0431 47.9381C41.0431 47.9798 41.0431 48.0274 41.0491 48.0691C41.1384 49.3673 41.055 50.6595 40.6501 51.8981C40.4536 52.5055 40.1082 53.0652 39.8283 53.6428C39.7509 53.7024 39.6675 53.756 39.602 53.8274C38.6909 54.7921 37.5298 55.1435 36.2435 55.1851C35.3979 55.2149 34.6178 54.9589 33.8199 54.6433C33.4388 55.1316 33.0636 55.6079 32.6885 56.0903C32.5337 56.263 32.3788 56.4357 32.224 56.6024C32.0334 56.7453 31.8548 56.9001 31.6523 57.0252C31.2057 57.2991 30.9914 57.2753 30.6043 56.9418C30.0803 56.4893 29.8004 55.9235 29.8361 55.2149C29.848 55.0184 29.854 54.8219 29.8659 54.6194C29.8838 54.5599 29.9016 54.5003 29.9254 54.4408C29.8838 54.4765 29.8361 54.5182 29.7944 54.5539C29.5622 54.8457 29.324 55.1375 29.0977 55.4293C28.6452 56.0188 28.1807 56.0486 27.6745 55.5186C27.5375 55.4055 27.4423 55.2804 27.341 55.1613Z" fill="#061926"/>
<path d="M32.2012 56.5941C32.356 56.4215 32.5108 56.2488 32.6656 56.082C32.8086 56.5346 32.9455 56.9872 33.0884 57.4397C32.8741 57.4457 32.6656 57.4457 32.4513 57.4516C32.3679 57.1658 32.2845 56.88 32.2012 56.5941Z" fill="#1F8BC9"/>
<path d="M33.0888 57.4399C32.9459 56.9873 32.8089 56.5348 32.666 56.0822C33.0412 55.5999 33.4163 55.1235 33.7974 54.6352C34.5954 54.9567 35.3814 55.2068 36.2211 55.1771C37.5073 55.1354 38.6685 54.784 39.5796 53.8194C39.6451 53.7479 39.7284 53.6943 39.8059 53.6348C39.6749 53.9385 39.5915 54.2719 39.4069 54.5339C38.6864 55.5641 37.7693 56.3978 36.6855 57.0469C36.4831 57.166 36.2925 57.3089 36.096 57.4339C35.0956 57.4399 34.0952 57.4399 33.0888 57.4399Z" fill="#024777"/>
<path d="M28.9311 10.165C28.955 10.1352 28.9788 10.1114 29.0086 10.0876C29.0443 10.0578 29.086 10.034 29.1217 10.0042C31.0749 8.74182 33.296 9.36707 34.5823 11.1952C35.5291 12.535 35.8447 14.0654 35.3802 15.6613C34.9991 16.9833 34.2548 18.1028 32.9209 18.6149C30.7771 19.4426 28.6394 18.4303 27.9843 16.3759C27.3829 14.4882 28.2999 11.5465 30.3722 10.4151C30.5211 10.3318 30.67 10.2484 30.9022 10.1114C30.1936 10.0102 29.6636 10.2663 29.1217 10.4628C29.0621 10.3675 28.9966 10.2663 28.9311 10.165ZM32.2063 10.5342C31.9324 10.3794 31.6525 10.3853 31.3726 10.5342C30.1519 10.8796 29.2646 11.7252 28.7108 13.0769C29.0621 12.7851 29.3897 12.5112 29.7112 12.2373C30.932 11.8264 31.9086 12.273 32.3075 13.4342C32.3909 13.6724 32.4326 13.9285 32.4564 14.1845C32.5398 14.8991 32.4266 15.5958 32.2003 16.2806C31.7537 17.1143 31.2654 17.9182 30.2888 18.2398C30.5032 18.5018 30.7712 18.4065 31.0153 18.4065C32.8077 18.5077 34.0523 17.6324 34.5704 15.9174C34.6597 15.6018 34.7966 15.2981 34.8264 14.9765C34.9277 13.7736 34.6299 12.666 33.9153 11.6954C33.4925 11.1059 32.9626 10.6414 32.2063 10.5342ZM30.7474 14.8455C31.6525 14.5776 31.6525 14.5776 31.5751 13.6069C31.1582 13.3866 30.9558 13.4104 30.6819 13.7141C30.3246 14.1131 30.3305 14.2679 30.7474 14.8455Z" fill="#061926"/>
<path d="M45.5269 45.4175C45.5685 45.9355 45.4375 46.4119 44.985 46.7573C44.7706 46.9181 44.5622 46.9657 44.2704 46.8943C43.3593 46.668 42.4601 45.5961 42.5673 44.5361C42.6328 43.9109 43.3057 43.363 43.931 43.4643C44.9731 43.6251 45.5864 44.3932 45.5269 45.4175Z" fill="#024777"/>
<path d="M26.668 36.9454C27.3528 36.6 28.0376 36.2725 28.7105 35.9033C29.4012 35.5281 30.086 35.1351 30.7589 34.7182C31.3961 34.3252 31.9678 33.831 32.5454 33.3486C32.599 33.3903 32.6466 33.426 32.7002 33.4677C32.6526 33.831 32.6109 34.1883 32.5573 34.5515C32.3727 35.9211 32.3787 35.939 31.0686 36.3499C29.8836 36.7191 28.6867 37.0525 27.4183 36.9989C27.1741 36.987 26.93 37.0347 26.6799 37.0585C26.6799 37.0228 26.6739 36.9811 26.668 36.9454Z" fill="#63C2E3"/>
<path d="M14.8003 21.0084C14.7765 21.0442 14.7586 21.0739 14.7348 21.1097C14.6931 21.1156 14.6574 21.1216 14.6157 21.1275C14.586 20.8417 14.4788 20.538 14.5324 20.27C14.6872 19.4423 15.0385 18.6861 15.634 18.0727C15.8722 17.8226 16.1818 17.6142 16.4974 17.4772C17.0215 17.245 17.5395 17.4475 17.8254 17.9238C18.135 18.436 18.0398 18.9957 17.5812 19.3947C17.3788 19.359 17.3728 19.2101 17.343 19.0434C17.2597 18.5372 16.9977 18.3824 16.5332 18.5789C16.3605 18.6503 16.1938 18.7754 16.0568 18.9123C15.4375 19.484 15.11 20.2403 14.8003 21.0084Z" fill="#061926"/>
<path d="M40.0371 39.6725C40.0788 39.4819 40.0848 39.2735 40.1741 39.1127C40.4123 38.69 40.7755 38.5768 41.2221 38.8448C41.6271 39.083 41.9903 39.3807 42.1987 39.8452C42.3774 40.2442 42.3178 40.5717 42.0379 40.8813C41.7938 41.1553 41.4425 41.2267 41.0613 41.0957C40.5254 40.9051 40.0788 40.268 40.0371 39.6725Z" fill="#024777"/>
<path d="M44.6701 51.4443C44.9916 51.492 45.1762 51.623 45.2715 51.8671C45.3906 52.1589 45.4978 52.4567 45.605 52.7544C45.7241 53.0998 45.6229 53.4332 45.468 53.725C45.2001 54.2312 44.551 54.2312 44.1937 53.7489C43.8126 53.2308 43.7888 52.2899 44.1758 51.7897C44.2949 51.6408 44.5033 51.5634 44.6701 51.4443Z" fill="#024777"/>
<path d="M48.5053 52.5877C47.6419 52.0696 47.4037 50.962 47.9754 50.3427C48.291 50.0033 48.5053 50.0271 48.7614 50.4202C48.94 50.7 49.1187 50.962 49.1485 51.3193C49.1901 51.8791 48.9519 52.2542 48.5053 52.5877Z" fill="#024777"/>
<path d="M14.8008 21.0105C15.1104 20.2483 15.432 19.486 16.0453 18.9084C16.1823 18.7774 16.349 18.6524 16.5217 18.5749C16.9922 18.3844 17.2542 18.5392 17.3316 19.0394C17.3554 19.2002 17.3673 19.355 17.5698 19.3908C17.534 19.6409 17.3673 19.7778 17.141 19.8076C16.3312 19.9207 15.6583 20.278 15.1045 20.8735C15.039 20.9509 14.908 20.9688 14.8008 21.0105Z" fill="#024777"/>
<path d="M46.4982 49.3429C46.4863 49.4798 46.4863 49.6227 46.4506 49.7537C46.3256 50.2003 45.8254 50.3492 45.474 50.0515C45.0036 49.6525 44.8368 49.0213 45.0512 48.4496C45.2001 48.0507 45.5991 47.9137 45.9325 48.1817C46.3077 48.4675 46.5757 48.8307 46.4982 49.3429Z" fill="#024777"/>
<path d="M18.3145 16.6133C18.9278 16.8515 19.1839 17.316 19.1422 17.9531C19.0112 17.7328 18.8802 17.5065 18.7432 17.2862C18.6003 17.0599 18.4574 16.8396 18.3145 16.6133Z" fill="#024777"/>
<path d="M28.9324 10.167C28.9979 10.2682 29.0634 10.3695 29.1229 10.4707C28.8431 10.6612 28.5632 10.8518 28.2773 11.0424C28.325 10.5838 28.5929 10.3456 28.9324 10.167Z" fill="#024777"/>
<path d="M34.5102 53.6663C34.3792 53.6246 34.2482 53.5769 34.1172 53.5353C34.2601 53.2971 34.403 53.0648 34.5995 52.7373C34.7365 53.1541 34.5936 53.4042 34.5102 53.6663Z" fill="#024777"/>
<path d="M40.4126 45.2024C40.3054 45.1965 40.2042 45.1845 40.097 45.1786C40.0374 44.9404 39.9839 44.7022 39.8945 44.333C40.2637 44.6248 40.3471 44.9106 40.4126 45.2024Z" fill="#024777"/>
<path d="M33.2374 43.518C33.1362 43.524 33.029 43.5299 32.9277 43.5359C33.0885 43.2977 33.2433 43.0654 33.4041 42.8272L33.3982 42.8213C33.3446 43.0476 33.291 43.2798 33.2374 43.518Z" fill="#024777"/>
<path d="M36.3694 50.0695C36.3635 49.9623 36.3575 49.8611 36.3516 49.7539C36.4707 49.867 36.5838 49.9802 36.7029 50.0874C36.6791 50.1172 36.6553 50.1529 36.6314 50.1827C36.5481 50.1469 36.4587 50.1052 36.3694 50.0695Z" fill="#024777"/>
<path d="M40.3595 48.0498C40.3595 48.3714 40.3535 48.6929 40.3535 49.0145C40.3595 48.6929 40.3595 48.3714 40.3595 48.0498Z" fill="#024777"/>
<path d="M32.6835 48.7832C32.5227 48.813 32.362 48.8487 32.2012 48.8785C32.3679 48.8487 32.5227 48.813 32.6835 48.7832Z" fill="#024777"/>
<path d="M14.6152 21.1292C14.6569 21.1232 14.6926 21.1173 14.7343 21.1113C14.7165 21.1828 14.6986 21.2542 14.6807 21.3197C14.6569 21.2542 14.6391 21.1887 14.6152 21.1292Z" fill="#024777"/>
<path d="M31.3732 52.8139C31.3315 52.7662 31.2839 52.7186 31.2422 52.671C31.3494 52.6293 31.4625 52.5876 31.5697 52.5459C31.5876 52.5638 31.6054 52.5757 31.6233 52.5935C31.5459 52.6709 31.4625 52.7424 31.3732 52.8139Z" fill="#024777"/>
<path d="M33.3967 42.8208C33.4086 42.7672 33.4205 42.7196 33.4324 42.666C33.4145 42.7137 33.4026 42.7613 33.3848 42.8149C33.3907 42.8149 33.3967 42.8208 33.3967 42.8208Z" fill="#024777"/>
<path d="M31.5762 52.546C31.6059 52.5044 31.6417 52.4627 31.6714 52.415C31.6595 52.4746 31.6417 52.5341 31.6298 52.5877C31.6119 52.5818 31.594 52.5639 31.5762 52.546Z" fill="#024777"/>
<path d="M32.291 46.7324C32.3029 46.8158 32.3089 46.9051 32.3208 46.9885C32.3089 46.8992 32.3029 46.8158 32.291 46.7324Z" fill="#024777"/>
<path d="M40.2461 46.2637C40.258 46.347 40.2759 46.4304 40.2878 46.5138C40.2759 46.4245 40.258 46.347 40.2461 46.2637Z" fill="#024777"/>
<path d="M41.0313 48.0626C41.0313 48.021 41.0313 47.9733 41.0254 47.9316C41.0373 47.9614 41.0552 47.9912 41.0671 48.021C41.0671 48.0329 41.0433 48.0507 41.0313 48.0626Z" fill="#024777"/>
<path d="M32.3131 45.4297C32.3071 45.4714 32.3071 45.519 32.3012 45.5607C32.2952 45.5309 32.2773 45.4952 32.2773 45.4654C32.2773 45.4595 32.3012 45.4416 32.3131 45.4297Z" fill="#024777"/>
<path d="M40.549 45.6664C40.5251 45.6366 40.4954 45.6128 40.4775 45.577C40.4716 45.5651 40.4954 45.5413 40.5013 45.5234C40.5192 45.5711 40.5311 45.6187 40.549 45.6664Z" fill="#024777"/>
<path d="M27.1922 53.29C27.1743 53.3734 27.1564 53.4568 27.1445 53.5401C27.1624 53.4568 27.1803 53.3734 27.1922 53.29Z" fill="#5D5D59"/>
<path d="M27.1862 54.3682C27.2102 54.4043 27.2162 54.4403 27.1982 54.4764C27.1862 54.4524 27.1681 54.4283 27.1621 54.4043C27.1621 54.3922 27.1802 54.3802 27.1862 54.3682Z" fill="#5D5D59"/>
<path d="M29.7656 54.5526C29.8073 54.5169 29.8549 54.4752 29.8966 54.4395C29.8788 54.499 29.8609 54.5585 29.8371 54.6181C29.8133 54.5943 29.7894 54.5764 29.7656 54.5526Z" fill="#63C2E3"/>
<path d="M34.5758 15.911C34.0578 17.6319 32.8132 18.5013 31.0208 18.4001C31.1935 18.1738 31.3483 17.9356 31.5389 17.7212C31.9081 17.3044 32.1999 16.8578 32.2118 16.2742C32.4321 15.5953 32.5452 14.8986 32.4678 14.1781C32.4381 13.928 32.3964 13.666 32.319 13.4278C31.92 12.2666 30.9434 11.82 29.7227 12.2309C29.7941 12.0939 29.8298 11.9034 29.937 11.8378C30.336 11.5877 30.7409 11.2721 31.1875 11.1828C32.6346 10.897 33.7422 11.8379 34.1411 12.8442C34.3853 13.4576 34.5163 14.0828 34.4865 14.7557C34.4627 15.1368 34.5401 15.5239 34.5758 15.911Z" fill="#FFFAF4"/>
<path d="M34.5764 15.9115C34.5406 15.5244 34.4632 15.1374 34.4811 14.7563C34.5108 14.0893 34.3798 13.4641 34.1357 12.8448C33.7308 11.8384 32.6232 10.8975 31.1821 11.1834C30.7355 11.2727 30.3365 11.5942 29.9316 11.8384C29.8184 11.9098 29.7827 12.1004 29.7172 12.2314C29.3897 12.5053 29.0681 12.7733 28.7168 13.071C29.2706 11.7133 30.1579 10.8737 31.3786 10.5283C31.6525 10.5283 31.9324 10.5283 32.2123 10.5283C32.9685 10.6415 33.4985 11.1059 33.9273 11.6836C34.6419 12.6542 34.9456 13.7677 34.8384 14.9647C34.8026 15.2922 34.6657 15.6018 34.5764 15.9115Z" fill="#E6DED1"/>
<path d="M30.7475 14.8455C30.3307 14.262 30.3247 14.1071 30.682 13.7141C30.9559 13.4104 31.1584 13.3866 31.5752 13.6069C31.6526 14.5776 31.6526 14.5776 30.7475 14.8455Z" fill="#FFFAF4"/>
<path d="M32.2065 16.2754C32.1946 16.859 31.9028 17.3056 31.5336 17.7224C31.3431 17.9368 31.1882 18.175 31.0155 18.4013C30.7714 18.4013 30.5034 18.4965 30.2891 18.2345C31.2716 17.913 31.7599 17.115 32.2065 16.2754Z" fill="#E6DED1"/>
<path d="M32.2067 10.5321C31.9268 10.5321 31.6529 10.5321 31.373 10.5321C31.6529 10.3773 31.9268 10.3773 32.2067 10.5321Z" fill="#5D5D59"/>
</g>
<defs>
<clipPath id="clip0_4631_52514">
<rect width="57" height="57" rx="28.5" fill="white"/>
</clipPath>
</defs>
</svg>
