<svg width="57" height="57" viewBox="0 0 57 57" fill="none" xmlns="http://www.w3.org/2000/svg">
<g clip-path="url(#clip0_4631_52201)">
<rect width="57" height="57" rx="28.5" fill="#F6F6FE"/>
<path d="M38.1848 59.8394C37.3803 59.8453 36.5816 59.8571 35.7771 59.8571C30.0454 59.8571 24.3137 59.8571 18.5762 59.8571C18.4 59.8571 18.2238 59.8453 18.0476 59.8394C18.0359 58.3126 18.0418 56.7857 18.0124 55.2647C17.983 53.5088 17.9302 51.747 17.8656 49.9911C17.8538 49.5859 17.7716 49.1865 17.7246 48.7872C17.6718 48.793 17.6131 48.793 17.5602 48.7989C17.5073 50.0263 17.5602 51.2537 17.4369 52.5045C17.2901 52.1698 17.1491 51.8292 17.0023 51.4945C16.9025 51.6413 16.879 51.7763 16.9201 51.8879C17.0669 52.2931 17.2078 52.6983 17.3899 53.0859C17.5719 53.4677 17.6776 53.8435 17.66 54.2722C17.6365 54.7185 17.6542 55.1707 17.6542 55.6229C17.6542 55.9283 17.6542 56.2337 17.6542 56.5449C17.4956 56.5567 17.4134 56.586 17.3429 56.5684C15.816 56.31 14.3185 55.9576 12.9208 55.2647C12.592 55.1002 12.3042 54.8595 12.0047 54.6363C11.7757 54.4601 11.7287 54.237 11.8579 53.961C12.1809 53.2562 12.3336 52.4987 12.6624 51.7881C13.1851 50.6782 13.5727 49.5036 14.0308 48.3585C14.7883 46.4557 16.0392 44.9582 17.8127 43.9481C18.7582 43.4079 19.78 42.9909 20.7666 42.527C20.9663 42.433 21.1836 42.3743 21.4068 42.2979C21.4537 42.527 21.5066 42.6973 21.5183 42.8734C21.6299 44.2183 22.3757 45.1696 23.4798 45.8332C24.7131 46.5732 26.0814 47.0489 27.5143 47.1605C29.7811 47.3366 31.9011 46.7964 33.7921 45.4985C34.8316 44.782 35.6714 43.907 36.0472 42.662C36.0824 42.5387 36.1235 42.4154 36.1705 42.2627C36.4465 42.3508 36.6932 42.4095 36.9222 42.5093C37.7503 42.8617 38.5842 43.1964 39.3828 43.6017C41.174 44.5178 42.5012 45.9037 43.2294 47.783C44.0457 49.8736 44.768 51.9995 45.5373 54.1136C45.6489 54.4249 45.555 54.6598 45.3024 54.8242C45.0088 55.0122 44.7034 55.1883 44.3804 55.3293C42.8477 56.0046 41.2327 56.357 39.5766 56.5743C39.1773 56.6271 38.778 56.6389 38.3434 56.6682C38.3786 55.1766 38.3845 53.7437 38.4667 52.3107C38.5489 50.8837 38.8308 49.4743 39.1832 48.0707C39.0011 48.2586 38.8778 48.4701 38.8015 48.6932C38.3551 49.9734 38.1026 51.2889 38.0909 52.6514C38.0791 53.4324 37.9969 54.2135 38.0087 54.9945C38.0498 56.5978 38.1261 58.2186 38.1848 59.8394Z" fill="#E0543E"/>
<path d="M38.1854 59.8368C38.1267 58.2159 38.0504 56.5951 38.021 54.9742C38.0034 54.1932 38.0915 53.4121 38.1032 52.6311C38.1208 51.2686 38.3675 49.9532 38.8138 48.6729C38.8901 48.4498 39.0193 48.2383 39.1955 48.0504C38.849 49.454 38.5613 50.8575 38.4791 52.2905C38.3968 53.7234 38.3968 55.1563 38.3557 56.6479C38.7903 56.6186 39.1955 56.6068 39.589 56.554C41.2392 56.3367 42.86 55.9843 44.3928 55.309C44.7099 55.168 45.0212 54.9919 45.3148 54.8039C45.5673 54.6395 45.6671 54.4105 45.5497 54.0934C44.7804 51.9851 44.0522 49.8592 43.2418 47.7627C42.5136 45.8834 41.1805 44.5034 39.3952 43.5814C38.5965 43.1703 37.7567 42.8414 36.9346 42.4891C36.7055 42.3892 36.4589 42.3305 36.1829 42.2424C36.1359 42.3892 36.0948 42.5125 36.0595 42.6417C35.6837 43.8867 34.8439 44.7618 33.8044 45.4782C31.9135 46.7819 29.7935 47.3163 27.5266 47.1402C26.0937 47.0286 24.7313 46.5529 23.4921 45.813C22.3881 45.1494 21.6481 44.198 21.5307 42.8532C21.5189 42.6829 21.4661 42.5125 21.4191 42.2776C21.1959 42.354 20.9787 42.4127 20.779 42.5067C19.7865 42.9706 18.7706 43.3876 17.8251 43.9278C16.0515 44.9438 14.8007 46.4355 14.0431 48.3382C13.5909 49.4833 13.1974 50.6579 12.6748 51.7678C12.34 52.4784 12.1932 53.2359 11.8702 53.9407C11.741 54.2167 11.788 54.4398 12.017 54.616C12.3107 54.8392 12.6043 55.08 12.9332 55.2444C14.325 55.9374 15.8284 56.2897 17.3553 56.5481C17.4257 56.5598 17.5079 56.5364 17.6665 56.5246C17.6665 56.2134 17.6665 55.908 17.6665 55.6026C17.6665 55.1504 17.6489 54.7041 17.6724 54.2519C17.69 53.8291 17.5843 53.4474 17.4022 53.0656C17.2202 52.678 17.0734 52.2728 16.9324 51.8676C16.8913 51.756 16.9148 51.6269 17.0146 51.4742C17.1615 51.8089 17.3024 52.1495 17.4492 52.4843C17.5725 51.2334 17.5197 50.006 17.5725 48.7786C17.6254 48.7728 17.6841 48.7728 17.737 48.7669C17.784 49.1662 17.8662 49.5714 17.8779 49.9708C17.9366 51.7267 17.9895 53.4885 18.0247 55.2444C18.0541 56.7713 18.0482 58.2981 18.06 59.8192C17.9249 59.8192 17.7898 59.8192 17.6547 59.8192C17.6489 59.7428 17.643 59.6665 17.6371 59.5901C17.6371 59.4022 17.6371 59.2143 17.6371 59.0264C17.6313 58.3569 17.6254 57.6874 17.6195 57.0179C17.5256 56.9827 17.4375 56.9533 17.3435 56.9181C15.9752 56.6949 14.6245 56.3954 13.3443 55.8316C13.1446 55.7553 12.9508 55.6848 12.7511 55.6085L12.7452 55.5967C12.7041 55.5615 12.663 55.5263 12.6278 55.491C12.158 55.2796 11.7469 54.9919 11.4591 54.5514C11.3241 54.34 11.3182 54.158 11.418 53.9054C11.7645 53.048 12.0405 52.1613 12.3988 51.3039C13.0154 49.8122 13.6144 48.3029 14.3367 46.8642C14.9945 45.5487 16.0574 44.5386 17.3024 43.7575C18.9937 42.6946 20.8553 41.9781 22.7228 41.2793C22.8814 41.3556 23.0341 41.432 23.1926 41.5083C23.1398 41.5494 23.0282 41.6082 23.0341 41.6258C23.316 42.3951 23.592 43.1644 24.1792 43.7752C25.0308 44.6561 26.1113 44.9732 27.2917 45.0613C27.415 45.0789 27.5325 45.1024 27.6558 45.12C27.8144 45.1259 27.9788 45.1317 28.1374 45.1376C28.2137 45.1376 28.2901 45.1376 28.3664 45.1376C28.4897 45.1317 28.6072 45.1259 28.7305 45.12C28.8538 45.1024 28.9772 45.0848 29.1005 45.0671C31.4143 44.8851 33.2935 43.9807 34.4446 41.8607C34.5092 41.8666 34.5738 41.8724 34.6384 41.8783C34.562 42.078 34.5092 42.2894 34.4093 42.4773C33.9336 43.3641 33.2172 44.0394 32.3539 44.5092C30.2809 45.6368 28.0904 45.8188 25.8353 45.1846C24.5257 44.8146 23.6213 43.9924 23.1515 42.7005C23.0341 42.3775 22.899 42.0662 22.7698 41.7256C22.5349 41.802 22.347 41.8548 22.1708 41.9253C21.9946 41.9958 21.8302 42.0897 21.654 42.1778C21.8126 43.4111 22.206 44.4857 23.2161 45.2022C24.8135 46.3297 26.6399 46.823 28.572 46.7819C29.8581 46.7526 31.1383 46.5235 32.3246 45.9891C33.8279 45.3138 35.0436 44.3154 35.7483 42.7768C35.8305 42.5948 35.8657 42.3892 35.9303 42.1602C35.4723 42.0369 35.1493 41.6845 34.6795 41.8372L34.6677 41.8137C34.7206 41.6434 34.7734 41.4672 34.8263 41.2969C35.114 41.4085 35.4018 41.5259 35.6896 41.6375C35.7365 41.6434 35.7894 41.6434 35.8364 41.6493C35.9715 41.6904 36.1065 41.7315 36.2475 41.7726C36.5117 42.031 36.8406 42.0192 37.1753 42.0134C37.2928 42.0897 37.4161 42.1719 37.5336 42.2483C38.4321 42.6594 39.3482 43.0235 40.1939 43.5579C41.3449 44.292 42.3491 45.1552 43.0069 46.3767C43.3416 46.9934 43.6646 47.61 43.9934 48.2266C44.0345 48.3852 44.0698 48.5496 44.1109 48.7082C44.1461 48.7904 44.1755 48.8667 44.2107 48.9489C44.7686 50.5463 45.3265 52.1436 45.8786 53.7469C46.1604 54.5573 46.0547 54.8392 45.3265 55.2972C45.0799 55.4499 44.8274 55.5909 44.5807 55.7377C44.4221 55.7729 44.2577 55.814 44.0992 55.8493C43.8819 55.9374 43.6705 56.0313 43.4473 56.1077C41.8558 56.6656 40.1997 56.9063 38.5319 57.0708L38.5025 57.0825V57.1119C38.5025 57.2176 38.5084 57.3233 38.5084 57.4231C38.4908 57.4466 38.4908 57.4642 38.5143 57.4877C38.5437 58.2747 38.573 59.0557 38.6024 59.8426C38.4497 59.8368 38.3146 59.8368 38.1854 59.8368Z" fill="#691D0F"/>
<path d="M38.5079 57.0731C40.1757 56.9086 41.8318 56.6679 43.4232 56.11C43.6405 56.0336 43.8578 55.9397 44.0751 55.8516C44.1221 55.922 44.1984 55.9925 44.2043 56.0689C44.3687 57.3256 44.5273 58.5823 44.68 59.8391C42.6481 59.8391 40.6161 59.8332 38.5842 59.8332C38.5548 59.0463 38.5255 58.2652 38.4961 57.4783L38.5255 57.443L38.4902 57.4137C38.4902 57.308 38.4844 57.2023 38.4844 57.1024L38.5137 57.0966L38.5079 57.0731Z" fill="#F8BC94"/>
<path d="M17.6246 59.61C17.6305 59.6864 17.6364 59.7627 17.6422 59.8391C15.9627 59.8391 14.2831 59.8391 12.6035 59.8332C12.7738 58.5706 12.9383 57.3138 13.1144 56.0512C13.1262 55.9749 13.2554 55.9162 13.3317 55.8516C14.612 56.4153 15.9568 56.7207 17.331 56.938C17.4249 56.9732 17.513 57.0026 17.607 57.0378C17.6129 57.7073 17.6187 58.3768 17.6246 59.0463C17.6305 59.2342 17.6246 59.4221 17.6246 59.61Z" fill="#F8BC94"/>
<path d="M13.3385 55.8569C13.2622 55.9215 13.133 55.9803 13.1212 56.0566C12.9392 57.3133 12.7747 58.576 12.6103 59.8386C12.4752 59.8386 12.3343 59.8386 12.1992 59.8386C12.2638 59.2278 12.3108 58.6112 12.3871 58.0004C12.4576 57.4543 12.5633 56.9081 12.6455 56.3679C12.6808 56.1271 12.716 55.8804 12.7454 55.6396C12.9392 55.7042 13.1388 55.7806 13.3385 55.8569Z" fill="#703C40"/>
<path d="M44.6811 59.8432C44.5225 58.5865 44.3698 57.3297 44.2054 56.073C44.1936 55.9967 44.1173 55.9262 44.0762 55.8557C44.2347 55.8205 44.3992 55.7794 44.5577 55.7441C44.6752 56.8717 44.7985 58.0051 44.9218 59.1326C44.9512 59.3734 44.9982 59.6142 45.0334 59.855C44.9101 59.8491 44.7985 59.8432 44.6811 59.8432Z" fill="#4E3429"/>
<path d="M13.9659 22.6576C13.7721 21.8296 13.549 21.0191 13.4374 20.1676C13.2847 18.9696 13.3023 17.7716 13.314 16.5677C13.3258 15.4108 13.5959 14.3009 13.96 13.2203C15.1815 9.62627 17.6422 7.14803 21.0131 5.50369C22.4107 4.82247 23.8965 4.44075 25.4058 4.10601C25.8697 4.0003 26.363 4.0003 26.8387 3.95332C27.1088 3.92396 27.3731 3.8946 27.6432 3.86523C28.3597 3.86523 29.0762 3.87111 29.7926 3.87111C30.1156 3.90047 30.4445 3.92983 30.7733 3.96507C32.5175 4.16474 34.2323 4.48186 35.7651 5.39799C36.3112 5.72685 36.8339 6.12619 37.2919 6.57251C37.6326 6.90138 37.8616 7.3477 38.1846 7.80576C38.4371 7.84687 38.7895 7.93496 39.1418 7.96432C39.8583 8.02305 40.4338 8.38715 40.9682 8.80998C42.2073 9.7907 43.0354 11.0592 43.6344 12.5215C44.3273 14.2187 44.5622 15.9804 44.5329 17.7833C44.5153 18.9696 44.4154 20.15 44.1159 21.3069C43.9574 21.9059 43.8517 22.5167 43.7166 23.1215C43.4464 23.0804 43.1763 23.0393 42.9062 22.9982C42.8298 22.9982 42.7535 23.0041 42.6713 23.0041C42.4716 23.0687 42.1897 22.8808 42.0781 23.1979C41.8843 23.3153 41.6847 23.4211 41.4967 23.5503C41.1091 23.8086 40.8742 24.1845 40.6746 24.5956C40.5336 24.8833 40.3457 25.1241 39.9405 25.0595C39.9111 24.989 39.87 24.9186 39.8642 24.854C39.7819 23.7734 39.7173 22.687 39.6234 21.6064C39.5823 21.1249 39.4178 20.7196 39.042 20.3438C36.9396 18.2179 35.5654 15.6986 35.1484 12.7035C35.1249 12.5508 35.0603 12.4099 35.0134 12.2455C34.6082 12.7975 34.2675 13.3201 33.8682 13.7958C32.3178 15.6398 30.327 16.8437 28.0778 17.6365C27.5845 17.8127 27.0677 17.9302 26.5568 18.0535C26.2749 18.124 26.0048 18.0946 25.9049 17.6776C27.2263 16.7263 28.3656 15.587 29.0527 13.9015C28.8882 14.0249 28.8236 14.066 28.7708 14.113C25.8814 16.7909 22.4049 18.3765 18.6699 19.457C18.2823 19.5686 17.8829 19.7213 17.5012 19.3748C17.2193 20.4613 16.9844 21.5007 16.9551 22.5754C16.9492 22.869 16.9081 23.1568 16.8787 23.4504C16.8728 23.8615 16.8729 24.2726 16.867 24.6837C16.9727 25.7701 17.0784 26.8565 17.1841 27.943C17.0725 27.943 16.9609 27.943 16.8494 27.9488C16.7906 27.6904 16.7319 27.4379 16.6732 27.1795C16.6497 27.1267 16.6203 27.0738 16.5968 27.021C16.6027 26.7802 16.6086 26.5394 16.6145 26.2986C16.5968 26.1812 16.5792 26.0637 16.5675 25.9463C16.3091 25.2063 16.0507 24.4605 15.7923 23.7206C15.7864 23.6031 15.7805 23.4856 15.7747 23.3682C15.898 23.4798 16.0213 23.5855 16.1388 23.6971C16.2386 23.7969 16.3267 23.9026 16.4442 24.0318C16.5088 23.2566 16.5616 22.5578 16.6203 21.8648C16.7319 20.5787 16.9786 19.322 17.4895 18.1298C17.9123 17.1432 18.4291 16.1919 19.0868 15.3403C19.9266 14.2598 20.8369 13.2379 21.8587 12.3277C22.4401 11.8109 23.0626 11.3469 23.6792 10.8713C23.7849 10.7891 23.9376 10.7656 24.0668 10.7186C24.0903 10.7538 24.1197 10.7949 24.1431 10.8302C23.9611 11.0181 23.7967 11.2471 23.5852 11.3939C22.6867 12.0282 21.9409 12.8268 21.1599 13.5962C19.8268 14.9116 18.7403 16.3974 17.9593 18.1005C17.8007 18.4411 17.695 18.8052 17.5482 19.2163C17.8536 19.1751 18.0709 19.1693 18.2705 19.1105C20.1674 18.582 22.0231 17.9067 23.779 17.0082C25.0064 16.3798 26.2044 15.6868 27.2909 14.8118C28.5828 13.7723 29.7221 12.6331 30.3505 11.0592C30.421 10.8771 30.468 10.6364 30.7968 10.607C30.7968 10.7421 30.8321 10.8654 30.791 10.9594C30.5326 11.5642 30.2565 12.1691 29.9805 12.7623C29.8924 12.956 29.7163 13.1205 29.6693 13.3201C29.3639 14.6767 28.6592 15.7866 27.6726 16.7439C27.5082 16.9083 27.379 17.1139 27.2321 17.2959C27.6785 17.2783 28.0719 17.1785 28.4419 17.0375C29.5929 16.5971 30.6676 16.0039 31.6601 15.264C32.911 14.3302 33.9798 13.2321 34.661 11.8109C34.8607 11.3881 34.9958 10.9359 35.1778 10.5072C35.2189 10.4073 35.3246 10.3369 35.401 10.2488C35.4421 10.2664 35.4832 10.2781 35.5243 10.2958C35.5243 10.836 35.4773 11.3822 35.536 11.9166C35.63 12.7623 35.7181 13.6255 35.9589 14.4359C36.3934 15.8806 37.0453 17.2372 37.9908 18.4293C38.4254 18.9814 38.8658 19.5275 39.3239 20.0502C39.5294 20.2792 39.8113 20.4378 40.0286 20.6609C40.1225 20.7549 40.2106 20.9487 40.1754 21.0661C39.964 21.7943 40.2635 22.4932 40.2752 23.2096C40.2811 23.4857 40.3633 23.7617 40.4221 24.0964C40.8919 23.6971 41.1444 23.2096 41.6729 22.963C42.2249 22.7046 42.7946 22.8749 43.3466 22.7281C43.4406 22.4638 43.5639 22.2113 43.6109 21.947C43.8869 20.379 44.1453 18.8052 44.1159 17.1961C44.0924 15.9393 43.881 14.7296 43.5521 13.5257C43.1058 11.8931 42.2191 10.5424 40.9976 9.41486C40.099 8.58682 39.042 8.08177 37.7089 8.31081C37.656 8.18748 37.5445 8.04654 37.5445 7.90559C37.5445 7.55911 37.3448 7.31833 37.1451 7.08343C36.6342 6.48442 36.0293 6.00287 35.3187 5.64464C33.6509 4.79898 31.8539 4.46424 30.0216 4.36441C28.6063 4.28806 27.1793 4.3233 25.764 4.56995C24.1843 4.84596 22.6398 5.23355 21.1951 5.94414C19.4627 6.7898 17.9182 7.88211 16.6732 9.39137C16.0037 10.2077 15.4106 11.0592 14.9525 12.0164C14.0951 13.8076 13.7721 15.7103 13.6958 17.6718C13.684 18.0182 13.7662 18.3647 13.8015 18.7112C13.8837 19.4805 13.9307 20.2616 14.054 21.025C14.1421 21.5712 14.1597 22.1526 14.4592 22.5871C14.7117 22.6635 14.9114 22.7281 15.1111 22.7868C14.7235 22.7281 14.3418 22.6928 13.9659 22.6576Z" fill="#31221A"/>
<path d="M36.2236 41.7796C36.0885 41.7385 35.9534 41.6974 35.8125 41.6563C35.8125 41.6328 35.8066 41.6152 35.7831 41.6034C35.7596 40.6109 35.9593 39.642 36.2882 38.72C36.5818 37.8861 36.987 37.0874 37.3217 36.2593C37.5214 35.7719 37.6565 35.2669 37.6036 34.7325C37.6095 34.6972 37.6154 34.6561 37.6212 34.6209C37.7035 34.3096 37.7857 33.9925 37.8679 33.6813L37.8738 33.6754C37.909 33.6343 37.9442 33.5932 37.9795 33.5521C38.5961 32.8239 38.9602 31.9665 39.248 31.0738C39.3243 30.8389 39.4183 30.6158 39.5064 30.3867C39.7413 30.4631 39.9644 30.5805 40.2052 30.6099C40.6809 30.6803 41.1624 30.7038 41.644 30.7449C41.5911 30.9387 41.7086 31.0092 41.8554 31.1032C42.3722 31.4497 42.9007 31.7785 43.3823 32.172C44.4628 33.0646 45.3437 34.1393 45.8605 35.4548C46.3949 36.8055 46.577 38.1856 46.3538 39.6537C46.1718 40.8752 45.7783 41.9793 45.2263 43.0657C45.0149 43.4885 44.9209 43.976 44.8035 44.4399C44.7565 44.6278 44.8211 44.7981 44.9738 44.9626C45.7724 45.7789 46.7414 45.8611 47.6458 45.1681C47.7045 45.1211 47.7633 45.0741 47.8455 45.0154C48.1274 45.2151 48.0921 45.4911 48.0393 45.7495C47.7633 47.1883 46.9705 48.1808 45.5434 48.6153C45.4494 48.6447 45.3555 48.6741 45.2674 48.7034C44.8739 48.7093 44.4805 48.7093 44.0929 48.7152C44.0518 48.5566 44.0165 48.3922 43.9754 48.2336C45.1206 48.4685 46.0896 48.1573 46.8647 47.2822C47.2054 46.8946 47.499 46.4836 47.4696 45.8728C47.2993 45.9139 47.2054 45.9315 47.1173 45.9668C46.2951 46.2898 45.0795 45.9668 44.6097 45.2151C44.3278 44.7629 44.1516 44.2285 43.993 43.7117C43.8814 43.3476 43.8697 42.9482 43.8403 42.5607C43.7992 42.0204 43.6642 41.4449 43.7816 40.9398C43.9813 40.0648 43.8051 39.2191 43.6994 38.3852C43.5702 37.3693 43.2824 36.365 42.7598 35.4548C42.6893 35.3315 42.6541 35.1846 42.5777 34.985C42.9771 35.0848 43.1121 35.3432 43.2355 35.6016C43.8638 36.8525 44.1868 38.1856 44.2103 39.5832C44.2279 40.5581 44.2279 41.5388 44.2103 42.5137C44.2045 42.9717 44.3043 43.3828 44.504 43.7939C44.78 43.1538 45.0677 42.5372 45.3202 41.9088C45.4847 41.4977 45.6139 41.069 45.7431 40.6403C46.0132 39.7477 45.9897 38.8315 45.978 37.9154C45.9721 37.0639 45.7372 36.2652 45.4083 35.49C44.9033 34.3155 44.0518 33.3994 43.1298 32.5537C42.6365 32.1015 42.0492 31.7433 41.4796 31.3263C41.321 31.5789 41.2094 31.7609 41.092 31.9371C40.8688 32.2777 40.6691 32.6418 40.4049 32.9531C39.8822 33.5697 39.2303 34.0454 38.5139 34.3977C38.1322 34.5856 37.9266 34.7971 37.9854 35.2434C38.0088 35.4313 37.9795 35.6368 37.9149 35.8189C37.633 36.6058 37.357 37.3986 37.034 38.1738C36.5407 39.3248 36.159 40.5052 36.2236 41.7796Z" fill="#31221A"/>
<path d="M37.8683 33.6793C37.7861 33.9905 37.7039 34.3076 37.6217 34.6189C37.5512 34.6541 37.4807 34.6952 37.4103 34.7305C36.0478 35.9872 34.5033 36.9562 32.7356 37.5258C32.7356 38.0837 32.7063 38.5712 32.7415 39.0586C32.8355 40.3036 33.5931 41.0846 34.8087 41.3078C34.7558 41.4781 34.703 41.6543 34.6501 41.8246L34.6677 41.807L34.6854 41.8363C34.6677 41.8598 34.6501 41.8774 34.6266 41.8892C34.562 41.8833 34.4974 41.8774 34.4328 41.8716C34.474 41.5545 34.1862 41.5662 34.0159 41.484C33.0528 41.0318 32.4949 40.2977 32.3892 39.2406C32.3598 38.9118 32.3892 38.5829 32.3892 38.2482C32.6593 38.0191 32.6593 37.8841 32.3833 37.6903C32.3304 37.7138 32.2776 37.7373 32.2247 37.7666C31.5611 37.8899 30.8975 38.0191 30.228 38.1425C29.5292 38.1425 28.8245 38.1425 28.1256 38.1425C27.1567 38.0133 26.1877 37.8841 25.1893 37.749C25.1541 38.3891 25.1189 39.0234 25.0836 39.6635C24.8017 40.6383 24.1792 41.2667 23.1926 41.5192C23.0341 41.4429 22.8814 41.3665 22.7228 41.2902C22.9225 41.2256 23.128 41.1786 23.3218 41.1023C24.191 40.744 24.7195 40.1333 24.7665 39.1643C24.79 38.6416 24.8135 38.119 24.8429 37.5493C24.5962 37.4965 24.3848 37.4789 24.191 37.4084C22.4527 36.7683 20.779 36.0283 19.4812 34.6306C18.6355 33.7204 18.013 32.6809 17.6254 31.5064C17.5549 31.295 17.5079 31.0718 17.4492 30.8545C17.5256 30.8487 17.6019 30.8428 17.6783 30.8311C17.7898 31.0249 17.9308 31.2069 18.0013 31.4183C18.7353 33.5559 20.1271 35.1298 22.1356 36.1223C24.1264 37.1089 26.2582 37.6492 28.4839 37.796C28.9537 37.9487 29.4176 37.9545 29.8874 37.796C32.583 37.4612 34.9673 36.4453 36.9581 34.5778C37.2634 34.29 37.5629 33.9788 37.8683 33.6793Z" fill="#703C40"/>
<path d="M41.6435 30.7509C41.1619 30.7098 40.6804 30.6804 40.2047 30.6158C39.9639 30.5806 39.7408 30.469 39.5059 30.3926C39.8641 29.224 40.1988 28.0495 40.5982 26.8984C40.7391 26.4815 40.9975 26.0998 41.25 25.7357C41.6083 25.2189 42.1368 24.9194 42.7475 24.796C43.0705 24.7314 43.4053 24.6786 43.6989 24.9076C43.6695 25.2012 43.464 25.1308 43.2702 25.1484C42.4715 25.2071 41.7786 25.4538 41.3968 26.2994C41.8725 26.3758 42.2484 26.5461 42.4069 27.0041C42.4187 27.0805 42.4304 27.1568 42.4422 27.2332C42.4246 27.2567 42.4187 27.286 42.4304 27.3154C42.2895 27.5679 42.2131 27.8968 41.7257 27.9379C41.8138 27.703 41.8901 27.5385 41.943 27.3682C42.0487 27.0276 41.8666 26.7457 41.5143 26.6753C41.1854 26.6048 41.0445 26.8162 40.9623 27.0687C40.6275 28.0847 40.3104 29.1065 39.9874 30.1284C39.9757 30.1753 40.0109 30.2341 40.0344 30.3339C40.1753 30.3574 40.3222 30.3985 40.4748 30.4044C42.0604 30.469 43.1939 29.7173 43.9749 28.3901C44.1394 28.1141 44.1981 27.7793 44.3038 27.4739C44.3097 27.4328 44.3214 27.3917 44.3273 27.3506C44.3801 27.2332 44.4271 27.1216 44.48 27.0041C44.6796 26.2877 44.6679 25.583 44.4212 24.8782C44.3919 24.8371 44.3566 24.796 44.3273 24.7608H44.3449C44.3273 24.6492 44.3214 24.5259 44.2803 24.4202C43.9103 23.5158 43.2291 23.14 42.0898 23.2046C42.2014 22.8874 42.4833 23.0695 42.683 23.0108C42.7593 23.0108 42.8356 23.0049 42.9179 23.0049C43.188 23.046 43.4581 23.0871 43.7283 23.1282C44.6561 23.7977 44.9615 24.7549 45.0085 25.8414C45.0085 25.9529 45.0085 26.0645 45.0085 26.182C44.9498 28.2315 43.7752 30.1049 41.7903 30.6804C41.7316 30.6686 41.6905 30.7156 41.6435 30.7509Z" fill="#703C40"/>
<path d="M13.9656 22.6582C14.3415 22.6934 14.7232 22.7345 15.099 22.7698C15.3222 22.9636 15.5453 23.1515 15.7685 23.3453C15.7744 23.4628 15.7802 23.5802 15.7861 23.6977C15.7098 23.6331 15.6393 23.5743 15.563 23.5097C14.9463 22.9518 14.3121 22.9342 13.6896 23.4686C13.2961 23.8092 13.026 24.2203 12.9555 24.7489C12.6325 25.6591 12.7382 26.5576 13.0671 27.4385C13.3607 28.5602 14.0419 29.3706 15.0344 29.9344C15.5336 30.2163 16.0621 30.3983 16.6435 30.3866C17.1897 30.3807 17.2425 30.2926 17.1427 29.7582C17.0311 29.1474 16.9489 28.5308 16.8491 27.9201C16.9606 27.9201 17.0722 27.9201 17.1838 27.9142C17.36 28.7657 17.5362 29.6173 17.7006 30.4747C17.7182 30.5569 17.6771 30.6508 17.6654 30.7389C17.1544 30.7389 16.6435 30.7448 16.1326 30.7448C14.776 30.5158 13.7659 29.7641 13.0906 28.5954C12.38 27.3622 12.1686 26.0291 12.5327 24.6373C12.7265 23.8973 13.1199 23.2748 13.7953 22.8696C13.8716 22.8344 13.9069 22.7287 13.9656 22.6582Z" fill="#703C40"/>
<path d="M16.1328 30.7529C16.6437 30.7529 17.1547 30.7471 17.6656 30.7471C17.6656 30.7764 17.6714 30.8117 17.6714 30.841C17.5951 30.8469 17.5188 30.8528 17.4424 30.8645C17.0078 30.8293 16.5674 30.7882 16.1328 30.7529Z" fill="#B2AFA6"/>
<path d="M30.7678 3.9592C30.439 3.92983 30.116 3.90047 29.7871 3.86523C30.116 3.90047 30.4448 3.92983 30.7678 3.9592Z" fill="#DD5D3E"/>
<path d="M27.6444 3.86523C27.3742 3.8946 27.11 3.92396 26.8398 3.95332C27.1041 3.91809 27.3742 3.88872 27.6444 3.86523Z" fill="#E6A872"/>
<path d="M36.2239 41.7814C36.1593 40.5012 36.5411 39.3267 37.0226 38.1639C37.3456 37.3946 37.6216 36.6018 37.9035 35.809C37.9681 35.6328 37.9975 35.4214 37.974 35.2334C37.9211 34.793 38.1208 34.5816 38.5025 34.3878C39.219 34.0354 39.8708 33.5539 40.3935 32.9431C40.6578 32.6319 40.8574 32.2678 41.0806 31.9272C41.1981 31.751 41.3096 31.5689 41.4682 31.3164C42.0378 31.7334 42.6192 32.0916 43.1184 32.5438C44.0404 33.3894 44.8919 34.3056 45.397 35.4801C45.7317 36.2494 45.9607 37.054 45.9666 37.9055C45.9784 38.8216 45.996 39.7377 45.7317 40.6304C45.6025 41.0591 45.4733 41.4878 45.3089 41.8989C45.0564 42.5272 44.7686 43.1497 44.4926 43.784C44.2929 43.3729 44.1931 42.9618 44.199 42.5037C44.2166 41.5289 44.2166 40.5482 44.199 39.5733C44.1755 38.1756 43.8525 36.8425 43.2241 35.5917C43.0949 35.3333 42.9657 35.0808 42.5664 34.975C42.6427 35.1747 42.6779 35.3215 42.7484 35.4449C43.2711 36.3551 43.5588 37.3652 43.688 38.3753C43.7937 39.2092 43.9699 40.0549 43.7703 40.9299C43.6528 41.4408 43.7879 42.0104 43.829 42.5507C43.8584 42.9383 43.8701 43.3377 43.9817 43.7018C44.1402 44.2185 44.3164 44.753 44.5983 45.2051C45.0681 45.9568 46.2837 46.274 47.1059 45.9568C47.194 45.9216 47.2879 45.9099 47.4583 45.8629C47.4935 46.4736 47.1999 46.8847 46.8534 47.2723C46.0782 48.1473 45.1092 48.4586 43.964 48.2237C43.6352 47.607 43.3122 46.9846 42.9775 46.3738C42.3197 45.1582 41.3155 44.289 40.1645 43.5549C39.3247 43.0205 38.4027 42.6564 37.5042 42.2453C38.0033 40.83 38.5025 39.4147 39.0487 37.8702C38.8725 38.0464 38.755 38.111 38.7022 38.2167C38.3909 38.8627 38.0679 39.5028 37.7919 40.1606C37.5453 40.7654 37.3574 41.3879 37.1459 42.0046C36.8171 42.0281 36.4882 42.0457 36.2239 41.7814Z" fill="#452E26"/>
<path d="M32.2124 37.7677C32.2652 37.7443 32.3181 37.7208 32.3709 37.6914C32.3709 37.8793 32.3768 38.0614 32.3768 38.2493C32.3768 38.5782 32.3475 38.9129 32.3768 39.2418C32.4825 40.2988 33.0404 41.0388 34.0035 41.4851C34.1738 41.5615 34.4616 41.5497 34.4205 41.8727C33.2694 43.9927 31.3902 44.8971 29.0764 45.0792C28.9531 45.0968 28.8298 45.1144 28.7064 45.132C28.5831 45.1379 28.4656 45.1438 28.3423 45.1496C28.266 45.1496 28.1896 45.1496 28.1133 45.1496C27.9547 45.1438 27.7903 45.1379 27.6317 45.132C27.5084 45.1144 27.391 45.0909 27.2676 45.0733C26.0872 44.9852 25.0067 44.6681 24.1551 43.7872C23.5679 43.1764 23.2919 42.4071 23.01 41.6378C23.0041 41.6202 23.1157 41.5615 23.1685 41.5204C24.161 41.2678 24.7835 40.6395 25.0595 39.6646C26.4455 40.1814 27.8666 40.2754 29.3113 40.017C30.0865 39.876 30.8264 39.6118 31.4548 39.1419C31.907 38.8131 32.277 38.3902 32.2124 37.7677Z" fill="#F8BC94"/>
<path d="M34.6622 41.8489C35.132 41.6903 35.455 42.0486 35.9131 42.1719C35.8485 42.4009 35.8132 42.6065 35.731 42.7885C35.0263 44.3213 33.8107 45.3196 32.3073 46.0008C31.1151 46.5352 29.8349 46.7701 28.5547 46.7936C26.6226 46.8347 24.7962 46.3414 23.1988 45.2139C22.1946 44.5033 21.8012 43.4286 21.6367 42.1895C21.8129 42.1014 21.9773 42.0074 22.1535 41.937C22.3297 41.8665 22.5176 41.8136 22.7525 41.7373C22.8876 42.072 23.0227 42.3892 23.1342 42.7122C23.604 44.0041 24.5143 44.8263 25.818 45.1963C28.0731 45.8305 30.2695 45.6485 32.3366 44.5209C33.2058 44.0511 33.9164 43.3699 34.392 42.489C34.4919 42.3011 34.5447 42.0897 34.6211 41.89C34.6446 41.8782 34.6622 41.8606 34.6798 41.8371L34.6622 41.8489Z" fill="#E0543E"/>
<path d="M37.1523 42.021C37.3638 41.4044 37.5517 40.776 37.7983 40.177C38.0685 39.5134 38.3915 38.8733 38.7086 38.2332C38.7614 38.1334 38.8789 38.0629 39.0551 37.8867C38.5089 39.4312 38.0098 40.8465 37.5106 42.2618C37.3931 42.1796 37.2698 42.0974 37.1523 42.021Z" fill="#31221A"/>
<path d="M17.6081 57.0451C17.5141 57.0099 17.426 56.9805 17.332 56.9453C17.426 56.9805 17.52 57.0099 17.6081 57.0451Z" fill="#E6A872"/>
<path d="M27.2793 45.0801C27.4026 45.0977 27.5201 45.1212 27.6434 45.1388C27.5201 45.1153 27.3967 45.0977 27.2793 45.0801Z" fill="#E6A872"/>
<path d="M34.6624 41.8502L34.6802 41.8383L34.6624 41.8086C34.6624 41.8086 34.6505 41.8264 34.6445 41.8264L34.6624 41.8502Z" fill="#F8BC94"/>
<path d="M35.666 41.6507C35.7074 41.6389 35.7428 41.6212 35.7841 41.6094C35.8078 41.6212 35.8196 41.6389 35.8137 41.6625C35.7664 41.6566 35.7192 41.6507 35.666 41.6507Z" fill="#8655A7"/>
<path d="M17.6717 30.8398C17.6659 30.8105 17.6659 30.7752 17.6659 30.7459C17.6776 30.6578 17.7187 30.5638 17.7011 30.4816C17.5308 29.6301 17.3546 28.7727 17.1843 27.9211C17.0786 26.8347 16.9729 25.7483 16.8672 24.6618C16.8731 24.2508 16.8731 23.8397 16.8789 23.4286C16.9024 23.135 16.9435 22.8472 16.9553 22.5536C16.9846 21.4789 17.2195 20.4394 17.5014 19.353C17.8832 19.6995 18.2884 19.5468 18.6701 19.4352C22.4051 18.3546 25.8817 16.769 28.771 14.0911C28.8238 14.0441 28.8884 14.003 29.0529 13.8797C28.3658 15.5593 27.2265 16.7044 25.9051 17.6558C26.005 18.0786 26.2751 18.1021 26.557 18.0317C27.0679 17.9083 27.5847 17.785 28.078 17.6147C30.3272 16.8219 32.318 15.6239 33.8684 13.774C34.2678 13.2983 34.6084 12.7757 35.0136 12.2236C35.0606 12.3822 35.131 12.529 35.1487 12.6817C35.5715 15.6767 36.9398 18.1902 39.0422 20.322C39.418 20.6978 39.5825 21.103 39.6236 21.5846C39.7175 22.6651 39.7821 23.7516 39.8644 24.8321C39.8702 24.9026 39.9172 24.9672 39.9407 25.0377C40.3459 25.1023 40.5338 24.8674 40.6748 24.5737C40.8744 24.1627 41.1093 23.7868 41.4969 23.5284C41.6849 23.4051 41.8845 23.2935 42.0783 23.1761C43.2176 23.1115 43.8989 23.4873 44.2688 24.3917C44.3099 24.4974 44.3099 24.6207 44.3334 24.7323C44.1161 24.7852 43.9047 24.8321 43.6874 24.885C43.3938 24.656 43.0591 24.7088 42.7361 24.7734C42.1253 24.8967 41.5968 25.1962 41.2386 25.713C40.986 26.0771 40.7276 26.4647 40.5867 26.8758C40.1932 28.0327 39.8526 29.2072 39.4944 30.37C39.4063 30.5991 39.3123 30.8222 39.236 31.0571C38.9482 31.9556 38.5783 32.8072 37.9675 33.5354C37.9323 33.5765 37.897 33.6176 37.8618 33.6587L37.8559 33.6646C37.5505 33.9641 37.251 34.2694 36.9398 34.5631C34.9431 36.4306 32.5588 37.4465 29.8692 37.7813C29.3993 37.7813 28.9354 37.7813 28.4656 37.7813C26.2399 37.6345 24.114 37.1 22.1173 36.1076C20.1089 35.1151 18.7171 33.5412 17.983 31.4036C17.9243 31.2216 17.7833 31.0336 17.6717 30.8398ZM23.1979 20.046C23.4445 20.0812 23.6912 20.1223 23.9437 20.1458C24.2432 20.1752 24.4252 20.0283 24.4663 19.7347C24.5192 19.3471 24.3665 18.9184 23.9261 18.8538C23.7147 18.8245 23.5091 18.7775 23.3036 18.7364C22.9571 18.7364 22.6165 18.7422 22.27 18.7422C21.2129 18.8538 20.2498 19.2003 19.504 19.9931C19.3219 20.1869 19.181 20.4336 19.0812 20.6802C19.0342 20.7918 19.134 20.9621 19.1634 21.1089C19.2985 21.0678 19.4688 21.0678 19.5627 20.9797C20.1911 20.3924 20.9193 20.0695 21.7767 20.046C22.2406 20.046 22.7222 20.046 23.1979 20.046ZM24.5897 23.3934C24.6602 23.1291 24.5486 22.9235 24.3372 22.7943C24.0024 22.6005 23.6677 22.395 23.3094 22.2599C21.8824 21.7138 20.3144 22.2541 19.5686 23.5813C19.2985 24.0511 19.087 24.5796 19.5157 25.0964C19.78 25.0847 19.7506 25.2843 19.7918 25.4546C20.009 26.4765 20.5082 27.281 21.5888 27.5277C22.2289 27.6745 22.8984 27.6158 23.5444 27.4983C24.3313 27.3515 24.7776 26.8406 24.9009 26.083C25.0184 25.3313 25.0184 24.5679 24.7248 23.8397C24.666 23.6929 24.6308 23.5402 24.5897 23.3934ZM32.2241 23.3522C31.8893 24.0981 31.8306 24.885 31.86 25.6895C31.8776 26.1182 32.0009 26.5 32.23 26.8465C32.5236 27.2928 33.0169 27.4689 33.4867 27.6158C33.7627 27.7039 34.0974 27.5805 34.4087 27.5805C35.6772 27.5864 36.3643 26.9463 36.746 25.9068C36.8635 25.5838 36.8811 25.2197 36.9457 24.8791C37.2687 24.8556 37.4037 24.6325 37.3685 24.3623C37.3274 24.0393 37.2628 23.6987 37.1042 23.4227C36.4406 22.3069 35.3835 21.9604 34.1562 22.025C33.5161 22.0603 32.9405 22.2952 32.4472 22.7063C32.23 22.8707 32.0655 23.0586 32.2241 23.3522ZM37.2099 21.1676C37.8618 20.8916 37.9264 20.6978 37.5153 20.1106C37.0984 19.5116 36.517 19.124 35.824 18.9125C35.4716 18.8068 35.1075 18.7129 34.7434 18.7011C34.0681 18.6776 33.381 18.6953 32.7056 18.7422C32.2828 18.7716 32.0538 19.0887 31.9598 19.4704C31.9246 19.6173 31.9657 19.8228 32.0538 19.9403C32.1125 20.0225 32.3357 20.0401 32.459 20.0049C33.6041 19.629 34.7023 19.8287 35.7594 20.2926C36.2527 20.5099 36.6873 20.8446 37.2099 21.1676ZM25.1006 32.0144C24.9831 32.3373 25.1182 32.5018 25.3238 32.6427C25.9404 33.0832 26.651 33.3357 27.3792 33.4179C28.2659 33.5177 29.1762 33.459 30.0395 33.1654C30.4623 33.0186 30.8675 32.8248 31.261 32.6192C31.4724 32.5135 31.6368 32.3374 31.4783 32.0496C30.9497 32.2786 30.4506 32.5605 29.9161 32.7132C29.3817 32.8659 28.8121 32.9657 28.2542 32.9716C27.6963 32.9775 27.1208 32.907 26.5864 32.7426C26.0755 32.5899 25.6115 32.2728 25.1006 32.0144ZM28.0839 29.7945C27.896 29.7005 27.7491 29.6242 27.5965 29.5596C27.0209 29.3071 26.8741 28.8314 27.2089 28.2852C27.2911 28.156 27.4144 28.0445 27.479 27.9094C27.5142 27.8272 27.4673 27.7039 27.4555 27.604C27.3674 27.6216 27.2324 27.6158 27.1971 27.6686C27.0151 27.9388 26.8154 28.2148 26.7097 28.5143C26.4278 29.3188 27.1032 30.0881 27.9606 29.9707C27.9782 29.9648 28.0017 29.912 28.0839 29.7945Z" fill="#F8BC94"/>
<path d="M15.7687 23.3463C15.5456 23.1525 15.3224 22.9646 15.0992 22.7708C14.8996 22.7121 14.7058 22.6475 14.4474 22.5711C14.1479 22.1366 14.1303 21.5552 14.0422 21.009C13.9188 20.2456 13.8719 19.4645 13.7897 18.6952C13.7544 18.3487 13.6663 17.9964 13.6839 17.6557C13.7603 15.6943 14.0833 13.7916 14.9407 12.0004C15.3987 11.0432 15.9919 10.1916 16.6614 9.37535C17.9005 7.86609 19.4509 6.77965 21.1833 5.92812C22.6279 5.22341 24.1724 4.82994 25.7522 4.55393C27.1675 4.30728 28.5886 4.27204 30.0098 4.34839C31.8421 4.44822 33.6391 4.78296 35.3069 5.62862C36.0116 5.98685 36.6224 6.46841 37.1333 7.06741C37.333 7.30232 37.5326 7.54309 37.5326 7.88958C37.5326 8.03052 37.6442 8.16559 37.6971 8.29479C39.0243 8.07163 40.0872 8.5708 40.9857 9.39884C42.2072 10.5264 43.0999 11.8771 43.5403 13.5097C43.8692 14.7136 44.0806 15.9233 44.1041 17.1801C44.1335 18.7892 43.8809 20.3571 43.5991 21.931C43.5521 22.1953 43.4287 22.4478 43.3348 22.7121C42.7828 22.8589 42.2131 22.6886 41.6611 22.947C41.1326 23.1936 40.88 23.6811 40.4102 24.0804C40.3515 23.7398 40.2693 23.4696 40.2634 23.1936C40.2575 22.4772 39.9522 21.7783 40.1636 21.0501C40.1988 20.9385 40.1107 20.7447 40.0168 20.6449C39.7995 20.4217 39.5176 20.2632 39.312 20.0342C38.8481 19.5115 38.4077 18.9653 37.979 18.4133C37.0335 17.2212 36.3816 15.8646 35.947 14.4199C35.7063 13.6095 35.6182 12.7462 35.5242 11.9006C35.4655 11.3662 35.5125 10.82 35.5125 10.2797C35.4714 10.2621 35.4302 10.2504 35.3891 10.2328C35.3128 10.315 35.2071 10.3913 35.166 10.4911C34.9839 10.9198 34.8547 11.372 34.6492 11.7949C33.968 13.2219 32.8991 14.3142 31.6483 15.248C30.6558 15.9879 29.5811 16.5811 28.4301 17.0215C28.0542 17.1624 27.6666 17.2623 27.2203 17.2799C27.3671 17.092 27.4905 16.8923 27.6608 16.7279C28.6474 15.7706 29.358 14.6607 29.6575 13.3041C29.7044 13.1045 29.8806 12.94 29.9687 12.7462C30.2506 12.1472 30.5207 11.5482 30.7791 10.9433C30.8202 10.8494 30.785 10.7261 30.785 10.591C30.4561 10.6203 30.4092 10.867 30.3387 11.0432C29.7103 12.617 28.571 13.7563 27.2791 14.7958C26.1926 15.6708 24.9946 16.3638 23.7672 16.9921C22.0113 17.8906 20.1614 18.5601 18.2587 19.0945C18.059 19.1533 17.8417 19.1533 17.5364 19.2002C17.6832 18.795 17.7948 18.4309 17.9475 18.0844C18.7226 16.3814 19.8149 14.8897 21.148 13.5801C21.9232 12.8108 22.6749 12.0122 23.5734 11.3779C23.7848 11.2252 23.9434 11.0021 24.1313 10.8141C24.1078 10.7789 24.0785 10.7378 24.055 10.7026C23.9258 10.7495 23.7731 10.773 23.6674 10.8553C23.0508 11.3309 22.4224 11.7949 21.8469 12.3117C20.825 13.2219 19.9148 14.2438 19.075 15.3243C18.4173 16.1758 17.9005 17.1213 17.4776 18.1138C16.9667 19.3059 16.7201 20.5627 16.6085 21.8488C16.5498 22.5418 16.4969 23.2406 16.4323 24.0158C16.3149 23.8866 16.2268 23.775 16.1269 23.681C16.0154 23.5636 15.892 23.4579 15.7687 23.3463ZM15.2872 17.4737C15.616 17.3856 15.5456 17.1801 15.5514 17.0215C15.5632 16.5341 15.4927 16.0349 15.5749 15.5592C15.7981 14.279 16.3031 13.0868 17.1429 12.1002C17.8946 11.2135 18.7755 10.4383 19.5918 9.61026C19.7327 9.46931 19.9442 9.35186 19.8385 9.04061C19.6975 9.09347 19.5566 9.11696 19.4626 9.18743C18.429 10.0213 17.4777 10.9316 16.6907 12.0122C15.9332 13.0516 15.4281 14.1968 15.2049 15.4594C15.1286 15.894 15.0934 16.3461 15.0934 16.7866C15.0992 17.0215 15.2226 17.2505 15.2872 17.4737ZM39.4354 14.4082C39.3884 14.4434 39.3414 14.4787 39.2944 14.5198C39.3649 14.9543 39.5293 15.3595 39.6996 15.7648C40.2575 17.1096 40.7978 18.4662 40.7978 19.9578C40.7978 20.3689 40.7978 20.78 40.7978 21.2087C41.1502 21.2146 41.2383 20.9209 41.25 20.6684C41.2735 20.2221 41.2559 19.7758 41.1913 19.3353C41.0327 18.2195 40.6686 17.1566 40.2752 16.1054C40.099 15.6297 39.8993 15.1658 39.6938 14.7077C39.6527 14.5902 39.5235 14.5021 39.4354 14.4082ZM32.1709 7.83673C32.353 7.96005 32.4352 8.05401 32.5292 8.06576C32.9109 8.12448 33.2985 8.16559 33.6861 8.20083C34.2381 8.25368 34.7666 8.36526 35.1895 8.75285C35.348 8.8938 35.5066 8.96427 35.7004 8.82332C35.2482 7.99529 33.6391 7.5196 32.1709 7.83673Z" fill="#452E26"/>
<path d="M16.8503 27.926C16.9443 28.5368 17.0265 29.1534 17.144 29.7642C17.2438 30.2986 17.1909 30.3867 16.6448 30.3925C16.0634 30.3984 15.529 30.2222 15.0357 29.9403C14.0432 29.3766 13.3561 28.5661 13.0684 27.4445C13.4912 27.9789 14.0491 28.0317 14.6775 27.9378C14.9065 27.9025 15.0709 27.8321 15.2177 27.6794C15.3998 27.7205 15.529 27.6794 15.5466 27.468C15.5583 27.2918 15.5172 27.1097 15.5642 26.9512C15.6053 26.8044 15.7052 26.6282 15.8285 26.5518C16.0047 26.4403 16.2043 26.5283 16.3394 26.6928C16.4275 26.7926 16.5097 26.8983 16.5978 27.004C16.6213 27.0569 16.6507 27.1097 16.6741 27.1626C16.7329 27.4151 16.7916 27.6676 16.8503 27.926Z" fill="#F8BC94"/>
<path d="M12.957 24.7555C13.0216 24.227 13.2976 23.81 13.6911 23.4753C14.3195 22.9409 14.9479 22.9585 15.5645 23.5164C15.635 23.581 15.7113 23.6397 15.7876 23.7043C16.046 24.4443 16.3044 25.1901 16.5628 25.93C16.51 25.9712 16.4512 26.0123 16.3984 26.0534C15.9697 25.3252 15.3472 24.873 14.5074 24.732C14.2255 24.6146 13.9436 24.5793 13.6617 24.7379C13.6324 24.7555 13.6089 24.7673 13.5795 24.7731C13.3681 24.7614 13.1626 24.7555 12.957 24.7555Z" fill="#F8BC94"/>
<path d="M14.5067 24.7246C15.3465 24.8656 15.969 25.3178 16.3977 26.046C16.4681 26.1223 16.5445 26.1987 16.615 26.275C16.6091 26.5158 16.6032 26.7565 16.5973 26.9973C16.5151 26.8916 16.427 26.7918 16.3389 26.6861C16.198 26.5216 16.0042 26.4394 15.828 26.5451C15.7047 26.6215 15.6049 26.7977 15.5638 26.9445C15.5168 27.1089 15.5579 27.291 15.5461 27.4613C15.5344 27.6668 15.3993 27.7138 15.2173 27.6727C15.2114 27.3497 15.1644 27.0149 15.2173 26.6978C15.276 26.3161 15.646 26.2104 15.9925 26.1164C15.6166 25.5996 15.1997 25.2355 14.6124 25.1298C14.3834 25.0887 14.1485 25.1063 13.9136 25.1005C13.6845 25.0946 13.5318 25.0241 13.5788 24.754C13.6082 24.7481 13.6375 24.7364 13.661 24.7188C13.9429 24.7305 14.2248 24.7246 14.5067 24.7246Z" fill="#703C40"/>
<path d="M16.6099 26.2762C16.5394 26.1998 16.463 26.1235 16.3926 26.0472C16.4454 26.006 16.5042 25.9649 16.557 25.9238C16.5805 26.0413 16.5981 26.1587 16.6099 26.2762Z" fill="#5D5D59"/>
<path d="M16.6744 27.1565C16.6508 27.1034 16.6213 27.0502 16.5977 26.9971C16.6213 27.0502 16.6449 27.1034 16.6744 27.1565Z" fill="#703C40"/>
<path d="M37.604 34.7395C37.5394 34.7395 37.4748 34.7395 37.4043 34.7395C37.4748 34.7043 37.5452 34.6632 37.6157 34.6279C37.6157 34.6632 37.6098 34.6984 37.604 34.7395Z" fill="#E6DED1"/>
<path d="M32.2134 37.7666C32.278 38.3891 31.908 38.812 31.4676 39.1408C30.8392 39.6106 30.0992 39.8749 29.324 40.0159C27.8794 40.2742 26.4582 40.1803 25.0723 39.6635C25.1075 39.0234 25.1427 38.3891 25.178 37.749C26.1763 37.8841 27.1453 38.0133 28.1143 38.1425C28.8131 38.2834 29.5178 38.2893 30.2167 38.1425C30.8862 38.0192 31.5498 37.89 32.2134 37.7666Z" fill="#E6A872"/>
<path d="M30.2215 38.1455C29.5227 38.2923 28.818 38.2865 28.1191 38.1455C28.818 38.1455 29.5227 38.1455 30.2215 38.1455Z" fill="#5D5D59"/>
<path d="M28.4785 37.8057C28.9483 37.8057 29.4123 37.8057 29.8821 37.8057C29.4123 37.9584 28.9425 37.9525 28.4785 37.8057Z" fill="#B73F23"/>
<path d="M32.3828 38.2493C32.3828 38.0614 32.377 37.8793 32.377 37.6914C32.653 37.8852 32.653 38.0203 32.3828 38.2493Z" fill="#B73F23"/>
<path d="M44.305 27.4628C44.1993 27.7682 44.1406 28.1029 43.9762 28.3789C43.1951 29.7003 42.0617 30.452 40.4761 30.3932C40.3293 30.3874 40.1766 30.3462 40.0356 30.3228C40.0122 30.2229 39.9769 30.1642 39.9887 30.1172C40.3058 29.0954 40.6288 28.0735 40.9635 27.0576C41.0457 26.8051 41.1867 26.5936 41.5155 26.6641C41.8679 26.7346 42.0441 27.0165 41.9442 27.3571C41.8914 27.5274 41.8151 27.6977 41.727 27.9267C42.2144 27.8797 42.2907 27.5568 42.4317 27.3042C42.4317 27.5098 42.4845 27.6566 42.7194 27.7271C43.1716 27.8621 43.6003 28.0089 43.9879 27.5861C44.0584 27.5098 44.1993 27.5039 44.305 27.4628Z" fill="#F8BC94"/>
<path d="M44.3054 27.4641C44.1997 27.5052 44.0587 27.5111 43.9883 27.5875C43.6007 28.0103 43.172 27.8635 42.7198 27.7284C42.479 27.6579 42.432 27.5111 42.432 27.3056C42.4203 27.2762 42.4261 27.2527 42.4438 27.2234C42.5788 27.1235 42.5553 27.0531 42.4085 26.9943C42.25 26.5363 41.8741 26.366 41.3984 26.2896C41.7802 25.444 42.4673 25.1914 43.2718 25.1386C43.4656 25.1268 43.677 25.1914 43.7005 24.8978C43.9178 24.845 44.1292 24.798 44.3465 24.7451H44.3289C44.3582 24.7862 44.3935 24.8273 44.4228 24.8626C44.6695 25.5673 44.6812 26.272 44.4816 26.9885C44.4287 27.1059 44.3817 27.2175 44.3289 27.3349C44.323 27.3819 44.3113 27.423 44.3054 27.4641Z" fill="#E6A872"/>
<path d="M44.3281 27.3406C44.381 27.2232 44.428 27.1116 44.4808 26.9941C44.428 27.1057 44.381 27.2232 44.3281 27.3406Z" fill="#F8BC94"/>
<path d="M42.4082 26.9941C42.555 27.0529 42.5726 27.1233 42.4434 27.2232C42.4317 27.1468 42.4199 27.0705 42.4082 26.9941Z" fill="#F8BC94"/>
<path d="M13.579 24.7617C13.5379 25.026 13.6847 25.1023 13.9138 25.1082C14.1487 25.1141 14.3836 25.0965 14.6126 25.1376C15.1999 25.2433 15.6168 25.6074 15.9927 26.1242C15.6462 26.224 15.2762 26.3238 15.2175 26.7056C15.1646 27.0227 15.2116 27.3516 15.2175 27.6804C15.0707 27.8331 14.9062 27.9036 14.6772 27.9388C14.0488 28.0328 13.4909 27.9799 13.0681 27.4455C12.7392 26.5588 12.6394 25.6661 12.9565 24.7559C13.1621 24.7559 13.3676 24.7617 13.579 24.7617Z" fill="#E6A872"/>
<path d="M36.94 24.8745C36.8754 25.221 36.8578 25.5792 36.7403 25.9022C36.3586 26.9417 35.6715 27.5818 34.403 27.5759C34.0918 27.5759 33.757 27.6934 33.481 27.6112C33.0112 27.4643 32.512 27.2882 32.2243 26.8418C32.0011 26.4954 31.8719 26.1195 31.8543 25.6849C31.8249 24.8745 31.8837 24.0935 32.2184 23.3476C32.3359 23.2948 32.4709 23.2595 32.559 23.1773C32.9584 22.7956 33.4399 22.5901 33.9743 22.502C34.2151 22.4961 34.45 22.4961 34.6908 22.4902C35.4777 22.637 36.0356 23.148 36.5407 23.7117C36.6933 23.882 36.7227 24.1639 36.799 24.393C36.8636 24.5515 36.8989 24.716 36.94 24.8745ZM34.356 27.3586C34.7789 27.2529 35.1019 27.0063 35.2898 26.6246C35.5834 26.0256 35.7361 25.3796 35.7067 24.716C35.6891 24.2696 35.6069 23.8233 35.2487 23.4827C34.4911 22.7662 33.2168 22.8543 32.6119 23.8762C32.1832 24.5926 32.2008 25.3678 32.4122 26.143C32.5825 26.7655 32.976 27.2001 33.6278 27.3645C33.8686 27.5172 34.1153 27.5113 34.356 27.3586Z" fill="#FFFAF4"/>
<path d="M24.5896 23.3922C24.6307 23.539 24.6659 23.6917 24.7188 23.8326C25.0124 24.5608 25.0124 25.3242 24.895 26.0759C24.7775 26.8394 24.3253 27.3503 23.5384 27.4912C22.8865 27.6087 22.2229 27.6674 21.5828 27.5206C20.5022 27.274 20.0031 26.4694 19.7858 25.4476C19.7505 25.2773 19.7799 25.0776 19.5098 25.0893C19.7447 24.9895 19.7564 24.7781 19.8034 24.5608C20.0677 23.3158 21.3538 22.3821 22.6105 22.5289C23.1625 22.5935 23.65 22.8108 24.0963 23.1514C24.2372 23.263 24.4251 23.3158 24.5896 23.3922ZM24.5543 25.2949C24.4956 24.9778 24.4486 24.6313 24.3664 24.3024C24.1844 23.5683 23.5208 23.0339 22.7691 22.9987C22.0115 22.9635 21.3655 23.3863 21.1071 24.138C20.837 24.9073 20.8722 25.6884 21.2011 26.4224C21.5006 27.086 22.1172 27.456 22.7514 27.456C23.5619 27.456 24.1667 26.9627 24.3958 26.1875C24.478 25.9056 24.5015 25.612 24.5543 25.2949Z" fill="#FFFAF4"/>
<path d="M37.21 21.1663C36.6873 20.8492 36.2527 20.5086 35.7594 20.2913C34.7024 19.8215 33.6042 19.6218 32.459 20.0035C32.3357 20.0446 32.1184 20.0212 32.0538 19.9389C31.9657 19.8215 31.9246 19.6159 31.9598 19.4691C32.0538 19.0874 32.2828 18.7703 32.7057 18.7409C33.381 18.6939 34.0622 18.6763 34.7435 18.6998C35.1076 18.7116 35.4717 18.8055 35.824 18.9112C36.517 19.1168 37.0984 19.5044 37.5154 20.1092C37.9264 20.6906 37.8618 20.8903 37.21 21.1663Z" fill="#31221A"/>
<path d="M23.2973 18.7363C23.5029 18.7774 23.7084 18.8244 23.9198 18.8538C24.3661 18.9184 24.513 19.3471 24.4601 19.7347C24.419 20.0283 24.2369 20.1751 23.9374 20.1458C23.6908 20.1223 23.4441 20.0812 23.1916 20.0459C22.7159 19.8815 22.2344 19.8815 21.7587 20.0459C20.9013 20.0753 20.1672 20.3924 19.5447 20.9797C19.4508 21.0678 19.2805 21.0678 19.1454 21.1089C19.116 20.962 19.0162 20.7917 19.0632 20.6802C19.163 20.4335 19.3039 20.1869 19.486 19.9931C20.2318 19.2003 21.1949 18.8597 22.252 18.7422C22.6102 18.7363 22.9508 18.7363 23.2973 18.7363Z" fill="#31221A"/>
<path d="M33.9795 22.5046C33.4451 22.5927 32.9635 22.7983 32.5642 23.18C32.4761 23.2622 32.3351 23.2974 32.2236 23.3503C32.065 23.0567 32.2294 22.8746 32.435 22.7043C32.9342 22.2932 33.5097 22.0583 34.1439 22.0231C35.3713 21.9585 36.4342 22.305 37.092 23.4208C37.2505 23.6909 37.3151 24.0374 37.3562 24.3604C37.3915 24.6305 37.2564 24.8537 36.9334 24.8772C36.8923 24.7186 36.8512 24.5542 36.7983 24.3956C36.722 24.1607 36.6926 23.8847 36.5399 23.7144C36.0349 23.1506 35.477 22.6397 34.6901 22.4929C34.4552 22.3343 34.2203 22.3461 33.9795 22.5046Z" fill="#4E3429"/>
<path d="M24.59 23.3923C24.4256 23.316 24.2435 23.2631 24.1026 23.1574C23.6621 22.8168 23.1688 22.5995 22.6168 22.5349C21.36 22.3881 20.074 23.3218 19.8097 24.5668C19.7627 24.7782 19.7568 24.9955 19.5161 25.0954C19.0874 24.5727 19.2988 24.05 19.5689 23.5802C20.3147 22.2589 21.8827 21.7127 23.3098 22.2589C23.668 22.394 24.0027 22.5995 24.3375 22.7933C24.5489 22.9166 24.6605 23.1222 24.59 23.3923Z" fill="#4E3429"/>
<path d="M25.1015 32.0127C25.6065 32.2711 26.0704 32.5882 26.5813 32.7409C27.1099 32.9053 27.6913 32.9758 28.2492 32.9699C28.8071 32.9641 29.3767 32.8701 29.9111 32.7115C30.4455 32.5588 30.9447 32.277 31.4732 32.0479C31.6318 32.3357 31.4674 32.506 31.256 32.6176C30.8566 32.8172 30.4514 33.0169 30.0344 33.1637C29.1712 33.4632 28.2609 33.522 27.3742 33.4163C26.6459 33.334 25.9354 33.0874 25.3187 32.6411C25.1249 32.5001 24.984 32.3357 25.1015 32.0127Z" fill="#4E3429"/>
<path d="M28.0837 29.794C28.0015 29.9115 27.9839 29.9643 27.9545 29.9702C27.0971 30.0876 26.4218 29.3183 26.7037 28.5138C26.8094 28.2084 27.0149 27.9383 27.1911 27.6681C27.2263 27.6153 27.3614 27.6211 27.4495 27.6035C27.4612 27.7092 27.5082 27.8267 27.473 27.9089C27.4142 28.0498 27.285 28.1555 27.2028 28.2847C26.8681 28.825 27.0149 29.3007 27.5904 29.5591C27.749 29.6237 27.8958 29.7 28.0837 29.794Z" fill="#703C40"/>
<path d="M21.7656 20.0437C22.2413 19.8852 22.7229 19.8852 23.1986 20.0437C22.7229 20.0437 22.2413 20.0437 21.7656 20.0437Z" fill="#5D5D59"/>
<path d="M23.2992 18.7363C22.9527 18.7363 22.6062 18.7422 22.2656 18.7422C22.6121 18.7363 22.9527 18.7363 23.2992 18.7363Z" fill="#DD5D3E"/>
<path d="M15.2875 17.4731C15.2229 17.2441 15.0996 17.0209 15.0996 16.7919C15.0996 16.3456 15.1349 15.8992 15.2112 15.4647C15.4344 14.2021 15.9394 13.0569 16.697 12.0174C17.478 10.9369 18.4353 10.0266 19.4688 9.19271C19.5628 9.11637 19.7037 9.09875 19.8447 9.0459C19.9504 9.35715 19.739 9.46873 19.598 9.61554C18.7759 10.4436 17.895 11.2188 17.1492 12.1055C16.3094 13.0921 15.8043 14.2843 15.5812 15.5645C15.499 16.0402 15.5694 16.5394 15.5577 17.0268C15.5459 17.1795 15.6164 17.385 15.2875 17.4731Z" fill="#31221A"/>
<path d="M39.4359 14.4082C39.5239 14.508 39.6531 14.5903 39.7001 14.7077C39.9057 15.1658 40.1053 15.6356 40.2815 16.1054C40.6691 17.1566 41.0391 18.2195 41.1976 19.3353C41.2622 19.7758 41.274 20.228 41.2564 20.6684C41.2446 20.9209 41.1624 21.2146 40.8042 21.2087C40.8042 20.78 40.8042 20.3689 40.8042 19.9578C40.8042 18.4662 40.2639 17.1096 39.706 15.7648C39.5357 15.3537 39.3654 14.9544 39.3008 14.5198C39.3419 14.4787 39.3889 14.4434 39.4359 14.4082Z" fill="#31221A"/>
<path d="M32.1719 7.83532C33.64 7.5182 35.2491 7.99388 35.7013 8.82192C35.5075 8.96286 35.349 8.89239 35.1904 8.75145C34.7617 8.36385 34.239 8.25227 33.687 8.19942C33.2994 8.16418 32.9118 8.12308 32.5301 8.06435C32.4361 8.05261 32.3539 7.95864 32.1719 7.83532Z" fill="#31221A"/>
<path d="M14.5078 24.7249C14.2259 24.7249 13.944 24.7249 13.6621 24.7308C13.944 24.5722 14.2259 24.6074 14.5078 24.7249Z" fill="#DD5D3E"/>
<path d="M33.6284 27.3637C32.9765 27.1993 32.5889 26.7647 32.4127 26.1422C32.2013 25.367 32.1837 24.5918 32.6124 23.8754C33.2173 22.8594 34.4975 22.7713 35.2492 23.4819C35.6074 23.8167 35.6838 24.263 35.7073 24.7152C35.7366 25.3788 35.5839 26.0248 35.2903 26.6238C35.1024 27.0114 34.7735 27.2521 34.3566 27.3578C34.1158 27.3637 33.8691 27.3637 33.6284 27.3637ZM35.1259 24.4157C35.0319 24.4157 34.9673 24.398 34.9145 24.4157C34.6854 24.492 34.6326 24.6741 34.7089 24.8796C34.7324 24.9442 34.8558 25.0205 34.9321 25.0147C35.1729 25.0029 35.1729 24.8091 35.167 24.6329C35.167 24.5742 35.1494 24.5214 35.1259 24.4157Z" fill="#31221A"/>
<path d="M33.6289 27.3633C33.8697 27.3633 34.1163 27.3633 34.3571 27.3574C34.1163 27.5101 33.8697 27.516 33.6289 27.3633Z" fill="#63C2E3"/>
<path d="M33.9805 22.5063C34.2154 22.3536 34.4562 22.3419 34.6969 22.4946C34.462 22.4946 34.2212 22.5004 33.9805 22.5063Z" fill="#5D5D59"/>
<path d="M24.5557 25.2953C24.5028 25.6124 24.4735 25.9061 24.3971 26.1821C24.174 26.9631 23.5632 27.4506 22.7528 27.4506C22.1185 27.4506 21.496 27.0806 21.2024 26.417C20.8736 25.677 20.8324 24.9019 21.1085 24.1325C21.3727 23.3808 22.0187 22.958 22.7704 22.9933C23.5221 23.0285 24.1857 23.5629 24.3678 24.297C24.4558 24.6317 24.4969 24.9723 24.5557 25.2953ZM23.8627 25.078C23.986 24.896 24.0976 24.802 24.1094 24.6963C24.127 24.4966 24.0095 24.344 23.7981 24.3733C23.7042 24.3851 23.5397 24.5554 23.5573 24.6082C23.5984 24.7492 23.7159 24.8725 23.8627 25.078Z" fill="#31221A"/>
<path d="M35.1254 24.4131C35.1489 24.5188 35.1666 24.5717 35.1666 24.6304C35.1724 24.8124 35.1724 25.0004 34.9317 25.0121C34.8553 25.018 34.7379 24.9416 34.7085 24.877C34.6321 24.6715 34.685 24.4953 34.914 24.4131C34.9669 24.3955 35.0315 24.4131 35.1254 24.4131Z" fill="#E6DED1"/>
<path d="M23.8614 25.0793C23.7204 24.8738 23.5971 24.7505 23.5501 24.6037C23.5325 24.5508 23.6969 24.3805 23.7909 24.3688C23.9964 24.3394 24.1198 24.4979 24.1022 24.6917C24.0963 24.8033 23.9788 24.9032 23.8614 25.0793Z" fill="#E6DED1"/>
</g>
<defs>
<clipPath id="clip0_4631_52201">
<rect width="57" height="57" rx="28.5" fill="white"/>
</clipPath>
</defs>
</svg>
