<svg width="57" height="57" viewBox="0 0 57 57" fill="none" xmlns="http://www.w3.org/2000/svg">
<g clip-path="url(#clip0_4631_52620)">
<rect width="57" height="57" rx="28.5" fill="#F6F6FE"/>
<path d="M12.5086 17.649C12.9108 17.377 13.5576 16.4631 13.9533 16.0369C21.4408 7.97253 39.0828 9.44777 44.0253 21.4629C44.1747 21.8204 44.3164 22.1837 44.4502 22.5523C44.7172 23.6031 44.7815 23.9203 44.7993 25.0222L45.7117 23.9757C45.9231 24.1729 45.9761 24.1465 46.231 24.1419C45.3261 24.5393 44.8026 25.837 44.5295 26.9828C44.4699 26.5436 44.5336 26.6814 44.32 26.3864C44.1066 27.3093 43.9354 28.0118 43.8845 28.9824L43.7873 29.5085L43.6703 29.6018L43.2617 29.3933C43.401 28.0452 43.5189 27.4387 43.8963 26.1911C43.0563 27.4515 43.0509 30.3751 43.3455 31.9311C43.3939 32.1866 43.3741 32.272 43.3218 32.5227C42.9777 33.9433 41.6257 35.6088 41.5598 35.9142C41.2698 36.1546 41.243 36.1731 41.0167 36.5062C40.7712 36.6236 39.3179 37.9942 38.9302 38.3257C37.9426 39.1704 36.6715 39.5346 35.7546 40.2518L35.3675 40.636C33.9789 41.1748 32.6729 41.6513 31.2487 41.9963C27.0777 43.007 21.5681 42.8376 17.5815 40.7299C16.0559 40.0551 15.2068 38.9442 13.9634 37.8535L13.8436 37.9884C13.6735 37.7338 13.4283 37.2727 13.3534 36.9399L13.525 36.9178C12.7292 35.7157 12.5086 34.4093 12.2558 32.8735L12.2453 32.3553C12.1374 31.0638 11.8206 30.5677 11.6711 29.44C11.4585 28.0093 11.6008 26.6391 11.9374 25.2706C12.0283 25.0103 12.1291 24.7426 12.2235 24.4834C12.0929 23.988 11.9951 23.7675 11.8073 23.3192C11.6645 23.0022 11.4659 22.6745 11.2964 22.3772C11.012 21.1615 11.7683 19.483 12.2874 18.5109C12.3643 18.2252 12.4381 17.9378 12.5086 17.649Z" fill="#1F221B"/>
<path d="M12.5086 17.649C12.9108 17.377 13.5576 16.4631 13.9533 16.0369C21.4408 7.97253 39.0828 9.44777 44.0253 21.4629C44.1747 21.8204 44.3164 22.1837 44.4502 22.5523C44.7172 23.6031 44.7815 23.9203 44.7993 25.0222L45.7117 23.9757C45.9231 24.1729 45.9761 24.1465 46.231 24.1419C45.3261 24.5393 44.8026 25.837 44.5295 26.9828C44.4699 26.5436 44.5336 26.6814 44.32 26.3864C44.1066 27.3093 43.9354 28.0118 43.8845 28.9824L43.7873 29.5085L43.6703 29.6018L43.2617 29.3933C43.401 28.0452 43.5189 27.4387 43.8963 26.1911C44.0636 24.3807 42.8129 21.7298 41.9426 20.4894C41.5533 19.8836 41.2023 19.4204 40.7649 18.883L40.6574 18.7579L40.2197 18.2574C37.7889 15.0077 31.5532 12.6637 28.068 12.5747L28.1599 12.6811L28.1009 12.714L28.2387 12.7636L28.226 12.7832L28.0382 12.7812C27.9429 12.96 27.9645 12.8675 27.9518 13.0477C26.9498 12.9322 25.7475 12.9758 24.7333 12.9832L24.6162 13.0182C24.0356 13.1841 23.0785 13.1505 22.449 13.3121C18.5489 14.3131 15.3977 15.7381 12.7067 19.8044C12.6622 19.891 12.4741 20.2687 12.4334 20.3217C12.3107 20.4565 12.1964 20.5948 12.0878 20.7502C11.9103 20.7013 11.9952 20.751 11.8555 20.5137C11.4194 21.5155 11.5687 21.5268 11.2964 22.3772C11.012 21.1615 11.7683 19.483 12.2874 18.5109C12.3643 18.2252 12.4381 17.9378 12.5086 17.649Z" fill="#E8D9C1"/>
<path d="M12.5083 17.649C12.9105 17.377 13.5573 16.4631 13.953 16.0369C21.4405 7.97253 39.0825 9.44777 44.0251 21.4629C44.1744 21.8204 44.3161 22.1837 44.4499 22.5523C44.7169 23.6031 44.7812 23.9203 44.799 25.0222L45.7114 23.9757C45.9228 24.1729 45.9758 24.1465 46.2307 24.1419C45.3258 24.5393 44.8023 25.837 44.5292 26.9828C44.4696 26.5436 44.5333 26.6814 44.3197 26.3864C44.3955 26.0091 44.5777 25.1327 44.569 24.7962C44.5106 22.5536 43.2524 20.1327 42.1571 18.6111C38.3456 13.3161 32.2107 11.3602 26.8817 11.2542C23.42 11.1854 19.0782 12.2633 16.0308 14.5223C14.6472 15.548 13.4019 17.015 12.2871 18.5109C12.364 18.2252 12.4378 17.9378 12.5083 17.649Z" fill="#575956"/>
<path d="M12.4883 19.3426C15.1663 15.0782 19.6439 13.2943 23.623 12.6221L24.0497 12.834C24.2643 12.9375 24.4665 12.9433 24.6895 12.9272L24.7332 12.9816L24.6161 13.0166C24.0355 13.1825 23.0784 13.1489 22.4489 13.3105C18.5488 14.3115 15.3975 15.7364 12.7066 19.8028C12.7625 19.5169 12.7665 19.6254 12.7297 19.3512L12.4883 19.3426Z" fill="#A7A092"/>
<path d="M23.623 12.6206C24.5542 12.5241 27.3029 12.3012 28.0679 12.5716L28.1598 12.678L28.1008 12.7108L28.2386 12.7605L28.226 12.7801L28.0381 12.778C27.9428 12.9569 27.9644 12.8644 27.9517 13.0445C26.9497 12.9291 25.7474 12.9727 24.7332 12.9801L24.6895 12.9257C24.4666 12.9418 24.2644 12.936 24.0497 12.8325L23.623 12.6206Z" fill="url(#paint0_linear_4631_52620)"/>
<path d="M12.4884 19.3408L12.7298 19.3494C12.7666 19.6236 12.7626 19.5151 12.7067 19.801C12.6621 19.8875 12.4741 20.2653 12.4334 20.3183C12.3107 20.4531 12.1964 20.5914 12.0877 20.7468C11.9102 20.6979 11.9951 20.7476 11.8555 20.5103L12.4884 19.3408Z" fill="url(#paint1_linear_4631_52620)"/>
<path d="M12.2456 32.3533C12.2459 31.9506 12.1768 31.6885 12.4574 31.5127C12.7032 31.6079 12.8043 31.742 13.0074 31.9472C13.0364 35.3908 14.5495 37.5724 16.6804 39.1905L16.8266 39.292C18.8362 40.6768 22.0875 41.6943 24.4008 41.6967L24.3004 41.5536L24.4067 41.4597C24.7741 41.4548 25.1063 41.4423 25.4739 41.4899L25.6422 41.7932L26.6357 41.7918L27.0862 41.5044L27.1695 41.4861C27.4955 41.4332 27.9047 41.4137 28.2373 41.3991C29.3473 41.3506 30.4642 40.9584 31.5602 40.8644C31.8471 41.0521 32.2278 40.5073 32.6791 40.7757C33.2854 40.6761 34.4202 40.1738 35.0066 39.9089C35.2327 39.8388 35.5367 39.6611 35.7593 39.543C36.2122 39.34 36.5568 39.1286 36.9919 38.8663C37.6305 38.6438 39.4575 37.1087 39.9991 36.5128C41.3959 35.1756 41.8831 34.2653 42.7383 32.3568L43.3222 32.5207C42.9781 33.9414 41.626 35.6068 41.5601 35.9122C41.2702 36.1526 41.2434 36.1712 41.017 36.5043C40.7716 36.6217 39.3182 37.9923 38.9306 38.3238C37.943 39.1684 36.6719 39.5326 35.7549 40.2499L35.3678 40.634C33.9792 41.1728 32.6733 41.6493 31.2491 41.9944C27.0781 43.005 21.5685 42.8357 17.5818 40.7279C16.0563 40.0531 15.2071 38.9422 13.9638 37.8516L13.844 37.9865C13.6738 37.7318 13.4286 37.2707 13.3537 36.9379L13.5253 36.9159C12.7295 35.7137 12.5089 34.4073 12.2562 32.8716L12.2456 32.3533Z" fill="#E8D9C1"/>
<path d="M13.5251 36.9111C18.6526 43.783 29.347 43.3952 35.7547 40.2451L35.3676 40.6293C33.979 41.1681 32.673 41.6446 31.2488 41.9896C27.0778 43.0003 21.5682 42.8309 17.5816 40.7232C16.056 40.0484 15.2069 38.9374 13.9636 37.8468L13.8437 37.9817C13.6736 37.7271 13.4284 37.266 13.3535 36.9332L13.5251 36.9111Z" fill="#83827F"/>
<path d="M31.5612 40.8608C31.848 41.0486 32.2288 40.5037 32.6801 40.7722C31.2675 41.3863 28.1181 41.8023 26.6367 41.7882L27.0872 41.5009L27.1705 41.4826C27.4965 41.4297 27.9056 41.4101 28.2383 41.3956C29.3483 41.347 30.4652 40.9549 31.5612 40.8608Z" fill="#202520"/>
<path d="M24.4071 41.4554C24.7745 41.4505 25.1067 41.438 25.4743 41.4856L25.6426 41.7889C25.1914 41.7802 24.8511 41.749 24.4012 41.6924L24.3008 41.5493L24.4071 41.4554Z" fill="#28313C"/>
<path d="M28.0674 12.5713C31.5526 12.6603 37.7883 15.0043 40.2191 18.254L40.6568 18.7545L40.7643 18.8796C41.2016 19.417 41.5527 19.8802 41.942 20.486C42.8123 21.7264 44.063 24.3773 43.8957 26.1877C43.0556 27.4481 43.0503 30.3717 43.3449 31.9277C43.3933 32.1832 43.3735 32.2686 43.3212 32.5193L42.7373 32.3553C42.8545 31.9488 42.7562 31.4846 42.7334 31.0135C42.6358 28.9933 42.7466 27.5921 43.4913 25.845C43.1941 23.717 42.6801 22.4212 41.5996 20.771C38.2138 15.5997 32.8915 13.5162 27.9512 13.0442C27.9639 12.8641 27.9422 12.9566 28.0376 12.7777L28.2254 12.7798L28.2381 12.7602L28.1002 12.7106L28.1593 12.6777L28.0674 12.5713Z" fill="#B0A695"/>
<path d="M41.9414 20.4863C41.6876 20.3839 40.842 19.2295 40.7637 18.8799C41.201 19.4173 41.5521 19.8805 41.9414 20.4863Z" fill="#686658"/>
<path d="M40.2207 18.2549L40.6584 18.7554L40.4795 18.7101C40.2462 18.4525 40.3216 18.6064 40.2207 18.2549Z" fill="#686658"/>
<path d="M11.856 20.5094C11.9956 20.7468 11.9107 20.697 12.0882 20.7459C12.1969 20.5905 12.3112 20.4522 12.4339 20.3174C11.1926 23.2223 12.3269 22.3511 12.8612 23.6891C13.0889 24.2593 12.2815 27.695 12.447 28.6212C12.4864 29.8581 13.0529 30.8999 13.0075 31.9448C12.8045 31.7397 12.7033 31.6056 12.4575 31.5104C12.1769 31.6862 12.246 31.9483 12.2457 32.351C12.1379 31.0595 11.821 30.5634 11.6716 29.4357C11.459 28.005 11.6012 26.6348 11.9379 25.2664C12.0288 25.006 12.1296 24.7383 12.2239 24.4791C12.0933 23.9837 11.9956 23.7633 11.8077 23.3149C11.665 22.9979 11.4664 22.6702 11.2969 22.3729C11.5692 21.5225 11.4199 21.5113 11.856 20.5094Z" fill="#B0A695"/>
<path d="M11.937 25.2666C12.2451 25.3178 12.2522 25.2507 12.4548 25.4702C12.523 26.1009 12.2627 27.4246 12.2344 28.1656C12.2157 28.6556 12.3486 29.2922 12.2805 29.6164C12.062 29.7014 11.8606 29.6 11.6707 29.436C11.4581 28.0053 11.6003 26.635 11.937 25.2666Z" fill="#E8D9C1"/>
<path d="M11.8066 23.3135C12.1146 23.4195 11.9905 23.3186 12.2059 23.5963C12.305 23.9657 12.2682 24.0717 12.2229 24.4776C12.0922 23.9822 11.9945 23.7618 11.8066 23.3135Z" fill="#E0D1BB"/>
<path d="M38.6829 36.9258C38.7159 36.8343 38.7489 36.7428 38.7818 36.6513C39.8192 35.4409 39.6551 36.149 39.9982 36.5104C39.4566 37.1063 37.6297 38.6414 36.9911 38.8639C36.965 38.839 35.5055 38.6603 35.1936 38.5535C35.0615 38.3264 35.0406 38.2877 34.9414 38.0332C35.1009 37.5001 35.6601 37.5137 36.0369 37.2042C36.2537 37.0262 36.3873 36.8852 36.5851 36.6764C36.8362 36.9021 36.9623 36.9776 37.2762 37.0065L37.9332 37.1201C38.2331 36.9453 38.3689 36.8919 38.6829 36.9258Z" fill="#28313C"/>
<path d="M37.9338 37.119C38.2337 36.9442 38.3695 36.8907 38.6835 36.9247C38.6515 37.5272 38.4959 37.4852 38.0817 37.7172C37.9101 37.5821 37.6337 37.429 37.5859 37.2296C37.7411 37.1621 37.773 37.1489 37.9338 37.119Z" fill="#313935"/>
<path d="M31.0568 39.5947C31.3843 39.9369 31.5315 40.2218 31.609 40.7867L31.5608 40.8642C30.4647 40.9582 29.3478 41.3504 28.2378 41.3989C27.9052 41.4134 27.4961 41.433 27.1701 41.4859C27.1446 41.065 27.1587 41.0427 27.3267 40.7096C28.7319 40.2868 29.492 40.4247 31.0568 39.5947Z" fill="#424748"/>
<path d="M31.0566 39.593C31.4272 39.4434 33.9991 38.541 34.1278 38.5639C34.422 38.8199 34.3785 38.697 34.4668 39.0596C34.3338 40.2162 32.3193 40.6142 31.6088 40.785C31.5313 40.2201 31.3841 39.9352 31.0566 39.593Z" fill="#313935"/>
<path d="M24.4065 41.4579C24.161 41.2013 24.1112 39.9412 24.2429 39.7158C24.6235 39.7639 24.9819 40.3284 25.4294 40.4397C26.0706 40.599 26.6763 40.6468 27.3259 40.708C27.1579 41.0411 27.1438 41.0634 27.1693 41.4843L27.086 41.5026L26.6355 41.79L25.642 41.7914L25.4737 41.4881C25.1061 41.4405 24.7739 41.453 24.4065 41.4579Z" fill="#313935"/>
<path d="M25.4727 41.4893C26.01 41.5046 26.5475 41.5094 27.0849 41.5038L26.6345 41.7911L25.641 41.7925L25.4727 41.4893Z" fill="#202520"/>
<path d="M12.909 20.8291C13.1668 21.4349 13.4366 21.9883 13.8097 22.4818L13.8359 23.0874C13.793 24.2935 13.7829 24.7287 13.5315 25.8603C13.2743 25.7735 13.1853 25.8778 12.9661 26.0877C13.0396 25.2642 13.2165 24.4926 13.2923 23.6162C12.8198 22.839 12.5156 22.2075 12.8186 21.2267L12.909 20.8291Z" fill="url(#paint2_linear_4631_52620)"/>
<path d="M12.9107 20.8291C13.1685 21.4349 13.4383 21.9883 13.8114 22.4818L13.8376 23.0874C13.3057 22.4319 13.134 22.1006 12.8203 21.2267L12.9107 20.8291Z" fill="#222A2E"/>
<path d="M12.9665 26.0832C13.1856 25.8733 13.2746 25.769 13.5318 25.8559C13.2908 27.3831 13.2049 28.6218 13.5695 30.1275C13.2583 30.1297 13.2432 30.1505 12.9525 30.3286C12.7352 28.8158 12.7346 27.5891 12.9665 26.0832Z" fill="#65696C"/>
<path d="M13.4316 19.8506C14.1825 18.7275 14.65 18.0575 15.61 17.2979C14.941 18.7127 14.6219 19.5431 14.0977 21.0674C13.674 20.6701 13.7423 20.4545 13.4675 19.9193L13.4316 19.8506Z" fill="#424748"/>
<path d="M13.3599 31.8252C13.4008 32.1298 13.4055 32.2004 13.4882 32.4973C13.6017 32.2901 13.5871 32.1901 13.6859 32.0047C13.8161 34.3833 14.0683 35.804 15.4643 37.5223C15.883 38.0378 16.7001 38.8393 17.2092 39.107L17.1875 39.2543L16.8253 39.2892L16.6792 39.1877L16.8135 39.0924C16.7971 38.9109 16.4794 38.7386 16.3297 38.6258C14.6993 37.3971 13.0509 34.4823 13.3599 31.8252Z" fill="#83827F"/>
<path d="M13.4328 19.8564L13.4687 19.9252C13.7435 20.4604 13.6752 20.676 14.0989 21.0733C13.9728 21.6008 13.8994 21.9361 13.8109 22.4828C13.4378 21.9892 13.168 21.4359 12.9102 20.8301L13.4328 19.8564Z" fill="#313935"/>
<path d="M12.9531 30.3348C13.2438 30.1567 13.259 30.136 13.5702 30.1338C13.8089 30.9487 13.7593 31.1434 13.687 32.0093C13.5882 32.1946 13.6028 32.2947 13.4893 32.5018C13.4065 32.2049 13.4018 32.1343 13.361 31.8297C13.3439 31.225 13.1594 30.8734 12.9531 30.3348Z" fill="url(#paint3_linear_4631_52620)"/>
<path d="M35.0063 39.9066C34.9263 39.7535 34.8361 39.6926 34.7188 39.5786L34.7483 39.4742C35.0868 39.1728 35.443 38.8034 35.7996 39.2158L35.759 39.5407C35.5364 39.6588 35.2324 39.8365 35.0063 39.9066Z" fill="#28313C"/>
<path d="M36.5859 36.6758C36.8399 36.368 37.0574 36.0024 37.4255 36.1533C37.5362 36.5336 37.4259 36.6658 37.2771 37.0059C36.9631 36.977 36.8371 36.9015 36.5859 36.6758Z" fill="#313935"/>
<path d="M24.3537 15.2023C25.2646 14.2465 31.1387 15.9422 32.2764 16.8337C33.2875 18.9381 34.3582 22.1532 34.3967 24.6854C34.1864 24.6041 34.1875 24.5206 34.0118 24.2693C33.9348 23.7892 33.2632 22.331 33.0341 21.8951C33.1602 22.6413 33.6804 24.5222 33.5797 24.9377C33.0971 25.1971 32.6383 23.9878 31.7208 23.9074C31.48 24.0556 31.5808 23.9388 31.4569 24.3402L31.5143 24.4401L31.6253 24.3241L31.704 24.1669C32.1421 24.2262 34.2009 25.6502 34.4791 26.038C34.522 26.8639 34.541 27.9252 34.4717 28.7441C34.3856 30.7415 34.0831 32.7111 33.5739 34.5905C33.0794 35.1659 32.7139 35.5046 32.156 35.9746L32.2064 36.344C32.3124 36.9301 32.2995 37.6213 32.2676 38.2223C30.9947 39.7443 28.1079 40.3436 26.4412 40.2641C25.9042 40.2384 25.5527 40.1303 25.3424 39.4362C25.2827 39.282 25.1039 39.0223 25.0124 38.8771C23.4767 38.0513 21.6861 36.8251 20.3288 35.609C18.6972 34.1472 18.7255 32.121 18.3149 29.9043C18.0084 28.2494 17.6588 27.3074 17.4869 25.4867C17.8105 25.6376 17.868 25.7329 18.1601 25.6562C18.3102 25.4731 18.3068 25.4485 18.3553 25.1795L18.5271 24.2502C18.8254 24.1377 19.1007 24.0878 19.4056 24.0214C19.3983 23.8374 19.3431 23.7186 19.2875 23.5407L18.857 23.6221L18.7555 23.5062C18.6255 23.3401 18.6335 23.2227 18.5975 22.9785C18.4789 23.3516 17.9969 25.0102 17.8932 25.2146L17.5914 24.9399C17.1201 23.2557 17.4856 19.7777 18.3049 18.3705C18.539 17.8354 18.9238 17.4235 19.2774 17.0366C20.037 16.1346 23.6613 14.6906 24.3537 15.2023Z" fill="#E2BB95"/>
<path d="M24.3548 15.2023C25.2658 14.2465 31.1398 15.9422 32.2775 16.8337C33.2886 18.9381 34.3593 22.1532 34.3978 24.6854C34.1875 24.6041 34.1886 24.5206 34.013 24.2693C33.9359 23.7892 33.2643 22.331 33.0352 21.8951C33.1613 22.6413 33.6815 24.5222 33.5808 24.9377C33.0982 25.1971 32.6395 23.9878 31.7219 23.9074C31.4811 24.0556 31.582 23.9388 31.458 24.3402L31.5154 24.4401L31.6264 24.3241C31.7791 24.5998 31.8163 24.5701 31.8302 24.8586C31.4656 24.9419 30.8324 24.3563 30.4935 24.0928C30.0615 24.0884 29.2383 24.0374 28.8566 24.2103C28.9596 24.483 28.995 24.5275 29.0161 24.8343L28.9229 24.9789C28.35 25.0736 27.8722 24.3489 27.4231 24.2786L27.5128 24.7448L27.454 24.8494C26.7687 24.809 25.8844 23.4048 25.4851 22.7218L25.2913 22.805C25.1758 23.3173 25.2362 23.6386 25.1242 24.133L25.3286 24.7766C24.8527 24.6191 24.1809 24.2007 23.939 24.1358C23.9394 23.9892 23.9246 24.0679 24.0194 23.9178C24.0109 23.6453 23.34 22.971 23.1966 21.9016C22.8245 19.1272 23.3792 17.4531 24.3548 15.2023Z" fill="#232829"/>
<path d="M24.8881 17.9893C24.8693 19.8006 25.0627 20.8187 25.7163 22.4822C25.8145 22.7095 26.0098 22.9196 26.1143 23.128C26.3806 23.6598 26.4524 24.2946 27.0074 24.3171L27.0902 24.1846C27.0367 23.5653 26.6943 22.5259 26.5733 21.7334L26.5539 21.6032C26.8019 22.2737 27.4388 23.9682 27.9377 24.2521C28.1138 24.0923 28.2817 24.098 28.4861 24.015L28.4997 23.79C28.5684 23.9825 28.6578 24.1622 28.694 24.3659C28.4625 24.3419 28.2308 24.3209 27.999 24.3028L28.0342 24.3904C28.2507 24.5619 28.5314 24.7703 28.7853 24.6911C28.8222 23.7975 28.0943 21.7354 28.3705 21.0301L28.5077 21.036C28.9361 21.4558 29.0336 22.0383 29.3583 22.5082C29.6059 22.8662 29.9553 23.1388 30.1487 23.6336L30.0815 23.6773C29.9967 23.5893 29.9146 23.5047 29.832 23.4127L29.784 23.3585C29.3325 23.3658 29.1825 23.3668 28.7345 23.4851C28.8278 23.7882 28.8772 23.8808 28.8557 24.2109C28.9587 24.4836 28.9941 24.5281 29.0152 24.8349L28.922 24.9795C28.3491 25.0742 27.8713 24.3495 27.4222 24.2792L27.512 24.7454L27.4531 24.85C26.7678 24.8096 25.8835 23.4055 25.4842 22.7224L25.2905 22.8056C25.1749 23.3179 25.2354 23.6392 25.1233 24.1336L25.3277 24.7772C24.8519 24.6198 24.1801 24.2013 23.9381 24.1365C23.9385 23.9898 23.9237 24.0685 24.0185 23.9184C24.1988 24.0699 24.6277 24.3652 24.8242 24.2468C24.8552 23.8759 24.656 23.2767 24.6069 22.8286C24.4111 21.0436 24.4447 19.6778 24.8881 17.9893Z" fill="#191A15"/>
<path d="M28.7342 23.489C28.593 22.6321 28.4915 21.8954 28.3887 21.0283C28.8687 22.012 29.1836 22.486 29.7837 23.3624C29.3323 23.3698 29.1823 23.3707 28.7342 23.489Z" fill="#E0D1BB"/>
<path d="M24.8054 20.6533C25.0266 21.5081 25.1451 21.9524 25.4831 22.7254L25.2894 22.8086C25.1738 23.3209 25.2342 23.6422 25.1222 24.1366C24.8193 23.0869 24.7998 21.7607 24.8054 20.6533Z" fill="#E0D1BB"/>
<path d="M29.9473 18.7471C30.2965 18.8009 30.6095 19.1004 30.9664 19.1837C31.1156 19.1218 31.2517 19.0768 31.4067 19.0514C31.677 19.2413 31.781 19.8517 31.8701 20.2173C31.5566 20.4728 31.2018 20.3645 30.8525 20.328C30.4949 19.9366 30.0185 19.391 29.9473 18.7471Z" fill="#424748"/>
<path d="M30.4766 21.6846C30.7005 21.939 30.6971 22.2712 30.8246 22.6002C30.9083 22.8165 30.9119 22.8385 31.0808 22.8972C31.3024 22.9742 31.402 22.9995 31.5726 23.2178C31.6287 23.4172 31.6762 23.4536 31.6193 23.661L31.3895 23.6995L31.369 23.778C31.3861 23.9692 31.4018 24.0865 31.3422 24.2654L31.2263 24.1982C30.8661 23.4759 30.6832 22.5021 30.4766 21.6846Z" fill="#191A15"/>
<path d="M26.1523 18.8057C26.2784 18.8322 26.3942 18.8498 26.5019 18.9522C26.759 19.1963 26.7674 19.6697 26.8087 20.0516C26.7033 20.0616 26.6161 20.0426 26.5121 20.0222C26.2021 19.6794 26.2042 19.3115 26.1523 18.8057Z" fill="#424748"/>
<path d="M23.9446 18.4385C24.0622 18.4978 24.1547 18.5694 24.2594 18.6623C24.3792 18.9995 24.2919 19.4336 24.2573 19.7931C24.0677 19.6896 23.9725 19.6424 23.8444 19.4155C23.779 19.0697 23.8721 18.7706 23.9446 18.4385Z" fill="#424748"/>
<path d="M29.043 18.6572C29.0708 18.6701 29.0994 18.68 29.1263 18.6959C29.4048 18.8598 29.48 19.2071 29.5785 19.5619C29.4155 19.5446 29.3408 19.4855 29.206 19.364C29.0811 19.1153 29.0624 18.9456 29.043 18.6572Z" fill="#424748"/>
<path d="M27.1445 18.8994C27.2244 18.9323 27.2916 18.9853 27.3652 19.0376C27.5126 19.3474 27.5279 19.6064 27.5548 19.9679L27.3952 19.8776C27.2214 19.5951 27.1964 19.2491 27.1445 18.8994Z" fill="#424748"/>
<path d="M32.2246 18.8408C32.2803 18.877 32.3016 18.8875 32.3572 18.9441C32.5768 19.1676 32.6171 19.4637 32.6508 19.8074C32.5938 19.7638 32.5522 19.7365 32.502 19.6849C32.31 19.4873 32.2616 19.1426 32.2246 18.8408Z" fill="#424748"/>
<path d="M19.2774 17.0398C20.037 16.1378 23.6613 14.6938 24.3537 15.2055C23.378 17.4563 22.8234 19.1304 23.1954 21.9047C23.3389 22.9742 24.0098 23.6485 24.0183 23.9209C23.9235 24.071 23.9383 23.9923 23.9378 24.139L23.9984 24.3288L23.8804 24.3131C22.9601 23.2019 22.4914 21.1946 22.6851 19.5651C22.8121 19.441 22.8429 19.4664 22.8561 19.3234C22.8958 18.8903 23.1385 18.2893 23.1462 17.8898C21.9086 17.6127 20.4392 23.2893 19.7909 24.3264C19.7319 24.3085 19.525 24.1664 19.4577 24.1229L19.4056 24.0246C19.3983 23.8406 19.3431 23.7218 19.2875 23.5439L18.857 23.6252L18.7555 23.5094C18.6255 23.3432 18.6335 23.2259 18.5975 22.9817C18.4789 23.3548 17.9969 25.0134 17.8932 25.2178L17.5914 24.9431C17.1201 23.2588 17.4856 19.7809 18.3049 18.3736C18.539 17.8385 18.9238 17.4266 19.2774 17.0398Z" fill="url(#paint4_linear_4631_52620)"/>
<path d="M19.9384 19.3838C19.6485 21.2341 19.2649 22.5419 19.791 24.3306C19.7321 24.3127 19.5252 24.1706 19.4578 24.1272L19.4057 24.0288C19.3984 23.8448 19.3433 23.726 19.2877 23.5481L18.8571 23.6295L18.7557 23.5136C18.6256 23.3475 18.6337 23.2301 18.5977 22.9859C18.9691 21.7003 19.4181 20.5673 19.9384 19.3838Z" fill="#1F221B"/>
<path d="M19.2144 22.126L19.2878 23.5425L18.8573 23.6239L18.7559 23.508L19.2144 22.126Z" fill="#E0D1BB"/>
<path d="M19.2772 17.04C19.2366 17.5968 19.2728 17.5184 19.6492 17.7968C19.6886 18.2232 19.0883 18.9694 18.8107 19.1428C18.361 19.0657 18.5431 18.6373 18.3047 18.3739C18.5387 17.8388 18.9235 17.4269 19.2772 17.04Z" fill="#424748"/>
<path d="M17.5918 24.9418L17.6745 24.5732L17.7841 24.5049C17.9355 24.8626 17.8884 24.7552 17.8936 25.2165L17.5918 24.9418Z" fill="#222A2E"/>
<path d="M20.1237 17.9229C20.3056 18.028 20.3631 18.0166 20.4494 18.2651C20.406 18.7354 20.0709 19.026 19.8158 19.3028C19.7064 19.2666 19.636 19.2338 19.5368 19.1708L19.5156 18.9377C19.6372 18.5366 19.9037 18.232 20.1237 17.9229Z" fill="#424748"/>
<path d="M21.3208 18.1025L21.5171 18.1506L21.5874 18.3079C21.5344 18.7407 21.266 19.0667 21.0563 19.3808C20.8748 19.2401 20.8315 19.2512 20.7676 18.9875C20.8629 18.6152 21.1129 18.3668 21.3208 18.1025Z" fill="#424748"/>
<path d="M28.957 27.7172C28.7999 27.8723 28.7565 27.9037 28.582 28.0234L28.5929 27.88C29.718 25.646 31.7917 25.8061 33.3675 26.9856L33.2129 26.9545L33.2675 27.0167C33.5986 27.3878 33.6841 27.484 34.1034 27.4351L33.8924 27.7466C33.9583 28.0167 33.9212 27.8927 34.1254 28.1155C33.8864 28.4742 33.4891 29.2444 33.1237 29.2685C32.7984 29.6856 32.6636 29.7907 32.228 29.9293L32.1768 29.873L32.0076 30.0066C31.7284 30.2507 31.7187 30.2578 31.3939 30.3131L31.2454 30.2931C30.9649 30.2971 30.9449 30.2809 30.6729 30.1621C30.2904 30.2168 29.9044 30.1209 29.5614 29.8862C28.8572 29.4111 28.6009 28.6862 28.957 27.7172Z" fill="#191A15"/>
<path d="M30.3857 26.9072C30.0357 27.5755 29.9791 27.7408 29.8508 28.5737C30.0274 29.3978 30.0877 29.7049 30.6724 30.1607C30.2899 30.2154 29.9039 30.1195 29.5609 29.8848C28.8567 29.4097 28.6003 28.6848 28.9565 27.7159C29.5155 27.2301 29.7065 27.1075 30.3857 26.9072Z" fill="#E8D9C1"/>
<path d="M30.9768 29.0255C31.6813 29.4759 31.6005 28.7677 32.103 28.7825C32.1912 29.1339 32.113 29.3376 31.9541 29.6192L32.0054 30.0066C31.7261 30.2507 31.7164 30.2578 31.3917 30.313L31.2432 30.293C31.1711 29.9884 30.8726 30.026 30.5195 29.5286C30.7608 29.1312 30.6544 29.2025 30.9768 29.0255Z" fill="#543421"/>
<path d="M31.3928 30.3159L31.3691 30.2544C31.5315 30.1141 31.7767 29.808 31.9553 29.6221L32.0065 30.0094C31.7273 30.2535 31.7176 30.2606 31.3928 30.3159Z" fill="#271C12"/>
<path d="M32.1758 29.8705C33.0491 28.5226 32.4763 27.9294 32.7894 27.54C33.3664 27.9531 33.3329 28.5547 33.1227 29.2659C32.7974 29.683 32.6626 29.7881 32.227 29.9268L32.1758 29.8705Z" fill="#E8D9C1"/>
<path d="M30.6202 28.5244C30.7906 28.6546 30.903 28.7484 30.9774 29.0242C30.655 29.2013 30.7614 29.13 30.5201 29.5273C30.4642 29.0714 30.4251 28.9086 30.6202 28.5244Z" fill="#543421"/>
<path d="M31.1184 28.2549L31.2267 28.3293C31.1929 28.6476 31.243 28.5198 31.0907 28.7383C30.9749 28.6316 30.9438 28.592 30.8382 28.4681C30.7386 28.4855 30.7125 28.479 30.6198 28.5261L30.4205 28.4637L30.3926 28.3675C30.6347 28.3324 30.8767 28.2948 31.1184 28.2549Z" fill="#1F221B"/>
<path d="M31.2369 27.2478C31.3443 27.1754 31.4722 27.1862 31.572 27.2761C31.6718 27.3661 31.7279 27.5214 31.7191 27.6827C31.7102 27.844 31.6378 27.9865 31.5293 28.0557C31.3641 28.1613 31.1666 28.0679 31.0865 27.8466C31.0064 27.6252 31.0735 27.3582 31.2369 27.2478Z" fill="#E0D1BB"/>
<path d="M32.2058 36.3486C32.3119 36.9347 32.2989 37.6259 32.2671 38.2269C30.9941 39.749 28.1074 40.3482 26.4406 40.2687C25.9037 40.243 25.5522 40.1349 25.3418 39.4408C26.839 40.0793 30.7942 37.3977 32.2058 36.3486Z" fill="#D69880"/>
<path d="M32.1553 35.9775L32.2057 36.347C30.7941 37.396 26.839 40.0776 25.3417 39.4391C25.282 39.2849 25.1032 39.0252 25.0117 38.88C26.9972 39.3662 30.3735 37.3 32.1553 35.9775Z" fill="#1F221B"/>
<path d="M19.7922 24.3272C20.4405 23.2902 21.9099 17.6135 23.1475 17.8906C23.1398 18.2901 22.8971 18.8912 22.8574 19.3242C22.8443 19.4672 22.8134 19.4418 22.6864 19.566C22.732 18.8875 22.8269 18.4851 22.962 17.8291C21.7101 19.7211 21.1769 20.9541 20.4098 23.2838L20.3104 23.9257C20.0597 24.259 20.1955 24.7696 19.972 25.0803C19.7125 24.9805 19.5656 24.4419 19.459 24.1238C19.5264 24.1672 19.7333 24.3094 19.7922 24.3272Z" fill="#191A15"/>
<path d="M20.3086 23.926L20.408 23.2841C21.4881 23.2549 22.0134 23.1473 22.8246 24.2026L22.8912 24.2903C21.9368 23.9867 21.2916 23.9713 20.3086 23.926Z" fill="#28313C"/>
<path d="M34.4789 26.04C34.5218 26.8659 34.5408 27.9272 34.4715 28.7462C34.4446 28.3531 34.4456 27.9166 34.1897 27.6729L34.1041 27.794L34.1236 28.1136C33.9194 27.8909 33.9565 28.0149 33.8906 27.7448L34.1016 27.4333C34.1765 27.314 34.1998 27.316 34.304 27.2494C34.4103 26.7745 34.4316 26.5218 34.4789 26.04Z" fill="#E0D1BB"/>
<path d="M20.7407 25.9048L20.8941 25.8893C20.9511 25.6862 20.9304 25.7883 20.8795 25.5203C21.3503 25.4386 22.713 26.025 22.8418 26.7615L22.8062 26.7071C22.77 27.1046 22.8358 26.9586 22.6514 27.1948C22.8057 27.4149 22.9784 27.5968 23.0171 27.8787L22.9691 27.9833C23.1155 28.643 23.2 29.7346 22.5135 29.9044L22.2824 30.0181L21.909 30.1916C21.6986 30.2072 21.3923 30.2889 21.263 30.1503C20.5494 30.2609 19.8926 29.7387 19.3446 29.1842L19.2725 29.1791C18.9943 28.9051 18.8272 28.534 18.6222 28.1541C18.552 28.0191 18.4998 27.8996 18.4362 27.759C18.4999 27.4906 18.5004 27.4894 18.5117 27.2083C18.3972 27.0704 18.4109 27.095 18.3164 26.9297C18.7703 26.926 18.9019 26.8641 19.2129 26.3391C19.0528 26.3264 19.0475 26.3273 18.886 26.2853H18.8868C19.1761 25.9204 20.3312 25.8569 20.7407 25.9048Z" fill="#191A15"/>
<path d="M19.1218 27.889C19.4324 26.8235 19.8478 26.8692 20.6074 26.6299C20.1923 27.7291 20.0972 28.6022 20.7309 29.5999C20.9014 29.7797 21.088 29.9856 21.2638 30.1492C20.5502 30.2599 19.8935 29.7376 19.3454 29.1832L19.2733 29.178C18.9952 28.9041 18.8281 28.533 18.623 28.1531C18.802 28.0272 18.9213 27.9165 19.1218 27.889Z" fill="#E8D9C1"/>
<path d="M18.623 28.1557C18.802 28.0298 18.9213 27.9191 19.1218 27.8916C19.1803 28.4699 19.1981 28.6165 19.3454 29.1858L19.2733 29.1806C18.9952 28.9066 18.8281 28.5356 18.623 28.1557Z" fill="#1F221B"/>
<path d="M21.1598 29.5537L21.1424 29.4621C21.0513 28.965 21.0296 28.8628 21.2174 28.4424C21.4039 28.4511 21.4931 28.9686 21.6153 28.9939C22.0442 29.0827 21.9948 28.7344 22.4541 28.8817L22.5387 29.1149L22.709 29.0718L22.7944 29.2928C22.7242 29.4436 22.5687 29.7592 22.5139 29.9033L22.2828 30.0169L21.9094 30.1905C21.699 30.206 21.3928 30.2877 21.2634 30.1491C21.0876 29.9854 20.901 29.7796 20.7305 29.5998L21.1598 29.5537Z" fill="#543421"/>
<path d="M22.4544 28.8838L22.539 29.117L22.7093 29.0739L22.7947 29.2949C22.7245 29.4458 22.569 29.7613 22.5142 29.9054L22.2831 30.019L22.0938 29.791C22.4743 29.3244 22.4109 29.4761 22.4544 28.8838Z" fill="#1F221B"/>
<path d="M21.1598 29.5518C21.4248 29.8921 21.544 30.086 21.9094 30.1885C21.699 30.2041 21.3928 30.2858 21.2634 30.1472C21.0876 29.9835 20.901 29.7776 20.7305 29.5978L21.1598 29.5518Z" fill="#1F221B"/>
<path d="M20.7422 25.9048L20.8956 25.8893C20.9526 25.6862 20.9319 25.7883 20.881 25.5203C21.3518 25.4386 22.7145 26.025 22.8433 26.7615L22.8077 26.7071C22.7715 27.1046 22.8373 26.9586 22.6529 27.1948C22.0735 26.4498 21.5115 26.1438 20.7422 25.9048Z" fill="#D69880"/>
<path d="M22.7941 29.2921C22.869 28.8734 22.8468 28.4795 22.8446 28.0466L22.9693 27.9814C23.1157 28.6411 23.2002 29.7327 22.5137 29.9026C22.5684 29.7585 22.724 29.4429 22.7941 29.2921Z" fill="#E0D1BB"/>
<path d="M21.4448 27.1051C21.5954 27.0138 21.7729 27.0934 21.8527 27.2883C21.9326 27.4831 21.888 27.7279 21.7504 27.8509C21.6508 27.94 21.5225 27.946 21.4186 27.8666C21.3147 27.7872 21.2526 27.6359 21.2582 27.475C21.2636 27.3142 21.3358 27.1712 21.4448 27.1051Z" fill="#E0D1BB"/>
<path d="M19.88 30.7197L19.9713 30.7355C20.0512 30.8555 20.0156 30.8159 20.1115 30.9063C20.1335 30.9271 20.156 30.9469 20.1782 30.9671C20.2334 31.137 20.2382 31.1753 20.1963 31.3504C20.1168 31.6827 19.8938 31.9418 19.6762 32.1074C19.5189 31.9143 19.3995 31.9637 19.2371 31.7682L19.2363 31.5734C19.4245 31.2168 19.627 30.9866 19.88 30.7197Z" fill="#D69880"/>
<path d="M30.2126 25.7998L30.6484 25.7744L30.6819 25.8176C30.0959 26.0052 29.5131 26.1491 28.9704 26.5139C28.8585 26.5899 28.7972 26.6639 28.6699 26.6551C28.6801 26.6342 28.6886 26.6115 28.7005 26.5923C29.0037 26.1076 29.7696 25.8908 30.2126 25.7998Z" fill="#9E6D42"/>
<path d="M20.6357 31.1689C20.7451 31.2006 20.6851 31.1719 20.8089 31.2784C20.7316 31.6219 20.4412 31.9185 20.2691 32.1981C20.1875 32.2105 20.1363 32.1917 20.0572 32.1675L20.0449 32.0339C20.187 31.6849 20.4211 31.4365 20.6357 31.1689Z" fill="#D69880"/>
<path d="M24.1759 31.626C24.1959 31.7419 24.2171 31.858 24.2292 31.9761C24.261 32.2888 24.3083 32.4563 24.1661 32.7104C24.0383 32.5569 23.9785 32.4732 23.9258 32.2519C23.9479 31.9649 24.0429 31.835 24.1759 31.626Z" fill="#6E3B1C"/>
<path d="M31.8567 31.3955C31.8888 31.4325 31.8976 31.4953 31.9156 31.5468C31.818 31.8398 31.6022 31.9803 31.4105 32.1511C31.3224 32.0453 31.3541 32.1161 31.3438 31.9198C31.47 31.6543 31.6583 31.5436 31.8567 31.3955Z" fill="#D69880"/>
<path d="M31.0209 31.458L31.139 31.4932C31.0628 31.7854 30.8676 31.9756 30.7025 32.186C30.6227 32.1513 30.6676 32.1836 30.5918 32.0446C30.6784 31.7756 30.8538 31.6319 31.0209 31.458Z" fill="#D69880"/>
<path d="M26.7478 35.3642C26.4723 35.4244 26.0091 35.5065 25.7617 35.3161C26.0094 35.1982 26.2111 35.2461 26.4757 35.2649L26.7478 35.3642Z" fill="#ABA08B"/>
<path d="M26.4766 35.2628C26.7872 35.1867 27.0965 35.0659 27.3942 35.1609C27.2059 35.3223 26.98 35.334 26.7487 35.3621L26.4766 35.2628Z" fill="#655535"/>
<path d="M23.959 34.9775C24.2797 35.0667 24.5923 35.1465 24.899 35.3059C24.8224 35.3141 24.7457 35.3192 24.6688 35.3213C24.355 35.331 24.1882 35.273 23.959 34.9775Z" fill="#ABA08B"/>
<path d="M32.6673 17.04C34.0891 17.8477 35.6738 19.4038 36.7578 20.8986C37.72 22.2254 37.8521 25.1897 37.7694 26.9824L38.0986 27.0351C38.0725 27.3713 38.052 27.8045 37.9837 28.1212L38.0889 28.3261L37.9522 28.6251C37.9161 28.8833 37.87 29.2841 37.8191 29.5273L37.7386 29.309C37.7702 28.8196 37.773 28.7527 37.6682 28.2845C37.5457 29.2481 37.3999 30.206 37.231 31.1568C36.6663 34.2178 36.0095 36.6014 33.8797 38.2321C33.6498 38.4081 33.7174 38.4096 33.5277 38.3421L33.4659 38.1654C33.5113 37.9046 33.9291 37.1043 34.0972 36.803C34.6401 35.8304 36.0283 31.3378 35.7307 30.2501C35.4885 32.0516 35.1502 33.4883 34.5198 35.1599C34.0207 36.3169 33.4457 37.9659 32.5234 38.5884C32.2889 38.7467 32.3854 38.5617 32.1161 38.8587L32.0156 38.7913C32.8665 37.6759 32.2421 38.2452 32.486 37.3431L32.5693 37.3148C32.681 37.6176 32.578 37.9376 32.5715 38.3357C33.4954 36.6428 34.3595 33.1823 34.6447 31.0985C35.3135 26.211 34.8205 21.1804 32.6673 17.04Z" fill="#232829"/>
<path d="M37.7691 26.9814L38.0983 27.0342C38.0723 27.3704 38.0517 27.8036 37.9835 28.1203L38.0886 28.3252L37.9519 28.6241C37.9158 28.8823 37.8697 29.2832 37.8189 29.5264L37.7384 29.3081C37.7699 28.8187 37.7728 28.7518 37.668 28.2836L37.7691 26.9814Z" fill="#191A15"/>
<path d="M33.9785 18.6455C34.0601 18.6606 34.1372 18.6795 34.2125 18.7281C34.459 18.8874 34.5117 19.2115 34.585 19.5331C34.3061 19.3361 34.1225 19.013 33.9785 18.6455Z" fill="#424748"/>
<path d="M38.0974 27.0328C38.6737 26.6893 38.969 26.6979 39.4632 27.2695C40.8495 30.0809 38.9879 32.1198 37.1895 33.1001L37.4782 31.7637L37.5501 31.3132C37.6614 30.7836 37.7436 30.1404 37.8245 29.5907L37.818 29.525C37.8688 29.2818 37.9149 28.8809 37.951 28.6227L38.0877 28.3238L37.9826 28.1188C38.0508 27.8022 38.0714 27.3689 38.0974 27.0328Z" fill="#E2BB95"/>
<path d="M38.088 28.323C38.7231 27.9971 38.9486 28.0858 39.3953 28.7899C39.3336 29.9576 38.7418 31.4743 37.8081 31.6229C37.7099 31.6625 37.5693 31.7119 37.4785 31.7629L37.5505 31.3124C37.6617 30.7828 37.7439 30.1396 37.8248 29.5899L37.8183 29.5242C37.8691 29.281 37.9153 28.8801 37.9513 28.6219L38.088 28.323Z" fill="#D69880"/>
<path d="M37.9513 28.6221C38.73 29.7866 38.8673 30.6857 37.8081 31.623C37.7099 31.6626 37.5693 31.712 37.4785 31.7631L37.5505 31.3125C37.6617 30.7829 37.7439 30.1397 37.8248 29.5901L37.8183 29.5244C37.8691 29.2811 37.9153 28.8803 37.9513 28.6221Z" fill="#B44332"/>
<path d="M37.8252 29.5908C38.5481 29.6329 38.419 31.4383 37.6185 31.405L37.5508 31.3133C37.662 30.7837 37.7443 30.1405 37.8252 29.5908Z" fill="#D69880"/>
<path d="M37.9844 28.117C38.5078 27.7618 38.7217 27.5912 39.2341 28.0426C39.3134 28.3283 39.3663 28.4816 39.3968 28.7889C38.9501 28.0848 38.7246 27.9961 38.0895 28.3219L37.9844 28.117Z" fill="#B44332"/>
<path d="M20.4622 38.3147C21.0609 37.806 21.1746 38.3478 21.6457 38.2122C21.8665 37.9264 21.827 37.8824 22.0735 37.8252L22.1968 37.9653C22.1518 38.7257 22.5218 39.1809 22.0126 39.8321C21.8081 40.0935 21.5004 40.598 21.3476 40.918C20.6893 40.7149 19.3538 40.4088 18.8429 39.9271L18.7821 39.726L18.5844 39.6967C18.2458 39.6937 17.9577 39.5672 17.9473 39.075C18.148 38.5252 18.3413 38.4094 18.7534 38.1581C19.0899 38.1941 19.4417 38.2556 19.7786 38.3066C20.1029 38.4343 20.1215 38.4161 20.4622 38.3147Z" fill="#222A2E"/>
<path d="M18.7534 38.1611C19.0899 38.1971 19.4417 38.2586 19.7786 38.3096L19.8154 38.4536C19.4619 38.8572 18.8626 39.1638 18.5844 39.6997C18.2458 39.6968 17.9577 39.5702 17.9473 39.078C18.148 38.5282 18.3413 38.4125 18.7534 38.1611Z" fill="#222A2E"/>
<path d="M19.7801 38.3057C20.1045 38.4334 20.123 38.4152 20.4637 38.3138C19.804 38.7859 19.3124 39.0988 18.8444 39.9262L18.7836 39.7251L18.5859 39.6958C18.8641 39.1598 19.4634 38.8532 19.8169 38.4496L19.7801 38.3057Z" fill="#28313C"/>
<path d="M16.1337 27.7627C16.2186 27.8781 16.2523 27.9977 16.2621 28.1604C16.297 28.7436 16.251 29.3655 16.2579 29.9535C16.2785 31.7191 16.2836 33.6013 16.466 35.3522C16.5695 36.3455 16.7325 37.2668 17.0937 38.1482L16.5867 37.7949C16.2823 37.4712 16.0069 37.1162 15.8035 36.6672C14.6388 34.0963 15.6154 30.4273 16.1337 27.7627Z" fill="#28313C"/>
<path d="M21.6595 14.186C21.7477 14.1772 21.6962 14.1717 21.8103 14.2337C21.119 14.798 20.272 15.0939 19.5384 15.5656C17.2854 17.014 15.601 19.3962 14.5319 22.4147C14.514 22.4458 14.4813 22.4541 14.4548 22.4703C14.3962 21.6903 15.0668 20.1914 15.3859 19.5252C16.8494 16.4692 19.0854 14.9396 21.6595 14.186Z" fill="#575956"/>
<path d="M14.1832 27.0283C14.525 27.6082 14.8853 28.0513 15.3252 28.491L15.0166 32.0293C14.9511 32.084 14.9998 32.0493 14.8572 32.0877C14.6063 31.9596 14.5107 31.7649 14.3933 31.4529C13.9171 30.1864 13.8655 28.3631 14.1832 27.0283Z" fill="#313935"/>
<path d="M17.6177 19.2197L17.6611 19.2558C17.6206 20.0639 17.3031 20.9908 17.1916 21.8114C16.9106 23.8803 17.1048 24.6486 17.14 26.5904C17.0027 26.6031 16.8807 26.4156 16.7709 26.3049C16.4313 25.6707 16.285 25.0696 16.251 24.2874C16.1742 22.5216 16.7523 20.5328 17.6177 19.2197Z" fill="#28313C"/>
<path d="M41.7012 22.7822C42.3916 23.4354 42.6625 25.0917 42.8276 26.1464C42.6469 26.8607 42.5101 27.5953 42.3641 28.3237C42.3573 28.4888 42.3365 28.5453 42.2832 28.6895C42.1045 28.3207 41.6998 23.4454 41.7012 22.7822Z" fill="#222A2E"/>
<path d="M14.2778 32.708C14.3295 32.7366 14.367 32.755 14.4177 32.7964C14.6236 32.9646 14.7367 33.2487 14.8014 33.5534C14.9228 34.1248 14.8632 34.6998 14.6431 35.2067C14.436 35.0709 14.3569 34.9626 14.2749 34.6687C14.0997 34.0409 14.0657 33.3236 14.2778 32.708Z" fill="#222A2E"/>
<path d="M16.9902 36.7627C17.1031 36.8411 17.0782 36.8096 17.1534 36.9008C17.4146 37.2177 18.0654 37.7395 18.1042 38.1583L17.8527 38.2859C17.6155 38.2581 17.4363 38.0371 17.2475 37.858C17.15 37.4955 17.0652 37.1348 16.9902 36.7627Z" fill="#222A2E"/>
<path d="M38.0684 23.4502C38.0906 23.4723 38.1144 23.4918 38.135 23.5164C38.5572 24.0196 38.6785 24.7958 38.7505 25.5102C38.4751 25.2086 38.1795 23.9304 38.0684 23.4502Z" fill="#28313C"/>
<path d="M19.082 36.3096C19.185 36.3725 19.259 36.4429 19.3403 36.5496C19.494 36.7512 19.6056 36.9962 19.6024 37.2899C19.4548 37.3305 19.4648 37.3192 19.3347 37.2615C19.1573 36.9943 19.134 36.65 19.082 36.3096Z" fill="#28313C"/>
<path d="M34.0117 24.2744C34.1874 24.5257 34.1863 24.6092 34.3966 24.6905C34.4507 24.9708 34.476 25.0043 34.425 25.288L34.3378 25.3021C34.0831 24.981 34.0112 24.7434 34.0117 24.2744Z" fill="#28313C"/>
<path d="M42.2835 30.3916C42.3235 30.8294 42.4768 31.4861 42.4052 31.9049L42.3326 31.8563C42.2684 31.4963 42.1413 30.7143 42.2835 30.3916Z" fill="#424748"/>
<path d="M43.3213 32.5161C43.3736 32.2655 43.3934 32.18 43.345 31.9246C43.0504 30.3685 43.0558 27.4449 43.8958 26.1846C43.5184 27.4322 43.4004 28.0386 43.2612 29.3868L43.6698 29.5953L43.7868 29.502L43.8839 28.9758C43.9349 28.0052 44.1061 27.3028 44.3195 26.3799C44.5331 26.6748 44.4694 26.537 44.529 26.9763C44.2759 28.0822 44.2342 28.5761 44.1893 29.739C44.6861 29.8531 45.2091 29.8377 45.713 29.8126C45.7707 30.5306 45.8077 31.3816 46.1544 31.9531L46.2201 32.0741C45.9978 32.2938 45.2074 32.1889 44.8417 32.273L44.8455 32.362C45.3711 32.6774 46.2239 32.0803 46.7238 32.2843L46.7468 32.3842C45.9925 32.7781 45.5457 33.9153 45.8155 34.9401C45.9548 35.1067 46.2677 35.2322 46.4578 35.3261C46.2437 35.4984 46.1045 35.2826 45.8578 35.5285L45.8979 35.5559C46.7576 35.4914 48.4398 36.0762 49.2688 36.4808L49.2938 36.3091C49.8641 35.955 50.5533 37.2871 50.6923 37.8996L50.8313 37.9861C50.9773 38.1752 50.9872 38.9909 50.9995 39.3276C51.0436 40.5924 51.0797 41.6532 51.046 42.9211C50.7967 44.3987 51.1504 47.0592 50.9723 48.6901C50.8724 49.603 50.722 50.5087 50.6893 51.4131C51.0233 53.185 51.4868 54.9643 51.7545 56.772C51.5798 56.9101 51.3904 56.8794 51.1806 56.8853L51.1905 56.9541L49.6332 56.9536L43.847 56.9556L43.198 56.9511C41.99 57.054 39.7987 56.9571 38.5171 56.9571L37.4469 56.9531L36.793 56.9556H35.1167L30.9339 56.9571C29.6761 56.912 28.3499 56.9452 27.0871 56.9501C25.6826 56.959 24.004 57.0135 22.6163 56.9308L22.2983 56.963L20.3057 56.9585L19.9985 56.9387C19.5182 56.9783 18.8284 56.9526 18.3318 56.9551L13.8335 56.9585L13.0841 56.963L13.0979 56.8967C12.8021 56.8967 12.7975 56.964 12.5988 56.7814L12.5909 56.5009C12.6635 56.1694 12.7311 55.5327 12.7783 55.1696L12.8125 54.8159C13.1552 54.4201 13.0732 53.9763 12.8627 53.5365L13.1547 53.2427C12.4199 52.3811 11.9602 50.9333 11.6702 49.7074C11.2611 47.681 11.1987 46.5112 11.3747 44.3961L11.1603 44.0831C11.2327 43.9456 11.2007 44.0291 11.2397 43.8222C10.9415 44.0394 11.0498 44.039 10.793 43.938L10.7964 43.9843C10.9348 43.1415 13.4922 42.0905 13.6402 41.7425L13.5041 41.7356L13.6047 41.4701C13.7529 41.2897 13.1551 39.7841 13.101 39.451C13.0556 39.1718 13.4078 38.0315 13.5161 37.673C13.5998 37.908 13.6094 37.8741 13.7743 38.0507L13.8298 38.1095L13.8431 37.9819L13.9629 37.847C15.2062 38.9376 16.0554 40.0485 17.581 40.7233C21.5676 42.8311 27.0772 43.0004 31.2482 41.9898C32.6724 41.6447 33.9784 41.1682 35.367 40.6294L35.7541 40.2453C36.671 39.528 37.9421 39.1638 38.9297 38.3192C39.3174 37.9877 40.7707 36.6171 41.0162 36.4997C41.2425 36.1666 41.2693 36.148 41.5593 35.9076C41.6252 35.6022 42.9772 33.9368 43.3213 32.5161Z" fill="#202520"/>
<path d="M44.0871 44.6534C45.0152 44.5553 45.1448 44.0546 46.3476 44.4977C46.7309 44.6313 46.9347 44.7667 47.2089 45.1574L47.2195 45.2204L47.1981 45.5512C46.3257 45.2752 45.9174 45.3183 45.0312 45.4154C46.1825 45.4997 47.1707 47.588 47.7333 48.7701L46.1746 48.9461L46.39 49.1833C46.727 49.1439 46.953 49.123 47.2902 49.1309C47.9672 49.1935 48.1717 49.6357 48.1197 50.5824C48.5312 51.2508 48.5976 51.5387 48.4618 52.4044L48.5519 52.6759C48.6395 53.1722 48.6721 53.3422 48.6833 53.8468C49.2576 53.8241 49.7538 53.6821 50.3271 53.7988L50.4567 53.9136L50.3718 54.0877C50.8909 54.4024 50.9848 55.1717 50.8631 55.8762C50.8419 56.0889 50.8171 56.0795 50.8641 56.2482C50.8839 56.2848 51.2035 56.9186 51.1822 56.8869L51.1921 56.9557L49.6349 56.9552L43.8487 56.9572L43.1996 56.9527C41.9916 57.0556 39.8003 56.9587 38.5188 56.9587L37.4486 56.9547L37.5065 56.2982C37.4307 56.0845 37.357 55.9197 37.2695 55.7154C37.4835 55.1242 37.6872 54.2372 37.9567 53.4763C38.0411 53.2644 38.1273 53.0537 38.2151 52.8443C39.6339 49.4669 42.0453 46.1902 44.8792 45.1242C44.6295 44.9432 44.3503 44.8002 44.0871 44.6534Z" fill="#E8D9C1"/>
<path d="M46.39 49.1839C46.7269 49.1445 46.9529 49.1237 47.2901 49.1315C47.9671 49.1942 48.1717 49.6363 48.1197 50.583C48.5312 51.2514 48.5976 51.5393 48.4618 52.405L48.5518 52.6766C48.6395 53.1728 48.6721 53.3428 48.6833 53.8474C47.1078 54.1868 45.4424 54.446 43.8156 54.7929C43.6318 54.2086 42.655 50.4859 43.0883 50.1367C43.8222 49.5454 45.4806 49.3351 46.39 49.1839Z" fill="#E8D9C1"/>
<path d="M48.4611 52.4072L48.5512 52.6788C48.4563 52.9405 48.4113 53.1659 48.2262 53.2853C48.0732 53.1337 48.127 53.23 48.0645 52.9815L48.4611 52.4072Z" fill="#E0D1BB"/>
<path d="M50.3694 54.0908C50.8885 54.4055 50.9825 55.1748 50.8608 55.8793C50.8395 56.092 50.8148 56.0826 50.8618 56.2513C50.8815 56.2879 51.2011 56.9217 51.1799 56.89L51.1898 56.9588L49.6325 56.9583L43.8463 56.9602L43.1973 56.9558C43.9098 56.2642 47.8526 55.858 48.8334 55.7793C48.924 55.1565 48.8892 54.7498 48.6756 54.1967C49.2035 54.1908 49.8344 54.1264 50.3694 54.0908Z" fill="#83827F"/>
<path d="M50.3696 54.0908C50.8887 54.4055 50.9827 55.1748 50.8609 55.8793C50.1882 55.7769 49.5103 55.7437 48.8336 55.7793C48.9242 55.1565 48.8894 54.7498 48.6758 54.1967C49.2037 54.1908 49.8346 54.1264 50.3696 54.0908Z" fill="#B0A695"/>
<path d="M43.8477 56.9599C45.3812 56.4582 47.0815 56.0936 48.6619 56.1109C49.1252 56.4389 49.3788 56.4192 49.6339 56.9579L43.8477 56.9599Z" fill="#E8D9C1"/>
<path d="M48.6621 56.1104C49.0331 56.1272 50.6501 56.3043 50.8633 56.2504C50.8831 56.287 51.2027 56.9207 51.1814 56.8891L51.1913 56.9578L49.6341 56.9573C49.379 56.4186 49.1254 56.4384 48.6621 56.1104Z" fill="#B0A695"/>
<path d="M44.0871 44.6534C45.0152 44.5553 45.1448 44.0546 46.3476 44.4977C46.7309 44.6313 46.9347 44.7667 47.2089 45.1574L47.2195 45.2204L47.1981 45.5512C46.3257 45.2752 45.9174 45.3183 45.0312 45.4154C42.407 46.2814 40.2489 49.0415 38.8454 52.0699C38.401 53.0289 38.1392 53.9477 37.8252 54.9842C37.7187 55.4037 37.5898 55.8742 37.5065 56.2982C37.4307 56.0845 37.357 55.9197 37.2695 55.7154C37.4835 55.1242 37.6872 54.2372 37.9567 53.4763C38.0411 53.2644 38.1273 53.0537 38.2151 52.8443C39.6339 49.4669 42.0453 46.1902 44.8792 45.1242C44.6295 44.9432 44.3503 44.8002 44.0871 44.6534Z" fill="#686658"/>
<path d="M44.0859 44.6534C45.014 44.5553 45.1436 44.0546 46.3464 44.4977C46.7297 44.6313 46.9335 44.7667 47.2077 45.1574L47.2183 45.2204C47.206 45.2211 46.6853 45.0977 46.6055 45.0825C45.9354 44.9551 45.5383 45.0055 44.8779 45.1242C44.6283 44.9432 44.3491 44.8002 44.0859 44.6534Z" fill="#A7A092"/>
<path d="M37.8239 54.9836C37.9011 55.2532 37.9361 55.4709 38.0975 55.652L38.2104 55.6322C38.726 54.7006 40.2292 51.8322 41.225 52.1689C41.4458 52.4387 41.3655 52.2806 41.466 52.6701C41.329 54.056 38.6461 55.1597 38.4375 56.5499L38.5175 56.9581L37.4473 56.9541L37.5052 56.2976C37.5885 55.8736 37.7174 55.4031 37.8239 54.9836Z" fill="#B0A695"/>
<path d="M48.6772 54.1938C47.1485 54.4516 45.6195 54.6505 44.0978 55.0057C43.9884 55.0309 43.6811 55.0502 43.6253 54.8909C43.2842 53.9183 42.5522 50.9993 42.6355 50.0381C43.1238 49.5087 45.4458 49.0435 46.1738 48.9463L46.3893 49.1835C45.4799 49.3347 43.8215 49.545 43.0876 50.1363C42.6543 50.4855 43.631 54.2082 43.8149 54.7924C45.4417 54.4456 47.1071 54.1864 48.6826 53.847C49.2569 53.8243 49.7531 53.6823 50.3263 53.799L50.456 53.9138L50.371 54.088C49.836 54.1236 49.2052 54.1879 48.6772 54.1938Z" fill="#424748"/>
<path d="M36.7984 45.1885C37.1686 45.2299 37.5947 45.2529 37.9668 45.2266C37.7536 45.5897 37.536 45.948 37.3141 46.3016C36.8578 47.1351 36.2473 48.225 35.9882 49.193C35.8557 49.5389 35.8133 49.6779 35.7239 50.0483C35.5944 50.563 35.4691 50.9682 35.4369 51.5134C35.4956 52.399 35.5234 53.4959 35.737 54.3182C36.0022 55.3328 36.2937 56.1051 36.7939 56.9585H35.1175L30.9347 56.96C29.6769 56.915 28.3507 56.9481 27.088 56.9531C25.6834 56.962 24.0049 57.0164 22.6172 56.9338C22.7556 55.0499 23.3477 52.9618 23.8999 51.2181C24.8939 51.0223 26.0314 50.1938 26.8708 49.4899C27.5715 49.3443 28.2886 49.2859 28.9862 49.1407C29.8361 48.9638 30.7106 48.6962 31.5529 48.4517C30.9025 48.9419 29.3539 49.7174 29.0526 49.9709C29.4363 50.148 30.7426 49.1687 31.1346 48.8826C32.2986 48.0328 33.5375 47.5793 34.7267 46.8083C35.2847 46.3269 36.1873 45.6782 36.7984 45.1885Z" fill="#E8D9C1"/>
<path d="M35.4556 55.7936C35.0482 54.9348 34.1542 53.5624 34.3769 52.4369L34.4646 52.3994C35.1359 52.7745 35.2121 53.9285 35.7377 54.3164C36.003 55.3311 36.2945 56.1033 36.7947 56.9568H35.1183C35.1556 56.6604 35.3583 56.0969 35.4556 55.7936Z" fill="#B0A695"/>
<path d="M35.5508 56.0986C35.8124 56.2713 36.0203 56.625 36.222 56.9045C36.0697 56.9268 35.9855 56.909 35.8412 56.8402C35.6638 56.6226 35.6213 56.3955 35.5508 56.0986Z" fill="#83827F"/>
<path d="M27.0879 56.9522C28.1142 56.0528 29.949 55.9291 30.9347 56.9591C29.6769 56.9141 28.3507 56.9472 27.0879 56.9522Z" fill="#28313C"/>
<path d="M36.7983 45.1885C37.1685 45.2299 37.5946 45.2529 37.9667 45.2266C37.7535 45.5897 37.5359 45.948 37.314 46.3016C37.1994 46.0887 37.1407 45.8815 36.9512 45.8843C36.1991 45.8951 35.4372 46.5894 34.7266 46.8083C35.2846 46.3269 36.1872 45.6782 36.7983 45.1885Z" fill="#B0A695"/>
<path d="M35.4358 51.5132C35.2138 50.0938 35.5546 48.3971 36.1117 47.165C36.0769 47.9688 35.4404 49.1433 35.7228 50.0482C35.5933 50.5628 35.468 50.968 35.4358 51.5132Z" fill="#968E7B"/>
<path d="M27.4819 50.4647C28.6197 50.4379 33.1849 50.3416 33.9287 50.9371C33.9613 51.0693 33.9649 51.0632 33.9759 51.2269C33.9999 51.5844 33.3959 55.3187 33.2225 55.5349C33.1373 55.6408 33.0148 55.6027 32.9057 55.6071C31.5494 55.4691 30.1824 55.4018 28.823 55.3454C28.1705 55.3182 27.5085 55.3578 26.8585 55.2806C26.6537 55.2564 26.436 55.2519 26.3 55.0372C26.2699 54.4371 26.8094 51.3281 27.0403 50.8246C27.1582 50.5673 27.2828 50.5458 27.4819 50.4647Z" fill="#424748"/>
<path d="M28.0624 50.7474C28.9046 50.7029 33.1499 50.6927 33.6246 51.1686C33.6534 52.2312 33.3369 54.2378 33.0363 55.2198C32.8106 55.3539 32.5117 55.2579 32.2718 55.2238C31.3498 55.206 27.1881 55.1303 26.621 54.8706C26.6163 54.8389 26.6094 54.8077 26.6068 54.7751C26.5573 54.1735 27.0845 51.4548 27.3674 51.0199C27.5589 50.7255 27.7948 50.7586 28.0624 50.7474Z" fill="#E8D9C1"/>
<path d="M34.1312 48.4463L34.2497 48.6051C34.2154 49.2127 34.1051 49.8518 33.9423 50.4198C33.8372 50.3015 33.8649 50.3693 33.8343 50.1849C33.7379 49.6044 33.9071 48.9369 34.1312 48.4463Z" fill="#B0A695"/>
<path d="M16.5179 46.251C17.2779 47.3313 18.2028 47.8467 19.2184 48.3985C19.3668 48.4666 19.5026 48.5306 19.6537 48.5892C20.4306 48.8691 21.0945 49.0928 21.8359 49.5369C21.2491 51.4647 20.7451 53.1098 20.3214 55.1232C20.2677 55.3929 20.1941 55.7184 20.1646 55.987C20.1158 56.2562 20.0283 56.6792 20.0004 56.9399C19.52 56.9795 18.8303 56.9537 18.3337 56.9562L13.8354 56.9597L13.0859 56.9641L13.0998 56.8978C13.1665 56.4902 13.1889 55.7971 13.2804 55.2593C13.6359 53.1681 14.1503 51.8872 15.0458 50.1885C15.0821 49.9309 15.1152 49.7032 15.1623 49.4472C15.2099 48.9961 15.3256 48.3901 15.4022 47.9335C15.7926 47.0321 15.5924 46.2934 16.5179 46.251Z" fill="#E8D9C1"/>
<path d="M16.1222 53.4357C13.9947 51.5618 16.001 47.3401 18.4053 49.6679L18.6772 49.6877C19.8532 50.036 20.3203 50.8704 19.3531 52.2133C19.2115 52.2712 19.0221 52.3637 18.8816 52.3823L18.3683 52.9885C17.8647 53.8009 16.7886 53.9478 16.1222 53.4357Z" fill="#28313C"/>
<path d="M16.1228 53.4351C16.048 53.0555 16.0415 53.2403 16.1592 52.8626C16.918 52.8321 17.8323 51.961 18.2402 52.138C18.3948 52.3881 18.348 52.2933 18.357 52.6921L18.4159 52.7033L18.3689 52.9878C17.8654 53.8002 16.7893 53.9471 16.1228 53.4351Z" fill="url(#paint5_linear_4631_52620)"/>
<path d="M18.3532 51.717C17.8211 51.567 17.3825 51.5718 17.3262 50.6838C17.5163 49.8166 18.1087 49.9252 18.6242 50.0779C18.7893 50.4252 18.7254 50.7922 18.6596 51.1891L18.6463 51.2662L18.3532 51.717Z" fill="#65696C"/>
<path d="M19.164 51.2354C19.1748 51.4783 19.0838 51.6398 19.0015 51.8475C19.1255 52.1256 19.0968 52.0429 19.3537 52.2109C19.2121 52.2687 19.0227 52.3613 18.8821 52.3799C18.6935 51.9012 18.7251 51.9636 18.3535 51.7167L18.6466 51.266C18.9144 51.3113 18.9042 51.3178 19.164 51.2354Z" fill="#222A2E"/>
<path d="M18.625 50.083C18.8575 50.1058 18.9515 50.0803 19.1216 50.2899C19.2282 50.6061 19.1826 50.8858 19.1645 51.2407C18.9047 51.3231 18.9149 51.3167 18.6471 51.2713L18.6604 51.1942C18.7262 50.7972 18.7901 50.4303 18.625 50.083Z" fill="#424748"/>
<path d="M16.7023 49.2327C17.1356 49.2142 17.5157 49.4111 17.9181 49.5986C17.7696 49.6733 17.6157 49.7532 17.4798 49.8651C17.1903 50.1036 17.0196 50.5498 16.9575 50.983C16.9533 51.0121 16.9497 51.0413 16.9458 51.0705L16.8369 51.1718C16.3861 51.1364 15.9363 51.2427 15.4902 51.3201C15.5172 51.2043 15.5452 51.0889 15.5742 50.9741C15.8108 50.0357 16.0423 49.6734 16.7023 49.2327Z" fill="#575956"/>
<path d="M16.0073 51.4438C16.3991 51.4257 16.9327 51.3285 17.286 51.5893C17.3888 51.6651 17.356 51.6512 17.3852 51.8266C17.2867 52.0967 17.1326 52.2206 16.9561 52.3886C16.6831 52.4436 16.3581 52.521 16.0866 52.4335C15.8262 52.3495 15.6255 52.2174 15.4844 51.9101L15.5272 51.7554C15.6943 51.5628 15.8006 51.5163 16.0073 51.4438Z" fill="#313935"/>
<path d="M13.8358 56.8835C14.4581 56.7524 14.7213 55.425 16.096 55.3587C16.5707 55.336 16.9637 55.4819 17.3484 55.8604C17.6311 56.1384 17.8754 56.4788 18.1058 56.8315L18.3345 56.8845L18.3323 56.9542L13.834 56.9577L13.8358 56.8835Z" fill="#424748"/>
<path d="M14.8326 56.8465L14.6021 56.8559L14.5664 56.7511C15.1137 55.9862 16.3813 55.9486 16.7019 56.7961C16.5662 56.895 16.6371 56.8688 16.4902 56.8802C16.0473 56.8243 15.2981 56.8495 14.8326 56.8465Z" fill="#28313C"/>
<path d="M14.832 56.8494C15.4348 56.4531 15.8911 56.42 16.4896 56.883C16.0468 56.8271 15.2975 56.8523 14.832 56.8494Z" fill="#313935"/>
<path d="M13.8359 56.8872C14.0553 56.1491 14.4458 55.69 14.9885 55.3837C15.7202 54.9701 16.544 54.9672 17.2775 55.3748C17.7569 55.6489 18.2075 56.1882 18.3347 56.8882L18.106 56.8353C17.8756 56.4825 17.6312 56.1421 17.3486 55.8641C16.9639 55.4856 16.5709 55.3397 16.0962 55.3625C14.7215 55.4287 14.4583 56.7561 13.8359 56.8872Z" fill="#28313C"/>
<path d="M18.4551 54.1768C19.1202 54.7407 19.5237 55.1984 20.3192 55.1252C20.2655 55.3948 20.1919 55.7203 20.1624 55.9889C19.3771 55.513 19.0136 55.0257 18.4551 54.1768Z" fill="#B0A695"/>
<path d="M15.1614 49.4495L15.2288 49.5373C15.7908 48.8698 16.5205 47.9143 17.1673 47.4736C16.8504 47.9338 15.3931 49.91 15.0449 50.1908C15.0812 49.9332 15.1143 49.7056 15.1614 49.4495Z" fill="#968E7B"/>
<path d="M19.2177 48.3994C19.3661 48.4675 19.5019 48.5315 19.653 48.5901C19.1329 48.9437 19.0028 49.0077 18.6781 49.6861L18.4062 49.6664C18.7032 49.2005 18.995 48.9333 19.2177 48.3994Z" fill="#B0A695"/>
<path d="M35.3647 45.1489C36.1298 44.8154 36.8014 44.0004 37.5779 44.3254L37.6128 44.482C37.3801 44.6765 37.0009 44.9707 36.7984 45.1892C36.1872 45.6789 35.2846 46.3277 34.7266 46.809C33.5374 47.5801 32.2986 48.0336 31.1346 48.8833C30.7426 49.1695 29.4363 50.1488 29.0525 49.9717C29.3538 49.7182 30.9024 48.9426 31.5528 48.4525C30.7105 48.6969 29.8361 48.9645 28.9862 49.1415C28.2886 49.2867 27.5714 49.3451 26.8707 49.4906C26.0313 50.1945 24.8938 51.023 23.8999 51.2189C23.3476 52.9625 22.7556 55.0506 22.6171 56.9345L22.2991 56.9667L20.3065 56.9622L19.9993 56.9425C20.0272 56.6817 20.1147 56.2587 20.1635 55.9896C20.193 55.721 20.2666 55.3954 20.3203 55.1258C20.744 53.1124 21.248 51.4673 21.8348 49.5394C21.0934 49.0954 20.4295 48.8716 19.6526 48.5918C19.5015 48.5331 19.3657 48.4691 19.2173 48.4011C18.2017 47.8492 17.2768 47.3338 16.5168 46.2535C16.1607 45.621 15.9661 45.2172 15.6719 44.5216C15.8431 44.3919 15.838 44.3712 15.9645 44.1611C16.1605 45.0394 16.5432 45.9472 17.1148 46.4724C17.994 46.5381 19.6839 47.7694 20.8047 47.5032L21.5315 47.7146C21.9257 47.8315 22.284 47.8926 22.6686 47.7044L22.7507 47.6008L22.9733 47.4883C24.2024 48.2658 25.8963 47.6267 26.9038 47.7881C28.0248 47.6671 33.9008 46.5458 34.1873 45.2441C34.5664 44.9234 34.8965 44.9347 35.26 45.2399L35.3647 45.1489Z" fill="#575956"/>
<path d="M22.2511 49.4893C22.8945 49.5927 23.4844 49.6796 24.1325 49.7179C23.3867 51.9006 22.4865 54.5521 22.2992 56.9624L20.3066 56.9579C20.608 54.8514 21.3839 51.253 22.2511 49.4893Z" fill="#E8D9C1"/>
<path d="M34.1875 45.2456C34.5665 44.9249 34.8967 44.9362 35.2602 45.2414L35.3648 45.1504C35.6038 45.1588 35.6267 45.1411 35.8543 45.2624L35.8794 45.4041C35.5702 45.9406 33.7754 47.1498 33.2955 47.3466C32.9274 47.2115 31.6466 47.7811 31.1046 47.8726C29.8754 48.0804 26.5822 48.5624 25.4785 48.3873C25.5555 48.1577 27.0546 48.2276 27.4082 48.0936C27.1718 47.9984 27.1083 47.99 26.904 47.7896C28.025 47.6686 33.901 46.5473 34.1875 45.2456Z" fill="#B0A695"/>
<path d="M34.1878 45.2456C34.5669 44.9249 34.897 44.9362 35.2605 45.2414C32.9714 46.9313 29.9874 47.7771 27.4085 48.0936C27.1721 47.9984 27.1086 47.99 26.9043 47.7896C28.0253 47.6686 33.9013 46.5473 34.1878 45.2456Z" fill="#28313C"/>
<path d="M25.4787 48.3864C26.5824 48.5616 29.8756 48.0796 31.1048 47.8718C31.6468 47.7802 32.9276 47.2107 33.2956 47.3458C31.1956 48.4131 29.1427 49.0431 26.8998 49.2546C26.4956 49.2927 25.7428 49.477 25.3812 49.2515C25.3692 48.8681 25.4042 48.7664 25.4787 48.3864Z" fill="#E8D9C1"/>
<path d="M17.1152 46.4736C17.9945 46.5393 19.6844 47.7707 20.8052 47.5045L21.532 47.7158C21.4245 48.0867 21.3153 48.4567 21.2043 48.8257C19.7744 48.3683 18.2717 47.7215 17.1152 46.4736Z" fill="#E8D9C1"/>
<path d="M25.991 49.5998C26.3176 49.5146 26.542 49.5101 26.8712 49.4893C26.0319 50.1932 24.8944 51.0216 23.9004 51.2175L24.0428 50.8532C24.5539 50.6762 25.542 50.0074 25.991 49.5998Z" fill="#B0A695"/>
<path d="M24.041 50.852C24.52 49.5895 25.024 49.6123 25.9893 49.5986C25.5402 50.0062 24.5522 50.675 24.041 50.852Z" fill="#E8D9C1"/>
<path d="M21.8273 47.9625C22.437 47.9117 24.4961 48.014 24.9917 48.3571C25.068 48.4099 25.0682 48.4096 25.0861 48.5219C25.1384 48.8486 24.9983 49.163 24.8788 49.4331C24.1445 49.4454 22.4785 49.5046 21.8537 49.0692C21.6823 48.9497 21.6464 48.866 21.5938 48.6237C21.643 48.3571 21.7159 48.1856 21.8273 47.9625Z" fill="#E8D9C1"/>
<path d="M44.5865 42.7822C45.0248 42.8869 46.2197 43.5377 46.4286 44.0485L46.3459 44.4984C45.1431 44.0554 45.0135 44.556 44.0854 44.6541C44.3486 44.8009 44.6278 44.9439 44.8774 45.1249C42.0436 46.191 39.6322 49.4676 38.2133 52.845C38.1256 53.0544 38.0394 53.2651 37.9549 53.477C37.4636 53.2651 37.4778 52.8998 37.416 52.2825C38.0455 49.3886 38.9353 46.6086 40.7933 44.7517C41.7769 43.5092 43.238 42.7943 44.5865 42.7822Z" fill="#E8D9C1"/>
<path d="M44.5881 42.7822C45.0264 42.8869 46.2213 43.5377 46.4302 44.0485L46.3475 44.4984C45.1447 44.0554 45.0151 44.556 44.087 44.6541C43.7654 44.8347 43.5082 44.9742 43.1991 45.1975L42.949 45.0521C43.1581 44.863 43.4597 44.6642 43.6883 44.5017C42.7193 43.8635 41.8047 44.3791 40.7949 44.7517C41.7784 43.5092 43.2396 42.7943 44.5881 42.7822Z" fill="#A7A092"/>
<path d="M43.6885 44.503C45.2034 43.7822 45.0282 44.0759 46.3345 44.0526L46.4305 44.0499L46.3477 44.4997C45.1449 44.0567 45.0153 44.5573 44.0872 44.6555C43.7657 44.8361 43.5084 44.9756 43.1994 45.1988L42.9492 45.0534C43.1583 44.8644 43.4599 44.6655 43.6885 44.503Z" fill="#424748"/>
<path d="M42.9478 45.0518L43.1979 45.1972C40.9854 46.9828 40.1697 48.1601 38.6872 51.0039L38.6367 50.8958C38.7867 50.096 39.6429 48.8942 40.0369 48.2735C40.931 46.8649 41.7421 45.9536 42.9478 45.0518Z" fill="#83827F"/>
<path d="M45.952 36.5674C46.4985 36.6811 47.303 36.9215 47.6626 37.5158C47.712 37.6962 47.7483 37.7992 47.7993 37.9635C47.9802 38.5471 47.686 39.0153 48.1821 39.379C48.3898 39.3664 48.5114 39.3517 48.7175 39.3148C48.6281 40.4713 48.6057 43.2936 48.6451 44.5354L48.3641 44.7434C48.4527 44.7693 48.7483 44.8463 48.814 44.8872C48.7961 45.4352 48.7712 46.0132 48.7642 46.5594C48.6546 46.3713 48.5745 46.2615 48.4524 46.09C48.3322 45.92 48.1992 45.7473 48.0751 45.5805C47.935 45.3175 48.0425 45.2829 47.9555 44.9425C47.4902 44.9183 46.9191 43.7701 46.4358 43.3338C45.8376 42.7939 45.4857 42.5439 44.8147 42.1461C45.0987 39.3549 44.6366 40.3112 43.625 39.2383L43.6279 39.0778C43.9118 38.7268 44.1858 38.8935 44.4397 38.6811C45.1489 38.0876 45.6285 37.7846 45.9214 36.6856L45.952 36.5674Z" fill="#83827F"/>
<path d="M47.9555 44.943L48.041 44.8207C47.9135 44.3593 47.86 40.7184 48.0042 40.3643C48.2257 40.7729 48.118 43.9135 48.1471 44.7001L48.3641 44.7439C48.4527 44.7699 48.7483 44.8468 48.814 44.8877C48.7961 45.4358 48.7712 46.0138 48.7642 46.5599C48.6546 46.3718 48.5745 46.262 48.4524 46.0905C48.3323 45.9205 48.1992 45.7478 48.0751 45.581C47.935 45.318 48.0425 45.2834 47.9555 44.943Z" fill="#424748"/>
<path d="M48.0742 45.5829C48.2478 45.2627 48.1941 45.2443 48.4065 45.1885C48.545 45.4826 48.5451 45.7598 48.4515 46.0924C48.3314 45.9225 48.1983 45.7497 48.0742 45.5829Z" fill="#83827F"/>
<path d="M17.5821 40.7238C21.5688 42.8315 27.0784 43.0009 31.2494 41.9902C32.6735 41.6452 33.9795 41.1687 35.3681 40.6299C35.7462 40.8969 36.2356 41.1828 36.5147 41.5803C30.2903 44.1971 24.2135 44.8059 17.9605 42.0212C17.698 41.5166 17.5778 41.3264 17.5821 40.7238Z" fill="#E8D9C1"/>
<path d="M40.1309 44.8537C41.0241 43.6517 42.6633 42.2939 43.9711 42.4555L44.5861 42.7788C43.2376 42.7909 41.7764 43.5058 40.7929 44.7483C38.9349 46.6052 38.0451 49.3852 37.4156 52.279C37.4774 52.8964 37.4631 53.2617 37.9545 53.4736C37.685 54.2344 37.4813 55.1215 37.2674 55.7127C37.3549 55.917 37.4286 56.0818 37.5044 56.2955L37.4464 56.952L36.7925 56.9545C36.2924 56.1011 36.0008 55.3288 35.7356 54.3141C35.5221 53.4919 35.4943 52.3949 35.4355 51.5093C35.4677 50.9641 35.593 50.5589 35.7225 50.0443C35.812 49.6739 35.8544 49.5348 35.9869 49.1889C36.071 49.3893 36.0347 49.6424 36.1493 49.9978C36.5363 48.2532 37.2969 47.0811 38.1322 45.7096C38.5284 45.9689 38.7743 46.0768 39.1908 46.2645C39.4275 45.8781 39.6738 45.5118 39.9214 45.1385L40.1309 44.8537Z" fill="#28313C"/>
<path d="M38.133 45.7119C38.5293 45.9712 38.7751 46.0791 39.1916 46.2668C38.367 47.8138 37.7814 49.0098 37.304 50.8499C36.8764 50.7035 36.465 50.5727 36.0488 50.3734L36.1502 50.0001C36.5371 48.2555 37.2977 47.0834 38.133 45.7119Z" fill="#65696C"/>
<path d="M35.8359 51.2666C35.9699 52.0503 36.4771 52.1683 37.02 52.0227C36.7884 54.072 36.6873 54.3684 37.0375 56.4244C35.998 54.6048 35.8001 53.5046 35.8359 51.2666Z" fill="#424748"/>
<path d="M35.9649 50.7609C36.0681 50.5493 36.04 50.6414 36.0494 50.3721C36.4656 50.5713 36.8769 50.7021 37.3045 50.8485L37.2697 51.0376L37.02 52.0198C36.4772 52.1655 35.9699 52.0474 35.8359 51.2637L35.9649 50.7609Z" fill="#65696C"/>
<path d="M35.9648 50.7609C36.068 50.5493 36.0399 50.6414 36.0493 50.3721C36.4655 50.5713 36.8769 50.7021 37.3045 50.8485L37.2696 51.0376C36.9344 51.0013 36.3516 50.8287 35.9648 50.7609Z" fill="#313935"/>
<path d="M37.269 55.7159C36.9864 54.6196 37.2413 53.3813 37.4172 52.2822C37.479 52.8995 37.4647 53.2649 37.9561 53.4767C37.6866 54.2376 37.4829 55.1247 37.269 55.7159Z" fill="#B0A695"/>
<path d="M43.3215 32.5161C43.3738 32.2655 43.3936 32.18 43.3452 31.9246C43.0506 30.3685 43.056 27.4449 43.896 26.1846C43.5186 27.4322 43.4006 28.0386 43.2614 29.3868L43.67 29.5953L43.787 29.502L43.8841 28.9758C43.8691 30.6635 43.8744 31.3157 44.6836 32.6747C44.5973 33.0809 44.5709 33.3538 44.3605 33.665L44.14 33.7776L44.4048 34.1001C43.6904 34.2537 42.8675 35.2929 42.8053 36.249L42.748 36.4088C42.5819 36.2009 42.6769 36.2873 42.3741 36.2668C42.3176 36.7588 42.307 36.9423 42.311 37.4399C40.7013 39.3933 38.5498 40.6201 36.5138 41.5798C36.2347 41.1823 35.7452 40.8964 35.3672 40.6294L35.7543 40.2453C36.6712 39.528 37.9423 39.1638 38.9299 38.3192C39.3175 37.9877 40.7709 36.6171 41.0163 36.4997C41.2427 36.1666 41.2695 36.148 41.5595 35.9076C41.6254 35.6022 42.9774 33.9368 43.3215 32.5161Z" fill="#B0A695"/>
<path d="M43.3226 32.5161C43.3749 32.2655 43.3947 32.18 43.3463 31.9246C43.0517 30.3685 43.0571 27.4449 43.8971 26.1846C43.5197 27.4322 43.4017 28.0386 43.2625 29.3868C43.2739 30.6699 43.2518 30.9546 43.5479 32.1633C43.1803 33.6087 42.5283 34.8925 41.6614 35.8777L41.5605 35.9076C41.6264 35.6022 42.9785 33.9368 43.3226 32.5161Z" fill="#686658"/>
<path d="M42.375 36.2715C42.4642 35.9697 42.5678 35.676 42.6851 35.3923C43.043 34.5114 43.4384 34.0638 44.1409 33.7822L44.4057 34.1048C43.6913 34.2584 42.8684 35.2975 42.8063 36.2536L42.749 36.4134C42.5828 36.2056 42.6778 36.292 42.375 36.2715Z" fill="#222A2E"/>
<path d="M41.0156 36.5032C41.242 36.1701 41.2688 36.1515 41.5587 35.9111C41.3429 36.2715 41.3256 36.3138 41.0156 36.5032Z" fill="#686658"/>
<path d="M45.8996 35.5606C46.7592 35.4961 48.4414 36.0808 49.2705 36.4855C49.8355 36.9831 50.3557 37.5197 50.3929 38.4992C50.4493 39.9848 50.8879 42.773 49.9259 43.7887C49.582 44.0244 49.1738 44.3284 48.8171 44.5018L48.646 44.5383C48.6067 43.2964 48.629 40.4742 48.7184 39.3176C48.5124 39.3546 48.3907 39.3692 48.1831 39.3818C47.6869 39.0181 47.9811 38.5499 47.8002 37.9663C47.7493 37.802 47.7129 37.699 47.6636 37.5186C47.3039 36.9243 46.4995 36.684 45.9529 36.5702L45.8913 36.3965L45.791 36.166L45.8996 35.5606Z" fill="#B0A695"/>
<path d="M47.6621 37.5164C48.4391 37.5017 48.8367 37.2361 48.8209 38.5699C48.8199 38.7707 48.8134 38.9714 48.8015 39.1716L48.717 39.3154C48.5109 39.3523 48.3893 39.367 48.1816 39.3795C47.6855 39.0158 47.9797 38.5477 47.7988 37.964C47.7478 37.7998 47.7115 37.6967 47.6621 37.5164Z" fill="#65696C"/>
<path d="M48.8026 39.1729C48.8067 40.9278 48.7926 42.7517 48.8167 44.5008L48.6456 44.5372C48.6063 43.2954 48.6286 40.4731 48.718 39.3166L48.8026 39.1729Z" fill="#424748"/>
<path d="M45.791 36.1638C46.3195 35.9599 47.0589 36.2836 47.5986 36.4646L47.5929 36.5902C47.0865 36.7186 46.3647 35.9403 45.8913 36.3943L45.791 36.1638Z" fill="#65696C"/>
<path d="M34.1878 45.2471C33.9012 46.5488 28.0252 47.6701 26.9042 47.791C25.8967 47.6296 24.2028 48.2688 22.9737 47.4912C22.8063 47.1114 22.7296 46.9518 22.8938 46.5418C23.2847 46.2434 25.5576 46.5028 26.2131 46.4931C28.9665 46.4523 31.506 45.9768 34.1878 45.2471Z" fill="#424748"/>
<path d="M44.4045 34.1025C44.6498 34.2301 44.9169 34.3046 45.0587 34.5451C44.9191 34.7681 44.9824 34.6894 44.7639 34.8102C45.0156 34.9051 45.139 34.8967 45.4028 34.8925L45.5121 34.9877C45.6265 36.0036 44.6875 36.2766 44.6482 38.0001C44.4974 38.2006 44.5114 38.2148 44.3075 38.2639C43.9603 38.1341 43.8976 37.9258 43.7213 38.0309L43.6721 38.2406C43.0153 38.4147 42.7272 37.7615 42.7325 36.9846C42.7345 36.7933 42.7396 36.6022 42.7478 36.4112L42.8051 36.2514C42.8672 35.2953 43.6901 34.2561 44.4045 34.1025Z" fill="#313935"/>
<path d="M44.4061 34.1025C44.6514 34.2301 44.9184 34.3046 45.0602 34.5451C44.9207 34.7681 44.9839 34.6894 44.7654 34.8102C44.1795 35.3004 43.9513 35.9098 43.7088 36.7424C43.4698 36.6041 43.0402 36.3324 42.8066 36.2514C42.8688 35.2953 43.6917 34.2561 44.4061 34.1025Z" fill="#65696C"/>
<path d="M11.3758 44.4004C11.4088 44.1973 11.4457 44.0106 11.4846 43.81C12.1856 43.7847 12.4573 43.8762 13.1074 43.9261C12.7926 45.3673 12.8736 46.5364 12.493 47.9828C12.4599 48.4665 12.4765 49.2505 12.339 49.6396C12.0925 49.8836 11.9596 49.8026 11.6713 49.7117C11.2622 47.6852 11.1998 46.5155 11.3758 44.4004Z" fill="#E8D9C1"/>
<path d="M47.2891 49.1323C47.7972 48.9972 48.7352 49.1074 49.278 49.1551C49.5868 50.0081 50.6518 52.9512 50.4674 53.7176L50.326 53.8002C49.7527 53.6835 49.2565 53.8255 48.6822 53.8482C48.671 53.3436 48.6384 53.1736 48.5508 52.6773L48.4607 52.4058C48.5965 51.5401 48.5301 51.2522 48.1186 50.5838C48.1706 49.6371 47.966 49.1949 47.2891 49.1323Z" fill="#B0A695"/>
<path d="M49.9241 43.7861C50.0416 43.8914 50.0629 43.926 50.1922 43.9954C50.3125 44.0923 50.4086 44.118 50.4189 44.3275C50.5008 45.9788 50.4092 48.7324 50.2245 50.3069C49.7078 48.643 49.3953 48.0521 48.7634 46.5597C48.7704 46.0136 48.7953 45.4356 48.8132 44.8875C48.7475 44.8466 48.4519 44.7697 48.3633 44.7437L48.6443 44.5357L48.8154 44.4993C49.1721 44.3259 49.5803 44.0219 49.9241 43.7861Z" fill="#83827F"/>
<path d="M49.9242 43.7861C50.0416 43.8914 50.0629 43.926 50.1922 43.9954C49.7942 44.3349 49.2813 44.8221 48.8132 44.8875C48.7475 44.8466 48.4519 44.7697 48.3633 44.7437L48.6443 44.5357L48.8154 44.4993C49.1721 44.3259 49.5803 44.0219 49.9242 43.7861Z" fill="#313935"/>
<path d="M38.1328 45.7115C39.4879 43.6667 42.1316 41.1292 44.2488 42.2269L44.2461 42.3157L43.9717 42.4574C42.664 42.2958 41.0248 43.6536 40.1315 44.8556L39.922 45.1404C39.6745 45.5137 39.4282 45.88 39.1914 46.2664C38.7749 46.0787 38.5291 45.9708 38.1328 45.7115Z" fill="#A7A092"/>
<path d="M39.9226 45.1416C39.6888 45.1203 39.5172 45.1466 39.3379 44.9583C39.4559 44.5977 39.9049 44.7061 40.1321 44.8568L39.9226 45.1416Z" fill="#E0D1BB"/>
<path d="M17.0039 44.3252C18.5586 45.0105 20.0692 45.7654 21.7065 46.0586C22.0583 46.1217 22.3141 46.134 22.6537 46.3128C22.634 46.3787 22.6153 46.4451 22.5978 46.5121C22.4827 46.96 22.5509 47.0629 22.7108 47.4955L22.7499 47.5993L22.6678 47.7029C22.4268 47.5593 21.6027 47.3385 21.3068 47.2434C19.4517 46.6468 18.2951 46.2395 17.0039 44.3252Z" fill="#424748"/>
<path d="M45.0293 45.419C45.9155 45.3219 46.3238 45.2787 47.1962 45.5547C48.1403 46.0605 48.8512 47.6375 49.2267 48.86C48.6922 48.7972 48.2693 48.7809 47.7315 48.7737C47.1688 47.5915 46.1806 45.5033 45.0293 45.419Z" fill="#B0A695"/>
<path d="M37.7832 44.3297C38.4775 43.2341 39.6657 42.7155 40.5957 41.9325C41.4405 41.2213 41.9368 40.7935 42.7199 39.9424C42.886 40.6566 42.9532 40.8502 43.288 41.4516C41.6704 41.5852 40.0046 42.9061 38.7325 44.1722C38.3455 44.1974 38.1613 44.1898 37.7832 44.3297Z" fill="#424748"/>
<path d="M44.1895 29.7432C44.6862 29.8573 45.2093 29.8419 45.7132 29.8168C45.7709 30.5348 45.8078 31.3859 46.1546 31.9573L46.2202 32.0783C45.998 32.298 45.2076 32.1932 44.8418 32.2772C44.318 31.2661 44.2579 30.9242 44.1895 29.7432Z" fill="#B0A695"/>
<path d="M13.8434 37.9875L13.9632 37.8525C15.2065 38.9432 16.0557 40.0541 17.5813 40.7289C17.577 41.3315 17.6971 41.5217 17.9596 42.0263C16.7634 41.3391 15.6269 40.6028 14.6723 39.3834C14.3669 38.9933 14.1535 38.4906 13.8301 38.1151L13.8434 37.9875Z" fill="#B0A695"/>
<path d="M15.9636 44.1592L15.9629 43.8474L16.0412 43.751C16.6398 43.9616 16.5987 44.4878 16.9549 44.9927C17.9199 46.3603 19.5303 46.9942 20.8038 47.5013C19.6831 47.7675 17.9932 46.5361 17.1139 46.4704C16.5424 45.9452 16.1596 45.0374 15.9636 44.1592Z" fill="#A7A092"/>
<path d="M12.4916 47.9814C12.5483 48.0766 12.6809 48.2915 12.6841 48.4174C12.7249 50.0499 12.9336 51.551 13.2008 53.1241C13.2095 53.1756 13.177 53.2124 13.1544 53.2456C12.4196 52.384 11.9599 50.9363 11.6699 49.7104C11.9582 49.8013 12.0911 49.8822 12.3377 49.6382C12.4751 49.2492 12.4585 48.4652 12.4916 47.9814Z" fill="#B0A695"/>
<path d="M15.672 44.5205C15.9662 45.2161 16.1608 45.6199 16.5169 46.2525C15.5914 46.2949 15.7916 47.0336 15.4012 47.935C15.4481 46.1193 15.1997 46.5643 15.672 44.5205Z" fill="url(#paint6_linear_4631_52620)"/>
<path d="M11.4844 43.8071C11.995 43.2252 13.0306 42.6409 13.6731 42.3447C13.4472 42.8389 13.2089 43.3507 13.1071 43.9232C12.4571 43.8732 12.1854 43.7818 11.4844 43.8071Z" fill="#B0A695"/>
<path d="M37.7829 44.3264C38.1611 44.1866 38.3452 44.1942 38.7323 44.1689C38.4995 44.488 38.1822 44.9004 37.9672 45.2258C37.5951 45.2522 37.169 45.2291 36.7988 45.1877C37.0014 44.9692 37.3806 44.6751 37.6132 44.4805L37.7829 44.3264Z" fill="#83827F"/>
<path d="M14.034 40.3795C13.7526 39.9487 13.3627 39.4347 13.5483 38.8136C13.9321 38.7974 14.8463 40.2403 15.3425 40.6375C22.3773 46.2694 33.3204 44.5226 40.3216 39.8124C40.5763 39.5989 40.6433 39.5641 40.9268 39.4178C41.2104 39.6734 41.3218 39.7501 41.5016 40.1424L41.6623 40.5068C37.4914 44.1692 32.5534 45.6985 27.624 46.0206C26.8791 46.0693 25.2677 46.1761 24.5811 45.9976C24.4332 45.7954 24.5864 45.0665 24.4956 44.7267C24.1144 44.5153 21.903 44.2172 21.5009 44.3451C21.2286 44.6571 21.3018 45.003 21.3036 45.4579C20.8537 45.6641 18.3765 44.5611 17.8001 44.3606C17.622 44.2986 17.2686 44.0143 17.105 43.8631C17.0082 43.5556 17.0036 43.3441 16.9735 43.0161C16.9594 43.4522 17.0104 43.3969 16.8554 43.7019C16.5155 43.7733 16.2613 43.4789 15.9501 43.2257C15.4781 42.8621 13.545 41.2551 13.7692 40.3695L14.034 40.3795Z" fill="#83827F"/>
<path d="M40.3221 39.8097C40.5768 39.5962 40.6438 39.5614 40.9273 39.415C41.2109 39.6706 41.3223 39.7474 41.5021 40.1397L41.6628 40.5041C37.4919 44.1665 32.5539 45.6958 27.6245 46.0179C26.8796 46.0665 25.2682 46.1733 24.5816 45.9948C24.4337 45.7926 24.5869 45.0638 24.4961 44.724C24.9384 44.7229 26.2217 44.6793 26.5979 44.7449C27.7557 44.745 29.2376 44.6308 30.3873 44.4313C31.1649 44.2093 32.0246 44.1115 32.8392 43.8825C35.1512 43.2327 38.7311 41.7265 40.7008 40.0328C40.5309 40.0205 40.4688 39.9348 40.3221 39.8097Z" fill="#575956"/>
<path d="M26.5977 44.7481C27.7555 44.7483 29.2374 44.634 30.3871 44.4346C30.0023 44.8623 29.0981 44.8112 28.587 44.8625C27.9959 44.9219 27.1805 44.9227 26.5977 44.7481Z" fill="#313935"/>
<path d="M40.3203 39.8097C40.575 39.5962 40.6421 39.5614 40.9256 39.415C41.2091 39.6706 41.3205 39.7474 41.5003 40.1397C41.4187 40.1563 40.9281 39.979 40.699 40.0328C40.5292 40.0205 40.467 39.9348 40.3203 39.8097Z" fill="#424748"/>
<path d="M17.1901 42.8525L17.3002 42.893C18.3636 43.2897 20.3902 44.4274 21.5 44.3422C21.2278 44.6541 21.3009 45.0001 21.3028 45.455C20.8529 45.6612 18.3757 44.5582 17.7992 44.3577C17.6212 44.2957 17.2678 44.0114 17.1042 43.8602C17.0073 43.5527 17.0027 43.3412 16.9727 43.0132L17.1901 42.8525Z" fill="url(#paint7_linear_4631_52620)"/>
<path d="M14.0328 40.3782C14.5657 41.0388 15.3866 42.0722 16.0832 42.3785C16.1132 42.5499 15.9868 42.9839 15.9489 43.2244C15.4769 42.8608 13.5438 41.2537 13.768 40.3682L14.0328 40.3782Z" fill="url(#paint8_linear_4631_52620)"/>
<path d="M16.0835 42.3778C16.5468 42.0798 16.7934 42.5462 17.1901 42.8535L16.9726 43.0141C16.9586 43.4502 17.0096 43.3949 16.8546 43.6999C16.5146 43.7713 16.2604 43.4769 15.9492 43.2237C15.9871 42.9832 16.1136 42.5492 16.0835 42.3778Z" fill="#313935"/>
<path d="M13.3695 44.8744C13.778 42.3296 13.7539 41.7367 15.4749 43.3572C15.2847 44.018 14.8459 45.4561 14.9507 46.1323C14.7144 46.6466 13.6836 46.6765 13.1934 46.8081C13.2109 46.1166 13.287 45.5582 13.3695 44.8744Z" fill="#65696C"/>
<path d="M13.3695 44.8682C13.9878 45.0379 14.6587 45.2673 14.9507 46.1261C14.7144 46.6404 13.6836 46.6703 13.1934 46.8019C13.2109 46.1104 13.287 45.552 13.3695 44.8682Z" fill="#A7A092"/>
<path d="M21.611 44.6182C22.1695 44.6301 22.7737 44.6473 23.3266 44.7348C23.6383 44.7841 23.9608 44.8473 24.1684 45.1919C24.2441 45.5017 24.1957 45.7247 24.1452 46.0311C23.3898 45.8795 22.3235 46.0344 21.6883 45.4135C21.5598 45.1478 21.5939 44.9179 21.611 44.6182Z" fill="#65696C"/>
<path d="M42.4148 38.001C42.754 38.3499 42.91 38.4207 43.2936 38.6378C42.8565 39.3668 42.2237 39.9558 41.6613 40.5091L41.5006 40.1447C41.3207 39.7524 41.2093 39.6756 40.9258 39.4201C41.4016 38.9879 41.9829 38.4904 42.4148 38.001Z" fill="#65696C"/>
<path d="M43.2603 39.7701L43.3009 39.7679C43.549 39.7522 43.8024 39.715 44.0371 39.8485C44.2718 39.9821 44.4856 40.2205 44.5714 40.5521C44.6807 40.9749 44.6027 41.4166 44.4684 41.8074C44.3086 41.7934 44.1833 41.7845 44.0343 41.6966C43.6864 41.4914 43.2725 40.9423 43.1541 40.4446C43.0854 40.1559 43.1566 40.0085 43.2603 39.7701Z" fill="#424748"/>
<path d="M13.8732 46.9637C14.0981 46.9412 14.3821 46.8761 14.6028 46.916C14.7861 46.949 14.8657 47.0374 14.9856 47.2163C14.988 47.363 15.0129 47.4033 14.9347 47.5224C14.7018 47.877 14.3005 47.8474 13.9757 47.8838C13.5953 47.9789 13.2789 48.1401 12.9341 47.838C12.9103 47.6736 12.8791 47.6457 12.9496 47.491C13.1426 47.0671 13.5413 47.0516 13.8732 46.9637Z" fill="#424748"/>
<path d="M14.4665 49.4479C14.4824 49.4448 14.4983 49.4369 14.5143 49.4387C14.6603 49.4557 14.6755 49.532 14.752 49.6822C14.7422 49.8551 14.747 50.0196 14.6722 50.1698C14.4084 50.6992 13.8021 50.7467 13.3772 50.8452C13.2513 50.7357 13.1615 50.5944 13.1012 50.4064C13.0347 50.1992 13.0616 50.1326 13.1236 49.9437C13.4984 49.5897 14.0238 49.5487 14.4665 49.4479Z" fill="#424748"/>
<path d="M14.3556 48.1587L14.6135 48.1455C14.6579 48.1927 14.7162 48.2476 14.7456 48.3137C14.8399 48.5249 14.8207 48.6588 14.7892 48.8813C14.5849 49.2239 13.9688 49.2889 13.653 49.3792C13.5823 49.3923 13.5581 49.4007 13.479 49.3934C13.2342 49.3709 13.174 49.3031 13.0293 49.0489C13.0487 48.9594 13.0647 48.8689 13.1006 48.7874C13.3265 48.2761 13.9687 48.2342 14.3556 48.1587Z" fill="#65696C"/>
<path d="M14.1149 50.9502L14.1635 50.9533L14.1914 51.0617C14.013 51.5618 13.8326 52.0453 13.489 52.3729C13.331 51.9707 13.2404 51.5198 13.1348 51.0885L14.1149 50.9502Z" fill="#424748"/>
<path d="M45.2089 32.708C45.395 32.7947 45.4535 32.7985 45.5733 33.0034C45.6244 33.4253 45.4743 33.8374 45.3721 34.2319C45.2007 34.1404 45.1075 34.0811 44.9753 33.8985C44.9054 33.5266 45.1088 33.058 45.2089 32.708Z" fill="#424748"/>
<path d="M45.3376 36.3955C45.3667 36.4138 45.3987 36.4255 45.4251 36.4504C45.5535 36.5714 45.5482 36.6674 45.5603 36.8573C45.4664 37.1745 45.3266 37.3611 45.1508 37.6025L45.0176 37.5315C44.9618 37.4327 44.9144 37.3949 44.9182 37.2619C44.9283 36.9038 45.159 36.6267 45.3376 36.3955Z" fill="#313935"/>
<path d="M12.8656 16.7599C18.8382 5.15404 33.3431 4.21054 41.6573 11.7425C43.2828 13.2152 44.9203 15.6017 45.7587 18.0099C45.5841 20.0372 45.2348 20.8444 44.4514 22.5454C44.3176 22.1768 44.1759 21.8135 44.0265 21.456C39.084 9.44088 21.442 7.96564 13.9545 16.03C13.5587 16.4562 12.912 17.3701 12.5098 17.6421L12.8656 16.7599Z" fill="#E8D9C1"/>
<path d="M39.3789 10.665C39.4499 10.675 39.4744 10.6748 39.5499 10.7052C40.361 11.0311 42.1277 13.5036 42.5558 14.5924C42.495 14.5768 42.3639 14.5342 42.3179 14.4823C42.1241 14.2637 41.9297 13.7778 41.7533 13.5045C41.0998 12.4918 40.2363 11.3593 39.3789 10.665Z" fill="#B0A695"/>
<path d="M12.1992 16.9431C17.9702 4.85987 33.0654 3.79703 41.5527 11.0118C44.1756 13.2414 46.553 17.0095 47.136 21.2014C47.2972 22.3645 47.284 22.6863 47.3322 23.8051C47.9601 24.1785 48.1098 24.2875 48.5747 25.0176C48.9191 27.3737 48.7371 30.34 47.3172 32.0762C47.0429 32.4116 46.6803 32.5979 46.3417 32.7966C45.5879 34.6265 45.7058 34.9364 47.1397 35.2469C48.5762 35.5579 50.3863 35.7501 50.8318 37.9868L50.6927 37.9003C50.5537 37.2878 49.8646 35.9557 49.2942 36.3099L49.2693 36.4815C48.4402 36.0769 46.758 35.4921 45.8983 35.5566L45.8582 35.5292C46.105 35.2833 46.2441 35.4991 46.4582 35.3268C46.2681 35.2329 45.9553 35.1074 45.8159 34.9408C45.5462 33.916 45.9929 32.7788 46.7473 32.3849L46.7242 32.285C46.2243 32.081 45.3715 32.6781 44.8459 32.3627L44.8421 32.2737C45.2078 32.1897 45.9983 32.2945 46.2205 32.0748L46.1548 31.9538C45.8081 31.3824 45.7711 30.5313 45.7134 29.8133C45.2096 29.8384 44.6865 29.8538 44.1897 29.7397C44.2346 28.5768 44.2764 28.0829 44.5295 26.977C44.8025 25.8311 45.3261 24.5334 46.2309 24.136C45.976 24.1407 45.9231 24.1671 45.7117 23.9698L44.7992 25.0164C44.7814 23.9144 44.7172 23.5973 44.4501 22.5465C45.2336 20.8454 45.5828 20.0383 45.7574 18.0109C44.9191 15.6027 43.2815 13.2162 41.656 11.7436C33.3419 4.21159 18.8369 5.15509 12.8643 16.761C12.5582 16.7086 12.4984 16.7779 12.1992 16.9431Z" fill="#1F221B"/>
<path d="M46.2307 24.1377C46.6357 24.2404 47.0238 24.313 47.4028 24.53L47.3958 24.6228C47.7127 24.7885 47.9441 24.8793 48.0799 25.3426C48.4769 26.6977 48.2086 28.4803 47.8639 29.8165C47.6792 30.5327 46.8998 32.4822 46.2192 31.8643L46.1546 31.9555C45.8078 31.384 45.7709 30.533 45.7132 29.815C45.2093 29.8401 44.6862 29.8555 44.1895 29.7413C44.2343 28.5785 44.2761 28.0846 44.5292 26.9787C44.8022 25.8328 45.3258 24.5351 46.2307 24.1377Z" fill="#B0A695"/>
<path d="M46.2307 24.1377C46.6357 24.2404 47.0238 24.313 47.4028 24.53L47.3958 24.6228C46.5387 25.4803 45.7413 27.9586 45.7486 29.3816L45.7132 29.815C45.2093 29.8401 44.6862 29.8555 44.1895 29.7413C44.2343 28.5785 44.2761 28.0846 44.5292 26.9787C44.8022 25.8328 45.3258 24.5351 46.2307 24.1377Z" fill="#E8D9C1"/>
<path d="M45.7484 29.3838L45.8478 29.4591C45.9126 30.8096 45.8049 30.5438 46.2189 31.8665L46.1543 31.9577C45.8075 31.3863 45.7706 30.5352 45.7129 29.8172L45.7484 29.3838Z" fill="#83827F"/>
<path d="M47.2859 26.7432C47.4046 26.7464 47.4829 26.7754 47.5957 26.8197C47.7804 27.0755 47.8149 27.3289 47.8182 27.6732C47.8269 28.5771 47.5562 29.7757 47.0945 30.4347C46.9969 30.4001 46.906 30.3445 46.8126 30.2937C46.6147 29.9992 46.5413 29.7516 46.5307 29.3508C46.5061 28.4268 46.8159 27.3993 47.2859 26.7432Z" fill="#313935"/>
<path d="M47.339 27.1025C47.3646 27.1176 47.3928 27.1263 47.4159 27.1478C47.5488 27.2716 47.5768 27.4904 47.586 27.6938C47.6198 28.44 47.3672 29.3847 47.02 29.9568C46.9855 29.93 46.9474 29.9102 46.9166 29.8762C46.8158 29.7651 46.7736 29.5482 46.7635 29.3821C46.7169 28.6225 46.9624 27.6636 47.339 27.1025Z" fill="#83827F"/>
<path d="M45.7584 18.0127C46.3935 19.7984 46.7669 21.7376 46.7211 23.7307C46.3191 23.7392 46.0516 23.6789 45.7127 23.9716L44.8002 25.0182C44.7824 23.9162 44.7182 23.599 44.4512 22.5482C45.2346 20.8472 45.5839 20.04 45.7584 18.0127Z" fill="#B0A695"/>
<path d="M11.1614 44.0869L11.3757 44.4C11.1998 46.5151 11.2622 47.6848 11.6713 49.7113C11.9613 50.9372 12.421 52.385 13.1558 53.2465L12.8637 53.5403C13.0743 53.9802 13.1563 54.4239 12.8136 54.8197L12.7794 55.1734C12.7321 55.5366 12.6646 56.1733 12.592 56.5048L12.5999 56.7853C12.7985 56.9678 12.8031 56.9005 13.099 56.9005L13.0851 56.9668L12.5993 56.9663C11.7955 56.9461 10.9582 56.9604 10.1515 56.9584L8.37709 56.9485L8.27795 56.955L7.81374 56.9545L7.24931 56.951L5.76367 56.9564L5.77417 56.8728L6.11564 55.8631C6.17683 55.7488 6.19544 55.6088 6.23022 55.4614C6.12459 54.9899 6.95643 53.0078 7.1752 52.4562L7.31956 52.185C7.35384 52.0928 7.54486 51.7275 7.59829 51.6204C7.67294 51.4585 7.74369 50.6137 7.77357 50.3542C7.9309 49.8757 8.01752 49.5581 8.24683 49.1303L8.41276 48.6802C8.51181 47.3573 10.3382 44.9465 11.0771 44.1266L11.1614 44.0869Z" fill="#E8D9C1"/>
<path d="M7.59829 51.6182C8.67358 53.0884 8.94197 53.5079 10.4607 54.2871C11.3656 54.8645 12.0433 54.8135 12.7794 55.1712C12.7321 55.5343 12.6646 56.1711 12.592 56.5025L12.5999 56.783C12.7985 56.9656 12.8031 56.8983 13.099 56.8983L13.0851 56.9646L12.5993 56.9641C11.7955 56.9438 10.9582 56.9582 10.1515 56.9562L8.37709 56.9463L8.27795 56.9527L7.81374 56.9522L7.24931 56.9488L5.76367 56.9542L5.77417 56.8706L6.11564 55.8609C6.17683 55.7466 6.19544 55.6066 6.23022 55.4591C6.12459 54.9877 6.95643 53.0055 7.1752 52.454L7.31956 52.1827C7.35384 52.0906 7.54486 51.7253 7.59829 51.6182Z" fill="#E8D9C1"/>
<path d="M7.1752 52.4541L7.25579 52.5624C7.701 53.1531 8.87172 54.0068 8.90749 54.5059C8.94019 54.9621 8.18326 56.4354 8.27795 56.9529L7.81374 56.9524L7.24931 56.9489L5.76367 56.9544L5.77417 56.8707L6.11564 55.861C6.17683 55.7467 6.19544 55.6067 6.23022 55.4593C6.12459 54.9878 6.95643 53.0057 7.1752 52.4541Z" fill="#E8D9C1"/>
<path d="M6.11564 55.8604C6.52537 56.2913 6.80608 56.5906 7.24931 56.9483L5.76367 56.9537L5.77417 56.8701L6.11564 55.8604Z" fill="#E8D9C1"/>
<path d="M6.22981 55.4619C6.76902 56.1278 7.17207 56.4697 7.81334 56.955L7.24891 56.9515C6.80568 56.5939 6.52497 56.2945 6.11523 55.8636C6.17643 55.7494 6.19503 55.6093 6.22981 55.4619Z" fill="#83827F"/>
<path d="M10.4592 54.29C11.3641 54.8674 12.0418 54.8164 12.7779 55.1741C12.7306 55.5373 12.6631 56.174 12.5905 56.5054L12.5984 56.7859C12.797 56.9685 12.8016 56.9012 13.0975 56.9012L13.0836 56.9675L12.5978 56.967C11.794 56.9467 10.9567 56.9611 10.15 56.9591C9.8164 56.4842 9.38059 55.8702 9.76628 55.2696C10.2073 55.0361 10.4566 55.2592 10.9073 55.4868C10.6522 55.0242 10.5266 54.8506 10.4592 54.29Z" fill="#B0A695"/>
<path d="M11.2051 55.4619C11.6614 55.7983 12.1503 56.1441 12.5915 56.5073L12.5994 56.7878C12.798 56.9703 12.8026 56.9031 13.0985 56.9031L13.0846 56.9694L12.5988 56.9689C11.918 56.4796 11.6794 56.2802 11.2051 55.4619Z" fill="#65696C"/>
<path d="M7.31819 52.1846L7.37835 52.2833C7.5898 52.6257 7.72951 52.8456 8.01388 53.1153C8.45874 53.537 9.17694 53.671 9.11366 54.5838C9.08556 54.9885 8.53562 56.6701 8.37572 56.9481L8.27658 56.9545C8.18189 56.4371 8.93882 54.9638 8.90612 54.5076C8.87035 54.0084 7.69963 53.1547 7.25442 52.5641L7.17383 52.4558L7.31819 52.1846Z" fill="#83827F"/>
<path d="M8.2462 49.1299C9.07774 50.854 9.86525 51.4883 11.2359 52.385C10.9983 52.9881 10.7827 53.4103 10.4968 53.9773C11.354 54.3805 11.9299 54.5566 12.8129 54.8193L12.7788 55.173C12.0427 54.8154 11.3649 54.8663 10.4601 54.289C8.94134 53.5098 8.67295 53.0902 7.59766 51.62C7.67231 51.4581 7.74306 50.6133 7.77294 50.3538C7.93026 49.8753 8.01689 49.5577 8.2462 49.1299Z" fill="#E8D9C1"/>
<path d="M7.59766 51.6227C7.67231 51.4607 7.74306 50.616 7.77294 50.3564C7.79495 50.6886 7.81464 51.1304 7.92532 51.4266C8.38541 52.6584 9.55945 53.5297 10.4968 53.9799C11.354 54.3831 11.9299 54.5593 12.8129 54.822L12.7788 55.1757C12.0427 54.818 11.3649 54.869 10.4601 54.2916C8.94134 53.5124 8.67295 53.0929 7.59766 51.6227Z" fill="#686658"/>
<path d="M11.8241 51.5283C12.1876 52.3475 12.3798 52.838 12.8624 53.5388C13.073 53.9786 13.155 54.4224 12.8123 54.8182C11.9293 54.5555 11.3533 54.3793 10.4961 53.9761C10.782 53.4092 10.9976 52.9869 11.2353 52.3838C11.5801 52.5894 11.7266 52.705 12.1116 52.7343L12.1782 52.6613C12.0602 52.4392 12.1253 52.5392 11.8886 52.4208L11.8241 51.5283Z" fill="#B0A695"/>
<path d="M11.1614 44.0869L11.3758 44.4C11.1999 46.5151 11.2622 47.6848 11.6714 49.7113C11.9613 50.9372 12.4211 52.385 13.1559 53.2465L12.8638 53.5403C12.3812 52.8396 12.189 52.349 11.8255 51.5299C11.2052 49.588 10.9956 48.1454 11.0263 46.0172C11.0347 45.4394 11.0901 44.7538 11.0791 44.2025L11.0771 44.1266L11.1614 44.0869Z" fill="#575956"/>
<path d="M8.41203 48.6807C9.23224 50.682 10.2918 51.6651 11.8892 52.4228C12.1259 52.5412 12.0608 52.4412 12.1788 52.6632L12.1122 52.7363C11.7272 52.707 11.5807 52.5914 11.2358 52.3858C9.86514 51.4891 9.07763 50.8548 8.24609 49.1307L8.41203 48.6807Z" fill="#83827F"/>
<path d="M12.2 16.9464C12.4992 16.7812 12.559 16.7119 12.8651 16.7643L12.5093 17.6465C12.4388 17.9352 12.3651 18.2226 12.2881 18.5083C11.769 19.4805 11.0128 21.1589 11.2972 22.3746C11.4666 22.6719 11.6652 22.9996 11.808 23.3166C11.9959 23.765 12.0936 23.9854 12.2242 24.4808C12.1298 24.74 12.0291 25.0077 11.9382 25.268C11.6015 26.6365 11.4593 28.0067 11.6719 29.4374C11.8213 30.5651 12.1381 31.0612 12.246 32.3527L12.2566 32.8709L12.1171 32.8065C12.0587 32.5543 12.0013 32.3436 11.9324 32.0984L11.9415 32.2402C11.7601 31.6052 11.4551 31.6147 11.0223 31.6153C9.87006 30.8241 9.64906 29.1659 9.64649 27.5614C9.6453 26.8184 9.83879 25.4133 10.1159 24.7734C10.2093 24.5576 10.861 23.7647 11.027 23.551C11.1427 22.8725 10.929 22.5144 10.6929 21.8797C10.8937 20.2093 11.5345 18.3794 12.2 16.9464Z" fill="#202520"/>
<path d="M10.7623 24.5159C11.0587 24.3288 11.3425 24.1015 11.659 24.2459C11.7465 24.3948 11.8236 24.4856 11.7568 24.6955C11.2948 26.1471 11.1998 27.24 11.2616 28.8281L11.206 29.0359C10.8731 29.1549 10.5098 29.0998 10.1592 29.0819C9.99308 27.4052 10.0317 25.9714 10.7623 24.5159Z" fill="#E8D9C1"/>
<path d="M11.2606 28.8291C11.2748 28.9039 11.3418 29.256 11.3373 29.3235C11.2998 29.8818 11.7735 30.8301 11.7548 31.2451C10.9718 31.8113 10.3227 29.8691 10.1582 29.0829C10.5088 29.1008 10.8721 29.1559 11.205 29.037L11.2606 28.8291Z" fill="#B0A695"/>
<path d="M13.5045 41.7393L13.6406 41.7461C13.4926 42.0942 10.9352 43.1452 10.7968 43.988L10.7934 43.9416C11.0502 44.0427 10.9419 44.0431 11.24 43.8259C11.2011 44.0328 11.2331 43.9493 11.1607 44.0867L11.0764 44.1264C10.3376 44.9463 8.51112 47.3571 8.41208 48.6801L8.24615 49.1301C8.01684 49.5579 7.93021 49.8755 7.77289 50.354C7.74301 50.6136 7.67226 51.4583 7.59761 51.6202C7.54417 51.7273 7.35316 52.0926 7.31888 52.1848L7.17451 52.456C6.95574 53.0076 6.12391 54.9897 6.22953 55.4612C6.19475 55.6086 6.17615 55.7486 6.11495 55.8629L5.77349 56.8727C5.57138 56.8652 5.51624 56.8628 5.31903 56.8123L5.24414 56.6416C5.58149 54.8675 6.22142 53.4195 6.73663 51.7927C8.16506 47.2823 9.7564 43.346 13.5045 41.7393Z" fill="#1F221B"/>
<path d="M11.0215 31.6143C11.4543 31.6137 11.7593 31.6042 11.9406 32.2392L11.9316 32.0974C12.0004 32.3426 12.0579 32.5533 12.1162 32.8055L12.2557 32.87C12.5085 34.4057 12.7291 35.7121 13.5249 36.9143L13.3533 36.9363C13.4282 37.2691 13.6734 37.7302 13.8435 37.9849L13.8302 38.1125L13.7747 38.0537C13.6098 37.8771 13.6002 37.911 13.5165 37.676C13.4082 38.0345 13.056 39.1748 13.1014 39.454C13.1555 39.7871 13.7533 41.2927 13.6051 41.4731C13.3241 40.9208 13.0292 39.6206 12.857 38.933L13.3597 38.1556C12.5493 36.1422 11.8222 34.299 11.7674 31.9443C11.4187 31.8458 11.3429 31.8177 11.0215 31.6143Z" fill="#1F221B"/>
<path d="M51 39.3291C51.2172 40.0097 51.3681 42.3063 51.0465 42.9226C51.0801 41.6546 51.044 40.5939 51 39.3291Z" fill="#222A2E"/>
</g>
<defs>
<linearGradient id="paint0_linear_4631_52620" x1="25.9877" y1="12.5148" x2="25.9876" y2="12.8842" gradientUnits="userSpaceOnUse">
<stop stop-color="#959391"/>
<stop offset="1" stop-color="#B5B3B0"/>
</linearGradient>
<linearGradient id="paint1_linear_4631_52620" x1="12.1911" y1="19.872" x2="12.4025" y2="20.0709" gradientUnits="userSpaceOnUse">
<stop stop-color="#868480"/>
<stop offset="1" stop-color="#A5A6A4"/>
</linearGradient>
<linearGradient id="paint2_linear_4631_52620" x1="12.5441" y1="21.834" x2="13.7976" y2="25.4372" gradientUnits="userSpaceOnUse">
<stop stop-color="#40474D"/>
<stop offset="1" stop-color="#5F6367"/>
</linearGradient>
<linearGradient id="paint3_linear_4631_52620" x1="13.6221" y1="30.4325" x2="12.9454" y2="32.1527" gradientUnits="userSpaceOnUse">
<stop stop-color="#6E7277"/>
<stop offset="1" stop-color="#9EA19E"/>
</linearGradient>
<linearGradient id="paint4_linear_4631_52620" x1="23.9855" y1="23.2359" x2="18.8897" y2="17.6169" gradientUnits="userSpaceOnUse">
<stop stop-color="#111514"/>
<stop offset="1" stop-color="#2A2F32"/>
</linearGradient>
<linearGradient id="paint5_linear_4631_52620" x1="17.3026" y1="53.4924" x2="17.1302" y2="52.3438" gradientUnits="userSpaceOnUse">
<stop stop-color="#1C2123"/>
<stop offset="1" stop-color="#575F63"/>
</linearGradient>
<linearGradient id="paint6_linear_4631_52620" x1="15.9895" y1="46.011" x2="15.4646" y2="45.7904" gradientUnits="userSpaceOnUse">
<stop stop-color="#85827E"/>
<stop offset="1" stop-color="#ABAAA7"/>
</linearGradient>
<linearGradient id="paint7_linear_4631_52620" x1="19.2398" y1="43.6038" x2="19.0324" y2="44.6864" gradientUnits="userSpaceOnUse">
<stop stop-color="#3C4146"/>
<stop offset="1" stop-color="#656A6E"/>
</linearGradient>
<linearGradient id="paint8_linear_4631_52620" x1="15.0118" y1="41.3731" x2="14.7009" y2="41.9297" gradientUnits="userSpaceOnUse">
<stop stop-color="#262B30"/>
<stop offset="1" stop-color="#51595C"/>
</linearGradient>
<clipPath id="clip0_4631_52620">
<rect width="57" height="57" rx="28.5" fill="white"/>
</clipPath>
</defs>
</svg>
