<svg width="57" height="57" viewBox="0 0 57 57" fill="none" xmlns="http://www.w3.org/2000/svg">
<rect width="57" height="57" rx="28.5" fill="#F6F6FE"/>
<path d="M37.5726 16.7756C37.5726 16.8265 37.5669 16.8831 37.5669 16.934C37.5556 16.9849 37.5386 17.0414 37.5273 17.0923C37.4368 18.382 36.8712 19.4623 36.0228 20.3673C37.4198 21.9171 38.8 23.4443 40.1801 24.9715C40.5477 24.0439 40.8928 23.0993 41.2887 22.1716C42.3691 19.6207 43.9245 17.4204 46.1304 15.7066C47.4257 14.6998 48.8398 13.9248 50.4688 13.6138C51.0966 13.495 51.7358 13.5685 52.324 13.8683C52.9406 14.185 53.2686 14.6998 53.3591 15.3785C53.3648 15.4294 53.3761 15.486 53.3817 15.5369C53.3817 15.5878 53.3874 15.6387 53.3874 15.6896C53.4044 15.7405 53.4213 15.7971 53.4383 15.848C53.4383 16.1082 53.4383 16.3683 53.444 16.6285C53.427 16.6851 53.4157 16.736 53.3987 16.7926C53.3931 16.8774 53.3874 16.9679 53.3874 17.0527C53.3817 17.1037 53.3704 17.1546 53.3648 17.2055C53.3365 17.4261 53.3195 17.6523 53.2743 17.8729C53.0537 18.8458 52.8161 19.8073 52.505 20.7632C51.9111 22.5902 51.1475 24.3267 50.1747 25.9726C49.5525 27.0247 48.8624 28.0258 47.9744 28.8856C47.6067 29.2419 47.6067 29.3155 47.9518 29.7114C49.5977 31.5836 50.8251 33.7047 51.6453 36.0464C52.0242 37.1267 52.3523 38.2297 52.6125 39.344C52.8274 40.2659 52.8783 41.2332 52.6634 42.1664C52.4767 42.9922 51.9224 43.5352 51.091 43.7672C50.4914 43.7728 49.8862 43.7728 49.2866 43.7785C48.6248 43.8067 48.0536 43.4957 47.4766 43.2581C45.6723 42.5228 44.2639 41.2841 43.0874 39.7512C42.2446 38.6539 41.662 37.4152 41.0851 36.1765C40.8419 35.6504 40.7401 35.0565 40.5534 34.4061C39.326 36.0294 38.0703 37.5 36.5205 38.7218C37.3689 39.2252 38.1042 39.7852 38.4493 40.7184C38.4549 40.758 38.4606 40.7976 38.4662 40.8316C38.4662 40.9843 38.4662 41.1313 38.4662 41.2841C38.4606 41.3237 38.4549 41.3576 38.4493 41.3972C38.1721 42.3531 36.775 42.8169 35.7173 42.6076C35.508 42.568 35.2931 42.5511 35.0838 42.5228C35.2761 43.2355 35.4515 43.8916 35.6325 44.5534C35.6381 44.5986 35.6494 44.6439 35.6551 44.6891C35.6042 45.1699 35.5476 45.645 35.5024 46.1258C35.3893 47.2684 34.62 47.8849 33.6641 48.2639C32.7817 48.6089 31.8541 48.6259 30.8982 48.4675C28.7884 48.1111 27.2952 46.8724 26.0169 45.2717C25.604 44.757 25.3721 44.1518 25.0383 43.5126C24.518 43.5635 23.9919 43.6201 23.4603 43.671C23.3302 43.6823 23.1944 43.6767 23.0643 43.6823C22.7532 43.7049 22.4478 43.7276 22.1367 43.7502C21.5202 43.7502 20.898 43.7502 20.2079 43.7502C20.4738 44.8418 20.6265 45.8826 20.5812 46.9403C20.5756 46.9799 20.5699 47.0251 20.5643 47.0647C20.4625 47.4437 20.3776 47.8283 20.2475 48.196C19.959 49.0218 19.3369 49.4573 18.4941 49.5422C17.787 49.6157 17.0913 49.5422 16.4182 49.2367C14.6139 48.4279 13.5336 47.0308 12.9906 45.1699C12.9227 44.9436 12.9001 44.7004 12.8605 44.4629C12.8548 44.4233 12.8492 44.378 12.8435 44.3384C12.8378 44.197 12.8322 44.05 12.8265 43.9086C12.8096 43.8633 12.7926 43.8124 12.7756 43.7672C12.8096 43.3429 12.8435 42.9131 12.8774 42.4719C12.4589 42.2739 12.0686 42.0759 11.667 41.9062C10.4 41.3633 9.25179 40.6223 8.1771 39.7512C6.97798 38.7784 6.0843 37.5736 5.43383 36.1878C5.20192 35.7014 5.04355 35.1866 5.03223 34.638C5.02092 34.5927 5.00961 34.5475 5.00395 34.5022C5.00395 34.2816 5.00961 34.0667 5.00961 33.8461C4.98699 33.7726 4.96436 33.7047 4.93608 33.6312C4.30258 33.2352 3.65777 32.8619 3.10912 32.3472C2.27765 31.5667 1.95524 30.639 2.17018 29.5247C2.35118 28.5858 2.82065 27.8109 3.57858 27.2453C4.0933 26.8607 4.29692 26.312 4.52317 25.769C4.9587 24.7339 5.43383 23.7214 5.9938 22.7486C7.2212 20.6105 8.7201 18.7044 10.6772 17.1715C12.1704 16.0063 13.8503 15.2258 15.6377 14.6545C16.1863 14.4792 16.7746 14.4169 17.3402 14.2982C17.5099 13.8683 17.6456 13.461 17.8323 13.0708C19.1502 10.3105 21.1412 8.18943 23.8562 6.75274C24.7103 6.30024 25.6322 6.04005 26.5599 5.80815C26.7748 5.75159 27.0067 5.77987 27.233 5.76855C27.4536 5.77421 27.6798 5.77421 27.9004 5.77987C28.4151 5.91562 28.9581 5.98915 29.4332 6.20409C30.3552 6.6283 30.6663 7.34099 30.4457 8.33649C30.3665 8.69849 30.2308 9.04352 30.1176 9.42248C30.819 9.3433 31.4865 9.00958 32.2105 9.04917C32.431 9.04917 32.6573 9.04352 32.8779 9.04352C33.3078 9.14533 33.7546 9.20755 34.1675 9.35461C35.1121 9.68833 35.5476 10.4123 35.6098 11.4191C35.6551 12.1827 35.3553 12.8332 35.1008 13.5685C35.7343 13.8513 36.4187 14.0549 36.8429 14.6771C37.2502 15.2767 37.516 15.9158 37.5499 16.6398C37.5443 16.6738 37.5556 16.7247 37.5726 16.7756ZM40.429 33.1278C40.4686 33.0882 40.5025 33.0542 40.5421 33.0146C40.576 32.9751 40.61 32.9411 40.6496 32.9015V32.8902C40.9041 32.9411 41.153 32.992 41.4075 33.0429C41.1869 33.354 41.1473 33.7273 41.2491 34.0554C41.5036 34.8642 41.8204 35.6505 42.1145 36.448C42.2842 36.7987 42.4369 37.1607 42.6236 37.5C43.7718 39.6155 45.3046 41.3463 47.5445 42.3587C48.4438 42.766 49.3941 42.9922 50.3839 42.9922C51.1702 42.9922 51.6623 42.6359 51.781 41.878C51.8715 41.2954 51.8828 40.6732 51.8093 40.0906C51.5152 37.8507 50.7573 35.7523 49.6882 33.7669C49.0151 32.5282 48.3138 31.3008 47.2051 30.3788C47.0581 30.2601 46.9959 30.0395 46.894 29.8698C46.8658 29.7793 46.8375 29.6944 46.8092 29.6039C46.8035 29.4738 46.8035 29.3494 46.7979 29.2193C46.8375 29.1005 46.8714 28.9818 46.911 28.863H46.9167C46.9902 28.7555 47.0637 28.648 47.1373 28.5406L47.1429 28.5349C47.1825 28.4953 47.2164 28.4614 47.256 28.4218V28.4274C47.3183 28.3822 47.3861 28.3313 47.4484 28.286C47.6576 28.0428 47.8895 27.8166 48.0762 27.562C48.9699 26.329 49.7957 25.0563 50.4292 23.6592C51.2946 21.7531 52.1374 19.8526 52.3976 17.7485C52.4767 17.115 52.5333 16.4758 52.5333 15.8423C52.5333 14.9769 52.0695 14.5301 51.1984 14.5018C50.9552 14.4961 50.712 14.5301 50.4688 14.564C49.0378 14.7676 47.8669 15.5312 46.7583 16.3797C44.7843 17.8899 43.2741 19.7904 42.2503 22.0642C42.0127 22.5676 41.7638 23.0597 41.5489 23.5744C41.334 24.0891 41.2039 24.6434 40.9493 25.1355C40.8306 25.3674 40.7853 25.571 40.7966 25.8086C40.5647 25.9896 40.3045 26.0858 40.0047 26.0235C39.8577 25.8821 39.6993 25.752 39.5636 25.5993C38.783 24.6943 38.0251 23.761 37.2275 22.873C36.628 22.2056 35.9775 21.589 35.3497 20.9442C35.2761 20.6275 35.2026 20.3107 35.1234 19.977C35.2083 19.9374 35.344 19.8809 35.4741 19.8243C35.7399 19.4849 36.0454 19.1682 36.2603 18.7949C36.8316 17.8163 36.9391 16.7756 36.5318 15.7122C36.2603 14.9939 35.7343 14.547 34.9368 14.4622C34.6426 14.4283 34.3485 14.3717 34.0035 14.3151C34.094 13.9814 34.1788 13.676 34.2637 13.3762C34.2976 13.2687 34.3315 13.1669 34.3655 13.0594C34.4334 12.8954 34.4956 12.7314 34.5634 12.5674C34.637 12.2563 34.7275 11.9508 34.7784 11.6397C34.8972 10.8818 34.7218 10.3614 33.6754 10.0277C32.9854 9.80711 32.2727 9.76186 31.5713 9.92589C30.8643 10.0956 30.1742 10.3275 29.4728 10.5311C29.4389 10.5368 29.4106 10.5424 29.3767 10.5481H29.371C29.207 10.5028 29.0373 10.4745 28.8902 10.4067C28.8054 10.3671 28.7488 10.2653 28.681 10.1861C28.7601 10.056 28.8337 9.92589 28.9185 9.80145C29.2353 9.30936 29.4785 8.79464 29.6255 8.21771C29.8235 7.43715 29.5011 7.10343 28.9298 6.81496C28.7828 6.74143 28.6131 6.69618 28.4491 6.66224C27.1594 6.38509 25.9377 6.67921 24.7668 7.1713C23.4263 7.73693 22.2442 8.57405 21.1808 9.5752C19.9873 10.7008 19.1559 12.0866 18.33 13.4723C18.2452 13.6194 18.2113 13.8004 18.1547 13.9644C18.2678 13.9984 18.3018 14.0267 18.3357 14.021C19.1785 13.9871 20.0213 13.9588 20.864 13.8966C21.0054 13.8853 21.1638 13.7552 21.26 13.6364C21.6503 13.1556 22.0123 12.6522 22.3969 12.1658C22.9625 11.4418 23.5564 10.7404 24.3087 10.1917C24.337 10.1635 24.3652 10.1295 24.3935 10.1012L24.4105 10.0899C24.5745 10.0899 24.7386 10.0899 24.9026 10.0899C24.8234 10.1861 24.7386 10.2879 24.6537 10.384C24.2182 10.8761 23.777 11.3682 23.3358 11.8603C23.3019 11.8943 23.2736 11.9339 23.2397 11.9678C23.2001 12.013 23.1548 12.0639 23.1152 12.1092C22.6231 12.6296 22.1537 13.1726 21.8878 13.8739C22.2838 13.9192 22.6175 13.9588 22.9455 13.9984C23.6469 14.0889 24.3539 14.185 25.0553 14.2812C25.2024 14.3095 25.3494 14.3378 25.5022 14.3717C26.3449 14.6262 27.1877 14.8808 28.0192 15.1353C28.5452 14.6262 29.0543 14.1002 29.6029 13.6251C30.095 13.2009 30.638 12.8275 31.1584 12.4316C31.164 12.5504 31.1641 12.6748 31.1697 12.7936C30.9944 12.952 30.8077 13.0934 30.6437 13.2631C30.3495 13.5742 30.0667 13.9022 29.7839 14.2246L29.7952 14.2359C29.6369 14.3491 29.4785 14.4622 29.3201 14.581C29.0599 14.8129 28.7997 15.0448 28.4943 15.3276C29.3767 15.8027 30.1572 16.2213 30.9321 16.6455C31.0566 16.9509 31.2489 17.1489 31.6109 17.0867C32.1426 17.46 32.6743 17.8333 33.2059 18.2066C33.1607 18.4612 33.1211 18.71 33.0759 18.9646C33.0419 18.9419 33.008 18.9193 32.974 18.8967C32.9005 18.8571 32.8326 18.8118 32.7591 18.7722C32.3519 18.5007 31.9503 18.2236 31.543 17.9577C30.2986 17.1432 28.9807 16.4702 27.5893 15.9328C25.9716 15.3106 24.303 14.9147 22.5666 14.7789C21.6276 14.7054 20.6944 14.6771 19.7554 14.745C18.5959 14.8016 17.4533 14.9599 16.3277 15.2767C13.5222 16.0629 11.0957 17.4487 9.15563 19.6546C7.36261 21.6852 6.00511 23.9647 5.14536 26.5326C4.97002 27.053 4.69852 27.4772 4.24036 27.7883C3.79352 28.0881 3.4598 28.4953 3.2279 28.9704C2.73581 29.9603 2.75843 30.8766 3.61252 31.6967C3.85574 31.9286 4.11027 32.1606 4.39308 32.3472C5.6318 33.1617 7.03454 33.5237 8.48254 33.6821C10.2247 33.8744 11.8819 33.4276 13.494 32.8167C13.5732 32.7884 13.641 32.7205 13.7372 32.6526C13.5618 32.5395 13.4091 32.4434 13.2112 32.3133C13.4374 32.2511 13.5901 32.1945 13.7485 32.1662C14.2349 32.0757 14.6761 32.2115 15.0721 32.4886C15.4454 32.7488 15.3605 33.1391 15.3436 33.5124C15.3379 33.5972 15.3266 33.6764 15.3153 33.7839C15.0947 33.6199 14.9137 33.4785 14.7383 33.3427C14.6761 33.3993 14.6592 33.4049 14.6478 33.4219C14.6082 33.5067 14.563 33.5859 14.5347 33.6764C14.1331 34.9321 13.313 35.8597 12.2496 36.5894C10.943 37.4887 9.16129 37.5962 7.88298 36.1086C7.70198 35.8937 7.55492 35.6505 7.39089 35.4242C7.30039 35.0679 7.21554 34.7059 7.11939 34.3382C6.74608 34.2477 6.37276 34.1515 5.96551 34.0497C5.93723 34.4683 5.84108 34.8303 6.03339 35.1866C6.07298 35.3676 6.09561 35.5543 6.15217 35.7296C6.60467 37.0815 7.50401 38.1109 8.55607 39.0272C9.00857 39.4967 9.51763 39.8813 10.0776 40.2207C10.9769 40.7637 11.8876 41.2558 12.8831 41.6121C14.2293 42.0986 15.6094 42.421 17.0178 42.6529C17.425 42.7207 17.838 42.7377 18.2452 42.7773C18.5563 42.8169 18.8674 42.8622 19.1785 42.9017C20.7905 43.0941 22.3969 43.0036 24.0033 42.8678C24.2352 42.8452 24.4671 42.7773 24.7273 42.7264C24.6311 42.3022 24.5236 41.9232 24.4558 41.5386C24.3653 41.0465 24.3143 40.5488 24.484 40.0567C24.5915 40.0963 24.6933 40.1415 24.8008 40.1811C25.0044 40.8655 25.2024 41.5499 25.4117 42.2287C25.8811 43.7728 26.7182 45.0964 27.9343 46.1597C29.3031 47.3589 30.8982 47.9019 32.7139 47.636C33.732 47.489 34.5917 46.946 34.6879 45.7468C34.7218 45.3226 34.6935 44.8927 34.6935 44.4685C34.7049 44.4572 34.7275 44.4346 34.7218 44.4289C34.7105 44.4007 34.6935 44.3724 34.6766 44.3497C34.6596 44.2083 34.6426 44.0726 34.62 43.9312C34.8067 43.7672 34.9481 43.6088 34.8236 43.3147C34.6879 42.9866 34.7162 42.9753 34.3089 42.8452C34.2806 42.8339 34.258 42.7943 34.2297 42.766C34.1449 42.5793 34.06 42.3927 33.9809 42.2004C34.0487 41.9176 34.1449 41.7139 34.5182 41.8214C34.6596 41.861 34.8406 41.7705 35.0046 41.7422C35.0782 41.7479 35.146 41.7535 35.2196 41.7592C35.3384 41.7931 35.4571 41.8214 35.5759 41.8553C35.6099 41.8553 35.6438 41.861 35.6721 41.8667C35.9379 42.0363 36.2038 42.042 36.4753 41.878C36.7581 41.7875 37.0635 41.7366 37.318 41.5952C37.7196 41.3689 37.8101 40.939 37.499 40.5997C37.0126 40.0623 36.4696 39.5759 35.7795 39.2874C35.5929 39.4062 35.4232 39.5306 35.2479 39.6268C34.8067 39.8643 34.3542 40.0963 33.9073 40.3282C33.6641 40.2773 33.3643 40.3112 33.3474 39.9379C33.4435 39.8643 33.5453 39.7852 33.6415 39.7116C34.7162 39.129 35.7399 38.4673 36.6223 37.6245C37.9233 36.3745 39.1393 35.0509 40.1066 33.5181C40.1744 33.4332 40.2366 33.3484 40.3045 33.2692L40.3102 33.2748C40.3498 33.2013 40.3894 33.1617 40.429 33.1278ZM10.6885 36.4423C11.4521 36.2444 12.1082 35.8597 12.6512 35.2885C13.1093 34.8586 13.4827 34.3665 13.7994 33.6877C12.917 33.9423 12.1648 34.1685 11.4917 34.5701C11.0505 34.8303 10.6489 35.164 10.2303 35.4694C10.1964 35.4864 10.1624 35.5034 10.1285 35.5204C9.8061 35.724 9.48369 35.922 9.07079 36.1821C9.67035 36.3745 10.1228 36.7025 10.6885 36.4423ZM15.7565 43.2355C15.6546 43.2185 15.5472 43.2072 15.4454 43.1902C15.3662 43.1619 15.287 43.1337 15.2078 43.1054C14.7044 42.9866 14.201 42.8735 13.6976 42.7547C13.6637 42.8622 13.6297 42.9187 13.6297 42.9696C13.6297 43.3656 13.6184 43.7615 13.6354 44.1518C13.7372 46.1145 14.9985 47.8453 16.8085 48.5693C17.4024 48.8069 18.0246 48.8012 18.6411 48.7333C18.9749 48.6994 19.2294 48.4845 19.3878 48.1847C19.4839 48.0037 19.5631 47.8057 19.614 47.6077C19.8912 46.4086 19.7724 45.2208 19.4726 44.0443C19.416 43.8181 19.252 43.6936 19.0258 43.6653C18.5959 43.6144 18.166 43.5862 17.7418 43.5296C17.2441 43.4674 16.7406 43.3938 16.2429 43.3203C16.0845 43.3033 15.9205 43.2694 15.7565 43.2355Z" fill="#31221A"/>
<path d="M49.2578 43.7721C49.8574 43.7664 50.4626 43.7664 51.0622 43.7607C50.4626 43.9531 49.8574 43.9361 49.2578 43.7721Z" fill="#5D5D59"/>
<path d="M22.1133 43.7378C22.4244 43.7152 22.7298 43.6925 23.0409 43.6699C22.7298 43.6869 22.4244 43.7095 22.1133 43.7378Z" fill="#5D5D59"/>
<path d="M27.8784 5.75609C27.6578 5.75043 27.4315 5.75043 27.2109 5.74477C27.4315 5.61468 27.6578 5.60902 27.8784 5.75609Z" fill="#E6A872"/>
<path d="M32.8608 9.0251C32.6402 9.0251 32.414 9.03076 32.1934 9.03076C32.414 8.8837 32.6345 8.88935 32.8608 9.0251Z" fill="#E6A872"/>
<path d="M53.3418 17.2025C53.3475 17.1516 53.3588 17.1007 53.3644 17.0498C53.3531 17.1007 53.3475 17.1516 53.3418 17.2025Z" fill="#5D5D59"/>
<path d="M37.5215 17.0929C37.5328 17.042 37.5498 16.9855 37.5611 16.9346C37.5498 16.9855 37.5385 17.042 37.5215 17.0929Z" fill="#B2AFA6"/>
<path d="M53.377 16.7929C53.3939 16.7364 53.4052 16.6855 53.4222 16.6289C53.4109 16.6798 53.3939 16.7364 53.377 16.7929Z" fill="#5D5D59"/>
<path d="M37.5728 16.7736C37.5615 16.7227 37.5445 16.6718 37.5332 16.6152C37.5445 16.6718 37.5558 16.7227 37.5728 16.7736Z" fill="#B2AFA6"/>
<path d="M53.422 15.841C53.405 15.7901 53.3881 15.7335 53.3711 15.6826C53.3881 15.7392 53.405 15.7901 53.422 15.841Z" fill="#5D5D59"/>
<path d="M53.3644 15.5353C53.3588 15.4844 53.3475 15.4279 53.3418 15.377C53.3475 15.4279 53.3588 15.4788 53.3644 15.5353Z" fill="#5D5D59"/>
<path d="M38.4388 40.8299C38.4332 40.7903 38.4275 40.7507 38.4219 40.7168C38.4388 40.7451 38.4615 40.7677 38.4728 40.796C38.4784 40.796 38.4502 40.813 38.4388 40.8299Z" fill="#E6DED1"/>
<path d="M38.4219 41.3895C38.4275 41.3499 38.4332 41.316 38.4388 41.2764C38.4445 41.3046 38.4615 41.3329 38.4615 41.3612C38.4671 41.3725 38.4388 41.3838 38.4219 41.3895Z" fill="#E6DED1"/>
<path d="M12.748 43.748C12.765 43.7933 12.782 43.8442 12.799 43.8895C12.7876 43.8442 12.7707 43.799 12.748 43.748Z" fill="#B2AFA6"/>
<path d="M12.82 44.3271C12.8256 44.3667 12.8313 44.412 12.8369 44.4516C12.82 44.4233 12.803 44.395 12.7917 44.3611C12.7804 44.3554 12.8087 44.3385 12.82 44.3271Z" fill="#B2AFA6"/>
<path d="M20.541 47.0483C20.5467 47.0087 20.5523 46.9634 20.558 46.9238C20.5636 46.9521 20.575 46.986 20.575 47.0143C20.5806 47.0313 20.5523 47.037 20.541 47.0483Z" fill="#B2AFA6"/>
<path d="M7.39149 35.4126C7.55552 35.6445 7.70258 35.8877 7.88358 36.097C9.16189 37.5903 10.9436 37.4771 12.2502 36.5778C13.3136 35.8481 14.1337 34.9205 14.5353 33.6648C14.5636 33.5743 14.6088 33.4951 14.6484 33.4103C14.6541 33.3933 14.6767 33.3877 14.7389 33.3311C14.9143 33.4669 15.1009 33.6026 15.3159 33.7723C15.3272 33.6705 15.3385 33.5856 15.3442 33.5008C15.3611 33.1331 15.446 32.7429 15.0727 32.477C14.6767 32.1999 14.2355 32.0641 13.7491 32.1546C13.5907 32.1829 13.438 32.2395 13.2118 32.3017C13.4154 32.4318 13.5624 32.5279 13.7378 32.641C13.6416 32.7033 13.5794 32.7711 13.4946 32.8051C11.8825 33.4159 10.2253 33.8628 8.48314 33.6705C7.03514 33.5121 5.6324 33.1501 4.39368 32.3356C4.11087 32.149 3.85633 31.9227 3.61312 31.6851C2.75902 30.865 2.7364 29.9487 3.2285 28.9588C3.46606 28.4894 3.79977 28.0765 4.24096 27.7767C4.69912 27.4656 4.97062 27.0414 5.14596 26.521C6.01136 23.9531 7.36886 21.6736 9.15623 19.643C11.0963 17.4427 13.5228 16.057 16.3283 15.2651C17.4539 14.9483 18.5965 14.79 19.756 14.7334C20.7119 15.1972 21.6 15.7685 22.4484 16.3907C22.9009 16.9902 23.3873 17.5672 23.8059 18.1894C25.4236 20.5593 26.3851 23.1668 26.6793 26.0346C26.8772 27.9916 26.7698 29.9147 26.3399 31.8322C26.0514 33.1275 25.5763 34.3549 25.0898 35.5823C25.0389 35.7124 24.9258 35.8255 24.841 35.9443C24.7731 36.1083 24.7052 36.2723 24.6374 36.4364C24.5469 36.6117 24.4564 36.7927 24.3715 36.9681C24.298 37.0473 24.2075 37.1151 24.1453 37.2C23.8738 37.5959 23.6192 38.0088 23.3364 38.3934C23.0875 38.7328 22.816 39.0552 22.5445 39.3776C22.2957 39.6717 22.0298 39.9546 21.7696 40.243C21.187 40.3675 20.6045 40.5032 20.0162 40.6163C19.7051 40.6786 19.3884 40.7577 19.0716 40.7464C18.4777 40.7238 17.8838 40.6107 17.2842 40.5881C16.1587 40.5485 15.0331 40.6616 13.9188 40.3618C12.9685 40.1073 11.9448 40.1978 11.0454 39.7113C11.0002 39.6887 10.9323 39.6774 10.8814 39.6831C10.378 39.734 9.99901 39.4738 9.59176 39.2362C9.28633 39.0609 8.95261 38.8177 8.54536 38.993C7.4933 38.0767 6.59396 37.0473 6.14146 35.6954C6.0849 35.5201 6.06227 35.3334 6.02268 35.1524C6.22064 35.1863 6.41861 35.2203 6.61658 35.2542C6.88808 35.3164 7.13695 35.3673 7.39149 35.4126ZM16.1247 19.7618C16.5037 19.7618 16.8826 19.7674 17.2616 19.7674C17.946 19.8919 18.5286 20.2086 19.0433 20.6724C19.1678 20.7856 19.2696 20.9553 19.5128 20.9383C19.4336 20.7403 19.377 20.5819 19.3035 20.4292C18.851 19.462 17.799 18.8002 16.7865 18.8794C16.1134 18.9303 15.6383 19.3093 15.1688 19.9484C15.5761 19.8693 15.8532 19.8127 16.1247 19.7618ZM13.5285 27.7088C13.7378 28.874 14.3373 29.7677 15.3272 30.4238C16.2944 31.063 17.3182 31.1817 18.3646 30.7066C19.4789 30.1975 20.2198 29.3321 20.5649 28.133C20.9325 26.8434 20.7741 25.599 20.2425 24.3999C19.92 23.6759 19.4562 23.0311 18.7775 22.5729C17.8046 21.9168 16.7582 21.8094 15.7457 22.3806C14.3939 23.1386 13.6529 24.3377 13.4946 25.8818C13.3475 26.3852 13.3418 26.8887 13.5002 27.3921C13.5059 27.4599 13.5059 27.5222 13.5115 27.59C13.5002 27.6013 13.4833 27.6183 13.4889 27.6296C13.4946 27.6579 13.5115 27.6805 13.5285 27.7088Z" fill="#F26C40"/>
<path d="M22.4599 16.4052C21.6059 15.7774 20.7178 15.2061 19.7676 14.7479C20.7065 14.6801 21.6341 14.714 22.5787 14.7819C24.3208 14.912 25.9838 15.3079 27.6015 15.9357C28.9929 16.4731 30.3108 17.1405 31.5552 17.9607C31.9624 18.2265 32.364 18.5037 32.7713 18.7752C32.8448 18.8148 32.9127 18.86 32.9862 18.8996C33.0201 18.9222 33.0541 18.9449 33.088 18.9675C33.846 19.6236 34.6039 20.2797 35.3562 20.9415C35.984 21.5807 36.6401 22.2029 37.234 22.8703C38.0316 23.7583 38.7895 24.6859 39.5701 25.5966C39.7002 25.7493 39.8642 25.8794 40.0113 26.0208C40.6674 26.8749 41.2104 27.7629 41.4536 28.8489C41.6007 29.5107 41.5837 30.1329 41.5102 30.7777C41.4197 31.5639 41.052 32.2314 40.6561 32.8931V32.9045C40.6221 32.944 40.5882 32.978 40.5486 33.0176C40.509 33.0572 40.4751 33.0911 40.4355 33.1307C40.3959 33.1703 40.3619 33.2042 40.3223 33.2438L40.3167 33.2382C40.2488 33.2438 40.1809 33.2551 40.1187 33.2608C39.8076 33.0006 40.1413 32.797 40.1922 32.4972C40.0395 32.4576 39.8585 32.3445 39.7397 32.3897C39.5078 32.4802 39.2703 32.6273 39.0949 32.8083C38.8404 33.0798 38.6707 33.4361 38.4049 33.6907C37.6696 34.3751 36.9003 35.0199 36.1537 35.6873C35.8765 35.9362 35.639 36.2247 35.3562 36.4622C35.096 36.6828 34.8867 36.9826 34.3946 37.0901C34.5586 36.745 34.6661 36.4792 34.8019 36.2303C35.1469 35.6138 34.9772 34.9011 34.3776 34.5221C34.2871 34.4656 34.1627 34.4599 33.976 34.4147C34.4908 35.2857 34.4399 36.0324 33.795 36.7054C33.5405 36.9713 33.2351 37.1919 32.9636 37.4464C32.5733 37.8084 32.0755 38.0629 31.8323 38.5777C31.6909 38.4928 31.5495 38.4023 31.4025 38.3175C30.4126 37.7518 29.3719 37.322 28.2237 37.1919C27.6976 37.0448 27.1716 37.0448 26.6399 37.1919L26.6116 37.2032C26.4193 37.2541 26.1704 37.124 25.9216 37.4521C26.2327 37.4521 26.4306 37.4521 26.6286 37.4521C26.7361 37.486 26.8379 37.5482 26.9453 37.5539C27.8164 37.6048 28.6366 37.831 29.4511 38.1308C31.3629 38.8378 32.8109 40.0766 33.7781 41.8696C33.8403 41.9827 33.9195 42.0845 33.993 42.192C34.0779 42.3786 34.1627 42.5653 34.2419 42.7576C34.2532 43.1818 34.4795 43.5382 34.6265 43.9228C34.6435 44.0642 34.6604 44.2 34.6831 44.3414C34.6887 44.381 34.6944 44.4206 34.7 44.4601C34.7 44.8844 34.7283 45.3142 34.6944 45.7385C34.5982 46.9376 33.7385 47.4806 32.7204 47.6276C30.9047 47.8935 29.3096 47.3505 27.9408 46.1514C26.7247 45.088 25.8933 43.7644 25.4182 42.2203C25.2089 41.5415 25.0109 40.8571 24.8073 40.1727C24.7677 39.8616 24.7281 39.5505 24.6885 39.2394C24.6433 39.2394 24.6037 39.2394 24.5584 39.2451C24.5358 39.3978 24.5075 39.5562 24.4849 39.7089C24.1794 39.6637 23.874 39.6184 23.5912 39.5788C23.3649 40.1727 23.3367 40.1897 22.7314 40.3254C22.7484 40.0257 22.8729 39.8051 23.0821 39.6014C23.3989 39.2903 23.7213 38.9736 23.9984 38.6229C24.2134 38.3571 24.4962 38.1082 24.4962 37.7179C24.6433 37.5482 24.8243 37.3955 24.9317 37.2088C25.5256 36.1681 26.0799 35.1104 26.4306 33.9565C26.8944 32.4406 27.1659 30.8852 27.4205 29.3297C27.4205 29.2845 27.4205 29.2336 27.4261 29.1883C27.4261 28.4077 27.4261 27.6215 27.4261 26.841C27.4261 26.7901 27.4205 26.7448 27.4205 26.6939C27.2055 25.3873 27.0698 24.0751 26.6795 22.7911C26.1761 21.1395 25.4578 19.6123 24.4623 18.2096C23.9815 17.5365 23.4328 16.9199 22.7428 16.4505C22.6749 16.3826 22.5504 16.4109 22.4599 16.4052ZM32.0642 42.8707C32.0812 42.8821 32.1038 42.899 32.1208 42.9103C32.1095 42.8877 32.0925 42.8707 32.0812 42.8481C32.0586 42.8368 32.0416 42.8198 32.019 42.8085C32.036 42.8312 32.0473 42.8538 32.0642 42.8707ZM31.7249 42.6501C31.7475 42.6615 31.7701 42.6784 31.7871 42.6897C31.7758 42.6671 31.7588 42.6445 31.7475 42.6275C31.7249 42.4239 31.6061 42.3164 31.4081 42.2825C31.3742 42.2372 31.3459 42.1863 31.3063 42.1524C30.4296 41.3549 29.5529 40.5573 28.6705 39.7655C28.6196 39.7202 28.5347 39.7089 28.4669 39.6863C27.9239 39.0584 27.8899 39.0302 27.5506 39.0075C27.7655 39.3695 28.0427 39.6127 28.4329 39.7259C28.5234 39.8616 28.597 40.02 28.7157 40.1275C29.2135 40.6026 29.6999 41.106 30.2486 41.5189C30.6162 41.7904 30.8708 42.2372 31.3798 42.3164C31.4081 42.5087 31.5212 42.6275 31.7249 42.6501ZM30.6049 45.0088C30.6162 45.0201 30.6332 45.0258 30.6445 45.0371C30.6276 45.0258 30.6162 45.0201 30.6049 45.0088C30.4466 44.8108 30.3165 44.5789 30.1355 44.3979C28.9646 43.2497 27.9239 41.994 27.0698 40.5913C26.8435 40.2123 26.5664 39.8673 26.3118 39.5053C26.2723 39.6523 26.2949 39.7711 26.3458 39.8786C27.2225 41.649 28.416 43.1818 29.864 44.5167C30.0789 44.709 30.3561 44.8448 30.6049 45.0088ZM27.5506 17.7571C27.4997 17.7457 27.4544 17.7288 27.4035 17.7175C27.4544 17.7344 27.4997 17.7457 27.5506 17.7571C27.6863 17.9494 27.7994 18.17 27.9691 18.334C28.3707 18.7186 28.7214 19.1485 28.8854 19.6689C29.1004 20.3533 29.2135 21.0603 28.6705 21.6881C28.5404 21.8352 28.4556 22.0219 28.3481 22.1859C28.4329 22.2311 28.4725 22.2707 28.4952 22.2594C29.1343 22.0445 29.5585 21.5807 29.6773 20.9472C29.8131 20.2401 29.7282 19.5218 29.2135 18.9336C28.7497 18.4132 28.2632 17.9267 27.5506 17.7571ZM33.5745 27.1351C33.648 27.3331 33.6706 27.4688 33.7441 27.565C34.027 27.9609 34.355 28.3229 34.6039 28.7415C34.9263 29.2845 35.1299 29.8897 34.9885 30.5232C34.8132 31.3207 34.4964 32.0617 33.8855 32.6386C33.7611 32.7574 33.5688 32.8479 33.6027 33.1081C34.1797 33.0119 34.6718 32.7687 35.0338 32.3615C35.8483 31.4451 36.0123 30.3761 35.6559 29.2109C35.4919 28.6679 35.1469 28.272 34.7905 27.8478C34.4738 27.4745 34.1344 27.2482 33.5745 27.1351ZM29.5925 23.549C29.7056 23.73 29.7508 23.8658 29.8413 23.945C30.3504 24.4201 30.6106 25.0479 30.8651 25.6701C30.9839 25.9586 31.0687 26.298 31.0348 26.5977C30.9613 27.2652 30.8425 27.9326 30.4239 28.4982C30.2825 28.6849 30.1637 28.8829 29.9884 29.1487C30.4466 29.1657 30.6615 28.8998 30.9104 28.7415C31.3855 28.436 31.674 28.0118 31.8436 27.4688C32.0077 26.9371 31.9172 26.4337 31.8436 25.9133C31.6966 24.85 30.7407 23.8036 29.5925 23.549ZM33.1333 26.0321C33.3765 25.9699 33.5009 25.9756 33.5631 25.9133C33.8403 25.6362 34.1005 25.3421 34.3663 25.0479C34.6039 24.7821 34.6548 24.4653 34.6831 24.1147C34.7453 23.3171 34.4512 22.6271 34.0496 21.9992C33.6876 21.4393 33.1502 21.0264 32.4319 20.8963C33.0767 21.5976 33.6197 22.3725 33.8346 23.2889C34.0665 24.2391 33.7441 25.1215 33.1333 26.0321ZM29.6773 35.1669C29.9771 35.3706 30.1751 35.2292 30.3504 35.116C31.0914 34.6296 31.6626 34.0187 31.8436 33.1024C32.1095 31.7506 30.916 30.6702 29.8809 30.3874C30.0902 30.6589 30.2769 30.8682 30.4183 31.1001C30.6445 31.4621 30.9556 31.8185 31.0235 32.2144C31.1762 33.0515 31.0348 33.8604 30.3391 34.4769C30.1128 34.6805 29.9149 34.9237 29.6773 35.1669ZM37.3528 29.4711C37.5225 29.4881 37.5904 29.5164 37.6243 29.4937C38.2126 29.1261 38.5293 28.5492 38.4897 27.8987C38.4501 27.1803 38.1277 26.5129 37.5564 26.0378C37.3019 25.8228 37.0078 25.6362 36.5553 25.6249C36.7702 25.9133 36.9116 26.1622 37.1096 26.3489C37.6583 26.8692 37.7657 27.548 37.8393 28.2437C37.8902 28.6962 37.6696 29.0639 37.3528 29.4711ZM36.6741 34.4429C36.8381 34.4599 36.9116 34.4939 36.9399 34.4656C37.2906 34.1884 37.6752 33.9395 37.9637 33.6058C38.4841 33.0006 38.4671 32.237 37.992 31.6657C37.8279 31.4678 37.63 31.3433 37.3868 31.3433C37.5451 31.6771 37.7883 31.9599 37.777 32.237C37.7544 32.7065 37.6809 33.2042 37.3358 33.5945C37.1209 33.8377 36.9286 34.1149 36.6741 34.4429Z" fill="#D84524"/>
<path d="M46.8889 29.8571C46.9907 30.0324 47.0586 30.2473 47.2 30.3661C48.3143 31.2881 49.0156 32.5155 49.6831 33.7542C50.7578 35.7339 51.5157 37.8324 51.8042 40.0779C51.8834 40.6661 51.8664 41.2827 51.7759 41.8653C51.6571 42.6232 51.165 42.9795 50.3788 42.9795C49.389 42.9795 48.4444 42.7589 47.5394 42.346C45.2995 41.3336 43.7667 39.6028 42.6184 37.4873C42.4318 37.1423 42.2791 36.786 42.1094 36.4353C42.2508 36.3221 42.3752 36.192 42.5279 36.1015C42.9126 35.8583 43.3085 35.6377 43.6988 35.4058C44.2078 35.9545 44.6717 36.5427 45.226 37.0405C46.0461 37.7758 46.9285 38.4489 47.7826 39.1446C48.4783 39.6593 48.648 39.7442 48.9704 39.7215C48.7272 39.3878 48.4161 39.1616 48.0484 39.0032L48.0145 38.9862C47.9805 38.9579 47.9523 38.9297 47.9183 38.9014C47.8278 38.8109 47.7373 38.7091 47.6355 38.6242C46.3572 37.5099 45.1637 36.3221 44.1569 34.9477C44.2305 34.5913 44.2983 34.2293 44.3888 33.873C44.4793 33.5166 44.5981 33.166 44.7056 32.8096C44.8074 32.8888 44.9036 32.9793 45.011 33.0472C45.3674 33.2508 45.7294 33.4375 46.0857 33.6354C46.7418 33.9974 47.398 34.3651 48.0541 34.7214C48.1446 34.7723 48.269 34.7667 48.3765 34.7836C48.3143 34.614 48.2238 34.5291 48.1163 34.4669C47.1378 33.8504 46.1762 33.1999 45.2712 32.4759C45.2656 32.2044 45.3956 32.0291 45.6276 31.882C45.9556 31.6784 46.3063 31.4861 46.5212 31.0788C46.2101 30.9374 46.2271 30.7112 46.2893 30.4283C46.3459 30.1738 46.3459 29.8853 46.131 29.6874C45.8708 29.4385 45.9726 29.2236 46.1366 28.9917C46.1988 28.9068 46.2497 28.8163 46.2667 28.7937C46.0631 28.5052 45.8821 28.2733 45.735 28.0244C45.4239 27.5041 45.4918 26.8762 45.2769 26.3276C45.3165 26.2936 45.3617 26.254 45.4013 26.2201C45.4579 26.3332 45.5088 26.4407 45.5823 26.5878C45.8481 26.3559 45.8538 26.1296 45.8538 25.892C46.6796 25.2642 47.5054 24.6364 48.3312 24.0029C48.303 23.9576 48.2747 23.9124 48.2464 23.8728C47.7486 24.1443 47.2566 24.4158 46.7588 24.6873C46.7475 24.5063 46.7418 24.3196 46.7305 24.082C46.0574 24.3592 45.9726 23.7257 45.6162 23.4825C45.6898 23.3128 45.752 23.1657 45.8651 22.9169C45.4409 23.0413 45.1128 23.1431 44.7848 23.2336C44.7339 23.2449 44.6603 23.1827 44.5981 23.1544C44.8017 22.866 44.9771 22.5605 45.2147 22.3003C46.3742 20.9994 47.5507 19.7154 48.7102 18.4202C48.829 18.2844 48.9138 18.1147 49.0156 17.962C49.0213 17.9507 49.0326 17.9394 49.0383 17.9281C49.0326 17.9394 49.027 17.9507 49.0213 17.962C48.8007 18.0977 48.5405 18.1939 48.3652 18.3692C47.1774 19.5627 46.0009 20.7618 44.8357 21.9779C44.4737 22.3512 44.1569 22.7698 43.8176 23.1657C43.5461 22.9791 43.2915 22.6906 42.9917 22.6284C42.6015 22.5435 42.4318 22.2947 42.2282 22.0288C43.2519 19.755 44.7565 17.8545 46.7362 16.3443C47.8448 15.5015 49.0156 14.7379 50.4467 14.5287C50.6899 14.4947 50.9331 14.4608 51.1763 14.4664C52.0474 14.4947 52.5112 14.9416 52.5112 15.807C52.5112 16.4405 52.4546 17.0796 52.3754 17.7131C52.1153 19.8116 51.2725 21.7177 50.4071 23.6239C49.7736 25.021 48.9478 26.2936 48.0541 27.5267C47.8674 27.7869 47.6355 28.0131 47.4262 28.2507C47.364 28.2959 47.2961 28.3468 47.2339 28.3921V28.3864C47.1943 28.426 47.1604 28.46 47.1208 28.4996L47.1151 28.5052C46.7531 28.4996 46.7531 28.4996 46.8946 28.8276H46.8889C46.8493 28.9464 46.8154 29.0652 46.7758 29.184C46.7814 29.3141 46.7814 29.4385 46.7871 29.5686C46.8323 29.6817 46.8606 29.7722 46.8889 29.8571ZM42.8617 22.3116C42.8899 22.323 42.9295 22.3569 42.9522 22.3456C42.9748 22.3343 42.9974 22.2834 42.9917 22.2607C42.9861 22.2381 42.9295 22.2155 42.9069 22.2211C42.8843 22.2325 42.873 22.2834 42.8617 22.3116Z" fill="#D84524"/>
<path d="M24.3024 10.197C23.5501 10.7456 22.9562 11.447 22.3906 12.171C22.006 12.6574 21.644 13.1608 21.2537 13.6416C21.1576 13.7604 20.9992 13.8905 20.8578 13.9018C20.015 13.964 19.1722 13.9923 18.3294 14.0262C18.2955 14.0262 18.2616 14.0036 18.1484 13.9697C18.205 13.8056 18.2333 13.6247 18.3238 13.4776C19.1552 12.0918 19.9811 10.7004 21.1745 9.58044C22.2379 8.57929 23.42 7.74216 24.7606 7.17654C25.9258 6.68445 27.1532 6.39032 28.4428 6.66748C28.6068 6.70142 28.7765 6.74667 28.9236 6.8202C29.4948 7.10866 29.8229 7.44238 29.6193 8.22294C29.4722 8.79422 29.229 9.3146 28.9123 9.80669C28.8331 9.93113 28.7539 10.0612 28.6747 10.1913C28.6181 10.2422 28.5333 10.2762 28.5107 10.3384C28.3579 10.8418 27.9677 11.1189 27.5661 11.3961C27.2889 11.5884 27.04 11.809 26.7742 12.0239C26.4292 11.6393 26.4235 11.6337 25.9484 11.8429C25.7674 11.9221 25.6034 12.0522 25.4224 12.1314C25.2583 12.2049 25.0151 12.352 24.919 12.2898C24.6475 12.1201 24.4495 12.2106 24.195 12.2954C24.0818 12.335 23.9065 12.2558 23.7764 12.188C23.618 12.1031 23.4823 11.9787 23.3352 11.8712C23.7764 11.3791 24.2119 10.887 24.6531 10.3949C24.738 10.2988 24.8171 10.197 24.8963 10.1008C25.0773 9.98203 25.2696 9.87456 25.445 9.74447C25.6939 9.56347 25.9314 9.3655 26.1746 9.17319C26.3613 9.02613 26.6498 8.98654 26.7403 8.55101C26.3783 8.76029 26.1124 8.913 25.8466 9.06007C25.3658 9.4051 24.885 9.75578 24.4042 10.1008L24.3873 10.1121C24.3646 10.1348 24.3364 10.163 24.3024 10.197Z" fill="#D84524"/>
<path d="M29.4726 10.5243C30.1683 10.3207 30.8641 10.0888 31.5711 9.91907C32.2725 9.74938 32.9852 9.79463 33.6752 10.0209C34.7216 10.3603 34.897 10.875 34.7782 11.6329C34.7273 11.944 34.6368 12.2494 34.5632 12.5605C34.2352 12.6228 34.354 12.8603 34.3653 13.0526C34.3313 13.1601 34.2974 13.2619 34.2635 13.3694C34.0825 13.4599 33.8053 13.5051 33.7318 13.6522C33.5621 14.0085 33.2397 14.0255 32.9512 14.133C32.7419 14.2065 32.5213 14.297 32.3064 14.3027C31.8426 14.3083 31.4184 14.7495 30.9206 14.3705C30.7849 14.642 30.6944 14.9644 30.2928 14.7438C30.2758 14.5911 30.2532 14.4271 30.2306 14.2348C30.0778 14.2348 29.9308 14.2348 29.7837 14.2348C30.0722 13.9124 30.3493 13.5843 30.6435 13.2732C30.8018 13.1035 30.9942 12.9565 31.1695 12.8038C31.7182 12.5549 32.1141 12.1137 32.5496 11.7178C32.0123 11.8252 31.5485 12.0628 31.1582 12.4418C30.6378 12.8377 30.0948 13.2053 29.6027 13.6352C29.0541 14.1103 28.5507 14.6364 28.019 15.1454C27.1875 14.8909 26.3447 14.6364 25.502 14.3818C26.1977 13.1092 27.1705 12.0854 28.347 11.2483C28.6808 11.0107 29.0201 10.7845 29.3595 10.5526H29.3652C29.4104 10.5469 29.4387 10.5413 29.4726 10.5243Z" fill="#D84524"/>
<path d="M16.2482 43.3352C16.7459 43.403 17.2437 43.4822 17.7471 43.5444C18.177 43.5953 18.6068 43.6293 19.0311 43.6802C19.2573 43.7085 19.4157 43.8329 19.4779 44.0592C19.7777 45.2356 19.8965 46.4235 19.6193 47.6226C19.5741 47.8205 19.4892 48.0185 19.3931 48.1995C19.2347 48.4993 18.9802 48.7086 18.6464 48.7482C18.0299 48.816 17.4077 48.8274 16.8138 48.5841C15.0038 47.8545 13.7425 46.1293 13.6407 44.1666C13.618 43.7707 13.635 43.3747 13.635 42.9845C13.635 42.9336 13.6633 42.877 13.7029 42.7695C14.2063 42.8883 14.7097 43.0014 15.2131 43.1202C15.2923 43.1485 15.3715 43.1768 15.4507 43.2051C15.5525 43.222 15.6599 43.2333 15.7618 43.2503C15.8183 44.3363 16.2029 45.3262 16.6837 46.2877C16.8591 46.6327 17.091 46.9438 17.5718 47.0343C17.272 46.4178 16.9552 45.8748 16.7403 45.2922C16.5027 44.6531 16.2029 44.0309 16.2482 43.3352Z" fill="#B73F23"/>
<path d="M43.8338 23.1899C44.1732 22.7939 44.4899 22.3754 44.8519 22.0021C46.0171 20.7916 47.1936 19.5868 48.3814 18.3934C48.5567 18.218 48.8169 18.1219 49.0375 17.9861L49.0319 17.9805C48.9301 18.1332 48.8452 18.3029 48.7264 18.4386C47.5612 19.7339 46.3848 21.0179 45.2309 22.3188C44.999 22.579 44.818 22.8901 44.6143 23.1729C44.5295 23.2464 44.4333 23.3143 44.3711 23.4048C43.5962 24.4682 42.8213 25.5315 42.0577 26.6006C41.7127 27.0814 41.724 27.1549 42.1369 27.7318C42.2896 27.6583 42.465 27.5904 42.6177 27.4943C43.5962 26.8608 44.5804 26.2329 45.5476 25.5881C45.9662 25.311 46.3678 24.9999 46.7807 24.7001C47.2784 24.4286 47.7705 24.1571 48.2683 23.8856C48.2966 23.9308 48.3248 23.9761 48.3531 24.0157C47.5273 24.6435 46.7015 25.2714 45.8757 25.9049C45.723 26.0123 45.5703 26.1198 45.4232 26.2273C45.3836 26.2612 45.3383 26.3008 45.2988 26.3347C45.2026 26.3856 45.0895 26.4196 45.0046 26.4818C44.2241 27.0587 43.4548 27.6639 42.6573 28.2183C42.3123 28.4558 42.3009 28.7669 42.2953 29.095C42.2896 29.3891 42.3745 29.6832 42.3745 29.983C42.3801 30.2432 42.448 30.4185 42.6686 30.5939C43.2455 31.0633 43.9017 31.4253 44.4447 31.9401C44.6822 32.1663 45.0103 32.2964 45.2931 32.4717C46.1981 33.1957 47.1597 33.8406 48.1382 34.4627C48.24 34.5306 48.3362 34.6098 48.3984 34.7795C48.2909 34.7625 48.1665 34.7682 48.076 34.7173C47.4142 34.3609 46.7637 33.9933 46.1076 33.6313C45.7513 33.4333 45.3893 33.2466 45.0329 33.043C44.9198 32.9808 44.8293 32.8847 44.7275 32.8055C43.9299 32.2512 43.1324 31.6968 42.3123 31.1256C42.2218 31.3914 42.1313 31.5781 42.0917 31.7817C42.069 31.8948 42.0747 32.0532 42.1369 32.1437C42.81 33.0826 43.4944 34.0102 44.1788 34.9435C45.18 36.318 46.3791 37.5058 47.6574 38.6201C47.7536 38.7049 47.8441 38.8067 47.9402 38.8972C47.9742 38.9255 48.0024 38.9538 48.0364 38.9821L48.0703 38.999C47.9798 39.0443 47.895 39.0895 47.8045 39.1404C46.9504 38.4391 46.068 37.7716 45.2478 37.0363C44.6935 36.5386 44.2241 35.9503 43.7207 35.4017C43.3983 34.9661 43.0928 34.5193 42.7478 34.1007C42.3971 33.6765 42.1822 33.1335 41.7353 32.8055C41.6052 32.9016 41.5147 32.9638 41.4242 33.0261C41.1697 32.9752 40.9208 32.9242 40.6663 32.8733C41.0566 32.2116 41.4299 31.5441 41.5204 30.7579C41.5939 30.1131 41.6165 29.4909 41.4638 28.8291C41.2206 27.7431 40.6776 26.8551 40.0215 26.001C40.3213 26.0576 40.5815 25.9671 40.8134 25.7861C40.9774 25.9897 41.1414 26.1877 41.3337 26.4252C42.1652 25.3392 42.9967 24.2645 43.8338 23.1899Z" fill="#691D0F"/>
<path d="M29.7898 14.2277C29.9369 14.2277 30.0783 14.2277 30.2367 14.2277C30.2593 14.4144 30.2819 14.5784 30.2989 14.7368C30.7005 14.9574 30.791 14.635 30.9267 14.3635C31.4245 14.7424 31.8487 14.3012 32.3125 14.2956C32.5274 14.2956 32.748 14.1994 32.9573 14.1259C33.2458 14.0241 33.5682 14.0015 33.7379 13.6451C33.8058 13.4981 34.0829 13.4528 34.2696 13.3623C34.1847 13.6677 34.1055 13.9675 34.0094 14.3012C34.3601 14.3578 34.6485 14.4144 34.9427 14.4483C35.7345 14.5331 36.2606 14.98 36.5377 15.6983C36.9393 16.7617 36.8318 17.8024 36.2662 18.781C36.0513 19.1486 35.7458 19.4654 35.48 19.8104C34.7956 19.5785 34.411 18.9846 33.7944 18.5208C34.1395 18.1984 34.4166 17.9212 34.7164 17.6667C35.0162 17.4122 35.3782 17.2199 35.5875 16.7165C34.8635 17.1237 34.2922 17.531 33.7944 18.0344C33.6248 18.204 33.4664 18.3398 33.2175 18.1984C32.6858 17.8251 32.1541 17.4518 31.6224 17.0785C31.6677 16.9766 31.6847 16.8522 31.7582 16.7843C32.0919 16.4563 32.4483 16.1508 32.7763 15.8171C33.0591 15.5286 33.4607 15.3646 33.653 14.9743C33.1044 15.2345 32.601 15.5456 32.0976 15.868C31.7073 16.1169 31.3283 16.3827 30.9437 16.6429C30.1631 16.2244 29.3826 15.8001 28.5059 15.325C28.817 15.0479 29.0715 14.816 29.3317 14.5784C29.6993 14.6972 29.6993 14.6972 29.8068 14.2334L29.7898 14.2277Z" fill="#B73F23"/>
<path d="M31.832 38.5744C32.0752 38.0597 32.573 37.8052 32.9633 37.4432C33.2348 37.1886 33.5346 36.968 33.7947 36.7022C34.4396 36.0348 34.4905 35.2881 33.9757 34.4114C34.1624 34.4623 34.2868 34.4623 34.3773 34.5189C34.9769 34.8979 35.1466 35.6105 34.8016 36.2271C34.6658 36.4759 34.5583 36.7361 34.3943 37.0868C34.8807 36.9737 35.0957 36.6739 35.3559 36.459C35.6387 36.2214 35.8762 35.9329 36.1534 35.6841C36.9 35.0166 37.6749 34.3718 38.4046 33.6874C38.6761 33.4385 38.8401 33.0765 39.0946 32.805C39.27 32.624 39.5019 32.477 39.7395 32.3865C39.8582 32.3412 40.0336 32.4544 40.192 32.494C40.141 32.7881 39.8073 32.9974 40.1184 33.2575C40.1184 33.3311 40.1184 33.4103 40.1184 33.4838C39.1512 35.0166 37.9408 36.3459 36.6342 37.5902C35.7461 38.4387 34.728 39.0948 33.6533 39.6774C33.3366 39.7452 33.0707 39.6491 32.8388 39.4398C32.5051 39.157 32.1657 38.8685 31.832 38.5744Z" fill="#B73F23"/>
<path d="M8.5625 39.0109C8.96975 38.8355 9.30347 39.0787 9.6089 39.2541C10.0162 39.4916 10.3951 39.7518 10.8985 39.7009C10.9551 39.6953 11.0173 39.7009 11.0626 39.7292C11.9619 40.2156 12.9857 40.1251 13.9359 40.3797C15.0445 40.6794 16.1758 40.5663 17.3014 40.6059C17.8953 40.6285 18.4892 40.7417 19.0888 40.7643C19.3998 40.7756 19.7223 40.6964 20.0333 40.6342C20.6216 40.5154 21.2042 40.3853 21.7868 40.2609C21.5436 40.5154 21.3117 40.7926 21.0458 41.0188C20.203 41.7372 19.3037 42.3593 18.2629 42.7666C17.8557 42.727 17.4428 42.71 17.0355 42.6422C15.6328 42.4046 14.2527 42.0878 12.9008 41.6014C11.9053 41.2394 10.9947 40.753 10.0953 40.21C9.5184 39.8649 9.015 39.4803 8.5625 39.0109Z" fill="#DD5D3E"/>
<path d="M18.25 42.765C19.2851 42.3578 20.1901 41.7356 21.0329 41.0173C21.2987 40.791 21.5306 40.5139 21.7738 40.2593C22.034 39.9709 22.2999 39.6881 22.5487 39.3939C22.8202 39.0715 23.0917 38.7491 23.3406 38.4097C23.6234 38.0195 23.878 37.6122 24.1495 37.2163C24.2117 37.1258 24.2965 37.0579 24.3757 36.9844C24.4153 37.2276 24.4492 37.4652 24.4888 37.7084C24.4832 38.0987 24.2004 38.3475 23.9911 38.6134C23.7139 38.9641 23.3915 39.2752 23.0748 39.5919C22.8655 39.7955 22.7411 40.0161 22.7241 40.3159C23.335 40.1801 23.3576 40.1632 23.5838 39.5693C23.8723 39.6089 24.1777 39.6541 24.4832 39.6994C24.4832 39.8125 24.4888 39.9256 24.4888 40.0444C24.3191 40.5365 24.37 41.0342 24.4605 41.5263C24.5284 41.911 24.6359 42.2899 24.732 42.7141C24.4719 42.765 24.2456 42.8386 24.008 42.8555C22.4017 42.9913 20.7897 43.0818 19.1833 42.8895C18.8722 42.8499 18.5611 42.8046 18.25 42.765Z" fill="#B73F23"/>
<path d="M23.3425 11.8606C23.4896 11.9681 23.6253 12.0925 23.7837 12.1774C23.9081 12.2453 24.0835 12.3245 24.2023 12.2849C24.4511 12.2 24.6548 12.1095 24.9263 12.2792C25.0224 12.3414 25.2656 12.1944 25.4297 12.1208C25.6107 12.036 25.7747 11.9115 25.9557 11.8324C26.4308 11.6231 26.4308 11.6344 26.7759 12.0134C26.6571 12.1774 26.5326 12.3414 26.4139 12.5055C25.967 13.0994 25.5145 13.6876 25.062 14.2759C24.3607 14.1797 23.6536 14.0835 22.9522 13.993C22.6185 13.9478 22.2848 13.9139 21.8945 13.8686C22.1604 13.1672 22.6298 12.6242 23.1219 12.1039C23.1615 12.0586 23.2068 12.0077 23.2464 11.9625C23.2803 11.9285 23.3142 11.8946 23.3425 11.8606Z" fill="#B73F23"/>
<path d="M35.6884 41.8493C35.6544 41.8437 35.6262 41.838 35.5922 41.838C35.4734 41.8041 35.3547 41.7758 35.2359 41.7419C35.1623 41.7362 35.0945 41.7306 35.0209 41.7249C34.9135 41.6514 34.8117 41.5778 34.7042 41.51C34.246 41.2328 34.0424 40.7973 33.918 40.2995C34.3648 40.0676 34.8173 39.8414 35.2585 39.5982C35.4395 39.502 35.6035 39.3776 35.7902 39.2588C36.4802 39.5416 37.0232 40.0337 37.5097 40.571C37.8208 40.9104 37.7359 41.3459 37.3287 41.5665C37.0741 41.7079 36.7687 41.7588 36.4859 41.8493C36.2201 41.855 35.9542 41.8493 35.6884 41.8493Z" fill="#B73F23"/>
<path d="M33.9196 40.3031C34.0384 40.7952 34.2477 41.2364 34.7058 41.5135C34.8133 41.5814 34.9207 41.655 35.0226 41.7285C34.8585 41.7568 34.6775 41.8529 34.5361 41.8077C34.1628 41.6945 34.0667 41.9038 33.9988 42.1866C33.9252 42.0792 33.8461 41.9774 33.7838 41.8642C32.811 40.0712 31.3686 38.8381 29.4568 38.1255C28.6423 37.8257 27.8165 37.5994 26.9511 37.5485C26.8436 37.5429 26.7362 37.4806 26.6344 37.4467C26.6287 37.3619 26.623 37.2827 26.623 37.1978L26.6513 37.1865C27.1774 37.1865 27.7034 37.1865 28.2351 37.1865C29.3833 37.3166 30.424 37.7465 31.4139 38.3121C31.5609 38.397 31.7023 38.4875 31.8438 38.5723C32.1775 38.8608 32.5112 39.1549 32.8449 39.4434C33.0825 39.6526 33.3483 39.7488 33.6594 39.6809C33.5632 39.7545 33.4614 39.8336 33.3653 39.9072C33.3766 40.2861 33.6764 40.2465 33.9196 40.3031Z" fill="#691D0F"/>
<path d="M43.834 23.1894C42.9969 24.2641 42.1654 25.3388 41.317 26.4305C41.1247 26.1986 40.9606 25.9949 40.7966 25.7913C40.7853 25.5537 40.8305 25.3501 40.9493 25.1182C41.2039 24.6261 41.3339 24.0718 41.5489 23.5571C41.7638 23.048 42.0127 22.5503 42.2503 22.0469C42.4539 22.3127 42.6236 22.5616 43.0138 22.6464C43.308 22.7143 43.5625 23.0028 43.834 23.1894Z" fill="#B73F23"/>
<path d="M41.4075 33.0311C41.498 32.9689 41.5885 32.901 41.7186 32.8105C42.1711 33.1386 42.3804 33.6816 42.7311 34.1058C43.0761 34.5244 43.3815 34.9712 43.7039 35.4068C43.3137 35.6387 42.9177 35.8649 42.5331 36.1025C42.3804 36.1986 42.2559 36.3231 42.1145 36.4362C41.8204 35.6387 41.5037 34.8524 41.2491 34.0436C41.1417 33.7155 41.1869 33.3479 41.4075 33.0311Z" fill="#B73F23"/>
<path d="M33.2063 18.2075C33.4551 18.3546 33.6135 18.2188 33.7832 18.0435C34.281 17.5401 34.8522 17.1328 35.5762 16.7256C35.3669 17.229 35.0049 17.4213 34.7052 17.6758C34.4054 17.9304 34.1282 18.2075 33.7832 18.5299C34.3997 18.9881 34.7844 19.5876 35.4688 19.8195C35.3387 19.8761 35.2029 19.9327 35.1181 19.9723C35.1973 20.3003 35.2708 20.6171 35.3443 20.9395C34.5864 20.2834 33.8285 19.6272 33.0762 18.9655C33.1214 18.7109 33.1667 18.4564 33.2063 18.2075Z" fill="#691D0F"/>
<path d="M10.2363 35.4614C10.6549 35.1616 11.0565 34.8279 11.4977 34.5621C12.1708 34.1605 12.923 33.9342 13.8054 33.6797C13.483 34.3584 13.1097 34.8505 12.6572 35.2804C12.2726 35.3087 11.888 35.3313 11.5033 35.3596C11.0735 35.3935 10.6549 35.4275 10.2363 35.4614Z" fill="#703C40"/>
<path d="M25.0664 14.2787C25.5189 13.6905 25.9657 13.0966 26.4182 12.5083C26.5427 12.3443 26.6615 12.1802 26.7802 12.0162C27.0404 11.8069 27.295 11.5807 27.5721 11.3884C27.9737 11.1112 28.3696 10.8341 28.5167 10.3307C28.5337 10.2684 28.6242 10.2345 28.6807 10.1836C28.7486 10.2571 28.8052 10.3646 28.89 10.4042C29.0427 10.4721 29.2124 10.5003 29.3708 10.5456C29.0314 10.7775 28.6921 11.0037 28.3583 11.2413C27.1762 12.0728 26.209 13.0966 25.5133 14.3749C25.3605 14.3409 25.2135 14.307 25.0664 14.2787Z" fill="#691D0F"/>
<path d="M16.2479 43.3381C16.197 44.0395 16.5025 44.656 16.7344 45.2782C16.9493 45.8608 17.2717 46.4038 17.5659 47.0204C17.0851 46.9299 16.8532 46.6188 16.6778 46.2737C16.197 45.3178 15.8124 44.328 15.7559 43.2363C15.9199 43.2703 16.0839 43.3042 16.2479 43.3381Z" fill="#691D0F"/>
<path d="M10.2358 35.4622C10.6544 35.4283 11.0786 35.3944 11.4972 35.3604C11.8818 35.3322 12.2664 35.3095 12.651 35.2812C12.108 35.8582 11.4519 36.2372 10.6883 36.4351C10.4903 36.4238 10.2924 36.4125 10.0039 36.4012C10.151 36.1862 10.2584 36.0335 10.3546 35.8865C10.2867 35.7733 10.2075 35.6376 10.1283 35.5075C10.1679 35.4962 10.2019 35.4792 10.2358 35.4622Z" fill="#DD5D3E"/>
<path d="M7.3907 35.4106C7.13617 35.3653 6.8873 35.3201 6.63277 35.2748C6.4348 35.2409 6.23683 35.207 6.03886 35.173C5.84655 34.8223 5.94271 34.4547 5.97099 34.0361C6.37824 34.1379 6.75155 34.2284 7.12486 34.3246C7.2097 34.6923 7.3002 35.0486 7.3907 35.4106Z" fill="#B73F23"/>
<path d="M30.9375 16.6432C31.3221 16.383 31.7011 16.1228 32.0914 15.8683C32.5891 15.5459 33.0982 15.2348 33.6468 14.9746C33.4545 15.3649 33.0529 15.5346 32.7701 15.8174C32.4421 16.1511 32.0857 16.4565 31.752 16.7846C31.6785 16.8581 31.6615 16.9826 31.6162 17.0787C31.2542 17.1466 31.0619 16.9486 30.9375 16.6432Z" fill="#691D0F"/>
<path d="M10.128 35.5137C10.2072 35.6438 10.2864 35.7739 10.3543 35.8926C10.2525 36.0397 10.145 36.1924 10.0036 36.4074C10.2921 36.4243 10.49 36.4356 10.688 36.4413C10.1224 36.7015 9.66422 36.3734 9.07031 36.1755C9.48322 35.9153 9.80562 35.7173 10.128 35.5137Z" fill="#703C40"/>
<path d="M24.4102 10.0886C24.8909 9.74357 25.3717 9.39288 25.8525 9.04785C25.96 9.08745 26.0731 9.12138 26.1806 9.16098C25.9373 9.35329 25.6998 9.5456 25.4509 9.73226C25.2756 9.86235 25.0832 9.96982 24.9022 10.0886C24.7382 10.0886 24.5742 10.0886 24.4102 10.0886Z" fill="#691D0F"/>
<path d="M31.1641 12.4291C31.56 12.0558 32.0238 11.8125 32.5555 11.7051C32.1143 12.101 31.7184 12.5422 31.1754 12.7911C31.1697 12.6723 31.1641 12.5535 31.1641 12.4291Z" fill="#691D0F"/>
<path d="M34.6307 43.9083C34.4837 43.5294 34.2574 43.173 34.2461 42.7432C34.2744 42.7714 34.2913 42.811 34.3253 42.8224C34.7269 42.9468 34.6986 42.9581 34.84 43.2918C34.9588 43.5859 34.8174 43.7443 34.6307 43.9083Z" fill="#691D0F"/>
<path d="M24.49 40.0381C24.49 39.925 24.4844 39.8119 24.4844 39.6931C24.507 39.5404 24.5353 39.382 24.5579 39.2293C24.6032 39.2293 24.6427 39.2293 24.688 39.2236C24.7276 39.5347 24.7672 39.8458 24.8068 40.1569C24.705 40.1173 24.5975 40.0777 24.49 40.0381Z" fill="#691D0F"/>
<path d="M29.8013 14.2412C29.6995 14.6994 29.6995 14.6994 29.3262 14.5862C29.4845 14.4675 29.6429 14.3543 29.8013 14.2412Z" fill="#D84524"/>
<path d="M35.6895 41.8486C35.9553 41.8543 36.2211 41.8543 36.4926 41.8599C36.2211 42.024 35.9553 42.0183 35.6895 41.8486Z" fill="#691D0F"/>
<path d="M34.3661 13.0536C34.3548 12.8556 34.236 12.6181 34.564 12.5615C34.4962 12.7256 34.4283 12.8896 34.3661 13.0536Z" fill="#B73F23"/>
<path d="M46.9104 28.8519C46.7686 28.5229 46.7686 28.5229 47.1316 28.5286C47.0579 28.6364 46.9841 28.7442 46.9104 28.8519Z" fill="#B73F23"/>
<path d="M40.1133 33.4879C40.1133 33.4141 40.1133 33.3347 40.1133 33.261C40.1814 33.2553 40.2494 33.244 40.3118 33.2383C40.2494 33.3177 40.1814 33.4028 40.1133 33.4879Z" fill="#691D0F"/>
<path d="M15.4472 43.1896C15.3678 43.1612 15.2884 43.1329 15.209 43.1045C15.2941 43.1329 15.3678 43.1612 15.4472 43.1896Z" fill="#691D0F"/>
<path d="M32.9753 18.8963C32.9016 18.8566 32.8335 18.8112 32.7598 18.7715C32.8335 18.8112 32.9073 18.8566 32.9753 18.8963Z" fill="#691D0F"/>
<path d="M46.8878 29.8594C46.8595 29.7686 46.8311 29.6835 46.8027 29.5928C46.8311 29.6835 46.8595 29.7743 46.8878 29.8594Z" fill="#B73F23"/>
<path d="M47.2441 28.4153C47.3065 28.3699 47.3746 28.3188 47.437 28.2734C47.3746 28.3188 47.3122 28.3642 47.2441 28.4153Z" fill="#B73F23"/>
<path d="M40.543 33.0077C40.5769 32.9681 40.6108 32.9341 40.6504 32.8945C40.6108 32.9341 40.5769 32.9737 40.543 33.0077Z" fill="#691D0F"/>
<path d="M40.4297 33.1268C40.4693 33.0872 40.5032 33.0533 40.5428 33.0137C40.5032 33.0476 40.4636 33.0872 40.4297 33.1268Z" fill="#691D0F"/>
<path d="M40.3164 33.2391C40.356 33.1995 40.3899 33.1656 40.4295 33.126C40.3899 33.1599 40.3503 33.1995 40.3164 33.2391Z" fill="#691D0F"/>
<path d="M47.1367 28.5213C47.1763 28.4817 47.2102 28.4478 47.2498 28.4082C47.2102 28.4478 47.1707 28.4817 47.1367 28.5213Z" fill="#B73F23"/>
<path d="M23.2455 11.9658C23.2059 12.0111 23.1607 12.062 23.1211 12.1072C23.1663 12.0563 23.2059 12.0111 23.2455 11.9658Z" fill="#D84524"/>
<path d="M29.474 10.5244C29.4454 10.5415 29.4112 10.5472 29.377 10.5415C29.4055 10.5358 29.4397 10.5301 29.474 10.5244Z" fill="#691D0F"/>
<path d="M24.3027 10.1978C24.3313 10.1692 24.3598 10.135 24.3883 10.1064C24.3655 10.135 24.337 10.1635 24.3027 10.1978Z" fill="#691D0F"/>
<path d="M34.7045 44.4518C34.6988 44.4122 34.6932 44.3726 34.6875 44.333C34.7045 44.3613 34.7214 44.3839 34.7327 44.4122C34.7384 44.4179 34.7158 44.4348 34.7045 44.4518Z" fill="#691D0F"/>
<path d="M13.4941 25.881C13.6525 24.3311 14.3935 23.132 15.7453 22.3797C16.7634 21.8085 17.8042 21.9159 18.7771 22.5721C19.4558 23.0302 19.9196 23.6694 20.242 24.399C20.7737 25.5981 20.9321 26.8425 20.5644 28.1321C20.2194 29.3313 19.4784 30.1967 18.3642 30.7057C17.3178 31.1865 16.294 31.0621 15.3268 30.4229C14.3369 29.7724 13.7317 28.8731 13.5281 27.7079C13.5224 27.6683 13.5168 27.6287 13.5168 27.5891C13.5111 27.5213 13.5111 27.459 13.5055 27.3912C13.4998 26.8878 13.4998 26.3844 13.4941 25.881ZM16.7012 30.3211C16.9671 30.3211 17.2273 30.3268 17.4931 30.3268C18.2058 30.2193 18.794 29.9139 19.2069 29.303C19.6481 28.7374 19.9083 28.0925 19.9875 27.3799C20.0045 27.3346 20.0214 27.2894 20.0384 27.2441C20.0384 26.916 20.0384 26.5823 20.0384 26.2543C20.0214 26.209 20.0045 26.1638 19.9875 26.1185C19.8122 24.6253 19.2126 23.4205 17.708 22.8492C17.2951 22.6739 16.8822 22.6569 16.475 22.8492C15.7679 23.0132 15.2928 23.494 14.9025 24.054C13.8618 25.5585 13.8279 27.1536 14.5745 28.7826C14.6876 29.0258 14.9195 29.2068 15.0949 29.4218C15.4908 29.9648 16.0225 30.2702 16.7012 30.3211Z" fill="#31221A"/>
<path d="M24.4952 37.7015C24.4556 37.4583 24.4217 37.2207 24.3821 36.9775C24.4726 36.8021 24.5631 36.6211 24.6479 36.4458C24.8459 36.3327 25.0043 36.2082 24.8516 35.9537C24.9364 35.8349 25.0439 35.7218 25.1004 35.5917C25.5925 34.37 26.062 33.1426 26.3505 31.8416C26.7803 29.9185 26.8878 28.001 26.6898 26.044C26.4014 23.1763 25.4342 20.5687 23.8165 18.1988C23.3923 17.5822 22.9115 16.9997 22.459 16.4001C22.5551 16.4057 22.6739 16.3775 22.7418 16.4227C23.4319 16.8922 23.9805 17.5087 24.4613 18.1818C25.4568 19.5846 26.1695 21.1117 26.6785 22.7634C27.0688 24.0473 27.2046 25.3596 27.4252 26.6662C27.4252 26.7171 27.4308 26.7623 27.4308 26.8132C27.4308 27.5938 27.4308 28.38 27.4308 29.1606C27.4308 29.2058 27.4308 29.2567 27.4252 29.302C27.1706 30.8631 26.8991 32.4129 26.4353 33.9288C26.079 35.0826 25.5247 36.1404 24.9364 37.1811C24.8176 37.3791 24.6423 37.5318 24.4952 37.7015Z" fill="#691D0F"/>
<path d="M16.1241 19.7599C15.8526 19.8164 15.5811 19.8673 15.1738 19.9465C15.6376 19.313 16.1184 18.9341 16.7915 18.8775C17.804 18.7983 18.856 19.4601 19.3085 20.4273C19.3821 20.58 19.4386 20.7384 19.5178 20.9364C19.2746 20.9533 19.1728 20.7837 19.0484 20.6705C18.5393 20.2067 17.951 19.89 17.2666 19.7655C16.882 19.6185 16.503 19.6354 16.1241 19.7599Z" fill="#31221A"/>
<path d="M13.4945 25.8799C13.4945 26.3833 13.5002 26.8867 13.5002 27.3901C13.3418 26.8867 13.3475 26.3833 13.4945 25.8799Z" fill="#703C40"/>
<path d="M16.125 19.7621C16.504 19.6377 16.8829 19.6207 17.2619 19.7678C16.8829 19.7678 16.504 19.7621 16.125 19.7621Z" fill="#703C40"/>
<path d="M24.8521 35.9541C25.0048 36.2086 24.8464 36.3331 24.6484 36.4462C24.7163 36.2822 24.7842 36.1181 24.8521 35.9541Z" fill="#B73F23"/>
<path d="M13.5107 27.5879C13.5164 27.6275 13.522 27.6671 13.522 27.7067C13.5107 27.6784 13.4937 27.6558 13.4824 27.6275C13.4824 27.6162 13.505 27.6049 13.5107 27.5879Z" fill="#703C40"/>
<path d="M33.5742 27.1377C34.1342 27.2508 34.4736 27.4827 34.7847 27.8504C35.141 28.2689 35.486 28.6705 35.6501 29.2135C36.0064 30.3844 35.848 31.4477 35.0279 32.3641C34.6659 32.7713 34.1738 33.0145 33.5968 33.1107C33.5629 32.8448 33.7609 32.7543 33.8797 32.6412C34.4905 32.0586 34.8073 31.3177 34.9826 30.5258C35.124 29.8923 34.9204 29.2871 34.598 28.7441C34.3491 28.3312 34.0211 27.9635 33.7382 27.5676C33.6704 27.4658 33.6477 27.3357 33.5742 27.1377Z" fill="#B73F23"/>
<path d="M29.5918 23.5498C30.74 23.8043 31.6959 24.8507 31.843 25.9141C31.9165 26.4288 32.007 26.9379 31.843 27.4696C31.6733 28.0182 31.3848 28.4424 30.9097 28.7422C30.6552 28.9063 30.4459 29.1664 29.9877 29.1495C30.1631 28.8836 30.2875 28.6857 30.4233 28.499C30.8418 27.9334 30.9663 27.266 31.0341 26.5985C31.0681 26.2987 30.9832 25.9594 30.8645 25.6709C30.6099 25.0487 30.3497 24.4265 29.8407 23.9457C29.7558 23.8609 29.7049 23.7308 29.5918 23.5498Z" fill="#B73F23"/>
<path d="M33.1332 26.0343C33.7441 25.1236 34.0665 24.2413 33.8402 23.291C33.6197 22.3747 33.0823 21.6055 32.4375 20.8984C33.1558 21.0285 33.6932 21.4414 34.0552 22.0014C34.4568 22.6292 34.7509 23.3193 34.6887 24.1168C34.6604 24.4675 34.6095 24.7843 34.3719 25.0501C34.1061 25.3442 33.8459 25.6384 33.5687 25.9155C33.5065 25.9777 33.3764 25.9721 33.1332 26.0343Z" fill="#B73F23"/>
<path d="M29.6758 35.1672C29.9133 34.9183 30.1113 34.6808 30.3432 34.4772C31.0333 33.8606 31.1747 33.0518 31.0276 32.2147C30.9541 31.8187 30.6487 31.4624 30.4224 31.1004C30.2753 30.8685 30.0943 30.6592 29.8851 30.3877C30.9145 30.6705 32.108 31.7508 31.8478 33.1027C31.6668 34.0247 31.0955 34.6299 30.3545 35.1163C30.1735 35.2351 29.9756 35.3708 29.6758 35.1672Z" fill="#B73F23"/>
<path d="M27.5488 17.7578C28.2615 17.9218 28.7479 18.4139 29.2061 18.9343C29.7265 19.5226 29.8057 20.2409 29.6699 20.9479C29.5511 21.5758 29.1326 22.0452 28.4878 22.2602C28.4651 22.2658 28.4255 22.2319 28.3407 22.1866C28.4482 22.017 28.533 21.836 28.6631 21.6889C29.2061 21.0611 29.093 20.354 28.878 19.6696C28.714 19.1492 28.3577 18.7194 27.9617 18.3347C27.7977 18.1764 27.6846 17.9558 27.5488 17.7578Z" fill="#B73F23"/>
<path d="M37.3522 29.4712C37.669 29.064 37.8839 28.6963 37.8387 28.2438C37.7651 27.5481 37.6577 26.8694 37.109 26.349C36.911 26.1623 36.7753 25.9135 36.5547 25.625C37.0015 25.6363 37.3013 25.823 37.5558 26.0379C38.1271 26.5187 38.4495 27.1805 38.4891 27.8988C38.5287 28.5493 38.2063 29.1262 37.6237 29.4939C37.5898 29.5165 37.5219 29.4882 37.3522 29.4712Z" fill="#B73F23"/>
<path d="M30.6043 45.0092C30.3554 44.8451 30.0782 44.715 29.8633 44.5114C28.4153 43.1766 27.2218 41.6437 26.3451 39.8733C26.2942 39.7715 26.2716 39.6527 26.3112 39.5C26.5657 39.862 26.8429 40.207 27.0691 40.586C27.9232 41.9887 28.9583 43.2444 30.1348 44.3926C30.3158 44.5736 30.4459 44.8056 30.6043 45.0092Z" fill="#691D0F"/>
<path d="M36.6738 34.4463C36.9284 34.1182 37.115 33.8467 37.3356 33.5979C37.6806 33.2076 37.7598 32.7098 37.7768 32.2404C37.7881 31.9689 37.5392 31.6804 37.3865 31.3467C37.6297 31.3523 37.8277 31.4768 37.9917 31.6691C38.4669 32.2404 38.4838 33.004 37.9634 33.6092C37.675 33.9429 37.2904 34.1918 36.9397 34.4689C36.9114 34.4915 36.8379 34.4633 36.6738 34.4463Z" fill="#B73F23"/>
<path d="M28.4654 39.6836C28.5332 39.7119 28.6181 39.7175 28.669 39.7628C29.5514 40.5547 30.4281 41.3522 31.3048 42.1497C31.3444 42.1893 31.3727 42.2346 31.4066 42.2798L31.3727 42.3137C30.8693 42.2346 30.6091 41.7877 30.2414 41.5162C29.6928 41.1033 29.2063 40.5999 28.7086 40.1248C28.5898 40.0117 28.5219 39.8589 28.4258 39.7232L28.4654 39.6836Z" fill="#B73F23"/>
<path d="M28.4312 39.7232C28.0409 39.6101 27.7638 39.3669 27.5488 39.0049C27.8825 39.0275 27.9221 39.0558 28.4651 39.6836L28.4312 39.7232Z" fill="#B73F23"/>
<path d="M28.2283 37.1874C27.7022 37.1874 27.1762 37.1874 26.6445 37.1874C27.1706 37.0404 27.6966 37.0404 28.2283 37.1874Z" fill="#B73F23"/>
<path d="M26.6156 37.1992C26.6213 37.2841 26.627 37.3632 26.627 37.4481C26.429 37.4481 26.231 37.4481 25.9199 37.4481C26.1745 37.1144 26.4177 37.2445 26.6156 37.1992Z" fill="#B73F23"/>
<path d="M31.7239 42.6509C31.5203 42.6282 31.4072 42.5151 31.3789 42.3171L31.4128 42.2832C31.6108 42.3115 31.7296 42.4246 31.7522 42.6282L31.7239 42.6509Z" fill="#B73F23"/>
<path d="M27.5494 17.7593C27.4985 17.748 27.4532 17.731 27.4023 17.7197C27.4532 17.7367 27.4985 17.748 27.5494 17.7593Z" fill="#B73F23"/>
<path d="M31.7473 42.625C31.7586 42.6477 31.7757 42.6704 31.787 42.6874C31.7643 42.6761 31.7416 42.659 31.7246 42.6477C31.7246 42.6534 31.7473 42.625 31.7473 42.625Z" fill="#B73F23"/>
<path d="M27.4256 26.8209C27.4256 26.7756 27.4199 26.7247 27.4199 26.6738C27.4199 26.7247 27.4199 26.7756 27.4256 26.8209Z" fill="#B73F23"/>
<path d="M32.063 42.8739C32.0459 42.8512 32.0346 42.8342 32.0176 42.8115C32.0403 42.8229 32.0573 42.8399 32.08 42.8512L32.063 42.8739Z" fill="#B73F23"/>
<path d="M32.0815 42.8564C32.0928 42.8791 32.1098 42.8962 32.1212 42.9188C32.1042 42.9075 32.0815 42.8905 32.0645 42.8791C32.0645 42.8735 32.0815 42.8564 32.0815 42.8564Z" fill="#B73F23"/>
<path d="M30.5977 45.0088C30.6147 45.0145 30.626 45.0201 30.643 45.0315C30.6317 45.0258 30.6147 45.0145 30.5977 45.0088Z" fill="#691D0F"/>
<path d="M45.293 32.4769C45.0045 32.3015 44.6821 32.1714 44.4446 31.9452C43.9016 31.4305 43.2455 31.0685 42.6685 30.599C42.4479 30.418 42.3801 30.2483 42.3744 29.9881C42.3687 29.694 42.2896 29.3999 42.2952 29.1001C42.3009 28.772 42.3122 28.4609 42.6572 28.2234C43.4604 27.6691 44.224 27.0695 45.0045 26.4869C45.0894 26.4247 45.2025 26.3851 45.2987 26.3398C45.5136 26.8885 45.4457 27.5163 45.7568 28.0367C45.9039 28.2856 46.0849 28.5118 46.2885 28.806C46.2715 28.8342 46.2206 28.9191 46.1584 29.0039C45.9944 29.2358 45.8926 29.4508 46.1528 29.6996C46.3677 29.8976 46.3677 30.1917 46.3111 30.4406C46.2489 30.7234 46.232 30.9497 46.543 31.0911C46.3281 31.4983 45.9774 31.6906 45.6494 31.8943C45.4175 32.03 45.2817 32.2054 45.293 32.4769Z" fill="#B73F23"/>
<path d="M46.7752 24.7032C46.368 24.9973 45.9664 25.3084 45.5422 25.5913C44.5693 26.2361 43.5908 26.8696 42.6123 27.4974C42.4595 27.5936 42.2898 27.6614 42.1315 27.735C41.7186 27.158 41.7073 27.0845 42.0523 26.6037C42.8159 25.5347 43.5908 24.4713 44.3657 23.4079C44.4279 23.3174 44.5297 23.2552 44.6089 23.176C44.6711 23.2043 44.7447 23.2665 44.7956 23.2552C45.1236 23.1704 45.4517 23.0686 45.8759 22.9385C45.7684 23.1874 45.7006 23.3288 45.627 23.5041C45.9834 23.7417 46.0682 24.3752 46.7413 24.1037C46.7583 24.3356 46.7696 24.5222 46.7752 24.7032Z" fill="#B73F23"/>
<path d="M44.1735 34.9488C43.4891 34.0155 42.8047 33.0879 42.1316 32.149C42.0694 32.0585 42.0638 31.9001 42.0864 31.787C42.126 31.589 42.2165 31.3967 42.307 31.1309C43.1271 31.7021 43.9247 32.2565 44.7222 32.8108C44.6147 33.1671 44.4959 33.5121 44.4054 33.8741C44.3093 34.2305 44.2471 34.5925 44.1735 34.9488Z" fill="#B73F23"/>
<path d="M47.793 39.1492C47.8835 39.104 47.9683 39.0587 48.0588 39.0078C48.4265 39.1662 48.7376 39.3924 48.9808 39.7262C48.6584 39.7431 48.483 39.6583 47.793 39.1492Z" fill="#B73F23"/>
<path d="M45.418 26.2306C45.5707 26.1231 45.7234 26.0157 45.8705 25.9082C45.8705 26.1401 45.8648 26.372 45.599 26.6039C45.5254 26.4512 45.4745 26.3437 45.418 26.2306Z" fill="#B73F23"/>
<path d="M42.8613 22.3108C42.8726 22.2826 42.884 22.2317 42.9066 22.2203C42.9292 22.209 42.9858 22.2373 42.9914 22.2599C43.0027 22.2826 42.9745 22.3391 42.9518 22.3448C42.9292 22.3561 42.8896 22.3278 42.8613 22.3108Z" fill="#B73F23"/>
<path d="M49.0377 17.9913C49.0434 17.9799 49.0491 17.9684 49.0548 17.957C49.0491 17.9627 49.0434 17.9742 49.0377 17.9913Z" fill="#691D0F"/>
<path d="M48.0267 38.987C47.9925 38.9584 47.9639 38.9299 47.9297 38.9014C47.9582 38.9299 47.9925 38.9584 48.0267 38.987Z" fill="#B73F23"/>
<path d="M26.1816 9.16808C26.0741 9.12849 25.961 9.09455 25.8535 9.05496C26.1194 8.90224 26.3852 8.74952 26.7472 8.5459C26.6567 8.97577 26.3682 9.02102 26.1816 9.16808Z" fill="#B73F23"/>
<path d="M19.9824 27.3853C19.9089 28.098 19.643 28.7428 19.2018 29.3084C18.9586 29.2801 18.6532 29.348 18.6136 28.969C18.9699 28.2111 19.2867 27.4475 19.1622 26.5821C19.1622 26.5425 19.1566 26.5086 19.1566 26.469C19.1566 26.3898 19.1566 26.3163 19.1509 26.2371C19.1226 26.1975 19.0944 26.1579 19.0661 26.1183C19.1113 25.8242 19.0378 25.5583 18.8398 25.3321C18.7437 25.1737 18.6475 25.0153 18.5514 24.857C18.376 24.5515 18.1385 24.3309 17.7651 24.3083C17.6294 24.2744 17.4936 24.2461 17.3636 24.2122C17.3353 24.1782 17.3013 24.1726 17.2617 24.1952C17.0864 24.2348 16.9111 24.2687 16.7357 24.3083L16.6905 24.3196C16.6056 24.3479 16.5264 24.3818 16.4416 24.4101C15.8307 24.6929 15.5309 25.202 15.4235 25.8411C15.3895 25.9373 15.3612 26.0335 15.3273 26.124C15.3216 26.1918 15.3216 26.2597 15.316 26.3219C15.299 26.3672 15.2821 26.4124 15.2594 26.452C15.2538 26.5708 15.2481 26.6839 15.2425 26.8027C15.2368 26.8366 15.2311 26.8762 15.2311 26.9102C15.2311 26.9894 15.2368 27.0629 15.2368 27.1421C15.2198 27.1817 15.2198 27.21 15.2481 27.2439C15.2538 27.3287 15.2651 27.4079 15.2707 27.4928C15.2821 27.5267 15.299 27.5663 15.3103 27.6002C15.3556 27.8378 15.3669 28.081 15.4461 28.3016C15.678 28.9521 16.057 29.4611 16.7866 29.6195C16.8715 29.6365 16.945 29.693 17.0242 29.7326C16.5604 29.9136 16.1305 29.8514 15.7006 29.5969C15.5196 29.4894 15.2877 29.4668 15.0784 29.4046C14.9031 29.1953 14.6655 29.0086 14.5581 28.7654C13.8114 27.1364 13.8454 25.5414 14.8861 24.0368C15.2707 23.4768 15.7515 22.9961 16.4586 22.832C16.8715 22.832 17.2844 22.832 17.6916 22.832C19.1962 23.4033 19.7957 24.6024 19.9711 26.1013C19.988 26.1466 20.005 26.1918 20.022 26.2371C20.022 26.5651 20.022 26.8989 20.022 27.2269C20.0163 27.2891 19.9994 27.3401 19.9824 27.3853Z" fill="#FFFAF4"/>
<path d="M18.6137 28.9688C18.6533 29.3534 18.9587 29.2798 19.2019 29.3081C18.789 29.9133 18.2008 30.2244 17.4881 30.3262C17.2222 30.3262 16.9621 30.3206 16.6962 30.3206C16.0231 30.2697 15.4858 29.9642 15.0898 29.4156C15.2991 29.4778 15.531 29.5004 15.712 29.6079C16.1419 29.8624 16.5718 29.9247 17.0356 29.7437C17.1035 29.7437 17.1713 29.7437 17.2449 29.7437C17.2845 29.7154 17.3241 29.6871 17.3637 29.6588C17.9293 29.6984 18.2517 29.2912 18.6137 28.9688Z" fill="#E6DED1"/>
<path d="M17.7018 22.8479C17.2889 22.8479 16.876 22.8479 16.4688 22.8479C16.8817 22.6556 17.2946 22.6726 17.7018 22.8479Z" fill="#B2AFA6"/>
<path d="M16.7012 30.3203C16.967 30.3203 17.2272 30.326 17.493 30.326C17.2272 30.326 16.9614 30.3203 16.7012 30.3203Z" fill="#E6A872"/>
<path d="M19.9824 27.3857C19.9994 27.3405 20.0164 27.2952 20.0333 27.25C20.0164 27.2896 19.9994 27.3405 19.9824 27.3857Z" fill="#B2AFA6"/>
<path d="M18.6135 28.9693C18.2459 29.2917 17.9291 29.7046 17.3635 29.665C17.3239 29.6933 17.2843 29.7216 17.2447 29.7498C17.1768 29.7498 17.1089 29.7498 17.0354 29.7498C16.9562 29.7102 16.8827 29.6537 16.7979 29.6367C16.0739 29.4783 15.6949 28.9636 15.463 28.3132C15.3838 28.0926 15.3725 27.8437 15.3272 27.6118C15.3159 27.5778 15.299 27.5383 15.2876 27.5043C15.282 27.4195 15.2707 27.3403 15.265 27.2554C15.2763 27.2441 15.2933 27.2272 15.2933 27.2215C15.282 27.1989 15.265 27.1763 15.2537 27.1536C15.2537 27.0744 15.248 27.0009 15.248 26.9217C15.2594 26.9104 15.2876 26.8991 15.2876 26.8934C15.282 26.8652 15.2707 26.8369 15.265 26.8143C15.2707 26.6955 15.2763 26.5824 15.282 26.4636C15.299 26.4183 15.3159 26.3731 15.3385 26.3335C15.3442 26.2656 15.3442 26.1977 15.3499 26.1355C15.3838 26.0394 15.4121 25.9432 15.446 25.8527C15.5535 25.2135 15.8533 24.7045 16.4641 24.4217C16.5264 24.6423 16.5659 24.8855 16.8261 24.9703C17.1033 24.6762 16.6847 24.5518 16.713 24.3255L16.7583 24.3142C16.9336 24.2746 17.1089 24.2407 17.2843 24.2011C17.3239 24.1784 17.3578 24.1841 17.3861 24.218C17.5219 24.252 17.6576 24.2803 17.7877 24.3142C18.161 24.3425 18.3986 24.5574 18.5739 24.8629C18.2911 24.8855 18.2232 25.1513 18.0705 25.321C18.0309 25.321 17.997 25.3267 17.9574 25.3267C17.8329 25.0778 17.816 25.0778 17.6237 25.3436C17.5332 25.5699 17.4483 25.7961 17.3578 26.0224C17.3465 26.0337 17.3239 26.0507 17.3295 26.062C17.3409 26.0903 17.3635 26.1129 17.3804 26.1355C17.5501 26.4466 17.7594 26.5484 18.0818 26.4749C18.3533 26.4127 18.4099 26.1977 18.4155 25.9602C18.4212 25.864 18.4212 25.7735 18.4212 25.6774C18.5683 25.5642 18.7153 25.4511 18.8567 25.338C19.049 25.5642 19.1282 25.8244 19.083 26.1242C19.1113 26.1638 19.1395 26.2034 19.1678 26.243C19.1678 26.3222 19.1678 26.3957 19.1735 26.4749C19.1622 26.4862 19.1395 26.5032 19.1395 26.5088C19.1508 26.5371 19.1678 26.5597 19.1791 26.588C19.2866 27.4478 18.9699 28.2113 18.6135 28.9693Z" fill="#181427"/>
<path d="M18.0527 25.3146C18.2055 25.1449 18.2733 24.8847 18.5561 24.8564C18.6523 25.0148 18.7485 25.1732 18.8446 25.3316C18.6975 25.4447 18.5505 25.5578 18.4091 25.6709C18.2846 25.5522 18.1659 25.4334 18.0527 25.3146Z" fill="#261D13"/>
<path d="M16.6961 24.3193C16.6679 24.5399 17.0864 24.67 16.8093 24.9641C16.5491 24.8736 16.5095 24.6361 16.4473 24.4155C16.5321 24.3816 16.617 24.3476 16.6961 24.3193Z" fill="#261D13"/>
<path d="M17.2663 24.1963C17.0909 24.2359 16.9156 24.2698 16.7402 24.3094C16.9156 24.2755 17.0909 24.2359 17.2663 24.1963Z" fill="#261D13"/>
<path d="M17.7707 24.309C17.635 24.2751 17.4992 24.2468 17.3691 24.2129C17.4992 24.2468 17.635 24.2808 17.7707 24.309Z" fill="#261D13"/>
<path d="M15.4343 25.8408C15.4003 25.9373 15.3719 26.0337 15.3379 26.1245C15.3663 26.0337 15.4003 25.9373 15.4343 25.8408Z" fill="#261D13"/>
<path d="M19.1607 26.5819C19.1437 26.5592 19.1267 26.531 19.1211 26.5027C19.1211 26.497 19.1437 26.4801 19.155 26.4688C19.155 26.5083 19.1607 26.5423 19.1607 26.5819Z" fill="#261D13"/>
<path d="M15.2871 27.498C15.2985 27.5323 15.3156 27.5722 15.3271 27.6065C15.3156 27.5722 15.2985 27.538 15.2871 27.498Z" fill="#261D13"/>
<path d="M15.2482 27.1475C15.2596 27.1703 15.2768 27.1931 15.2882 27.2159C15.2882 27.2216 15.2711 27.2388 15.2596 27.2502C15.2368 27.2216 15.2311 27.1874 15.2482 27.1475Z" fill="#261D13"/>
<path d="M15.2534 26.8096C15.2649 26.8381 15.2763 26.8609 15.2763 26.8895C15.2763 26.8952 15.2534 26.9066 15.2363 26.918C15.2477 26.8838 15.2477 26.8495 15.2534 26.8096Z" fill="#261D13"/>
<path d="M15.3261 26.3271C15.3091 26.3724 15.2922 26.4176 15.2695 26.4572C15.2865 26.4176 15.3035 26.3724 15.3261 26.3271Z" fill="#261D13"/>
<path d="M18.0529 25.3164C18.1717 25.4352 18.2905 25.554 18.4093 25.6727C18.4093 25.7689 18.4093 25.8594 18.4036 25.9556C18.3923 26.1931 18.3414 26.4081 18.0699 26.4703C17.7418 26.5438 17.5326 26.442 17.3685 26.1309C17.3629 26.0913 17.3572 26.0574 17.3516 26.0178C17.4421 25.7915 17.5269 25.5653 17.6174 25.339C17.7305 25.3334 17.838 25.3277 17.9511 25.3221C17.9738 25.3221 18.0133 25.3164 18.0529 25.3164Z" fill="#FFFAF4"/>
<path d="M17.9333 25.3213C17.8202 25.327 17.7127 25.3326 17.5996 25.3383C17.7919 25.0724 17.8089 25.0724 17.9333 25.3213Z" fill="#261D13"/>
<path d="M17.3406 26.0176C17.3462 26.0572 17.3519 26.0911 17.3575 26.1307C17.3406 26.1081 17.318 26.0855 17.3066 26.0572C17.3066 26.0515 17.3293 26.0289 17.3406 26.0176Z" fill="#261D13"/>
</svg>
