<svg width="57" height="57" viewBox="0 0 57 57" fill="none" xmlns="http://www.w3.org/2000/svg">
<g clip-path="url(#clip0_4631_52856)">
<rect width="57" height="57" rx="28.5" fill="#F6F6FE"/>
<path d="M12.1938 16.0577C20.0898 5.6436 39.2237 10.3433 41.7199 25.8305C41.1902 27.602 41.0101 28.4006 41.0821 30.326C41.2217 31.3664 41.3281 31.9522 41.8526 32.7993C41.5981 33.9354 41.4265 34.6927 41.0455 35.7789C40.7784 36.5403 40.2596 37.5957 40.0971 38.3158C40.8264 38.0281 41.7457 33.9519 42.2147 33.277C42.9412 33.7409 43.2472 33.6785 44.024 33.6574C43.7872 34.7625 43.2523 35.6834 42.7209 36.5706C39.4896 40.7966 35.052 42.6105 30.8191 44.1458C28.1335 44.8734 27.1599 44.9786 24.5046 45.2166C21.6228 45.2011 18.4796 44.6634 15.9708 42.6357C15.1128 41.955 14.6123 40.9505 14.0568 39.8763L14.0116 39.6435L14.249 39.58C12.8716 37.9984 12.2207 35.5856 12.0777 33.2123C12.1131 32.59 12.0056 32.0454 12.1903 31.5518L12.5524 31.4276C12.5439 31.1262 12.4729 30.8127 12.4186 30.517L12.374 30.0783C12.041 28.1649 12.1875 27.0163 12.0942 25.0932L11.6418 24.9347C11.5079 25.064 11.5497 24.9805 11.5056 25.175C11.4936 25.1407 11.4004 24.6207 11.3752 24.52C11.2202 23.9137 10.9857 23.491 10.7037 22.9893L10.6917 22.8549C9.82221 20.8294 11.1333 17.5638 12.1938 16.0577Z" fill="#E8D9C1"/>
<path d="M22.9836 18.9677C24.8575 19.3784 27.4819 17.4794 29.0366 16.2461C29.6407 16.5184 29.949 16.6808 30.5874 16.722C31.3424 18.4918 32.1907 19.1096 33.5676 19.752C34.1047 20.6758 34.3701 20.9926 35.092 21.6545C35.3196 23.1777 35.3488 23.3962 35.938 24.7067C35.9157 25.8593 35.493 28.1977 35.6937 28.7486C36.0444 28.9934 36.1788 28.7692 36.4791 28.4751C36.8658 29.28 36.7491 29.6432 37.1455 30.4663C36.784 30.8622 36.5111 31.1013 36.2709 31.639L36.26 31.842C36.84 32.2173 37.6266 31.3461 38.3296 32.4821C37.7518 33.0032 37.2782 33.3842 36.5672 33.5695C36.1508 33.6782 35.6154 33.2623 35.2899 33.4185C34.739 34.2387 34.1619 35.5967 33.5927 36.2562C31.3304 38.7107 27.9395 40.7185 25.0423 41.0846C23.1192 41.3277 21.8865 40.5343 20.4856 38.9155C19.2289 37.4632 17.7342 36.346 17.0959 34.1364L16.8259 32.3488C16.8585 31.1585 16.8734 29.6506 16.7504 28.4706C16.4638 25.7152 15.7568 22.87 16.7858 20.2033C17.065 19.9962 17.5729 19.482 17.9499 19.1868C18.4853 19.4642 18.8371 19.3001 19.365 18.9769C19.468 18.9134 19.5698 18.8465 19.6705 18.7767C19.9176 19.4677 19.9548 19.645 20.4336 20.0128C20.9833 19.6078 21.819 18.3848 22.2606 18.4255C22.2652 18.7017 22.252 18.6954 22.3492 18.9323L22.4728 18.8888C22.5952 18.9065 22.8772 18.9363 22.9836 18.9677Z" fill="#E2BB95"/>
<path d="M27.7468 26.5058L27.6193 26.3491L27.617 26.1088L27.4883 25.9996L27.5283 26.1037L27.5003 25.9715L27.6502 26.0236L27.7468 25.9435C27.7205 24.283 29.2083 24.2606 30.1052 24.4906C30.433 24.5747 30.4593 24.6559 30.6086 25.0037C31.6125 25.3143 32.9138 26.1449 32.558 27.83L32.4316 27.9593L32.363 27.4313C32.3006 28.4998 31.9099 29.1136 31.0668 29.133C30.5417 29.3001 30.3821 29.4059 29.8461 29.2297C28.9698 29.7348 27.3842 28.5816 27.8744 26.7146L27.7531 26.5893L27.7468 26.5058Z" fill="#36382A"/>
<path d="M27.8733 26.7151C28.6455 26.218 28.3675 25.9131 29.424 25.948C28.9229 27.1338 28.8806 28.4569 29.845 29.2302C28.9687 29.7353 27.3831 28.5821 27.8733 26.7151Z" fill="#E8D9C1"/>
<path d="M29.7733 25.6506L29.9895 25.5156C30.1966 25.8028 30.4111 25.6827 30.6965 25.8462L30.6845 25.9847L30.4191 26.0642L30.3184 26.3067L30.4505 26.4171C30.391 26.5607 30.4031 26.738 30.4797 26.8656C30.5564 26.9931 30.6833 27.0446 30.7995 26.9954C30.8189 27.4216 30.8366 27.5497 30.7789 27.961C30.7697 28.0674 30.7291 28.0628 30.6273 28.172C30.3207 28.2264 30.073 27.9741 29.7916 27.7659C29.5239 27.7768 29.6446 27.7167 29.4324 28.0033C29.1904 27.2082 29.5999 26.5395 29.7367 25.8434L29.7733 25.6506Z" fill="#313935"/>
<path d="M30.3184 26.3047L30.4506 26.4151C30.3911 26.5587 30.4031 26.736 30.4797 26.8635C30.5564 26.9911 30.6834 27.0426 30.7995 26.9934C30.819 27.4195 30.8367 27.5477 30.7789 27.959C30.4243 27.9973 30.3184 27.9692 30.1251 27.5563C30.0679 26.9127 30.1085 26.9179 30.3184 26.3047Z" fill="#1F221B"/>
<path d="M27.7468 26.5058L27.6193 26.3491L27.617 26.1088L27.4883 25.9996L27.5283 26.1037L27.5003 25.9715L27.6502 26.0236L27.7468 25.9435C27.7205 24.283 29.2083 24.2606 30.1052 24.4906C30.433 24.5747 30.4593 24.6559 30.6086 25.0037C29.4926 24.8721 28.2342 24.8458 27.7468 26.5058Z" fill="#C69F69"/>
<path d="M31.0664 29.1336C31.8695 27.9672 31.7809 27.3392 31.4908 25.8828C31.9439 26.4462 32.151 26.6596 32.3626 27.4318C32.3002 28.5003 31.9096 29.1141 31.0664 29.1336Z" fill="#E8D9C1"/>
<path d="M27.752 26.5917C28.4601 26.0923 28.892 25.0535 29.9891 25.5129L29.7729 25.6479L29.4239 25.9499C28.3674 25.915 28.6454 26.2199 27.8732 26.717L27.752 26.5917Z" fill="#B0A695"/>
<path d="M30.4497 26.4095C30.5149 26.2516 30.6499 26.1721 30.7804 26.2144C30.9102 26.2573 31.0034 26.4117 31.008 26.5919C31.012 26.7721 30.9268 26.934 30.7987 26.9878C30.6826 27.0369 30.5556 26.9855 30.4789 26.8579C30.4023 26.7303 30.3903 26.553 30.4497 26.4095Z" fill="#E8D9C1"/>
<path d="M17.7508 26.0598C18.4446 24.8964 18.8702 24.8609 19.9107 24.8678C20.3008 25.0108 20.5863 25.1063 20.9609 25.3254C21.3939 25.8619 21.466 25.8631 21.5003 26.6015L21.4609 26.5123L21.4717 26.6353C21.601 28.2215 21.1577 29.477 19.8444 29.1487C18.4841 29.2391 17.9247 28.6734 17.919 26.907C17.8955 27.2416 17.9007 27.4355 17.788 27.7387C17.6084 27.4956 17.6147 27.3211 17.5363 26.9556C17.5203 26.5049 17.4688 26.2944 17.3984 25.8493L17.4905 25.7944L17.7508 26.0598Z" fill="#36382A"/>
<path d="M18.3821 25.9083C18.9713 25.9746 19.1366 25.6772 19.6623 25.7859C18.9301 26.8738 18.9661 28.2369 19.8453 29.1459C18.4851 29.2362 17.9256 28.6705 17.9199 26.9041C18.0315 26.3899 18.111 26.2789 18.3821 25.9083Z" fill="#E8D9C1"/>
<path d="M20.2215 25.4609C20.4302 25.8488 20.5384 25.6068 20.8226 26.0221L20.9222 26.4419L20.9056 26.4808C20.9388 26.6198 20.909 26.772 20.8295 26.8709C20.8129 27.4819 20.7231 27.5654 20.4028 28.047C20.023 27.805 19.9555 27.7873 19.543 27.9023L19.4326 27.0197L19.4149 27.0803C19.3325 26.8029 19.6231 26.2864 19.7198 25.9529L19.757 25.8219C19.8754 25.6703 20.067 25.5662 20.2215 25.4609Z" fill="#313935"/>
<path d="M20.4019 28.0505C20.1085 27.61 19.9563 26.9368 20.2675 26.4414L20.375 26.7074C20.4025 26.8309 20.4751 26.9259 20.5672 26.9602C20.6599 26.994 20.7583 26.9614 20.8286 26.8744C20.812 27.4853 20.7222 27.5688 20.4019 28.0505Z" fill="#1F221B"/>
<path d="M20.3735 26.7087C20.3289 26.5125 20.4107 26.3049 20.556 26.2437C20.7013 26.1825 20.8563 26.2906 20.9032 26.4856C20.9364 26.6246 20.9066 26.7768 20.8271 26.8757C20.7568 26.9627 20.6584 26.9953 20.5657 26.9615C20.4736 26.9272 20.401 26.8323 20.3735 26.7087Z" fill="#E8D9C1"/>
<path d="M18.3809 25.9093C18.9969 25.2023 19.4751 25.2853 20.2193 25.4643C20.0649 25.5696 19.8732 25.6737 19.7548 25.8253L19.661 25.7869C19.1354 25.6782 18.97 25.9757 18.3809 25.9093Z" fill="#B0A695"/>
<path d="M17.5363 26.9542C17.5203 26.5034 17.4688 26.2929 17.3984 25.8479L17.4905 25.793L17.7508 26.0584C17.6564 26.3993 17.5998 26.6029 17.5363 26.9542Z" fill="#E2BB95"/>
<path d="M26.2893 22.709C27.665 20.8739 31.6084 21.0673 33.0642 22.868C33.3977 23.301 33.5647 23.6642 33.8238 24.1722L32.856 23.5704C31.9751 23.2449 31.22 23.2261 30.5714 23.0018L29.3089 22.9727C29.0727 23.1729 28.5253 23.6671 28.3136 23.8015C27.1502 24.6303 26.7475 25.0113 26.0176 23.3696C26.0439 22.9664 26.0445 23.083 26.2893 22.709Z" fill="#785933"/>
<path d="M26.2893 22.7087C27.1816 23.5856 29.6121 21.968 30.5954 22.8689L30.5714 23.0016L29.3089 22.9724C29.0727 23.1726 28.5253 23.6669 28.3136 23.8013C27.1502 24.6301 26.7475 25.0111 26.0176 23.3694C26.0439 22.9661 26.0445 23.0828 26.2893 22.7087Z" fill="#655535"/>
<path d="M26.0176 23.3733C26.3173 23.4236 27.0993 23.2297 27.4796 23.1914L27.4699 23.3573L27.8881 23.4986C28.1152 23.5724 28.1506 23.5655 28.3136 23.8052C27.1502 24.634 26.7475 25.015 26.0176 23.3733Z" fill="#C69F69"/>
<path d="M27.4785 23.1916C27.9081 23.0801 28.8381 23.0229 29.3078 22.9766C29.0715 23.1768 28.5241 23.671 28.3125 23.8054C28.1494 23.5657 28.114 23.5726 27.8869 23.4988L27.4688 23.3575L27.4785 23.1916Z" fill="#C59469"/>
<path d="M33.0637 22.8711C33.3972 23.3041 33.5642 23.6673 33.8233 24.1753L32.8555 23.5735L33.0637 23.3121V22.8711Z" fill="#655535"/>
<path d="M17.053 22.4757C18.0638 21.0245 20.1791 21.6154 21.2001 22.7548C21.4438 23.102 21.5084 23.1524 21.5702 23.61L21.5101 23.8067C21.5502 24.0876 21.5536 24.1236 21.5525 24.4085L21.4363 24.4348C20.981 24.1465 20.4719 23.5934 20.0566 23.1775L19.8479 23.1209C18.1759 22.9333 17.8327 22.9665 16.334 24.0144C16.5645 23.36 16.6795 23.0014 17.053 22.4757Z" fill="#785933"/>
<path d="M17.053 22.4727L17.1039 22.6997L16.9306 23.0761L16.9838 23.1476L17.0799 23.1002C18.0477 22.6374 18.7753 22.7118 19.7821 22.8199L19.8913 22.9406L19.8479 23.1179C18.1759 22.9303 17.8327 22.9634 16.334 24.0114C16.5645 23.357 16.6795 22.9983 17.053 22.4727Z" fill="#655535"/>
<path d="M21.2001 22.7539C21.4438 23.1011 21.5084 23.1515 21.5702 23.6091L21.5101 23.8058C21.5502 24.0867 21.5536 24.1227 21.5525 24.4076L21.4363 24.4339C20.981 24.1456 20.4719 23.5925 20.0566 23.1766L20.802 23.3528C21.116 23.247 21.0886 23.1074 21.2001 22.7539Z" fill="#C69F69"/>
<path d="M21.2009 22.7539C21.4445 23.1011 21.5092 23.1515 21.5709 23.6091C21.3559 23.5713 21.0241 23.4335 20.8027 23.3528C21.1168 23.247 21.0893 23.1074 21.2009 22.7539Z" fill="#655535"/>
<path d="M21.8732 24.1133C22.1341 24.2569 22.2851 24.6573 22.4269 24.9719C23.524 27.4149 21.9922 29.4387 21.5735 31.685C21.7954 32.5459 22.38 32.5505 22.757 33.17C22.7856 33.2163 22.8113 33.2649 22.8388 33.3118C22.3983 33.309 22.0019 32.9875 21.6696 32.6105C20.5616 31.3544 22.2256 29.2803 22.4858 27.9092C22.8136 26.1823 21.935 25.4907 21.8732 24.1133Z" fill="#785933"/>
<path d="M22.8672 37.0525C23.4518 36.985 24.8423 36.7963 25.3331 37.1492L25.3286 37.4381C24.9505 37.62 24.5746 37.6794 24.1742 37.6772C23.684 37.6743 23.2178 37.5279 22.8672 37.0525Z" fill="#C69F69"/>
<path d="M28.6464 34.4648L28.9095 34.5118L28.906 34.6713C28.1876 35.5414 25.621 35.4384 24.6268 35.4413C24.5679 35.4241 24.5159 35.3795 24.4609 35.3463C24.9958 35.05 25.9442 35.1884 26.5414 35.1249C27.2798 35.046 27.9599 34.8384 28.6464 34.4648Z" fill="#785933"/>
<path d="M19.912 24.8634L19.8497 24.821C19.5694 24.6363 19.4887 24.6082 19.1855 24.5139C19.5797 24.1095 20.9325 24.5671 21.3621 25.103L21.3346 25.1768C21.0549 25.2066 21.1624 25.1294 20.9622 25.321C20.5876 25.1019 20.3021 25.0064 19.912 24.8634Z" fill="#C69F69"/>
<path d="M20.6133 34.5559C20.7431 34.5422 20.8255 34.5536 20.9473 34.6183C21.8288 35.0856 22.7303 34.9764 23.4951 35.3659C22.9654 35.5129 22.3076 35.4323 21.7779 35.3047C21.3249 35.1949 20.8896 35.089 20.6133 34.5559Z" fill="#785933"/>
<path d="M23.9131 32.3164C24.2174 32.325 24.6075 32.3925 24.8643 32.619L24.7871 32.7546C24.4628 32.6619 24.1219 32.7546 23.8164 32.5709L23.9131 32.3164Z" fill="#785933"/>
<path d="M18.6587 12.896C26.1795 10.5513 37.3149 14.6303 40.0623 25.7463C40.1035 25.9139 40.0829 26.2027 40.0703 26.3743C39.9662 27.0813 39.8689 27.7906 39.7786 28.5016C39.5658 29.9031 39.5961 31.2719 39.3364 32.798L39.254 32.8032C39.3044 32.174 39.4445 31.5173 39.2975 31.0031L39.0624 31.4246L38.7587 31.9766C38.6151 32.1608 38.4933 32.3278 38.3308 32.484C37.6278 31.348 36.8413 32.2192 36.2613 31.8439L36.2721 31.6409C36.5124 31.1032 36.7852 30.8641 37.1467 30.4682C36.7503 29.6451 36.867 29.2819 36.4803 28.477C36.18 28.7711 36.0456 28.9953 35.695 28.7505C35.4942 28.1996 35.9169 25.8612 35.9392 24.7086C35.3501 23.3981 35.3209 23.1796 35.0932 21.6564C34.3713 20.9946 34.1059 20.6777 33.5688 19.7539C32.192 19.1115 31.3437 18.4937 30.5886 16.7239C29.9503 16.6827 29.6419 16.5203 29.0379 16.248C27.4832 17.4813 24.8588 19.3803 22.9848 18.9696C22.8785 18.9382 22.5965 18.9084 22.474 18.8907L22.3505 18.9342C22.2533 18.6974 22.2664 18.7036 22.2618 18.4274C21.8202 18.3867 20.9845 19.6097 20.4348 20.0147C19.956 19.6469 19.9189 19.4696 19.6718 18.7786C19.5711 18.8484 19.4693 18.9153 19.3663 18.9788C18.8383 19.302 18.4865 19.4661 17.9511 19.1887C17.5742 19.4839 17.0662 19.9981 16.7871 20.2052C15.758 22.8719 16.465 25.7171 16.7516 28.4725C16.8746 29.6525 16.8597 31.1604 16.8271 32.3507C16.7568 31.9846 16.6378 31.5493 16.5469 31.1855L16.4765 31.4286C16.3913 31.7438 16.4079 31.7467 16.2757 32.023C15.5087 30.7171 15.0974 28.7579 15.3548 27.1014C15.4652 26.3938 15.853 25.7754 15.7037 25.1748C15.4549 24.1761 14.5133 22.9011 14.3395 21.9149C14.4218 21.8686 14.5969 21.7262 14.6832 21.661C14.1553 19.9878 14.8382 18.659 15.4503 17.257C14.9246 17.7266 13.9797 17.892 13.6016 17.1146L13.6731 16.935L14.0454 16.8326L14.2325 16.7628C15.1071 16.3744 16.2763 15.1343 17.0628 14.3672C17.6325 13.9136 18.1582 13.6167 18.7605 13.2592L18.6587 12.896Z" fill="#44381F"/>
<path d="M15.4502 17.2542C17.3778 13.4338 23.9503 13.2513 26.9207 14.4027C27.4865 14.6218 28.0636 14.8718 28.6168 15.1475C27.4281 16.7022 26.0478 17.5631 24.4794 18.2272C24.1568 18.3639 23.5991 18.6471 23.2822 18.4703C23.3274 18.2787 24.2712 15.9209 24.4399 15.4158C22.5357 17.3109 21.9808 16.6353 20.2665 19.234C20.1086 19.0727 19.9897 18.5315 19.9908 18.2838C19.9994 16.7291 21.1617 15.9798 21.8504 15.0577C21.136 15.4758 21.005 15.6446 20.4519 16.3493C19.8953 17.058 19.3747 18.9583 18.6008 18.8948C18.5436 18.6368 18.8965 17.2977 18.9766 16.7926C18.0728 17.7713 17.4848 18.9909 16.4558 18.8404C16.279 18.5956 16.3099 18.5899 16.227 18.2467C16.0983 18.8513 15.9976 19.2214 15.9759 19.8557C15.7625 20.3019 15.2591 22.1421 15.0561 22.7581C14.8467 22.3085 14.8187 22.169 14.6831 21.6582C14.1551 19.985 14.8381 18.6562 15.4502 17.2542Z" fill="#A07D49"/>
<path d="M15.0344 20.2969C15.19 20.5348 15.1832 20.8506 15.2226 21.1595L15.071 21.1149C14.9658 20.8266 15.015 20.6132 15.0344 20.2969Z" fill="#AC7648"/>
<path d="M18.7605 13.2578C23.5077 11.7019 29.6362 13.1245 33.7993 16.5143C35.7894 18.105 37.4734 20.3039 38.7158 22.934C38.9892 23.5208 39.4056 24.376 39.3421 25.083C39.0327 25.6625 38.5316 25.5292 38.0311 25.6756L38.066 25.0647L38.0168 25.0521C37.7868 25.4932 36.708 27.5644 36.4191 27.7852C35.8998 27.3591 36.1634 25.655 36.303 24.9572L36.4906 24.8502L36.6588 24.7713C37.7136 22.45 35.0766 18.16 33.3486 17.64C33.2445 17.2756 33.1329 17.2013 32.8709 17.1927C32.2875 17.0382 31.2871 16.0858 30.8197 16.274C30.5537 15.7026 29.9176 15.5945 29.5007 15.4829C29.3147 15.4332 29.1346 14.7222 29.0453 14.4567L28.9366 14.407C28.8383 14.6632 28.7404 14.9132 28.6169 15.1489C28.0638 14.8732 27.4866 14.6232 26.9209 14.4041C23.9504 13.2527 17.378 13.4351 15.4503 17.2556C14.9246 17.7252 13.9797 17.8905 13.6016 17.1132L13.6731 16.9336L14.0454 16.8312L14.2325 16.7614C15.1071 16.373 16.2763 15.1329 17.0628 14.3658C17.6325 13.9122 18.1582 13.6153 18.7605 13.2578Z" fill="#785933"/>
<path d="M37.1369 27.2113C37.0877 27.5951 37.0213 27.825 37.1455 28.1677C37.6626 28.3759 38.0607 26.8023 39.6578 27.1581L39.5948 27.7529C39.2448 28.9513 39.2333 29.7596 39.298 31.0026L39.0629 31.4241L38.7591 31.9761C38.6155 32.1603 38.4937 32.3273 38.3313 32.4835C37.6283 31.3475 36.8417 32.2186 36.2617 31.8434L36.2726 31.6403C36.5128 31.1027 36.7857 30.8636 37.1472 30.4677C36.7508 29.6446 36.8675 29.2814 36.4808 28.4765C36.6896 28.0458 36.9087 27.6237 37.1369 27.2113Z" fill="#785933"/>
<path d="M38.7573 31.975C38.723 31.6118 38.6412 31.5168 38.4793 31.2228L38.4209 31.1181C38.5525 30.6925 38.7104 30.5032 38.8139 30.1783C39.1737 29.0469 38.1223 28.738 37.957 28.0424C38.3203 27.2696 39.0633 27.3405 39.593 27.7518C39.2429 28.9502 39.2315 29.7584 39.2961 31.0014L39.061 31.423L38.7573 31.975Z" fill="#C69F69"/>
<path d="M37.6154 28.6914C37.8774 28.7286 38.1988 28.8636 38.3601 29.1713C38.494 29.4264 38.5209 29.6472 38.4826 29.951C38.3922 30.666 38.0581 30.9686 37.648 31.3593C37.6034 31.3753 37.5605 31.4022 37.5147 31.4085C37.3391 31.4308 37.2596 31.3982 37.1406 31.238C37.1784 31.1825 37.2167 31.1276 37.251 31.0681C37.6108 30.4481 37.2745 30.0477 37.2018 29.3738C37.2991 29.0083 37.3986 28.9368 37.6154 28.6914Z" fill="#C69F69"/>
<path d="M33.3477 17.6367C35.0757 18.1567 37.7127 22.4468 36.6579 24.768L36.4897 24.8469C36.4216 24.7423 36.3553 24.6353 36.2912 24.526C35.9246 23.8968 35.5001 22.8855 35.5728 22.0567C35.7598 22.0241 35.9194 22.0172 36.1065 22.0063C34.657 20.3166 33.8447 20.9321 33.3477 17.6367Z" fill="#A07D49"/>
<path d="M22.9844 18.9695C25.2524 18.493 27.08 17.4937 28.8349 15.4688C29.606 16.178 30.1872 16.0156 30.5881 16.7237C29.9498 16.6826 29.6415 16.5201 29.0374 16.2478C27.4827 17.4811 24.8583 19.3802 22.9844 18.9695Z" fill="#C59469"/>
<path d="M30.8203 16.2706C31.2876 16.0824 32.2881 17.0348 32.8715 17.1893C32.9642 17.4564 33.2971 18.9694 33.3881 19.3469C32.1725 18.7423 31.3626 17.8802 30.8203 16.2706Z" fill="#A07D49"/>
<path d="M37.1366 27.2076C37.8328 26.0195 39.896 25.0134 39.6575 27.1544C38.0604 26.7986 37.6623 28.3722 37.1452 28.164C37.0211 27.8214 37.0874 27.5914 37.1366 27.2076Z" fill="#C69F69"/>
<path d="M23.686 16.5742C23.4052 17.327 23.1289 18.2085 22.5895 18.606C22.4751 18.6895 22.5151 18.6649 22.4728 18.8863L22.3493 18.9298C22.252 18.693 22.2652 18.6992 22.2606 18.423C21.819 18.3824 20.9833 19.6053 20.4336 20.0103C21.0851 17.9104 22.232 17.4374 23.686 16.5742Z" fill="#C59469"/>
<path d="M16.4761 31.4244C16.0345 30.5726 15.0689 26.9604 15.9904 26.5039C16.5024 27.0656 16.5544 30.3084 16.5464 31.1812L16.4761 31.4244Z" fill="#C69F69"/>
<path d="M15.0566 22.7579C15.2597 22.1418 15.7631 20.3016 15.9764 19.8555C16.1601 21.1602 15.818 22.9861 15.802 24.3383L15.0566 22.7579Z" fill="#785933"/>
<path d="M16.7871 20.2038C17.3757 18.9654 17.7344 18.5747 18.6187 17.7539C18.3939 18.2298 18.1714 18.7074 17.9511 19.1874C17.5742 19.4825 17.0663 19.9968 16.7871 20.2038Z" fill="#C69F69"/>
<path d="M39.296 31.0039C39.4431 31.5181 39.3029 32.1748 39.2526 32.804L39.3349 32.7989C39.1347 33.9109 38.6039 35.3992 37.9644 36.1417C37.294 37.2325 36.0258 38.4389 35.0906 39.1379C34.0392 40.0943 31.2455 41.752 30.002 42.0598C28.9695 42.4556 27.3907 42.9538 26.3131 42.9635C25.3967 43.027 24.5112 42.9853 23.5972 42.9384C22.7271 42.8686 21.9149 42.6815 21.0557 42.5025C20.804 42.3692 20.4345 42.268 20.1388 42.133C19.4552 41.9322 18.8111 41.6027 18.1522 41.2893L17.3799 40.8053C16.8949 40.4536 16.7404 40.3289 16.3063 39.869C15.7869 39.3696 15.3281 38.817 14.9277 38.1478C15.0559 38.2216 15.1857 38.2931 15.3156 38.3617L15.4803 38.2645L15.5747 37.8269L15.7177 37.7651C16.3967 36.8224 16.5339 36.7097 17.3931 36.1211C17.1803 35.3449 16.9052 35.0835 16.6804 34.0836L17.0957 34.1391C17.734 36.3488 19.2287 37.4659 20.4854 38.9183C21.8863 40.5371 23.1189 41.3305 25.0421 41.0873C27.9393 40.7213 31.3302 38.7135 33.5925 36.259C34.1617 35.5995 34.7388 34.2415 35.2897 33.4212C35.6151 33.2651 36.1505 33.6809 36.567 33.5722C37.278 33.3869 37.7516 33.006 38.3293 32.4848C38.4918 32.3287 38.6136 32.1617 38.7572 31.9775L39.0609 31.4255L39.296 31.0039Z" fill="#44381F"/>
<path d="M33.3997 39.3735L33.5587 39.3523C33.8127 38.8484 33.613 36.3521 34.3246 36.1313C34.8726 35.9603 36.6699 36.3207 36.8512 37.165C36.6384 37.9801 35.3685 38.4577 35.0333 38.8347L35.0917 39.139C34.0403 40.0954 31.2466 41.7531 30.0031 42.0608C28.9706 42.4566 27.3918 42.9549 26.3142 42.9646C26.2158 42.678 25.1444 43.2243 24.7051 42.7324L24.7159 42.4383C24.9001 42.2564 26.2604 42.2153 26.579 42.1929C27.4015 42.1357 31.79 41.0363 32.1309 40.1577C32.3026 40.009 33.1646 39.5154 33.3997 39.3735Z" fill="#3F4238"/>
<path d="M33.6408 36.7617C33.4937 37.7273 33.6402 38.9371 33.3988 39.3695C33.1637 39.5114 32.3017 40.005 32.1301 40.1538C29.3318 41.4047 25.505 42.8702 22.6387 41.4271C23.6197 41.3012 24.7385 41.4928 25.7161 41.3704C27.9344 41.0919 31.907 38.6602 33.6408 36.7617Z" fill="#C69F69"/>
<path d="M39.2972 31.0039C39.4442 31.5181 39.304 32.1748 39.2537 32.804L39.3361 32.7989C39.1359 33.9109 38.605 35.3992 37.9655 36.1417L37.8814 36.0725C37.7247 36.2985 37.5205 36.6491 37.3191 36.7406L37.1984 36.7017C37.3357 36.4203 37.5628 36.2264 37.7682 36.0096C37.3283 35.6744 36.8736 35.4908 36.3936 35.294L36.345 35.0715C35.9618 34.9073 35.3943 35.0784 35.1289 34.7826C35.1707 34.611 35.181 34.5595 35.1987 34.3662C35.2187 34.3382 35.2954 34.2718 35.3371 34.0716C35.4475 33.5459 36.8821 33.8308 37.3477 33.5305C37.7487 33.2719 37.9421 33.0305 38.307 32.7074C38.5272 32.6891 38.5553 32.6942 38.764 32.6107C38.7795 32.0953 38.7938 32.1742 39.0117 31.7515L39.0958 31.5891L39.0621 31.4255L39.2972 31.0039Z" fill="#36382A"/>
<path d="M36.3457 35.0703C36.793 35.0858 37.7311 35.2145 37.7689 36.0084C37.329 35.6732 36.8742 35.4896 36.3943 35.2928L36.3457 35.0703Z" fill="#202520"/>
<path d="M18.1771 36.8789L18.3047 37.0968L18.2618 37.1283C18.7623 37.6134 19.5551 37.9772 19.7193 38.5509C19.5557 39.3786 18.8287 39.3643 18.4448 39.7401C17.9649 40.2103 18.2561 40.9345 17.3803 40.8046C16.8952 40.4528 16.7408 40.3281 16.3066 39.8682L16.3804 39.8259L16.3221 39.6394C16.3684 39.4472 16.373 39.5393 16.3152 39.3626C16.27 37.8788 17.5862 37.7135 18.1771 36.8789Z" fill="#36382A"/>
<path d="M18.1523 41.2859C18.2919 40.3232 18.515 40.2214 19.0538 39.646C20.1881 38.4344 20.7556 39.9125 21.7452 40.7602C21.5198 40.9673 20.7527 41.6972 20.5291 42.0381C20.5085 42.0702 20.2631 42.0021 20.1961 41.9809L20.1389 42.1296C19.4554 41.9289 18.8113 41.5994 18.1523 41.2859Z" fill="#3F4238"/>
<path d="M21.0563 42.5005C21.0271 42.1103 20.9722 42.0177 21.1805 41.7265C22.2009 40.3022 22.3519 41.6035 23.2243 42.1555C23.6195 42.4049 24.0228 42.1063 24.3689 42.3208C24.473 42.5599 24.4547 42.4324 24.4261 42.7041C24.0417 42.9815 23.8947 42.6852 23.5978 42.9363C22.7277 42.8665 21.9155 42.6795 21.0563 42.5005Z" fill="#313935"/>
<path d="M15.6621 38.6461C15.6919 38.5717 15.7222 38.4991 15.7536 38.4264C16.0671 37.7051 16.7735 36.6944 17.409 36.5468C17.8283 36.4495 17.8609 36.5857 18.1778 36.8751C17.5869 37.7097 16.2707 37.875 16.3159 39.3588C16.0694 39.2873 15.872 38.9258 15.6621 38.6461Z" fill="#313935"/>
<path d="M37.1978 36.6961C37.0028 36.6504 36.6487 36.4227 36.4497 36.3043C36.051 36.0681 35.0007 35.9216 34.7988 35.3937C35.1352 35.0236 35.9829 35.2226 36.393 35.2884C36.873 35.4852 37.3277 35.6688 37.7676 36.004C37.5622 36.2208 37.3351 36.4147 37.1978 36.6961Z" fill="#313935"/>
<path d="M41.0824 30.3242C41.222 31.3647 41.3284 31.9505 41.8529 32.7976C41.5983 33.9336 41.4267 34.691 41.0458 35.7772C40.7787 36.5386 40.2598 37.5939 40.0974 38.3141C40.8267 38.0264 41.7459 33.9502 42.215 33.2752C42.9414 33.7391 43.2475 33.6768 44.0242 33.6556C43.7874 34.7607 43.2526 35.6817 42.7212 36.5689C39.4899 40.7949 35.0522 42.6088 30.8193 44.144C30.805 43.7288 30.741 43.1945 30.6992 42.7729C33.8922 41.4481 38.3751 38.7774 39.9109 34.5371C40.5378 32.8062 40.2095 32.1364 41.0824 30.3242Z" fill="#ABA08B"/>
<path d="M13.3753 28.7054C13.3678 27.4842 13.4988 22.4304 14.1315 21.6914L14.338 21.9162C14.5119 22.9024 15.4534 24.1774 15.7022 25.1761C15.8515 25.7767 15.4637 26.3951 15.3533 27.1027C15.0959 28.7592 15.5072 30.7183 16.2742 32.0242C16.4064 31.748 16.3898 31.7451 16.475 31.4299L16.5454 31.1868C16.6363 31.5506 16.7553 31.9859 16.8256 32.352L17.0956 34.1396L16.6804 34.0841C16.9052 35.0839 17.1803 35.3453 17.3931 36.1216C16.5339 36.7102 16.3966 36.8229 15.7177 37.7655L15.5747 37.8273L15.4803 38.2649L15.3155 38.3621C15.1857 38.2935 15.0558 38.222 14.9277 38.1482C14.1687 37.0482 13.7013 35.6159 13.512 34.1447C13.4559 33.3393 13.4216 32.5494 13.3598 31.7394C13.2082 30.485 13.0898 29.4628 13.0332 28.1883C13.1436 28.4412 13.1739 28.6133 13.3347 28.7369L13.3753 28.7054Z" fill="#313935"/>
<path d="M13.0332 28.1875C13.1436 28.4403 13.1739 28.6125 13.3347 28.7361L13.3753 28.7046L13.3987 28.8487C13.5068 29.5415 13.5915 31.099 13.659 31.8838C13.838 33.9608 14.5696 36.3198 15.7177 37.7647L15.5747 37.8265L15.4803 38.2641L15.3155 38.3613C15.1857 38.2927 15.0558 38.2212 14.9277 38.1474C14.1687 37.0474 13.7013 35.6151 13.512 34.1439C13.4559 33.3385 13.4216 32.5485 13.3598 31.7386C13.2082 30.4841 13.0898 29.4619 13.0332 28.1875Z" fill="#202520"/>
<path d="M16.5465 31.1836C16.6375 31.5474 16.7564 31.9827 16.8268 32.3488L17.0968 34.1363L16.6815 34.0808C16.61 33.3744 16.4733 32.6823 16.2754 32.021C16.4075 31.7447 16.3909 31.7419 16.4762 31.4267L16.5465 31.1836Z" fill="#1F221B"/>
<path d="M12.7398 17.2778C13.099 16.7138 13.1882 16.5456 13.6338 16.0938C13.6029 16.33 13.5858 16.4221 13.5864 16.6606C13.79 16.7115 13.8667 16.7029 14.0457 16.8311L13.6733 16.9335L13.6018 17.1131C13.9799 17.8904 14.9249 17.7251 15.4505 17.2555C14.8385 18.6575 14.1555 19.9863 14.6835 21.6594C14.5971 21.7246 14.4221 21.8671 14.3397 21.9134L14.1332 21.6886C13.5006 22.4276 13.3696 27.4814 13.377 28.7026L13.3364 28.7341C13.1757 28.6105 13.1453 28.4384 13.0349 28.1855C13.0916 29.46 13.21 30.4822 13.3616 31.7366L12.8811 31.6416C12.6969 31.0273 12.5985 30.6892 12.4532 30.024L12.3737 30.0777C12.0408 28.1644 12.1872 27.0158 12.094 25.0927L11.6415 24.9342C11.5077 25.0635 11.5494 24.98 11.5054 25.1745C11.4934 25.1401 11.4001 24.6202 11.375 24.5195C11.2199 23.9132 10.9854 23.4904 10.7034 22.9888L10.6914 22.8544C10.708 22.6999 10.7103 22.7285 10.708 22.5947C10.676 20.8495 10.8493 19.9686 11.4333 18.4533C11.7365 18.5088 11.8194 18.4687 11.9132 18.9172C12.2044 18.2439 12.388 17.9013 12.7398 17.2778Z" fill="#313935"/>
<path d="M12.7402 17.2778C13.0995 16.7138 13.1887 16.5456 13.6343 16.0938C13.6034 16.33 13.5862 16.4221 13.5868 16.6606C13.7905 16.7115 13.8671 16.7029 14.0461 16.8311L13.6738 16.9335L13.6023 17.1131C13.9804 17.8904 14.9253 17.7251 15.451 17.2555C14.8389 18.6575 14.156 19.9863 14.6839 21.6594C14.5976 21.7246 14.4225 21.8671 14.3402 21.9134L14.1336 21.6886C13.501 22.4276 13.37 27.4814 13.3775 28.7026L13.3368 28.7341C13.1761 28.6105 13.1458 28.4384 13.0354 28.1855C13.199 24.0476 13.5502 22.109 14.5798 18.1953L14.4957 18.0741C13.3523 17.9379 13.4118 17.2584 12.7402 17.2778Z" fill="#26281B"/>
<path d="M11.4333 18.4531C11.7365 18.5086 11.8194 18.4686 11.9132 18.917C11.5014 20.0959 11.1176 21.1908 11.395 22.539C11.1862 22.6774 11.1462 22.6969 10.9225 22.7838L10.8476 22.7261L10.7034 22.9886L10.6914 22.8542C10.708 22.6997 10.7103 22.7283 10.708 22.5945C10.676 20.8493 10.8493 19.9684 11.4333 18.4531Z" fill="url(#paint0_linear_4631_52856)"/>
<path d="M11.3947 22.5391C11.7573 23.5298 12.0496 23.9817 12.0937 25.0925L11.6412 24.9341C11.5074 25.0634 11.5491 24.9798 11.5051 25.1743C11.4931 25.14 11.3998 24.62 11.3747 24.5194C11.2196 23.913 10.9851 23.4903 10.7031 22.9887L10.8473 22.7261L10.9222 22.7839C11.1459 22.6969 11.1859 22.6775 11.3947 22.5391Z" fill="#837D6A"/>
<path d="M18.3359 12.2682C19.8529 11.9135 21.4797 11.5451 23.0453 11.576C29.5382 11.7042 36.8937 15.2272 40.0038 23.4396C40.2589 24.114 40.4482 24.8902 40.6644 25.5943C40.5683 26.0302 40.5403 26.203 40.4974 26.6537L40.391 26.7195C40.2898 26.6017 40.184 26.4615 40.0707 26.3746C40.0833 26.203 40.1039 25.9141 40.0627 25.7465C37.3153 14.6306 26.1799 10.5516 18.6591 12.8962L18.5493 12.8882L18.3359 12.2682Z" fill="#B0A695"/>
<path d="M12.373 30.0772L12.4526 30.0234C12.5979 30.6887 12.6962 31.0267 12.8804 31.6411L13.3609 31.736C13.4227 32.546 13.457 33.336 13.5131 34.1414C13.7024 35.6126 14.1697 37.0449 14.9288 38.1449C15.3292 38.8141 15.788 39.3667 16.3074 39.8661C16.7415 40.326 16.896 40.4507 17.381 40.8024L18.1532 41.2864C18.8122 41.5998 19.4563 41.9293 20.1398 42.1301C20.4356 42.2651 20.8051 42.3663 21.0568 42.4996C21.9159 42.6786 22.7282 42.8657 23.5982 42.9355C24.5123 42.9824 25.3978 43.0241 26.3142 42.9606C27.3918 42.9509 28.9706 42.4527 30.0031 42.0569C30.0317 42.2502 30.0385 42.348 30.0196 42.5436L30.1792 42.6952C24.764 44.5646 16.0208 44.0435 13.2202 36.1892C12.6556 34.6053 12.631 33.142 12.5515 31.4266C12.5429 31.1251 12.472 30.8117 12.4177 30.5159L12.373 30.0772Z" fill="#686658"/>
<path d="M12.8804 31.6406L13.3608 31.7356C13.4226 32.5456 13.4569 33.3355 13.513 34.1409C13.251 34.221 13.3174 34.2278 13.096 34.5556L13.0319 34.5036C12.9353 33.4499 12.8529 32.7097 12.8804 31.6406Z" fill="#575956"/>
<path d="M39.779 28.5C40.0381 28.6133 40.0605 28.6155 40.3236 28.52C40.3539 28.6676 40.3871 28.8192 40.4145 28.9679C39.9661 33.4073 40.1159 35.081 37.1295 38.2008C35.259 40.1548 32.5156 41.9909 30.1801 42.6956L30.0205 42.5441C30.0394 42.3484 30.0325 42.2506 30.0039 42.0573C31.2475 41.7495 34.0412 40.0918 35.0925 39.1354C36.0278 38.4364 37.2959 37.2301 37.9663 36.1392C38.6058 35.3968 39.1367 33.9084 39.3369 32.7964C39.5966 31.2703 39.5662 29.9014 39.779 28.5Z" fill="#ABA08B"/>
<path d="M11.4336 18.4525C13.2852 14.3575 15.2918 13.7357 18.3361 12.2656L18.5494 12.8857L18.6593 12.8937L18.7611 13.2569C18.1588 13.6144 17.6331 13.9113 17.0634 14.3649C16.2768 15.132 15.1076 16.3721 14.233 16.7605L14.046 16.8303C13.8669 16.7022 13.7903 16.7107 13.5867 16.6598C13.5861 16.4213 13.6032 16.3292 13.6341 16.093C13.1885 16.5449 13.0993 16.713 12.7401 17.277C12.3883 17.9005 12.2047 18.2432 11.9135 18.9164C11.8197 18.468 11.7368 18.508 11.4336 18.4525Z" fill="#ABA08B"/>
<path d="M18.5487 12.8867L18.6586 12.8947L18.7604 13.258C18.158 13.6155 17.6324 13.9123 17.0626 14.3659C16.2761 15.133 15.1069 16.3731 14.2323 16.7615L14.0453 16.8313C13.8662 16.7032 13.7896 16.7118 13.586 16.6609C13.5854 16.4223 13.6025 16.3302 13.6334 16.094C14.444 14.6908 17.3075 13.4073 18.5487 12.8867Z" fill="#36382A"/>
<path d="M14.2324 16.7629L14.281 16.5541C14.9543 15.926 16.1006 14.9725 16.8328 14.3398C16.9095 14.349 16.9861 14.3582 17.0628 14.3673C16.2762 15.1344 15.107 16.3745 14.2324 16.7629Z" fill="#26281B"/>
<path d="M14.2491 39.5742C17.8225 43.6378 20.9417 43.8872 25.3845 44.2132C24.3817 44.8339 19.0666 43.5446 18.0175 42.8907C17.4587 42.5424 16.3364 41.8245 15.7438 41.4167L15.682 41.459C15.7443 42.0116 15.7941 42.1088 15.9709 42.6299C15.1128 41.9492 14.6123 40.9448 14.0569 39.8705L14.0117 39.6377L14.2491 39.5742Z" fill="#ABA08B"/>
<path d="M40.0691 26.374C40.1823 26.4609 40.2881 26.6011 40.3894 26.7189L40.4958 26.6531C40.5387 26.2024 40.5667 26.0296 40.6628 25.5938C40.8768 26.3334 40.5107 28.0872 40.4129 28.9692C40.3854 28.8205 40.3522 28.6689 40.3219 28.5213C40.0588 28.6168 40.0365 28.6146 39.7773 28.5013C39.8677 27.7903 39.965 27.081 40.0691 26.374Z" fill="url(#paint1_linear_4631_52856)"/>
<path d="M30.8179 44.1494C35.0508 42.6141 39.4885 40.8002 42.7198 36.5742C42.8176 36.6257 42.9658 36.7104 43.0624 36.7464L43.2861 36.7218C43.5246 37.1325 43.2855 37.5272 43.0459 37.8464L43.377 38.1032C42.9972 38.133 42.2731 39.3388 41.6238 39.8456C40.0456 41.0782 38.5304 42.3601 36.7783 43.1369C36.5667 43.2313 35.9186 43.5076 35.7756 43.6626C35.8116 44.0298 35.8505 44.8587 35.9781 45.1435C35.3134 45.4376 34.512 45.8322 33.8525 46.0959L34.0407 46.4489C34.7866 46.1011 36.5632 45.0955 37.221 45.1767C36.3745 46.1795 33.1718 48.078 32.0821 48.8427C32.9607 48.8016 35.7773 47.9922 36.7097 47.6953C35.2917 50.6269 34.969 52.5391 35.1647 56.0043C35.4375 57.3194 35.7264 58.6619 36.3138 59.7899C36.5867 60.1205 36.8578 60.3677 37.1764 60.6125C37.3829 61.137 37.5974 61.6135 37.8571 62.0928C37.6363 62.9062 37.5711 63.5217 37.8405 64.3277C38.1197 65.1611 38.5144 65.7823 38.5744 66.7296C38.5167 66.8617 38.4543 66.9881 38.412 67.1311C38.2512 67.7192 38.2518 68.1533 38.3485 68.7608C38.388 68.8769 38.4246 68.993 38.472 69.1046C38.1265 70.6073 37.8914 71.7175 37.9298 73.3134L37.6146 73.3912C36.7194 73.1178 34.9296 73.3134 33.9577 73.3237L31.7143 73.3483C31.0936 73.2963 30.4581 73.3272 29.8358 73.3209L28.8359 73.326C28.5001 73.318 28.1735 73.3283 27.8389 73.3638L27.4425 73.306C26.1618 73.3604 24.2346 73.5331 22.9888 73.2568L22.7886 73.3129C22.1039 73.334 21.4232 73.3232 20.7385 73.3037L20.619 73.2574C20.0384 73.3827 19.4086 73.3243 18.8194 73.3232L18.1112 73.3203L17.7732 73.3592C17.259 73.2694 16.6915 73.3214 16.1704 73.3134L15.9445 73.3243L14.3394 73.3375L13.9327 73.3232H10.6202C10.1105 73.3226 9.59112 73.4227 9.08432 73.3306L8.15365 73.3112C6.73849 72.8879 5.60248 72.3187 4.6312 70.8166C4.52652 71.1141 4.44586 71.4418 4.35663 71.7484C4.34061 70.9299 4.35034 70.109 4.3532 69.2905C4.50135 68.806 4.74617 68.2534 4.83827 67.7586C4.96869 67.0579 4.66838 66.1478 4.76677 65.3625C4.83598 64.8099 5.16259 64.3271 5.2627 63.7706C5.48407 62.5373 5.47491 61.2451 5.70658 60.0033C5.94053 59.9901 5.96799 60.104 6.13673 60.3093C6.21567 59.7962 6.3009 59.3306 6.45363 58.8444C6.48509 58.6413 6.54515 58.4623 6.60293 58.2707C6.58977 56.8275 7.4392 53.8656 7.95116 52.5454L8.17139 52.2319C8.22573 50.6652 9.71239 48.3159 10.4354 47.2022L10.0579 46.7738L10.3748 46.2818C10.5315 46.1732 10.42 46.2641 10.5429 46.1314C11.433 45.1681 12.5662 44.0676 13.6873 43.7587C13.7765 43.8222 13.7611 43.785 13.9087 43.7461C14.0677 43.3474 13.7033 42.0575 13.7319 41.5067C13.7531 41.0914 13.84 40.695 13.9184 40.2986C14.0826 40.1098 14.0185 40.2288 14.0557 39.8799C14.6111 40.9541 15.1116 41.9586 15.9696 42.6393C18.4785 44.6671 21.6217 45.2047 24.5035 45.2202C27.1588 44.9822 28.1323 44.877 30.8179 44.1494Z" fill="#E8D9C1"/>
<path d="M34.041 46.4487C34.7869 46.1009 36.5636 45.0953 37.2214 45.1765C36.3748 46.1793 33.1721 48.0778 32.0824 48.8426C32.9611 48.8014 35.7777 47.992 36.71 47.6951C35.292 50.6267 34.9694 52.5389 35.165 56.0042C35.4379 57.3192 35.7267 58.6617 36.3142 59.7897C36.587 60.1204 36.8582 60.3675 37.1768 60.6123C37.3833 61.1368 37.5978 61.6133 37.8575 62.0927C37.6367 62.9061 37.5715 63.5215 37.8409 64.3275C38.12 65.1609 38.5147 65.7821 38.5748 66.7294C38.517 66.8615 38.4547 66.9879 38.4123 67.1309C38.2516 67.719 38.2522 68.1531 38.3488 68.7606C38.3883 68.8767 38.4249 68.9928 38.4724 69.1044C38.1269 70.6071 37.8918 71.7173 37.9301 73.3132L37.6149 73.391C36.7197 73.1176 34.9299 73.3133 33.9581 73.3236L31.7146 73.3481C31.094 73.2961 30.4585 73.327 29.8361 73.3207L28.8363 73.3258C28.5005 73.3178 28.1739 73.3281 27.8393 73.3636L27.4429 73.3058C26.1621 73.3602 24.235 73.5329 22.9892 73.2566C23.1459 72.0685 22.7455 69.232 22.7146 67.8929C22.5968 62.8414 22.7569 57.4611 24.2259 52.7448C24.3935 52.2054 24.4261 51.4286 24.6154 50.7828C25.0238 50.5672 26.2056 50.502 26.7015 50.4488L26.5156 50.2263C26.1741 50.3635 25.5014 50.5843 25.2349 50.2154L25.2927 50.0232C27.3662 50.2062 32.0927 47.6837 34.041 46.4487Z" fill="#E8D9C1"/>
<path d="M34.0405 46.4487C34.7864 46.1009 36.5631 45.0953 37.2209 45.1765C36.3743 46.1793 33.1716 48.0778 32.0819 48.8426C30.8258 49.5461 26.6827 51.8044 25.4123 51.6145C25.5661 51.4326 28.6991 50.2783 29.2127 50.0529L28.9473 49.8939C28.2466 50.101 27.4057 50.371 26.701 50.4488L26.5151 50.2263C26.1736 50.3635 25.5009 50.5843 25.2344 50.2154L25.2921 50.0232C27.3657 50.2062 32.0922 47.6837 34.0405 46.4487Z" fill="url(#paint2_linear_4631_52856)"/>
<path d="M28.9473 49.8877C29.1549 49.6778 29.1469 49.6429 29.3974 49.6172L29.5576 49.7367L29.5233 49.8998C29.4175 49.9553 29.3214 50.0147 29.2127 50.0468L28.9473 49.8877Z" fill="#B0A695"/>
<path d="M34.7889 57.35C34.4314 56.4554 34.1351 55.5905 33.8588 54.645C33.6523 53.9397 33.6397 53.3905 33.7049 52.6406C34.1059 53.148 34.0841 55.3194 34.6933 55.9491C34.8661 56.1276 34.9639 56.0481 35.1647 56.0006C35.4375 57.3157 35.7264 58.6582 36.3138 59.7862C35.6789 59.2491 35.2047 58.1634 34.7889 57.35Z" fill="#837D6A"/>
<path d="M30.8189 44.1494C35.0518 42.6141 39.4894 40.8002 42.7207 36.5742C42.8186 36.6257 42.9667 36.7104 43.0634 36.7464L43.287 36.7218C43.5256 37.1325 43.2865 37.5272 43.0468 37.8464L43.378 38.1032C42.9982 38.133 42.274 39.3388 41.6248 39.8456C40.0466 41.0782 38.5313 42.3601 36.7793 43.1369C36.5676 43.2313 35.9195 43.5076 35.7765 43.6626C35.8126 44.0298 35.8515 44.8587 35.979 45.1435C35.3143 45.4376 34.5129 45.8322 33.8534 46.0959L34.0416 46.4489C32.0933 47.6838 27.3668 50.2064 25.2932 50.0234L25.2355 50.2156C25.502 50.5845 26.1747 50.3637 26.5162 50.2264L26.7021 50.449C26.2062 50.5022 25.0244 50.5674 24.616 50.783C24.4266 51.4288 24.394 52.2056 24.2264 52.745C22.7575 57.4613 22.5973 62.8416 22.7152 67.8931C22.7461 69.2321 23.1465 72.0687 22.9897 73.2568L22.7895 73.3129C22.1048 73.334 21.4241 73.3232 20.7394 73.3037L20.6199 73.2574C20.454 72.3027 20.4363 71.0494 20.3619 70.093C19.9003 64.1412 20.0954 57.9732 21.6364 52.3103C21.788 51.7531 21.8978 50.9449 22.0093 50.3357C22.0974 50.0325 22.2393 50.0234 22.3577 49.6144C22.0293 49.3987 21.5672 49.353 21.1965 49.2186C20.033 48.7964 18.9107 48.1403 17.9984 47.0712C18.5206 47.1565 18.4525 47.4293 18.8856 46.9008C17.2027 46.3774 14.9633 45.1241 14.2008 42.8767L14.107 42.7199C14.1808 42.5151 14.1762 42.5083 14.246 42.4459C14.4999 42.2206 14.0532 42.2274 14.0606 41.3848L14.175 41.2481C14.3998 41.3711 14.5411 41.6554 14.7059 41.9122C16.7811 44.3439 18.9737 44.8581 21.6078 45.421L21.7731 45.5337C22.2044 45.3563 23.5074 45.5903 24.1258 45.5634L24.5044 45.2202C27.1597 44.9822 28.1333 44.877 30.8189 44.1494Z" fill="#575545"/>
<path d="M22.2107 50.3516C22.9537 50.6502 23.5177 50.7274 24.2945 50.7245C24.1784 51.4962 24.0743 52.1574 23.8718 52.8987C22.8725 56.5716 22.535 60.6261 22.4686 64.5215C22.4458 65.8794 22.4629 67.3873 22.5493 68.7361C22.6511 70.3165 22.7873 71.7191 22.7884 73.3122C22.1037 73.3333 21.423 73.3224 20.7383 73.303C20.7875 70.9246 20.311 67.7007 20.3499 65.1078C20.3957 62.0704 20.5221 58.521 21.1158 55.5809C21.5231 53.5634 21.8526 52.5063 22.2107 50.3516Z" fill="#E8D9C1"/>
<path d="M35.7766 43.6602C35.8126 44.0274 35.8515 44.8562 35.9791 45.1411C35.3144 45.4351 34.513 45.8298 33.8534 46.0935C33.0263 46.2891 32.1008 46.6815 31.2697 46.9498C29.1841 47.6225 27.1111 47.9079 24.9741 48.0418C24.4129 48.0772 24.1407 47.4034 24.2734 46.7267C24.3781 46.6604 27.7506 46.3766 28.1951 46.2863C30.8647 45.744 33.2408 44.89 35.7766 43.6602Z" fill="#686658"/>
<path d="M35.7889 42.6094C35.8318 42.916 35.802 43.0401 35.7654 43.3433C32.7915 45.0427 28.8103 45.9974 25.5842 46.2594C25.2599 46.2857 24.5609 46.403 24.3086 46.2062L24.3309 45.9762C24.8028 45.3253 26.2906 45.6273 27.1069 45.4706C30.0459 44.9066 32.8928 44.0794 35.6814 42.6797C35.7168 42.6563 35.7528 42.6328 35.7889 42.6094Z" fill="#686658"/>
<path d="M14.1992 42.8674C14.313 42.8508 15.6344 43.9599 15.8895 44.1693C17.6027 45.573 19.5258 45.6628 21.3168 46.5935C21.402 46.6375 21.442 47.3428 21.4586 47.5047L21.4152 47.6174C20.8351 47.5979 19.5018 47.0963 18.884 46.8915C17.2011 46.3681 14.9617 45.1148 14.1992 42.8674Z" fill="#686658"/>
<path d="M43.062 36.7433L43.2856 36.7188C43.5242 37.1295 43.2851 37.5241 43.0454 37.8433C42.5649 38.3976 42.0243 39.1132 41.5067 39.5714C39.6791 41.1902 37.8103 42.3319 35.7637 43.3461C35.8003 43.0429 35.83 42.9188 35.7871 42.6122C36.3082 42.2198 37.0009 41.9401 37.5501 41.606C39.0487 40.6954 42.2749 38.631 43.062 36.7433Z" fill="#575956"/>
<path d="M21.6081 45.4189L21.2986 45.996C19.8851 46.2043 15.5075 44.1181 14.6129 42.4816C14.5568 42.1018 14.542 42.2888 14.7061 41.9102C16.7814 44.3418 18.9739 44.856 21.6081 45.4189Z" fill="#686658"/>
<path d="M22.2109 50.3493C22.3791 50.116 22.5444 49.8797 22.7086 49.6406C23.4225 49.7756 23.9498 49.8105 24.6769 49.7751L24.2948 50.7223C23.518 50.7252 22.954 50.6479 22.2109 50.3493Z" fill="#B0A695"/>
<path d="M21.7733 45.5279C22.2046 45.3506 23.5077 45.5845 24.126 45.5577C24.0236 45.8597 23.9676 46.1182 23.7765 46.3173C23.0855 46.2732 22.4174 46.2441 21.7304 46.1188C21.6492 45.9329 21.719 45.8173 21.7733 45.5279Z" fill="#686658"/>
<path d="M30.7071 47.5899C30.8621 47.5464 31.0063 47.5435 31.1647 47.543L31.2362 47.6568C30.46 48.576 26.8409 49.4323 25.7546 49.5033C25.5601 49.5381 25.3657 49.5976 25.1752 49.5113C25.0522 49.4552 25.0556 49.3568 25.0059 49.211C25.027 49.0451 25.0402 48.8918 25.1094 48.7476C25.1946 48.5692 25.2192 48.5068 25.3834 48.4508C25.9754 48.2483 26.8289 48.3135 27.4483 48.2368C28.5415 48.091 29.6289 47.8747 30.7071 47.5899Z" fill="#B0A695"/>
<path d="M21.6831 46.4102C22.3844 46.5543 23.0999 46.5955 23.8047 46.7185C23.9848 46.9507 23.9694 47.4341 24.0535 47.7635C24.0689 47.8225 24.0844 47.8808 24.1004 47.9392C23.3739 47.9529 22.3849 48.1914 21.8003 47.5279C21.6362 47.1784 21.6762 46.8094 21.6831 46.4102Z" fill="#686658"/>
<path d="M22.5095 48.3047C23.2199 48.3825 24.126 48.2629 24.8044 48.4797C24.7437 48.8624 24.7214 49.2222 24.7128 49.6129C24.0602 49.59 22.8961 49.761 22.4242 49.0952C22.371 48.7411 22.4208 48.6376 22.5095 48.3047Z" fill="#B0A695"/>
<path d="M18.6621 47.3359C19.7649 47.5344 21.0245 48.0058 22.1382 48.2975C22.1811 48.5646 22.0942 48.7631 22.0313 49.0188L21.9655 49.1475C20.9793 49.1023 19.4549 48.1356 18.6621 47.3359Z" fill="#B0A695"/>
<path d="M12.6886 45.1328L12.5376 45.7037C12.8196 45.9943 13.1342 46.2219 13.4694 46.3781C13.2143 46.9976 13.0833 47.3339 12.8854 47.99C12.5994 49.046 12.3603 50.0218 12.3185 51.1595C12.3208 52.2332 12.3529 53.2279 12.4787 54.2896L12.4907 54.3777C12.8351 55.2815 13.474 56.3202 13.736 57.1193C13.6851 57.4482 13.6256 57.78 13.5913 58.1124C13.5827 58.3045 13.601 58.6254 13.5427 58.7942C13.4591 59.9228 13.3962 61.0365 13.45 62.1702C13.478 62.3984 13.4877 62.5964 13.4803 62.8274C13.045 62.7891 12.6137 62.7256 12.1807 62.6587C10.0522 62.1765 7.85513 61.1349 6.45312 58.8382C6.48459 58.6352 6.54465 58.4561 6.60242 58.2645C6.58926 56.8213 7.4387 53.8594 7.95065 52.5392L8.17088 52.2258C8.22522 50.659 9.71188 48.3098 10.4349 47.1961L10.6597 46.9278C11.2088 46.2448 11.6167 45.8032 12.2899 45.3508C12.4467 45.321 12.5422 45.2306 12.6886 45.1328Z" fill="#E8D9C1"/>
<path d="M7.9519 52.543C8.36317 53.457 8.82994 54.2579 9.38937 55.0169C8.93118 56.7724 8.39921 58.7024 8.36661 60.5837C7.59439 59.9562 7.00751 59.4037 6.60367 58.2682C6.59051 56.825 7.43995 53.8632 7.9519 52.543Z" fill="#E8D9C1"/>
<path d="M10.783 54.3932C10.6343 54.0803 10.5376 53.7806 10.4884 53.4122C10.4524 53.1468 10.3769 52.5519 10.4878 52.3477C10.9037 52.7629 11.18 53.5638 11.5032 54.1163C11.7034 54.4578 11.9304 54.7227 12.2605 54.7696C12.4275 54.6346 12.4247 54.6271 12.491 54.3794C12.8354 55.2832 13.4743 56.322 13.7363 57.1211C13.6854 57.45 13.6259 57.7818 13.5916 58.1141C13.583 58.3063 13.6013 58.6272 13.543 58.796C13.4183 58.3589 13.0356 58.0489 12.7702 57.744C11.9728 56.7499 11.2458 55.7345 10.783 54.3932Z" fill="#ABA08B"/>
<path d="M10.7832 54.3906C10.849 54.4169 10.9205 54.4244 10.98 54.4707C11.2076 54.6469 11.5857 55.4757 11.7797 55.7778C12.3088 56.6003 12.9088 57.5167 13.5918 58.1116C13.5832 58.3038 13.6015 58.6247 13.5432 58.7934C13.4185 58.3564 13.0358 58.0464 12.7704 57.7415C11.973 56.7473 11.246 55.732 10.7832 54.3906Z" fill="#837D6A"/>
<path d="M7.95065 52.54L8.17088 52.2266L8.21378 52.357C8.64851 53.6474 9.64896 54.502 9.96586 55.7044L9.92524 55.7753L9.70502 55.6089C9.27257 55.9647 9.01116 57.989 8.89676 58.6382C8.77263 59.339 8.69598 60.0414 8.62219 60.7541C9.72046 61.4983 10.8954 62.0166 12.108 62.2923C12.5233 62.3621 12.9558 62.485 13.371 62.3821L13.45 62.171C13.478 62.3992 13.4877 62.5971 13.4803 62.8282C13.045 62.7899 12.6137 62.7264 12.1807 62.6595C10.0522 62.1773 7.85513 61.1357 6.45312 58.839C6.48459 58.636 6.54465 58.4569 6.60242 58.2653C7.00626 59.4007 7.59314 59.9533 8.36536 60.5808C8.39796 58.6994 8.92994 56.7695 9.38812 55.014C8.82869 54.2549 8.36193 53.4541 7.95065 52.54Z" fill="#968E7B"/>
<path d="M12.5379 45.707C12.82 45.9976 13.1346 46.2253 13.4698 46.3814C13.2146 47.0009 13.0837 47.3373 12.8857 47.9934C12.5997 49.0493 12.3606 50.0251 12.3189 51.1629L12.2382 51.6445L12.1593 51.696C11.5192 50.7487 12.1278 46.8757 12.5379 45.707Z" fill="#E8D9C1"/>
<path d="M12.6888 45.1328L12.5378 45.7037C12.1277 46.8723 11.519 50.7454 12.1591 51.6927L12.2381 51.6412L12.3187 51.1595C12.321 52.2332 12.353 53.2279 12.4789 54.2896C11.1741 51.6377 11.5476 48.1542 12.2901 45.3508C12.4468 45.321 12.5424 45.2306 12.6888 45.1328Z" fill="#837D6A"/>
<path d="M14.0564 39.875C14.6118 40.9492 15.1123 41.9537 15.9703 42.6344C18.4792 44.6622 21.6224 45.1999 24.5042 45.2153L24.1255 45.5585C23.5072 45.5854 22.2041 45.3514 21.7728 45.5288L21.6075 45.4161C18.9734 44.8532 16.7809 44.339 14.7056 41.9074C14.5409 41.6505 14.3996 41.3662 14.1748 41.2433L14.0604 41.38C14.053 42.2225 14.4997 42.2157 14.2457 42.441C14.1759 42.5034 14.1805 42.5103 14.1067 42.715L14.2005 42.8718C14.963 45.1192 17.2025 46.3725 18.8853 46.8959C18.4523 47.4244 18.5204 47.1516 17.9981 47.0663C17.7813 46.873 17.1024 46.5647 16.8152 46.4211C16.5933 46.3485 16.3913 46.3073 16.1671 46.2558C15.8731 46.5956 15.5608 47.5686 15.3714 48.0788C14.9104 49.5277 14.5294 50.6351 14.4271 52.2316C14.2526 53.4969 14.4671 54.8114 14.3767 56.0933C14.2972 56.5806 14.2074 57.068 14.1605 57.5634L14.0936 58.093C14.4717 58.3939 15.1232 59.5225 15.5659 59.9967C14.9464 60.5407 14.5798 61.4776 14.5964 62.4735C14.613 63.4694 15.0105 64.3834 15.6477 64.8891C15.2227 65.3713 14.8435 65.861 14.4728 66.4181L14.4568 67.0519C14.4236 68.1015 14.4894 68.9355 14.6885 69.9526C14.1445 70.977 14.1004 71.6366 14.2629 72.8681C14.2835 73.0266 14.3104 73.177 14.3401 73.3326L13.9334 73.3183C13.7978 72.3699 13.6811 71.5931 13.8047 70.6252L13.9883 70.1573C14.3601 69.511 14.0736 68.5311 14.0587 67.7532L14.0564 67.609L14.0661 67.3047C14.2011 66.2711 13.6051 64.054 13.4815 62.8287C13.489 62.5976 13.4792 62.3997 13.4512 62.1715C13.3974 61.0377 13.4604 59.924 13.5439 58.7955C13.6022 58.6267 13.5839 58.3058 13.5925 58.1136C13.6268 57.7813 13.6863 57.4495 13.7372 57.1206C13.4752 56.3215 12.8363 55.2827 12.4919 54.3789L12.4799 54.2909C12.3541 53.2292 12.322 52.2345 12.3198 51.1608C12.3615 50.0231 12.6006 49.0472 12.8866 47.9913C13.0845 47.3352 13.2155 46.9988 13.4707 46.3794C13.1355 46.2232 12.8208 45.9955 12.5388 45.705L12.6898 45.1341C12.5434 45.2319 12.4479 45.3223 12.2912 45.352C11.6179 45.8045 11.21 46.2461 10.6609 46.9291L10.4361 47.1973L10.0586 46.7689L10.3755 46.277C10.5322 46.1683 10.4207 46.2592 10.5437 46.1265C11.4337 45.1633 12.5669 44.0627 13.688 43.7538C13.7773 43.8173 13.7618 43.7801 13.9094 43.7412C14.0684 43.3425 13.704 42.0526 13.7326 41.5018C13.7538 41.0865 13.8407 40.6901 13.9191 40.2937C14.0833 40.1049 14.0192 40.2239 14.0564 39.875Z" fill="#26281B"/>
<path d="M12.8852 47.9883L13.0139 48.3183C13.6449 48.5048 14.1791 48.6364 14.8318 48.6364C14.8181 48.693 14.7528 48.9801 14.7345 49.0225C14.5452 49.5201 14.4285 49.8347 14.3519 50.3925L14.2998 50.7236C14.1745 51.3254 14.0235 52.6039 13.9904 53.2542C13.7026 53.8314 13.3703 54.1185 12.9213 54.4423C13.1175 55.1116 13.5167 56.0542 13.936 56.5078C13.7964 56.7241 13.7638 56.8344 13.7358 57.1176C13.4738 56.3185 12.8349 55.2797 12.4905 54.3759L12.4785 54.2878C12.3527 53.2262 12.3206 52.2315 12.3184 51.1578C12.3601 50.0201 12.5992 49.0442 12.8852 47.9883Z" fill="#36382A"/>
<path d="M12.6956 50.4297C13.1458 50.5527 13.8276 50.6436 14.3001 50.7254C14.1748 51.3272 14.0238 52.6056 13.9906 53.256C13.7029 53.8332 13.3706 54.1203 12.9215 54.4441C12.5234 53.1468 12.4737 51.7911 12.6956 50.4297Z" fill="#686658"/>
<path d="M13.0405 48.5977C13.6251 48.8247 14.2269 48.7921 14.7348 49.0278C14.5455 49.5255 14.4288 49.8401 14.3521 50.3978C13.8774 50.4212 13.1166 50.2468 12.6504 50.1192C12.7831 49.6502 12.9175 49.0793 13.0405 48.5977Z" fill="#686658"/>
<path d="M13.7281 46.5182C14.0856 45.8456 14.3362 45.2673 14.851 44.8125L15.8789 45.8507C15.5242 46.4959 15.2725 47.3808 15.0151 48.1233C14.9751 48.2308 14.8544 48.5403 14.8315 48.6358C14.1788 48.6358 13.6446 48.5043 13.0137 48.3178L13.7281 46.5182Z" fill="#3F4238"/>
<path d="M13.7281 46.5195C14.2155 46.7283 14.6685 47.0549 15.014 47.5686C15.0649 47.8615 15.0426 47.8037 15.0151 48.1246C14.9751 48.2321 14.8544 48.5416 14.8315 48.6371C14.1788 48.6371 13.6446 48.5056 13.0137 48.3191L13.7281 46.5195Z" fill="#686658"/>
<path d="M12.6901 45.1338C12.9389 44.7311 14.0183 43.8319 14.3506 44.2918C14.3295 45.0005 13.7826 45.7539 13.4709 46.3791C13.1357 46.2229 12.8211 45.9953 12.5391 45.7047L12.6901 45.1338Z" fill="#ABA08B"/>
<path d="M12.9219 54.4459C13.3709 54.1221 13.7032 53.835 13.991 53.2578C14.0053 54.3012 14.0848 55.4892 13.9366 56.5114C13.5173 56.0578 13.1181 55.1151 12.9219 54.4459Z" fill="#3F4238"/>
<path d="M10.3755 46.2773C10.5803 46.525 10.6598 46.517 10.6609 46.9294L10.4361 47.1977L10.0586 46.7693L10.3755 46.2773Z" fill="#1F221B"/>
<path d="M16.8145 46.4219C17.1016 46.5655 17.7806 46.8738 17.9974 47.0671C18.9097 48.1362 20.032 48.7923 21.1955 49.2144C21.5662 49.3489 22.0283 49.3946 22.3567 49.6103C22.2383 50.0193 22.0964 50.0284 22.0083 50.3316C21.6462 50.1794 19.6968 49.5079 19.3713 49.5376C18.5803 48.9879 16.9157 47.7129 16.8145 46.4219Z" fill="#B0A695"/>
<path d="M15.3711 48.0808C15.5604 47.5706 15.8727 46.5976 16.1668 46.2578C16.8503 47.5534 16.9338 47.7834 17.8662 48.7747C17.0511 48.559 16.1719 48.3491 15.3711 48.0808Z" fill="#B0A695"/>
<path d="M16.166 46.2578C16.3902 46.3093 16.5922 46.3505 16.8141 46.4231C16.9154 47.7142 18.5799 48.9892 19.371 49.5389C19.7388 49.8632 20.8937 50.4598 21.0121 50.6125C20.205 50.8522 18.6062 49.3821 17.8655 48.7747C16.9331 47.7834 16.8496 47.5534 16.166 46.2578Z" fill="#686658"/>
<path d="M14.6551 53.2381C14.9565 51.9682 15.3495 50.2871 15.9953 49.2603L16.1394 49.2266C16.1835 49.6933 15.5989 50.8402 15.4427 51.371C14.996 52.8886 14.6585 54.5062 14.3759 56.0936C14.4663 54.8117 14.2518 53.4972 14.4263 52.2319L14.4423 53.1248L14.6551 53.2381Z" fill="#837D6A"/>
<path d="M14.4434 53.125L14.6561 53.2383L14.5143 53.6936L14.4479 53.6495L14.4434 53.125Z" fill="#E0D1BB"/>
<path d="M15.5878 55.8569C15.4597 55.5291 15.343 55.2025 15.2961 54.8341C15.1983 54.0619 15.3567 53.2216 15.7034 52.5958C16.0889 51.8997 16.6781 51.505 17.3113 51.3997C17.9983 51.2853 18.7384 51.4655 19.2916 52.0518C19.8241 52.6158 20.0106 53.2605 20.1033 54.1408C20.1925 54.9027 19.9854 55.6526 19.6422 56.2601C19.1915 57.0569 18.4953 57.6164 17.7529 57.7199C17.1534 57.8034 16.5299 57.6341 16.0712 57.0867C15.7731 56.7315 15.6496 56.3791 15.5878 55.8569Z" fill="#444639"/>
<path d="M20.1034 54.1445C20.1926 54.9065 19.9855 55.6563 19.6423 56.2638C19.1916 57.0606 18.4954 57.6201 17.7529 57.7236C17.1535 57.8071 16.53 57.6378 16.0712 57.0904C15.7732 56.7352 15.6497 56.3828 15.5879 55.8606C15.99 56.3794 16.3498 56.7655 16.8989 56.9686C17.5613 57.2134 18.2689 57.0898 18.8632 56.6265C19.604 56.043 19.902 55.2136 20.1034 54.1445Z" fill="#B0A695"/>
<path d="M17.1471 51.7172C17.3381 51.704 17.5332 51.6897 17.7225 51.7269C18.3311 51.8476 18.6698 52.4534 19.0141 53.0683C19.1068 53.7227 19.1491 54.3227 18.9249 54.9422C18.6246 55.7705 18.0257 56.0896 17.4222 56.3802C17.0933 56.3785 16.7638 56.3591 16.4349 56.3465C15.8114 55.8071 15.6467 55.2168 15.4219 54.3101C15.4974 54.0104 15.5689 53.6946 15.6684 53.408C15.9813 52.5083 16.4664 52.0364 17.1471 51.7172Z" fill="#686658"/>
<path d="M17.1274 52.5625C17.3356 52.6048 17.5564 52.6392 17.7451 52.7724C18.0083 52.9589 18.2148 53.2872 18.2845 53.6791C18.3503 54.044 18.284 54.4313 18.1375 54.7453C17.8961 55.2624 17.601 55.4105 17.1766 55.5501C16.9781 55.5009 16.7567 55.4603 16.5737 55.3425C16.3117 55.1743 16.1012 54.8351 16.0239 54.4587C15.953 54.1144 15.9965 53.7517 16.1309 53.4451C16.366 52.9091 16.7001 52.7192 17.1274 52.5625Z" fill="#36382A"/>
<path d="M17.0723 53.1379C17.3286 53.0098 17.6163 53.0779 17.8251 53.3158C18.0339 53.5544 18.1311 53.925 18.0796 54.2871C18.0276 54.6486 17.8354 54.9449 17.5763 55.0622C17.1839 55.2389 16.7589 54.9592 16.6216 54.4341C16.4837 53.9084 16.6845 53.3318 17.0723 53.1379Z" fill="#686658"/>
<path d="M45.9695 45.3828C46.1863 45.6293 46.1943 45.6093 46.2652 45.9972C48.5344 46.6086 51.3595 54.7324 51.0918 57.5158L51.1759 58.0655C51.3452 58.7885 51.4488 59.5007 51.5403 60.2477L51.5986 60.9501C51.8978 62.6719 51.7765 64.4772 51.8446 66.227C51.8875 67.3281 52.0917 68.4853 52.0328 69.5847C51.9773 70.6223 51.6719 71.625 51.7239 72.6632C51.7348 72.8812 51.7371 73.1014 51.7439 73.3199L49.0212 73.3136C45.8007 73.4286 42.5683 73.2639 39.345 73.3336L38.8548 73.3193L37.9304 73.3073C37.8921 71.7114 38.1272 70.6011 38.4727 69.0985C38.4252 68.9869 38.3886 68.8708 38.3491 68.7547C38.2524 68.1472 38.2519 67.713 38.4126 67.125C38.4549 66.982 38.5173 66.8556 38.5751 66.7235C38.515 65.7762 38.1203 65.155 37.8412 64.3216C37.5718 63.5156 37.6369 62.9001 37.8577 62.0867C37.5981 61.6074 37.3836 61.1309 37.1771 60.6064C36.8584 60.3615 36.5873 60.1144 36.3145 59.7838C35.727 58.6558 35.4381 57.3133 35.1653 55.9982C34.9697 52.533 35.2923 50.6207 36.7103 47.6892C37.2142 46.9536 37.4162 46.5217 38.0042 45.7775L38.2828 45.9823C38.1523 46.1653 38.0345 46.3392 37.8909 46.504C36.6886 48.3178 36.1045 49.5911 35.5697 51.9524C36.0794 52.0491 36.9299 52.243 37.415 52.255C37.399 52.4552 37.4042 52.5965 37.3246 52.7715C37.2697 52.9826 37.1999 53.2005 37.1599 53.4173C37.1593 53.6341 37.1822 53.8269 37.1015 54.0202C36.9934 54.6151 36.9122 55.2048 36.8859 55.818L36.9071 56.0142C37.0301 56.0268 36.9603 56.0394 37.1061 55.9199L37.1811 55.6504C37.2331 55.9559 37.2686 56.167 37.423 56.4152C38.3411 52.3494 40.016 48.8046 42.7559 46.5949C43.6665 46.0212 44.5726 45.6459 45.5793 45.5824C45.775 45.5699 45.8093 45.5521 45.9695 45.3828Z" fill="#E8D9C1"/>
<path d="M43.2305 46.6529C44.041 46.0042 45.3366 45.7977 46.265 46.0008C48.5342 46.6123 51.3593 54.736 51.0916 57.5194C50.3846 57.5389 49.6553 57.6087 48.954 57.7345C49.1605 56.4429 47.5474 51.042 46.9337 49.8041C45.8829 47.6854 44.9974 47.1751 43.2305 46.6529Z" fill="#B0A695"/>
<path d="M36.7103 47.689C37.2142 46.9534 37.4162 46.5215 38.0042 45.7773L38.2828 45.9821C38.1523 46.1652 38.0345 46.3391 37.8909 46.5038C36.6886 48.3177 36.1045 49.591 35.5697 51.9522C36.0794 52.0489 36.9299 52.2428 37.415 52.2548C37.399 52.455 37.4042 52.5963 37.3246 52.7713C37.2697 52.9824 37.1999 53.2003 37.1599 53.4171C37.1593 53.6339 37.1822 53.8267 37.1015 54.02C36.9934 54.6149 36.9122 55.2047 36.8859 55.8179L36.9071 56.0141C37.0301 56.0267 36.9603 56.0392 37.1061 55.9197L37.1811 55.6503C37.2331 55.9557 37.2686 56.1668 37.423 56.4151C37.3401 56.7531 37.272 57.1552 37.1262 57.451C37.1365 58.1134 37.2978 58.718 37.3653 59.3678C37.4888 60.2355 37.6696 60.8544 38.0585 61.5809L38.3211 61.9436C38.2164 62.3909 38.1163 62.8405 38.0208 63.2924C38.2461 64.5737 38.8794 65.4683 39.0172 66.8085C38.7993 67.3943 38.6099 67.9211 38.793 68.576C38.9949 69.2979 39.5109 69.7927 39.8135 70.4357C39.4514 71.3898 39.0664 72.1408 39.3192 73.2317C39.3272 73.266 39.3364 73.2997 39.345 73.3335L38.8548 73.3192L37.9304 73.3072C37.8921 71.7112 38.1272 70.601 38.4727 69.0983C38.4252 68.9868 38.3886 68.8706 38.3491 68.7545C38.2524 68.147 38.2519 67.7129 38.4126 67.1249C38.4549 66.9819 38.5173 66.8554 38.5751 66.7233C38.515 65.7761 38.1203 65.1548 37.8412 64.3214C37.5718 63.5155 37.6369 62.9 37.8577 62.0866C37.5981 61.6072 37.3836 61.1307 37.1771 60.6062C36.8584 60.3614 36.5873 60.1143 36.3145 59.7836C35.727 58.6556 35.4381 57.3131 35.1653 55.9981C34.9697 52.5328 35.2923 50.6206 36.7103 47.689Z" fill="#36382A"/>
<path d="M35.4094 53.4688C35.8727 53.5076 36.4991 53.4813 36.9281 53.7033C37.0556 53.7696 37.0493 53.864 37.1002 54.0219C36.9921 54.6168 36.9109 55.2065 36.8846 55.8197C36.4756 56.0388 36.0403 56.2653 35.5999 56.3288C35.4443 55.3907 35.3796 54.4292 35.4094 53.4688Z" fill="#686658"/>
<path d="M36.8843 55.8203L36.9055 56.0165C36.6561 57.2727 36.8975 58.7645 37.0296 60.0269C36.3306 58.9847 35.7609 57.7429 35.5996 56.3294C36.0401 56.2659 36.4754 56.0394 36.8843 55.8203Z" fill="#3F4238"/>
<path d="M37.1581 53.4203C36.6467 53.3957 35.799 53.4295 35.3843 52.9856L35.3809 52.7602C35.4335 52.671 35.4318 52.6641 35.5113 52.5835C35.8436 52.2454 36.331 52.2437 36.7177 52.3547C37.0191 52.4416 37.1518 52.4245 37.3229 52.7745C37.2679 52.9856 37.1981 53.2035 37.1581 53.4203Z" fill="#686658"/>
<path d="M37.1055 55.9218L37.1804 55.6523C37.2325 55.9578 37.2679 56.1689 37.4224 56.4171C37.3394 56.7552 37.2714 57.1573 37.1255 57.453C37.1261 56.9422 37.1192 56.432 37.1055 55.9218Z" fill="#E0D1BB"/>
<path d="M45.9703 45.3828C46.1871 45.6293 46.1951 45.6093 46.266 45.9972C45.3376 45.7941 44.042 46.0006 43.2315 46.6492C40.1306 48.6753 37.3918 54.8164 37.3661 59.3679C37.2986 58.7181 37.1372 58.1135 37.127 57.4511C37.2728 57.1554 37.3409 56.7533 37.4238 56.4152C38.3419 52.3494 40.0168 48.8046 42.7567 46.5949C43.6673 46.0212 44.5734 45.6459 45.5801 45.5824C45.7758 45.5699 45.8101 45.5521 45.9703 45.3828Z" fill="#837D6A"/>
<path d="M38.2479 61.2187C38.1552 59.5707 38.0797 57.4954 38.7925 56.0517C38.9315 55.7703 39.0636 55.6049 39.3164 55.5352C39.5012 55.6335 39.5452 55.6593 39.6339 55.9201C39.9268 56.7764 39.2072 59.2796 38.9709 60.1301C38.65 60.3006 38.467 60.8532 38.2479 61.2187Z" fill="#B0A695"/>
<path d="M12.8918 14.5079C18.8819 3.71576 33.0964 2.83258 40.8375 10.5713C42.2967 12.0305 43.6089 13.9222 44.4657 16.0918C45.3026 18.1923 46.1412 21.4133 45.8357 23.8186L45.7345 24.3374L45.9667 24.6343C47.3224 27.2318 46.7378 29.938 45.2036 32.1482C44.8907 32.599 44.5613 32.8198 44.162 33.0961C44.0482 33.3626 44.0304 33.354 44.0236 33.6538C43.2468 33.6749 42.9408 33.7373 42.2143 33.2734C41.7453 33.9484 40.826 38.0245 40.0967 38.3122C40.2592 37.5921 40.778 36.5367 41.0451 35.7754C41.4261 34.6891 41.5977 33.9318 41.8522 32.7957C41.3277 31.9486 41.2213 31.3629 41.0817 30.3224C41.0096 28.397 41.1898 27.5984 41.7195 25.8269C39.2232 10.3397 20.0894 5.64002 12.1934 16.0541C12.4113 15.5764 12.5348 14.8729 12.8918 14.5079Z" fill="#E8D9C1"/>
<path d="M41.4628 30.1926C41.3844 27.9092 42.104 24.798 43.9133 23.8736C44.6003 23.5218 45.1345 23.8954 45.734 24.3415L45.9662 24.6384C47.3219 27.2359 46.7373 29.9421 45.2032 32.1524C44.8903 32.6031 44.5608 32.8239 44.1615 33.1002C42.3969 33.4468 41.7842 32.4412 41.4628 30.1926Z" fill="#ABA08B"/>
<path d="M41.4628 30.1926C41.3844 27.9092 42.104 24.798 43.9133 23.8736C44.6003 23.5218 45.1345 23.8954 45.734 24.3415L45.9662 24.6384C43.4499 24.6012 43.2623 27.848 42.9403 30.4037C42.799 31.5272 41.7842 30.6136 41.4628 30.1926Z" fill="#E8D9C1"/>
<path d="M45.1414 26.3633C45.2375 26.3673 45.333 26.3719 45.4279 26.389C45.6299 26.4256 45.7723 26.5744 45.8896 26.7906C46.1458 27.2631 46.1189 27.9146 46.0411 28.4597C45.8781 29.5969 45.4903 30.4446 44.7867 31.0978C44.7467 31.1041 44.7066 31.1139 44.666 31.1161C44.4549 31.1293 44.2833 31.0366 44.1392 30.8227C43.8652 30.416 43.8949 29.7256 43.9527 29.2245C44.0866 28.0696 44.4361 27.06 45.1414 26.3633Z" fill="#444639"/>
<path d="M45.1522 26.7891L45.4783 26.8709C45.7242 27.1963 45.7997 27.4783 45.7952 27.9337C45.7837 28.9782 45.3919 29.9592 44.8428 30.6587C44.7907 30.677 44.7324 30.7016 44.6786 30.7016C44.479 30.7011 44.4246 30.6255 44.281 30.462C44.1832 30.1107 44.1604 29.8247 44.1895 29.4489C44.269 28.4187 44.5631 27.4646 45.1522 26.7891Z" fill="#686658"/>
<path d="M43.5723 32.0352C43.663 32.0587 43.7359 32.2218 43.798 32.3131L43.682 32.3143L43.5723 32.0352Z" fill="#837D6A"/>
<path d="M12.8918 14.5135C15.2508 12.6756 16.4943 11.5161 19.2926 10.7794C27.5313 8.60974 38.3978 12.377 41.6348 23.8905C41.7315 24.3784 41.8642 24.8469 41.9906 25.3228C43.0872 23.5353 44.1849 22.6086 45.8357 23.8241L45.7345 24.3429C45.135 23.8968 44.6007 23.5232 43.9137 23.875C42.1045 24.7994 41.3849 27.9106 41.4632 30.1941C41.7847 32.4426 42.3973 33.4482 44.162 33.1016C44.0482 33.3682 44.0304 33.3596 44.0236 33.6593C43.2468 33.6805 42.9408 33.7428 42.2143 33.2789C41.7453 33.9539 40.826 38.0301 40.0967 38.3178C40.2592 37.5976 40.778 36.5423 41.0451 35.7809C41.4261 34.6947 41.5977 33.9373 41.8522 32.8013C41.3277 31.9541 41.2213 31.3684 41.0817 30.3279C41.0096 28.4025 41.1898 27.604 41.7195 25.8325C39.2232 10.3452 20.0894 5.64557 12.1934 16.0596C12.4113 15.582 12.5348 14.8784 12.8918 14.5135Z" fill="#686658"/>
<path d="M44.4657 16.0938C45.3025 18.1942 46.1411 21.4152 45.8356 23.8205C44.1848 22.605 43.0871 23.5316 41.9906 25.3192C41.8641 24.8433 41.7314 24.3748 41.6348 23.8868C43.7232 21.9786 44.5452 19.4006 44.4657 16.0938Z" fill="#B0A695"/>
<path d="M10.5066 23.8943C9.37518 21.024 9.94662 19.6414 11.0277 17.029C15.8366 5.41373 26.7483 2.76302 35.5756 6.28204C41.4359 8.61814 47.0988 15.3839 46.4885 24.2844C46.6498 24.6734 47.0153 25.4216 47.1091 25.7774C47.7595 28.2456 46.6618 31.8985 45.0316 33.2828C44.9086 33.3869 44.7839 33.4875 44.6575 33.5848C44.3955 34.5458 44.1644 35.2751 43.7835 36.1686C44.1186 37.324 44.0334 37.7936 43.919 39.0269C45.3285 39.0446 48.76 39.7831 49.7398 41.2537C51.1001 43.6516 51.1086 47.1426 51.0606 50.0193C51.0526 50.4992 50.7631 51.9458 50.8026 52.158C51.1836 54.2041 51.6435 55.8138 51.7727 57.9754C51.8557 59.3671 52.3259 60.8629 52.2847 62.345C52.3488 64.6084 52.3002 66.7707 52.6428 69.017C52.7097 69.4557 52.3894 70.995 52.3808 71.4892C52.3167 72.0967 52.3425 72.7127 52.3676 73.3248L51.7441 73.3231C51.7373 73.1046 51.735 72.8843 51.7241 72.6664C51.6721 71.6282 51.9775 70.6255 52.033 69.5878C52.0919 68.4884 51.8877 67.3312 51.8448 66.2301C51.7768 64.4803 51.898 62.6751 51.5989 60.9533L51.5405 60.2509C51.449 59.5038 51.3455 58.7917 51.1761 58.0686L51.0921 57.5189C51.3598 54.7355 48.5346 46.6118 46.2654 46.0003C46.1945 45.6125 46.1865 45.6325 45.9697 45.386C45.8095 45.5553 45.7752 45.573 45.5796 45.5856C44.5728 45.6491 43.6668 46.0243 42.7561 46.5981C40.0162 48.8078 38.3413 52.3525 37.4232 56.4184C37.2688 56.1701 37.2333 55.959 37.1813 55.6536L37.1063 55.923C36.9605 56.0426 37.0303 56.03 36.9073 56.0174L36.8861 55.8212C36.9124 55.208 36.9937 54.6183 37.1018 54.0234C37.1824 53.83 37.1595 53.6372 37.1601 53.4205C37.2002 53.2037 37.27 52.9857 37.3249 52.7747C37.4044 52.5996 37.3992 52.4583 37.4152 52.2581C36.9302 52.2461 36.0796 52.0522 35.5699 51.9555C36.1047 49.5943 36.6888 48.321 37.8911 46.5071C38.0347 46.3424 38.1526 46.1685 38.283 45.9854L38.0044 45.7807C37.4164 46.5248 37.2145 46.9567 36.7105 47.6923C35.7781 47.9892 32.9615 48.7986 32.0829 48.8398C33.1726 48.075 36.3753 46.1765 37.2219 45.1738C36.5641 45.0925 34.7874 46.0981 34.0415 46.4459L33.8533 46.093C34.5128 45.8293 35.3142 45.4346 35.9789 45.1406C35.8514 44.8557 35.8125 44.0269 35.7764 43.6596C35.9194 43.5046 36.5675 43.2283 36.7792 43.134C38.5312 42.3572 40.0465 41.0753 41.6247 39.8426C42.2739 39.3358 42.9981 38.13 43.3779 38.1002L43.0467 37.8434C43.2864 37.5242 43.5255 37.1295 43.2869 36.7188L43.0633 36.7434C42.9666 36.7074 42.8185 36.6227 42.7206 36.5713C43.252 35.6841 43.7869 34.7631 44.0237 33.658C44.0306 33.3583 44.0483 33.3668 44.1621 33.1003C44.5614 32.824 44.8909 32.6032 45.2038 32.1525C46.7379 29.9422 47.3225 27.236 45.9668 24.6385L45.7346 24.3416L45.8358 23.8228C46.1413 21.4175 45.3027 18.1965 44.4659 16.0961C43.609 13.9264 42.2968 12.0348 40.8376 10.5756C33.0965 2.83682 18.882 3.72 12.8919 14.5122C12.535 14.8771 12.4114 15.5807 12.1935 16.0583C11.133 17.5644 9.82192 20.83 10.6914 22.8555L10.7034 22.99C10.9854 23.4916 11.2199 23.9143 11.3749 24.5207C11.4001 24.6213 11.4933 25.1413 11.5054 25.1756C11.5494 24.9811 11.5076 25.0647 11.6415 24.9354L12.094 25.0938C12.1872 27.0169 12.0408 28.1655 12.3737 30.0789L12.4183 30.5176C12.4726 30.8134 12.5436 31.1268 12.5521 31.4283L12.19 31.5524C12.0053 32.0461 12.1128 32.5906 12.0774 33.213C12.2204 35.5863 12.8713 37.999 14.2487 39.5806L14.0113 39.6441L14.0565 39.8769C14.0194 40.2258 14.0834 40.1069 13.9192 40.2956C13.8409 40.692 13.7539 41.0884 13.7328 41.5037C13.7042 42.0546 14.0685 43.3445 13.9095 43.7431C13.7619 43.782 13.7774 43.8192 13.6882 43.7557C13.8872 43.3153 13.7385 43.3199 13.707 42.8411C13.5492 40.4558 13.977 40.4335 12.829 38.4583C11.8526 36.7795 11.5837 33.9892 11.542 31.8527C9.31341 30.2053 9.16983 26.5033 10.5066 23.8943Z" fill="#1F221B"/>
<path d="M35.7754 43.6531C35.9184 43.4981 36.5665 43.2218 36.7781 43.1275C38.5302 42.3507 40.0455 41.0688 41.6236 39.8361C42.2729 39.3293 42.997 38.1235 43.3769 38.0938C43.4575 40.4842 41.1786 41.9051 39.8441 42.8089C38.5748 43.668 37.2987 44.4322 35.9779 45.1341C35.8503 44.8492 35.8114 44.0204 35.7754 43.6531Z" fill="#3F4238"/>
<path d="M37.8915 46.5041C38.5127 46.3835 39.6293 46.249 40.2219 46.527C39.1122 47.8215 37.6902 50.3 37.4156 52.2552C36.9306 52.2432 36.08 52.0492 35.5703 51.9526C36.1051 49.5913 36.6892 48.318 37.8915 46.5041Z" fill="#686658"/>
<path d="M40.596 46.6247C41.3099 46.5778 42.0506 46.4897 42.7565 46.6001C40.0165 48.8098 38.3417 52.3546 37.4236 56.4204C37.2692 56.1722 37.2337 55.9611 37.1816 55.6557C37.2869 52.2121 38.7244 48.8785 40.596 46.6247Z" fill="#E8D9C1"/>
<path d="M37.221 45.171C38.8976 43.9251 40.3293 42.4934 42.2232 42.7044C40.3716 43.7878 39.6303 43.7873 38.0035 45.7779C37.4155 46.5221 37.2136 46.9539 36.7096 47.6895C35.7772 47.9864 32.9606 48.7958 32.082 48.837C33.1717 48.0722 36.3744 46.1737 37.221 45.171Z" fill="#ABA08B"/>
<path d="M38.2825 45.9846C40.4224 43.5661 42.2951 42.3386 44.9739 44.1438C43.1423 44.1765 41.5812 44.7279 40.221 46.5291C39.6284 46.2511 38.5118 46.3856 37.8906 46.5063C38.0342 46.3415 38.152 46.1676 38.2825 45.9846Z" fill="#3F4238"/>
<path d="M40.5957 46.6204C42.3146 44.7911 43.9048 43.8467 45.9698 45.3837C45.8096 45.553 45.7753 45.5707 45.5796 45.5833C44.5729 45.6468 43.6668 46.022 42.7562 46.5958C42.0503 46.4854 41.3096 46.5735 40.5957 46.6204Z" fill="#B0A695"/>
<path d="M11.5059 25.1738C11.5499 24.9794 11.5082 25.0629 11.642 24.9336L12.0945 25.092C12.1877 27.0151 12.0413 28.1637 12.3742 30.0771L12.4188 30.5159C12.0538 30.7012 12.1866 30.5513 11.9703 30.9186C11.5127 29.5915 11.5299 26.6479 11.5059 25.1738Z" fill="#837D6A"/>
<path d="M11.9688 30.9183C12.185 30.5511 12.0523 30.701 12.4172 30.5156C12.4715 30.8114 12.5425 31.1248 12.5511 31.4263L12.189 31.5504C12.0042 32.044 12.1117 32.5886 12.0763 33.2109C11.9882 32.5743 12.0528 31.7323 11.9688 30.9183Z" fill="#B0A695"/>
<path d="M43.8187 39.5547C45.4729 39.7028 46.963 39.9837 48.4955 40.9218C48.6642 41.0099 48.7042 41.0305 48.8661 41.1449C50.0227 42.373 50.2023 44.1851 50.3745 46.0436C50.4563 46.9228 50.6085 49.9905 50.3419 50.7244L50.2212 50.7495C49.8792 50.3451 49.5382 49.3138 49.2528 48.767C48.9965 48.2762 48.7981 47.9473 48.4943 47.4942L48.238 47.1155C47.5087 46.1162 46.748 45.3555 45.8831 44.5884L45.6731 44.319C44.8151 43.4615 44.3049 43.1469 43.2587 42.8798C43.3571 42.1299 43.3628 41.8902 43.241 41.1455L43.0859 40.8577C43.1683 40.2829 43.4903 39.9654 43.8187 39.5547Z" fill="#686658"/>
<path d="M43.8187 39.5547C45.4729 39.7028 46.963 39.9837 48.4955 40.9218C48.1843 41.158 47.1032 41.5968 46.7297 41.7529C45.4421 41.1392 44.4759 40.8492 43.0859 40.8577C43.1683 40.2829 43.4903 39.9654 43.8187 39.5547Z" fill="#686658"/>
<path d="M43.2422 41.1448C43.8325 40.9046 45.9615 41.6459 46.5724 41.941C46.0582 42.783 45.9501 43.3019 45.6744 44.3183C44.8164 43.4609 44.3061 43.1463 43.2599 42.8791C43.3583 42.1292 43.364 41.8896 43.2422 41.1448Z" fill="#686658"/>
<path d="M45.8828 44.5838C46.0418 43.7916 46.3124 42.2249 47.0657 42.3776C47.8071 43.0892 48.3018 45.9344 48.2378 47.111C47.5085 46.1117 46.7477 45.3509 45.8828 44.5838Z" fill="#686658"/>
<path d="M43.0859 40.8557C44.4759 40.8471 45.4421 41.1371 46.7297 41.7508C47.1032 41.5947 48.1843 41.156 48.4955 40.9197C48.6642 41.0078 48.7042 41.0284 48.8661 41.1428C48.4486 41.355 47.4395 41.6874 47.2124 41.8956C47.3245 42.1209 47.8228 43.0293 47.86 43.142C48.3433 44.6046 48.5126 45.9277 48.4943 47.4921L48.238 47.1135C48.3021 45.9368 47.8073 43.0916 47.066 42.3801C46.3127 42.2273 46.0421 43.7941 45.8831 44.5863L45.6731 44.3169C45.9489 43.3004 46.057 42.7816 46.5712 41.9396C45.9603 41.6445 43.8313 40.9031 43.241 41.1434L43.0859 40.8557Z" fill="#3F4238"/>
<path d="M10.3761 29.1246C10.0649 27.829 10.121 25.6187 10.7439 24.5273L10.8463 24.5285C11.3039 25.2549 11.1924 27.5276 11.2456 28.5726C11.332 29.4638 11.4023 30.3916 11.5785 31.2554C10.9939 30.5815 10.6535 30.1382 10.3761 29.1246Z" fill="#E8D9C1"/>
<path d="M11.2464 28.5703C11.3328 29.4615 11.4031 30.3893 11.5793 31.253C10.9947 30.5792 10.6544 30.1359 10.377 29.1223C10.6424 29.2396 10.7968 29.354 11.0639 29.2602C11.271 28.9473 11.2075 29.0657 11.2464 28.5703Z" fill="#B0A695"/>
<path d="M42.6212 41.1523L42.7499 41.1787C42.8992 41.3714 42.9782 41.7581 42.9844 42.035C42.9919 42.3347 42.9232 42.3885 42.7802 42.5898C42.4708 42.7065 42.3243 42.5875 42.0212 42.4651C41.8553 42.3364 41.7546 42.3593 41.5687 42.3553L41.4801 42.3541L41.4629 42.2638C41.7929 41.7278 42.1899 41.5104 42.6212 41.1523Z" fill="#313935"/>
<path d="M10.0583 46.7695L10.4359 47.198C9.71284 48.3117 8.22618 50.6609 8.17184 52.2277L7.95161 52.5411C7.43966 53.8613 6.59022 56.8232 6.60338 58.2664C6.5456 58.458 6.48554 58.6371 6.45408 58.8401C6.30136 59.3263 6.21612 59.792 6.13719 60.3051C5.96844 60.0997 5.94098 59.9859 5.70703 59.999C5.70989 59.7096 6.1635 56.9148 6.2453 56.5321C6.69375 54.4419 7.37616 51.8782 8.22446 50.026C8.51333 49.0662 9.49776 47.4788 10.0583 46.7695Z" fill="#1F221B"/>
<path d="M8.22518 50.0273L8.39977 50.1003L8.36647 50.291L8.22461 50.3311L8.22518 50.0273Z" fill="#202520"/>
</g>
<defs>
<linearGradient id="paint0_linear_4631_52856" x1="10.8668" y1="20.4348" x2="11.5032" y2="20.5993" gradientUnits="userSpaceOnUse">
<stop stop-color="#898372"/>
<stop offset="1" stop-color="#ACA08A"/>
</linearGradient>
<linearGradient id="paint1_linear_4631_52856" x1="40.5475" y1="27.1523" x2="40.0142" y2="27.0865" gradientUnits="userSpaceOnUse">
<stop stop-color="#99927E"/>
<stop offset="1" stop-color="#B9A991"/>
</linearGradient>
<linearGradient id="paint2_linear_4631_52856" x1="31.193" y1="49.1888" x2="30.463" y2="46.9448" gradientUnits="userSpaceOnUse">
<stop stop-color="#7F7966"/>
<stop offset="1" stop-color="#D8C7AE"/>
</linearGradient>
<clipPath id="clip0_4631_52856">
<rect width="57" height="57" rx="28.5" fill="white"/>
</clipPath>
</defs>
</svg>
