<svg width="57" height="57" viewBox="0 0 57 57" fill="none" xmlns="http://www.w3.org/2000/svg">
<g clip-path="url(#clip0_4631_52152)">
<rect width="57" height="57" rx="28.5" fill="#F6F6FE"/>
<path d="M38.1149 58.2882C37.9462 58.2939 37.7776 58.3107 37.6145 58.3107C30.9971 58.3107 24.3797 58.3107 17.7623 58.3107C17.6105 58.3107 17.4644 58.2995 17.3126 58.2882C17.2732 55.2241 17.2338 52.16 17.1945 49.0958C17.1889 48.6854 17.1945 48.275 17.1889 47.859C17.1889 47.7634 17.1383 47.6678 17.0877 47.471C16.9808 47.6509 16.8965 47.7296 16.8853 47.8196C16.8572 47.9826 16.8684 48.1569 16.874 48.3256C16.9021 50.6813 16.9302 53.0314 16.9584 55.3872C16.9246 55.4209 16.8909 55.4546 16.8572 55.4884C16.4917 55.4209 16.1263 55.3647 15.7664 55.2803C14.597 55.0105 13.4444 54.69 12.4156 54.0491C11.9602 53.7623 11.9602 53.7511 12.1457 53.2394C12.8204 51.3954 13.4838 49.5513 14.1922 47.7184C14.4733 46.9875 14.8444 46.2903 15.2098 45.5988C15.6765 44.7217 16.3793 44.0527 17.2001 43.5073C18.4539 42.6809 19.8313 42.1018 21.2313 41.4608C21.2931 41.6913 21.3437 41.8656 21.3943 42.0399C21.816 43.6085 22.7661 44.6936 24.301 45.2952C25.8696 45.908 27.4776 46.0823 29.1418 45.8462C31.9192 45.447 34.05 44.137 35.3319 41.5789C35.3937 41.4496 35.4837 41.3371 35.6017 41.1572C36.8443 41.7195 38.0587 42.2479 39.2618 42.8102C40.9204 43.586 42.1292 44.8061 42.8882 46.4815C43.6809 48.2188 44.3162 50.0179 44.8672 51.8451C45.0809 52.5535 45.3114 53.2619 45.5306 53.9535C43.4898 55.241 39.7397 56.3373 38.4466 56C38.4466 55.8313 38.441 55.6458 38.4466 55.4659C38.4747 54.4932 38.5141 53.5206 38.5366 52.5535C38.5647 51.2942 38.7165 50.0573 39.0707 48.8485C39.2562 48.2075 39.5373 47.5891 39.7735 46.9594C39.8353 46.7963 39.9927 46.6277 39.7285 46.459C39.4305 46.8076 39.2899 47.2349 39.1269 47.6453C38.3566 49.5906 38.2161 51.6427 38.143 53.6949C38.0868 55.2129 38.1205 56.7534 38.1149 58.2882Z" fill="#DD5D3E"/>
<path d="M16.9591 55.3875C16.9309 53.0317 16.9028 50.6816 16.8747 48.3259C16.8747 48.1572 16.8635 47.9886 16.886 47.8199C16.9028 47.73 16.9815 47.6512 17.0884 47.4713C17.139 47.6681 17.1896 47.7637 17.1896 47.8593C17.2008 48.2697 17.1952 48.6801 17.1952 49.0962C17.2345 52.1603 17.2739 55.2244 17.3133 58.2886C17.2008 58.2886 17.0827 58.2886 16.9703 58.2886C16.9703 57.4902 16.9703 56.6975 16.9703 55.8878C15.7053 55.6517 14.5078 55.4212 13.3777 54.9264C13.1978 54.8534 13.0235 54.7803 12.8436 54.7072C12.5512 54.5385 12.2476 54.3867 11.9777 54.1955C11.5448 53.8919 11.5111 53.7514 11.6966 53.2454C12.2364 51.778 12.793 50.3162 13.3327 48.8488C13.6757 47.9099 14.0467 46.9878 14.4853 46.0883C15.1656 44.6771 16.1607 43.547 17.5438 42.833C19.1349 42.0177 20.7766 41.2981 22.4014 40.5447C22.5588 40.4716 22.7556 40.4716 22.9299 40.4435C22.9636 40.556 23.003 40.6628 23.0367 40.7752C23.0367 41.5905 23.4359 42.2033 24.0431 42.6924C24.8639 43.3558 25.8141 43.71 26.8598 43.8337C27.0116 43.8562 27.1578 43.8731 27.3096 43.8956C27.6526 43.8956 27.9899 43.8956 28.3329 43.8956C28.4847 43.8731 28.6365 43.8562 28.7883 43.8337C30.087 43.7382 31.2621 43.294 32.3191 42.5462C33.0556 42.0234 33.5897 41.3431 33.8314 40.4548C33.8371 40.3423 33.8371 40.2299 33.8427 40.1174C33.9326 40.1174 34.0395 40.0893 34.1182 40.123C35.5912 40.7471 37.0755 41.3599 38.526 42.0234C39.285 42.372 40.0215 42.788 40.7243 43.2378C41.6689 43.845 42.3773 44.6939 42.8945 45.6835C43.4118 46.673 43.8784 47.685 44.1932 48.7645C44.4238 49.5459 44.7555 50.2993 45.0197 51.0752C45.2952 51.8792 45.5426 52.7 45.7956 53.5096C45.9867 54.1168 45.9699 54.1562 45.3908 54.4542C45.1265 54.5891 44.8567 54.7128 44.5981 54.859C44.5475 54.8871 44.5306 54.977 44.5025 55.0445C44.3563 55.0726 44.2101 55.1007 44.0639 55.1288C42.3154 55.9328 40.4488 56.2927 38.5541 56.5344C38.5316 56.5625 38.5148 56.585 38.4923 56.6131C38.481 57.1753 38.4754 57.7319 38.4642 58.2942C38.3517 58.2886 38.2337 58.2829 38.1212 58.2773C38.1268 56.7424 38.0931 55.2076 38.1437 53.6727C38.2112 51.6206 38.3517 49.5684 39.1276 47.6231C39.2906 47.2127 39.4312 46.791 39.7292 46.4368C39.9934 46.6111 39.836 46.7742 39.7742 46.9372C39.538 47.5669 39.2569 48.1797 39.0714 48.8263C38.7228 50.0295 38.5654 51.272 38.5373 52.5314C38.5204 53.504 38.4754 54.4767 38.4473 55.4437C38.4417 55.6292 38.4473 55.8091 38.4473 55.9778C39.7348 56.3151 43.4905 55.2244 45.5313 53.9313C45.3121 53.2398 45.0816 52.5314 44.8679 51.823C44.3169 49.9957 43.6816 48.2022 42.8889 46.4593C42.1243 44.7839 40.9155 43.5639 39.2625 42.788C38.065 42.2258 36.845 41.6973 35.6024 41.1351C35.4844 41.315 35.4 41.4274 35.3326 41.5567C34.0507 44.1148 31.9199 45.4248 29.1425 45.824C27.4783 46.0601 25.8703 45.8859 24.3017 45.273C22.7725 44.6771 21.8223 43.592 21.395 42.0177C21.35 41.8435 21.2994 41.6635 21.232 41.4387C19.8264 42.0796 18.4546 42.6643 17.2008 43.4852C16.3743 44.0249 15.6772 44.6996 15.2105 45.5766C14.8395 46.2682 14.474 46.971 14.1929 47.6962C13.4845 49.5291 12.8211 51.3732 12.1464 53.2173C11.9552 53.7345 11.9553 53.7401 12.4163 54.0269C13.4451 54.6678 14.5977 54.9883 15.7671 55.2582C16.127 55.3425 16.4924 55.3987 16.8579 55.4662C16.886 55.4549 16.9197 55.4212 16.9591 55.3875ZM22.6544 40.8821C22.2215 40.9833 21.8785 41.1351 21.5581 41.3993C21.6424 41.7198 21.7099 42.029 21.8111 42.327C22.1484 43.3109 22.7106 44.1373 23.6552 44.6321C24.0037 44.8176 24.3579 44.9863 24.7234 45.1156C26.1796 45.6272 27.6695 45.7453 29.1931 45.5204C31.0709 45.2449 32.7014 44.5084 33.972 43.0691C34.4892 42.4788 34.9278 41.8378 35.1864 41.0339C34.8491 40.8989 34.5286 40.7696 34.2306 40.6515C34.1575 40.7359 34.1238 40.7584 34.1126 40.7921C33.6796 41.984 32.8251 42.7768 31.7231 43.3502C30.9022 43.7775 30.0477 44.0755 29.1256 44.1879C27.5345 44.3791 25.994 44.2835 24.5491 43.4964C23.5258 42.9342 22.8174 42.1527 22.6544 40.8821Z" fill="#691D0F"/>
<path d="M38.459 58.3011C38.4702 57.7388 38.4759 57.1822 38.4871 56.62C38.5208 56.6088 38.5433 56.5807 38.5489 56.5413C40.4436 56.2995 42.3046 55.9341 44.0587 55.1357C44.1318 55.3494 44.2443 55.563 44.278 55.7823C44.4073 56.62 44.5142 57.4634 44.6266 58.3011C42.5689 58.3011 40.5167 58.3011 38.459 58.3011Z" fill="#F8BC94"/>
<path d="M13.3838 54.9307C14.5138 55.4254 15.7114 55.6559 16.9764 55.8921C16.9764 56.7017 16.9764 57.4944 16.9764 58.2928C15.5877 58.2928 14.1934 58.2928 12.8047 58.2984C12.934 57.2976 13.0521 56.3025 13.1926 55.3074C13.2039 55.1724 13.3163 55.0544 13.3838 54.9307Z" fill="#F8BC94"/>
<path d="M13.383 54.9339C13.3156 55.0576 13.2088 55.1756 13.1863 55.3049C13.0457 56.3001 12.9276 57.3008 12.7983 58.296C12.669 58.2904 12.5453 58.2847 12.416 58.2847C12.4722 57.6494 12.506 57.0085 12.5847 56.3732C12.6522 55.8166 12.759 55.2656 12.8433 54.709C13.0232 54.7821 13.2031 54.8608 13.383 54.9339Z" fill="#703C40"/>
<path d="M44.6206 58.3004C44.5081 57.4627 44.4013 56.6194 44.272 55.7817C44.2383 55.5624 44.1314 55.3488 44.0527 55.1351C44.1989 55.107 44.3451 55.0789 44.4913 55.0508C44.6487 56.1359 44.8005 57.2266 44.9579 58.3117C44.8455 58.3061 44.733 58.3061 44.6206 58.3004Z" fill="#703C40"/>
<path d="M23.0373 40.7827C23.0035 40.6702 22.9642 40.5634 22.9304 40.451C22.9473 40.4397 22.9586 40.4285 22.981 40.4228C23.8694 40.1249 24.0886 40.1867 24.1448 38.8149C24.1561 38.4775 24.1561 38.1402 24.1392 37.8029C24.1224 37.37 24.2404 37.3194 23.6557 37.1451C21.9859 36.6391 20.5972 35.6889 19.4053 34.4408C18.4832 33.4737 17.8479 32.3493 17.505 31.0224C17.3138 31.0224 17.1283 31.0112 16.9427 31.0224C16.0938 31.0843 15.3685 30.7919 14.7051 30.2915C13.62 29.4651 13.024 28.3519 12.8216 27.0306C12.7317 26.4347 12.653 25.8106 12.726 25.2203C12.7935 24.6749 13.0521 24.152 13.4176 23.7023C13.8786 23.14 14.4577 22.932 15.1605 23.022C15.2729 23.067 15.3854 23.1119 15.4978 23.1569C15.5315 23.1906 15.5653 23.2244 15.599 23.2581C15.599 23.3762 15.6046 23.4886 15.6046 23.6067C15.4472 23.5561 15.2842 23.5111 15.1324 23.4549C14.8119 23.3312 14.5195 23.3481 14.2441 23.5673C13.6875 23.8597 13.4007 24.3601 13.2602 24.9279C12.9453 26.2098 13.0971 27.4636 13.7268 28.6217C14.2384 29.5607 14.9974 30.2803 16.06 30.6008C16.4873 30.7301 16.9259 30.7638 17.3532 30.567C17.1676 29.4482 16.9877 28.3631 16.8078 27.2836C16.7516 26.9519 16.5998 26.6989 16.2906 26.5359C15.9926 26.6989 15.8239 26.9407 15.7452 27.2387C15.6665 27.531 15.6271 27.8402 15.554 28.2169C15.436 28.0932 15.3123 28.0202 15.3067 27.9471C15.2954 27.7053 15.2786 27.4467 15.3629 27.233C15.5091 26.862 15.734 26.519 15.9364 26.1479C15.6384 25.597 15.0424 25.3665 14.4746 25.1135C14.6376 24.6862 14.8906 24.9954 15.0705 24.9392C15.346 25.1303 15.6271 25.3102 15.8858 25.5183C16.1275 25.7207 16.3468 25.9568 16.6279 26.2267C16.6391 25.9961 16.6448 25.8668 16.656 25.7375C16.7572 25.8106 16.864 25.8837 16.9652 25.9568C16.9877 25.9737 17.0102 25.9905 17.0327 26.0074C17.0552 26.3447 17.0552 26.6821 17.1114 27.0138C17.2801 28.0595 17.4431 29.1109 17.6624 30.1454C17.9154 31.3204 18.2752 32.4617 19.0286 33.4288C20.0912 34.8006 21.3899 35.8801 23.0148 36.5266C23.6557 36.7796 24.3191 36.9764 24.9826 37.1676C26.4219 37.578 27.8836 37.6455 29.3735 37.4655C30.6329 37.3137 31.8024 36.8977 32.9718 36.4423C34.5404 35.8295 35.8447 34.8624 36.8905 33.5412C37.5876 32.6585 38.0374 31.6465 38.2679 30.567C38.4085 29.9205 38.5041 29.2571 38.6896 28.6161C38.8358 28.1045 39.0157 27.6041 39.1281 27.0869C39.3418 26.1142 40.0108 25.4958 40.7811 24.9954C41.051 24.8211 41.4614 24.6974 41.8662 24.9448C41.6019 25.3383 41.1072 25.1528 40.8373 25.4227C40.5674 25.6925 40.292 25.9568 39.9996 26.2379C40.2076 26.356 40.3594 26.4291 40.4944 26.5246C41.0285 26.9013 41.2365 27.5142 41.0285 28.0989C41.0004 28.1832 40.8992 28.2338 40.8317 28.3013C40.7698 28.245 40.7192 28.2226 40.7192 28.1944C40.708 28.0651 40.7024 27.9358 40.7024 27.8065C40.7136 27.115 40.4606 26.8058 39.7129 26.6427C39.6342 26.862 39.5386 27.0812 39.4767 27.3118C39.2293 28.2113 38.9932 29.1165 38.7571 30.0161C38.6446 30.4433 38.7346 30.6008 39.1619 30.6626C39.3643 30.6907 39.5835 30.7076 39.7747 30.657C40.6518 30.4209 41.4558 30.0385 42.0461 29.3245C43.1143 28.0202 43.3842 26.5134 43.0356 24.8942C42.8501 24.034 42.063 23.2131 41.0341 23.2637C41.0341 23.1906 41.0341 23.1176 41.0397 23.0445C41.1128 23.0107 41.1859 22.977 41.259 22.9433C41.3152 22.9039 41.3714 22.8646 41.422 22.8252C41.4501 22.8477 41.4726 22.8927 41.5007 22.8983C42.7151 23.1569 43.283 24.0227 43.4798 25.1416C43.699 26.3728 43.4966 27.5704 42.9344 28.6892C42.4059 29.7349 41.557 30.449 40.4606 30.8538C39.8647 31.0787 39.2575 31.1012 38.594 30.8594C37.7226 33.9067 35.6424 35.8014 32.7356 36.9371C32.7356 37.6961 32.7075 38.4607 32.7469 39.2253C32.775 39.7763 33.0617 39.9787 33.832 40.1361C33.8264 40.2486 33.8264 40.361 33.8207 40.4734C33.7139 40.451 33.6015 40.4397 33.4947 40.4116C32.6401 40.2092 32.3983 39.9112 32.3646 39.0285C32.3477 38.5675 32.3421 38.1065 32.3308 37.6398C32.3308 37.4655 32.3308 37.2913 32.3308 37.0832C29.7334 38.0446 27.1527 38.2189 24.5215 37.4149C24.5215 38.0334 24.5215 38.5731 24.5215 39.1129C24.5103 39.186 24.499 39.259 24.4934 39.3321C24.4484 40.0911 24.0436 40.5465 23.3015 40.7152C23.2115 40.7265 23.1272 40.7546 23.0373 40.7827Z" fill="#703C40"/>
<path d="M15.4971 23.1549C15.3846 23.1099 15.2722 23.065 15.1597 23.02C15.0529 22.7839 14.9517 22.5477 14.8449 22.3116C13.7711 19.9165 13.4675 17.4596 14.2489 14.9127C14.2658 14.8621 14.2602 14.8059 14.2714 14.6709C13.7542 14.8227 13.2707 14.9633 12.7759 15.1095C12.5454 13.9232 14.1477 10.3362 16.526 8.89126C15.6545 8.59891 15.1541 8.01982 15.0417 7.07528C15.2441 7.0303 15.424 6.95721 15.5983 6.95721C16.9757 6.96283 18.2745 6.61425 19.5451 6.10263C21.0856 5.48418 22.6149 4.81513 24.2453 4.43844C24.9931 4.26415 25.7577 4.15733 26.5111 4.02239C26.7809 3.97179 27.0564 3.93244 27.3263 3.89308C27.5343 3.88746 27.748 3.88746 27.956 3.88184C28.5351 3.88746 29.1086 3.8987 29.6877 3.90432C31.0201 3.93806 32.2964 4.21355 33.5558 4.65771C34.7758 5.09062 35.8553 5.70907 36.7604 6.6255C37.2327 7.10901 37.5757 7.67686 37.8624 8.37402C38.1997 7.76681 38.0929 7.17648 38.1491 6.61425C38.1773 6.58052 38.1997 6.55241 38.2279 6.51867C38.3122 6.53554 38.4134 6.52992 38.4809 6.5749C39.3298 7.11463 40.027 8.27844 39.7234 9.47036C39.7121 9.52096 39.7234 9.57718 39.7234 9.66714C40.9715 9.99885 41.9835 10.6848 42.6132 11.8317C42.8999 12.3546 43.0349 12.928 42.9337 13.6364C42.5457 13.2766 42.1915 12.9843 41.6462 12.8887C41.7137 13.0236 41.7418 13.0967 41.7867 13.1642C42.2365 13.9063 42.5907 14.6766 42.6188 15.5649C42.6357 16.1384 42.7538 16.7118 42.7257 17.2797C42.6357 18.837 42.3658 20.3607 41.8149 21.8337C41.6912 22.1598 41.5619 22.4859 41.4325 22.8063C41.3763 22.8457 41.3201 22.8851 41.2639 22.9244C41.2358 22.8232 41.157 22.7051 41.1908 22.6321C41.6181 21.5751 41.8767 20.4731 42.1353 19.3655C42.4164 18.168 42.3939 16.9592 42.3771 15.7448C42.3771 15.6548 42.3377 15.5649 42.3209 15.4749C42.1634 14.6203 41.8317 13.8388 41.3313 13.1248C41.2076 12.9505 41.0727 12.7481 41.2526 12.4558C41.4382 12.4895 41.6349 12.512 41.8205 12.5626C42.0285 12.6188 42.2253 12.6975 42.4389 12.7706C42.4614 12.3658 42.4277 12.1747 42.1353 11.7474C41.4438 10.7297 40.443 10.1619 39.2005 9.91452C39.4254 9.36916 39.5097 8.88002 39.3635 8.34591C39.2174 7.82304 38.97 7.41261 38.4809 7.12588C38.3965 8.42462 38.2166 9.02058 37.8343 9.27358C37.7781 9.15551 37.705 9.04307 37.6713 8.925C37.1765 7.18772 35.9171 6.15885 34.3822 5.39422C33.0835 4.74204 31.6836 4.39908 30.2499 4.28102C28.9511 4.17419 27.6299 4.18544 26.3368 4.39346C24.116 4.75329 22.002 5.46731 19.9387 6.35563C19.1066 6.71545 18.207 6.94034 17.3243 7.17085C16.7565 7.31703 16.1605 7.35639 15.5758 7.44634C15.7276 8.34028 16.4304 8.70011 17.8359 8.61015C17.9034 8.90813 17.6335 8.89689 17.493 8.93062C16.6553 9.13302 16.02 9.65589 15.4465 10.2406C14.3558 11.3538 13.6586 12.7144 13.1976 14.1931C13.1639 14.3055 13.192 14.4348 13.192 14.6091C13.5068 14.5191 13.7711 14.4348 14.0353 14.3673C14.3501 14.283 14.62 14.1706 14.7887 13.8501C14.8786 13.6758 15.0586 13.5409 15.2272 13.4228C15.3453 13.3385 15.5083 13.316 15.5814 13.5015C15.3846 13.7152 15.1822 13.9063 15.0248 14.1256C14.4064 15.0195 14.2939 16.0709 14.1871 17.0998C14.0803 18.1399 14.2208 19.1912 14.4963 20.1976C14.7212 21.0185 15.0754 21.8056 15.3622 22.6152C15.4184 22.7782 15.6264 22.9244 15.4971 23.1549Z" fill="#31221A"/>
<path d="M29.6828 3.90508C29.1037 3.89945 28.5303 3.88821 27.9512 3.88259C27.9624 3.8601 27.9737 3.83761 27.9793 3.81512C28.4291 3.8095 28.8788 3.79825 29.3286 3.8095C29.4467 3.8095 29.5648 3.87134 29.6828 3.90508Z" fill="#703C40"/>
<path d="M27.9781 3.81543C27.9725 3.83792 27.9612 3.86041 27.95 3.8829C27.742 3.88852 27.5283 3.88852 27.3203 3.89414C27.5396 3.86603 27.7588 3.83792 27.9781 3.81543Z" fill="#E6A872"/>
<path d="M38.2173 6.51953C38.1892 6.55323 38.1668 6.58131 38.1387 6.61501C38.1668 6.58692 38.1948 6.55323 38.2173 6.51953Z" fill="#5D5D59"/>
<path d="M16.9585 55.3896C16.9248 55.4233 16.8911 55.457 16.8574 55.4907C16.8855 55.457 16.9192 55.4233 16.9585 55.3896Z" fill="#B73F23"/>
<path d="M23.0371 40.7793C23.1271 40.7512 23.2114 40.7231 23.3014 40.7006C24.0435 40.5376 24.4427 40.0822 24.4933 39.3176C24.4989 39.2445 24.5101 39.1714 24.5214 39.0983C25.8033 39.5312 27.0964 39.7954 28.4682 39.5481C29.677 39.3344 30.7621 38.9184 31.611 37.9963C31.7853 37.8052 31.9652 37.6196 32.1508 37.4229C32.2351 37.5128 32.2801 37.569 32.3307 37.6196C32.3419 38.0807 32.3476 38.5417 32.3644 39.0083C32.3982 39.891 32.6399 40.189 33.4945 40.3914C33.6013 40.4195 33.7138 40.4308 33.8206 40.4532C33.5788 41.3416 33.0447 42.0219 32.3082 42.5447C31.2512 43.2925 30.0762 43.7366 28.7774 43.8322C28.6256 43.8547 28.4738 43.8716 28.322 43.8941C27.9791 43.8941 27.6417 43.8941 27.2988 43.8941C27.147 43.8716 27.0008 43.8547 26.849 43.8322C25.8033 43.7085 24.8531 43.3543 24.0322 42.6909C23.4419 42.2018 23.0371 41.5946 23.0371 40.7793Z" fill="#F8BC94"/>
<path d="M22.6549 40.8838C22.818 42.1545 23.5264 42.9416 24.5496 43.4982C25.9945 44.2853 27.535 44.3809 29.1261 44.1897C30.0482 44.0773 30.9028 43.7793 31.7236 43.352C32.8256 42.7785 33.6802 41.9858 34.1131 40.7939C34.1243 40.7601 34.1581 40.7377 34.2312 40.6533C34.5291 40.7714 34.844 40.9007 35.1869 41.0356C34.9283 41.834 34.4898 42.4806 33.9725 43.0709C32.7075 44.5102 31.0714 45.2467 29.1936 45.5222C27.6644 45.7471 26.1801 45.629 24.7239 45.1174C24.3529 44.9881 23.9987 44.8138 23.6557 44.6339C22.7112 44.1335 22.1546 43.3126 21.8116 42.3288C21.7104 42.0308 21.6485 41.7215 21.5586 41.4011C21.8791 41.1368 22.222 40.985 22.6549 40.8838Z" fill="#DD5D3E"/>
<path d="M28.3281 43.9027C28.4799 43.8802 28.6317 43.8633 28.7835 43.8408C28.6317 43.8577 28.4799 43.8802 28.3281 43.9027Z" fill="#DD5D3E"/>
<path d="M26.8594 43.8408C27.0112 43.8633 27.1574 43.8802 27.3092 43.9027C27.1574 43.8802 27.0056 43.8577 26.8594 43.8408Z" fill="#DD5D3E"/>
<path d="M38.5481 56.5391C38.5425 56.5784 38.52 56.6008 38.4863 56.6177C38.5088 56.5952 38.5256 56.5671 38.5481 56.5391Z" fill="#E6A872"/>
<path d="M41.0327 23.2451C42.0615 23.1945 42.8486 24.021 43.0342 24.8756C43.3828 26.4948 43.1185 28.0016 42.0447 29.3059C41.4543 30.0256 40.6503 30.4079 39.7733 30.6384C39.5821 30.689 39.3628 30.6721 39.1604 30.644C38.7388 30.5878 38.6432 30.4247 38.7556 29.9974C38.9918 29.0923 39.2279 28.1927 39.4753 27.2931C39.5371 27.0626 39.6327 26.8434 39.7114 26.6241C40.4592 26.7871 40.7122 27.0964 40.7009 27.7879C40.7009 27.9172 40.7009 28.0465 40.7178 28.1758C40.7178 28.204 40.7684 28.2264 40.8303 28.2827C40.8977 28.2152 40.9989 28.159 41.027 28.0803C41.2351 27.4899 41.027 26.8771 40.4929 26.506C40.358 26.4105 40.2006 26.3374 39.9982 26.2193C40.2849 25.9382 40.566 25.6739 40.8359 25.4041C41.1114 25.1342 41.6005 25.3197 41.8647 24.9262C41.4599 24.6788 41.0495 24.7969 40.7796 24.9768C40.0094 25.4772 39.3347 26.0956 39.1267 27.0683C39.0143 27.5855 38.84 28.0859 38.6882 28.5975C38.5026 29.2384 38.4071 29.8962 38.2665 30.5484C38.036 31.6279 37.5862 32.6399 36.889 33.5226C35.8433 34.8438 34.5389 35.8109 32.9703 36.4237C31.8009 36.8791 30.6315 37.2951 29.3721 37.4469C27.8878 37.6268 26.4204 37.5594 24.9811 37.149C24.3177 36.9578 23.6486 36.7666 23.0133 36.508C21.3941 35.8615 20.0954 34.782 19.0272 33.4102C18.2738 32.4375 17.9139 31.3018 17.6609 30.1268C17.4417 29.0923 17.2786 28.0409 17.11 26.9952C17.0537 26.6635 17.0594 26.3261 17.0312 25.9888C17.0481 25.494 17.0762 24.9936 17.0762 24.4989C17.0819 23.5487 17.0706 22.6042 17.065 21.654C17.0818 20.1979 17.1718 18.7529 17.4023 17.3136C17.4923 16.7458 17.5541 16.178 17.6328 15.6045C17.6778 15.4639 17.734 15.3234 17.7565 15.1828C17.8746 14.5138 18.3356 14.1146 18.8978 13.6648C18.8978 14.3339 18.8585 14.9129 18.9091 15.4808C18.9709 16.251 19.3814 16.8133 20.0673 17.1956C20.2416 17.2912 20.3709 17.3305 20.5114 17.19C20.6351 17.0663 20.7813 16.9426 20.86 16.7908C21.1692 16.2061 21.5403 15.6663 22.0294 15.2334C22.4174 14.8905 22.8559 14.6093 23.2832 14.3114C23.4069 14.227 23.5587 14.1933 23.6992 14.1315C23.6992 14.3451 23.643 14.48 23.5699 14.6037C23.2101 15.2165 22.839 15.8294 22.4736 16.4366C22.4061 16.549 22.2881 16.6502 22.4848 16.7458C23.1258 16.9145 23.7611 16.9088 24.402 16.7402C25.1498 16.5996 25.9088 16.4928 26.6453 16.3073C28.2027 15.925 29.6251 15.2165 30.9801 14.3676C31.1375 14.2664 31.278 14.1033 31.531 14.1483C31.2331 14.6824 30.6877 14.986 30.4403 15.5145C30.7833 15.7226 30.9238 15.7619 31.3118 15.6944C32.9029 15.4246 34.3084 14.778 35.461 13.6311C35.5903 13.5018 35.7196 13.3837 35.8433 13.2656C35.8939 13.2937 35.922 13.305 35.922 13.3162C35.9333 13.4287 35.9501 13.5355 35.9558 13.6479C36.0288 15.537 36.6979 17.1843 37.9798 18.573C38.2328 18.8485 38.3508 19.1577 38.3565 19.5288C38.3733 20.2766 38.4014 21.0243 38.4239 21.7721C38.4295 21.9295 38.4352 22.0869 38.4408 22.25C38.5251 23.4869 38.6095 24.7238 38.6994 26.0787C38.885 25.8651 39.003 25.7583 39.0874 25.6233C39.3966 25.1398 39.7058 24.6563 39.9982 24.1672C40.2455 23.7399 40.4985 23.3407 41.0327 23.2451ZM27.9834 29.9862C28.0003 29.9019 28.0171 29.8175 28.0452 29.6601C27.8147 29.6601 27.6292 29.6826 27.4549 29.6545C27.2019 29.6151 26.9377 29.5758 26.7015 29.4746C25.8301 29.1035 25.6839 28.575 26.3586 27.906C26.3867 27.8779 26.4092 27.8498 26.4317 27.8216C27.0445 27.1189 27.0614 26.298 26.9208 25.4434C26.8758 25.1623 26.7071 25.0724 26.4035 25.2354C26.4204 25.3816 26.4092 25.5559 26.4654 25.702C26.7521 26.4105 26.5497 27.012 26.0999 27.5686C26.0156 27.6698 25.92 27.7598 25.8357 27.861C25.3241 28.5076 25.4084 29.1204 26.1056 29.5702C26.3979 29.7557 26.7465 29.8625 27.0726 30.0031C27.3818 30.1493 27.6854 30.183 27.9834 29.9862ZM28.2139 32.5949C27.989 32.6174 27.7641 32.6399 27.5392 32.6624C27.4212 32.6624 27.3031 32.6624 27.185 32.6624C26.9995 32.6399 26.814 32.6174 26.6341 32.5949C25.8076 32.5443 25.0767 32.1733 24.3233 31.7909C24.2277 32.1451 24.4414 32.2351 24.6044 32.3251C25.2004 32.6512 25.8357 32.8479 26.516 32.9042C27.1963 33.0784 27.871 33.0447 28.5512 32.9042C29.8556 32.8423 31.4523 32.1564 31.7447 31.5155C31.5198 31.3299 31.368 31.5323 31.2106 31.6279C30.2885 32.1845 29.2934 32.5162 28.2139 32.5949ZM23.5081 20.5408C23.6711 20.6195 23.8286 20.7376 23.9972 20.7713C24.2052 20.8163 24.4582 20.8782 24.6157 20.642C24.7618 20.4171 24.6719 20.1754 24.5145 20.0236C24.2783 19.7987 24.0141 19.5513 23.7161 19.4445C22.5129 19.0228 21.2985 19.0678 20.101 19.5007C19.595 19.6862 19.2408 20.0517 18.9822 20.5127C18.7629 20.9063 18.881 21.1424 19.3195 21.1087C19.5894 21.0862 19.8424 20.9512 20.1066 20.8669C20.4777 20.7545 20.8488 20.6476 21.2198 20.5408C21.9901 20.5408 22.7491 20.5408 23.5081 20.5408ZM31.5816 20.6589C32.217 20.4115 32.8635 20.2878 33.5494 20.3159C34.2297 20.344 34.8763 20.5071 35.5172 20.7264C35.8658 20.85 36.2144 20.9962 36.5911 20.85C36.6698 20.4003 36.5967 20.1866 36.2537 19.9224C35.6353 19.4389 34.9381 19.1521 34.1566 19.0734C33.6338 18.9441 33.1109 18.8991 32.5824 19.0622C31.9021 19.1409 31.3286 19.4332 30.9013 19.9674C30.7495 20.1585 30.5359 20.3834 30.8001 20.6533C31.0644 20.8557 31.323 20.7994 31.5816 20.6589ZM19.5219 25.2748C19.5781 25.5109 19.6062 25.7526 19.6962 25.9719C20.0616 26.849 20.7476 27.355 21.6584 27.5405C23.5643 27.9341 24.7731 26.3599 24.5313 24.7744C24.4751 24.4089 24.3627 24.0604 24.2727 23.7005C24.1546 23.0821 23.7105 22.7616 23.182 22.548C22.3949 22.2219 21.5797 22.2781 20.7869 22.5255C20.5564 22.5986 20.3709 22.801 20.1628 22.9415C19.685 23.2676 19.5275 23.8074 19.3814 24.3021C19.3026 24.5945 19.1846 24.9993 19.5219 25.2748ZM35.9839 25.2691C36.0513 25.1286 36.175 24.9824 36.175 24.8418C36.1806 23.8861 35.6016 22.8347 34.6458 22.5367C33.8474 22.2893 33.0322 22.2275 32.2563 22.5817C31.7672 22.801 31.2387 23.0427 31.2387 23.723C31.1881 23.8636 31.1487 24.0041 31.0869 24.1391C30.8226 24.7125 30.7833 25.3478 30.9688 25.8932C31.5592 27.6192 33.4426 28.0184 34.7245 27.2257C35.4554 26.7703 35.8321 26.09 35.9839 25.2691Z" fill="#F8BC94"/>
<path d="M15.4973 23.1548C15.6266 22.9242 15.4129 22.7837 15.3511 22.6038C15.0644 21.7998 14.7102 21.0071 14.4853 20.1862C14.2042 19.1798 14.0636 18.1285 14.176 17.0883C14.2829 16.0595 14.3953 15.0025 15.0138 14.1142C15.1712 13.8893 15.3792 13.7037 15.5704 13.4901C15.4973 13.3046 15.3342 13.3327 15.2162 13.4114C15.0475 13.5295 14.8732 13.6644 14.7776 13.8387C14.609 14.1591 14.3391 14.2716 14.0242 14.3559C13.76 14.429 13.5014 14.5077 13.1809 14.5977C13.1809 14.4234 13.1528 14.2941 13.1865 14.1816C13.6475 12.703 14.3447 11.348 15.4354 10.2292C16.0089 9.64448 16.6498 9.12161 17.4819 8.91921C17.6169 8.88547 17.8924 8.89672 17.8249 8.59874C16.4193 8.68869 15.7109 8.32887 15.5647 7.43493C16.1495 7.34498 16.7454 7.30562 17.3133 7.15944C18.196 6.92893 19.0899 6.70404 19.9276 6.34422C21.991 5.4559 24.1049 4.74187 26.3257 4.38205C27.6189 4.17402 28.9401 4.16278 30.2388 4.2696C31.6725 4.38767 33.0668 4.73063 34.3712 5.38281C35.9004 6.15306 37.1654 7.17631 37.6602 8.91358C37.6939 9.03727 37.767 9.1441 37.8232 9.26216C38.2056 9.00916 38.3855 8.4132 38.4698 7.11446C38.9646 7.40682 39.2119 7.81162 39.3525 8.33449C39.4987 8.86861 39.4143 9.35774 39.1894 9.9031C40.4376 10.1505 41.4327 10.7183 42.1243 11.736C42.411 12.1576 42.4504 12.3544 42.4279 12.7592C42.2142 12.6861 42.0118 12.6018 41.8094 12.5512C41.6183 12.5006 41.4215 12.4781 41.2416 12.4444C41.0673 12.7367 41.1966 12.9391 41.3203 13.1134C41.8263 13.8274 42.1524 14.6089 42.3098 15.4635C42.3267 15.5535 42.366 15.6434 42.366 15.7334C42.3829 16.9478 42.4054 18.1566 42.1243 19.3541C41.86 20.4617 41.607 21.5637 41.1797 22.6206C41.1516 22.6937 41.2303 22.8174 41.2528 22.913C41.1797 22.9467 41.1066 22.9805 41.0336 23.0142C40.6681 22.958 40.3757 23.0817 40.1565 23.3796C40.044 23.5314 39.9372 23.6776 39.8304 23.8294C39.5774 24.2061 39.33 24.5828 39.0264 25.0382C38.9364 24.1499 38.8184 23.3965 38.7903 22.6375C38.7453 21.558 38.7622 20.4786 38.7509 19.3935C39.0545 19.4216 39.2457 19.832 39.7742 19.8039C39.5324 19.579 39.3862 19.4272 39.2232 19.2923C38.4361 18.6457 37.7614 17.8923 37.261 17.0153C36.592 15.8402 36.2603 14.5696 36.3165 13.209C36.3333 12.7423 36.3839 12.2813 36.4177 11.8203C36.4289 11.6741 36.4402 11.5167 36.4064 11.3761C36.3839 11.2862 36.2771 11.2131 36.1422 11.05C36.1141 11.2637 36.0972 11.3536 36.0916 11.4436C36.0297 12.1745 35.7992 12.8379 35.2482 13.3383C34.8491 13.6981 34.4386 14.0692 33.972 14.3334C33.0893 14.8338 32.1616 15.2611 31.0484 15.3454C31.4813 14.8113 31.8693 14.3447 32.2516 13.8668C32.4371 13.6363 32.5439 13.3102 32.7745 13.1528C33.5222 12.6411 33.9439 11.854 34.5455 11.2187C34.6017 11.1569 34.5904 11.0276 34.6073 10.932C34.5736 10.9095 34.5455 10.887 34.5117 10.8645C34.3656 10.9938 34.2194 11.1231 34.0788 11.2581C33.3254 11.9552 32.6058 12.6974 31.8074 13.3383C30.9079 14.0636 29.9015 14.637 28.8501 15.1262C27.6751 15.6715 26.4607 16.0763 25.1844 16.2731C24.6334 16.3574 24.0825 16.4249 23.5259 16.4811C23.3797 16.4924 23.2279 16.4193 23.0086 16.3743C23.1492 16.0988 23.2447 15.8964 23.3516 15.7053C23.7001 15.07 24.0543 14.4346 24.4029 13.7993C24.476 13.67 24.5266 13.5182 24.6278 13.417C25.0607 12.9785 25.5105 12.5568 25.9547 12.1239C26.6406 11.4605 27.3265 10.8027 28.0012 10.128C28.0686 10.0605 28.063 9.91997 28.1136 9.71757C27.512 9.95932 27.1634 10.3697 26.7811 10.7071C26.0221 11.3761 25.2969 12.0733 24.5828 12.7873C23.9194 13.4451 23.1885 14.0242 22.407 14.5358C22.0978 14.7382 21.7942 14.98 21.5581 15.2611C21.2095 15.6715 20.9227 16.1326 20.6079 16.5711C20.3661 16.9084 20.175 16.9478 19.8939 16.6386C19.6746 16.3968 19.4722 16.1044 19.3654 15.8008C19.1236 15.1149 19.2192 14.4009 19.2867 13.6925C19.3204 13.3327 19.5341 13.0741 19.7589 12.8267C20.2425 12.3094 20.7428 11.809 21.2263 11.2918C21.3669 11.14 21.5412 10.9601 21.395 10.6396C21.2432 10.7633 21.1139 10.8533 21.0015 10.9657C19.8714 12.0902 18.7357 13.2034 17.6281 14.3503C17.2121 14.7776 16.8579 15.2611 16.4868 15.7278C16.4418 15.784 16.4812 15.9077 16.4812 16.1213C16.7229 15.8964 16.8747 15.7334 17.049 15.6041C17.1109 15.5591 17.2289 15.5984 17.3245 15.5984C16.8073 18.5333 16.5992 21.4906 16.6498 24.5716C16.5711 24.4366 16.5486 24.3973 16.5205 24.3579C16.2338 23.9756 16.0876 23.4808 15.6153 23.2503C15.5647 23.2222 15.531 23.1885 15.4973 23.1548Z" fill="#4E3429"/>
<path d="M17.3085 15.5986C17.2185 15.5986 17.0948 15.5593 17.033 15.6043C16.8587 15.7336 16.7069 15.8966 16.4652 16.1215C16.4652 15.9079 16.4258 15.7842 16.4708 15.728C16.8418 15.2613 17.1961 14.7778 17.6121 14.3505C18.7197 13.2092 19.8554 12.0904 20.9855 10.9659C21.0979 10.8535 21.2272 10.7635 21.379 10.6398C21.5252 10.9603 21.3509 11.1346 21.2103 11.292C20.7324 11.8093 20.2264 12.3096 19.7429 12.8269C19.518 13.0686 19.3044 13.3329 19.2707 13.6927C19.2032 14.4011 19.1076 15.1151 19.3494 15.8011C19.4562 16.1047 19.6586 16.397 19.8779 16.6388C20.1534 16.948 20.3445 16.9086 20.5919 16.5713C20.9067 16.1328 21.1935 15.6717 21.542 15.2613C21.7782 14.9802 22.0818 14.7384 22.391 14.536C23.1725 14.0244 23.9034 13.4509 24.5668 12.7875C25.2809 12.0791 26.0117 11.3763 26.7651 10.7073C27.1474 10.37 27.496 9.96515 28.0976 9.71777C28.047 9.92017 28.0526 10.0607 27.9852 10.1282C27.3105 10.7972 26.6246 11.4607 25.9387 12.1241C25.4945 12.5514 25.0447 12.9787 24.6118 13.4172C24.5106 13.5184 24.46 13.6702 24.3869 13.7995C24.0327 14.4348 23.6841 15.0702 23.3355 15.7055C23.2287 15.8966 23.1331 16.099 22.9926 16.3745C23.2119 16.4251 23.3637 16.4982 23.5098 16.4813C24.0664 16.4307 24.6174 16.3577 25.1684 16.2733C26.4447 16.0765 27.6591 15.6717 28.8341 15.1264C29.8911 14.6372 30.8919 14.0638 31.7914 13.3385C32.5898 12.6976 33.3094 11.9554 34.0628 11.2583C34.2034 11.1233 34.3495 10.9996 34.4957 10.8647C34.5295 10.8872 34.5576 10.9097 34.5913 10.9322C34.5744 11.0278 34.5857 11.1571 34.5295 11.2189C33.9279 11.8486 33.5062 12.6413 32.7584 13.153C32.5279 13.3104 32.4211 13.6365 32.2356 13.867C31.8589 14.3449 31.4653 14.8172 31.0324 15.3456C32.1512 15.2613 33.0733 14.834 33.956 14.3336C34.4226 14.0694 34.8331 13.6983 35.2322 13.3385C35.7832 12.8381 36.0137 12.1747 36.0756 11.4438C36.0812 11.3538 36.0981 11.2639 36.1262 11.0502C36.2611 11.2077 36.3679 11.2808 36.3904 11.3763C36.4242 11.5169 36.4073 11.6743 36.4017 11.8205C36.3736 12.2871 36.323 12.7482 36.3005 13.2092C36.2442 14.5698 36.576 15.8404 37.245 17.0155C37.7454 17.8982 38.4201 18.6515 39.2072 19.2925C39.3702 19.4274 39.5164 19.5792 39.7582 19.8041C39.2353 19.8322 39.0441 19.4218 38.7349 19.3937C38.7461 20.4788 38.7293 21.5582 38.7743 22.6377C38.808 23.3967 38.9204 24.1557 39.0104 25.0384C39.314 24.5774 39.5614 24.2007 39.8144 23.8296C39.9156 23.6778 40.028 23.526 40.1405 23.3798C40.3597 23.0819 40.6521 22.9582 41.0175 23.0144C41.0175 23.0875 41.0175 23.1606 41.0119 23.2337C40.4778 23.3292 40.2248 23.7284 39.9774 24.1501C39.6851 24.6449 39.3758 25.1284 39.0666 25.6063C38.9823 25.7356 38.8586 25.848 38.6787 26.0617C38.5887 24.7011 38.5044 23.4642 38.4201 22.2329C38.4144 22.0755 38.4088 21.9181 38.4032 21.755C38.3807 21.0073 38.347 20.2595 38.3357 19.5117C38.3301 19.1407 38.212 18.8314 37.959 18.556C36.6772 17.1616 36.0081 15.5199 35.935 13.6309C35.9294 13.5184 35.9182 13.4116 35.9013 13.2991C35.9013 13.2879 35.8732 13.2767 35.8226 13.2485C35.6989 13.3666 35.5696 13.4903 35.4403 13.614C34.2877 14.7666 32.8821 15.4075 31.291 15.6774C30.8975 15.7448 30.7569 15.7111 30.4196 15.4974C30.6726 14.9746 31.2123 14.671 31.5103 14.1312C31.2517 14.0863 31.1111 14.2549 30.9593 14.3505C29.6044 15.1995 28.1876 15.9135 26.6246 16.2902C25.8824 16.4701 25.129 16.5769 24.3813 16.7231C23.7403 16.7231 23.105 16.7287 22.4641 16.7287C22.2673 16.6331 22.3854 16.5319 22.4529 16.4195C22.8239 15.8067 23.1894 15.1995 23.5492 14.5866C23.6223 14.463 23.6729 14.3336 23.6785 14.1144C23.5379 14.1706 23.3805 14.21 23.2625 14.2943C22.8352 14.5923 22.3966 14.8734 22.0087 15.2163C21.5196 15.6549 21.1485 16.1946 20.8393 16.7737C20.7606 16.9255 20.6144 17.0436 20.4907 17.1729C20.3501 17.3134 20.2208 17.2797 20.0465 17.1785C19.3662 16.7962 18.9558 16.234 18.8883 15.4637C18.8434 14.8902 18.8771 14.3168 18.8771 13.6477C18.3149 14.0919 17.8539 14.4967 17.7358 15.1657C17.7077 15.3119 17.6515 15.4468 17.6121 15.5874C17.5221 15.5986 17.4153 15.5986 17.3085 15.5986Z" fill="#31221A"/>
<path d="M15.0708 24.9158C14.8909 24.972 14.6379 24.6684 14.4749 25.0901C15.0371 25.3487 15.6387 25.5736 15.9366 26.1246C15.7342 26.5013 15.5094 26.8386 15.3632 27.2097C15.2788 27.4233 15.2957 27.6875 15.307 27.9237C15.3126 27.9968 15.4306 28.0699 15.5543 28.1935C15.6274 27.8112 15.6668 27.5076 15.7455 27.2153C15.8242 26.9173 15.9929 26.6755 16.2909 26.5125C16.6001 26.6699 16.7519 26.9285 16.8081 27.2603C16.988 28.3454 17.1679 29.4248 17.3535 30.5437C16.9262 30.7404 16.4876 30.7067 16.0603 30.5774C15.0033 30.2569 14.2443 29.5429 13.7271 28.5984C13.0974 27.4458 12.9456 26.192 13.2605 24.9045C13.401 24.3311 13.6934 23.8307 14.2443 23.5439C14.4299 23.7351 14.6154 23.9319 14.801 24.123C15.0146 24.3536 15.2845 24.5503 15.0708 24.9158Z" fill="#E6A872"/>
<path d="M32.3308 37.6252C32.2858 37.5746 32.2352 37.5184 32.1509 37.4284C31.9654 37.6252 31.7854 37.8107 31.6112 38.0019C30.7622 38.9239 29.6715 39.3344 28.4683 39.5536C27.1021 39.7954 25.8034 39.5311 24.5215 39.1039C24.5215 38.5641 24.5215 38.0244 24.5215 37.4059C27.1583 38.2099 29.7333 38.0356 32.3308 37.0742C32.3308 37.2822 32.3308 37.4565 32.3308 37.6252Z" fill="#E6A872"/>
<path d="M17.3068 15.5996C17.4136 15.5996 17.5205 15.5996 17.6273 15.5996C17.5542 16.1675 17.4867 16.7409 17.3968 17.3088C17.1663 18.7481 17.0763 20.193 17.0594 21.6492C17.0313 21.8853 16.9864 22.127 16.9864 22.3632C16.9695 23.5551 16.9695 24.747 16.9582 25.9389C16.857 25.8658 16.7502 25.7928 16.649 25.7197C16.3342 25 16.1149 24.2298 15.6033 23.6001C15.6033 23.482 15.5977 23.3696 15.5977 23.2515C16.0699 23.4764 16.2161 23.9768 16.5028 24.3591C16.5309 24.3984 16.5534 24.4378 16.6322 24.5727C16.5872 21.4917 16.7952 18.5344 17.3068 15.5996Z" fill="#452E26"/>
<path d="M15.6045 23.5975C16.1105 24.2272 16.3354 24.9918 16.6502 25.7171C16.6446 25.8464 16.639 25.9757 16.6221 26.2062C16.341 25.9363 16.1274 25.7002 15.88 25.4978C15.6214 25.2842 15.3402 25.1099 15.0647 24.9187C15.284 24.5533 15.0085 24.3565 14.7949 24.1372C14.6093 23.9461 14.4238 23.7493 14.2383 23.5581C14.5138 23.3389 14.8061 23.3276 15.1266 23.4457C15.2896 23.5019 15.4471 23.5469 15.6045 23.5975Z" fill="#F8BC94"/>
<path d="M16.959 25.9372C16.9646 24.7453 16.9702 23.5534 16.9871 22.3615C16.9927 22.1254 17.0377 21.8836 17.0602 21.6475C17.0658 22.5976 17.0771 23.5422 17.0714 24.4923C17.0714 24.9871 17.0433 25.4875 17.0265 25.9822C17.004 25.9654 16.9815 25.9485 16.959 25.9372Z" fill="#B2AFA6"/>
<path d="M35.9853 25.2714C35.8279 26.0922 35.4568 26.7725 34.7259 27.2279C33.4441 28.0206 31.5606 27.6271 30.9703 25.8954C30.7847 25.3501 30.8241 24.7091 31.0883 24.1413C31.1502 24.0064 31.1895 23.8658 31.2401 23.7252C31.42 23.6016 31.6112 23.4891 31.7799 23.3542C32.8312 22.5165 33.6858 22.5333 34.7765 23.0056C35.4624 23.3036 35.7211 23.9726 35.8504 24.6754C35.8841 24.8778 35.9403 25.0746 35.9853 25.2714ZM32.7075 27.1829C32.9718 27.3347 33.2417 27.346 33.5115 27.1886C33.5846 27.1661 33.6577 27.1548 33.7252 27.1267C34.8496 26.5701 35.0127 24.8891 34.4786 23.9782C33.8657 22.9269 32.4602 22.8257 31.8024 23.9389C31.2907 24.7991 31.3132 25.6818 31.8417 26.5364C32.0329 26.8568 32.314 27.1042 32.7075 27.1829Z" fill="#FFFAF4"/>
<path d="M24.2742 23.7125C24.3642 24.0723 24.4766 24.4265 24.5329 24.7863C24.7746 26.3662 23.5658 27.946 21.6599 27.5525C20.7435 27.3613 20.0576 26.8609 19.6977 25.9839C19.6078 25.7646 19.5797 25.5172 19.5234 25.2867C19.6134 25.0112 19.7258 24.7357 19.7877 24.4546C19.9507 23.7181 20.3049 23.1109 21.0414 22.8691C22.0816 22.5206 23.0598 22.633 23.8751 23.4651C23.9819 23.5663 24.1393 23.6281 24.2742 23.7125ZM22.1265 27.187C22.4301 27.3557 22.7394 27.3388 23.043 27.1814C23.4534 27.0746 23.7345 26.7935 23.9032 26.4336C24.3023 25.5791 24.3305 24.7076 23.802 23.8868C23.1723 22.8972 21.8623 22.8804 21.2438 23.9317C20.7435 24.7863 20.7547 25.6746 21.2663 26.5292C21.4631 26.8553 21.7386 27.1027 22.1265 27.187Z" fill="#FFFAF4"/>
<path d="M30.8003 20.6536C30.5416 20.3837 30.7497 20.1588 30.9015 19.9677C31.3287 19.4336 31.9022 19.1412 32.5825 19.0625C33.1054 19.0681 33.6282 19.0681 34.1567 19.0737C34.9382 19.1468 35.6354 19.4392 36.2538 19.9227C36.5968 20.1926 36.6699 20.4006 36.5912 20.8504C36.2145 20.9966 35.8659 20.8448 35.5173 20.7267C34.8764 20.5018 34.2355 20.3388 33.5495 20.3163C32.8636 20.2882 32.2114 20.4118 31.5818 20.6592C31.3231 20.6536 31.0645 20.6536 30.8003 20.6536Z" fill="#452E26"/>
<path d="M21.2265 20.5402C20.8555 20.647 20.4844 20.7539 20.1133 20.8663C19.8491 20.945 19.5905 21.0856 19.3262 21.1081C18.8877 21.1418 18.764 20.9057 18.9889 20.5121C19.2475 20.0511 19.6017 19.6856 20.1077 19.5001C21.3052 19.0672 22.5197 19.0222 23.7228 19.4439C24.0208 19.5507 24.285 19.7924 24.5212 20.023C24.6786 20.1748 24.7686 20.4165 24.6224 20.6414C24.4706 20.8719 24.2176 20.8101 24.0039 20.7707C23.8296 20.737 23.6778 20.6189 23.5148 20.5402C23.3012 20.5065 23.0875 20.4334 22.8795 20.439C22.3229 20.4559 21.7775 20.5065 21.2265 20.5402Z" fill="#452E26"/>
<path d="M26.5172 32.9089C25.8369 32.8527 25.2016 32.6559 24.6056 32.3298C24.4426 32.2398 24.2289 32.1499 24.3245 31.7957C25.0835 32.178 25.8088 32.5491 26.6352 32.5997C26.8208 32.6222 27.0063 32.6446 27.1862 32.6671C27.3043 32.6671 27.4224 32.6671 27.5404 32.6671C27.7653 32.6446 27.9902 32.6222 28.2151 32.5997C29.2946 32.521 30.2841 32.1836 31.2117 31.6383C31.3692 31.5427 31.521 31.3403 31.7459 31.5258C31.4535 32.1668 29.8568 32.8527 28.5524 32.9145C27.8778 32.9089 27.1975 32.9089 26.5172 32.9089Z" fill="#691D0F"/>
<path d="M27.0785 29.9985C26.758 29.858 26.4094 29.7568 26.1114 29.5656C25.4087 29.1158 25.33 28.503 25.8416 27.8564C25.9203 27.7552 26.0215 27.6653 26.1058 27.5641C26.5556 27.0075 26.758 26.4059 26.4713 25.6975C26.4151 25.5513 26.4263 25.377 26.4094 25.2309C26.713 25.0734 26.8761 25.1578 26.9267 25.4389C27.0672 26.2935 27.0504 27.1143 26.4375 27.8171C26.4151 27.8452 26.3869 27.8733 26.3645 27.9014C25.6898 28.5705 25.836 29.099 26.7074 29.47C26.9435 29.5712 27.2078 29.6106 27.4608 29.6499C27.6351 29.6781 27.8206 29.6556 28.0511 29.6556C28.023 29.8074 28.0062 29.8917 27.9893 29.9817C27.6801 29.9929 27.3765 29.9985 27.0785 29.9985Z" fill="#691D0F"/>
<path d="M24.2741 23.7121C24.1392 23.6278 23.9817 23.566 23.8749 23.4591C23.0597 22.6271 22.087 22.5146 21.0413 22.8632C20.3048 23.1106 19.9506 23.7121 19.7875 24.4487C19.7257 24.7298 19.6132 25.0053 19.5233 25.2808C19.186 25.0053 19.304 24.5948 19.3827 24.3137C19.5289 23.819 19.6863 23.2792 20.1642 22.9531C20.3722 22.8126 20.5578 22.6102 20.7883 22.5371C21.581 22.2841 22.3906 22.2335 23.1834 22.5596C23.7119 22.7732 24.156 23.0937 24.2741 23.7121Z" fill="#452E26"/>
<path d="M35.9852 25.2696C35.9402 25.0728 35.884 24.876 35.8446 24.6793C35.7153 23.9709 35.4623 23.3074 34.7708 23.0095C33.6801 22.5372 32.8311 22.5203 31.7741 23.358C31.6054 23.493 31.4143 23.6054 31.2344 23.7291C31.2344 23.0488 31.7629 22.8071 32.252 22.5878C33.0279 22.2392 33.8431 22.2954 34.6415 22.5428C35.5972 22.8408 36.1763 23.8922 36.1707 24.8479C36.1763 24.9829 36.0526 25.1234 35.9852 25.2696Z" fill="#452E26"/>
<path d="M21.2266 20.539C21.7775 20.5053 22.3229 20.4547 22.8739 20.4378C23.0875 20.4322 23.2956 20.4997 23.5092 20.539C22.7502 20.539 21.9912 20.539 21.2266 20.539Z" fill="#B2AFA6"/>
<path d="M26.5176 32.9102C27.1979 32.9102 27.8725 32.9102 28.5528 32.9102C27.8782 33.0507 27.1979 33.0788 26.5176 32.9102Z" fill="#5D5D59"/>
<path d="M22.4805 16.7439C23.1214 16.7439 23.7567 16.7383 24.3977 16.7383C23.7567 16.9013 23.1214 16.9069 22.4805 16.7439Z" fill="#B2AFA6"/>
<path d="M34.1582 19.0733C33.6353 19.0677 33.1069 19.0677 32.584 19.062C33.1125 18.899 33.6353 18.944 34.1582 19.0733Z" fill="#B73F23"/>
<path d="M27.0801 29.9976C27.3837 29.992 27.6817 29.992 27.9853 29.9863C27.6873 30.1831 27.3837 30.1494 27.0801 29.9976Z" fill="#B2AFA6"/>
<path d="M30.8008 20.6523C31.0594 20.6523 31.3237 20.6523 31.5823 20.658C31.3237 20.7985 31.065 20.8547 30.8008 20.6523Z" fill="#5D5D59"/>
<path d="M28.2137 32.5957C27.9888 32.6182 27.764 32.6407 27.5391 32.6632C27.7696 32.6407 27.9888 32.6182 28.2137 32.5957Z" fill="#DD5D3E"/>
<path d="M38.4199 21.7598C38.4255 21.9172 38.4312 22.0746 38.4368 22.2377C38.4312 22.0802 38.4255 21.9228 38.4199 21.7598Z" fill="#5D5D59"/>
<path d="M32.7073 27.1812C32.3137 27.0969 32.0383 26.8551 31.8358 26.529C31.3074 25.6745 31.2849 24.7918 31.7965 23.9316C32.4599 22.8184 33.8599 22.9196 34.4727 23.9709C35.0068 24.8873 34.8494 26.5628 33.7193 27.1194C33.6518 27.1531 33.5787 27.1644 33.5057 27.1812C33.2414 27.1868 32.9715 27.1868 32.7073 27.1812ZM34.1522 24.4376C33.9498 24.505 33.7811 24.5219 33.6799 24.6175C33.6237 24.6681 33.6462 24.9042 33.7081 24.9492C33.8149 25.0279 33.9779 25.0223 34.1522 25.056C34.1522 24.8367 34.1522 24.6962 34.1522 24.4376Z" fill="#31221A"/>
<path d="M32.707 27.1797C32.9769 27.1797 33.2411 27.1853 33.511 27.1853C33.2411 27.3484 32.9713 27.3315 32.707 27.1797Z" fill="#5D5D59"/>
<path d="M22.1262 27.1857C21.7327 27.1014 21.4572 26.854 21.266 26.5279C20.7544 25.6733 20.7376 24.785 21.2436 23.9304C21.862 22.8791 23.172 22.8959 23.8017 23.8855C24.3245 24.7063 24.2964 25.5778 23.9029 26.4323C23.7398 26.7922 23.4587 27.0733 23.0427 27.1801C22.7391 27.1801 22.4355 27.1857 22.1262 27.1857ZM23.3463 25.1505C23.7005 24.9424 23.8185 24.7681 23.6667 24.6107C23.5768 24.5208 23.3688 24.4814 23.2395 24.5151C23.0708 24.5601 23.1158 24.83 23.3463 25.1505Z" fill="#31221A"/>
<path d="M22.125 27.1853C22.4286 27.1853 22.7322 27.1797 23.0414 27.1797C22.7378 27.3427 22.4342 27.354 22.125 27.1853Z" fill="#5D5D59"/>
<path d="M34.151 24.4365C34.151 24.6951 34.151 24.8357 34.151 25.055C33.9767 25.0212 33.8136 25.0269 33.7068 24.9481C33.645 24.8975 33.6225 24.6614 33.6787 24.6164C33.7799 24.5209 33.9486 24.504 34.151 24.4365Z" fill="#FFFAF4"/>
<path d="M23.3465 25.1502C23.1159 24.8297 23.0653 24.5543 23.2453 24.5149C23.3746 24.4812 23.5826 24.5205 23.6725 24.6105C23.8243 24.7679 23.7007 24.9478 23.3465 25.1502Z" fill="#E6DED1"/>
</g>
<defs>
<clipPath id="clip0_4631_52152">
<rect width="57" height="57" rx="28.5" fill="white"/>
</clipPath>
</defs>
</svg>
