<svg width="57" height="57" viewBox="0 0 57 57" fill="none" xmlns="http://www.w3.org/2000/svg">
<g clip-path="url(#clip0_4631_52334)">
<rect width="57" height="57" rx="28.5" fill="#F6F6FE"/>
<path d="M22.9893 56.9664C22.5807 56.9721 22.172 56.9777 21.7633 56.9834C20.0661 55.5757 18.6697 53.9183 17.6083 51.9883C17.1882 52.1359 16.7909 52.2721 16.3936 52.4084C15.7238 52.4141 15.0596 52.4141 14.3898 52.4197C13.4079 52.3119 12.2499 51.3583 12.6359 50.1833C12.4826 50.1719 12.335 50.1606 12.1931 50.1549C11.6085 50.1549 11.0182 50.1606 10.4335 50.1606C9.20743 50.1776 7.79972 49.2921 7.55565 48.3158C7.53294 48.2136 7.50456 48.1115 7.48186 48.0093C7.48753 47.8901 7.49888 47.7766 7.50456 47.663C7.51591 47.6233 7.52727 47.5836 7.53294 47.5495C7.64079 47.1068 7.98136 46.8684 8.34464 46.6583C8.63981 46.4881 8.952 46.3405 9.36637 46.1248C7.9019 45.9261 6.70421 45.4039 5.65411 44.5468C5.12054 44.1097 4.68347 43.5875 4.40533 42.9688C4.25775 42.6396 4.26343 42.2479 4.19531 41.8789C4.21234 41.8279 4.23505 41.7825 4.25207 41.7314C4.3883 41.1921 4.78564 40.9367 5.29083 40.8175C5.86413 40.8232 6.43175 40.8288 7.00505 40.8345C7.55565 40.9424 8.10624 41.0502 8.66251 41.1581C8.67954 41.1297 8.70225 41.1013 8.71928 41.0729C8.56602 40.948 8.42411 40.8175 8.2595 40.7096C7.2321 40.0342 6.43743 39.1033 5.80736 38.0815C5.26812 37.2074 4.91052 36.2311 4.91619 35.1469C4.92187 34.3409 5.74493 33.427 6.78368 33.7789C7.53294 34.0344 8.14598 34.5055 8.76469 34.971C9.6218 35.618 10.4789 36.2765 11.3417 36.9179C11.5063 37.0428 11.6993 37.1279 11.8753 37.2301C12.0228 37.3153 12.1704 37.4004 12.318 37.4855C12.3918 37.5196 12.4599 37.548 12.5337 37.582C12.5791 37.6161 12.6245 37.6501 12.6699 37.6842C12.7097 37.7126 12.7437 37.7466 12.7835 37.775C12.897 37.8148 13.0105 37.8488 13.124 37.8885C13.3511 37.9226 13.5781 37.9567 13.8052 37.9907L13.7995 38.0305C14.2196 38.2121 14.6339 38.1951 15.054 38.0361L15.0426 38.0021C15.6046 38.0418 15.6046 38.0418 15.7238 37.6729C15.7408 37.6445 15.7635 37.6104 15.7805 37.582C15.8373 37.4231 15.894 37.2585 15.9508 37.0995C15.9792 37.0314 16.0076 36.9633 16.036 36.8952C16.087 36.7817 16.1324 36.6625 16.1835 36.549C16.2119 36.5149 16.2346 36.4752 16.263 36.4411C16.2744 36.4014 16.2857 36.3616 16.2971 36.3219C16.4049 36.1346 16.5128 35.9416 16.6206 35.7543C16.6263 35.7146 16.6376 35.6748 16.6433 35.6351C16.7398 35.4818 16.8363 35.3342 16.9328 35.181C16.9498 35.1413 16.9669 35.1015 16.9839 35.0618C17.0123 35.0277 17.035 34.9937 17.0634 34.9596C17.0747 34.9199 17.0861 34.8801 17.1031 34.8461C17.2961 34.5055 17.4834 34.1649 17.6764 33.8244C17.7502 33.7052 17.824 33.586 17.8921 33.4724C17.9148 33.4384 17.9375 33.41 17.9602 33.3759C17.9772 33.3249 17.9886 33.2794 18.0056 33.2284C18.0283 33.2 18.051 33.1773 18.068 33.1489C18.0851 33.0751 18.1021 32.9956 18.1248 32.9218C18.2383 32.621 18.3519 32.3145 18.4654 32.0136C18.5903 31.8944 18.6697 31.7809 18.454 31.6731C18.3802 31.6447 18.3121 31.6163 18.2383 31.5879C18.1929 31.5766 18.1475 31.5709 18.1078 31.5595C18.0397 31.5312 17.9715 31.5028 17.8978 31.4744C17.4777 31.236 17.0577 31.0033 16.6376 30.7649C16.6036 30.7365 16.5638 30.7024 16.5298 30.674L16.4957 30.657C16.4673 30.6343 16.439 30.6059 16.4106 30.5832L16.4049 30.5492L16.3708 30.5435C16.3481 30.5151 16.3198 30.4924 16.2971 30.464V30.43L16.263 30.4243C16.2346 30.3959 16.2119 30.3675 16.1835 30.3391L16.1608 30.3108C15.9451 30.0042 15.7238 29.6977 15.5081 29.3969C15.4229 29.1358 15.3378 28.869 15.2526 28.6079C15.3094 28.2276 15.5875 28.0516 15.8997 27.904C16.1949 27.7678 16.5241 27.6202 16.5922 27.2853C16.7171 26.678 16.7568 26.0536 16.4617 25.4008C16.2687 25.4576 16.0587 25.4746 15.8997 25.5768C14.9575 26.1728 14.5942 27.0923 14.5034 28.1538C14.5034 28.4944 14.509 28.8349 14.509 29.1755C14.509 29.2493 14.509 29.3288 14.509 29.4026C14.5034 29.5558 14.492 29.7091 14.4863 29.8567C14.4523 29.8907 14.4239 29.9305 14.3898 29.9645L14.3728 29.9815C14.3331 30.0156 14.299 30.0497 14.2593 30.078C14.0152 30.1802 13.7938 30.2086 13.51 30.1235C12.5848 29.8453 11.898 29.2436 11.3303 28.5057C10.2859 27.1491 9.70127 25.6108 9.67289 23.8853C9.66153 23.1303 9.6218 22.364 9.72965 21.6204C9.9567 20.1106 10.4903 18.7085 11.4382 17.4768C12.3975 16.228 13.5271 15.1949 14.9461 14.4854C15.0823 14.4173 15.247 14.2754 15.2697 14.1448C15.4683 13.038 16.0076 12.1184 16.7341 11.284C17.9999 9.83657 19.612 8.93972 21.4341 8.38912C21.9052 8.24722 22.382 8.11666 22.8645 8.0599C23.6818 7.9634 24.3062 7.50931 24.8966 7.01547C25.7594 6.30027 26.3894 5.42045 26.7697 4.33061C27.0933 3.40539 27.553 2.50854 28.2739 1.79901C28.4556 1.61737 28.6996 1.49817 28.9153 1.35059C29.1708 1.35059 29.4262 1.35059 29.6873 1.35059C30.113 1.49817 30.3571 1.80468 30.4933 2.22473C30.8623 3.34862 30.7885 4.44414 30.3514 5.5283C30.306 5.6475 30.2776 5.77238 30.2436 5.89725C30.2209 5.95969 30.1925 6.01646 30.1698 6.07889C30.2322 6.08457 30.3003 6.11295 30.3514 6.09025C30.4309 6.05619 30.4933 5.9824 30.5615 5.92563C31.1802 5.44315 31.7932 4.94365 32.4233 4.47252C33.1896 3.89922 33.9615 3.33159 34.7619 2.8037C35.0627 2.60503 35.4317 2.43475 35.7779 2.40637C37.0607 2.30419 37.4184 3.03075 37.3729 4.08653C37.3616 4.34764 37.2935 4.60307 37.2481 4.86418C37.2254 4.93797 37.2027 5.01744 37.18 5.09123C36.9643 5.47721 36.7486 5.85752 36.5329 6.2435C36.4818 6.31162 36.4364 6.37973 36.3853 6.44217C36.2774 6.56705 36.1696 6.68625 36.0617 6.81113C35.8687 6.99844 35.6757 7.18009 35.4828 7.3674C35.2954 7.52066 35.1024 7.67392 34.9151 7.82718C34.847 7.88394 34.7732 7.9407 34.6086 8.07125C34.8016 8.04287 34.8754 8.0372 34.9435 8.02017C35.0116 8.00314 35.0797 7.96908 35.1479 7.9407C35.636 7.86123 36.1298 7.78176 36.618 7.7023C36.8848 7.7023 37.1572 7.7023 37.424 7.7023C37.5262 7.74771 37.617 7.81015 37.7249 7.83285C38.2868 7.95205 38.4344 8.36642 38.4685 8.86593C38.3209 9.3257 37.9746 9.6379 37.6284 9.95009C37.1289 10.1601 36.635 10.3872 36.1242 10.5688C35.8914 10.6539 35.6247 10.6539 35.3749 10.6937C35.1819 10.7448 34.9832 10.7902 34.7221 10.8583C34.8243 10.9434 34.8697 10.9832 34.9151 11.0229C35.619 11.7608 36.3626 12.4647 37.0153 13.2423C38.196 14.6557 38.8601 16.3529 39.4902 18.0558C39.5924 18.3566 39.6945 18.6631 39.7967 18.964C39.7626 19.2591 39.8818 19.5089 40.0124 19.7586C40.0578 20.0992 40.1089 20.4398 40.1543 20.7804C40.2281 21.138 40.3132 21.4956 40.37 21.8532C40.4608 22.4378 40.5289 23.0225 40.6084 23.6071C40.6141 23.7263 40.6198 23.8455 40.6198 23.9591C40.6425 24.2145 40.6652 24.4756 40.6879 24.731C40.6822 24.7424 40.6595 24.7594 40.6652 24.7708C40.6765 24.7991 40.6935 24.8275 40.7049 24.8559C40.7162 25.7584 40.7219 26.6666 40.7446 27.5691C40.7617 28.1708 40.756 28.7782 40.8468 29.3742C40.9717 30.2086 41.2328 31.0146 41.5904 31.7809C41.738 32.1045 41.8004 32.4848 41.9991 32.7629C42.6575 33.6768 43.35 34.5679 44.0539 35.4478C44.7577 36.3333 45.5354 37.162 46.1938 38.0759C46.8069 38.9216 47.3064 39.8469 47.8513 40.738C47.9194 40.8686 47.9818 40.9991 48.05 41.124C48.277 41.686 48.5097 42.2422 48.7311 42.8099C48.9695 43.4286 49.2079 44.0473 49.4236 44.6717C49.6393 45.2847 49.8209 45.9034 50.0196 46.5221C50.0537 46.6356 50.082 46.7492 50.1161 46.8627C50.2239 47.3168 50.3375 47.7709 50.4453 48.2307C50.4794 48.3158 50.5134 48.4009 50.5475 48.4918C50.5986 48.7983 50.627 49.1105 50.7064 49.4056C50.8767 50.0244 51.0811 50.6317 51.2514 51.2561C51.4614 52.0224 51.643 52.7944 51.836 53.5663C51.8757 53.7196 51.9155 53.8672 51.9609 54.0204C52.1368 54.5881 52.3128 55.1557 52.4888 55.729C52.5228 55.8084 52.5569 55.8822 52.5853 55.9617C52.6023 56.149 52.6193 56.3307 52.6364 56.518C52.6931 56.6712 52.7499 56.8302 52.8066 56.9834C52.5228 56.9721 52.2447 56.9607 51.9609 56.9494C51.9382 56.7848 51.9325 56.6088 51.8871 56.4499C51.5863 55.4111 51.2741 54.3724 50.9675 53.3336C50.2523 50.6544 49.5769 47.9639 48.8049 45.3017C48.3451 43.7294 47.7888 42.1798 46.9488 40.7494C46.7501 40.4145 46.5514 40.0739 46.3528 39.739C46.1371 39.4268 45.9214 39.1146 45.7057 38.7967C45.6262 38.6946 45.5354 38.5981 45.4729 38.4902C44.7464 37.1677 43.702 36.1232 42.5724 35.1526C41.738 34.4431 40.8127 33.8698 39.7797 33.4838C39.8194 33.41 39.8648 33.3362 39.9045 33.2681C40.0237 33.2965 40.1373 33.3305 40.2565 33.3589C40.4438 33.427 40.6254 33.5008 40.8127 33.5689C41.0795 33.6768 41.3236 33.8811 41.6585 33.7733C41.6301 33.7052 41.6131 33.6541 41.5847 33.603C41.0284 32.5756 40.4778 31.5368 40.2962 30.3619C40.1827 29.6183 40.0975 28.869 40.0465 28.1197C39.9783 27.1037 39.9613 26.0876 39.9216 25.0716C39.9329 25.0602 39.9556 25.0489 39.95 25.0432C39.9443 25.0205 39.9272 24.9978 39.9216 24.9751C39.757 23.6185 39.6605 22.2505 39.405 20.9052C39.195 19.804 38.8034 18.7312 38.4798 17.6471C37.9349 15.8477 36.9643 14.2924 35.7382 12.8847C34.0694 10.9718 31.9748 9.78548 29.5284 9.18947C29.4376 9.16677 29.3638 9.09865 29.2332 9.02486C29.3524 8.97945 29.4035 8.95675 29.4546 8.93972C29.676 8.90566 29.903 8.87728 30.1244 8.84322C31.305 8.74673 32.4233 8.43453 33.445 7.82718C34.5064 7.19144 35.4941 6.47623 36.1525 5.39207C36.4761 4.86418 36.6577 4.29655 36.5953 3.67217C36.5442 3.20104 36.2718 3.01372 35.8063 3.13292C35.6076 3.18401 35.3976 3.24645 35.233 3.36565C34.3589 3.98436 33.4563 4.57469 32.639 5.26719C30.9361 6.70896 29.1083 7.91232 26.9627 8.56509C26.9116 8.50265 26.8549 8.44589 26.8038 8.38345C27.5928 7.82718 28.3193 7.19144 28.9437 6.45352C29.8576 5.38072 30.1868 4.1433 29.8973 2.75829C29.8349 2.4688 29.7554 2.15094 29.4092 2.04876C29.0459 1.94091 28.8586 2.21905 28.6542 2.43475C28.5748 2.51421 28.501 2.60503 28.4499 2.70721C28.1718 3.24077 27.8369 3.75163 27.6325 4.31358C26.8605 6.41947 25.4642 7.90664 23.381 8.73537C23.0972 8.8489 22.7509 8.80349 22.4558 8.89999C21.6498 9.14974 20.821 9.37679 20.0547 9.72872C18.5448 10.4212 17.3131 11.46 16.4844 12.9244C16.2971 13.2537 16.1097 13.5999 16.087 14.037C16.2289 14.0143 16.3198 13.9973 16.4106 13.9802C18.1929 13.5829 19.5836 14.2016 20.6451 15.6434C21.4397 16.7162 21.8484 17.9536 22.0755 19.2421C22.2571 20.2695 22.6204 21.0926 23.6251 21.5694C24.1416 21.8134 24.4311 22.3073 24.5503 22.8692C24.6298 23.2382 24.6752 23.6128 24.7036 23.9874C24.8341 25.8265 24.5333 27.5975 23.7727 29.2834C23.557 29.5104 23.3242 29.7261 23.1313 29.9702C22.3877 30.9352 21.3773 31.4687 20.2307 31.7525C19.9128 31.832 19.5609 31.7639 19.3055 31.7639C19.1636 32.0761 19.0217 32.2918 18.9592 32.5302C18.7719 33.2454 18.5051 33.9152 18.0226 34.4885C17.9432 34.5793 17.9375 34.7269 17.8978 34.8518L17.8921 34.8574C17.8694 34.8972 17.8467 34.9312 17.824 34.971C17.631 35.2888 17.4323 35.601 17.2563 35.9246C17.1598 36.1062 17.1428 36.3219 17.0577 36.5035C16.7966 37.0371 16.5128 37.565 16.3708 38.1497C16.2062 38.8138 15.8884 39.4438 16.0076 40.159C15.8486 40.7323 16.2062 40.9878 16.6376 41.1978C16.5865 41.493 16.5355 41.7825 16.4957 42.0776C16.3311 43.1675 16.3992 44.263 16.4673 45.3528C16.5355 46.437 16.8079 47.4757 17.0974 48.5088C17.455 49.7916 17.9829 51.0007 18.6811 52.1302C19.7482 53.8672 21.1332 55.3373 22.6885 56.6428C22.8077 56.728 22.8928 56.8529 22.9893 56.9664ZM18.9252 27.0072C18.8003 27.0129 18.6754 27.0185 18.4767 27.0299C18.6868 27.2172 18.7776 27.3591 18.613 27.5748C18.5278 27.6827 18.5221 27.8586 18.4994 28.0062C18.42 28.4717 18.6924 28.7271 19.1125 28.5341C19.8958 28.1708 20.5996 27.6883 21.0424 26.9107C21.4965 26.3488 21.7463 25.8606 21.7803 25.4292C21.4738 25.5598 21.1843 25.6903 20.8891 25.7982C20.6848 25.8719 20.4691 25.9684 20.2591 25.9798C19.5041 26.0082 19.1579 26.2579 18.9252 27.0072ZM35.1422 9.9955C35.653 9.86495 36.1753 9.76845 36.6634 9.58681C36.9699 9.47329 37.2537 9.25191 37.5035 9.03621C37.6057 8.95107 37.6624 8.72402 37.634 8.58779C37.6113 8.49697 37.4013 8.40048 37.2708 8.3948C36.9529 8.38345 36.6294 8.38912 36.3172 8.44589C35.2046 8.64456 34.1034 8.86593 32.9966 9.08162C32.6957 9.11568 32.3892 9.14974 32.0884 9.1838C32.0373 9.19515 31.9919 9.21218 31.8954 9.23488C32.48 9.50167 33.0193 9.75142 33.5642 10.0012C34.0921 10.1374 34.62 10.1374 35.1422 9.9955ZM12.4542 45.3812C12.6245 45.4266 12.7494 45.489 12.5394 45.6536C12.4713 45.7104 12.4032 45.7672 12.335 45.8239C11.2509 46.261 10.1667 46.6924 9.08823 47.1295C8.93497 47.1919 8.78739 47.2827 8.64549 47.3792C8.32762 47.5949 8.22544 47.8787 8.42411 48.2023C8.57737 48.4464 8.79874 48.6848 9.0485 48.8267C10.1554 49.4454 11.3417 49.4738 12.5564 49.224C13.1411 49.1275 13.7314 49.031 14.316 48.9345C14.2423 49.1672 14.0947 49.3035 13.9812 49.4624C13.7768 49.7519 13.5781 50.0471 13.4135 50.3593C13.2716 50.626 13.3738 50.8985 13.5838 51.0801C13.9301 51.3753 14.3047 51.6307 14.7929 51.6251C15.1732 51.6194 15.5478 51.6478 15.9281 51.6194C16.3595 51.5853 16.7739 51.4775 17.1088 51.1653C17.0804 51.0688 17.0634 50.995 17.0406 50.9269C16.7398 49.9789 16.3879 49.0424 16.1381 48.0774C15.6159 46.0283 15.5932 43.9508 15.8203 41.8562C15.8373 41.6973 15.8373 41.4589 15.7465 41.3794C15.2186 40.9367 15.247 40.352 15.2753 39.7674C15.2924 39.4211 15.3264 39.0749 15.3548 38.7343C14.7701 38.757 14.2309 38.7797 13.686 38.7967C12.5451 38.5867 11.5574 38.0532 10.6492 37.3493C9.741 36.6455 8.84983 35.9132 7.91893 35.2321C7.48185 34.9142 6.98802 34.6644 6.48851 34.4487C6.11956 34.2898 5.80736 34.4998 5.76195 34.9028C5.73357 35.181 5.7506 35.4705 5.80169 35.7429C6.07982 37.1166 6.78935 38.2689 7.77134 39.2452C8.85551 40.318 10.1781 41.0559 11.529 41.7427C11.4155 41.8165 11.302 41.8903 11.1884 41.9584C11.0806 41.9584 10.9727 41.9584 10.8649 41.9584C10.5584 41.93 10.2519 41.9017 9.94534 41.8733C9.87155 41.8676 9.79776 41.8562 9.72397 41.8506C9.3834 41.8165 9.04282 41.7881 8.69657 41.7541C8.26518 41.7143 7.83946 41.6519 7.40806 41.6349C6.77232 41.6008 6.13091 41.5384 5.50085 41.5895C4.95025 41.6349 4.81402 41.9698 5.04107 42.475C5.2738 43.0028 5.63708 43.4342 6.07982 43.7975C7.29454 44.8079 8.70792 45.3074 10.2802 45.3869C10.3994 45.3982 10.513 45.4096 10.6322 45.4266C11.0863 45.4266 11.546 45.4266 12.0001 45.4266C12.1477 45.4209 12.301 45.4039 12.4542 45.3812ZM13.7655 29.3969C13.5725 28.2162 13.8336 27.1775 14.2423 26.1728C14.7247 25.0035 15.6556 24.4132 16.8022 24.521C17.2336 24.5607 17.6594 24.6572 18.0851 24.697C18.647 24.7481 19.2317 24.8956 19.7652 24.7878C20.9118 24.5607 21.9279 24.0101 22.7736 23.1928C23.0234 22.9487 23.2505 22.6705 23.3299 22.2789C23.1199 22.154 22.9326 22.0291 22.7339 21.9213C22.1776 21.6261 21.7633 21.2174 21.6157 20.576C21.4908 20.0424 21.3149 19.5259 21.207 18.9923C20.9856 17.9479 20.6734 16.9432 20.0434 16.0748C19.1863 14.9054 17.8978 14.3038 16.3652 14.7749C15.491 15.0417 14.6793 15.4333 13.9584 16.001C12.6359 17.034 11.6482 18.3169 11.0522 19.8949C10.5754 21.1493 10.4619 22.4548 10.5016 23.7888C10.547 25.3668 11.0238 26.7972 11.9264 28.0743C12.3577 28.6874 12.897 29.2153 13.7655 29.3969ZM16.1835 28.9144C16.3481 29.431 16.5979 29.7602 16.9158 30.027C17.8467 30.8046 18.9365 31.0771 20.1285 30.9465C20.3669 30.9181 20.6224 30.8727 20.8381 30.7762C22.1379 30.1802 23.0064 29.1812 23.4945 27.8416C23.9259 26.6553 24.0394 25.4235 24.0111 24.1748C23.9997 23.7263 23.9657 23.2495 23.6762 22.7103C23.4264 23.2268 23.2221 23.6355 23.0291 24.0556C22.6317 24.9297 22.3139 25.8492 21.8484 26.6836C21.1275 27.9665 20.1001 28.9598 18.6016 29.3061C17.7956 29.4934 17.0009 29.4707 16.1835 28.9144Z" fill="#181427"/>
<path d="M14.2637 30.0613C14.3038 30.0269 14.3381 29.9925 14.3782 29.9639C14.3439 29.9982 14.3038 30.0326 14.2637 30.0613Z" fill="#FFFAF4"/>
<path d="M16.4219 30.5547C16.4504 30.5775 16.479 30.6061 16.5076 30.629C16.479 30.6061 16.4504 30.5833 16.4219 30.5547Z" fill="#FFFAF4"/>
<path d="M16.1953 30.3242C16.2239 30.3528 16.2467 30.3813 16.2753 30.4099C16.2467 30.3813 16.2182 30.3528 16.1953 30.3242Z" fill="#FFFAF4"/>
<path d="M17.0644 34.9502C17.0358 34.9845 17.0129 35.0187 16.9844 35.053C17.0129 35.0187 17.0415 34.9845 17.0644 34.9502Z" fill="#FFFAF4"/>
<path d="M16.3086 30.4424C16.3314 30.4709 16.36 30.4938 16.3829 30.5224C16.3486 30.5052 16.3257 30.4767 16.3086 30.4424Z" fill="#FFFAF4"/>
<path d="M16.2755 36.4229C16.2469 36.4572 16.224 36.4973 16.1953 36.5317C16.224 36.4916 16.2469 36.4572 16.2755 36.4229Z" fill="#FFFAF4"/>
<path d="M15.7915 37.5586C15.7744 37.5872 15.7515 37.6214 15.7344 37.65C15.7458 37.6157 15.7629 37.5872 15.7915 37.5586Z" fill="#FFFAF4"/>
<path d="M18.0746 33.1299C18.0517 33.1584 18.0289 33.1813 18.0117 33.2099C18.0174 33.1756 18.0403 33.1527 18.0746 33.1299Z" fill="#FFFAF4"/>
<path d="M16.541 30.6523C16.5754 30.681 16.6155 30.7154 16.6499 30.744C16.6098 30.7154 16.5754 30.681 16.541 30.6523Z" fill="#FFFAF4"/>
<path d="M4.2526 41.7217C4.23541 41.7732 4.2125 41.8191 4.19531 41.8706C4.21823 41.8248 4.23541 41.7732 4.2526 41.7217Z" fill="#5D5D59"/>
<path d="M39.9437 25.0631C39.9834 26.0791 40.0004 27.0952 40.0686 28.1112C40.1196 28.8605 40.1991 29.6098 40.3183 30.3534C40.5 31.5283 41.0505 32.5614 41.6068 33.5945C41.6352 33.6399 41.6522 33.6967 41.6806 33.7648C41.3457 33.8726 41.1016 33.6683 40.8349 33.5604C40.7384 33.2596 40.4772 33.3901 40.2786 33.3504C40.1594 33.322 40.0459 33.288 39.9267 33.2596C39.6201 33.2142 39.3193 33.1744 38.922 33.1177C39.2228 33.4072 39.4953 33.4923 39.8018 33.481C40.8349 33.8726 41.7601 34.4403 42.5945 35.1498C43.7241 36.1147 44.7685 37.1648 45.495 38.4874C45.5575 38.6009 45.6483 38.6918 45.7278 38.7939C45.5064 39.0721 45.7107 39.3275 45.7618 39.5943C45.7902 39.7305 45.8016 39.9519 45.7334 40.003C45.5972 40.0995 45.3929 40.1222 45.2169 40.1222C45.1204 40.1222 45.0182 40.0314 44.9161 39.9746C44.479 39.7419 44.0987 39.4353 43.7638 39.0721C43.6389 38.9358 43.5254 38.7428 43.2416 38.7315C43.27 38.8393 43.2813 38.9075 43.3097 38.9699C43.48 39.3218 43.707 39.6567 43.8149 40.0257C43.9965 40.6557 44.1384 41.3028 44.2236 41.9499C44.2974 42.5289 43.7411 43.0398 43.1508 42.9943C42.7704 42.966 42.3845 42.8751 42.1177 42.6027C41.6011 42.0918 41.1243 41.5356 40.6362 40.9963C40.4318 40.7693 40.2332 40.5422 40.0288 40.3152C40.1253 41.2688 40.341 42.1599 40.5113 43.0511C40.5908 43.4712 40.6192 43.9139 40.5964 44.3396C40.5737 44.8391 40.1991 45.1173 39.711 45.0378C39.4953 45.0037 39.2625 44.9299 39.0809 44.8107C38.1613 44.2091 37.5426 43.3349 36.9864 42.4097C36.6855 41.9045 36.4017 41.388 36.1122 40.8771C36.0668 40.8885 36.0157 40.9055 35.9703 40.9168C35.9873 41.1269 35.9873 41.3426 36.0271 41.5469C36.1803 42.2621 36.362 42.9716 36.4925 43.6925C36.5493 44.0218 36.6004 44.4021 36.4925 44.7029C36.3733 45.0321 36.1236 45.3613 35.8398 45.577C35.4708 45.8609 35.0848 45.6338 34.7613 45.3784C34.1766 44.9129 33.802 44.2999 33.416 43.6585C32.8143 42.6538 32.4851 41.5753 32.1899 40.4684C32.1502 40.3152 32.031 40.1846 31.9459 40.0484C31.9004 39.2764 32.1332 38.5442 32.3602 37.8346C32.7349 36.671 33.3422 35.6039 34.1255 34.6559C34.4491 34.2586 34.8237 33.9067 35.2608 33.4469C35.0791 33.5207 35.011 33.5434 34.9486 33.5775C32.8881 34.7354 31.9232 36.671 31.3271 38.8223C31.0774 39.7248 31.0831 40.6955 31.1058 41.6434C31.0604 41.7002 30.9809 41.7569 30.9809 41.8137C30.9752 42.58 30.9525 43.352 30.9866 44.1182C31.015 44.7143 31.1398 45.3103 31.1796 45.9063C31.2647 47.3651 31.645 48.7501 32.1843 50.1067C32.2637 50.3054 32.2694 50.5267 32.3091 50.7311C32.417 50.8503 32.5646 50.9638 32.6554 51.1057C33.0754 51.7755 33.4557 52.468 33.8928 53.1208C34.1936 53.5692 34.5683 53.9665 34.9145 54.3866C35.0735 54.5852 35.1643 54.8123 35.3743 54.9996C36.0611 55.607 36.6855 56.2881 37.3326 56.9352C35.4822 56.9409 33.6317 56.9579 31.7812 56.9579C29.1021 56.9636 26.4172 56.9579 23.738 56.9579C23.528 56.9579 23.3236 56.9693 23.1136 56.9749C23.0739 56.9693 23.0342 56.9636 22.9944 56.9636C22.8979 56.8557 22.8185 56.7252 22.7049 56.6344C21.1496 55.3231 19.7646 53.8587 18.6975 52.1217C17.9993 50.9922 17.4714 49.7775 17.1138 48.5003C16.8243 47.4616 16.5519 46.4228 16.4838 45.3443C16.4157 44.2488 16.3475 43.159 16.5122 42.0691C16.5576 41.774 16.6087 41.4788 16.6541 41.1893C17.3012 41.1496 17.5906 40.5536 18.1072 40.2016C18.1185 40.3549 18.1356 40.44 18.1299 40.5252C18.0958 41.2461 18.215 41.9499 18.3399 42.6538C18.4251 43.1079 18.5386 43.5336 18.9189 43.8458C19.2822 44.1409 19.6171 44.4191 20.1563 44.4077C20.7012 44.3907 21.2007 44.3226 21.6264 43.9877C22.1089 43.6074 22.4552 43.1192 22.6595 42.5289C22.7674 42.211 22.9093 41.9102 23.0512 41.5526C23.1874 41.6718 23.2782 41.7626 23.3804 41.8421C23.8061 42.2053 24.3283 42.2394 24.7597 41.9953C25.4749 41.5866 26.1391 41.0644 26.4456 40.2357C26.6102 39.7873 26.7748 39.3388 26.9508 38.8507C27.2403 39.2196 27.5865 39.4353 28.0349 39.3048C28.4493 39.1799 28.8864 39.0437 29.1191 38.6463C29.4824 38.0276 29.5732 37.1081 29.3859 36.3418C29.3632 36.4894 29.3745 36.637 29.3632 36.7845C29.3064 37.4997 29.0112 38.0787 28.3925 38.4761C27.9555 38.7542 27.4787 38.6066 27.3084 38.1185C27.2119 37.8346 27.1665 37.5395 27.087 37.2443C27.0473 37.0854 26.9962 36.9264 26.9451 36.7675C26.8316 37.0173 26.8429 37.2613 26.7862 37.4827C26.6386 38.0617 26.4513 38.635 26.3093 39.2196C26.0823 40.1335 25.5431 40.8033 24.7541 41.2801C24.0786 41.6888 23.3918 41.3085 23.3463 40.5195C23.3293 40.2584 23.352 39.9916 23.3293 39.7248C23.3236 39.6454 23.2271 39.5659 23.1023 39.3843C23.0115 39.6851 22.949 39.8781 22.8922 40.0654C22.6993 40.7352 22.529 41.405 22.3133 42.0691C22.0578 42.8524 21.53 43.3803 20.7182 43.6017C20.2244 43.7379 19.5546 43.5506 19.3389 43.1079C19.0608 42.5346 18.794 41.9556 18.7997 41.2858C18.8054 40.3038 18.8281 39.3275 19.1175 38.3796C19.1573 38.2604 19.1232 38.1185 19.1232 37.8971C19.0097 38.0276 18.97 38.0617 18.9359 38.1071C18.4364 38.7428 17.9709 39.407 17.426 40.0086C16.9038 40.5819 16.7108 40.5706 16.0751 40.1676C16.0581 40.1562 16.041 40.1562 16.0183 40.1506C15.8991 39.4353 16.217 38.8053 16.3816 38.1412C16.5292 37.5508 16.8073 37.0286 17.0684 36.4951C17.1592 36.3134 17.1763 36.092 17.2671 35.9161C17.4374 35.5869 17.6417 35.2803 17.8347 34.9625C17.8574 34.9227 17.8801 34.8887 17.9028 34.8489L17.9085 34.8433C18.3399 34.6787 18.7713 34.5197 19.2027 34.3494C20.565 33.8045 21.7173 32.9417 22.7503 31.9086C23.352 31.307 23.6131 30.5066 23.8799 29.729C23.9253 29.6041 23.8175 29.4281 23.7777 29.2749C24.544 27.589 24.8392 25.818 24.7086 23.9789C24.6803 23.6043 24.6349 23.224 24.5554 22.8607C24.4362 22.2988 24.1467 21.8049 23.6302 21.5609C22.6255 21.0841 22.2679 20.261 22.0805 19.2336C21.8535 17.9451 21.4448 16.7077 20.6501 15.6349C19.583 14.1931 18.198 13.5744 16.4157 13.9717C16.3248 13.9888 16.234 14.0058 16.0921 14.0285C16.1148 13.5971 16.3021 13.2508 16.4894 12.9159C17.3182 11.4515 18.5499 10.4127 20.0598 9.72022C20.8261 9.3683 21.6548 9.14692 22.4609 8.89149C22.756 8.80067 23.1023 8.8404 23.3861 8.72688C25.4693 7.89815 26.8656 6.41098 27.6376 4.30509C27.8419 3.74314 28.1768 3.23228 28.455 2.69871C28.5061 2.60222 28.5798 2.5114 28.6593 2.42625C28.8693 2.21623 29.051 1.93242 29.4143 2.04027C29.7605 2.14244 29.84 2.45463 29.9024 2.7498C30.1919 4.1348 29.8627 5.37222 28.9488 6.44503C28.3244 7.18294 27.5979 7.81868 26.8089 8.37495C26.684 8.4601 26.5591 8.53957 26.4342 8.62471C26.4569 8.67012 26.4796 8.70985 26.5023 8.75526C26.6613 8.69282 26.8145 8.62471 26.9735 8.56227C29.1248 7.90383 30.9525 6.70046 32.6497 5.26437C33.4671 4.57187 34.3696 3.98154 35.2438 3.36283C35.4084 3.24931 35.6184 3.18687 35.8171 3.13011C36.2768 3.01091 36.555 3.19822 36.6061 3.66935C36.6685 4.29374 36.4869 4.86136 36.1633 5.38925C35.5049 6.46774 34.5172 7.18862 33.4557 7.82436C32.434 8.43172 31.3158 8.74391 30.1351 8.8404C29.9138 8.87446 29.6867 8.90284 29.4653 8.9369C29.4143 8.95393 29.3632 8.97664 29.244 9.02205C29.3745 9.09584 29.4483 9.16395 29.5391 9.18666C31.9856 9.78266 34.0801 10.969 35.7489 12.8819C36.975 14.2896 37.9513 15.8449 38.4906 17.6443C38.8141 18.7227 39.2058 19.7956 39.4158 20.9024C39.6712 22.242 39.7677 23.61 39.9323 24.9723C39.9267 25.0007 39.9267 25.0347 39.9437 25.0631ZM28.8126 11.6615C30.0784 11.8715 31.032 12.5754 31.7926 13.6482C31.9742 13.1316 31.7585 12.7911 31.5315 12.4732C31.0717 11.8204 30.4133 11.4231 29.6867 11.1223C29.1702 10.9122 28.6309 10.8044 28.086 10.8782C27.3311 10.9803 26.6897 11.2982 26.1788 12.0248C26.701 11.8829 27.1097 11.775 27.5241 11.6615C27.9555 11.6672 28.3869 11.6615 28.8126 11.6615ZM27.7681 22.9345C27.9271 22.9629 28.086 22.9856 28.2449 23.014C28.3812 23.014 28.5231 23.014 28.6593 23.0083C28.7785 22.9799 28.9034 22.9515 29.0226 22.9232C30.1181 22.6394 30.8844 21.9525 31.3839 20.9535C32.4624 18.7795 31.6564 15.8789 29.6527 14.5053C28.8977 13.9888 28.1428 13.949 27.3538 14.3066C26.9451 14.4939 26.5534 14.7437 26.2185 15.0389C24.3283 16.6906 24.317 19.6593 25.4466 21.3679C25.9972 22.2023 26.7407 22.7869 27.7681 22.9345ZM31.259 31.324C31.2931 32.0165 31.3669 32.1187 31.9175 32.3003C32.7689 32.5784 33.7623 32.1754 34.2845 31.5056C34.6705 31.0118 34.9486 30.4271 35.2665 29.8936C35.573 29.8311 35.9363 29.8482 36.1803 29.6892C36.7309 29.326 37.1907 28.8435 37.4688 28.2361C37.8435 27.4301 38.0421 26.5957 37.6562 25.7272C37.6107 25.6307 37.6448 25.5002 37.6278 25.3923C37.5597 25.0347 37.395 24.7396 36.992 24.4955C37.0204 24.6601 37.0318 24.7452 37.0488 24.8247C37.1283 25.1312 37.2418 25.4377 37.2872 25.7499C37.4007 26.607 37.1283 27.3847 36.7366 28.1226C36.5209 28.5256 36.1236 28.73 35.7319 28.9116C35.4367 29.0478 35.3232 28.6845 35.0905 28.6448C35.0564 28.6391 35.0224 28.6562 34.9543 28.6675C34.9089 28.8321 34.8407 29.0081 34.8067 29.1897C34.6194 30.149 34.1199 30.8869 33.2911 31.4148C32.803 31.727 32.2808 31.7951 31.7358 31.6362C31.5769 31.5794 31.435 31.4375 31.259 31.324Z" fill="#8655A7"/>
<path d="M37.3214 56.9373C36.6743 56.2845 36.0499 55.6091 35.3631 55.0017C35.1531 54.8144 35.0623 54.5873 34.9033 54.3887C34.5628 53.9686 34.1825 53.5713 33.8816 53.1229C33.4445 52.4701 33.0642 51.7776 32.6442 51.1078C32.5534 50.9602 32.4058 50.8467 32.2979 50.7332C32.2582 50.5288 32.2525 50.3018 32.1731 50.1088C31.6338 48.7578 31.2535 47.3728 31.1684 45.9084C31.1343 45.3124 31.0038 44.7164 30.9754 44.1203C30.9413 43.3541 30.964 42.5821 30.9697 41.8158C30.9697 41.759 31.0548 41.7023 31.0946 41.6455C31.123 41.7534 31.157 41.8612 31.1741 41.9691C31.2819 42.6729 31.3557 43.3881 31.4976 44.0863C31.7701 45.3805 32.1901 46.6292 32.7293 47.8383C33.5694 49.7341 34.6139 51.4881 36.0897 52.9639C36.873 53.7529 37.6677 54.5306 38.5191 55.2515C39.2513 55.8702 40.063 56.3924 40.835 56.9543C39.6657 56.943 38.4907 56.943 37.3214 56.9373Z" fill="#593985"/>
<path d="M40.8345 56.9496C40.0569 56.382 39.2509 55.8598 38.5186 55.2468C37.6729 54.5316 36.8782 53.7482 36.0892 52.9592C34.619 51.4834 33.5689 49.7295 32.7289 47.8336C32.1896 46.6246 31.7696 45.3758 31.4971 44.0816C31.3495 43.3834 31.2814 42.6682 31.1736 41.9644C31.1565 41.8565 31.1225 41.7487 31.0941 41.6408C31.0714 40.6929 31.0657 39.7223 31.3155 38.8197C31.9115 36.6684 32.8764 34.7328 34.9369 33.5749C34.9994 33.5408 35.0675 33.5181 35.2491 33.4443C34.812 33.9041 34.4374 34.2617 34.1139 34.6534C33.3362 35.607 32.7232 36.6684 32.3486 37.8321C32.1215 38.5416 31.8888 39.2738 31.9342 40.0458C31.9115 40.3239 31.849 40.6021 31.8774 40.8745C31.9626 41.7316 32.0591 42.5888 32.1953 43.4402C32.394 44.706 32.7913 45.9207 33.3305 47.0843C33.3305 47.1184 33.3362 47.1525 33.3476 47.1865C33.6541 48.2139 34.2614 49.0824 34.8064 49.9849C35.8394 51.7048 37.2471 53.0898 38.7627 54.3783C39.5233 55.0254 40.3293 55.6101 41.2035 56.1039C41.6633 56.3593 42.0833 56.6772 42.5204 56.9667L42.4977 57.0007C41.9698 56.9951 41.4476 56.9837 40.9197 56.978C40.9026 56.9667 40.8686 56.9553 40.8345 56.9496Z" fill="#181427"/>
<path d="M33.331 47.0849C32.7975 45.9213 32.3945 44.7123 32.1958 43.4408C32.0652 42.5893 31.9631 41.7322 31.8779 40.8751C31.8495 40.6026 31.9177 40.3245 31.9347 40.0464C32.0198 40.1883 32.139 40.3188 32.1788 40.4664C32.4739 41.5733 32.8032 42.6574 33.4048 43.6565C33.7851 44.2979 34.1655 44.9109 34.7501 45.3764C35.068 45.6318 35.454 45.8589 35.8286 45.575C36.1067 45.3593 36.3622 45.0301 36.4814 44.7009C36.5892 44.4001 36.5381 44.0198 36.4814 43.6905C36.3508 42.9696 36.1635 42.2601 36.0159 41.5449C35.9705 41.3406 35.9762 41.1249 35.9591 40.9148C36.0046 40.9035 36.0556 40.8865 36.101 40.8751C36.3905 41.386 36.6744 41.9025 36.9752 42.4077C37.5315 43.3329 38.1502 44.2014 39.0697 44.8087C39.2514 44.9279 39.4784 45.0017 39.6998 45.0358C40.1936 45.1153 40.5626 44.8371 40.5853 44.3376C40.608 43.9119 40.5796 43.4692 40.5001 43.0491C40.3298 42.1523 40.1142 41.2668 40.0177 40.3132C40.222 40.5402 40.4207 40.7729 40.625 40.9943C41.1132 41.5336 41.59 42.0841 42.1065 42.6007C42.379 42.8731 42.7593 42.9583 43.1396 42.9923C43.7299 43.0378 44.2919 42.5269 44.2124 41.9479C44.1273 41.3008 43.9853 40.6537 43.8037 40.0237C43.6959 39.6547 43.4688 39.3198 43.2985 38.9679C43.2701 38.9055 43.2588 38.8373 43.2304 38.7295C43.5142 38.7408 43.6277 38.9338 43.7526 39.0701C44.0875 39.4333 44.4678 39.7399 44.9049 39.9726C45.0071 40.0237 45.1036 40.1202 45.2057 40.1202C45.3817 40.1145 45.586 40.0918 45.7223 40.001C45.7961 39.9499 45.779 39.7285 45.7507 39.5923C45.6996 39.3255 45.4952 39.0701 45.7166 38.7919C45.9323 39.1041 46.148 39.4163 46.3637 39.7342C46.3353 39.8931 46.2899 40.0577 46.2842 40.2167C46.2558 40.7502 45.9209 41.0965 45.3817 41.0738C45.0865 41.0624 44.797 40.9886 44.4622 40.9376C44.4849 41.0851 44.5076 41.21 44.5246 41.3292C44.5757 41.6811 44.6892 42.0387 44.6722 42.385C44.6211 43.3102 43.8094 43.8495 43.0488 43.6394C42.4641 43.4805 41.9816 43.208 41.5162 42.8504C41.4083 42.7653 41.2835 42.7142 41.028 42.5723C41.1132 43.0434 41.1472 43.3727 41.2324 43.6905C41.397 44.3206 41.1926 44.8598 40.8123 45.3253C40.5058 45.7113 40.0631 45.944 39.5579 45.8021C38.9789 45.6375 38.417 45.4104 37.9685 44.9734C37.645 44.6555 37.3214 44.3319 36.9468 43.963C36.9809 44.173 37.0092 44.3376 37.0263 44.4966C37.0774 44.9677 36.9865 45.3991 36.6516 45.7453C35.9535 46.4605 35.085 46.5854 34.2449 46.0575C33.9838 45.8929 33.7851 45.6205 33.5638 45.3934C33.4162 45.2401 33.2743 45.0812 33.104 44.8996C32.8996 45.2572 33.0359 45.5183 33.104 45.7851C33.2856 46.4946 33.717 47.0849 33.9952 47.7547C34.279 48.4415 34.8239 49.0035 35.3802 49.503C36.3224 50.3431 37.3385 51.081 38.4283 51.7224C38.9732 52.046 39.4273 51.8643 39.5863 51.2626C39.6487 51.0186 39.643 50.7461 39.6203 50.4907C39.5863 50.082 39.5125 49.6733 39.4614 49.2646C39.3933 48.7424 39.3252 48.2258 39.2684 47.7036C39.257 47.5901 39.2854 47.4766 39.3081 47.2893C39.995 48.0328 40.6477 48.6856 41.2324 49.3895C42.2371 50.6042 43.4631 51.5578 44.746 52.4433C44.973 52.6022 45.2795 52.6703 45.4498 52.869C45.7393 53.2039 46.1423 53.2323 46.4999 53.3799C46.7554 53.4877 46.8632 53.3628 46.9654 53.1301C47.164 52.6647 47.1584 52.1935 47.113 51.7111C47.0732 51.3251 47.0278 50.9391 46.9824 50.5531C47.1981 50.5985 47.34 50.7064 47.4592 50.8312C47.6408 51.0186 47.8055 51.2229 47.9928 51.4045C48.3958 51.7962 48.7875 52.2049 49.2188 52.5568C49.7297 52.9712 50.2633 53.3799 50.9898 53.3174C51.2963 54.3562 51.6085 55.3949 51.9094 56.4337C51.9548 56.5926 51.9605 56.7629 51.9832 56.9332C51.5575 56.9389 51.1317 56.9502 50.706 56.9559C49.8376 55.429 48.9748 53.9078 48.1006 52.3809C48.0722 52.3354 48.0212 52.3071 47.9757 52.2673C47.9644 52.256 47.936 52.2503 47.9247 52.256C47.9133 52.2616 47.902 52.2844 47.8509 52.3525C48.1971 53.1244 48.5604 53.9305 48.9123 54.7365C49.2245 55.4631 49.5254 56.1953 49.8262 56.9218C48.7647 56.9332 47.7033 56.9445 46.6418 56.9559C46.0174 56.2066 45.3817 55.463 44.7687 54.6968C43.8264 53.5274 42.9069 52.3411 41.9703 51.1661C41.8 50.9561 41.59 50.7802 41.397 50.5872C41.3743 50.5474 41.3459 50.502 41.3232 50.4623C41.3516 50.502 41.38 50.5417 41.4083 50.5815C41.8738 51.4783 42.3052 52.3979 42.8104 53.272C43.4234 54.3278 44.2862 55.1963 45.1376 56.0704C45.4158 56.3542 45.6825 56.6437 45.955 56.9275C44.8198 56.9332 43.6788 56.9389 42.5436 56.9446C42.1065 56.6551 41.6808 56.3372 41.2267 56.0818C40.3526 55.5879 39.5465 55.0033 38.7859 54.3562C37.2704 53.0677 35.8626 51.6827 34.8296 49.9628C34.2847 49.0603 33.6773 48.1918 33.3708 47.1644C33.3821 47.153 33.4048 47.136 33.4048 47.1303C33.3708 47.1303 33.3481 47.1076 33.331 47.0849Z" fill="#593985"/>
<path d="M45.943 56.9447C45.6705 56.6609 45.3981 56.3714 45.1256 56.0876C44.2798 55.2134 43.417 54.345 42.7983 53.2892C42.2875 52.415 41.8618 51.4955 41.3963 50.5986L41.3906 50.6043C41.5836 50.7973 41.7936 50.9733 41.9639 51.1833C42.9005 52.3526 43.8201 53.5389 44.7623 54.7139C45.3753 55.4745 46.0111 56.2181 46.6355 56.9731C46.4027 56.9617 46.17 56.956 45.943 56.9447Z" fill="#181427"/>
<path d="M49.8152 56.9327C49.5087 56.2005 49.2135 55.4683 48.9013 54.7474C48.5494 53.9357 48.1861 53.1353 47.8398 52.3634C47.8909 52.2896 47.8966 52.2669 47.9136 52.2669C47.9307 52.2612 47.9534 52.2669 47.9647 52.2782C48.0101 52.3123 48.0612 52.3407 48.0896 52.3918C48.9581 53.913 49.8265 55.4399 50.695 56.9668C50.4055 56.9498 50.1103 56.9441 49.8152 56.9327Z" fill="#181427"/>
<path d="M13.7653 29.3961C12.9025 29.2144 12.3576 28.6809 11.9262 28.0678C11.0237 26.7907 10.5525 25.3603 10.5015 23.7823C10.4617 22.4484 10.5753 21.1485 11.0521 19.8884C11.6481 18.3104 12.6357 17.0276 13.9583 15.9945C14.6792 15.4269 15.4909 15.0409 16.365 14.7684C17.8976 14.2973 19.1861 14.899 20.0432 16.0683C20.679 16.9367 20.9912 17.9414 21.2069 18.9859C21.3204 19.5194 21.4907 20.0416 21.6155 20.5695C21.7688 21.2109 22.1775 21.6196 22.7338 21.9148C22.9324 22.0226 23.1197 22.1475 23.3298 22.2724C23.256 22.6641 23.0233 22.9422 22.7735 23.1863C21.9277 24.0037 20.906 24.5599 19.7651 24.7813C19.2315 24.8891 18.6469 24.7416 18.0849 24.6905C17.6535 24.6507 17.2278 24.5542 16.8021 24.5145C15.6555 24.4067 14.7246 24.997 14.2421 26.1663C13.8277 27.1767 13.5666 28.2154 13.7653 29.3961ZM17.6535 16.1364C17.6649 16.0853 17.6762 16.0399 17.6819 15.9888C17.5457 15.915 17.4094 15.7901 17.2732 15.7845C16.8248 15.7674 16.348 15.705 15.9223 15.8185C14.7416 16.1307 13.771 16.8175 13.0387 17.7882C12.3406 18.7134 12.0908 19.8259 11.9035 20.9442C11.8524 21.2564 11.8013 21.614 12.0738 21.9659C12.9706 19.071 14.7246 17.0389 17.6535 16.1364ZM19.2599 17.3681C19.2599 17.2603 19.2826 17.1922 19.2542 17.1524C19.1861 17.0389 19.101 16.9311 19.0272 16.8232C18.9364 16.9027 18.8172 16.9594 18.7661 17.0559C18.698 17.1808 18.6582 17.3397 18.6582 17.4816C18.6639 17.5838 18.7547 17.7598 18.8172 17.7655C18.942 17.7768 19.101 17.7144 19.1975 17.6292C19.2599 17.5781 19.2429 17.4249 19.2599 17.3681Z" fill="#5D5D59"/>
<path d="M50.984 53.3235C50.2574 53.3859 49.7239 52.9772 49.213 52.5629C48.7816 52.2109 48.3899 51.8023 47.9869 51.4106C47.7996 51.229 47.635 51.0246 47.4534 50.8373C47.3285 50.7124 47.1923 50.6046 46.9766 50.5592C47.022 50.9451 47.0674 51.3311 47.1071 51.7171C47.1525 52.1996 47.1639 52.6707 46.9595 53.1362C46.8574 53.3689 46.7495 53.4938 46.4941 53.3859C46.1365 53.2327 45.7335 53.21 45.444 52.8751C45.2737 52.6764 44.9672 52.6083 44.7401 52.4493C43.4573 51.5638 42.2312 50.6102 41.2265 49.3955C40.6419 48.686 39.9891 48.0389 39.3023 47.2953C39.2853 47.4826 39.2512 47.5962 39.2626 47.7097C39.3193 48.2319 39.3874 48.7541 39.4555 49.2706C39.5066 49.6793 39.5804 50.088 39.6145 50.4967C39.6372 50.7521 39.6429 51.0246 39.5804 51.2687C39.4272 51.8704 38.9674 52.052 38.4225 51.7285C37.3383 51.087 36.3166 50.3491 35.3743 49.5091C34.8181 49.0095 34.2731 48.4476 33.9893 47.7608C33.7112 47.091 33.2798 46.5006 33.0982 45.7911C33.03 45.5243 32.8938 45.2632 33.0982 44.9056C33.2684 45.0873 33.4047 45.2462 33.5579 45.3995C33.7793 45.6265 33.978 45.899 34.2391 46.0636C35.0792 46.5971 35.9476 46.4723 36.6458 45.7514C36.9864 45.4051 37.0715 44.9737 37.0204 44.5026C37.0034 44.338 36.9694 44.1791 36.941 43.969C37.3156 44.338 37.6392 44.6615 37.9627 44.9794C38.4054 45.4165 38.9731 45.6492 39.552 45.8081C40.0572 45.95 40.5 45.7116 40.8065 45.3313C41.1811 44.8659 41.3911 44.3266 41.2265 43.6966C41.1414 43.3787 41.1073 43.0495 41.0222 42.5784C41.2719 42.7203 41.4025 42.777 41.5103 42.8565C41.9701 43.2141 42.4583 43.4866 43.0429 43.6455C43.8035 43.8498 44.6209 43.3106 44.6663 42.391C44.6834 42.0448 44.5755 41.6872 44.5188 41.3353C44.5017 41.2104 44.479 41.0912 44.4563 40.9436C44.7912 40.9947 45.0864 41.0685 45.3759 41.0798C45.9094 41.1025 46.25 40.7563 46.2784 40.2227C46.2841 40.0581 46.3295 39.8992 46.3579 39.7402C46.5565 40.0751 46.7552 40.4157 46.9539 40.7506C47.7939 42.1753 48.3559 43.725 48.81 45.303C49.5933 47.9538 50.2688 50.6443 50.984 53.3235ZM43.1167 45.6322C43.0259 46.7901 43.0656 47.8573 43.4743 48.9074C43.7922 49.7247 44.2463 50.4002 45.041 50.8203C45.5518 51.0927 45.9605 50.8884 46.0513 50.3094C46.1989 49.3331 45.9208 48.4419 45.444 47.6245C45.1942 47.1988 44.8082 46.8355 44.4223 46.512C44.0476 46.1884 43.5992 45.95 43.1167 45.6322ZM45.7562 42.6238C45.7108 42.6521 45.6654 42.6805 45.6256 42.7089C45.6256 42.9473 45.6199 43.18 45.6313 43.4184C45.637 43.5887 45.6937 43.7533 45.6937 43.918C45.6881 44.9454 46.0173 45.8763 46.5054 46.7561C46.7609 47.2158 47.1185 47.6075 47.5782 47.897C47.7542 48.0105 47.9472 48.0673 48.0948 47.9197C48.2764 47.7437 48.4864 47.5337 48.5432 47.301C48.7816 46.3531 48.5092 45.4846 48.0096 44.6786C47.7996 44.3493 47.5612 44.0144 47.2717 43.759C46.7949 43.3447 46.2614 42.9984 45.7562 42.6238Z" fill="#8655A7"/>
<path d="M11.5344 41.7564C10.1834 41.0695 8.86088 40.3316 7.77671 39.2588C6.79472 38.2882 6.0852 37.1359 5.80706 35.7566C5.7503 35.4841 5.73327 35.189 5.76732 34.9165C5.81273 34.5192 6.12493 34.3091 6.49388 34.4624C6.99339 34.6781 7.48723 34.9278 7.9243 35.2457C8.8552 35.9212 9.74069 36.6534 10.6546 37.363C11.5628 38.0668 12.5504 38.6004 13.6914 38.8104C13.5495 39.1567 13.3735 39.4859 13.2656 39.8435C13.101 40.3941 12.9762 40.9617 12.8456 41.5236C12.6015 42.5624 12.4369 43.6125 12.4029 44.6796C12.3972 44.918 12.2837 45.1564 12.4539 45.3835C12.3007 45.4005 12.1531 45.4232 11.9998 45.4402C11.5457 45.4402 11.086 45.4402 10.6319 45.4402C10.5127 45.4289 10.3991 45.4175 10.2799 45.4005C8.70762 45.321 7.29423 44.8215 6.07952 43.8112C5.64245 43.4479 5.27349 43.0165 5.04077 42.4886C4.81939 41.9777 4.95562 41.6485 5.50054 41.6031C6.13061 41.552 6.77202 41.6145 7.40776 41.6485C7.83915 41.6712 8.27055 41.728 8.69627 41.7677C9.03684 41.8018 9.37742 41.8302 9.72367 41.8642C9.79746 41.8699 9.87125 41.8812 9.94504 41.8869C10.2516 41.9153 10.5581 41.9437 10.8646 41.9721C10.9724 41.9721 11.0803 41.9721 11.1938 41.9721C11.3641 41.9721 11.5344 41.9664 11.7047 41.9664C11.7047 41.9323 11.7104 41.8983 11.7104 41.8642C11.6536 41.8302 11.5968 41.7961 11.5344 41.7564Z" fill="#8655A7"/>
<path d="M12.4536 45.3885C12.2833 45.1614 12.3968 44.9287 12.4025 44.6846C12.4366 43.6118 12.6012 42.5674 12.8453 41.5286C12.9758 40.9667 13.1007 40.399 13.2653 39.8484C13.3732 39.4908 13.5491 39.1616 13.691 38.8154C14.2303 38.7927 14.7752 38.7756 15.3598 38.7529C15.3315 39.0935 15.2974 39.4398 15.2804 39.786C15.252 40.3763 15.2236 40.9553 15.7515 41.3981C15.8423 41.4775 15.8423 41.7159 15.8253 41.8749C15.6039 43.9637 15.6266 46.0469 16.1432 48.096C16.3872 49.061 16.7392 49.9976 17.0457 50.9455C17.0684 51.0136 17.0854 51.0874 17.1138 51.1839C16.7732 51.4961 16.3645 51.6096 15.9331 51.638C15.5585 51.6664 15.1782 51.6437 14.7979 51.6437C14.3097 51.6493 13.9294 51.3939 13.5889 51.0988C13.3788 50.9171 13.2767 50.6503 13.4186 50.3779C13.5832 50.0657 13.7819 49.7705 13.9862 49.481C14.0997 49.3221 14.2473 49.1859 14.3211 48.9531C13.7364 49.0496 13.1461 49.1461 12.5615 49.2426C12.5728 48.5444 12.5615 47.8576 12.2266 47.1821C12.465 46.7848 12.2833 46.3023 12.3344 45.8425C12.4025 45.7858 12.4706 45.729 12.5388 45.6723C12.7431 45.4963 12.6239 45.4339 12.4536 45.3885Z" fill="#593985"/>
<path d="M16.1836 28.9153C17.001 29.4715 17.7956 29.4999 18.6017 29.3126C20.1002 28.9663 21.1219 27.973 21.8485 26.6902C22.3196 25.8558 22.6375 24.9362 23.0291 24.0621C23.2165 23.642 23.4265 23.2277 23.6762 22.7168C23.96 23.256 23.9998 23.7272 24.0111 24.1813C24.0395 25.4244 23.926 26.6618 23.4946 27.8481C23.0064 29.182 22.138 30.1811 20.8381 30.7827C20.6224 30.8849 20.3727 30.9303 20.1286 30.953C18.9366 31.0779 17.8467 30.8111 16.9158 30.0335C16.598 29.761 16.3482 29.4318 16.1836 28.9153Z" fill="#5D5D59"/>
<path d="M16.0189 40.1437C16.0359 40.1494 16.0587 40.1494 16.0757 40.1607C16.7171 40.5581 16.9044 40.5751 17.4266 40.0018C17.9715 39.4058 18.437 38.736 18.9365 38.1003C18.9706 38.0549 19.0103 38.0208 19.1238 37.8903C19.1238 38.1059 19.1579 38.2479 19.1181 38.3727C18.823 39.3207 18.8003 40.297 18.8003 41.279C18.8003 41.9488 19.0614 42.5277 19.3395 43.101C19.5552 43.5381 20.225 43.7311 20.7188 43.5949C21.5362 43.3735 22.0584 42.8456 22.3139 42.0623C22.5296 41.4038 22.6999 40.7284 22.8928 40.0586C22.9496 39.8656 23.012 39.6783 23.1029 39.3774C23.2277 39.5591 23.3242 39.6329 23.3299 39.718C23.3526 39.9791 23.3299 40.2459 23.3469 40.5127C23.3924 41.3017 24.0792 41.682 24.7547 41.2733C25.5437 40.7965 26.0829 40.121 26.3099 39.2128C26.4575 38.6338 26.6448 38.0605 26.7867 37.4759C26.8435 37.2488 26.8322 37.0104 26.9457 36.7607C26.9911 36.9196 27.0422 37.0785 27.0876 37.2375C27.1614 37.527 27.2068 37.8278 27.309 38.1116C27.4792 38.6055 27.9561 38.7474 28.3931 38.4692C29.0118 38.0719 29.307 37.4929 29.3638 36.7777C29.3751 36.6301 29.3638 36.4825 29.3865 36.335C29.5738 37.1013 29.483 38.0208 29.1197 38.6395C28.887 39.0369 28.4499 39.1731 28.0355 39.298C27.5814 39.4342 27.2408 39.2185 26.9514 38.8439C26.7754 39.332 26.6108 39.7804 26.4462 40.2289C26.1397 41.0576 25.4755 41.5741 24.7603 41.9885C24.3289 42.2326 23.8067 42.1985 23.381 41.8352C23.2845 41.7501 23.188 41.665 23.0518 41.5458C22.9099 41.8977 22.768 42.2042 22.6601 42.5221C22.4558 43.1124 22.1095 43.6006 21.627 43.9809C21.2013 44.3158 20.7018 44.3896 20.1569 44.4009C19.6177 44.4179 19.2828 44.1398 18.9195 43.839C18.5392 43.5268 18.4256 43.1067 18.3405 42.6469C18.2099 41.9431 18.0964 41.2392 18.1305 40.5184C18.1362 40.4332 18.1191 40.3481 18.1078 40.1948C17.5912 40.5524 17.3017 41.1484 16.6547 41.1825C16.2176 40.9725 15.86 40.717 16.0189 40.1437Z" fill="#593985"/>
<path d="M12.3351 45.832C12.284 46.2918 12.4656 46.7743 12.2272 47.1716C12.5621 47.8471 12.5735 48.5396 12.5621 49.2321C11.3474 49.4819 10.1611 49.4535 9.05421 48.8348C8.80446 48.6929 8.57741 48.4601 8.42982 48.2104C8.23116 47.8868 8.33333 47.6087 8.6512 47.3873C8.78743 47.2908 8.93501 47.2 9.09395 47.1376C10.1668 46.6948 11.2509 46.2634 12.3351 45.832Z" fill="#8655A7"/>
<path d="M23.7774 29.2686C23.8115 29.4218 23.9193 29.5978 23.8796 29.7227C23.6072 30.5003 23.3517 31.3007 22.75 31.9023C21.7226 32.9354 20.5704 33.7925 19.2024 34.3431C18.771 34.5134 18.3396 34.6723 17.9082 34.837C17.9479 34.7121 17.9593 34.5645 18.0331 34.4737C18.5156 33.9004 18.7823 33.2306 18.9697 32.5154C19.0321 32.277 19.1683 32.0669 19.3159 31.7491C19.5657 31.7491 19.9233 31.8172 20.2411 31.7377C21.3877 31.4482 22.3981 30.9203 23.1417 29.9554C23.329 29.7056 23.5617 29.4956 23.7774 29.2686Z" fill="#593985"/>
<path d="M33.5633 10.0018C33.0184 9.75205 32.4792 9.5023 31.8945 9.23551C31.991 9.20713 32.0364 9.19578 32.0875 9.18443C32.3884 9.15037 32.6949 9.11631 32.9957 9.08225C34.1026 8.86656 35.2095 8.64518 36.3163 8.44652C36.6285 8.38975 36.9521 8.38408 37.2699 8.39543C37.4005 8.40111 37.6105 8.4976 37.6332 8.58842C37.6616 8.72465 37.6048 8.94602 37.5027 9.03684C37.2472 9.25254 36.9691 9.47391 36.6626 9.58744C36.1744 9.76908 35.6522 9.86558 35.1413 9.99613C34.6191 9.99613 34.0912 10.0018 33.5633 10.0018Z" fill="#8655A7"/>
<path d="M21.0422 26.9062C20.5995 27.6839 19.8956 28.1664 19.1123 28.5297C18.6923 28.7226 18.4198 28.4672 18.4993 28.0018C18.522 27.8542 18.5333 27.6839 18.6128 27.5704C18.7717 27.3604 18.6866 27.2128 18.4766 27.0255C18.6752 27.0141 18.8001 27.0084 18.925 27.0027C19.6288 26.9744 20.3384 26.9403 21.0422 26.9062Z" fill="#703C40"/>
<path d="M21.043 26.9053C20.3392 26.9394 19.6296 26.9734 18.9258 27.0075C19.1585 26.2639 19.5048 26.0085 20.254 25.9744C20.464 25.9631 20.6797 25.8723 20.8841 25.7928C21.1792 25.6793 21.4687 25.5487 21.7753 25.4238C21.7469 25.8552 21.4971 26.3434 21.043 26.9053Z" fill="#31221A"/>
<path d="M39.7958 33.4736C39.4893 33.4907 39.2169 33.3998 38.916 33.1104C39.3134 33.1671 39.6199 33.2068 39.9207 33.2523C39.881 33.326 39.8412 33.3998 39.7958 33.4736Z" fill="#593985"/>
<path d="M33.5645 10.0008C34.0923 10.0008 34.6202 9.99512 35.1425 9.99512C34.6202 10.137 34.0923 10.137 33.5645 10.0008Z" fill="#8655A7"/>
<path d="M26.9787 8.55841C26.8198 8.62085 26.6665 8.68896 26.5076 8.7514C26.4849 8.70599 26.4622 8.66626 26.4395 8.62085C26.5643 8.53571 26.6892 8.45624 26.8141 8.37109C26.8708 8.43353 26.9276 8.49597 26.9787 8.55841Z" fill="#593985"/>
<path d="M9.72271 41.867C9.38214 41.8329 9.04156 41.8046 8.69531 41.7705C9.04156 41.7989 9.38214 41.8329 9.72271 41.867Z" fill="#593985"/>
<path d="M32.9961 9.08594C32.6952 9.11999 32.3887 9.15405 32.0879 9.18811C32.3887 9.14838 32.6952 9.11432 32.9961 9.08594Z" fill="#593985"/>
<path d="M40.2793 33.3428C40.478 33.3825 40.7391 33.252 40.8356 33.5528C40.6483 33.4847 40.4609 33.4166 40.2793 33.3428Z" fill="#593985"/>
<path d="M11.5339 41.7539C11.5907 41.788 11.6531 41.8277 11.7099 41.8618C11.7099 41.8958 11.7042 41.9299 11.7042 41.9639C11.5339 41.9639 11.3636 41.9696 11.1934 41.9696C11.3069 41.9015 11.4204 41.8277 11.5339 41.7539Z" fill="#593985"/>
<path d="M29.4707 8.93634C29.6921 8.90228 29.9191 8.8739 30.1405 8.83984C29.9191 8.8739 29.6978 8.90228 29.4707 8.93634Z" fill="#593985"/>
<path d="M12 45.4425C12.1533 45.4255 12.3008 45.4028 12.4541 45.3857C12.3008 45.4028 12.1476 45.4198 12 45.4425Z" fill="#593985"/>
<path d="M10.2793 45.4053C10.3985 45.4166 10.512 45.428 10.6312 45.445C10.512 45.428 10.3928 45.4166 10.2793 45.4053Z" fill="#593985"/>
<path d="M39.9445 25.061C39.9274 25.0267 39.9274 24.9981 39.9445 24.9639C39.9559 24.9867 39.9673 25.0096 39.9731 25.0324C39.9731 25.0438 39.9559 25.0553 39.9445 25.061Z" fill="#452E26"/>
<path d="M17.9047 34.8418C17.8818 34.8819 17.8589 34.9163 17.8359 34.9564C17.8589 34.9163 17.8818 34.8762 17.9047 34.8418Z" fill="#593985"/>
<path d="M28.6599 23.0068C28.5237 23.0068 28.3818 23.0068 28.2455 23.0124C28.0866 22.9841 27.9277 22.9614 27.7687 22.933C26.7413 22.7911 25.9977 22.2064 25.4415 21.372C24.3119 19.6635 24.3232 16.6948 26.2134 15.043C26.5483 14.7478 26.9457 14.4981 27.3487 14.3108C28.1377 13.9532 28.8926 13.9929 29.6476 14.5094C31.6513 15.8831 32.4573 18.7893 31.3788 20.9576C30.885 21.9567 30.113 22.6378 29.0175 22.9273C28.904 22.95 28.7791 22.9784 28.6599 23.0068ZM28.904 22.3483C29.7327 22.1724 30.3287 21.6728 30.7204 20.952C31.112 20.2311 31.305 19.4478 31.2653 18.6134C31.2483 18.4885 31.2312 18.3636 31.2142 18.233C31.0496 17.6938 30.9304 17.1319 30.7033 16.621C30.3344 15.7866 29.7043 15.1736 28.8983 14.7478C28.5975 14.5775 28.2966 14.5719 27.9901 14.7308C26.5143 15.0941 25.4415 16.7232 25.3847 17.8073C25.3733 17.8187 25.3506 17.83 25.3506 17.8414C25.3506 17.8698 25.362 17.9038 25.362 17.9322C25.1463 19.1015 25.3223 20.2027 26.0204 21.179C26.4518 21.7864 27.0024 22.2405 27.7744 22.354C28.149 22.5186 28.5237 22.4845 28.904 22.3483Z" fill="#181427"/>
<path d="M31.2598 31.3225C31.4357 31.436 31.572 31.5779 31.7366 31.629C32.2815 31.7879 32.8037 31.7198 33.2919 31.4076C34.1206 30.8797 34.6144 30.1418 34.8074 29.1825C34.8415 29.0009 34.9096 28.8249 34.955 28.6603C35.0231 28.649 35.0572 28.6319 35.0912 28.6376C35.324 28.6773 35.4375 29.0406 35.7326 28.9044C36.13 28.7228 36.5273 28.5184 36.7373 28.1154C37.129 27.3775 37.4015 26.5998 37.2879 25.7427C37.2482 25.4305 37.129 25.1297 37.0495 24.8175C37.0268 24.738 37.0212 24.6529 36.9928 24.4883C37.3958 24.7324 37.5547 25.0275 37.6285 25.3851C37.6512 25.493 37.6172 25.6235 37.6569 25.72C38.0429 26.5942 37.8385 27.4229 37.4696 28.2289C37.1914 28.8363 36.726 29.3188 36.1811 29.682C35.937 29.8467 35.568 29.8239 35.2672 29.8864C34.9493 30.42 34.6769 31.0046 34.2852 31.4984C33.763 32.1682 32.7753 32.5712 31.9182 32.2931C31.3676 32.1171 31.2995 32.015 31.2598 31.3225Z" fill="#593985"/>
<path d="M27.5308 11.6639C27.1165 11.7775 26.7078 11.8853 26.1855 12.0272C26.6964 11.3063 27.3378 10.9828 28.0928 10.8806C28.6434 10.8068 29.1826 10.9147 29.6935 11.1247C30.42 11.4199 31.0728 11.8229 31.5382 12.4756C31.7653 12.7935 31.9753 13.1341 31.7994 13.6506C31.0387 12.5778 30.0851 11.874 28.8193 11.6639C28.3879 11.4993 27.9565 11.5164 27.5308 11.6639Z" fill="#181427"/>
<path d="M27.5293 11.6655C27.955 11.518 28.3864 11.5066 28.8178 11.6599C28.3864 11.6599 27.955 11.6655 27.5293 11.6655Z" fill="#593985"/>
<path d="M27.7695 22.9336C27.9285 22.962 28.0874 22.9847 28.2463 23.0131C28.0874 22.9847 27.9285 22.9563 27.7695 22.9336Z" fill="#593985"/>
<path d="M33.332 47.085C33.3492 47.1078 33.372 47.1307 33.3835 47.1535C33.3835 47.1592 33.3606 47.1764 33.3492 47.1878C33.3377 47.1535 33.332 47.1192 33.332 47.085Z" fill="#8655A7"/>
<path d="M41.3984 50.5978C41.3698 50.5577 41.3411 50.5176 41.3125 50.4775C41.3354 50.5176 41.3641 50.5635 41.387 50.6036L41.3984 50.5978Z" fill="#181427"/>
<path d="M17.6525 16.1373C14.7235 17.0399 12.9696 19.0719 12.0727 21.9668C11.8003 21.6149 11.8457 21.2573 11.9024 20.9451C12.0898 19.8326 12.3395 18.7143 13.0377 17.7891C13.7699 16.8185 14.7406 16.1317 15.9212 15.8195C16.3469 15.7059 16.8237 15.7684 17.2722 15.7854C17.4141 15.7911 17.5446 15.9216 17.6808 15.9897C17.6752 16.0408 17.6638 16.0919 17.6525 16.1373Z" fill="#9E9C9F"/>
<path d="M19.2602 17.3674C19.2488 17.4241 19.2602 17.5717 19.1921 17.6342C19.0956 17.7193 18.9366 17.7761 18.8118 17.7704C18.7493 17.7647 18.6528 17.5887 18.6528 17.4866C18.6471 17.3447 18.6926 17.1857 18.7607 17.0609C18.8118 16.9644 18.9366 16.9019 19.0218 16.8281C19.1012 16.936 19.1864 17.0438 19.2488 17.1573C19.2772 17.1914 19.2602 17.2595 19.2602 17.3674Z" fill="#181427"/>
<path d="M43.1164 45.6289C43.5989 45.9468 44.0473 46.1852 44.4276 46.5087C44.8079 46.8323 45.1996 47.1955 45.4493 47.6213C45.9261 48.4386 46.21 49.3298 46.0567 50.3061C45.9659 50.8851 45.5572 51.0895 45.0463 50.817C44.2517 50.397 43.7976 49.7215 43.4797 48.9041C43.0653 47.854 43.0256 46.7869 43.1164 45.6289Z" fill="#593985"/>
<path d="M45.7566 42.623C46.2618 42.9977 46.7897 43.3439 47.2608 43.7583C47.5503 44.0137 47.7887 44.3486 47.9987 44.6778C48.5039 45.4782 48.7707 46.3523 48.5323 47.3003C48.4755 47.533 48.2655 47.7373 48.0839 47.919C47.9363 48.0666 47.7433 48.0098 47.5673 47.8963C47.1076 47.6068 46.7556 47.2151 46.4945 46.7554C46.0007 45.8755 45.6715 44.9446 45.6828 43.9172C45.6828 43.7526 45.6261 43.5823 45.6204 43.4177C45.609 43.1793 45.6147 42.9466 45.6147 42.7082C45.6715 42.6741 45.7169 42.6514 45.7566 42.623Z" fill="#593985"/>
<path d="M25.3846 17.805C25.4414 16.7209 26.5142 15.0918 27.99 14.7285C28.2909 14.7342 28.5974 14.7399 28.8982 14.7455C29.7043 15.1713 30.3343 15.79 30.7033 16.6187C30.9303 17.1296 31.0495 17.6915 31.2141 18.2308C31.2312 18.3556 31.2482 18.4805 31.2652 18.6111C31.305 19.4398 31.112 20.2288 30.7203 20.9497C30.3286 21.6706 29.7326 22.1757 28.9039 22.346C28.5293 22.346 28.149 22.3517 27.7743 22.3517C27.0024 22.2382 26.4518 21.7784 26.0204 21.1767C25.3222 20.1947 25.1462 19.0992 25.3619 17.9299C25.3676 17.8845 25.379 17.8448 25.3846 17.805ZM28.6825 21.909C29.5453 21.6251 30.0278 20.9951 30.2776 20.1607C30.4478 19.5931 30.4138 19.0425 30.3003 18.4521C30.1243 17.5269 29.727 16.8514 28.8017 16.5506C28.6087 16.42 28.4157 16.403 28.2228 16.5392C27.5927 16.6868 27.184 17.1069 26.8548 17.6291C26.4064 18.35 26.3837 19.1446 26.4745 19.9507C26.588 20.9099 27.0932 21.5684 28.0071 21.9033C28.2284 22.0452 28.4555 22.0565 28.6825 21.909Z" fill="#FFFAF4"/>
<path d="M27.7695 22.3524C28.1442 22.3524 28.5245 22.3467 28.8991 22.3467C28.5245 22.4829 28.1498 22.517 27.7695 22.3524Z" fill="#B2AFA6"/>
<path d="M28.8984 14.7484C28.5976 14.7428 28.2911 14.7371 27.9902 14.7314C28.2968 14.5725 28.5976 14.5725 28.8984 14.7484Z" fill="#B2AFA6"/>
<path d="M31.2659 18.6127C31.2489 18.4879 31.2319 18.363 31.2148 18.2324C31.2319 18.3573 31.2489 18.4822 31.2659 18.6127Z" fill="#B2AFA6"/>
<path d="M25.3855 17.8057C25.3798 17.8458 25.3684 17.8859 25.3626 17.926C25.3569 17.8973 25.3454 17.863 25.3512 17.8343C25.3512 17.8286 25.3741 17.8171 25.3855 17.8057Z" fill="#B2AFA6"/>
<path d="M28.7954 16.5446C29.7206 16.8454 30.118 17.5209 30.2939 18.4461C30.4075 19.0364 30.4415 19.587 30.2712 20.1546C30.0215 20.9947 29.539 21.6248 28.6762 21.9029C28.4492 21.9029 28.2221 21.8973 28.0007 21.8973C27.0869 21.5624 26.5817 20.9096 26.4681 19.9446C26.3716 19.1329 26.3944 18.3439 26.8485 17.623C27.1777 17.0951 27.5864 16.6808 28.2164 16.5332C28.4094 16.5389 28.6024 16.5389 28.7954 16.5446ZM28.7954 18.7413C28.767 18.8888 28.7386 19.0364 28.7159 19.1897C28.75 19.201 28.7841 19.2124 28.8181 19.2237C28.8862 19.0648 28.9487 18.9002 29.0168 18.7413C29.1587 18.6504 29.3176 18.5766 29.4311 18.4631C29.6412 18.2361 29.6468 17.8785 29.4766 17.6287C29.3063 17.3846 28.9827 17.2825 28.6762 17.379C28.4321 17.4528 28.2675 17.7309 28.2391 18.0204C28.1824 18.4518 28.5059 18.5766 28.7954 18.7413Z" fill="#181427"/>
<path d="M28.002 21.9004C28.229 21.9004 28.4561 21.9061 28.6774 21.9061C28.4561 22.0593 28.229 22.048 28.002 21.9004Z" fill="#B2AFA6"/>
<path d="M28.7958 16.5474C28.6028 16.5417 28.4098 16.5417 28.2168 16.5361C28.4155 16.3998 28.6085 16.4169 28.7958 16.5474Z" fill="#B2AFA6"/>
<path d="M28.7958 18.7436C28.5063 18.579 28.1828 18.4542 28.2339 18.0114C28.2623 17.7219 28.4269 17.4438 28.6709 17.37C28.9831 17.2735 29.3067 17.3757 29.4713 17.6198C29.6416 17.8695 29.6359 18.2271 29.4259 18.4542C29.318 18.5734 29.1534 18.6415 29.0115 18.7323C28.9434 18.7436 28.8696 18.7436 28.7958 18.7436Z" fill="#FEFAF5"/>
<path d="M28.7963 18.743C28.8701 18.743 28.9438 18.7373 29.0176 18.7373C28.9495 18.9019 28.8871 19.0609 28.819 19.2198C28.7849 19.2084 28.7509 19.1971 28.7168 19.1857C28.7395 19.0438 28.7679 18.8962 28.7963 18.743Z" fill="#8655A7"/>
</g>
<defs>
<clipPath id="clip0_4631_52334">
<rect width="57" height="57" rx="28.5" fill="white"/>
</clipPath>
</defs>
</svg>
