<svg width="76" height="17" viewBox="0 0 76 17" fill="none" xmlns="http://www.w3.org/2000/svg">
<path d="M4.45304 16.4229L4.77358 14.5516L4.05964 14.5364H0.650477L3.01969 0.72755C3.02692 0.685859 3.05091 0.64699 3.08584 0.619391C3.12077 0.591791 3.16558 0.576581 3.21215 0.576581H8.96054C10.869 0.576581 12.1859 0.941616 12.8735 1.6621C13.1958 2.00011 13.4012 2.3533 13.5005 2.742C13.6046 3.14986 13.6065 3.63713 13.5047 4.23144L13.4973 4.27482V4.65561L13.8198 4.8235C14.0913 4.95587 14.3069 5.1074 14.4723 5.28091C14.7483 5.56989 14.9266 5.93718 15.0019 6.37263C15.0797 6.82048 15.054 7.35338 14.9266 7.95671C14.7795 8.65073 14.5417 9.25517 14.2206 9.74977C13.9251 10.2055 13.5488 10.5834 13.1022 10.8764C12.6756 11.1547 12.1688 11.366 11.5958 11.5012C11.0404 11.634 10.4075 11.7012 9.71311 11.7012H9.26573C8.94589 11.7012 8.63505 11.8071 8.39125 11.9969C8.14675 12.1907 7.9848 12.4554 7.93523 12.745L7.90154 12.9135L7.33525 16.2116L7.3095 16.3327C7.30279 16.3712 7.29115 16.3903 7.27404 16.4033C7.25869 16.415 7.23664 16.4229 7.21511 16.4229H4.45304Z" fill="#253B80"/>
<path d="M14.1239 4.31953C14.1068 4.42036 14.0872 4.52345 14.0652 4.62935C13.307 8.20704 10.7135 9.44298 7.40104 9.44298H5.71454C5.30949 9.44298 4.96814 9.71336 4.90498 10.0806L3.79694 16.5414C3.75584 16.7825 3.95818 17 4.2228 17H7.21421C7.56845 17 7.86923 16.7634 7.92498 16.4423L7.95444 16.3026L8.51772 13.0172L8.55389 12.8371C8.60893 12.5149 8.91041 12.2783 9.26465 12.2783H9.71203C12.6101 12.2783 14.879 11.1967 15.5421 8.06677C15.8191 6.75929 15.6756 5.66757 14.9426 4.89975C14.7209 4.66822 14.4457 4.47613 14.1239 4.31953Z" fill="#179BD7"/>
<path d="M13.3293 4.02796C13.2136 3.99697 13.094 3.96881 12.9714 3.94346C12.8483 3.91868 12.7219 3.89671 12.5921 3.87756C12.1373 3.80996 11.6391 3.77785 11.1053 3.77785H6.59975C6.48878 3.77785 6.38347 3.80094 6.28908 3.84263C6.08127 3.93445 5.92691 4.11528 5.88951 4.33666L4.93089 9.91697L4.90337 10.0798C4.96653 9.71248 5.30788 9.44208 5.71293 9.44208H7.39942C10.7119 9.44208 13.3055 8.20559 14.0636 4.62847C14.0861 4.52256 14.1052 4.41948 14.1223 4.31865C13.9305 4.22513 13.7227 4.14514 13.499 4.07697C13.444 4.06007 13.387 4.04374 13.3293 4.02796Z" fill="#222D65"/>
<path d="M5.89177 4.33704C5.92917 4.11565 6.08371 3.93482 6.29134 3.84356C6.38643 3.80187 6.49122 3.77878 6.602 3.77878H11.1077C11.6416 3.77878 12.1398 3.81089 12.5944 3.87849C12.7244 3.89764 12.8507 3.91961 12.9738 3.94439C13.0964 3.96975 13.2159 3.99792 13.3318 4.02889C13.3893 4.04467 13.4463 4.061 13.502 4.07734C13.7257 4.1455 13.9335 4.22606 14.1253 4.31901C14.3509 2.99688 14.1235 2.09669 13.3459 1.28155C12.4885 0.384186 10.941 0 8.96098 0H3.21243C2.80792 0 2.46303 0.270383 2.4004 0.63824L0.00614365 14.589C-0.0411347 14.865 0.190494 15.1141 0.493217 15.1141H4.04227L5.89177 4.33704Z" fill="#253B80"/>
<path fill-rule="evenodd" clip-rule="evenodd" d="M28.3775 3.6467H24.1684C23.8803 3.6467 23.6353 3.83912 23.5904 4.10041L21.888 14.0219C21.8542 14.2177 22.0191 14.3942 22.2352 14.3942H24.2447C24.5327 14.3942 24.7777 14.2018 24.8226 13.94L25.2818 11.264C25.326 11.002 25.5716 10.8098 25.8591 10.8098H27.1915C29.9643 10.8098 31.5644 9.5764 31.9825 7.13242C32.1708 6.06319 31.9905 5.22304 31.4456 4.6345C30.8475 3.98862 29.7863 3.6467 28.3775 3.6467ZM28.8632 7.27039C28.633 8.65876 27.479 8.65876 26.3631 8.65876H25.728L26.1736 6.06581C26.2 5.90925 26.3477 5.79379 26.5201 5.79379H26.8112C27.5713 5.79379 28.2884 5.79379 28.6589 6.192C28.8797 6.42972 28.9475 6.78264 28.8632 7.27039ZM40.9598 7.22588H38.9441C38.7724 7.22588 38.624 7.34134 38.5975 7.49816L38.5083 8.01628L38.3674 7.82856C37.931 7.2463 36.9581 7.05178 35.9868 7.05178C33.7592 7.05178 31.8569 8.60247 31.4864 10.7778C31.2938 11.8628 31.5675 12.9003 32.2371 13.624C32.8515 14.2892 33.7305 14.5665 34.776 14.5665C36.5707 14.5665 37.5661 13.5056 37.5661 13.5056L37.4761 14.0206C37.4422 14.2175 37.6072 14.3939 37.8219 14.3939H39.6377C39.9265 14.3939 40.17 14.2015 40.2156 13.9397L41.305 7.59817C41.3395 7.40313 41.1751 7.22588 40.9598 7.22588ZM38.15 10.832C37.9555 11.8905 37.0415 12.6011 35.876 12.6011C35.2907 12.6011 34.8228 12.4285 34.5225 12.1015C34.2246 11.7769 34.1113 11.3146 34.2061 10.7998C34.3878 9.75024 35.3172 9.01665 36.465 9.01665C37.0372 9.01665 37.5026 9.19128 37.8091 9.52116C38.1161 9.85444 38.238 10.3194 38.15 10.832ZM49.6693 7.22562H51.695C51.9787 7.22562 52.1442 7.51806 51.9829 7.73196L45.2461 16.6706C45.137 16.8154 44.9573 16.9015 44.7653 16.9015H42.7422C42.4574 16.9015 42.291 16.6067 42.456 16.3923L44.5537 13.6706L42.3227 7.65211C42.2455 7.44292 42.4135 7.22562 42.6556 7.22562H44.6459C44.9046 7.22562 45.1327 7.38166 45.2073 7.60917L46.3913 11.2441L49.1851 7.46151C49.2945 7.31385 49.4762 7.22562 49.6693 7.22562Z" fill="#253B80"/>
<path fill-rule="evenodd" clip-rule="evenodd" d="M71.6315 14.021L73.359 3.9181C73.3855 3.76127 73.5333 3.64581 73.705 3.64529H75.6498C75.8646 3.64529 76.0295 3.82227 75.9956 4.01811L74.292 13.9391C74.2476 14.2009 74.0027 14.3933 73.7141 14.3933H71.9773C71.7626 14.3933 71.5976 14.2169 71.6315 14.021ZM58.4019 3.64582H54.1919C53.9046 3.64582 53.6596 3.83824 53.6146 4.09953L51.9122 14.021C51.8783 14.2169 52.0432 14.3933 52.2583 14.3933H54.4184C54.6192 14.3933 54.7909 14.2588 54.8222 14.0755L55.3053 11.2631C55.3497 11.0011 55.5952 10.8089 55.8826 10.8089H57.2145C59.9878 10.8089 61.5876 9.57552 62.006 7.13154C62.1948 6.06231 62.0134 5.22216 61.4688 4.63362C60.871 3.98774 59.8106 3.64582 58.4019 3.64582ZM58.8875 7.26951C58.6579 8.65788 57.5038 8.65788 56.3873 8.65788H55.7528L56.1991 6.06493C56.2256 5.90837 56.372 5.79291 56.5448 5.79291H56.8359C57.5955 5.79291 58.3133 5.79291 58.6836 6.19112C58.9046 6.42884 58.9718 6.78176 58.8875 7.26951ZM70.983 7.225H68.9687C68.7956 7.225 68.6486 7.34046 68.6227 7.49728L68.5335 8.0154L68.392 7.82768C67.9556 7.24542 66.9833 7.0509 66.012 7.0509C63.7844 7.0509 61.8827 8.60159 61.5121 10.777C61.3202 11.8619 61.5927 12.8994 62.2623 13.6231C62.8778 14.2883 63.7557 14.5656 64.8012 14.5656C66.5959 14.5656 67.5911 13.5047 67.5911 13.5047L67.5013 14.0197C67.4675 14.2166 67.6324 14.3931 67.8485 14.3931H69.6634C69.9508 14.3931 70.1958 14.2006 70.2408 13.9388L71.3308 7.59729C71.3641 7.40225 71.1992 7.225 70.983 7.225ZM68.1735 10.8312C67.9801 11.8896 67.065 12.6002 65.8992 12.6002C65.3151 12.6002 64.8462 12.4277 64.5458 12.1007C64.2478 11.776 64.1359 11.3137 64.2296 10.799C64.4122 9.74936 65.3404 9.01577 66.4882 9.01577C67.0607 9.01577 67.5258 9.1904 67.8326 9.52028C68.1408 9.85356 68.2627 10.3185 68.1735 10.8312Z" fill="#179BD7"/>
</svg>
