<svg width="65" height="32" viewBox="0 0 65 32" fill="none" xmlns="http://www.w3.org/2000/svg">
<g clip-path="url(#clip0_3188_285993)">
<mask id="mask0_3188_285993" style="mask-type:luminance" maskUnits="userSpaceOnUse" x="0" y="0" width="56" height="32">
<path d="M56 0H0V32H56V0Z" fill="white"/>
</mask>
<g mask="url(#mask0_3188_285993)">
<mask id="mask1_3188_285993" style="mask-type:luminance" maskUnits="userSpaceOnUse" x="0" y="0" width="56" height="32">
<path d="M56 0H0V32H56V0Z" fill="white"/>
</mask>
<g mask="url(#mask1_3188_285993)">
<path d="M28.4796 20.9618C28.4024 21.0736 28.3028 21.1608 28.1899 21.2156C28.0697 21.275 27.9405 21.3051 27.8102 21.3042C27.6807 21.307 27.5519 21.281 27.4306 21.2275C27.3217 21.1803 27.2229 21.1058 27.1408 21.009C27.0561 20.9148 26.9896 20.8 26.946 20.6726C26.9006 20.5313 26.8785 20.3809 26.8811 20.2298C26.8795 20.0865 26.9015 19.9441 26.946 19.8107C26.9878 19.685 27.0507 19.5706 27.1309 19.4743C27.2082 19.3763 27.3017 19.2979 27.4056 19.2441C27.5173 19.1862 27.6384 19.158 27.7603 19.1614C27.8902 19.1591 28.0198 19.179 28.1449 19.2204C28.2571 19.2608 28.3597 19.3316 28.4447 19.427L28.2998 19.7163C28.2318 19.6429 28.1519 19.5867 28.065 19.551C27.9797 19.5177 27.8901 19.5017 27.8002 19.5038C27.7247 19.5038 27.6499 19.5218 27.5804 19.5569C27.5066 19.5874 27.4399 19.638 27.3856 19.7045C27.329 19.7694 27.2847 19.8479 27.2557 19.9347C27.2233 20.0284 27.2064 20.1286 27.2058 20.2298C27.2064 20.3349 27.2234 20.4389 27.2557 20.5368C27.2889 20.6238 27.3364 20.7021 27.3956 20.767C27.4515 20.8297 27.5178 20.878 27.5904 20.9087C27.6685 20.9444 27.7515 20.9625 27.8352 20.9618C27.9325 20.9651 28.0289 20.9387 28.115 20.8851C28.1963 20.8393 28.2693 20.7751 28.3298 20.6962L28.4796 20.9618Z" fill="#1B0A40"/>
<path d="M28.8789 21.2564V19.2021H29.1886V20.731L30.1927 19.2021H30.4975V21.2564H30.1927V19.7275L29.1886 21.2564H28.8789Z" fill="#1B0A40"/>
<path d="M32.5401 20.9614C32.4639 21.0745 32.3639 21.162 32.2503 21.2152C32.1317 21.2745 32.0043 21.3046 31.8756 21.3038C31.746 21.3067 31.6173 21.2806 31.4959 21.2271C31.3856 21.18 31.2851 21.1055 31.2012 21.0086C31.1196 20.9126 31.055 20.7982 31.0114 20.6722C30.9642 20.5313 30.9405 20.3809 30.9414 20.2294C30.9414 20.0857 30.9652 19.9433 31.0114 19.8103C31.0515 19.6849 31.1126 19.5705 31.1912 19.4739C31.2704 19.3757 31.3656 19.2974 31.471 19.2437C31.5824 19.1852 31.7035 19.157 31.8256 19.161C31.954 19.1588 32.0817 19.1787 32.2053 19.22C32.3186 19.2576 32.4218 19.3287 32.5052 19.4267L32.3652 19.7159C32.2963 19.6412 32.2145 19.5848 32.1254 19.5506C32.0417 19.5173 31.954 19.5013 31.8656 19.5034C31.7885 19.5038 31.712 19.5219 31.6409 19.5565C31.5689 19.5878 31.5038 19.6383 31.451 19.7041C31.3929 19.7676 31.3483 19.8465 31.3211 19.9343C31.2864 20.0272 31.2694 20.1279 31.2711 20.2294C31.2693 20.3348 31.2864 20.4394 31.3211 20.5364C31.3543 20.6219 31.3999 20.6998 31.456 20.7666C31.5135 20.8295 31.5818 20.8777 31.6557 20.9083C31.7322 20.944 31.8133 20.9621 31.8954 20.9614C31.9942 20.964 32.0921 20.9376 32.1802 20.8847C32.2616 20.8389 32.3346 20.7747 32.395 20.6958L32.5401 20.9614Z" fill="#1B0A40"/>
<path d="M32.7012 19.2021H34.2846V19.5681H33.6453V21.2564H33.3354V19.5681H32.7012V19.2021Z" fill="#1B0A40"/>
<path d="M36.027 21.0324C35.9396 21.1271 35.8357 21.1977 35.7222 21.239C35.6092 21.2811 35.4912 21.303 35.3726 21.3039C35.2414 21.3068 35.1109 21.2808 34.9879 21.2272C34.879 21.1801 34.7802 21.1055 34.6981 21.0087C34.6166 20.9127 34.5521 20.7982 34.5084 20.6723C34.4631 20.531 34.4408 20.3807 34.4436 20.2295C34.4427 20.0868 34.4631 19.945 34.5034 19.8105C34.5418 19.6854 34.6012 19.5709 34.6783 19.474C34.7566 19.3745 34.852 19.296 34.958 19.2438C35.0782 19.1848 35.2075 19.1566 35.3377 19.1611C35.445 19.1616 35.5513 19.1835 35.6523 19.226C35.7486 19.2711 35.8367 19.3372 35.9122 19.4208C35.9855 19.5044 36.0431 19.6048 36.0821 19.716C36.1271 19.8368 36.1491 19.9677 36.1469 20.0997C36.1554 20.182 36.1554 20.2653 36.1469 20.3476H34.8133C34.8142 20.4338 34.8315 20.5186 34.8636 20.5961C34.8954 20.6736 34.9413 20.7419 34.9979 20.7962C35.1159 20.9105 35.2654 20.9693 35.4176 20.9615C35.5233 20.9622 35.6281 20.9402 35.7272 20.8966C35.8084 20.8621 35.8845 20.8122 35.9521 20.749L36.027 21.0324ZM35.3226 19.5035C35.2537 19.4967 35.1845 19.5068 35.1194 19.5332C35.0539 19.5596 34.9938 19.6017 34.9429 19.657C34.8463 19.7563 34.7853 19.8957 34.7733 20.0465H35.8272C35.8241 19.8958 35.7722 19.7522 35.6822 19.6452C35.5828 19.5439 35.4538 19.493 35.3226 19.5035Z" fill="#1B0A40"/>
<path d="M36.5664 19.2021H36.8461L37.5156 20.2175L38.1498 19.2021H38.4198V21.2564H38.1149V19.7571L37.5105 20.7133H37.5005L36.876 19.7571V21.2564H36.5664V19.2021Z" fill="#1B0A40"/>
<path d="M38.9942 19.3442C39.0773 19.2862 39.1663 19.2406 39.2591 19.2084C39.362 19.1774 39.4677 19.1616 39.5737 19.1612C39.6656 19.1514 39.7581 19.1659 39.8443 19.2037C39.9308 19.2415 40.0092 19.3016 40.0733 19.3795C40.1825 19.5595 40.2354 19.7785 40.2231 19.9994V21.2567H39.9333V20.9911C39.8773 21.0777 39.8056 21.1483 39.7235 21.1977C39.6175 21.2641 39.4989 21.2966 39.379 21.2921C39.2349 21.2982 39.0949 21.2367 38.9892 21.1209C38.9398 21.0588 38.9014 20.9855 38.8763 20.9053C38.8514 20.8252 38.8407 20.7399 38.8445 20.6546C38.8417 20.5587 38.859 20.4635 38.8942 20.3772C38.9266 20.2979 38.9725 20.2275 39.0292 20.1705C39.0927 20.1154 39.1635 20.0735 39.239 20.0466C39.3233 20.0177 39.4111 20.0037 39.4989 20.0053C39.5734 19.9973 39.6489 19.9973 39.7235 20.0053C39.7996 20.0211 39.8714 20.0575 39.9333 20.1115C39.939 20.0251 39.939 19.9382 39.9333 19.8518C39.928 19.779 39.9094 19.7085 39.8786 19.6452C39.8484 19.6002 39.8088 19.5655 39.7635 19.5448C39.6993 19.511 39.6291 19.4948 39.5586 19.4976C39.4589 19.4917 39.3589 19.5077 39.2639 19.5448L39.0543 19.6511L38.9942 19.3442ZM39.4938 20.9615C39.5911 20.9672 39.6873 20.9362 39.7685 20.873C39.833 20.823 39.8918 20.7635 39.9434 20.6959V20.4362C39.8283 20.3447 39.6924 20.2973 39.5536 20.3004C39.5074 20.2946 39.4605 20.2946 39.4139 20.3004C39.3715 20.3148 39.3309 20.3367 39.2941 20.3654C39.2601 20.3897 39.2327 20.4243 39.2142 20.4657C39.1937 20.5132 39.1833 20.5659 39.184 20.6192C39.1824 20.663 39.1887 20.7068 39.2025 20.7475C39.216 20.7882 39.2371 20.825 39.2639 20.8553C39.328 20.9187 39.4105 20.9504 39.4938 20.9439" fill="#1B0A40"/>
<path d="M43.1359 18.3054C43.0894 18.3788 43.0299 18.4393 42.9613 18.4825C42.895 18.5151 42.8264 18.5407 42.7565 18.5592L42.5215 18.6123C42.4278 18.6284 42.3365 18.6623 42.2519 18.7127C42.1736 18.7507 42.105 18.8117 42.0521 18.8898C41.9967 18.9606 41.9527 19.0426 41.9222 19.1318C41.8866 19.222 41.8615 19.3172 41.8473 19.4151C41.8284 19.5102 41.8168 19.607 41.8124 19.7044C41.8394 19.6326 41.8766 19.5668 41.9222 19.5096C41.9716 19.4521 42.0269 19.4025 42.087 19.362C42.1471 19.3167 42.2129 19.2828 42.2818 19.2617C42.3516 19.2379 42.424 19.226 42.4967 19.2262C42.6115 19.2231 42.7257 19.2492 42.8314 19.303C42.9283 19.3487 43.0151 19.4193 43.0862 19.5096C43.1583 19.6009 43.213 19.7096 43.2461 19.8283C43.2873 19.9626 43.3074 20.1046 43.3058 20.2474C43.3055 20.3873 43.2816 20.5257 43.236 20.6547C43.196 20.7801 43.1347 20.8946 43.056 20.9912C42.9749 21.0877 42.878 21.1639 42.7713 21.2155C42.6584 21.2754 42.5357 21.3055 42.4117 21.3041C42.2812 21.3067 42.1518 21.2765 42.032 21.2155C41.9209 21.1571 41.8218 21.0704 41.7422 20.9617C41.6576 20.8447 41.5947 20.7079 41.5576 20.5603C41.5113 20.3866 41.4896 20.2051 41.4924 20.0231C41.494 19.8653 41.5022 19.7077 41.5176 19.5509C41.5321 19.388 41.5623 19.2276 41.6076 19.0727C41.6554 18.9247 41.7208 18.7855 41.8023 18.6595C41.8917 18.5318 42.0068 18.4323 42.1371 18.3703C42.2239 18.3214 42.3164 18.2876 42.4117 18.27L42.6316 18.2227C42.6933 18.2117 42.7537 18.1919 42.8113 18.1637C42.8714 18.1305 42.923 18.0797 42.9613 18.0161L43.1359 18.3054ZM41.8322 20.0762C41.8316 20.1979 41.8451 20.319 41.8722 20.4363C41.8989 20.5342 41.9395 20.626 41.992 20.7079C42.043 20.7796 42.1059 20.838 42.177 20.8791C42.2519 20.9213 42.3337 20.9434 42.4167 20.944C42.4957 20.9453 42.5737 20.9272 42.6464 20.8909C42.7141 20.8535 42.7751 20.8014 42.8264 20.7374C42.8786 20.6764 42.9182 20.6015 42.9412 20.519C42.972 20.4331 42.9874 20.3407 42.9862 20.2474C42.9915 20.0667 42.9399 19.89 42.8415 19.7516C42.7908 19.6831 42.7276 19.6294 42.6565 19.5946C42.5854 19.5598 42.5083 19.5448 42.4318 19.5509C42.3551 19.5502 42.2786 19.5662 42.2069 19.5981C42.1424 19.6267 42.0817 19.6665 42.027 19.7162C41.9779 19.7624 41.9354 19.8183 41.9021 19.8815C41.8684 19.9405 41.8448 20.0066 41.8322 20.0762Z" fill="#1B0A40"/>
<path d="M43.7617 19.2021H44.0716V19.822H44.3563C44.4699 19.8173 44.5835 19.8373 44.6911 19.881C44.7697 19.9129 44.8414 19.9653 44.9009 20.0345C44.9525 20.0996 44.9903 20.1786 45.0107 20.2647C45.0349 20.3483 45.0466 20.4361 45.0456 20.5244C45.045 20.6169 45.0315 20.7086 45.0057 20.796C44.9827 20.8821 44.9434 20.9608 44.8908 21.0262C44.8273 21.1005 44.7505 21.1571 44.6659 21.1915C44.5555 21.2378 44.4384 21.2599 44.3214 21.2564H43.7617V19.2021ZM44.0716 20.1643V20.914H44.2962C44.4104 20.9276 44.5253 20.8942 44.6209 20.8196C44.6536 20.7848 44.6791 20.7418 44.6955 20.6938C44.7118 20.6457 44.7191 20.5939 44.7159 20.5421C44.7194 20.4895 44.7125 20.4366 44.6961 20.3876C44.6797 20.3384 44.6539 20.2944 44.6209 20.2588C44.5265 20.1855 44.4139 20.1522 44.3013 20.1643H44.0716ZM45.3753 19.2021H45.6852V21.2564H45.3753V19.2021Z" fill="#1B0A40"/>
<path d="M47.7177 20.9613C47.6416 21.0744 47.5418 21.1619 47.4279 21.2152C47.3078 21.275 47.1788 21.3052 47.0482 21.3037C46.9205 21.3067 46.7934 21.2807 46.6738 21.227C46.5628 21.1814 46.4621 21.1067 46.379 21.0086C46.2972 20.9125 46.2327 20.7981 46.189 20.6721C46.1418 20.5312 46.1182 20.3809 46.1192 20.2294C46.1201 20.0863 46.1418 19.9444 46.184 19.8103C46.2258 19.6845 46.2887 19.5701 46.369 19.4738C46.4482 19.3756 46.5433 19.2973 46.6487 19.2436C46.7588 19.1856 46.878 19.1574 46.9985 19.1609C47.1284 19.1583 47.258 19.1782 47.3829 19.2199C47.4962 19.2575 47.5994 19.3286 47.6828 19.4266L47.5428 19.7158C47.4739 19.6411 47.3921 19.5847 47.303 19.5505C47.2193 19.5172 47.1316 19.5012 47.0435 19.5033C46.9661 19.5033 46.8896 19.5214 46.8185 19.5564C46.7465 19.5878 46.6817 19.6383 46.6288 19.704C46.5706 19.7675 46.526 19.8464 46.4989 19.9342C46.4643 20.0271 46.447 20.1279 46.4489 20.2294C46.447 20.3347 46.464 20.4393 46.4989 20.5363C46.5319 20.6218 46.5776 20.6997 46.6339 20.7666C46.6914 20.8294 46.7594 20.8776 46.8336 20.9082C46.9098 20.9439 46.9913 20.962 47.0734 20.9613C47.1722 20.9639 47.27 20.9375 47.3581 20.8846C47.4396 20.8389 47.5126 20.7747 47.573 20.6957L47.7177 20.9613Z" fill="#1B0A40"/>
<path d="M47.877 19.2021H49.4557V19.5681H48.8211V21.2564H48.5115V19.5681H47.877V19.2021Z" fill="#1B0A40"/>
<path d="M49.7949 19.2022H50.1045V19.4443C50.1709 19.3545 50.2549 19.2855 50.3493 19.2435C50.4578 19.1868 50.5755 19.1586 50.6941 19.1609C50.8089 19.1577 50.9231 19.1839 51.0288 19.2376C51.1226 19.2892 51.2072 19.3613 51.2786 19.4501C51.351 19.5459 51.4054 19.6585 51.4384 19.7807C51.4796 19.915 51.5001 20.057 51.4982 20.1998C51.4976 20.3487 51.4755 20.4963 51.4334 20.6367C51.3915 20.7659 51.3289 20.8842 51.2484 20.9849C51.1675 21.085 51.071 21.1653 50.9637 21.221C50.846 21.276 50.7205 21.304 50.594 21.3037C50.5034 21.3042 50.4128 21.2924 50.3244 21.2682C50.2464 21.2485 50.1718 21.2125 50.1045 21.162V22.1714H49.7949V19.2022ZM50.6041 19.5033C50.5031 19.5005 50.4031 19.529 50.3143 19.5859C50.2322 19.6329 50.1605 19.7016 50.1045 19.7866V20.8019C50.1731 20.8575 50.2492 20.8994 50.3294 20.9259C50.4059 20.9496 50.4849 20.9615 50.5641 20.9613C50.6516 20.9641 50.7387 20.9439 50.819 20.9023C50.8891 20.8671 50.952 20.8148 51.0036 20.7488C51.059 20.6824 51.0999 20.6015 51.1235 20.5127C51.1546 20.4167 51.1701 20.3145 51.1685 20.2116C51.1676 20.1158 51.1559 20.0205 51.1336 19.9283C51.11 19.8443 51.0707 19.7676 51.0187 19.704C50.9728 19.6371 50.9124 19.5861 50.8438 19.5564C50.768 19.5196 50.6862 19.5016 50.6041 19.5033Z" fill="#1B0A40"/>
<path d="M51.9395 19.2021H52.2541V19.822H52.5388C52.6524 19.8173 52.7659 19.8373 52.8735 19.881C52.9522 19.9129 53.0239 19.9653 53.0834 20.0345C53.135 20.0996 53.1727 20.1786 53.1932 20.2647C53.2174 20.3483 53.229 20.4361 53.2281 20.5244C53.2275 20.6169 53.2139 20.7086 53.1881 20.796C53.1658 20.8836 53.1246 20.9629 53.0683 21.0262C53.0075 21.1017 52.932 21.1584 52.8487 21.1915C52.7376 21.2368 52.6212 21.2588 52.5039 21.2564H51.9445L51.9395 19.2021ZM52.249 20.1643V20.914H52.474C52.5882 20.9276 52.7027 20.8942 52.7986 20.8196C52.831 20.7848 52.8565 20.7418 52.8729 20.6938C52.8896 20.6457 52.8965 20.5939 52.8933 20.5421C52.8968 20.4895 52.8902 20.4366 52.8735 20.3876C52.8572 20.3384 52.8317 20.2944 52.7986 20.2588C52.7043 20.1855 52.5913 20.1522 52.479 20.1643H52.249ZM53.5528 19.2021H53.8626V21.2564H53.5528V19.2021Z" fill="#1B0A40"/>
<path d="M55.3403 20.1939L55.9997 21.2564H55.62L55.1106 20.4241L54.5959 21.2564H54.2363L54.8907 20.2116L54.2763 19.2021H54.651L55.1204 19.9755L55.6001 19.2021H55.9597L55.3403 20.1939Z" fill="#1B0A40"/>
<path d="M28.25 23.7891H27.3058V25.501H26.9961V23.4468H28.5597V25.501H28.25V23.7891Z" fill="#1B0A40"/>
<path d="M30.3088 23.8185H29.6994V24.1609C29.6881 24.4002 29.6563 24.6376 29.6045 24.8693C29.5774 25.0171 29.5265 25.1574 29.4546 25.2825C29.4055 25.3728 29.334 25.4429 29.2498 25.4832C29.1692 25.5146 29.0848 25.5305 29 25.5304V25.1762C29.0395 25.1863 29.0804 25.1863 29.1199 25.1762C29.1723 25.139 29.2154 25.0861 29.2448 25.0228C29.2953 24.9197 29.3324 24.8083 29.3547 24.6922C29.3972 24.4993 29.4206 24.3012 29.4246 24.1019L29.4546 23.4644H30.6635V25.5186H30.3538L30.3088 23.8185Z" fill="#1B0A40"/>
<path d="M31.1828 23.5944C31.2644 23.5327 31.3537 23.4869 31.4476 23.4587C31.5498 23.4229 31.6558 23.405 31.7625 23.4056C31.854 23.3953 31.9468 23.4096 32.0333 23.4474C32.1195 23.4853 32.1979 23.5456 32.2621 23.624C32.3703 23.8042 32.4231 24.023 32.4118 24.2438V25.5011H32.1221V25.2413C32.0648 25.3264 31.9934 25.3967 31.9122 25.448C31.8059 25.5128 31.687 25.5434 31.5674 25.5365C31.4258 25.5433 31.2877 25.4839 31.1828 25.3712C31.1299 25.3105 31.089 25.2366 31.0631 25.155C31.0372 25.0733 31.0269 24.9859 31.033 24.899C31.0303 24.8031 31.0474 24.7079 31.0829 24.6216C31.1153 24.5424 31.1632 24.4735 31.2228 24.4208C31.2823 24.3605 31.3522 24.3162 31.4276 24.291C31.5136 24.262 31.603 24.248 31.6923 24.2497C31.7662 24.2517 31.8399 24.2616 31.9122 24.2792C31.9871 24.2956 32.0585 24.3297 32.1221 24.3795C32.1274 24.2931 32.1274 24.2063 32.1221 24.1198C32.1173 24.0476 32.1004 23.9773 32.072 23.9132C32.0422 23.8584 32.0009 23.8137 31.9522 23.7833C31.8867 23.7474 31.8144 23.7312 31.7423 23.7361C31.6527 23.7325 31.5633 23.7464 31.4777 23.7774C31.4039 23.8067 31.3321 23.8422 31.2627 23.8837L31.1828 23.5944ZM31.6826 25.206C31.7804 25.2095 31.8773 25.1809 31.9622 25.1233C32.0255 25.0716 32.0827 25.01 32.1321 24.9403V24.6806C32.017 24.5891 31.8811 24.5417 31.7423 24.5448C31.6977 24.5362 31.652 24.5362 31.6074 24.5448C31.5652 24.5573 31.5249 24.5772 31.4875 24.6038C31.4531 24.6316 31.4241 24.6679 31.4026 24.7101C31.3821 24.7555 31.3718 24.8063 31.3727 24.8577C31.3706 24.9016 31.3767 24.9454 31.3905 24.9862C31.4043 25.027 31.4255 25.0637 31.4526 25.0938C31.5168 25.1571 31.5992 25.1889 31.6826 25.1823" fill="#1B0A40"/>
<path d="M32.7266 23.4468H34.3103V23.8128H33.6707V25.501H33.3662V23.8128H32.7266V23.4468Z" fill="#1B0A40"/>
<path d="M36.0534 25.2826C35.9669 25.3742 35.8646 25.4426 35.7539 25.4833C35.6409 25.5274 35.523 25.5494 35.404 25.5482C35.2729 25.5517 35.1423 25.5257 35.0196 25.4715C34.9089 25.428 34.8082 25.3553 34.7248 25.259C34.6418 25.163 34.5785 25.0459 34.5398 24.9166C34.4951 24.7772 34.4731 24.6289 34.475 24.4798C34.4716 24.3373 34.4904 24.1953 34.5298 24.0607C34.5669 23.9332 34.6267 23.8165 34.7047 23.7183C34.7843 23.6207 34.8793 23.5425 34.9844 23.4881C35.1067 23.4309 35.2376 23.4028 35.3691 23.4054C35.477 23.405 35.5837 23.429 35.6837 23.4763C35.7797 23.5156 35.8668 23.5802 35.9386 23.6652C36.0109 23.7497 36.0685 23.8499 36.1085 23.9603C36.1531 24.0813 36.1751 24.2121 36.1736 24.344C36.1818 24.4264 36.1818 24.5096 36.1736 24.5919H34.8195C34.8223 24.6786 34.8403 24.7637 34.872 24.8419C34.9038 24.9202 34.9488 24.9898 35.0045 25.0465C35.124 25.1567 35.2725 25.2132 35.4242 25.2059C35.5296 25.2088 35.6347 25.1888 35.7338 25.1468C35.8165 25.1131 35.8926 25.061 35.9587 24.9934L36.0534 25.2826ZM35.354 23.7478C35.2143 23.7403 35.0769 23.795 34.9696 23.9013C34.8758 24.0058 34.8157 24.1457 34.7997 24.2968H35.8536C35.8542 24.2217 35.842 24.1472 35.8168 24.0782C35.792 24.0091 35.7551 23.9468 35.7089 23.8954C35.6114 23.7935 35.4843 23.7406 35.354 23.7478Z" fill="#1B0A40"/>
<path d="M36.3229 23.4521H36.7123L37.3069 24.4379L36.6724 25.5005H36.293L36.9621 24.4379L36.3229 23.4521ZM37.3869 23.4521H37.6967V25.5005H37.3869V23.4521ZM38.1211 24.4379L38.8007 25.5005H38.4159L37.7716 24.4379L38.3709 23.4521H38.7658L38.1211 24.4379Z" fill="#1B0A40"/>
<path d="M40.5093 25.2825C40.4219 25.3754 40.3177 25.444 40.2048 25.4832C40.0921 25.5282 39.9739 25.5502 39.8549 25.5481C39.7253 25.5519 39.5963 25.5258 39.4752 25.4714C39.3648 25.4279 39.2638 25.3552 39.1804 25.2589C39.0977 25.1617 39.0332 25.0451 38.9907 24.9165C38.9476 24.7765 38.9259 24.6287 38.9259 24.4797C38.924 24.3369 38.9445 24.1949 38.9857 24.0606C39.0228 23.9331 39.0823 23.8164 39.1606 23.7182C39.2402 23.6207 39.3352 23.5424 39.4403 23.488C39.5611 23.4316 39.6901 23.4035 39.82 23.4054C39.9279 23.4038 40.0349 23.4279 40.1346 23.4762C40.2315 23.5168 40.3202 23.5812 40.3945 23.6651C40.4665 23.7497 40.5244 23.8499 40.5644 23.9602C40.6087 24.0812 40.6311 24.2121 40.6292 24.3439C40.6377 24.4263 40.6377 24.5095 40.6292 24.5919H39.2654C39.266 24.6791 39.2827 24.765 39.3148 24.8436C39.3468 24.9222 39.3931 24.9915 39.4504 25.0464C39.5699 25.1566 39.7184 25.2131 39.87 25.2058C39.9754 25.2083 40.0802 25.1883 40.1796 25.1468C40.2611 25.1103 40.3369 25.0585 40.4046 24.9933L40.5093 25.2825ZM39.8049 23.7477C39.6665 23.7399 39.5309 23.7948 39.4252 23.9012C39.3299 24.0041 39.2695 24.1448 39.2556 24.2967H40.3095C40.3064 24.146 40.2545 24.0023 40.1648 23.8953C40.066 23.7919 39.9367 23.7389 39.8049 23.7477Z" fill="#1B0A40"/>
<path d="M41.0488 25.5068V23.4526H41.3587V24.9815L42.3576 23.4526H42.6675V25.5068H42.3576V23.978L41.3587 25.5068H41.0488ZM41.5833 22.4019C41.5833 22.6439 41.6982 22.762 41.8832 22.762C42.0678 22.762 42.1477 22.6439 42.1629 22.4019H42.4526C42.4554 22.4889 42.4416 22.5756 42.4126 22.6557C42.3865 22.7313 42.3475 22.7996 42.2978 22.8564C42.2459 22.915 42.1849 22.9611 42.1179 22.9922C42.0424 23.0237 41.9631 23.0396 41.8832 23.0394C41.7966 23.04 41.7104 23.0241 41.6283 22.9922C41.5607 22.9627 41.4993 22.9164 41.4484 22.8564C41.399 22.7996 41.3597 22.7313 41.3335 22.6557C41.3087 22.5744 41.2967 22.4883 41.2986 22.4019H41.5833Z" fill="#1B0A40"/>
<path d="M6.80891 15.9971L3.27707 18.4055L0 25.1171L13.368 15.9971H6.80891Z" fill="#874691"/>
<path d="M16.9007 9.12012L13.3689 11.5285L10.0918 18.2402L23.4548 9.12012H16.9007Z" fill="#DA1844"/>
<path d="M13.3689 6.71167L10.0918 0V13.7598V18.2402V32L13.3689 25.2883V6.71167Z" fill="#F9B229"/>
<path d="M10.0918 0L13.3689 6.71167L16.9007 9.12007H23.4548L10.0918 0Z" fill="#F07F1A"/>
<path d="M10.0918 13.7598V32L13.3689 25.2883V20.4656L10.0918 13.7598Z" fill="#72B22C"/>
<path d="M16.9007 22.8799L13.3689 25.2883L10.0918 32L23.4548 22.8799H16.9007Z" fill="#00743E"/>
<path d="M0 6.87695V25.1171L3.27707 18.4055V13.5887L0 6.87695Z" fill="#5F5A94"/>
<path d="M10.091 13.7598V13.7657L0 6.87695L3.27707 13.5887L16.8999 22.8799H23.4541L10.091 13.7598Z" fill="#0D90CD"/>
<path d="M50.0643 7.86279V16.0738H47.6265V10.3066H45.2735V16.0738H42.8359V7.86279H50.0643Z" fill="#1B0A40"/>
<path d="M41.632 12.2307C41.6669 14.5919 40.0385 16.3097 37.7306 16.3097C35.5425 16.3097 33.6992 14.7454 33.6992 10.938C33.6992 7.70314 35.4475 5.03501 38.0301 4.98779H41.632L40.4881 7.41983H38.29C37.7457 7.39896 37.2143 7.61641 36.7975 8.03043C36.3806 8.44446 36.1082 9.02586 36.032 9.66292C36.7261 8.95981 37.6158 8.58545 38.5297 8.6122C39.3445 8.62686 40.1232 9.01142 40.7046 9.68621C41.286 10.361 41.6251 11.2743 41.6518 12.2366M39.2143 12.4255C39.2174 12.1985 39.1825 11.973 39.1111 11.7622C39.0397 11.5515 38.9333 11.3596 38.7984 11.198C38.6637 11.0364 38.5026 10.9082 38.3252 10.821C38.1481 10.7337 37.9577 10.6892 37.7655 10.69C37.5673 10.6844 37.3704 10.7263 37.1863 10.8133C37.0023 10.9003 36.8352 11.0305 36.6952 11.1961C36.5549 11.3617 36.4448 11.5592 36.3712 11.7766C36.2976 11.994 36.262 12.2268 36.2667 12.4609C36.2743 12.9044 36.4256 13.3276 36.6899 13.6429C36.9538 13.9582 37.3103 14.1415 37.6856 14.1551C37.8797 14.1614 38.0729 14.1218 38.2538 14.0388C38.4347 13.9557 38.5998 13.8308 38.7392 13.6714C38.8789 13.5119 38.9903 13.3212 39.0664 13.1103C39.1429 12.8994 39.1828 12.6726 39.1841 12.4432" fill="#1B0A40"/>
<path d="M31.8163 13.2696C31.2399 13.6835 30.5775 13.9001 29.903 13.8953C29.4745 13.8785 29.0681 13.6663 28.7691 13.3031C28.4701 12.9399 28.3018 12.454 28.2995 11.9473C28.3018 11.4397 28.4709 10.9529 28.7709 10.5896C29.0709 10.2262 29.4786 10.0146 29.908 9.99934C30.5814 9.99055 31.2431 10.2075 31.8163 10.625L32.7255 8.6889C31.9585 7.98694 31.013 7.61247 30.0429 7.62635C27.66 7.62635 26.0215 9.91669 26.0215 11.9473C26.0215 14.3085 27.8399 16.2978 30.0179 16.3096C30.9973 16.3295 31.9528 15.9525 32.7255 15.2412L31.8163 13.2696Z" fill="#1B0A40"/>
</g>
</g>
</g>
<defs>
<clipPath id="clip0_3188_285993">
<rect width="56" height="32" fill="white"/>
</clipPath>
</defs>
</svg>
