<svg width="54" height="54" viewBox="0 0 54 54" fill="none" xmlns="http://www.w3.org/2000/svg">
<path d="M52.0254 16.2969L49.6388 18.6846L35.3179 4.36552L37.7045 1.97754C40.3408 -0.65918 44.6161 -0.65918 47.2526 1.97754L52.0254 6.75161C54.6582 9.38689 54.6582 13.6604 52.0254 16.2969ZM18.6114 44.9333C17.9523 45.5924 17.9523 46.6598 18.6114 47.3189C19.2708 47.9817 20.3387 47.9817 20.9978 47.3189L47.2526 21.0709L44.8633 18.683L18.6114 44.9333ZM6.6774 33.002C6.01801 33.6616 6.01801 34.7285 6.6774 35.388C7.33646 36.0472 8.4044 36.0472 9.06379 35.388L35.3179 9.13804L32.9323 6.75161L6.6774 33.002ZM37.7014 11.5227L11.4496 37.7742C10.1314 39.0899 10.1347 41.2288 11.4496 42.5471C12.7684 43.8655 14.9038 43.8716 16.2255 42.5435L42.4773 16.2969L37.7014 11.5227ZM16.2187 49.6992C15.4116 48.891 15.0225 47.8668 14.8777 46.8115C14.5346 46.8644 14.189 46.9137 13.836 46.9137C12.0329 46.9137 10.3394 46.2089 9.06379 44.9333C7.78819 43.6544 7.08617 41.9633 7.08617 40.1603C7.08617 39.8316 7.13547 39.5112 7.18177 39.1918C6.09079 39.0432 5.08239 38.5653 4.29134 37.7742C4.21544 37.6989 4.18929 37.5966 4.12018 37.514L0 54L16.4429 49.8838C16.3704 49.8178 16.2884 49.7684 16.2187 49.6992Z" fill="#262060"/>
</svg>
