<svg width="31" height="32" viewBox="0 0 31 32" fill="none" xmlns="http://www.w3.org/2000/svg">
<path fill-rule="evenodd" clip-rule="evenodd" d="M3.59602 0.142754C2.24212 0.512491 0.983665 1.60297 0.348734 2.95627L0 3.6998V16.0156V28.3315L0.351356 29.0806C0.841943 30.1267 1.76268 31.0639 2.80219 31.5754L3.66525 32H10.9443H18.2233L18.9775 31.6468C19.9693 31.1823 21.0366 30.1572 21.5064 29.2179C21.8445 28.5417 21.8888 28.3043 21.9288 26.9558C21.9685 25.6186 21.9435 25.4009 21.7057 25.022C20.9345 23.7931 19.1119 23.7518 18.3287 24.9455C18.17 25.1875 18.0677 25.6693 18.0177 26.4118C17.9009 28.144 18.5192 28.0039 10.9894 28.0039C7.09647 28.0039 4.54403 27.9543 4.39706 27.8756C4.26517 27.8052 4.09212 27.5605 4.01241 27.332C3.80854 26.7474 3.80854 5.28383 4.01241 4.69922C4.09212 4.47072 4.26517 4.22611 4.39706 4.15562C4.54403 4.07701 7.09647 4.02735 10.9894 4.02735C18.5465 4.02735 17.907 3.87642 18.0194 5.68671C18.0698 6.49589 18.1651 6.96769 18.3287 7.21702C19.1122 8.41047 20.9349 8.36907 21.7055 7.14024C21.9443 6.7595 21.9685 6.54292 21.9292 5.14101C21.8893 3.71775 21.8492 3.49724 21.5068 2.81332C21.0364 1.87391 19.9688 0.848687 18.9775 0.384485L18.2233 0.0312567L11.2093 0.00518381C5.93805 -0.0144691 4.04636 0.019727 3.59602 0.142754ZM22.9173 9.26236C22.1741 9.7153 21.8442 10.5116 22.0176 11.4348C22.0826 11.7809 22.3713 12.1846 23.0955 12.9423L24.0847 13.977L18.1808 14.0137C12.4253 14.0494 12.2678 14.0573 11.907 14.3244C10.6364 15.2657 10.6364 16.7655 11.907 17.7068C12.2663 17.9729 12.4489 17.9829 18.1715 18.0464L24.0659 18.1119L23.2603 18.8981C22.4381 19.7002 21.9677 20.4808 21.9626 21.0512C21.9611 21.2267 22.0777 21.6138 22.222 21.9115C22.6883 22.8744 23.9121 23.2928 24.8965 22.8262C25.4504 22.5633 30.6867 17.3005 30.8664 16.826C31.0447 16.3546 31.0445 15.6763 30.8661 15.2053C30.7161 14.8095 26.0343 10.0124 25.1849 9.38421C24.5494 8.91424 23.5745 8.86197 22.9173 9.26236Z" fill="#262060"/>
</svg>
