<svg width="22" height="22" viewBox="0 0 22 22" fill="none" xmlns="http://www.w3.org/2000/svg">
<path fill-rule="evenodd" clip-rule="evenodd" d="M5.84103 0.310166C0.182472 1.93253 -1.9048 9.16237 2.00641 13.5927C3.65272 15.4574 5.17061 16.1857 7.76129 16.3543C9.55106 16.4709 10.0992 16.384 11.4451 15.7696C17.0612 13.2059 18.1859 6.10326 13.611 2.08818C11.4852 0.222352 8.51596 -0.456961 5.84103 0.310166ZM10.4545 2.4835C15.1009 4.41864 15.713 10.6373 11.5346 13.4588C10.8598 13.9146 9.91691 14.2171 8.91274 14.3002C2.94489 14.7936 -0.295604 8.09509 3.89132 3.92083C5.73646 2.08114 8.19548 1.5425 10.4545 2.4835ZM5.78271 4.16371C3.81208 5.48768 2.59318 8.36029 4.09457 8.14208C4.53229 8.07835 4.81507 7.75675 4.97384 7.14323C5.25397 6.05892 6.02896 5.30442 7.17334 5.00103C7.7227 4.85536 8.04761 4.55521 8.10917 4.13699C8.2376 3.2609 7.10707 3.27382 5.78271 4.16371ZM14.9168 14.9995L13.5707 16.3881L16.3949 19.1935C19.4702 22.2482 20.1975 22.5592 21.3663 21.3189C22.5378 20.0754 22.2435 19.4278 19.1347 16.404L16.2627 13.6106L14.9168 14.9995Z" fill="#311D5D"/>
</svg>
